<?xml version="1.0" encoding="UTF-8"?>
<!DOCTYPE svg PUBLIC "-//W3C//DTD SVG 1.1//EN" "http://www.w3.org/Graphics/SVG/1.1/DTD/svg11.dtd">
<!-- Creator: CorelDRAW 2017 -->
<svg xmlns="http://www.w3.org/2000/svg" xml:space="preserve" width="244.831mm" height="94.488mm" version="1.1" style="shape-rendering:geometricPrecision; text-rendering:geometricPrecision; image-rendering:optimizeQuality; fill-rule:evenodd; clip-rule:evenodd"
viewBox="0 0 24483.06 9448.8"
 xmlns:xlink="http://www.w3.org/1999/xlink">
 <defs>
  <style type="text/css">
   <![CDATA[
    .fil0 {fill:#0E0B03}
    .fil2 {fill:#2F2A18}
    .fil1 {fill:#524831}
    .fil72 {fill:#75572A}
    .fil67 {fill:#785935}
    .fil11 {fill:#793506}
    .fil29 {fill:#7A2B02}
    .fil62 {fill:#7A6434}
    .fil80 {fill:#86330A}
    .fil31 {fill:#863907}
    .fil14 {fill:#876838}
    .fil15 {fill:#894409}
    .fil9 {fill:#894616}
    .fil28 {fill:#977B56}
    .fil57 {fill:#987539}
    .fil68 {fill:#987847}
    .fil71 {fill:#998767}
    .fil48 {fill:#9B824A}
    .fil21 {fill:#A68A66}
    .fil51 {fill:#A78957}
    .fil39 {fill:#A8874A}
    .fil66 {fill:#A97A4B}
    .fil35 {fill:#B5B6B1}
    .fil64 {fill:#B69967}
    .fil65 {fill:#B69A77}
    .fil74 {fill:#B9A687}
    .fil4 {fill:#B9BAB5}
    .fil13 {fill:#BAA578}
    .fil10 {fill:#C58B46}
    .fil7 {fill:#C5AA86}
    .fil50 {fill:#C69B69}
    .fil12 {fill:#C7A978}
    .fil59 {fill:#C9BBA7}
    .fil6 {fill:#CAB37A}
    .fil23 {fill:#CDCDCA}
    .fil37 {fill:#CECECD}
    .fil16 {fill:#D0D0CE}
    .fil26 {fill:#D2D2D1}
    .fil22 {fill:#D4A254}
    .fil60 {fill:#D5A75A}
    .fil19 {fill:#D5AA67}
    .fil38 {fill:#D5AA75}
    .fil73 {fill:#D5BCA6}
    .fil32 {fill:#D5D5D3}
    .fil63 {fill:#D6D6D2}
    .fil24 {fill:#D7D7D5}
    .fil5 {fill:#D8C6A9}
    .fil33 {fill:#D8D4CA}
    .fil40 {fill:#D8D8D6}
    .fil61 {fill:#DAA559}
    .fil41 {fill:#DBDBD9}
    .fil36 {fill:#DCAA5C}
    .fil58 {fill:#DCAD63}
    .fil27 {fill:#DCDBDA}
    .fil46 {fill:#DDDDDA}
    .fil69 {fill:#DEDEDC}
    .fil18 {fill:#E1E0DE}
    .fil20 {fill:#E3AD64}
    .fil56 {fill:#E3B365}
    .fil75 {fill:#E4BC73}
    .fil78 {fill:#E4C583}
    .fil54 {fill:#E5BA6C}
    .fil47 {fill:#E5C175}
    .fil76 {fill:#E5CBA5}
    .fil79 {fill:#E6C88B}
    .fil77 {fill:#E7D7B7}
    .fil45 {fill:#E9C682}
    .fil42 {fill:#EABD73}
    .fil49 {fill:#ECCA84}
    .fil43 {fill:#ECD08E}
    .fil55 {fill:#EDD395}
    .fil44 {fill:#EED291}
    .fil52 {fill:#F3D49B}
    .fil34 {fill:#F4DDA3}
    .fil3 {fill:#F4F4F3}
    .fil17 {fill:#F5E1AC}
    .fil70 {fill:#F9E6B4}
    .fil8 {fill:#FBF6F8}
    .fil30 {fill:#FBFBFB}
    .fil53 {fill:#FDFDF9}
    .fil25 {fill:#FDFDFD}
   ]]>
  </style>
 </defs>
 <g id="Capa_x0020_1">
  <metadata id="CorelCorpID_0Corel-Layer"/>
  <g id="_2214258688384">
   <path class="fil0" d="M20607.73 8215.15l265.09 -7.02c-17.69,-286.58 52.51,-98.78 -97.58,-224.48 -133.79,100.58 -119.97,37.31 -167.51,231.5z"/>
   <polygon class="fil0" points="3667.33,8547.56 3902.76,8516.72 3933.31,8348.54 3675.6,8395.03 "/>
   <path class="fil0" d="M9997.23 8645.54c300.72,-34.99 138.13,-18.49 189.81,-86.14 -51.26,-206.36 61.08,-97.94 -140.24,-131.13l-49.57 217.27z"/>
   <polygon class="fil0" points="13759.2,6529.91 13941.56,6502 13974.62,6325.03 13804.42,6346.41 "/>
   <path class="fil0" d="M23383.91 8477.97l15.97 -188.23c-196.12,95.21 -122.07,48.44 -202.13,234.86l186.16 -46.63z"/>
   <path class="fil0" d="M15170.27 8452.96l198.27 -70.02c-66.7,-200.42 50.23,-101.5 -138.04,-147.63l-60.23 217.65z"/>
   <path class="fil0" d="M717.94 8600.34c21.23,0.68 105.52,90.9 147.88,-16.77 6.73,-17.09 25.97,-18.69 39.74,-26.83 -4.07,-3.14 -100.24,-70.5 -113.01,-74.23 -125.1,-36.44 -15.31,-21.39 -138.35,20.93l63.74 96.9z"/>
   <polygon class="fil1" points="9277.87,6142.42 9263.08,5888.39 8920.43,5909.75 8942.79,6105.25 "/>
   <polygon class="fil1" points="13759.2,6529.91 13804.42,6346.41 13599.42,6363.6 13616.84,6496.29 "/>
   <polygon class="fil2" points="3576.12,9333.45 3614.18,9079.92 3235.21,9138.85 3275.11,9314.73 "/>
   <path class="fil2" d="M1970.67 5963.58l-410.79 -44.1 80.31 225.95c272.8,20.83 259.47,69.61 330.48,-181.85z"/>
   <path class="fil2" d="M16922.38 7951.45c-281.25,88.56 -97.69,73.89 -352.46,18.79 32.63,298.55 -55.76,243.06 268.82,240.89 133.48,-183.42 51.55,2.35 83.64,-259.68z"/>
   <path class="fil2" d="M22359.66 8858.06l-353.41 46.83c-0.09,224.08 39.54,221.03 247.34,199.11 139.36,-145.61 47.81,175.39 106.07,-245.94z"/>
   <path class="fil2" d="M18063.29 9093.38c249.12,50.99 227.21,12.62 307.03,-162.28 -244.86,-33.75 -359.03,-89.52 -307.03,162.28z"/>
   <polygon class="fil2" points="7272.44,9279.39 7573.99,9302 7599.62,9107.2 7303.02,9128.02 "/>
   <path class="fil2" d="M13119.4 3855.8l-277.34 15.39c67.69,213.02 -26.33,126.52 168.18,206.71 123.84,-119.85 27.67,41.87 109.16,-222.1z"/>
   <path class="fil2" d="M7107.7 8538.08c160.5,-167.56 109.46,178.18 137.08,-215.78l-292.04 102.17c64.77,112.07 -142.81,93.93 154.96,113.61z"/>
   <polygon class="fil3" points="2695.34,2150.92 2261.91,2138.31 2234.72,2306.07 2748.33,2331.7 "/>
   <path class="fil3" d="M8787.96 2122.72l-463.42 11.04 -28.94 116.99c-49.94,137.35 329.16,51.47 439.49,24.56l52.87 -152.59z"/>
   <path class="fil4" d="M14107.85 4391.11c202.26,-34.47 500.12,40.68 620.29,-51.33 -53.37,-62.81 51.32,25.32 -80.52,-92.28 -95.11,-84.83 -66.38,-55.08 -145.95,-107.38 -82.48,-54.23 -174.96,-109.92 -256.39,-165.94 -174.22,77.43 -82.68,-28.09 -123.63,136.09 -2.71,10.91 -11.01,252.25 -13.8,280.84z"/>
   <path class="fil5" d="M21497.05 5978.5c58.77,27.96 -64.06,102.93 254.92,35.2l84.8 -124.61c100.08,-156.2 -37.46,-15.97 99.89,-142.73l57.65 -573.04 -285.85 -4.99c6.4,175.08 1.43,294.93 -16.01,469.26 -32.72,327.09 36.75,321.01 -195.4,340.91z"/>
   <path class="fil5" d="M8934.16 5662.96c95.18,-56.68 70.23,-51.67 197.89,-88.99l-13.78 -261.41 -209.9 -7.11 25.79 357.51z"/>
   <polygon class="fil6" points="13931.83,1976.49 13936.35,2307.65 14178.47,2344.75 14222.29,2034.08 13924.19,1933.69 "/>
   <polygon class="fil7" points="1559.88,5919.48 1970.67,5963.58 1968.73,5813.96 1909.17,5314.53 1525.08,5339.38 "/>
   <path class="fil8" d="M4185.88 2301.97l2601.58 8.01c-100.09,-162.4 -73.27,-106.93 -604.62,-104.89 -486.16,1.88 -1913.9,-114.87 -1996.96,96.88z"/>
   <path class="fil8" d="M3967.73 2303.76c-85.84,-168.07 -101.52,-112.56 -343.95,-102.88 -664.62,-158.95 -560.09,29.08 -585.65,50.19 233.2,134.5 669.16,86.93 929.6,52.69z"/>
   <path class="fil8" d="M7109.02 2219.54c-84.78,147.8 -44.95,39.11 30.87,97.12l830.92 2.31 -31.69 -190.1 -481.59 7.2 -81.56 53.72c-240.09,92.25 164.2,-27.75 -102,30.04 -73.39,15.92 -100.67,1.83 -164.95,-0.29z"/>
   <path class="fil9" d="M15586.1 4931.42l409.79 194.89c-14.94,-196.32 -51.97,7.92 19.28,-60.07l76.83 -50.82c4.72,-3.17 23.57,-11.56 32.74,-20.6l-260.6 -510.47c-22.83,-9.02 -45.13,133.74 -173.62,-215.78l-276.23 16.64c96.96,178.81 123.73,382.95 171.81,646.21z"/>
   <path class="fil9" d="M11353.83 1118.2c239.64,214.61 363.74,303.28 585.94,512 136,-126.35 105.31,182.45 115.46,-161.75 -164.16,-117.88 -241.18,-166.46 -338.78,-322.61 -230.05,-108.97 -137.54,-106.48 -246.96,-181.6 -451.36,-309.85 -253.95,21.26 -294.68,59.39l179.02 94.57z"/>
   <path class="fil10" d="M22988.01 5193.05l104.26 -20.42 19.93 -55.56 46.3 -186.37 10.26 -373.45c-479.19,94.77 -190.17,70.1 -399.64,175.72 -62.46,-344.84 -47.23,-314.83 -316.82,-498.26 171.03,373.85 94.33,433.09 128.89,676.07 11.88,83.51 -32.34,-134.44 23.57,106.1 26.95,115.94 58.06,114.26 105.18,127.7l170.42 43.1c17.02,3.24 86.53,3.13 107.65,5.37z"/>
   <path class="fil11" d="M23158.5 4930.7l-46.3 186.37 531.61 23.3 483 -767.83c-116.12,-127.16 59.8,-77.34 -264.51,-108.98 -4.88,-0.47 -234.7,5.79 -261.4,6.19 -160.11,2.4 -299.16,-4.34 -438.09,23.49 219.2,157.35 260,142.97 538.46,57.54 28.85,227.48 20.46,252.37 -299.56,438.24l-243.21 141.68z"/>
   <path class="fil11" d="M13542.17 3085.15l193.05 518.53c220.05,-91.85 70.21,49.07 154.48,-184.06 35.25,-97.51 21.58,-158.57 45.26,-274.92 -136.24,-113.12 -274.3,-216.47 -417.1,-319.12l24.31 259.57z"/>
   <path class="fil12" d="M23142.04 7176.61l-5.48 182.39c205.69,16.66 153.93,-215.53 164.92,-448.8 33.68,-714.38 167.69,-890.9 216.74,-1657.19l12.01 634.29 113.58 -746.93 -531.61 -23.3 -19.93 55.56 193.03 77.73 -143.26 1926.25z"/>
   <polygon class="fil12" points="16671.83,1976.7 16697.31,2337.53 16916.61,2307.49 16917.44,2250.75 "/>
   <path class="fil13" d="M9984.86 5318.02c107.53,117.64 52.2,-35.32 75.47,158.28l-95.8 1384.97 -7.78 268.4c28.83,102.77 66.63,83.18 122.02,140.23l203.68 -1799.15 51.96 198.82c15.88,-37.43 29.07,-32.74 51.68,-163.5 10.69,-61.8 18.46,-188.47 22.26,-254.25 11.76,-203.39 14.58,-320.71 -7.92,-523.92 -11.05,12.81 -26.04,29.7 -32.94,38.6 -177.07,228.43 -158.57,299.58 -382.63,551.52z"/>
   <path class="fil13" d="M8934.16 5662.96l-19.79 134.39 6.06 112.4 342.65 -21.36 14.79 254.03c7.67,-19.57 22.23,-66.74 23.83,-58.42 1.61,8.29 16.13,-43.48 17.52,-60.46 7.85,-95.85 7.45,-103.45 -4.99,-202.11l43.83 -498.67 -239.79 -10.2 13.78 261.41c-127.66,37.32 -102.71,32.31 -197.89,88.99z"/>
   <path class="fil14" d="M23383.91 8477.97l-186.16 46.63c80.06,-186.42 6.01,-139.65 202.13,-234.86l-15.97 188.23zm-247.35 -1118.97l-20.22 408.19 -31.13 606.73c20.89,127.42 18.81,92.04 57.7,157.27 279.65,65.96 146.49,41 241,-53.22 43.61,-48.85 50.68,82.3 71.14,-286.7 6.85,-123.54 8.68,-261.49 14.65,-388.68 13.22,-282.11 -13.46,-522.16 78.4,-735.56 -101.39,-343.78 38.89,-801.97 -17.87,-1179.73l-12.01 -634.29c-49.05,766.29 -183.06,942.81 -216.74,1657.19 -10.99,233.27 40.77,465.46 -164.92,448.8z"/>
   <path class="fil15" d="M1971.75 1857.87l92.65 231.77 197.51 48.67 433.43 12.61 232.89 7.2 658.38 -49.96 -58.6 -605.42c-285.1,-13.96 -1498.22,-92.21 -1677.01,41.55l120.75 313.58z"/>
   <path class="fil15" d="M14245.28 3974.18c81.43,56.02 173.91,111.71 256.39,165.94 79.57,52.3 50.84,22.55 145.95,107.38 131.84,117.6 27.15,29.47 80.52,92.28 268.71,135.51 283.09,230.22 555.88,302.41 -29.61,-342.6 -35.81,-209.37 -305.04,-438.41 -413.24,-320.94 -585.96,-585.23 -925.24,-712.35 39.44,332.16 -0.31,298.26 148.46,451.32 8.46,8.68 29.39,20.11 43.08,31.43z"/>
   <path class="fil15" d="M23168.76 4557.25l-10.26 373.45 243.21 -141.68c320.02,-185.87 328.41,-210.76 299.56,-438.24 -278.46,85.43 -319.26,99.81 -538.46,-57.54l5.95 264.01z"/>
   <path class="fil16" d="M11270.81 3705.11c113.12,50.76 79.73,25 140.71,30.19l293.05 -2.86c120.02,-24.56 -52.73,198.89 93.64,-53.08 0,255.97 -27.93,405.82 68.8,592.25l109.08 -1560.02 -823.46 9.88 7.2 174.85c-0.15,-9.91 -18.72,35.43 -27.2,63.97l-259.92 -22.5 8.03 -278.88 -378.87 78.82 768.94 967.38z"/>
   <path class="fil17" d="M3608.23 6908.75c577.42,-149.98 1265.79,61.88 1642.64,-110.31 261.34,-119.42 -97.66,-25.76 194.04,-99.02 428.32,-107.56 372.11,198.55 395.44,-364.64l-2165.26 -0.3 -66.86 574.27z"/>
   <path class="fil17" d="M18529.56 6635.16c199.16,26.25 1469.33,97.62 1571.85,-45.15 -63.45,-296.99 -78.88,-108.01 -475.08,-191.41 44.17,-127.09 190.35,-102.47 666.52,-150.29 281.84,-28.31 591.27,-9.05 849.22,-54.52l-2634.08 -84.5 21.57 525.87z"/>
   <path class="fil18" d="M23383.91 8477.97c-94.51,94.22 38.65,119.18 -241,53.22 -38.89,-65.23 -36.81,-29.85 -57.7,-157.27l31.13 -606.73c-196.25,130.22 -134.62,34.23 -173.75,343.1 -118.23,-227.59 72.52,-224.82 -169.69,-272.25 -135.8,186.7 -92.48,350.61 -127.3,569.03 2.66,-27.56 -29.84,-218.29 -38.73,-390.87 -10.32,12.92 -187.62,-80.21 -89.51,267.24 0,-327.7 28.04,-33.33 -135.24,-161.7l25.61 452.73c190.95,71.93 1651.99,64.26 2075.53,26.37 -124.19,-180.91 -343.19,-390.03 -551.68,-616.85l-219.35 -219.47c-285.89,-282.71 -153.51,-311.56 -164.13,-697.49 -91.86,213.4 -65.18,453.45 -78.4,735.56 -5.97,127.19 -7.8,265.14 -14.65,388.68 -20.46,369 -27.53,237.85 -71.14,286.7z"/>
   <path class="fil19" d="M18490.93 6066.11c953.69,-42.81 2661,-79.6 3429.44,120.5l16.29 -440.25c-137.35,126.76 0.19,-13.47 -99.89,142.73l-84.8 124.61c-318.98,67.73 -196.15,-7.24 -254.92,-35.2 -673.86,-554.4 -2060.04,-265.14 -2977.79,-324.36l-28.33 411.97z"/>
   <path class="fil19" d="M10945.28 503.87c228.73,-322.19 -193.48,-77.83 79.26,-57.9 9.96,0.72 58.51,2.57 70.79,10.27 44.37,27.82 102.99,161.81 127.17,207.39l184.89 -16.76c104.82,345.86 168.77,175.77 309.06,498.97 97.6,156.15 174.62,204.73 338.78,322.61 -10.15,344.2 20.54,35.4 -115.46,161.75 124.66,250.64 67.67,387.07 64.07,684.36l235.64 -446.67 -61.17 -482.9 1345.23 -6.53 -66.47 -139.36 -1340.13 44.12c-49.78,-37.95 -127.91,-107.91 -128.65,-108.47 -12.79,-9.84 -27.93,-20.64 -40.88,-30.28 -366.8,-272.87 -225.1,-389.93 -650.08,-626.75 -96.35,-53.7 -21.13,14.15 -125.56,-63.56 -241.79,-179.93 0.77,-200.06 -341.04,-329.64 8.95,217.09 13.82,215.22 114.55,379.35z"/>
   <path class="fil20" d="M260.78 4484.95c119.37,-98.81 248.72,-79.38 495.45,-73.56l1936.7 5.64 1.92 -251.39c-558.21,174.49 -1370.55,98.94 -2037.49,20.87l1035.54 -231.16 -614.79 -68.13c-9.37,-22.45 -181.29,-72.13 104.98,-158.12 -590.75,92.9 -224.59,12.59 -359.16,-115.2 153.47,-22.28 245.39,-66.69 330.4,-46 -201.11,61.37 -247.06,63 -493.06,75.54l280.99 -205.78c104.4,-44.05 142.51,-43.9 258.52,-68.01 -409.32,2.96 -215.77,-44.26 -298.37,-106.37l248.34 -12.39c-110.93,-83.95 -166.48,-50.7 -327.44,-232.48l79.01 -18.59c-142.29,73.45 -392.59,451.73 -507.48,610.72 -194.82,269.52 -415.07,446.55 -393.58,746.19l259.52 128.22z"/>
   <path class="fil20" d="M1851 1544.29c178.79,-133.76 1391.91,-55.51 1677.01,-41.55 118.9,-397.67 43.79,-86.42 -25.18,-180.15l-1339.95 8.3c-98.32,-136.59 -125.36,200.16 33.81,-122.19 72.31,-146.44 59.56,-64.61 218.2,-169.99 -91.88,-63.52 -146.72,-32.67 -223.48,-191.42 295.31,-119.9 78.86,218.79 300.48,-258.25 -197.02,73.67 -118.89,70.02 -294.68,7.11 -150,215.93 -503.99,545.37 -553.15,825.42l206.94 122.72z"/>
   <path class="fil21" d="M2763.6 5337.79c105.05,91.45 -91.32,37.46 227.77,72.37 49,5.35 208.75,0.2 271.19,1.79l-2.97 381.95 -62.65 335.32c97.54,361.69 96.15,338.4 65.06,775.75l-322.92 87.49 12.47 131.82 302.65 52.07 -18.99 1962.5 378.97 -58.93 53.15 -532.36 8.27 -152.53 257.71 -46.49 11.05 -99.19 -20.76 -1058.35c-150.18,-80.77 -236.12,-88.24 -295.62,-283.9 -225.77,152.46 -73.13,159.82 -37.57,701.2 14.27,217.3 15.1,485.66 38.94,688.29l-111.74 -939.24c-40.03,89.21 -15.43,33.16 -39.89,112.69 -32.12,104.43 -44.25,618.57 -213.82,684.26l-15.99 -2584.88 292.69 -127.63c84.41,-580.01 -156.08,-568.21 -165.39,-574.27 -129.49,90.25 -209.69,96.19 -119.06,443.21l-492.55 27.06z"/>
   <path class="fil21" d="M13735.22 3603.68l79.96 183.28c39.74,216.67 4.63,82.39 -21.03,111.64l7.77 394.32c115.04,39.25 -118.88,94.31 69.8,-37.26 6.06,-4.23 27.82,-21.36 33.41,-25.36 6.29,-4.49 24.38,-20.1 38.09,-27.8 -10.45,652.34 72.84,830.81 -72.26,1483.36 -76.27,342.99 -18.34,238.3 -238.24,291.5l-33.3 386.24 205 -17.19 170.2 -21.38 61.75 -1289.3 71.48 -644.62c2.79,-28.59 11.09,-269.93 13.8,-280.84 40.95,-164.18 -50.59,-58.66 123.63,-136.09 -13.69,-11.32 -34.62,-22.75 -43.08,-31.43 -148.77,-153.06 -109.02,-119.16 -148.46,-451.32 339.28,127.12 512,391.41 925.24,712.35 215.96,-185.84 -146.82,-329.66 -147.5,-330.09l-270.18 -240.38c-436.35,-379.38 -210.79,-287.19 -626.34,-488.61 -23.68,116.35 -10.01,177.41 -45.26,274.92 -84.27,233.13 65.57,92.21 -154.48,184.06z"/>
   <path class="fil22" d="M7597.3 4502.73l90.59 776.94c51.07,10.06 196.68,24.37 218.22,30.25 17.04,4.65 35.38,9.66 52,15.14 16.24,5.37 34.71,14.14 49.16,19.69 14.27,5.5 35.56,18.42 46.89,23.32 11.3,4.9 32.52,13.91 45.83,25.14 106.84,0 84.77,27.47 73.02,-76.29l32.74 -859.14c383.16,-31.02 780.39,-10.23 1167.43,-10.21 395.75,0.03 1125.19,-89.74 1055.72,98.08 297.18,-194.85 433.43,-51.13 461.54,-320.05 -310.84,172.51 -1130.56,71.03 -1581.08,68.55 -171.64,-0.94 -757.89,15.7 -885.55,-11.87 -416.46,-89.91 -32.36,-180.31 -274.04,-544.41 -254.42,-9.98 -499.63,-3.11 -754.75,-3.02 -578.1,0.18 -487.71,24 -637.66,162.28 362.91,6.58 1075.77,-18.86 1326.82,64.88l-282.2 120.19c193.21,179.86 146.53,72.24 197.61,210.74 3.4,-103.12 -44.82,47.22 -204.43,27.38 -7.18,-0.89 -25.56,-5.28 -33.89,-6.49l-267.41 -34.77c63.94,144.56 117.52,183.05 103.44,223.67z"/>
   <path class="fil22" d="M22133.73 4165.73l318.57 68.98c269.59,183.43 254.36,153.42 316.82,498.26 209.47,-105.62 -79.55,-80.95 399.64,-175.72l-5.95 -264.01c138.93,-27.83 277.98,-21.09 438.09,-23.49 26.7,-0.4 256.52,-6.66 261.4,-6.19 324.31,31.64 148.39,-18.18 264.51,108.98 54.95,-42.9 121.98,-79.89 181.87,-141.77l-4.56 -136.79 -1101.03 5.55 -10.93 -556.12c-454.8,-133.25 -1093.94,-47.11 -1622.04,-38.09 124.93,108 175.13,130.61 439.85,148.82 106.59,7.33 258.06,0.15 371.23,0.71 -29.68,142.47 203.34,134.79 -223.98,146.78 218.73,84.97 138.79,110.84 135.37,143.14 -25.09,236.84 -21.04,98.09 -158.86,220.96z"/>
   <path class="fil22" d="M16767.35 1291.95l220.56 107.08 171.37 534.3c12.59,7.96 36.68,25.87 48.22,33.41 12.23,7.99 33.29,24.63 49.93,36.93l179.4 -0.2 -18.08 286.94c104.07,100.77 -152.26,56.07 222.4,99.32l-7.36 -401.97 -315.68 -27.12 45.38 -586.59 491.05 -0.02c174.31,49.38 27.1,-32.92 145.52,84.43 120.73,-88.01 167.83,-80.38 173.94,-228.64 -251.39,-9.39 -497.63,-5.7 -697.17,-1.48 -161.65,-220.49 -35.08,-288.82 -263.34,-383.92 -233.24,-97.21 -1405.22,22.57 -1730.47,32.01l1363.99 101.74c-64.96,126.63 -104.98,151.79 -189.38,249.08 203,-5.91 52.11,-17.31 109.72,64.7z"/>
   <path class="fil23" d="M1035.24 6769.08c44.75,10.51 14.16,-26.73 170.49,-188.67 292.73,17.13 1396.39,89.28 1619.73,-89.6 103.67,-83.06 94.14,13.25 145.6,-219.13 65.69,-296.67 -14.87,-201.24 -42.2,-240.55 88.74,320.4 -9.22,97.53 165.43,229.6l102.65 -131.51 62.65 -335.32 -1290.86 20.06 1.94 149.62c-71.01,251.46 -57.68,202.68 -330.48,181.85l-80.31 -225.95 -34.8 -580.1 -53.3 -19.39c149.29,417.1 95.97,358.11 -78.28,553.87 -166.6,187.17 -353.92,655.6 -358.26,895.22z"/>
   <path class="fil23" d="M13810.99 7158.92c261.29,-280.41 -42.78,168.12 75.13,-219.91 2.24,-7.34 4.52,-28.74 12.59,-40.28 48.64,73.76 -28.04,144.75 446.56,140.43 216.2,-1.97 431.17,-5.21 647.89,-5.21 23.08,-45.69 37.48,-95.7 56.45,-130.54 48.27,-88.61 36.32,-67.64 78.72,-122.88l42.23 -433.68 -1195.94 -21.82 -33.06 176.97 -182.36 27.91 -142.36 -33.62 -17.42 -132.69 -363.09 -27.86c59.53,255.4 435.22,713.93 574.66,823.18z"/>
   <path class="fil24" d="M7920.72 6973.2l-72.53 162.11c-437.44,32.29 -167.7,-6.71 -268.29,156.28l86.82 520.61 1784.74 -49.62c6.58,-0.05 25.25,2.99 31.2,2.26 5.46,-0.63 23.77,-0.96 28.61,-2.51 99.32,-31.89 86.99,-120.86 87.04,-121.28l87.49 362.93 180.49 -230.42c-91.45,-268.67 -21.14,-342.65 18.47,-636.24 -298.04,0 -597.35,2.71 -895.23,-0.8 -768.37,-9.06 -555.83,-20.54 -683.4,153.71 0.54,-32.92 -1.95,-242.95 -5.61,-258.85 -42.43,-184.8 10.96,-57.14 -81.5,-182.55l-122 430.02 -140.92 -252.59c-5.95,-31 -21.94,-36.59 -35.38,-53.06z"/>
   <polygon class="fil25" points="13974.62,6325.03 15170.56,6346.85 15176.38,5773.26 15227.46,5036.13 14036.37,5035.73 "/>
   <polygon class="fil25" points="22504.72,5723.61 22482.29,6398.07 22974.59,6697.54 22916.22,6864.33 22915.57,6961.06 23142.04,7176.61 23285.3,5250.36 23092.27,5172.63 22988.01,5193.05 22524.32,5204.03 "/>
   <path class="fil25" d="M11152.63 2721.47l823.46 -9.88 27.75 -397.03c3.6,-297.29 60.59,-433.72 -64.07,-684.36 -222.2,-208.72 -346.3,-297.39 -585.94,-512 -135.56,27.77 -81.82,23.25 -111.21,295.15 -15.27,141.16 -26.25,306.35 -35.4,448.97 -18.61,290.36 -23.8,567.27 -54.59,859.15z"/>
   <path class="fil26" d="M1035.24 6769.08l-147.46 -28.98 79.58 1060.76c-5.75,212.11 -20.37,349.7 68.39,493.26 82.46,-285.66 46.43,-633.82 -6.8,-938.39 93.6,-0.44 79,45.59 82.19,46.93l1562.17 -22.57c102.81,170.96 -106.03,-190.88 52.22,108.74l226.02 -364.55 -12.47 -131.82c-122.81,-275.87 72.39,-423.99 155.21,-731.73 -174.65,-132.07 -76.69,90.8 -165.43,-229.6 27.33,39.31 107.89,-56.12 42.2,240.55 -51.46,232.38 -41.93,136.07 -145.6,219.13 -223.34,178.88 -1327,106.73 -1619.73,89.6 -156.33,161.94 -125.74,199.18 -170.49,188.67z"/>
   <path class="fil26" d="M12151.87 4214.83c42.59,-79.63 46.1,2.08 72.85,-237.5 9.68,-86.66 -7.7,-173.33 -14.79,-215.82l453.59 296.25 -65.42 -134.48 243.96 -52.09c-11.12,-65.55 -28.14,-1002.44 162.03,-1156.77 -18.09,-11.87 -105.56,-48.5 -136.07,-67 -157.33,116.17 -395.26,68.79 -643.93,79.48l25.29 -555.52c-90.64,200.62 -92.29,1833.93 -97.51,2043.45z"/>
   <path class="fil27" d="M14338.88 7833.43c93.86,210.75 217.25,325.01 357.07,515.71 188.14,256.59 199.83,277.28 600.97,273.73 543.58,-4.81 1143.79,-41.65 1703.07,4.04 -218.55,-230.26 -489.61,-449.51 -790.18,-526.02 136.34,-148.26 11.68,-130.76 246.4,-159.66l18.21 -462.93 -911.85 0.27c-113.25,314 -12.09,26.16 -130.79,169.59l-63.24 734.78 -198.27 70.02 -115.78 -76.2 -12.51 -216.4 46.64 -736.25c-158.73,163.31 -154.64,202.53 -163.81,451.55 -81.18,-84.57 -3.33,-22.44 -130.61,-51.13l-301.36 -51.51c-82.69,5.5 -33.55,-7.92 -153.96,60.41z"/>
   <path class="fil27" d="M14036.37 5035.73l1191.09 0.4 -51.08 737.13c143.49,-220.54 88.6,-852.96 107.64,-1131.07 -272.79,-72.19 -287.17,-166.9 -555.88,-302.41 -120.17,92.01 -418.03,16.86 -620.29,51.33l-71.48 644.62z"/>
   <path class="fil28" d="M17994.72 8860.4c-25.28,336.42 -3.36,161.9 68.57,232.98 -52,-251.8 62.17,-196.03 307.03,-162.28l4.63 -321.03 29.61 -324.49 20.01 -738.11c-189,195.05 -354.84,681.51 -385.68,956.84 -15.19,135.53 -13.2,242.97 -44.17,356.09z"/>
   <path class="fil29" d="M8173.01 5316.92l735.36 -11.47 209.9 7.11 239.79 10.2 626.8 -4.74c224.06,-251.94 205.56,-323.09 382.63,-551.52 6.9,-8.9 21.89,-25.79 32.94,-38.6l28.47 -182.25c69.47,-187.82 -659.97,-98.05 -1055.72,-98.08 -387.04,-0.02 -784.27,-20.81 -1167.43,10.21l-32.74 859.14z"/>
   <path class="fil29" d="M15995.89 5126.31l-13.03 5.46 1645.61 -16.09c-102.43,-181.96 -99.95,-420.79 -99.03,-703.06l8.67 -118.49 -1847.59 -25.56c128.49,349.52 150.79,206.76 173.62,215.78l260.6 510.47c-9.17,9.04 -28.02,17.43 -32.74,20.6l-76.83 50.82c-71.25,67.99 -34.22,-136.25 -19.28,60.07z"/>
   <path class="fil29" d="M7457.53 2136.07l481.59 -7.2 385.42 4.89 463.42 -11.04c99.06,-153.9 176.37,-366.09 284.57,-497.53l-7.76 -12.53c-95.61,-190.84 77.38,-95.01 -325.36,-123.56 -80.99,-5.75 -289.59,8.4 -386.99,9.43 -274.91,2.93 -545.21,-4.42 -820.18,7.25 -109.21,117.93 -82.15,38.65 -98.07,292.71 -9.29,148.22 4.65,199.18 23.36,337.58z"/>
   <polygon class="fil29" points="12239.48,1867.89 12239.55,1835.01 12390.73,1948.74 13546.58,1954.47 13518.3,1613.31 13523.54,1378.46 12178.31,1384.99 "/>
   <path class="fil30" d="M15482.75 5822.91l5.39 509.05 1168.31 -30.22 -6.13 -221.86 -174.43 -188.51c-67.54,-81.86 -96.12,134.55 -54.61,-169.21 335.63,-124.89 760.81,-66.27 1120.71,-63.12 616.77,5.41 643.63,134.3 613.29,-467.6l-376.54 0.75c-404.94,-37.12 -1567.09,28.7 -1795.88,-60.42l13.03 -5.46 -409.79 -194.89c-7.47,264.46 -0.09,711.56 -103.35,891.49z"/>
   <polygon class="fil30" points="3612.89,5850.89 7219.57,5844.43 7222.59,5423.92 3622.86,5415.82 "/>
   <path class="fil30" d="M12249.38 2171.38l-25.29 555.52c248.67,-10.69 486.6,36.69 643.93,-79.48 -21.47,-33.95 -66.71,-107.95 -70.36,-119.2 -31.4,-96.96 -38.82,-61.22 -28.74,-201.67l467.21 -2.39 700.22 -16.51 -4.52 -331.16c-258.91,56.37 -515.29,33.15 -794.04,34.22 -239.04,0.9 -545.01,34.15 -747.06,-61.97l-151.18 -113.73 9.83 336.37z"/>
   <path class="fil30" d="M887.78 6740.1l147.46 28.98c4.34,-239.62 191.66,-708.05 358.26,-895.22 174.25,-195.76 227.57,-136.77 78.28,-553.87l-666.68 -40.41 82.68 1460.52z"/>
   <polygon class="fil30" points="16331.66,1991.32 14239.87,2004.67 14202.58,2312.3 16316.85,2313.8 "/>
   <path class="fil30" d="M9314.23 5821.43c293.52,-30.91 104.87,-148.59 476.91,725.05l173.39 314.79 95.8 -1384.97c-23.27,-193.6 32.06,-40.64 -75.47,-158.28l-626.8 4.74 -43.83 498.67z"/>
   <path class="fil30" d="M8099.99 5393.21l-502.05 23.08 -8.63 347.64c262.88,117.13 950.06,58.84 1325.06,33.42l19.79 -134.39 -25.79 -357.51 -735.36 11.47c11.75,103.76 33.82,76.29 -73.02,76.29z"/>
   <path class="fil30" d="M1968.73 5813.96l1290.86 -20.06 2.97 -381.95c-62.44,-1.59 -222.19,3.56 -271.19,-1.79 -319.09,-34.91 -122.72,19.08 -227.77,-72.37l-77.31 -20.1 -777.12 -3.16 59.56 499.43z"/>
   <polygon class="fil30" points="16917.44,2250.75 16916.61,2307.49 17418.75,2290.41 17436.83,2003.47 17257.43,2003.67 16917.96,2013.38 "/>
   <path class="fil31" d="M463.05 5042.87c77.43,49.17 267.44,178.89 342.05,236.71l666.68 40.41 53.3 19.39 384.09 -24.85 777.12 3.16 0.67 -641.59 5.97 -259.07 -1936.7 -5.64c-246.73,-5.82 -376.08,-25.25 -495.45,73.56 100.92,256.3 184.4,245.25 202.27,557.92z"/>
   <path class="fil31" d="M17633.79 1987.76l44.58 -3.33c166.71,-168.23 171.87,-294.72 321.69,-525.97 -118.42,-117.35 28.79,-35.05 -145.52,-84.43l-491.05 0.02 -45.38 586.59 315.68 27.12z"/>
   <path class="fil32" d="M18419.01 7994.75c361.72,-80.72 1728.67,-81.83 2095.92,-16.49l104.83 -980.63c-358.11,-34.02 -1849.54,-62.62 -2138.05,13.98l-62.7 983.14z"/>
   <path class="fil32" d="M16922.38 7951.45l1109 26.48 50.94 -941.25 -264.96 -89.35c-15.05,-6.85 -33.19,-15.95 -46.2,-22.65 -12.7,-6.52 -32.52,-21.23 -42.43,-26.87l-77.22 -62.8c-233.36,-122.82 -419.04,-363.09 -653.17,-434.33l-75.96 1550.77z"/>
   <path class="fil32" d="M13810.99 7158.92c106.93,201.69 407.34,597.37 527.89,674.51 120.41,-68.33 71.27,-54.91 153.96,-60.41l301.36 51.51c127.28,28.69 49.43,-33.44 130.61,51.13 9.17,-249.02 5.08,-288.24 163.81,-451.55l39.71 -643.58c-42.4,55.24 -30.45,34.27 -78.72,122.88 -18.97,34.84 -33.37,84.85 -56.45,130.54 -216.72,0 -431.69,3.24 -647.89,5.21 -474.6,4.32 -397.92,-66.67 -446.56,-140.43 -8.07,11.54 -10.35,32.94 -12.59,40.28 -117.91,388.03 186.16,-60.5 -75.13,219.91z"/>
   <path class="fil32" d="M13119.4 3855.8l674.75 42.8c25.66,-29.25 60.77,105.03 21.03,-111.64l-79.96 -183.28 -193.05 -518.53c-283.07,-81.63 -168.79,-43.68 -373.07,-226.07l-49.7 996.72z"/>
   <path class="fil33" d="M21984.94 6210.79l196.59 19.54 -6.08 423.82 -26.49 333.62 -1190.66 -18.16c20.89,375.59 -79.76,689.28 -12.97,1046.56l226.55 -54.7c177.13,304.32 564.39,517.88 852.45,550.8 322.14,-1425.65 383.46,-1479.51 319.32,-3246.05 -37.19,385.57 31.07,168.81 -154.49,256.35l0.13 -364.97c-132.43,45.29 -93.49,34.44 -167.7,92.45l-36.65 960.74z"/>
   <path class="fil34" d="M10386.29 3399.29c-69.01,-237.52 -211.72,-387.48 -341.38,-604.84 -149.57,-250.71 -168.02,-378.95 -457.67,-483.98 -126.18,132.47 1.83,73.8 -273.97,40.61 19.48,12.35 46.83,8.57 57.99,37.76 10.44,27.37 41.65,27.06 55.11,34.19 11.99,6.35 37.91,20.83 50.92,27.47l89.57 38.75c-271.8,17.56 -184.11,6.56 -384.92,132.88 403.67,-78.59 277.24,-16.58 589.16,88.78l-100.75 45.16c-271.72,119.34 -154.72,-2.24 -224.7,133.09 182.67,487.33 125.28,-340.35 757.36,637.76 419.5,-237.4 12.31,186.79 183.28,-127.63z"/>
   <path class="fil35" d="M18404.56 8285.58l-29.61 324.49 3635.58 37.2 13.8 -135c-288.06,-32.92 -675.32,-246.48 -852.45,-550.8l-226.55 54.7c53.27,323.13 -16.26,142.07 -72.51,191.96l-265.09 7.02c-1.59,-0.89 -248.83,120.24 -92.8,-236.89 -367.25,-65.34 -1734.2,-64.23 -2095.92,16.49l-14.45 290.83z"/>
   <path class="fil35" d="M3667.33 8547.56l-53.15 532.36 -38.06 253.53 43.54 -462.74 3616.98 -4.02c15.41,-291.24 105.51,-368.4 -128.94,-328.61 -297.77,-19.68 -90.19,-1.54 -154.96,-113.61l-38.11 -110.24c-620.61,-66.89 -2614.92,85.7 -2970.27,-64.88l-11.05 99.19 -30.55 168.18 -235.43 30.84z"/>
   <path class="fil35" d="M16999.99 8626.91l23.08 -15.98 984.2 -13.16 24.11 -619.84 -1109 -26.48c-32.09,262.03 49.84,76.26 -83.64,259.68 -324.58,2.17 -236.19,57.66 -268.82,-240.89l-113.71 -29.01c-234.72,28.9 -110.06,11.4 -246.4,159.66 300.57,76.51 571.63,295.76 790.18,526.02z"/>
   <path class="fil36" d="M22239.12 5122.64c-7.92,-229.17 -18.59,-61.55 -42.02,-167.9 -14.03,-63.76 -9.45,31.05 -23.47,-125.4 -7.8,-86.86 3.99,-226.97 5.17,-319.17 -232.42,-171.11 -3225.25,-133.51 -3519.84,-39.62 -107.78,221.52 -71.64,414.33 -46.08,664.88l2820.38 -17.38c349.61,-2.21 709.37,-80.24 805.86,4.59z"/>
   <path class="fil36" d="M14243.26 1868.22c201.63,116.77 360.8,94.81 617.19,88.26 192.09,-4.88 382.48,-7.2 574.51,-10.22 372.29,-5.88 862.97,24 1168.57,-72.65 73.13,-170.6 70.83,-158.4 1.5,-351.73 -554,-24.94 -1917.51,-173.33 -2370.76,27.15l8.99 319.19z"/>
   <path class="fil37" d="M7652.87 6237.33c155.13,200.79 300.83,517.48 267.85,735.87 13.44,16.47 29.43,22.06 35.38,53.06l140.92 252.59 122 -430.02c92.46,125.41 39.07,-2.25 81.5,182.55 3.66,15.9 6.15,225.93 5.61,258.85 127.57,-174.25 -84.97,-162.77 683.4,-153.71 297.88,3.51 597.19,0.8 895.23,0.8 -39.61,293.59 -109.92,367.57 -18.47,636.24 130.52,-44.58 17.22,60.41 65.99,-113.61 17.56,-62.65 22.23,-106.28 28.05,-171.63 10.56,-118.4 3.92,-244.39 -3.58,-358.65l7.78 -268.4 -173.39 -314.79c-372.04,-873.64 -183.39,-755.96 -476.91,-725.05 12.44,98.66 12.84,106.26 4.99,202.11 -1.39,16.98 -15.91,68.75 -17.52,60.46 -1.6,-8.32 -16.16,38.85 -23.83,58.42l-335.08 -37.17 -22.36 -195.5 -6.06 -112.4c-375,25.42 -1062.18,83.71 -1325.06,-33.42l63.56 473.4z"/>
   <path class="fil37" d="M15431.78 7648.16c118.7,-143.43 17.54,144.41 130.79,-169.59l911.85 -0.27 -18.21 462.93 113.71 29.01 7.73 -475.5 78.8 -1193 -1168.31 30.22 -56.36 1316.2z"/>
   <path class="fil38" d="M3622.86 5415.82l3599.73 8.1 -3.02 420.51 -3606.68 6.46 9.97 -435.07zm-82.26 25.97l-292.69 127.63 15.99 2584.88c169.57,-65.69 181.7,-579.83 213.82,-684.26 24.46,-79.53 -0.14,-23.48 39.89,-112.69l111.74 939.24c-23.84,-202.63 -24.67,-470.99 -38.94,-688.29 -35.56,-541.38 -188.2,-548.74 37.57,-701.2l-19.75 1.65 66.86 -574.27 19.59 -141.99c1160.76,92.79 2279.7,-116.93 3483.85,89.88 46.23,241.86 73.34,364.31 -7.98,592.95l80.6 29.74 226.67 -953.44 -15.81 -605.58 -3647.95 -9.48c-306.47,71.32 -250.58,392.46 -273.46,105.23z"/>
   <path class="fil38" d="M18219.35 6932.41c-49.22,-159.26 -77.31,-443.34 -69.2,-663.3l156.18 -596.02c138.98,225.82 58.86,725.23 16.71,1017.2 -51.82,358.82 -13.42,131.59 -103.69,242.12zm-64.07 -1740.97c30.34,601.9 3.48,473.01 -613.29,467.6 -359.9,-3.15 -785.08,-61.77 -1120.71,63.12 -41.51,303.76 -12.93,87.35 54.61,169.21l611.53 376.63c121.98,-246.58 -24.34,-120.49 257.13,-173.34l799.08 11.5c-16.09,191.85 -7.65,458.15 -85.42,622.1 -213,74.21 -273.84,-28.69 -411.87,-86.68 58.4,219.91 62.89,88.79 5.17,193.43l77.22 62.8c9.91,5.64 29.73,20.35 42.43,26.87 13.01,6.7 31.15,15.8 46.2,22.65l264.96 89.35 -50.94 941.25 -24.11 619.84 -12.55 262.63c30.97,-113.12 28.98,-220.56 44.17,-356.09 30.84,-275.33 196.68,-761.79 385.68,-956.84l-20.01 738.11 14.45 -290.83 62.7 -983.14c288.51,-76.6 1779.94,-48 2138.05,-13.98l338.54 -28.02 1190.66 18.16 26.49 -333.62c-363.77,105.2 -3168.36,143.69 -3679.04,63.58l33.15 -82.57 -21.57 -525.87 -17.06 -43.18c-79.31,-180.94 -18.54,-506.21 -53.34,-759.68 -47.97,-349.38 -97.26,-120.41 -31.27,-396.3 16.78,-70.21 29.1,-83.92 37.13,-175.17 -126.94,100.05 -93.64,46.57 -182.66,216.07l-105.51 240.41z"/>
   <path class="fil39" d="M4279.09 1691.5c379.72,-94.78 2065.86,-73.63 2428.82,40.99l-3.47 327.47c-319.57,82.04 -2078.94,112.96 -2448.65,68.24l23.3 -436.7zm-171.91 -114.29c-220.97,120.64 -181.58,179.53 -206.36,482.42l-277.04 141.25c242.43,-9.68 258.11,-65.19 343.95,102.88 246.3,-11.74 104.15,34.64 218.15,-1.79 83.06,-211.75 1510.8,-95 1996.96,-96.88 531.35,-2.04 504.53,-57.51 604.62,104.89 29.1,14.49 -72.64,71.19 136.16,20.68 160.44,-38.82 -55.27,36.53 185.4,-111.12 42.97,-351.63 101.61,-664.36 -294.34,-712.91 -249.12,-30.53 -689.69,-19.77 -950.96,-11.5 -463.78,14.7 -1441.45,-41.62 -1756.54,82.08z"/>
   <path class="fil39" d="M14243.26 1868.22l-8.99 -319.19c453.25,-200.48 1816.76,-52.09 2370.76,-27.15 69.33,193.33 71.63,181.13 -1.5,351.73 -305.6,96.65 -796.28,66.77 -1168.57,72.65 -192.03,3.02 -382.42,5.34 -574.51,10.22 -256.39,6.55 -415.56,28.51 -617.19,-88.26zm-319.07 65.47l298.1 100.39 17.58 -29.41 2091.79 -13.35 223.2 3.38 -29.43 345.47c28.27,-107.77 -1.9,-100.19 39.38,-210.32 78.08,-208.31 -65.53,27.13 107.02,-153.15l245.61 274.05 0.52 -237.37 339.47 -9.71c-16.64,-12.3 -37.7,-28.94 -49.93,-36.93 -11.54,-7.54 -35.63,-25.45 -48.22,-33.41l-171.37 -534.3 -220.56 -107.08c-466.93,-6.58 -1089.53,-0.83 -1651.43,4.25 -227.87,2.06 -670.61,-20.8 -873.48,22.99 -345.48,74.56 -252.61,294.37 -318.25,614.5z"/>
   <path class="fil40" d="M3944.36 8249.35c355.35,150.58 2349.66,-2.01 2970.27,64.88l12.97 -1109.03c-288.87,-105.14 -2722.98,-115.97 -3004,-14.2l20.76 1058.35z"/>
   <path class="fil40" d="M13694.74 4820.8l51.04 -474.51 -667.53 7.09c148.28,156.03 132.56,132.42 269.37,238.67 158.85,123.33 144.16,168.68 347.12,228.75z"/>
   <path class="fil41" d="M22359.66 8858.06c-58.26,421.33 33.29,100.33 -106.07,245.94 -207.8,21.92 -247.43,24.97 -247.34,-199.11l4.28 -257.62 -3635.58 -37.2 -4.63 321.03c-79.82,174.9 -57.91,213.27 -307.03,162.28 -71.93,-71.08 -93.85,103.44 -68.57,-232.98l12.55 -262.63 -984.2 13.16c99.13,158.87 -4.52,19.27 95.05,122.62 766.14,795.23 1195.93,548.84 2719.61,548.84 1189.19,0 2250.69,11.89 3328.12,6.62 -9.88,-14.12 -27.12,-51.24 -32.94,-39.84 -5.75,11.25 -25.58,-30.64 -33.7,-38.31l-346.24 -241.94c-382.26,-230.07 -244.89,-38.89 -345.24,-394.45l-48.07 283.59z"/>
   <path class="fil42" d="M17529.44 4412.62c-0.92,282.27 -3.4,521.1 99.03,703.06l-1645.61 16.09c228.79,89.12 1390.94,23.3 1795.88,60.42 15.16,-11.76 42.27,-40.65 51.71,-25.22l335.09 -108.34c43.73,-391.61 -23.28,-761.1 370.21,-844.61l3597.98 -48.29c137.82,-122.87 133.77,15.88 158.86,-220.96 3.42,-32.3 83.36,-58.17 -135.37,-143.14 427.32,-11.99 194.3,-4.31 223.98,-146.78 -113.17,-0.56 -264.64,6.62 -371.23,-0.71 -264.72,-18.21 -314.92,-40.82 -439.85,-148.82 528.1,-9.02 1167.24,-95.16 1622.04,38.09l10.93 556.12 1101.03 -5.55 4.56 136.79c118.33,-100.44 85.61,88.95 110.71,-193.08 -167.81,-198.29 -1432.05,-870.51 -1767.68,-1037.62 -67.64,177.16 -31.69,160.47 -382.51,199.34 -696.38,77.14 -746.65,114.8 -1584.54,50.05 -598.32,-46.23 -1320.56,-230.54 -1904.28,-201.64 18.76,8.88 121.28,45.49 132.84,51.89 164.75,91.02 78.62,18.65 198.7,136.27l-23.18 21.4c-8.09,10.06 -82.34,200.63 -80.53,85.06 131.66,7.53 120.82,-1.6 252.43,34.08 211.33,57.32 94.43,32.12 162.4,75.41l-879.62 75.3c268.31,198.41 1685.33,58.8 2080.41,171.68l-2763.73 83.31 -89.5 710.85 -102.36 -234.73c-37.8,326.13 37.3,7.23 -138.8,154.28z"/>
   <path class="fil42" d="M13518.3 1613.31l28.28 341.16 -1155.85 -5.73c202.05,96.12 508.02,62.87 747.06,61.97 278.75,-1.07 535.13,22.15 794.04,-34.22l-7.64 -42.8c65.64,-320.13 -27.23,-539.94 318.25,-614.5 202.87,-43.79 645.61,-20.93 873.48,-22.99 561.9,-5.08 1184.5,-10.83 1651.43,-4.25 -57.61,-82.01 93.28,-70.61 -109.72,-64.7 84.4,-97.29 124.42,-122.45 189.38,-249.08l-1363.99 -101.74c325.25,-9.44 1497.23,-129.22 1730.47,-32.01 228.26,95.1 101.69,163.43 263.34,383.92 199.54,-4.22 445.78,-7.91 697.17,1.48 -180.78,-260.08 -486.55,-369.29 -747.19,-521.96 -262.88,-153.98 -516.19,-377.31 -782.37,-402.85 -231.69,126.24 -405.6,11.51 -602.38,95.61 399.3,133.78 540.94,-146.65 687.47,191.44 -104.38,58.57 2.04,20.3 -154.65,53.52 -279.79,59.31 -958.18,8.59 -1222,-23.77 -1527.03,-187.38 -396.95,-62.74 -1100.65,-0.14 417.53,105.23 155.1,44.37 282.96,182.03l-876.28 52.38c360.71,198.38 113.89,56.49 219.45,217.21 -336.12,62.24 97.78,54.01 -232.66,171.27 -1.53,0.56 -14.41,-0.77 -15.59,-0.56l-111.81 369.31z"/>
   <path class="fil43" d="M8787.96 2122.72l-52.87 152.59c-110.33,26.91 -489.43,112.79 -439.49,-24.56 -44.24,170.85 -211.73,225.15 -385.09,223.1l-1534.81 7.55c284.1,72.33 997.09,9.6 1274.67,45.07l1275.83 232.98c-478.16,-127.62 -3647.99,21.89 -4161.78,40.48 512.62,7.8 1690.69,-86.64 2055.91,99.08l-537.31 76.1c438.96,14.41 971.08,44.19 1365.49,103.84l965.59 124.37c178.64,37.31 52.22,8.23 182.6,55.16l128.51 66.22c-325.99,-23.98 -553.73,-90.82 -842.02,-98.56l-2265.21 -65.2c786.06,-123.57 2498.64,231.34 3303.98,345.21 -705.48,-65.58 -1481.26,-167.34 -2168.29,-188.41 -234.34,-7.18 -2060.1,20.09 -2153.36,-8.54 204.97,50.81 149.87,-12.35 414.63,101.43 16.88,7.26 45.06,49.33 57.27,33.07 12.5,-16.64 40.32,21.07 57.39,35.77 -922.37,32.78 -109.28,135.48 -1190.67,161.8l-414.91 -50.58 -663.97 73.58c589.52,110.07 1860.43,42.04 2548.44,64.96 708.43,23.58 1971.29,-61.92 2541.28,8.64 241.68,364.1 -142.42,454.5 274.04,544.41 127.66,27.57 713.91,10.93 885.55,11.87 450.52,2.48 1270.24,103.96 1581.08,-68.55 -88.2,-278.3 -309.55,-645.27 -504.15,-826.31 -170.97,314.42 236.22,-109.77 -183.28,127.63 -632.08,-978.11 -574.69,-150.43 -757.36,-637.76 69.98,-135.33 -47.02,-13.75 224.7,-133.09l100.75 -45.16c-311.92,-105.36 -185.49,-167.37 -589.16,-88.78 200.81,-126.32 113.12,-115.32 384.92,-132.88l-89.57 -38.75c-13.01,-6.64 -38.93,-21.12 -50.92,-27.47 -13.46,-7.13 -44.67,-6.82 -55.11,-34.19 -11.16,-29.19 -38.51,-25.41 -57.99,-37.76 275.8,33.19 147.79,91.86 273.97,-40.61l-538.26 0.43 23.55 -685.71c-108.2,131.44 -185.51,343.63 -284.57,497.53z"/>
   <path class="fil43" d="M9297.64 1269.67c-83.52,-278.06 -255.79,-477.54 -401.95,-712.72 -171.52,-276.01 -213.22,-482.73 -521.35,-552.42 -393.09,48.69 -2853.83,323.31 -3021.41,141.19 672.96,0 1737.08,-44.1 2326.53,125.04 -906.45,103.22 -1793.4,20.09 -2816.64,124.66 -113.19,11.57 -285.96,41.47 -465.06,48.99 -48.31,2.05 -216.65,2.21 -259.32,-6.49 -256.12,-52.24 -113.77,-8.34 -240.65,-101.09 257.98,-210.74 260.42,-81.12 522.27,-122.2l118.92 -49.99c145.82,-51.57 132,-43.63 280.41,-67.99l-1155.33 69.62c133.3,238.71 155.59,-153.87 115.2,361.98 -97.94,57.52 59.85,5.97 -150.45,62.89 -52.02,14.07 -129.04,19.89 -167.71,21.56l769.35 63.77c-307.45,81.74 -241.38,-102.68 -243.76,-104.74 654.9,-41.58 875.17,-122.16 1813.24,-97.87 499.66,12.95 1396.34,13.46 1790.63,190.79l-569.14 -4.42c216.8,88.3 -251.38,-71.68 135.75,41.51 15.59,4.56 35.68,9.81 52.92,15.07l115.56 38.2c16.55,5.41 41.29,12.52 60.88,21.43 -769.18,-35.75 -1313.34,-78.35 -2108.12,-48.24l265.54 77.93c165.21,17.79 127.83,21.77 211.05,-22.32l-1030.58 143.72c775.58,38.45 1729.85,211.62 2471.67,55.11 862.88,-182.05 1307.55,252.21 2101.55,287.03z"/>
   <path class="fil44" d="M13936.35 2307.65l-700.22 16.51c98.94,367.56 -15.5,55.11 147.43,191.22l1539.84 1267.8c255.05,213.59 66.43,378.03 1021.77,354.04 508.4,-12.77 1028.46,27.28 1531.66,-22.44l61.28 179.35 -8.67 118.49c176.1,-147.05 101,171.85 138.8,-154.28l102.36 234.73 89.5 -710.85 2763.73 -83.31c-395.08,-112.88 -1812.1,26.73 -2080.41,-171.68l879.62 -75.3c-67.97,-43.29 48.93,-18.09 -162.4,-75.41 -131.61,-35.68 -120.77,-26.55 -252.43,-34.08 -1.81,115.57 72.44,-75 80.53,-85.06l23.18 -21.4c-120.08,-117.62 -33.95,-45.25 -198.7,-136.27 -11.56,-6.4 -114.08,-43.01 -132.84,-51.89 583.72,-28.9 1305.96,155.41 1904.28,201.64 837.89,64.75 888.16,27.09 1584.54,-50.05 350.82,-38.87 314.87,-22.18 382.51,-199.34l-423.11 -267.33c-903.7,-483.04 -390.31,-411.54 -1688.99,-418.63 -833.21,-4.54 -2072.01,75.11 -2851.87,-15.07l-9.37 -314.61 -44.58 3.33 7.36 401.97c-374.66,-43.25 -118.33,1.45 -222.4,-99.32l-502.14 17.08 -219.3 30.04 -25.48 -360.83c-172.55,180.28 -28.94,-55.16 -107.02,153.15 -41.28,110.13 -11.11,102.55 -39.38,210.32l29.43 -345.47 -223.2 -3.38 -14.81 322.48 -2114.27 -1.5 37.29 -307.63 -17.58 29.41 -43.82 310.67 -242.12 -37.1z"/>
   <path class="fil44" d="M13523.54 1378.46l-5.24 234.85 111.81 -369.31c1.18,-0.21 14.06,1.12 15.59,0.56 330.44,-117.26 -103.46,-109.03 232.66,-171.27 -105.56,-160.72 141.26,-18.83 -219.45,-217.21l876.28 -52.38c-127.86,-137.66 134.57,-76.8 -282.96,-182.03 703.7,-62.6 -426.38,-187.24 1100.65,0.14 263.82,32.36 942.21,83.08 1222,23.77 156.69,-33.22 50.27,5.05 154.65,-53.52 -146.53,-338.09 -288.17,-57.66 -687.47,-191.44 196.78,-84.1 370.69,30.63 602.38,-95.61 -235.2,-391.98 -656.98,-280.93 -1273.29,-279.79l-3828.72 5.32c-305.06,-2.14 -543.96,-45.15 -711.7,93.98 341.81,129.58 99.25,149.71 341.04,329.64 104.43,77.71 29.21,9.86 125.56,63.56 424.98,236.82 283.28,353.88 650.08,626.75 12.95,9.64 28.09,20.44 40.88,30.28 0.74,0.56 78.87,70.52 128.65,108.47l1340.13 -44.12 66.47 139.36z"/>
   <path class="fil45" d="M2197.21 596.15c175.79,62.91 97.66,66.56 294.68,-7.11 -221.62,477.04 -5.17,138.35 -300.48,258.25 76.76,158.75 131.6,127.9 223.48,191.42 -158.64,105.38 -145.89,23.55 -218.2,169.99 -159.17,322.35 -132.13,-14.4 -33.81,122.19l1339.95 -8.3c68.97,93.73 144.08,-217.52 25.18,180.15l58.6 605.42 -658.38 49.96c-68.35,336.62 -106.41,262.1 -703.24,340.46l274.15 9.24c-390.45,104.78 -131.44,-26.23 -262.21,187.77 221.97,-14.82 172.63,15.15 268.87,-61.36l-529.25 102.78 506.08 245.59c114.8,30.13 34.73,33.77 192.52,28.41l-256.75 6.55c72.91,90.56 193.54,125.72 226.35,240.98 45.34,159.27 98.18,137.61 218.29,161.99 215.17,43.7 500.64,-49.16 697.78,-57.18 251.34,-10.22 555.86,62.44 881.59,67.11l-490.56 65.17c-358.13,100.49 207.28,-82.86 -116.65,40.73 -19.57,7.47 -40.22,19.66 -55.94,26.26 -15.75,6.6 -38.04,16.64 -55.24,28.07l414.91 50.58c1081.39,-26.32 268.3,-129.02 1190.67,-161.8 -17.07,-14.7 -44.89,-52.41 -57.39,-35.77 -12.21,16.26 -40.39,-25.81 -57.27,-33.07 -264.76,-113.78 -209.66,-50.62 -414.63,-101.43 93.26,28.63 1919.02,1.36 2153.36,8.54 687.03,21.07 1462.81,122.83 2168.29,188.41 -805.34,-113.87 -2517.92,-468.78 -3303.98,-345.21l2265.21 65.2c288.29,7.74 516.03,74.58 842.02,98.56l-128.51 -66.22c-130.38,-46.93 -3.96,-17.85 -182.6,-55.16l-965.59 -124.37c-394.41,-59.65 -926.53,-89.43 -1365.49,-103.84l537.31 -76.1c-365.22,-185.72 -1543.29,-91.28 -2055.91,-99.08 513.79,-18.59 3683.62,-168.1 4161.78,-40.48l-1275.83 -232.98c-277.58,-35.47 -990.57,27.26 -1274.67,-45.07l1534.81 -7.55c173.36,2.05 340.85,-52.25 385.09,-223.1l28.94 -116.99 -385.42 -4.89 31.69 190.1 -830.92 -2.31c-75.82,-58.01 -115.65,50.68 -30.87,-97.12 -240.67,147.65 -24.96,72.3 -185.4,111.12 -208.8,50.51 -107.06,-6.19 -136.16,-20.68l-2601.58 -8.01c-114,36.43 28.15,-9.95 -218.15,1.79 -260.44,34.24 -696.4,81.81 -929.6,-52.69 25.56,-21.11 -78.97,-209.14 585.65,-50.19l277.04 -141.25c24.78,-302.89 -14.61,-361.78 206.36,-482.42 222.59,-198.67 1080.18,-101.45 1437.5,-114.19 784.18,-27.92 1248.86,73.13 1372.12,-232.89 -173.38,-96.44 -372.07,-95.5 -575.25,-92.43l-605.13 -100.27c470.24,-5.81 1313.89,-109.09 1717.58,20.76l78.24 447.59c274.97,-11.67 545.27,-4.32 820.18,-7.25 97.4,-1.03 306,-15.18 386.99,-9.43 402.74,28.55 229.75,-67.28 325.36,123.56 167.27,-72.3 150.83,-36.97 319.08,-191.09 -46.63,-319.32 -9.37,-90.62 -86.21,-151.9 -794,-34.82 -1238.67,-469.08 -2101.55,-287.03 -741.82,156.51 -1696.09,-16.66 -2471.67,-55.11l1030.58 -143.72c-83.22,44.09 -45.84,40.11 -211.05,22.32l-265.54 -77.93c794.78,-30.11 1338.94,12.49 2108.12,48.24 -19.59,-8.91 -44.33,-16.02 -60.88,-21.43l-115.56 -38.2c-17.24,-5.26 -37.33,-10.51 -52.92,-15.07 -387.13,-113.19 81.05,46.79 -135.75,-41.51l569.14 4.42c-394.29,-177.33 -1290.97,-177.84 -1790.63,-190.79 -938.07,-24.29 -1158.34,56.29 -1813.24,97.87 2.38,2.06 -63.69,186.48 243.76,104.74l-769.35 -63.77c38.67,-1.67 115.69,-7.49 167.71,-21.56 210.3,-56.92 52.51,-5.37 150.45,-62.89 40.39,-515.85 18.1,-123.27 -115.2,-361.98l1155.33 -69.62c-148.41,24.36 -134.59,16.42 -280.41,67.99l-118.92 49.99c-261.85,41.08 -264.29,-88.54 -522.27,122.2 126.88,92.75 -15.47,48.85 240.65,101.09 42.67,8.7 211.01,8.54 259.32,6.49 179.1,-7.52 351.87,-37.42 465.06,-48.99 1023.24,-104.57 1910.19,-21.44 2816.64,-124.66 -589.45,-169.14 -1653.57,-125.04 -2326.53,-125.04 167.58,182.12 2628.32,-92.5 3021.41,-141.19 -1060.46,46.81 -2263.51,7.45 -3340.12,6.78 -552.84,-0.32 -1106.41,-10.45 -1659.09,-10.72 -820.04,-0.4 -861.19,-15.79 -1177.92,595.56z"/>
   <path class="fil46" d="M1035.75 8294.12c-30.24,209.7 14.88,242.78 -91.85,340.09 -166.64,151.92 -222.17,-30.62 -225.96,-33.87l-63.74 -96.9 -106.76 -1224.03c-106.68,446.24 49.56,403.03 -151.95,867.02 -88.99,204.9 -218.73,494.11 -258.43,715.39l3009.63 4.73c-56.88,178.3 -137.59,355.3 -164.07,580.62l4897.68 1.16 -162.57 -569.16 3039.46 -13.53c-43.92,-244.83 -188.31,-540.29 -281.43,-757.99 -255.28,-596.79 -133.68,-422.43 -138.6,-1040.13 -154.08,384.16 34.66,1136.47 -150.12,1491.88 -51.68,67.65 110.91,51.15 -189.81,86.14l-132.69 -61.5c2.91,-337.96 69.6,-484.53 1.75,-810.48l-180.49 230.42 -87.49 -362.93c-0.05,0.42 12.28,89.39 -87.04,121.28 -4.84,1.55 -23.15,1.88 -28.61,2.51 -5.95,0.73 -24.62,-2.31 -31.2,-2.26l-1784.74 49.62 -86.82 -520.61 19.72 1815.61 -25.63 194.8 -301.55 -22.61c-71.01,-163.94 -44.9,-184.76 -35.8,-412.7l-3616.98 4.02 -43.54 462.74 -301.01 -18.72 -39.9 -175.88 18.99 -1962.5 -302.65 -52.07 -226.02 364.55c-158.25,-299.62 50.59,62.22 -52.22,-108.74l-1562.17 22.57c-3.19,-1.34 11.41,-47.37 -82.19,-46.93 53.23,304.57 89.26,652.73 6.8,938.39z"/>
   <path class="fil47" d="M902.32 2999.82l-79.01 18.59c160.96,181.78 216.51,148.53 327.44,232.48l-248.34 12.39c82.6,62.11 -110.95,109.33 298.37,106.37 -116.01,24.11 -154.12,23.96 -258.52,68.01l-280.99 205.78c246,-12.54 291.95,-14.17 493.06,-75.54 -85.01,-20.69 -176.93,23.72 -330.4,46 134.57,127.79 -231.59,208.1 359.16,115.2 -286.27,85.99 -114.35,135.67 -104.98,158.12l614.79 68.13 -1035.54 231.16c666.94,78.07 1479.28,153.62 2037.49,-20.87l-94.54 -204.32c343.22,-158.75 -29.31,-258.7 1066.28,-118.54 384.41,49.18 829.47,68.49 1240.02,67.3 397.36,-1.16 803.04,-7.85 1199.5,-1.68 174.56,2.73 404.11,16.15 573.91,63.99 18.69,5.25 33.92,11.02 51.44,16.86 16.62,5.53 31.87,13.82 47.45,19.61l127.58 56.41c257.28,64.88 118.42,39.11 173.66,-27.26 -590.72,17.49 55.89,107.82 -804.82,151.77 181.28,180.9 -229.65,63.85 289.26,155.63 298.24,52.74 178.7,-19.28 213.16,-52.17l-3146.99 139.89c856.42,-12.1 3372.92,-142.09 3966.54,69.6 14.08,-40.62 -39.5,-79.11 -103.44,-223.67l267.41 34.77c8.33,1.21 26.71,5.6 33.89,6.49 159.61,19.84 207.83,-130.5 204.43,-27.38 -51.08,-138.5 -4.4,-30.88 -197.61,-210.74l282.2 -120.19c-251.05,-83.74 -963.91,-58.3 -1326.82,-64.88 149.95,-138.28 59.56,-162.1 637.66,-162.28 255.12,-0.09 500.33,-6.96 754.75,3.02 -569.99,-70.56 -1832.85,14.94 -2541.28,-8.64 -688.01,-22.92 -1958.92,45.11 -2548.44,-64.96l663.97 -73.58c17.2,-11.43 39.49,-21.47 55.24,-28.07 15.72,-6.6 36.37,-18.79 55.94,-26.26 323.93,-123.59 -241.48,59.76 116.65,-40.73l490.56 -65.17c-325.73,-4.67 -630.25,-77.33 -881.59,-67.11 -197.14,8.02 -482.61,100.88 -697.78,57.18 -120.11,-24.38 -172.95,-2.72 -218.29,-161.99 -32.81,-115.26 -153.44,-150.42 -226.35,-240.98l256.75 -6.55c-157.79,5.36 -77.72,1.72 -192.52,-28.41l-506.08 -245.59 529.25 -102.78c-96.24,76.51 -46.9,46.54 -268.87,61.36 130.77,-214 -128.24,-82.99 262.21,-187.77l-274.15 -9.24c596.83,-78.36 634.89,-3.84 703.24,-340.46l-232.89 -7.2 52.99 180.78 -513.61 -25.63 27.19 -167.76 -197.51 -48.67 -92.65 -231.77 26.81 460.31c-312.46,5.95 -528.48,-56.6 -734.89,115.65 -135.62,113.17 -317.69,424.56 -361.35,565.99z"/>
   <path class="fil48" d="M5519.1 5323.9c-511.89,-38.24 -1410.94,75.13 -1850.9,-38.71l15.3 -545.73 74.24 -0.2c87.9,-208.62 1136.62,-90.82 1404.1,-88.1 490.51,5.01 981.1,7.96 1471.28,14.74 297.01,4.12 495.45,-61.3 546.62,151.68 53.14,221.21 7.52,439.21 -170.6,485.39 -151.12,39.2 -1274.11,30.8 -1490.04,20.93zm-2298.18 -422.81l-70.58 407.29 -386.74 29.41 492.55 -27.06c-90.63,-347.02 -10.43,-352.96 119.06,-443.21 9.31,6.06 249.8,-5.74 165.39,574.27 22.88,287.23 -33.01,-33.91 273.46,-105.23l3647.95 9.48 15.81 605.58c81.66,624.3 30.1,1158.55 -18.68,1790.11 -12.9,167.16 -17.73,375.49 -214.09,467.86l6.1 -1304.53 -80.6 -29.74 -242.95 329.88 -12.97 1109.03 38.11 110.24 292.04 -102.17c-27.62,393.96 23.42,48.22 -137.08,215.78 234.45,-39.79 144.35,37.37 128.94,328.61 -9.1,227.94 -35.21,248.76 35.8,412.7l30.58 -151.37 296.6 -20.82 -19.72 -1815.61c100.59,-162.99 -169.15,-123.99 268.29,-156.28l26.36 -176.6 -306.38 -113.45 84.7 -607.93 -63.56 -473.4 8.63 -347.64 502.05 -23.08c-13.31,-11.23 -34.53,-20.24 -45.83,-25.14 -11.33,-4.9 -32.62,-17.82 -46.89,-23.32 -14.45,-5.55 -32.92,-14.32 -49.16,-19.69 -16.62,-5.48 -34.96,-10.49 -52,-15.14 -21.54,-5.88 -167.15,-20.19 -218.22,-30.25l-90.59 -776.94c-593.62,-211.69 -3110.12,-81.7 -3966.54,-69.6 -302.93,58.71 -383.87,163.62 -409.84,467.96z"/>
   <path class="fil49" d="M2694.85 4165.64l-1.92 251.39 -5.97 259.07c16.34,23.59 113.72,109.3 113.97,216.38 256.5,-36.76 244.43,-51.7 419.99,8.61 25.97,-304.34 106.91,-409.25 409.84,-467.96l3146.99 -139.89c-34.46,32.89 85.08,104.91 -213.16,52.17 -518.91,-91.78 -107.98,25.27 -289.26,-155.63 860.71,-43.95 214.1,-134.28 804.82,-151.77 -55.24,66.37 83.62,92.14 -173.66,27.26l-127.58 -56.41c-15.58,-5.79 -30.83,-14.08 -47.45,-19.61 -17.52,-5.84 -32.75,-11.61 -51.44,-16.86 -169.8,-47.84 -399.35,-61.26 -573.91,-63.99 -396.46,-6.17 -802.14,0.52 -1199.5,1.68 -410.55,1.19 -855.61,-18.12 -1240.02,-67.3 -1095.59,-140.16 -723.06,-40.21 -1066.28,118.54l94.54 204.32z"/>
   <path class="fil50" d="M12868.02 2647.42c30.51,18.5 117.98,55.13 136.07,67 -190.17,154.33 -173.15,1091.22 -162.03,1156.77l277.34 -15.39 49.7 -996.72c204.28,182.39 90,144.44 373.07,226.07l-24.31 -259.57c142.8,102.65 280.86,206 417.1,319.12 415.55,201.42 189.99,109.23 626.34,488.61l270.18 240.38c0.68,0.43 363.46,144.25 147.5,330.09 269.23,229.04 275.43,95.81 305.04,438.41 -19.04,278.11 35.85,910.53 -107.64,1131.07l-5.82 573.59 -42.23 433.68 -39.71 643.58 -46.64 736.25c264.32,-475.55 366.79,-1985.83 421.81,-2728.43l18.96 390.98c103.26,-179.93 95.88,-627.03 103.35,-891.49 -48.08,-263.26 -74.85,-467.4 -171.81,-646.21l276.23 -16.64 1847.59 25.56 -61.28 -179.35c-503.2,49.72 -1023.26,9.67 -1531.66,22.44 -955.34,23.99 -766.72,-140.45 -1021.77,-354.04l-1539.84 -1267.8c-162.93,-136.11 -48.49,176.34 -147.43,-191.22l-467.21 2.39c-10.08,140.45 -2.66,104.71 28.74,201.67 3.65,11.25 48.89,85.25 70.36,119.2z"/>
   <path class="fil51" d="M17778.74 5192.19l376.54 -0.75 105.51 -240.41c89.02,-169.5 55.72,-116.02 182.66,-216.07l50.72 -355.6c239.04,-95.9 2981.59,-159.51 3521.1,-70.96 163.57,26.86 115.91,-4.68 172.3,64.59 195.44,240.13 25,77.31 -8.77,137.18 -1.18,92.2 -12.97,232.31 -5.17,319.17 14.02,156.45 9.44,61.64 23.47,125.4 23.43,106.35 34.1,-61.27 42.02,167.9l-49.83 34.96 -0.13 364.97c185.56,-87.54 117.3,129.22 154.49,-256.35 64.14,1766.54 2.82,1820.4 -319.32,3246.05l-13.8 135 -4.28 257.62 353.41 -46.83 48.07 -283.59 -25.61 -452.73 55.51 -1141.76 477.94 -18.92 0.65 -96.73c-6.22,-212.96 -116.91,-70.27 -425.03,-145.3 -106.54,-250.35 -63.71,-741.53 13.53,-995.42l19.6 -519.58 463.69 -10.98c-21.12,-2.24 -90.63,-2.13 -107.65,-5.37l-170.42 -43.1c-47.12,-13.44 -78.23,-11.76 -105.18,-127.7 -55.91,-240.54 -11.69,-22.59 -23.57,-106.1 -34.56,-242.98 42.14,-302.22 -128.89,-676.07l-318.57 -68.98 -3597.98 48.29c-393.49,83.51 -326.48,453 -370.21,844.61l-335.09 108.34c-9.44,-15.43 -36.55,13.46 -51.71,25.22z"/>
   <path class="fil52" d="M18490.93 6066.11l17.06 43.18 2634.08 84.5c-257.95,45.47 -567.38,26.21 -849.22,54.52 -476.17,47.82 -622.35,23.2 -666.52,150.29 396.2,83.4 411.63,-105.58 475.08,191.41 -102.52,142.77 -1372.69,71.4 -1571.85,45.15l-33.15 82.57c510.68,80.11 3315.27,41.62 3679.04,-63.58l6.08 -423.82 -196.59 -19.54 -64.57 -24.18c-768.44,-200.1 -2475.75,-163.31 -3429.44,-120.5z"/>
   <path class="fil53" d="M18519.26 5654.14c917.75,59.22 2303.93,-230.04 2977.79,324.36 232.15,-19.9 162.68,-13.82 195.4,-340.91 17.44,-174.33 22.41,-294.18 16.01,-469.26l-3188.61 48.98 -0.59 436.83z"/>
   <path class="fil54" d="M5519.1 5323.9l-150.29 -114.84c-11.57,-10.42 -30.84,-31.33 -46.5,-46.75 679.89,-25.36 271.29,-84.42 659.5,-239.26 222.13,-88.61 426.45,-123.02 675.13,-201.66 -571.94,-68.19 -2505.5,-307.97 -2899.2,17.87l-74.24 0.2 -15.3 545.73c439.96,113.84 1339.01,0.47 1850.9,38.71z"/>
   <path class="fil55" d="M3675.09 6334.48l2165.26 0.3c-23.33,563.19 32.88,257.08 -395.44,364.64 -291.7,73.26 67.3,-20.4 -194.04,99.02 -376.85,172.19 -1065.22,-39.67 -1642.64,110.31l19.75 -1.65 3542.57 -31.78c81.32,-228.64 54.21,-351.09 7.98,-592.95 -1204.15,-206.81 -2323.09,2.91 -3483.85,-89.88l-19.59 141.99z"/>
   <path class="fil56" d="M4255.79 2128.2c369.71,44.72 2129.08,13.8 2448.65,-68.24l3.47 -327.47c-362.96,-114.62 -2049.1,-135.77 -2428.82,-40.99l-23.3 436.7z"/>
   <path class="fil57" d="M18443.45 4734.96c-8.03,91.25 -20.35,104.96 -37.13,175.17 -65.99,275.89 -16.7,46.92 31.27,396.3 34.8,253.47 -25.97,578.74 53.34,759.68l28.33 -411.97 0.59 -436.83 3188.61 -48.98 285.85 4.99 -57.65 573.04 -16.29 440.25 64.57 24.18 36.65 -960.74c74.21,-58.01 35.27,-47.16 167.7,-92.45l49.83 -34.96c-96.49,-84.83 -456.25,-6.8 -805.86,-4.59l-2820.38 17.38c-25.56,-250.55 -61.7,-443.36 46.08,-664.88 294.59,-93.89 3287.42,-131.49 3519.84,39.62 33.77,-59.87 204.21,102.95 8.77,-137.18 -56.39,-69.27 -8.73,-37.73 -172.3,-64.59 -539.51,-88.55 -3282.06,-24.94 -3521.1,70.96l-50.72 355.6z"/>
   <path class="fil58" d="M3923.6 7191c281.02,-101.77 2715.13,-90.94 3004,14.2l242.95 -329.88 -3542.57 31.78c59.5,195.66 145.44,203.13 295.62,283.9z"/>
   <path class="fil59" d="M12663.52 4057.76c199.96,62.71 260.23,138.14 414.73,295.62l667.53 -7.09 -51.04 474.51 -62.02 1156.56c219.9,-53.2 161.97,51.49 238.24,-291.5 145.1,-652.55 61.81,-831.02 72.26,-1483.36 -13.71,7.7 -31.8,23.31 -38.09,27.8 -5.59,4 -27.35,21.13 -33.41,25.36 -188.68,131.57 45.24,76.51 -69.8,37.26l-7.77 -394.32 -674.75 -42.8c-81.49,263.97 14.68,102.25 -109.16,222.1 -194.51,-80.19 -100.49,6.31 -168.18,-206.71l-243.96 52.09 65.42 134.48z"/>
   <path class="fil60" d="M4107.18 1577.21c315.09,-123.7 1292.76,-67.38 1756.54,-82.08 261.27,-8.27 701.84,-19.03 950.96,11.5 395.95,48.55 337.31,361.28 294.34,712.91 64.28,2.12 91.56,16.21 164.95,0.29 266.2,-57.79 -138.09,62.21 102,-30.04l81.56 -53.72c-18.71,-138.4 -32.65,-189.36 -23.36,-337.58 15.92,-254.06 -11.14,-174.78 98.07,-292.71l-78.24 -447.59c-403.69,-129.85 -1247.34,-26.57 -1717.58,-20.76l605.13 100.27c203.18,-3.07 401.87,-4.01 575.25,92.43 -123.26,306.02 -587.94,204.97 -1372.12,232.89 -357.32,12.74 -1214.91,-84.48 -1437.5,114.19z"/>
   <path class="fil61" d="M5519.1 5323.9c215.93,9.87 1338.92,18.27 1490.04,-20.93 178.12,-46.18 223.74,-264.18 170.6,-485.39 -51.17,-212.98 -249.61,-147.56 -546.62,-151.68 -490.18,-6.78 -980.77,-9.73 -1471.28,-14.74 -267.48,-2.72 -1316.2,-120.52 -1404.1,88.1 393.7,-325.84 2327.26,-86.06 2899.2,-17.87 -248.68,78.64 -453,113.05 -675.13,201.66 -388.21,154.84 20.39,213.9 -659.5,239.26 15.66,15.42 34.93,36.33 46.5,46.75l150.29 114.84z"/>
   <path class="fil62" d="M9956.75 7129.67c7.5,114.26 14.14,240.25 3.58,358.65 -5.82,65.35 -10.49,108.98 -28.05,171.63 -48.77,174.02 64.53,69.03 -65.99,113.61 67.85,325.95 1.16,472.52 -1.75,810.48l132.69 61.5 49.57 -217.27c201.32,33.19 88.98,-75.23 140.24,131.13 184.78,-355.41 -3.96,-1107.72 150.12,-1491.88 -111.8,-416.21 62.66,-951.96 -2.75,-1397.95l-51.96 -198.82 -203.68 1799.15c-55.39,-57.05 -93.19,-37.46 -122.02,-140.23z"/>
   <path class="fil63" d="M22382.12 8121.74c163.28,128.37 135.24,-166 135.24,161.7 -98.11,-347.45 79.19,-254.32 89.51,-267.24 8.89,172.58 41.39,363.31 38.73,390.87 34.82,-218.42 -8.5,-382.33 127.3,-569.03 242.21,47.43 51.46,44.66 169.69,272.25 39.13,-308.87 -22.5,-212.88 173.75,-343.1l20.22 -408.19 5.48 -182.39 -226.47 -215.55 -477.94 18.92 -55.51 1141.76z"/>
   <path class="fil64" d="M576.66 6271.93l213.01 1041.52c28.58,231.29 -13,483.23 177.69,487.41l-79.58 -1060.76 -82.68 -1460.52c-74.61,-57.82 -264.62,-187.54 -342.05,-236.71 25.12,366.93 -24.58,953.39 113.61,1229.06z"/>
   <path class="fil65" d="M10996.05 759.01c71.19,288.27 -43.66,1586.19 -115.31,1899.9l-8.03 278.88 259.92 22.5c8.48,-28.54 27.05,-73.88 27.2,-63.97l-7.2 -174.85c30.79,-291.88 35.98,-568.79 54.59,-859.15 9.15,-142.62 20.13,-307.81 35.4,-448.97 29.39,-271.9 -24.35,-267.38 111.21,-295.15l-179.02 -94.57c40.73,-38.13 -156.68,-369.24 294.68,-59.39 109.42,75.12 16.91,72.63 246.96,181.6 -140.29,-323.2 -204.24,-153.11 -309.06,-498.97l-184.89 16.76c-183.66,116.5 3.22,17.31 -226.45,95.38z"/>
   <path class="fil66" d="M16475.89 5891.37l174.43 188.51c230.53,91.81 294.19,-4.18 196.4,779.84l-124.93 368.38c-33.47,324.25 28.5,170.58 -144.14,266.64l-7.73 475.5c254.77,55.1 71.21,69.77 352.46,-18.79l75.96 -1550.77c234.13,71.24 419.81,311.51 653.17,434.33 57.72,-104.64 53.23,26.48 -5.17,-193.43 -135.62,-110.96 -426.46,-350.64 -558.92,-373.58l-611.53 -376.63z"/>
   <path class="fil67" d="M576.66 6271.93c-53.13,359.12 58.11,673.25 -29.22,1007.48l106.76 1224.03c123.04,-42.32 13.25,-57.37 138.35,-20.93 12.77,3.73 108.94,71.09 113.01,74.23 -13.77,8.14 -33.01,9.74 -39.74,26.83 -42.36,107.67 -126.65,17.45 -147.88,16.77 3.79,3.25 59.32,185.79 225.96,33.87 106.73,-97.31 61.61,-130.39 91.85,-340.09 -88.76,-143.56 -74.14,-281.15 -68.39,-493.26 -190.69,-4.18 -149.11,-256.12 -177.69,-487.41l-213.01 -1041.52z"/>
   <path class="fil68" d="M12003.84 2314.56l-27.75 397.03 -109.08 1560.02 284.86 -56.78c5.22,-209.52 6.87,-1842.83 97.51,-2043.45l-9.83 -336.37 -0.07 32.88 -235.64 446.67z"/>
   <path class="fil69" d="M13078.25 4353.38c-154.5,-157.48 -214.77,-232.91 -414.73,-295.62l-453.59 -296.25c7.09,42.49 24.47,129.16 14.79,215.82 -26.75,239.58 -30.26,157.87 -72.85,237.5l-284.86 56.78c-96.73,-186.43 -68.8,-336.28 -68.8,-592.25 -146.37,251.97 26.38,28.52 -93.64,53.08l-293.05 2.86c-60.98,-5.19 -27.59,20.57 -140.71,-30.19 97.86,255.09 305.55,451.56 463.28,628.87l1344.16 19.4z"/>
   <path class="fil70" d="M17646.34 6641.58c138.03,57.99 198.87,160.89 411.87,86.68 77.77,-163.95 69.33,-430.25 85.42,-622.1l-799.08 -11.5c-281.47,52.85 -135.15,-73.24 -257.13,173.34 132.46,22.94 423.3,262.62 558.92,373.58z"/>
   <path class="fil71" d="M20514.93 7978.26c-156.03,357.13 91.21,236 92.8,236.89 47.54,-194.19 33.72,-130.92 167.51,-231.5 150.09,125.7 79.89,-62.1 97.58,224.48 56.25,-49.89 125.78,131.17 72.51,-191.96 -66.79,-357.28 33.86,-670.97 12.97,-1046.56l-338.54 28.02 -104.83 980.63z"/>
   <path class="fil72" d="M15041.98 8160.36l12.51 216.4 115.78 76.2 60.23 -217.65c188.27,46.13 71.34,-52.79 138.04,147.63l63.24 -734.78 56.36 -1316.2 -5.39 -509.05 -18.96 -390.98c-55.02,742.6 -157.49,2252.88 -421.81,2728.43z"/>
   <path class="fil73" d="M7251.15 6905.06l-6.1 1304.53c196.36,-92.37 201.19,-300.7 214.09,-467.86 48.78,-631.56 100.34,-1165.81 18.68,-1790.11l-226.67 953.44z"/>
   <path class="fil74" d="M16656.45 6301.74l-78.8 1193c172.64,-96.06 110.67,57.61 144.14,-266.64l124.93 -368.38c97.79,-784.02 34.13,-688.03 -196.4,-779.84l6.13 221.86z"/>
   <path class="fil75" d="M2686.29 5317.69l77.31 20.1 386.74 -29.41 70.58 -407.29c-175.56,-60.31 -163.49,-45.37 -419.99,-8.61 -0.25,-107.08 -97.63,-192.79 -113.97,-216.38l-0.67 641.59z"/>
   <path class="fil76" d="M3094.29 6260.73c-82.82,307.74 -278.02,455.86 -155.21,731.73l322.92 -87.49c31.09,-437.35 32.48,-414.06 -65.06,-775.75l-102.65 131.51z"/>
   <path class="fil77" d="M18219.35 6932.41c90.27,-110.53 51.87,116.7 103.69,-242.12 42.15,-291.97 122.27,-791.38 -16.71,-1017.2l-156.18 596.02c-8.11,219.96 19.98,504.04 69.2,663.3z"/>
   <path class="fil78" d="M7848.19 7135.31l72.53 -162.11c32.98,-218.39 -112.72,-535.08 -267.85,-735.87l-84.7 607.93 306.38 113.45 -26.36 176.6z"/>
   <path class="fil79" d="M22916.22 6864.33l58.37 -166.79 -492.3 -299.47 22.43 -674.46c-77.24,253.89 -120.07,745.07 -13.53,995.42 308.12,75.03 418.81,-67.66 425.03,145.3z"/>
   <path class="fil80" d="M10996.05 759.01c229.67,-78.07 42.79,21.12 226.45,-95.38 -24.18,-45.58 -82.8,-179.57 -127.17,-207.39 -12.28,-7.7 -60.83,-9.55 -70.79,-10.27 -272.74,-19.93 149.47,-264.29 -79.26,57.9l50.77 255.14z"/>
  </g>
 </g>
</svg>
