<?xml version="1.0" encoding="UTF-8"?>
<!DOCTYPE svg PUBLIC "-//W3C//DTD SVG 1.1//EN" "http://www.w3.org/Graphics/SVG/1.1/DTD/svg11.dtd">
<!-- Creator: CorelDRAW 2017 -->
<svg xmlns="http://www.w3.org/2000/svg" xml:space="preserve" width="208.227mm" height="206.639mm" version="1.1" style="shape-rendering:geometricPrecision; text-rendering:geometricPrecision; image-rendering:optimizeQuality; fill-rule:evenodd; clip-rule:evenodd"
viewBox="0 0 20822.7 20663.94"
 xmlns:xlink="http://www.w3.org/1999/xlink">
 <defs>
  <style type="text/css">
   <![CDATA[
    .fil17 {fill:#1B1915}
    .fil11 {fill:#346868}
    .fil16 {fill:#3B4346}
    .fil8 {fill:#593519}
    .fil12 {fill:#687476}
    .fil14 {fill:#6D534D}
    .fil5 {fill:#71B1AE}
    .fil3 {fill:#916834}
    .fil2 {fill:#997285}
    .fil1 {fill:#9C2218}
    .fil18 {fill:#A61949}
    .fil6 {fill:#A8AAA9}
    .fil13 {fill:#A9D5D8}
    .fil15 {fill:#B78657}
    .fil7 {fill:#B8A277}
    .fil0 {fill:#C83885}
    .fil10 {fill:#D8A6B8}
    .fil9 {fill:#E4C298}
    .fil4 {fill:#E8D8C5}
   ]]>
  </style>
 </defs>
 <g id="Capa_x0020_1">
  <metadata id="CorelCorpID_0Corel-Layer"/>
  <g id="_2214367544624">
   <g>
    <path class="fil0" d="M11508.22 19246.36c105.27,82.27 66.53,395.99 -4.01,534.98 -90.05,177.45 -296.34,138.04 -502.12,184.34 -152.55,166.86 -66.41,538.5 208.6,576.69 243.13,33.76 547.68,-190.49 687.72,-284.32l-60.55 -1162.13c-31.94,-232.01 26.9,-221.91 -154.11,-264.62l25.32 249.83 -200.85 165.23z"/>
    <path class="fil0" d="M8583.89 19312.76c-29.56,345.83 -47.09,677.04 -311.49,778.96 -198.31,-78.27 -104.65,-122.59 -244.44,-230.02 -83.81,132.41 -221.76,454.73 -126.01,642.71 43.33,85.04 142.82,139.88 254.08,161.28l212.44 0c71.4,-14.33 135.9,-43.95 180.81,-89.84 145.61,-148.78 252.77,-1147.86 252.77,-1499.96l-116.16 -81.53c9.6,257.32 32.09,187.37 -102,318.4z"/>
   </g>
   <g>
    <path class="fil1" d="M18075.14 20117.91c-281.08,-107.81 -291.16,-421.17 -248.09,-776.35 159.36,-9 276,6.41 381.41,60.98 77.14,273.46 25.2,517.46 -133.32,715.37zm-384.21 -756.67l-7.97 570.69 -284.42 0.01c0,454.51 -40.65,753.57 484.14,691.67 567.22,-66.9 233.3,-541.56 493.67,-732.44 14.89,179.1 45.93,247.71 162.96,326.11 0,-250.72 -23.48,-518.74 12.22,-764.46 19.48,-134.14 51.97,-191.09 -8.62,-338.47l-166.56 -211.81c-135.56,-4.82 -99.66,125.11 -177.67,282.42l-528.2 6.71 20.45 169.57z"/>
    <path class="fil1" d="M16794.74 20091.55c-208.38,-61.8 -224.52,-129.34 -202.63,-401.3 20.85,-259.12 57.18,-316.81 328.09,-300.1 78.82,342.18 1.85,458.03 -125.46,701.4zm-292.51 -886.98c-5.6,7.94 -11.13,12.15 -12.42,26.37 -1.31,14.62 -9.64,21.07 -11.24,27.77l-57.83 673.23c-193.15,0 -278.66,-24.42 -321.19,131.48 -115.41,423.11 502.26,780.4 778.84,448.71 67.45,-80.88 468.23,-1226.31 234.96,-1575.4 -100.9,38.99 -68.3,14.21 -115.02,105.23 -30.53,59.48 -28.53,117.26 -38.7,174.02l-457.4 -11.41z"/>
    <path class="fil1" d="M16959.18 7465.76c-48.3,186.32 -72.14,270.74 -35.89,465.3 -13.24,67.13 -30.33,53.78 32.55,54.4 429.2,27.13 519.75,-34.72 949.43,82.7l303.1 5.79 70.08 -370.92c-67.75,-225.93 -98.38,-65.35 -265.68,-195.71l-126.1 -18.08c-72.15,92.63 -150.23,177.79 -335.67,103.58l-331.99 -172.38 -243.39 -55.72 -16.44 101.04z"/>
    <path class="fil1" d="M19162.12 9352.74c256.01,102.93 175.58,119.61 159.91,394.46 39.33,145.36 3.16,40.51 72.85,88.39 250.54,-153.77 8.43,-192.23 314.49,-266.43l3.98 -112.03 -197.95 -253.43 -283.48 -10.26c-47.79,53.6 -7.47,-23.85 -56.13,75.98 -23.25,47.73 -10.22,42.71 -13.67,83.32z"/>
   </g>
   <g>
    <path class="fil2" d="M9732.72 6256.04c-109.82,380.23 65.22,357.09 125.77,674.03 -192.06,140.03 -336.12,213.92 -409.98,525.28l374.56 -164.43 -1.54 329.73c-147.28,-9.1 -221.25,-50.03 -309.31,17.49 93.19,113.4 -21.76,235.38 -29.32,432.05 -7.17,186.17 85.72,348.34 127.34,528.37l-203.2 1.45c151.74,108.43 556.22,129.18 689.64,-30.71l-417.09 5.95 -24.03 -894.12 328 62.19c39.79,118.16 -10.77,133.67 -79.39,196.64 69.78,92.12 89.03,83.79 152.61,170.36 -139.92,187.71 -136.46,-3.23 -213.41,259.88l284.33 42.97 -0.75 145.57 257.05 -20.63 21.97 -148.3c-203.8,-285.8 -233.55,-770.95 -295.45,-1179.8 -151.48,-1000.52 -136.36,-85.11 -123.61,-1388.69 -364.13,59.49 -105.32,133 -254.19,434.72z"/>
    <path class="fil2" d="M17256.31 8068.35c15.17,248.91 -20.06,532.81 -52.72,778.72 -63.2,475.81 -58.89,353.45 -369.89,521.6l223.09 119.41c-79.61,80.25 32.11,47.71 -138.35,48.59 111.25,75.6 156.27,29.14 309.89,22.65 337.57,-14.25 1,-21.88 210.96,96.07 136.49,-93.9 233.12,-83.2 411.97,-120.61l116.77 -35.2c60.41,-147.93 30.68,-483.82 -22.14,-634.83 8.85,396 -113.17,525.52 -530.55,451.7 -27.07,-379.63 44.76,-586.23 135.42,-926.28 79.15,-296.9 55.45,-213.1 160.65,-264.55 101.17,318.56 -147.27,502.95 184.95,688.35 -60.48,-335.23 121.26,-271.23 8.91,-745.81 -429.68,-117.42 -520.23,-55.57 -949.43,-82.7 104.99,66.53 169.43,31.7 300.47,82.89z"/>
    <path class="fil2" d="M1700.92 5898.04l-309.02 8.29 -2.87 -201.62 321.59 46.9 -9.7 146.43zm-762.02 349.66c121.54,-103.59 106.91,-140.2 291.74,-166.66 337.63,-48.33 128.39,27.96 336.76,-130.3l133.52 -52.7c137.33,-31.6 101.33,-71.22 92.07,-229.08l-4 -415.2 342.48 -102.41 178.6 -465.21c-69.6,-128.09 -220.17,-141.52 -230.61,-326.11 -56.85,19.14 -103,24.9 -162.75,40.77 0,391.67 162.96,140.14 162.96,570.68 -171.52,-125.73 8.5,-247.64 -285.2,-326.11 -38.19,164.05 -33.56,372.76 -115.5,495.91 -36.75,55.26 -86.59,92.57 -134.46,150.82 -64.66,78.7 -68.13,96.09 -147.28,178.73 -164.58,171.86 -405.49,516.59 -458.33,776.87z"/>
    <path class="fil2" d="M7882.83 11330.7c-89.9,98.58 -78.84,392.16 -60.84,531.44 24.54,189.91 -23.26,69.59 61.4,161.54l-31.07 -403.24c159.1,46.76 277.59,119.13 356.56,244.1l129.99 -17.06c50.38,-198.39 37.47,-153.75 164.51,-267.61 52.77,-164.24 128.3,-183.36 115.65,-279.98 -24.59,-187.77 -80.36,-0.38 -132.7,-253.09l-124.79 -12.95 -10.88 134 -216.31 40.62 7.49 257.82 -252.92 -49.32 -6.09 -86.27z"/>
    <path class="fil2" d="M2391.04 6757.19l96.23 -79.25c111.57,280.02 95.18,60.79 249.97,222.75 114.25,-138.76 72.04,-117.3 225.06,-152.9 -31.55,-354.52 -340.99,-151.65 -121.29,-624.35 -308.15,-141.66 -410.01,357.3 -449.97,633.75z"/>
    <path class="fil2" d="M2213.73 7034.93c4.22,140.24 18.53,634.7 110.39,752.64 486.85,4.23 197.93,-390.91 209.35,-654.18l-153.2 -42.37 27.05 -289.38 -75.98 276.87c-16.89,-89.82 -25.19,-92.32 -105.37,-150.34l-12.24 106.76z"/>
    <path class="fil2" d="M9859.48 12425.8c-15.16,181.99 154.13,516.26 246.3,659.87l261.08 -51.14c-49.03,-61.74 -88.14,-81.58 -102.75,-111.61 -104.77,-215.56 199.34,-47.51 1.51,-443.7l-79.73 -129.83 -326.41 76.41z"/>
    <path class="fil2" d="M16420.74 17785.82c238.55,12.96 236.64,-28.01 392.85,93.89l26.12 -161.98 -22.66 -103.7 -156.84 67.91 -76.82 -153.28 -239.14 -18.53 -86.48 -121.78c0,211.89 27.51,223.87 40.75,383.09 160.72,42.65 16.93,2.62 122.22,14.38z"/>
    <path class="fil2" d="M8019.75 17323.03l-42.35 -403.37c120.46,8.41 179.3,-0.58 258.67,72.36 71.73,65.9 40.56,99.91 167.2,204.69 19.43,-352.1 -151.87,-418.92 -456.8,-447.14l-10.83 -78.76c-168.11,81 -27.26,30.86 7.96,287.57 8.91,64.96 -7.09,152.92 -1.53,203.69 23.91,218.14 -20.91,88.46 77.68,160.96z"/>
   </g>
   <g>
    <path class="fil3" d="M15728.14 4739.87l-35.85 38.12c-43.15,60.39 -13.78,8.88 -45.91,70.44l-188.21 505.17c-62.35,187.03 -196.46,548.45 -160.08,759.28 -40.46,230.48 -69.2,464.22 -101.3,691.84 -43.21,306.29 -64.51,353.96 -249,476.79 -121.05,-170.02 -41.73,-229.3 -319.69,-295.1 -201.75,5.61 -357.26,215.74 -473.2,365.1 -76.28,98.27 -131.01,168.08 -142.42,313.55 -17.55,223.78 27.03,247.91 189.31,282.21 -72.54,-324.03 48.55,-556.25 263.35,-662.48 156.74,79.49 157.18,94.71 228.47,229.23 702.23,-185.83 624.36,-834.54 757.26,-1269.79 74.44,-243.83 206.19,-344.78 299.55,-679.7 80.95,-290.4 66.12,-628.74 362.28,-672.42l96.86 -176 -35.09 -141.86 55.82 -606.46c-180.59,99.4 -170.43,168.39 -263,386.58 -29.41,69.33 -63.47,152.88 -102.77,222.21 -70.3,124.04 -50.26,97.62 -136.38,163.29z"/>
    <path class="fil3" d="M18119.57 3896.31l158.1 298.49c300.28,-105.04 -55.55,-239.6 468.8,-278.27l85.81 169.24 241.92 23.01 209.48 27.91c-25.71,-423.52 -101.09,-1572.39 -246.44,-1866.26 -7.5,-2.22 -25,-71.91 -163.41,15.7 269,247.38 -111.74,1247.24 -147.32,1534.74l-606.94 75.44z"/>
    <path class="fil3" d="M17145.45 1302.24c127.12,85.08 54.86,134.4 10.05,239.15 -54.99,128.53 -56.48,93.17 -78.95,262.69l194.62 194.98c174.85,9.02 216.87,9.19 334.16,86.23l4.04 -212.04 172.23 -23.37c26.88,-93.41 112.27,-401.87 125.6,-491.74 20.56,-138.61 -69.21,-331.48 -141.97,-478.43l-173.46 10.76 -63.77 78.22c94.78,125.09 147.4,66.72 96,274.24 -305.91,162.43 -164.87,-163.3 -478.55,59.31z"/>
    <path class="fil3" d="M16646.08 7765.98c15.88,-225.22 -11.58,-209.73 196.44,-246.95 24.31,177.11 -4.19,209.61 -196.44,246.95zm-510.26 220.35l8.89 160.31c421.12,-34.1 261.63,-46.63 439,-344.02 227.42,30.23 216.76,14.33 339.58,128.44 -36.25,-194.56 -12.41,-278.98 35.89,-465.3 -488.43,-7.4 -611.62,-192.63 -657.28,-659.22 -100.81,143.02 -74.31,450.51 -56.81,651.84 30.67,352.9 93.52,311.21 -109.27,527.95z"/>
    <path class="fil3" d="M11115.13 9378.86c-54.17,190.53 -12.17,149.61 10.02,320.37l15.72 7.77c69.03,-180.28 169.88,-234.48 311.8,-330.87 120.56,-81.88 203.79,-225.51 361.03,-238.31 -77.97,-120.89 -109.86,-173.36 -187.37,-327.04 -127.1,51.51 -39.75,-62.72 -119.99,130.18 -17.45,41.95 -39.33,153.85 -59.18,221.6l-211.71 -77.36 -120.32 293.66z"/>
    <path class="fil3" d="M18953.51 8336.88c34.86,-68.09 70.73,-87.85 126,-142.99 -83.67,-290.64 -597.13,-502.31 -589.68,263.75 216.47,-45.7 -67.11,14.18 98.58,-45.68 145.71,-52.64 20.27,-14.39 195.35,70.98 140.95,-73.48 16.44,-37.67 169.75,-146.06z"/>
    <path class="fil3" d="M2782.69 15193.95c95.88,127.12 90.05,65.82 248.76,117.24l406.06 104.69 -20.38 -333.81 26.31 -299.05c-362.28,125.7 -144.98,337.18 -660.75,410.93z"/>
    <path class="fil3" d="M3622.31 2734.51c-33.83,55.65 -37.29,23.5 -40.35,120.5 -7.48,236.84 -7.38,103.44 50.06,156.82 289.03,14.58 392.22,-69.93 446.07,-328.17 -216.77,-33.34 -252.24,4.62 -455.78,50.85z"/>
   </g>
   <g>
    <path class="fil4" d="M17037.43 5239.13c-244.13,60.51 -206.02,80.09 -301.99,296.84 -51.71,941.49 130.73,507.44 316.05,1136.98l546.6 -75.11c18.41,-375.21 -129.11,-558.39 77.02,-838.89 33.89,276.63 -19.29,579.4 120.31,793.61 69.44,-290.42 6.23,-568.67 64.83,-878.37 41.74,-220.54 97.06,-673.2 -54.29,-827.9 -157.26,218.77 60.16,407.38 -122.22,634.63 -151.37,-199.07 -93.01,-216.06 -646.31,-241.79z"/>
    <path class="fil4" d="M17747.63 4469.06c167.25,146.82 168.21,150.22 454.89,201.79 -263.27,141.75 -258.51,159.9 -277.57,543.57 -14.51,291.98 -31.8,555.55 77.26,776.97 559.92,155.06 603.74,-385.53 538.86,-812.7 -61.38,-404.14 -227.34,-798.71 185.7,-1061.22l105.51 -31.7 -85.81 -169.24c-524.35,38.67 -168.52,173.23 -468.8,278.27l-158.1 -298.49 -261.82 -70.3c48.26,529.93 117.68,404.74 -110.12,643.05z"/>
    <path class="fil4" d="M17642.51 446.67c105.05,-132.17 183.46,-132.89 410.57,-127.35l-46.26 168.12c-152.56,66.63 -262.77,54.71 -364.31,-40.77zm-692.13 285.4l252.41 -3.67c121.49,-122.76 264.9,-47.11 463.46,-47.36l297.61 6.97c417.23,-60.53 281.81,-183.64 688.31,122.39l362.85 183.91c154.39,34.5 82.61,36.6 216.9,128.96 0,-161.02 -10.71,-283.97 -33.55,-397.89 -16.76,-83.56 -14.92,-108.06 -44.34,-157.08 -78.22,-130.32 -41.54,-70.79 -166.35,-121.63l28.01 195.71c-518.18,326.67 -777.24,-398.15 -231.93,-292.91 -51.11,-62.5 -11.2,-52.57 -101.76,-90.21 -200.56,-83.38 -292.99,140.85 -427.88,105.88 -1.11,-0.28 -604.99,-776.01 -1057.07,2.2 -96.31,165.8 -158.4,197.7 -246.67,364.73z"/>
    <path class="fil4" d="M16834.02 4332.01l-13.81 108.3c140.48,44.71 200.54,62.38 294.3,187.52 244.76,110.67 468.94,-11.36 586.47,-182.54l-189.07 -38.95c-146.61,-45.48 -121.34,-37.82 -177.79,-141.53 -130.13,-40.18 -197.42,-83.84 -381.69,-76.44 -130.6,73.73 -78,17.64 -118.41,143.64z"/>
    <path class="fil4" d="M10149.59 978.22l326.73 48.79c118.66,-219.11 261.93,-203.73 248.33,-459.61 -177.86,-45.66 -165.37,-65.37 -362.17,-13.77 -164.97,47.1 -306.16,182.22 -336.81,388.51l123.92 36.08z"/>
    <path class="fil4" d="M10202.23 11888.33l65.27 56.49c151.22,-59.61 426.07,-247.74 454.47,100.6 81.22,215.05 -37.52,122.63 120.39,308.7 -202.73,69.75 -303.19,20.84 -369.52,199.51l242.98 140.72c82,-233.31 295.62,-477.73 98.1,-808.2 -154.09,-257.78 -488.14,-233.08 -611.69,2.18z"/>
    <path class="fil4" d="M7951.36 8110.13l-177.23 271.02 -35.09 90.41c354.84,69.89 509.39,243.26 510.08,-582.52 -260.29,52.9 -148.66,89.4 -297.76,221.09z"/>
    <path class="fil4" d="M10060.66 14754.89l-17.01 -255.65c558.03,3.98 284.53,251.79 579.48,242.26 18.2,-190.11 -111.89,-242.7 -230.86,-339.1l-400.64 -4.12 -43 -173.32c51.54,-118.81 59.73,-76.91 147.69,-151.37l-194.25 -113.03c-57.78,154.11 -55.04,252.84 -18.5,445.88 15,79.22 16.38,132.56 41.1,203.78 59.72,172.11 -31.23,50.11 135.99,144.67z"/>
    <path class="fil4" d="M8745.5 13630.58c38.82,-277.5 30.27,-91.19 -92.66,-383.97l-52.04 -18.81c-4.62,-1.32 -19.03,-5.12 -23.47,-6.25 -4.97,-1.29 -42.37,-4.4 -55.58,-7.17l-34.96 -129.03c-0.76,-30.34 14.65,-155.08 17.51,-190.65 -212.27,42.81 -346.39,77.59 -424.02,262.9 215.7,124.38 61.17,-40.64 263.85,20.73 146.07,44.22 38.41,153.58 21.34,209.74l228.26 27.54c42.13,204.09 17.85,152.18 151.77,214.97z"/>
    <path class="fil4" d="M8267.63 10278.24c252.38,179.6 107.75,399.37 407.98,353.52 123.37,-18.85 98.76,-46.03 126.63,-75.59 -98.82,-63.94 -209.05,-76.31 -345.47,-97.79l107.82 -265.55 -251.45 -6.94c-62.68,45.9 -60.54,-76.19 -45.51,92.35z"/>
    <path class="fil4" d="M10392.27 14402.4l203.67 41.86c53.37,-35.06 97.68,-54.97 143.52,-119.96l26.02 314.46 141.35 -6c-82.56,-281.85 50.92,-366.79 -205.77,-411.11l-64.57 119.12 -290.4 -71.43 46.18 133.06z"/>
    <path class="fil4" d="M8113.58 10394.19l-29.97 120.01c151.61,224.08 48.97,44.1 58.76,326.94l187.1 -34.48 115.73 -85.63c-34.78,-33.97 -6.5,-20.11 -69.53,-62.06 -31.85,-21.19 -46.98,-24.16 -83.46,-41.09l-23.86 -260.29 -154.77 36.6z"/>
    <path class="fil4" d="M10717.79 13227.63c75.11,-98.19 45.22,-12.77 51,-196.55l-208.78 10.82c-144.93,39.5 -187.93,118.12 -146.82,304.13 152.94,23.35 96.6,27.07 222.23,-117.59l82.37 -0.81z"/>
    <path class="fil4" d="M8653.46 10774.39c53.09,149.43 36.82,141.11 147.98,220.96 88.29,-94.9 41.55,-109.6 126.41,-190.84 88.26,-84.48 82.1,8.01 160.58,-166.8 -163.04,-82.03 -102.58,-29.85 -206.01,37.71 -74.81,48.86 -133.74,62.16 -228.96,98.97z"/>
    <path class="fil4" d="M9857.72 13287.38c112.46,-157.09 19.48,74.6 219.45,111.87 202.91,37.81 96.76,-15.76 127.12,-30.35 -36.57,-75.31 -22.36,-60.82 -72.06,-109.05 -163.64,-158.78 -180.39,-16.37 -311.64,-166.22 0,27.68 -2.66,85.75 2.71,109.97 15.23,68.54 14.93,50.06 34.42,83.78z"/>
    <path class="fil4" d="M8814.92 10512.69c168.1,-29.92 253.88,-35.37 351.69,-128.92l-249.7 -170.62 -101.99 299.54z"/>
    <path class="fil4" d="M10063.86 11371.46c72.26,157.44 63.22,124.37 289.82,133.3l-49.53 -244.74c-117.15,33.7 -150.83,31.77 -240.29,111.44z"/>
    <path class="fil4" d="M8244.23 15303.46l-18.79 -222.62c-94.57,-98.09 -85.92,-104.34 -246.21,-107.96 42.85,67.71 176.11,274.18 265,330.58z"/>
    <path class="fil4" d="M8883.53 11389.43c232.55,-126.59 50.03,-240.95 -107.85,-252.59 42.1,264.95 48.78,200.1 107.85,252.59z"/>
    <path class="fil4" d="M8678.29 12552.84l108.74 -49.98 19.48 -118.4 -307.51 29.68c60.29,104.07 -17.4,30.67 63.53,90.91 23.83,17.73 80.64,35.89 115.76,47.79z"/>
   </g>
   <g>
    <path class="fil5" d="M19256.59 5906.43l89.38 175.62c150.29,523.53 197.73,-2.5 212.61,486.96 -0.29,420.77 240.38,943.78 129.18,1328.89 -10.02,181.69 16.03,178.9 -91.81,298.79 98.32,127.76 371.84,301 388.73,-29.82 2.55,-49.85 -11.91,-156.55 -13.16,-219.68 -14.45,-730.97 552.02,-472.52 634.53,-815.2 -354.84,-238.75 -264.84,181.53 -828.26,-955.58 -227.03,-458.22 -290.42,-981.89 -312.95,-1545.62l-39.34 0 -168.91 1275.64z"/>
    <path class="fil5" d="M16144.71 8146.64l-57.99 230.67 -94.66 482.8 225.29 111.43c143.93,158.57 54.32,211.88 254.44,350.71l136.18 102.54 41.19 1.1c98.27,-165.52 32.3,-1.92 72.34,-174.17l-304.26 -185.15c9.5,-384.64 276.64,-181.72 610.68,-755.6 77.48,-133.11 90.97,-185.55 228.39,-242.62 -131.04,-51.19 -195.48,-16.36 -300.47,-82.89 -62.88,-0.62 -45.79,12.73 -32.55,-54.4 -122.82,-114.11 -112.16,-98.21 -339.58,-128.44 -177.37,297.39 -17.88,309.92 -439,344.02z"/>
    <path class="fil5" d="M15127.33 8188.66c-137.41,129.88 -224.13,99.19 -303.37,353.32 -28.7,192.77 38.72,158.29 -50.29,342.86 117.14,123.83 200.02,189.91 407.29,203.83l-20.47 -126 -4.67 -200.11c41.54,-54.84 -69.79,-46.63 89.36,-39.93 31.52,-27.66 -40.74,6.28 67.25,-49.64 10.25,-5.31 44.86,-19.79 57.04,-24.08 74.49,-26.33 98.11,-24.47 171.6,-34.72 72.29,-121.19 88.44,-107.13 202.34,-160.41 -73.85,-303.1 -260.97,-425.02 -616.08,-265.12z"/>
    <path class="fil5" d="M3421.77 4478.32c56.45,-97.54 -2.87,-37.42 -31.08,-240.59 92.06,-97.67 146.77,-119.74 189.18,-241.16l-251.01 -102.24c133.35,-77.5 114.84,-40.57 132.35,-234 -88.01,-63.19 -133.28,-99.01 -222.8,-165.98 -188.4,48.66 -344.98,429.19 -279.13,633.56 79.64,114.01 90.38,66.34 218.21,194.05 98.9,98.8 80.05,128.84 244.28,156.36z"/>
    <path class="fil5" d="M18953.51 8336.88c23.32,212.46 1.46,309.54 -1.82,509.61 -3.33,203.88 54.57,332.01 68.45,517.19l141.98 -10.94c3.45,-40.61 -9.58,-35.59 13.67,-83.32 48.66,-99.83 8.34,-22.38 56.13,-75.98l283.48 10.26c-85.91,-163.91 -131.56,-306.83 -225.64,-418.25 -159.74,-189.21 -186.97,-141.11 -189.33,-477.57l218.88 -85.08c9.21,-4.51 23.59,-11.56 34.63,-18.62l-274.43 -10.29c-55.27,55.14 -91.14,74.9 -126,142.99z"/>
    <path class="fil5" d="M18012.77 7507.32c167.3,130.36 197.93,-30.22 265.68,195.71 178.77,5.42 220.61,-190.55 307.61,-360.06 87.71,-170.91 147.6,-272.87 194.86,-480.55 -222.5,136.63 -248.82,173.52 -367.93,386.24l-210.34 -121.1 -189.88 379.76z"/>
   </g>
   <g>
    <path class="fil6" d="M17747.63 4469.06l-46.65 -23.77c-117.53,171.18 -341.71,293.21 -586.47,182.54 22.55,265.51 -19.84,387.74 -77.08,611.3 553.3,25.73 494.94,42.72 646.31,241.79 182.38,-227.25 -35.04,-415.86 122.22,-634.63 151.35,154.7 96.03,607.36 54.29,827.9 -58.6,309.7 4.61,587.95 -64.83,878.37 -139.6,-214.21 -86.42,-516.98 -120.31,-793.61 -206.13,280.5 -58.61,463.68 -77.02,838.89l-546.6 75.11c-185.32,-629.54 -367.76,-195.49 -316.05,-1136.98l-51.26 -98.77c-200.8,254.29 -218.64,489.86 -38.36,818.52 90.78,165.51 354.53,588.93 467.53,713.19 237.23,-255.18 114.88,-200.1 505.08,-217.78l-70.18 638.25c-115.05,29.14 -196.79,49.71 -329.24,31.06l331.99 172.38c185.44,74.21 263.52,-10.95 335.67,-103.58 -118.09,-28.89 -43.46,36.4 -78.01,-81.39 182.92,-279.16 350.74,-807.9 507.97,-1067.78 73.55,-121.58 127.57,-195.88 189.76,-339.43 206.45,-476.6 164.11,-1313.77 220.38,-1883.17 -413.04,262.51 -247.08,657.08 -185.7,1061.22 64.88,427.17 21.06,967.76 -538.86,812.7 -109.06,-221.42 -91.77,-484.99 -77.26,-776.97 19.06,-383.67 14.3,-401.82 277.57,-543.57 -286.68,-51.57 -287.64,-54.97 -454.89,-201.79z"/>
    <path class="fil6" d="M11220.12 14895.9l-20.35 223.74c-542.74,-124.97 -336.68,-69.88 -319.77,248.54l-334.31 141.18c135.76,88.08 145.07,112.57 293.44,141.45 82.69,-161.12 9.29,-221.47 203.71,-316.32 88.23,35.18 202.27,111.68 111.11,219.32 -124.1,146.57 -148.35,-27.91 -211.15,233.65 388.17,63.76 244.01,-140.9 433.38,-331.2 20.64,25.47 49.32,51.23 74.07,74.05l0 -204.72c272.65,-22.7 100.19,-28.01 383.48,25.85 175.01,33.27 280.58,-15.08 395.85,-66.62 -84.21,-135.57 -173.64,-318.13 -290.43,-400.22 -161.97,140.8 -112.72,126.68 -185.47,325.11l-222.7 27.34c-112.71,-252.86 -192.27,-451.01 -148.58,-791.69l-92.38 65.02 49.41 366.8c-62.59,39.48 105.72,93.69 -119.31,18.72z"/>
    <path class="fil6" d="M17945.89 8864.75l-49.53 -50.78c-332.22,-185.4 -83.78,-369.79 -184.95,-688.35 -105.2,51.45 -81.5,-32.35 -160.65,264.55 -90.66,340.05 -162.49,546.65 -135.42,926.28 417.38,73.82 539.4,-55.7 530.55,-451.7z"/>
    <path class="fil6" d="M7824.24 15718.21c274.84,-285.08 303.38,-37.16 366.68,62.53l321.8 44.94c20.86,-278.33 -51.59,-253.22 -270.04,-308.6 -181.66,-46.08 -192.8,-127.23 -414.75,-186.69l32.03 -167.86 -111.81 211.57c-13.68,86.8 -5.39,225.87 -5.39,318.37l81.48 25.74z"/>
    <path class="fil6" d="M18987.68 446.67c-2.65,-103.08 65.84,31.46 -40.95,-122.3l-162.97 25.1c-545.31,-105.24 -286.25,619.58 231.93,292.91l-28.01 -195.71z"/>
    <path class="fil6" d="M7936.19 12123.82l103.66 544.43c91.18,-81.94 39.08,-66.01 116.33,-149.95 61.07,-66.35 80.31,-57.73 150.56,-113.19l14.36 -218.13 -234.54 -134.05c-183.02,31.26 -80.54,-20.47 -150.37,70.89z"/>
    <path class="fil6" d="M10906.79 11765.77l-52.29 -203.43 -345.03 -58.8c89.91,168.81 166.81,240.31 397.32,262.23z"/>
    <polygon class="fil6" points="11391.8,16109.14 11345.47,15981.79 11168.81,15983.51 11130.49,16169.18 "/>
    <path class="fil6" d="M8039.93 16530.65l122.65 8.16c23.6,-90.59 46.25,-32.75 24.2,-197.28 -125.94,29.72 -167.6,54.76 -146.85,189.12z"/>
   </g>
   <g>
    <path class="fil7" d="M9127.98 913.72c-86.46,119.09 -96.95,216.99 -118.97,392.22 -25.31,201.37 -59.5,245.8 -159.83,370.04 -179.79,222.6 -347.13,374.33 -373.06,745.96 48.11,-20.47 62.98,-32.04 95.51,-33.96 62.82,-3.69 45.47,2.17 80.67,15.36 140.28,605.79 -266.91,1333.36 -162.77,1881.83 95.45,354.12 -96.41,671.83 108.81,973.66 116.55,-51.8 26.5,28.54 83.91,-101.12 112.49,-467.19 113.8,-1015.14 181.69,-1513.65 69,-506.69 200.6,-990.33 205.86,-1494.79 99.56,-296.89 -59.84,-159.66 -9.64,-379.13 18.55,-81.14 155.35,-301.92 182.61,-338.38l324.08 -28.8 -42.65 166.07 702.04 -252.22 -76.65 -338.59 -123.92 -36.08c30.65,-206.29 171.84,-341.41 336.81,-388.51 47.13,-60.38 14.13,-37.27 98.88,-77.05 51.13,-24 101.83,-26.87 160.65,-44.84 128.09,-39.15 169.51,-65.11 209.15,-188.89 -36.24,-212.26 -131.73,-163.06 -379.84,-163.06l-286.3 61.41c-90.73,7.62 -181.03,15.93 -272.15,23.2l35.51 430.89c-57.9,11.01 -187.57,27.15 -228.07,53.54 -88.77,57.8 -12.64,6.14 -69.35,87.71 -151.47,217.89 -209.9,95.89 -502.98,177.18z"/>
    <path class="fil7" d="M2876.3 1644.44c-106.94,97.84 -76.69,177.22 -60.2,345.8 291.18,-45.8 314.36,-106.14 595.28,17.1 -80.18,163.18 -55,1.41 -115.52,217.31 226.06,-103.67 128.14,-205.28 351.43,-165.78 110.22,234.74 -32.89,424.39 -24.98,675.64 203.54,-46.23 239.01,-84.19 455.78,-50.85 -53.85,258.24 -157.04,342.75 -446.07,328.17 28.91,28.56 48.27,42.19 65.46,59.49 51.67,52.06 20.11,14.78 57.23,67.28l-90.78 118.17 229.3 -8.35 -38.38 533.48 111.16 -31.99c120.33,-245.52 12.71,-402.91 129.39,-513.49 27.91,-205.56 80.51,-117 192.63,-295.18 72,-114.41 85.02,-269.76 131.59,-398.12 70.52,-194.42 173.05,-186.19 163.46,-325.1 -7.81,-113.13 -96.49,-287.48 -153.93,-371.53 -341.33,48.28 -257.58,449.15 -622.28,185.22 151.34,-356.31 315.92,-166.74 505.77,-329.26 -197.21,-255.69 -299.17,-293.78 -677.92,-420.3 -86.95,348.05 -330.1,440.61 -749.85,455.26l-8.57 -92.97z"/>
    <path class="fil7" d="M1629.64 8436.44c83.72,56.47 54.84,6.41 83.35,114.84l122.23 -106.34c103.76,82.16 170.97,163.87 301.74,260.56 101.56,75.09 227.29,141.98 292.32,214.85 228.44,89.09 241.57,175.68 377.47,336.87 128.15,152.02 263.98,173.93 394.01,350.81 264.8,92.72 8.45,-33.93 345.32,-73.79 239.15,-28.29 287.4,6.55 365.35,-208.89l-528.1 -347.73c102.96,-93.53 -26.61,-13.79 112.59,-36.92 10.71,-1.78 44.81,-2.28 55.04,-3.55 88.66,-11.07 19.81,20.12 72.89,-11.54 -230.31,-403.49 -509.72,-300.34 -1014.55,-338.7 -93.28,-86.05 -91.4,-131.34 -203.3,-231.43 -79.97,-71.52 -152.58,-114.43 -244.1,-204.37 -162.23,-159.44 -274.35,-362.23 -553.52,-81.54 45.24,196.45 122.29,184.69 21.26,366.87z"/>
    <path class="fil7" d="M16950.45 1997.75l-37.6 175.32c34.9,407.23 -10.41,356.77 129.48,749.51 75.61,212.29 172.31,402.82 202.64,629.55 5.46,12.24 11.3,27.13 15.02,37.3l26.66 72.69c67.37,199.81 186.92,471.2 47.47,602.69 56.45,103.71 31.18,96.05 177.79,141.53 184.13,-25.03 103.9,-110.5 111.96,-629.48l343.65 -126.29 118.2 97.79c23.09,-450.15 219.81,-258.86 382.57,-650.57l-538.76 -89.16 35.7 128.47c-57.26,60.12 -96.37,110.51 -159.27,169.86 -274.62,-24.36 -370.55,-90.77 -385.58,-373.09l357.61 -4.68 46.98 -522.62c-204.32,20.45 -261.11,50.57 -429.97,-42.46 -112.54,-18.31 -175.65,-7.16 -223.53,-109.65 -59.15,-67.75 -20.99,50.56 -68.96,-135.96 -13.82,-53.72 -8.8,-91.64 -9.41,-145.98l-142.65 25.23z"/>
    <path class="fil7" d="M2405.6 1009.37l211.77 51.15 -133.05 281.39c58.3,47.51 0.89,44.11 119.36,27.39 107.57,-89.47 120.56,-147.56 242.44,-258.91 -82.54,-195.12 -174.66,-255.27 -278.87,-387.6 898.42,-449.04 673.3,-318.15 1712.47,-200.87 0,-346.67 -124.4,-484.25 -312.54,-523.66l-317.48 0c-148.3,19.13 -309.96,55.45 -470.02,81.51 -627.95,102.3 -774.08,199.96 -774.08,929.6z"/>
    <path class="fil7" d="M4813.67 8714.16c-148.99,382.88 -465.21,684.45 9.01,938.23l135.9 -194.35c110.85,392.91 -81.75,693.12 176.71,911.53 -16.34,-231.42 -39.62,-418.27 -41.29,-710.74 -0.72,-125.34 -5.99,-231.49 16.46,-350.52 22.81,-120.93 56.12,-178.68 62.79,-301.17 80.69,-223.92 189.89,-83.88 205.98,-364.86 9.89,-172.8 -48.34,-378.09 0.31,-530.03l-202.52 2.72c-55.11,394.91 36.11,275 67.09,514.46 -184.78,-82.22 -260.79,-37.42 -430.44,84.73z"/>
    <path class="fil7" d="M16420.74 17785.82c0,251.17 68.87,447.29 106.45,694.4 48.52,318.99 -19.82,478.81 -24.96,724.35l457.4 11.41c10.17,-56.76 8.17,-114.54 38.7,-174.02 46.72,-91.02 14.12,-66.24 115.02,-105.23 -144.6,-158.14 -167.77,-204.85 -163.25,-512.78 4.16,-283.89 -40.46,-406.73 -40.46,-707.95l-69.93 1.73 -26.12 161.98c-156.21,-121.9 -154.3,-80.93 -392.85,-93.89z"/>
    <path class="fil7" d="M9559.42 2586.84c-8.39,286.13 95.97,377.98 229.53,538.89 162.53,99.64 368.35,206.91 626.39,163.16 399.09,-180.17 557.68,-361.71 676.24,-875.05 -268.01,235.14 -264.33,292 -730.5,299.25 77.16,63.21 -9.44,7.03 110.9,52.25 50.33,18.92 35.12,-2.85 106.52,33.5 -297.01,424.66 -592.43,269.57 -609.83,-70.46l344.84 2.3c-174.14,-86 -681.88,87.08 -743.49,-579.13 174.58,62.91 306.55,70.56 530.93,-75.44 -170.6,20.5 -225.64,87.11 -324.8,-36.56l-136.69 -17.91c-202.64,109.27 -134.76,357.8 -80.04,565.2z"/>
    <path class="fil7" d="M7924.18 9170.2c125.22,132 25.18,375.85 -8.39,539.99 -37.45,183.13 -91.55,409.9 -91.55,601.41 164.52,0 17.46,-9.26 81.49,49.05l122.23 8.24 -38.34 -65.23c0.18,-2.83 -0.31,-15.11 0.73,-18.02 9.28,-25.95 47.99,-39.5 78.34,-55.58l0 126.81 51.28 0c46.91,-75.92 -37.96,-20.58 53.63,-62.39 91.04,-41.56 30.6,-10.79 94.03,-16.24 -15.03,-168.54 -17.17,-46.45 45.51,-92.35l251.45 6.94 -132.68 -36.03c-225.14,-29.08 -306.99,47.44 -369.36,-223.71 299.64,2.58 639.53,62.16 777.07,-147.34 -36.29,-12.26 -654.9,-142.42 -749.01,-355.46 -55.62,-125.9 72.68,-142.58 188.06,-140.95 -128.69,-146.37 -100.23,-14.67 -189.42,-218.97l192.6 -103.99c2.48,-351.87 3.05,-404.48 350.29,-397.45 -109.52,-71.51 -148.22,-40.61 -194.8,-195.07 -188.56,-207.9 -59.76,-120.57 -63.9,-140.34 -15.95,-76.35 -6.37,-48.7 5.13,-121.86 -137.95,169.03 -79.2,361.77 -202.05,553.82 -97.46,152.37 -285.84,225.48 -252.34,504.72z"/>
    <path class="fil7" d="M15746.68 11616.05c-15.63,-120.82 -39.22,-1257.37 2.5,-1325.43 89.41,-145.85 53.08,18.86 238.45,-99.41 121.51,-77.53 -11.61,105.96 77.87,-83.23 -227.66,-211.32 -317.53,-450.64 -39.4,-635.99l-46.65 -172.22c-158.99,-13.33 -627.29,-83.07 -740.21,-129.37 62.35,99.27 69.01,121.96 244.45,162.85 0,214.39 -25.12,487.28 -12.04,587.02 43.97,335.31 170.04,78.31 178.39,469.46 4.53,212.36 -2.61,441.34 -3.51,655.74 -0.41,96.39 -8.11,234.95 -1.2,326.25 9.9,131.04 15.85,158.3 101.35,244.33z"/>
    <path class="fil7" d="M18075.14 20117.91c158.52,-197.91 210.46,-441.91 133.32,-715.37 -105.41,-54.57 -222.05,-69.98 -381.41,-60.98 -43.07,355.18 -32.99,668.54 248.09,776.35z"/>
    <path class="fil7" d="M18414.83 1093.89c-52.54,239.34 -65.48,175.37 69.02,333.17l412.21 114.3c168.61,-153.35 -40.93,-356.5 -59.41,-555.29l178.37 8.24 -362.85 -183.91 -4.06 158.14 -233.28 125.35z"/>
    <path class="fil7" d="M16794.74 20091.55c127.31,-243.37 204.28,-359.22 125.46,-701.4 -270.91,-16.71 -307.24,40.98 -328.09,300.1 -21.89,271.96 -5.75,339.5 202.63,401.3z"/>
    <path class="fil7" d="M14773.67 8884.84c89.01,-184.57 21.59,-150.09 50.29,-342.86 -38.26,41.23 -23.15,20.34 -73.62,49.14 -250.37,-65.2 -167.61,-102.08 -280.2,-323.15 -72.82,-143.04 -163.04,-204.21 -290.19,-278.16 4.49,198.08 123.85,388.12 210.49,521.38 121.04,186.2 211.78,252.05 383.23,373.65z"/>
    <path class="fil7" d="M11133.63 2172.54c15.39,-67.22 24.42,-42.9 -53.04,-53.75 -192.54,8.95 -306.24,40.61 -433.93,-96.23l192.68 -77.02c63.01,-72.44 -103.37,-31.34 135.35,-71.92l31.78 -79.77c-280.86,-224.19 -472.82,47.92 -528.71,324.15 307.11,237.96 415.65,100.71 655.87,54.54z"/>
    <path class="fil7" d="M816.67 7599.27c46.34,154.88 241.9,418.91 355.93,511.05l11.9 -273.62 58.59 -415.1 -426.42 177.67z"/>
    <path class="fil7" d="M19356.99 8203.84l238.96 -7.15c107.84,-119.89 81.79,-117.1 91.81,-298.79 -125.69,-79.22 -149.74,-169.46 -307.47,-230.45 29.8,195.91 15.35,368.5 -23.3,536.39z"/>
    <path class="fil7" d="M9219.22 4739.42c-127.92,21.16 -111.52,-6.68 -152.59,152.02l475.9 76.66 -8.8 -24.64 1.69 -342.19c-240.04,18.33 -184.83,57.84 -316.2,138.15z"/>
   </g>
   <g>
    <path class="fil8" d="M1509.28 9292.69c63.82,209.17 112.48,301.77 192.59,500.09 61.72,152.82 129.03,325.04 133.35,518.82l88.87 -40.77 232.02 -99.42c75.72,-24.29 139.01,-53.1 193.26,-84.13 112.58,423.53 -37.79,317.61 459.7,350.56l-31.96 432.76c617.22,402.7 1105.92,-14.08 1469.29,163.29 169.21,82.6 367.52,52.7 562.96,11.67 102.09,55.37 203.5,-73.64 245.48,-161.68 38.85,-81.46 62.47,-335.72 80.45,-449.79 -965.82,591.6 -948.53,92.8 -1217.9,-124.18l-85.83 210.56c-370.08,33.81 -584.4,-72.88 -917.33,-106.32 -69.71,-341.57 -101.07,-268.77 -181.47,-510.2 89.73,-180.09 192.62,-291.78 468,-295.92 -130.03,-176.88 -265.86,-198.79 -394.01,-350.81 -135.9,-161.19 -149.03,-247.78 -377.47,-336.87 -38.26,167.16 -184.01,240.88 -379.45,301.42 -180.29,55.87 -356.07,164.59 -540.55,70.92z"/>
    <path class="fil8" d="M19268.06 4431.41c-15.82,627.13 -139.87,2054.17 -487.14,2431.01 -47.26,207.68 -107.15,309.64 -194.86,480.55 -87,169.51 -128.84,365.48 -307.61,360.06l-70.08 370.92 -303.1 -5.79c112.35,474.58 -69.39,410.58 -8.91,745.81l49.53 50.78c52.82,151.01 82.55,486.9 22.14,634.83 143.01,212.78 224.08,296.43 265.61,485.91l-128.89 137.17c429.87,-64.44 309.61,-177.66 574.22,-288.88 -7.95,-8.65 -20.06,-17.83 -26.62,-23.03l-154.79 -111.66c-176.91,-148.1 -179.74,-427.42 -189.06,-648.5l353.04 -30.66 38.04 153.39c21.52,125.53 -15.9,132.14 48.19,200.82 73.74,79.03 158.93,26.18 272.37,-10.46 -13.88,-185.18 -71.78,-313.31 -68.45,-517.19 3.28,-200.07 25.14,-297.15 1.82,-509.61 -153.31,108.39 -28.8,72.58 -169.75,146.06 -175.08,-85.37 -49.64,-123.62 -195.35,-70.98 -165.69,59.86 117.89,-0.02 -98.58,45.68 -7.45,-766.06 506.01,-554.39 589.68,-263.75l274.43 10.29 3.05 -0.34c38.65,-167.89 53.1,-340.48 23.3,-536.39l10.83 -386.71 -36.98 -187.44c-288.8,275.34 -229.48,762.41 -799.12,715.96 96.72,-577.05 530.7,-706.54 701.57,-1902.83l168.91 -1275.64c-3.64,-89.69 24.67,-244.9 -27.11,-306.04 -79.18,-93.48 19.32,-11.66 -130.33,106.66z"/>
    <path class="fil8" d="M8437.34 8373.86c46.58,154.46 85.28,123.56 194.8,195.07l292.14 -3.59c181.02,-558.37 89.05,-396.82 158.62,-698.61l45.08 -123.53c240.57,232.97 -15.11,528.7 -26.12,841.67 149.47,-10.17 139.15,-33.34 229.83,-130.17l75.35 145.31 203.2 -1.45c-41.62,-180.03 -134.51,-342.2 -127.34,-528.37 7.56,-196.67 122.51,-318.65 29.32,-432.05 -182.21,41.66 -224.61,217.36 -226.31,-151.92l162.6 -30.87c73.86,-311.36 217.92,-385.25 409.98,-525.28 -60.55,-316.94 -235.59,-293.8 -125.77,-674.03l-93.58 -20.86c-9.43,-249.62 39.94,-373.04 -103.74,-534.47 -87.1,76.31 -83.06,91.98 -104.27,257.45 -21.29,166.12 -9.96,159.28 -74.96,301.52 -96.46,-102.99 -85.94,-157.88 -124.37,-336.19 -213.7,-11.77 -242.84,178.3 -155.58,-477.45 -176.87,146.85 -21.59,522.02 -197.16,702.94l-23.93 -184.69c-88.17,-115.27 -18.65,-307.82 -42.29,-463.69l-51.54 -145.85c-114.78,58.2 -72.75,9.69 -103.68,143.92 -3.06,13.3 0.1,143.03 1.54,163.66 44.42,633.89 15.31,431.48 -39.82,1062.02 33.55,34.91 25.58,27.29 73.64,67.22 13.69,11.37 56.15,39.87 76.11,55.07 -75.17,82.57 -123.98,107.06 -136.33,281.05 180.75,-42.73 250.87,-88.02 337.47,-199.52 -69.44,-324.49 -335.49,-236.43 -127.78,-561.27 137.21,56.93 212.44,138.89 282.97,234.29l113.66 -155.86c147.89,286.8 167.8,-19.57 343.92,279.02 -25.76,22.12 -21.91,23.35 -78.33,51.1l-295.01 76.49c98.5,187.68 70.64,-53.1 159.43,198.52 -76.77,63.56 -429.97,245.36 -503.85,271.66 6.57,10.32 17.15,21.83 22.41,29.06l59.83 83.12c83.19,144.84 -44.42,783.06 -98.02,864.62 -202.31,-205.3 5.14,-519.09 -128.9,-701.13 -135.04,150.29 -65.09,387.58 -99.77,617.23 -109.24,-29.9 -71.56,-44.32 -186.12,-129.31l2.67 288.15z"/>
    <path class="fil8" d="M14201.79 7947.27l-21.84 42.54c127.15,73.95 217.37,135.12 290.19,278.16 112.59,221.07 29.83,257.95 280.2,323.15 50.47,-28.8 35.36,-7.91 73.62,-49.14 79.24,-254.13 165.96,-223.44 303.37,-353.32 -3.74,-266.88 -62.65,-434.99 114.85,-578.3l115.27 -239.91c171.76,-117.54 135,13.33 209.36,-195.31l237.56 -988.32c91.18,-471.46 216.1,-848.94 308.33,-1294.71 -296.16,43.68 -281.33,382.02 -362.28,672.42 -93.36,334.92 -225.11,435.87 -299.55,679.7 -132.9,435.25 -55.03,1083.96 -757.26,1269.79 -71.29,-134.52 -71.73,-149.74 -228.47,-229.23 -214.8,106.23 -335.89,338.45 -263.35,662.48z"/>
    <path class="fil8" d="M10811.21 7710.87c-40.97,552.29 -115.61,313.44 -298.01,578.57 366.03,146.11 536.2,542.23 528.87,800.66 -5.85,206.25 7.61,91.36 -50.56,155.61 52.05,99.91 12.56,65.78 123.62,133.15l120.32 -293.66 211.71 77.36c19.85,-67.75 41.73,-179.65 59.18,-221.6 80.24,-192.9 -7.11,-78.67 119.99,-130.18 -66.88,-359.7 -134.1,-1138.34 -295.48,-1389.51 -79.17,40.18 -206.13,-12.19 -369.49,-37.21 -91.28,146.24 10.03,265.23 -150.15,326.81z"/>
    <path class="fil8" d="M16230.29 3967.79l-55.82 606.46c158.21,-105.69 186.22,-322.33 286.84,-581.4 139.15,-358.27 242.06,-156.8 242.54,-567.53 0.31,-275.43 0.09,-543.11 5.6,-818.93 6,-300.94 -38.68,-508.28 216,-618.84l-12.6 185.52 37.6 -175.32c-73.82,-114.54 6.59,-42.7 -122.28,-111.25 -197.09,86.01 -262.48,745.76 -363.62,968.91 -184.6,407.3 -193.51,616.49 -234.26,1112.38z"/>
    <path class="fil8" d="M18896.06 1541.36l-412.21 -114.3c-66.47,38.46 -167.44,213.63 -197.54,283.3 138.67,310.67 351.56,299.18 759.02,294.42 29.02,-109.71 72.39,-155.07 20.24,-250.09 -57.59,-104.91 -87.72,-41.41 -169.51,-213.33z"/>
    <path class="fil8" d="M17202.79 728.4c-72.72,186.82 -161.15,379.59 -160.3,601.02l102.96 -27.18c313.68,-222.61 172.64,103.12 478.55,-59.31 51.4,-207.52 -1.22,-149.15 -96,-274.24l63.77 -78.22 74.48 -209.43c-198.56,0.25 -341.97,-75.4 -463.46,47.36z"/>
    <path class="fil8" d="M17963.86 688.01l1.52 261.02c216.04,59.96 164.05,38.09 274.06,185.83l175.39 -40.97 233.28 -125.35 4.06 -158.14c-406.5,-306.03 -271.08,-182.92 -688.31,-122.39z"/>
    <path class="fil8" d="M9784.27 3600.08l117.8 -164.7c125.97,11.2 228.67,35.71 310.38,80.73l-36.46 162.12c162.33,-40.32 183.77,-240.93 239.35,-389.34 -258.04,43.75 -463.86,-63.52 -626.39,-163.16l-4.68 474.35z"/>
   </g>
   <g>
    <path class="fil9" d="M10362.48 553.63c196.8,-51.6 184.31,-31.89 362.17,13.77 13.6,255.88 -129.67,240.5 -248.33,459.61l-326.73 -48.79 76.65 338.59 -702.04 252.22 -12.08 180.11c389.91,-99.6 129.75,-176.47 583.53,6.62l5.3 320.35c-224.38,146 -356.35,138.35 -530.93,75.44 61.61,666.21 569.35,493.13 743.49,579.13l47.57 -17.59c466.17,-7.25 462.49,-64.11 730.5,-299.25l-7.8 -55.77 49.85 -185.53c-240.22,46.17 -348.76,183.42 -655.87,-54.54 55.89,-276.23 247.85,-548.34 528.71,-324.15l-31.78 79.77c472.5,223.13 69.66,-486.41 36.13,-612.97 627.69,171.07 305.95,660.64 480.18,967.42 38.9,-408.75 162.54,-535.62 23.55,-1234.27 -42.61,-214.15 -71.81,-369.64 -193.97,-498.91 -120.94,-128 -294.92,-210.59 -489.42,-252.04 -39.64,123.78 -81.06,149.74 -209.15,188.89 -58.82,17.97 -109.52,20.84 -160.65,44.84 -84.75,39.78 -51.75,16.67 -98.88,77.05z"/>
    <path class="fil9" d="M7951.36 8110.13c149.1,-131.69 37.47,-168.19 297.76,-221.09 -0.69,825.78 -155.24,652.41 -510.08,582.52l35.09 -90.41c-319.89,68.83 -489.47,-22.84 -642.5,-162.23 -52.36,261.11 -108.83,533.86 -159.51,791.67 -72.61,369.31 -119.43,419.26 -245.71,732.49 -97.79,242.55 -151.52,66.52 -572.98,364.28 -362.5,256.11 -325.53,233.67 -325.53,652.64 139.48,-73.85 227.96,-87.17 244.45,-285.35 739.06,0 627.24,-177.48 1062.31,-445.38 226.45,-139.43 232.63,-160.03 307.4,-466.95 47.4,-194.58 133.48,-445.94 137.74,-636.71 259.94,69.45 89.7,170.17 344.38,244.59 -33.5,-279.24 154.88,-352.35 252.34,-504.72 122.85,-192.05 64.1,-384.79 202.05,-553.82 143.47,-331.24 283.83,-1472.46 141.25,-1755.75 -76.33,-151.61 0.03,-132.01 -151.87,-127.85l-20.24 139.58c-149.36,-25.36 -124.11,-44.86 -246.39,-92.44 121,418.05 351.7,263.69 169.42,938.68 -91.01,336.98 -237.82,562.52 -319.38,896.25z"/>
    <path class="fil9" d="M2405.6 11006.72l52.46 27.79c7.33,4.24 168.58,73.97 259.18,351.26 383.71,1174.35 652.32,1682.4 253.75,2874.94 -61.45,183.83 -105.03,329.89 -199.83,493.08 -193.84,333.72 -212.51,256.08 -324.82,399.66l333.35 19.11c152.28,-593.32 368.43,-71.63 603.18,-1599.67 410.56,370.98 318.39,1081.67 34.26,1509.18l20.38 333.81 173.83 121.57c71.53,-37.1 73.06,13.78 151.89,-240.49 36.42,-117.47 62.85,-200.88 87.64,-317.14 53.13,-249.19 77.71,-500.57 65.89,-754.86 -346.36,-310.69 -72.7,-62.48 -304.11,-759.07 -91.32,-274.93 -195.88,-493.78 -295.11,-764.62 -98.64,-269.24 -166.64,-539.65 -251.38,-808.12 -92.7,-293.69 -202.64,-551.41 -296.3,-823.78 -261.53,-148.94 -99.18,-64.31 -364.26,-62.65z"/>
    <path class="fil9" d="M17439.29 17728.92c20.74,253.88 280.15,831.21 243.07,1221.74 -13.15,138.51 -58.45,193.31 -31.06,319.74 23.39,108 -8.68,26.1 39.63,90.84l-20.45 -169.57 528.2 -6.71c78.01,-157.31 42.11,-287.24 177.67,-282.42 -159.74,-327.81 -268.28,47.66 -387.24,-746.9 -29.3,-195.57 126.08,-895.32 -44.63,-1036.43 -10.76,336.14 -205.41,556.89 -505.19,609.71z"/>
    <path class="fil9" d="M3295.86 2224.65l-524.81 -151.57c-16.02,505.53 155.02,987.09 488.1,1114.51l404.78 69.18 90.78 -118.17c-37.12,-52.5 -5.56,-15.22 -57.23,-67.28 -17.19,-17.3 -36.55,-30.93 -65.46,-59.49 -57.44,-53.38 -57.54,80.02 -50.06,-156.82 3.06,-97 6.52,-64.85 40.35,-120.5 -7.91,-251.25 135.2,-440.9 24.98,-675.64 -223.29,-39.5 -125.37,62.11 -351.43,165.78z"/>
    <path class="fil9" d="M18104.75 10122.66c-54.13,38.44 -48.45,-73.4 -53.49,95.94l364.16 86.54 271.92 -35.08c134.16,-59.39 140.48,-99.41 261.22,-154.1 62.93,-133.73 220.51,-307.41 373.47,-368.76 15.67,-274.85 96.1,-291.53 -159.91,-394.46l-141.98 10.94c-113.44,36.64 -198.63,89.49 -272.37,10.46 -64.09,-68.68 -26.67,-75.29 -48.19,-200.82l-38.04 -153.39 -353.04 30.66c9.32,221.08 12.15,500.4 189.06,648.5l154.79 111.66c6.56,5.2 18.67,14.38 26.62,23.03 -264.61,111.22 -144.35,224.44 -574.22,288.88z"/>
    <path class="fil9" d="M11883.66 9167.5l-69.96 -29.68c-157.24,12.8 -240.47,156.43 -361.03,238.31 -141.92,96.39 -242.77,150.59 -311.8,330.87 445.61,-22.19 465.74,-198.68 706.67,-407.6 321.7,162.7 411.08,814.42 368.19,1245.5 169.61,-251.32 -31.57,-401.92 497.52,-463.22 -25.62,-128.97 -42.05,-126.74 -73.02,-228.06 -51.02,-166.98 -82.63,-328.16 -64.78,-498.84 15.45,-147.79 42.91,-149.58 -18.02,-266.11 -3.55,125.74 21.29,56.12 -47.89,111.67 -61.4,-32.63 -227.31,-121.41 -302.28,-143.25 -283.55,-82.62 -288.89,111.08 -303.53,83.68 -3.88,-7.28 -12.13,18.92 -20.07,26.73z"/>
    <path class="fil9" d="M17824.97 2406.57l-46.98 522.62 151.54 79.44 538.76 89.16c169.34,-199.69 235.01,-355.3 231.4,-693.53l-44.62 11.85c-153.76,68.22 -235.05,138.62 -445.65,95.82 -9.41,-6.54 -21.31,-30.59 -25.59,-23.01 -21.46,37.93 -136.58,-269.36 -358.86,-82.35z"/>
    <path class="fil9" d="M12332.94 10657.69c300.63,77.31 176.96,117.57 597.37,148.08l118.29 20.98c36.5,280.15 -61.75,377.17 72.07,574.35l0 -437.28c74.03,49.61 46.75,34.84 108.92,94.83 114.61,110.56 -12.23,55.47 135.53,108.99l123.87 -243.73c-146.51,-217.3 -371.42,-356.66 -521.81,-571.56 -7.74,134.92 9.27,41.01 -50.22,68.25l-131.78 -217.78c-419.81,91.55 -264.55,180.3 -452.24,454.87z"/>
    <path class="fil9" d="M9127.98 913.72c293.08,-81.29 351.51,40.71 502.98,-177.18 56.71,-81.57 -19.42,-29.91 69.35,-87.71 40.5,-26.39 170.17,-42.53 228.07,-53.54l-35.51 -430.89c91.12,-7.27 181.42,-15.58 272.15,-23.2l286.3 -61.41c-129.71,-28.03 -159.89,-68.15 -217.72,-81.53l-95.57 0c-38.53,5.84 -88.36,17.7 -156.24,37.68 -145.28,42.73 -261.76,106.42 -382.8,189.01 -218.4,149.03 -415.65,398.93 -471.01,688.77z"/>
    <path class="fil9" d="M2876.3 1644.44l8.57 92.97c419.75,-14.65 662.9,-107.21 749.85,-455.26l-416.08 -152.28 33.89 -297.91 -230.85 -66.27c107.88,561.18 -119.57,408.51 -145.38,878.75z"/>
    <path class="fil9" d="M14628.1 6986.41c277.96,65.8 198.64,125.08 319.69,295.1 184.49,-122.83 205.79,-170.5 249,-476.79 32.1,-227.62 60.84,-461.36 101.3,-691.84 -157.54,34.54 -136.9,29.26 -211.23,174.31 -48.79,95.21 -69.87,150.41 -118.25,247.92 -125.08,252.15 -237.12,253.91 -340.51,451.3z"/>
    <path class="fil9" d="M8109.44 19348.57c-34.42,169.83 -81.48,311.15 -81.48,513.13 139.79,107.43 46.13,151.75 244.44,230.02 264.4,-101.92 281.93,-433.13 311.49,-778.96l-474.45 35.81z"/>
    <path class="fil9" d="M11083.58 19253.6c0,373.23 11.08,427.28 -81.49,712.08 205.78,-46.3 412.07,-6.89 502.12,-184.34 70.54,-138.99 109.28,-452.71 4.01,-534.98l-424.64 7.24z"/>
    <path class="fil9" d="M17511.91 4406.34l189.07 38.95 46.65 23.77c227.8,-238.31 158.38,-113.12 110.12,-643.05l261.82 70.3 -33.85 -147.95 -118.2 -97.79 -343.65 126.29c-8.06,518.98 72.17,604.45 -111.96,629.48z"/>
    <path class="fil9" d="M2391.04 6757.19l16.28 44.45 -27.05 289.38 153.2 42.37 122.49 14.75 81.28 -247.45c-154.79,-161.96 -138.4,57.27 -249.97,-222.75l-96.23 79.25z"/>
    <polygon class="fil9" points="1700.92,5898.04 1710.62,5751.61 1389.03,5704.71 1391.9,5906.33 "/>
    <path class="fil9" d="M16646.08 7765.98c192.25,-37.34 220.75,-69.84 196.44,-246.95 -208.02,37.22 -180.56,21.73 -196.44,246.95z"/>
   </g>
   <g>
    <path class="fil10" d="M8632.14 8568.93c-347.24,-7.03 -347.81,45.58 -350.29,397.45l-192.6 103.99c89.19,204.3 60.73,72.6 189.42,218.97l79.64 161.3c312.8,-94.88 373.13,59.62 529.2,197.42 102.64,-41.49 79.73,-31.02 158.99,-96.57l70.84 152.5 214.55 5.76 44.12 -62.84c4.74,-8.13 13.74,-21.73 19.21,-31.6 6.04,-10.88 26.18,-52.03 31.55,-62.8l27.14 -60.77c303.45,3.06 341.81,-11.73 576.93,111.29 172.11,-212.03 -36.84,-178.39 382.12,-248.42 180.16,-30.11 435.63,-60.43 578.55,-108.9 58.17,-64.25 44.71,50.64 50.56,-155.61 7.33,-258.43 -162.84,-654.55 -528.87,-800.66l-107.23 100.37 -21.97 148.3 -257.05 20.63 -30.27 10.56c-133.42,159.89 -537.9,139.14 -689.64,30.71l-75.35 -145.31c-90.68,96.83 -80.36,120 -229.83,130.17 11.01,-312.97 266.69,-608.7 26.12,-841.67l-45.08 123.53c-69.57,301.79 22.4,140.24 -158.62,698.61l-292.14 3.59z"/>
    <path class="fil10" d="M8840.33 5169.08l14.8 795.21 23.93 184.69c175.57,-180.92 20.29,-556.09 197.16,-702.94 -4.77,-196.06 177.07,167.25 214.73,212.19l251.58 -690.13 -475.9 -76.66c-129.61,76.27 -180.24,85.49 -226.3,277.64z"/>
    <path class="fil10" d="M9448.51 7455.35l-162.6 30.87c1.7,369.28 44.1,193.58 226.31,151.92 88.06,-67.52 162.03,-26.59 309.31,-17.49l1.54 -329.73 -374.56 164.43z"/>
    <path class="fil10" d="M11898.41 13167.3c46.12,-110.22 64.78,-257.88 73.51,-377.17 15.45,-211.18 4.51,-255.58 -154.89,-318.75 -36.02,114.43 -44.56,256.56 -54.45,402.9 -14.62,216.16 -79.86,277.92 135.83,293.02z"/>
    <path class="fil10" d="M9410.8 9828.1c61.9,224.97 203.26,236.21 399.95,326.81l19.93 -128.79c111.58,-102.01 42.81,3.35 115.95,-125.98 -178.02,-50.84 -234.31,-20.26 -411.23,3.55l-102.69 -159.22 -21.91 83.63z"/>
   </g>
   <g>
    <path class="fil11" d="M16511.93 14304.81l22.46 653.9c-136.04,122.58 -193.15,26.52 -220.39,220.52l276.15 -22.77 65.57 132.86c174.46,59.49 42.94,135.58 321.72,95.44 54.2,-94.58 0.94,-73.76 54.58,-176.97 145.92,-280.83 125.87,139.21 124.15,-294.89 64.97,59.22 53.21,62.34 160.89,61.53 0.79,-204.7 -16.34,-7.42 81.48,-97.05 0,-274.49 -132.85,-213.68 110.27,-786.7l800.72 -1726.74c92.36,-185.55 106.65,-193.93 69.94,-381.01 -42.02,-23.17 21.63,-72.6 -80.92,7.39 -81.94,63.91 -61.43,183.48 -77.18,277.33 -37.63,224.18 -70.45,159.85 -158.96,338.43 -60.72,122.54 -102.46,257.22 -167.19,363.37 -76.11,124.75 -131.29,136.44 -183.88,305.91 -96.75,311.75 -187.81,398.51 -272.26,746.62 -96.36,397.17 -63.2,-36.61 -338.03,683.64 -58.4,-102.1 -96.84,-328.23 -178.24,-480.66 189.78,-177.52 256.67,-154.91 299.63,-504.83l-181.71 45.52 -202.39 -426.64 228.38 -129.51c44.19,-236.04 -35.33,-282.44 -84.59,-468.18 217.06,-150.62 323.38,-245.59 105.12,-573.13l223.23 -91.42c48.87,-409.21 -52.3,-439.6 88.06,-525.92 144.86,81.16 39.03,93.45 79.56,215.63 24.11,72.69 54.4,57.93 135.05,134.91 -52.36,277.42 -127.65,262.94 -81.11,600.89 103.84,-63.56 9.6,-148.07 138.2,-321.24 155.24,18.31 141.42,42.18 216.17,133.38 147.6,-542.61 470.48,-1109.15 513.32,-1266.99 -235.8,16.1 -235.84,72.83 -430.8,128.5 -248.69,-290.71 -42.83,-243.51 21.76,-451.98 -358.87,-131.46 -380.74,351.65 -707.51,490.15l47.13 250.64c-390.74,129.49 -461.86,833.69 -556.74,1282.54 -88.44,418.4 -254.9,1134.44 -261.64,1557.53z"/>
    <path class="fil11" d="M3911.17 8359.52c42.09,212.89 117.14,497.12 242.34,613.12 337.45,-594.11 426.95,-248.46 475.81,-544.32 41.5,-251.24 -153.78,-604.81 -334.69,-671.06l-16.99 389.29 -366.95 4.25 0.48 208.72z"/>
    <path class="fil11" d="M15357.45 7370.45l-115.27 239.91c264.96,-9.04 514.72,68.56 687.76,214.62 13.21,319.68 -117.91,236.54 -195.62,453.89l144.25 184.08 208.15 -85.64 57.99 -230.67 -8.89 -160.31 -118.76 -39.06c-11.73,-158.53 -32.91,-486.56 -35.33,-616.35 -2.15,-114.26 89.16,-364.21 118.02,-499.02 -361.16,72.33 -225.37,206.98 -290.83,578.51 -235.95,27.22 -241.91,32.97 -451.47,-39.96z"/>
   </g>
   <g>
    <path class="fil12" d="M3421.77 4478.32c404.02,276.58 296.67,735.32 331.47,1299.28 387.61,200.2 36.21,486.75 227.95,1245.44l159.26 -39.7c-105.56,317.68 -11.33,124.12 312.12,546.1 324.4,423.24 141.06,241.94 277.01,735.65l176.14 1.28c206.64,-986.75 -342.06,-363.02 230.58,-1989.77 270.41,-768.18 -5.32,-812.76 -305.39,-1326.28 -92.08,-157.58 -121.25,-294.38 -294.23,-345.99 -159.42,15.98 -80.24,-70.14 -88.68,93.23 149.7,103.32 209.25,97.88 164.24,286.47l-221.17 -21.61c-172.88,89.98 -114.27,7.7 203.42,143.39 100.41,42.88 29.57,-21.21 105.2,69.5 -124.72,182.66 -395.29,-14.84 -544,-119.93 -127.74,-90.28 -351.05,-236.91 -350.04,-427.63l535.65 -11.56c-7.35,-9.53 -21,-33.74 -25.91,-25.48l-188.5 -108.39c-26.91,-366.37 -133.88,-339.22 -187.77,-626.48 -216.64,65.69 -263.84,-103.22 -477.91,-195.51 -17.51,193.43 1,156.5 -132.35,234l251.01 102.24c-42.41,121.42 -97.12,143.49 -189.18,241.16 28.21,203.17 87.53,143.05 31.08,240.59z"/>
    <path class="fil12" d="M18687.34 10270.06c29.75,189.41 -4.66,343.26 -106.25,450.38 -101.66,107.19 -78.23,17.03 -139.01,144.86 -8.44,17.75 -39.96,173.9 -42.35,182.13 -42.84,157.84 -365.72,724.38 -513.32,1266.99 -74.75,-91.2 -60.93,-115.07 -216.17,-133.38 -128.6,173.17 -34.36,257.68 -138.2,321.24 -46.54,-337.95 28.75,-323.47 81.11,-600.89 -80.65,-76.98 -110.94,-62.22 -135.05,-134.91 -40.53,-122.18 65.3,-134.47 -79.56,-215.63 -140.36,86.32 -39.19,116.71 -88.06,525.92l-223.23 91.42c218.26,327.54 111.94,422.51 -105.12,573.13 49.26,185.74 128.78,232.14 84.59,468.18l-228.38 129.51 202.39 426.64 181.71 -45.52c-42.96,349.92 -109.85,327.31 -299.63,504.83 81.4,152.43 119.84,378.56 178.24,480.66 274.83,-720.25 241.67,-286.47 338.03,-683.64 84.45,-348.11 175.51,-434.87 272.26,-746.62 52.59,-169.47 107.77,-181.16 183.88,-305.91 64.73,-106.15 106.47,-240.83 167.19,-363.37 88.51,-178.58 121.33,-114.25 158.96,-338.43 15.75,-93.85 -4.76,-213.42 77.18,-277.33 102.55,-79.99 38.9,-30.56 80.92,-7.39 123.12,-46.48 162.82,-146.7 241.64,-325.81l266.95 -874.29c49.23,-228.44 98.58,-282.25 138.16,-471.23l9.75 -177.78 -87.41 -17.86c-120.74,54.69 -127.06,94.71 -261.22,154.1z"/>
    <path class="fil12" d="M16655.72 15289.32c154.47,545.13 496.55,1133.68 213.39,1748.35 163.53,-55.06 162.76,-107.24 162.76,-326.11 184.19,135.03 7.33,98.62 132.27,560.65 51.09,188.98 116.56,354.88 275.15,456.71 299.78,-52.82 494.43,-273.57 505.19,-609.71 70.06,-300.85 -72.96,-996.31 -129.24,-1232.2 -56.98,-238.78 -137.16,-309.53 -187.74,-505.15 -107.2,-414.45 80.57,-100.01 -166.71,-411.96 -70.34,-88.75 9.34,70.67 -62.25,-92.52 -97.82,89.63 -80.69,-107.65 -81.48,97.05 -107.68,0.81 -95.92,-2.31 -160.89,-61.53 1.72,434.1 21.77,14.06 -124.15,294.89 -53.64,103.21 -0.38,82.39 -54.58,176.97 -278.78,40.14 -147.26,-35.95 -321.72,-95.44z"/>
    <path class="fil12" d="M8208.88 11864.54l71.07 223 -193.39 -34.61 234.54 134.05 -14.36 218.13c-70.25,55.46 -89.49,46.84 -150.56,113.19 -77.25,83.94 -25.15,68.01 -116.33,149.95l-103.66 -544.43 -71.21 -21.38c0,382.26 41.57,599.68 40.8,981.07 -0.81,397.93 -40.8,651.32 -40.8,1019.15l162.98 40.56 87.48 -322.01c23.3,-135.44 -15.04,-38.37 40.73,-122.77 14.67,60.87 -14.49,0.73 7.59,89.47l37.5 111.22c4.35,11.73 10.32,27.86 18.28,40.27l-3.9 -163.12c178.09,15.35 106.02,-0.99 216.34,123.53 162.93,-65.52 192.24,-116.46 410.81,-108.13l0 -177.98 -75.5 77.9c-42.92,-39.62 -77.28,57.96 -21.79,-61.02 -133.92,-62.79 -109.64,-10.88 -151.77,-214.97l-228.26 -27.54c17.07,-56.16 124.73,-165.52 -21.34,-209.74 -202.68,-61.37 -48.15,103.65 -263.85,-20.73 77.63,-185.31 211.75,-220.09 424.02,-262.9 -2.86,35.57 -18.27,160.31 -17.51,190.65l34.96 129.03 35.65 -293.88 -175.9 -163.05c89.67,-35.57 27.23,-1.93 103.26,-23.41 193.17,-54.55 154.99,-54.94 193.53,-181.2 -35.12,-11.9 -91.93,-30.06 -115.76,-47.79 -80.93,-60.24 -3.24,13.16 -63.53,-90.91l307.51 -29.68 -19.48 118.4 79.87 -71.53c-59.79,-125.45 -115.38,-144.32 -106.87,-319.36l42.02 -286.52c124.68,108.83 128.91,310.91 146.05,264.87 2.19,-5.92 10.08,17.82 16.91,25.32 140.65,-164.22 103.85,-275.46 80.74,-506.73l-542.37 -29.04c-127.04,113.86 -114.13,69.22 -164.51,267.61l-129.99 17.06z"/>
    <path class="fil12" d="M16209.56 4716.11l-96.86 176c-92.23,445.77 -217.15,823.25 -308.33,1294.71l-237.56 988.32c-74.36,208.64 -37.6,77.77 -209.36,195.31 209.56,72.93 215.52,67.18 451.47,39.96 65.46,-371.53 -70.33,-506.18 290.83,-578.51 101.39,-156.36 12.97,-152.24 202.49,-234.72 -72.65,-426.69 -220.49,-831.14 -102.51,-1275.85 46.79,-176.36 109.62,-377.13 221.07,-512.12 209.87,-254.23 383.37,-63.4 399.41,-368.9l13.81 -108.3c-46.56,40.64 -554.7,362.64 -624.46,384.1z"/>
    <path class="fil12" d="M10560.01 13041.9l208.78 -10.82c-5.78,183.78 24.11,98.36 -51,196.55l-41.3 89.65c-47.37,144.52 -9.15,167.23 -58.07,321.35l-296.28 -11.4c-39.3,66.16 -77.6,131.59 -98.15,230.85 135.9,151.08 265.75,235.62 496.83,237.48l-19.76 126.09c256.69,44.32 123.21,129.26 205.77,411.11l-141.35 6c10.85,6.58 27.41,2.62 33.18,18.72 11.46,32.01 44.46,25.38 62.14,36.08 44.66,27.03 66.24,37 100.3,64.37 11.45,-389.99 165.03,1.7 90.95,-372.73 -175.79,-888.45 -23.56,-871.4 -46.74,-1302.1 -6.08,-112.9 -20.27,-128.64 -93,-220.39l-352.3 179.19z"/>
    <path class="fil12" d="M15127.33 8188.66c355.11,-159.9 542.23,-37.98 616.08,265.12 -113.9,53.28 -130.05,39.22 -202.34,160.41 200.1,53.4 36.73,68.1 284.55,294.25l24.57 135.49c45.8,34.14 85.35,61.23 131.29,98.19 108.01,-114.91 57.54,-153.55 235.87,-170.58l-225.29 -111.43 94.66 -482.8 -208.15 85.64 -144.25 -184.08c77.71,-217.35 208.83,-134.21 195.62,-453.89 -173.04,-146.06 -422.8,-223.66 -687.76,-214.62 -177.5,143.31 -118.59,311.42 -114.85,578.3z"/>
    <path class="fil12" d="M7979.23 14972.88c160.29,3.62 151.64,9.87 246.21,107.96l18.79 222.62 22.41 -66.79c58.24,-144.88 39.47,-122.2 165.58,-182.71l108.69 353.95 161.65 26.88 -22.54 298.44c5.97,-2.5 93.71,-17.1 122.03,-40.76 0,-328.69 -39.24,-756.82 40.74,-1018.91 -184.54,73.43 -241.2,-29.88 -388.08,-96.86 -137.77,359.53 -318.85,150.55 -475.48,396.18z"/>
    <path class="fil12" d="M7946.47 11166.16c115.96,-119.25 175.76,-180.32 415.07,-132.31l6.46 -160.07 -38.53 -67.12 -187.1 34.48c-9.79,-282.84 92.85,-102.86 -58.76,-326.94l29.97 -120.01 6.39 -37.32 -51.28 0 -40.73 12.02 -122.23 -8.24c-65.39,120.41 -81.49,483.75 -81.49,684.7 182.9,20.02 102.05,-60.92 122.23,120.81z"/>
    <path class="fil12" d="M4645.83 4506.44l245.58 64.41c-20.3,-170.54 -414.26,-654.35 -584.8,-691.06l-103.58 24.06 11.81 317.62c213.98,88.75 341.66,115.87 430.99,284.97z"/>
   </g>
   <g>
    <path class="fil13" d="M19464.84 4630.79c22.53,563.73 85.92,1087.4 312.95,1545.62 563.42,1137.11 473.42,716.83 828.26,955.58 -82.51,342.68 -648.98,84.23 -634.53,815.2 1.25,63.13 15.71,169.83 13.16,219.68 -16.89,330.82 -290.41,157.58 -388.73,29.82l-238.96 7.15 -3.05 0.34c-11.04,7.06 -25.42,14.11 -34.63,18.62l-218.88 85.08c2.36,336.46 29.59,288.36 189.33,477.57 94.08,111.42 139.73,254.34 225.64,418.25l197.95 253.43c172.23,47.06 113.27,193.78 91.21,406.06 141.83,-98.57 100.04,-138.62 235.33,-251.44 525.97,-438.64 718.07,-869.92 779.09,-1666.34l1.87 -24.84 0 -561.87c-24,-113.05 -72.51,-145.5 -132.38,-257.32l-218.92 -759.3c-87.17,-261.45 -162.12,-497.28 -253.96,-724.24 -142.23,-351.47 -388.9,-1140.46 -657.73,-1291.86 -140.85,73.5 -105.83,106.3 -93.02,304.81z"/>
    <path class="fil13" d="M16302.24 6597.18l-0.34 209.36c45.66,466.59 168.85,651.82 657.28,659.22l16.44 -101.04 243.39 55.72c132.45,18.65 214.19,-1.92 329.24,-31.06l70.18 -638.25c-390.2,17.68 -267.85,-37.4 -505.08,217.78 -113,-124.26 -376.75,-547.68 -467.53,-713.19 -180.28,-328.66 -162.44,-564.23 38.36,-818.52l51.26 98.77c95.97,-216.75 57.86,-236.33 301.99,-296.84 57.24,-223.56 99.63,-345.79 77.08,-611.3 -93.76,-125.14 -153.82,-142.81 -294.3,-187.52 -16.04,305.5 -189.54,114.67 -399.41,368.9 -111.45,134.99 -174.28,335.76 -221.07,512.12 -117.98,444.71 29.86,849.16 102.51,1275.85z"/>
    <path class="fil13" d="M18726.77 4117.47c-56.27,569.4 -13.93,1406.57 -220.38,1883.17 -62.19,143.55 -116.21,217.85 -189.76,339.43 -157.23,259.88 -325.05,788.62 -507.97,1067.78 34.55,117.79 -40.08,52.5 78.01,81.39l126.1 18.08 189.88 -379.76 210.34 121.1c119.11,-212.72 145.43,-249.61 367.93,-386.24 347.27,-376.84 471.32,-1803.88 487.14,-2431.01l-4.79 -192.46c-68.21,-45.43 -113.63,-57.48 -189.07,-130.17l-241.92 -23.01 -105.51 31.7z"/>
    <path class="fil13" d="M19391.12 7280.74c126.73,-187.29 13.38,-503.88 167.46,-711.73 -14.88,-489.46 -62.32,36.57 -212.61,-486.96l-89.38 -175.62c-170.87,1196.29 -604.85,1325.78 -701.57,1902.83 569.64,46.45 510.32,-440.62 799.12,-715.96l36.98 187.44z"/>
    <path class="fil13" d="M16649.16 9425.89c118.63,27.99 172.52,68.85 269.28,110.78 170.46,-0.88 58.74,31.66 138.35,-48.59l-223.09 -119.41c311,-168.15 306.69,-45.79 369.89,-521.6 32.66,-245.91 67.89,-529.81 52.72,-778.72 -137.42,57.07 -150.91,109.51 -228.39,242.62 -334.04,573.88 -601.18,370.96 -610.68,755.6l304.26 185.15c-40.04,172.25 25.93,8.65 -72.34,174.17z"/>
    <path class="fil13" d="M9785.75 11123.08l114.69 54.56c47.06,-62.53 45.75,12.96 37.15,-258.32l275.32 9.62 -68.53 -225.78 290.62 50.73 17.87 -238.1c-66.39,-24.34 -108.79,-27.84 -166.3,-55.72l-154.41 -110.15c-77.02,88.79 -46.16,96.5 -189.35,121.08l-68.45 -89.45c-217.18,-27.09 -324.49,-110.23 -446.87,52.34 4.55,3.14 14.76,-5.84 16.59,-0.31 2.03,6.19 15.54,-0.44 18.52,-0.36 278.02,8.22 246.62,-21.66 102.96,427.78 333.63,-66.86 73.86,-174.71 377.25,-301.78 133.93,211.41 -22.7,134.58 -112.54,158.31 -47,185.58 -85.85,194.79 -44.52,405.55z"/>
    <path class="fil13" d="M10142.52 9903.95l158.5 70.41c49.02,222.2 36.19,178.93 -35.04,340.28 326.78,-65.47 224.65,-289.62 195.27,-406.65 -223.81,37.01 -167.66,-12.04 -216.46,-172.65l-57.53 -115.31c-115.06,113.83 -81.76,101.41 -44.74,283.92z"/>
    <path class="fil13" d="M10515.06 10474.65c6.13,7.02 14.15,10.07 16.91,22.21 19.06,83.66 163.34,99.3 233.27,105.85 52.97,-119.42 105.77,-224.55 53.89,-393.39 -84.72,81.96 -157.85,175.45 -304.07,265.33z"/>
    <path class="fil13" d="M10648.44 15733.96c80.64,159.99 0.5,55.34 124.08,188.64 61.57,66.41 74.35,100.7 148.1,170.18 89.28,-95.99 68.17,-76.91 99.23,-207.59 -117.39,-47.48 -203.1,-138.98 -371.41,-151.23z"/>
   </g>
   <g>
    <path class="fil14" d="M10906.79 11765.77c-230.51,-21.92 -307.41,-93.42 -397.32,-262.23l345.03 58.8 52.29 203.43zm-842.93 -394.31c89.46,-79.67 123.14,-77.74 240.29,-111.44l49.53 244.74c-226.6,-8.93 -217.56,24.14 -289.82,-133.3zm451.2 -896.81c146.22,-89.88 219.35,-183.37 304.07,-265.33 51.88,168.84 -0.92,273.97 -53.89,393.39 -69.93,-6.55 -214.21,-22.19 -233.27,-105.85 -2.76,-12.14 -10.78,-15.19 -16.91,-22.21zm-53.81 -566.66c29.38,117.03 131.51,341.18 -195.27,406.65 71.23,-161.35 84.06,-118.08 35.04,-340.28l-158.5 -70.41c-37.02,-182.51 -70.32,-170.09 44.74,-283.92l57.53 115.31c48.8,160.61 -7.35,209.66 216.46,172.65zm-1129.36 -198.24l78.91 118.35 21.91 -83.63 102.69 159.22c176.92,-23.81 233.21,-54.39 411.23,-3.55 -73.14,129.33 -4.37,23.97 -115.95,125.98l-19.93 128.79 250.16 156.69c-91.45,74.98 -64.22,72.22 -186.55,69.95l68.45 89.45c143.19,-24.58 112.33,-32.29 189.35,-121.08l154.41 110.15c57.51,27.88 99.91,31.38 166.3,55.72l-17.87 238.1 -290.62 -50.73 68.53 225.78 -275.32 -9.62c8.6,271.28 9.91,195.79 -37.15,258.32l-114.69 -54.56c-26.69,14.62 -59.92,57.38 -87.18,85.33 20.08,51.72 99.51,40.76 -40.95,40.76 -60.92,87.71 -5.96,53.67 -122.22,81.53 203.54,424.44 23.66,666.1 325.73,856.05 -16.8,-131.43 -41.01,-44.77 112.34,-168.61 68.23,-55.1 105.41,-99.95 228.76,-129.81 123.55,-235.26 457.6,-259.96 611.69,-2.18 197.52,330.47 -16.1,574.89 -98.1,808.2l-242.98 -140.72c66.33,-178.67 166.79,-129.76 369.52,-199.51 -157.91,-186.07 -39.17,-93.65 -120.39,-308.7l-20.02 172.28c-208.33,-228.08 -41.75,-195.9 -223.28,-191.22 -220.18,5.67 -54.52,130.7 -76.32,269.87 -14.56,92.95 -70.27,150.81 -136.73,182.87 197.83,396.19 -106.28,228.14 -1.51,443.7 14.61,30.03 53.72,49.87 102.75,111.61l-261.08 51.14c-92.17,-143.61 -261.46,-477.88 -246.3,-659.87 -44.64,-109.14 -29.11,-65.08 1.65,-198.29 -5.97,2.49 -93.71,17.1 -122.02,40.76 0,134.66 -10.12,314.55 4.55,443.75 15.51,136.69 65.13,224.92 76.93,381.61 131.25,149.85 148,7.44 311.64,166.22 49.7,48.23 35.49,33.74 72.06,109.05 -30.36,14.59 75.79,68.16 -127.12,30.35 -199.97,-37.27 -106.99,-268.96 -219.45,-111.87 4.19,121.75 -2.58,249.14 3.53,367.82 9.3,180.75 36.31,141.9 40.82,305.36l194.25 113.03c-87.96,74.46 -96.15,32.56 -147.69,151.37l43 173.32 400.64 4.12 -46.18 -133.06 290.4 71.43 64.57 -119.12 19.76 -126.09c-231.08,-1.86 -360.93,-86.4 -496.83,-237.48 20.55,-99.26 58.85,-164.69 98.15,-230.85l296.28 11.4c48.92,-154.12 10.7,-176.83 58.07,-321.35l41.3 -89.65 -82.37 0.81c-125.63,144.66 -69.29,140.94 -222.23,117.59 -41.11,-186.01 1.89,-264.63 146.82,-304.13l352.3 -179.19c136.85,3.92 103.36,-421.62 122.51,-715.56 18.76,-287.93 33.01,-569.42 59,-856.23 24.48,-270.17 71.39,-565.09 6.93,-835.04 -53.79,-225.26 -96.79,-130.4 -32.6,-358.82 49.26,-175.33 46.32,-206.06 57,-397.83 -22.19,-170.76 -64.19,-129.84 -10.02,-320.37 -111.06,-67.37 -71.57,-33.24 -123.62,-133.15 -142.92,48.47 -398.39,78.79 -578.55,108.9 -418.96,70.03 -210.01,36.39 -382.12,248.42 -235.12,-123.02 -273.48,-108.23 -576.93,-111.29l-27.14 60.77c-5.37,10.77 -25.51,51.92 -31.55,62.8 -5.47,9.87 -14.47,23.47 -19.21,31.6l-44.12 62.84z"/>
    <path class="fil14" d="M1924.09 10270.83c250.36,0 172.89,38.08 359.29,81.52l0 611.47c53.87,30.29 46.09,22.7 122.22,42.9 265.08,-1.66 102.73,-86.29 364.26,62.65 167.49,59.21 260.64,141.3 406.8,182.2 268.29,75.09 276.28,-14.9 446.44,-86.54 159.66,-67.22 901.49,-58.77 1145.52,-65.76 71.71,48.59 40.74,39.5 40.74,-53.71 -195.44,41.03 -393.75,70.93 -562.96,-11.67 -363.37,-177.37 -852.07,239.41 -1469.29,-163.29l31.96 -432.76c-497.49,-32.95 -347.12,72.97 -459.7,-350.56 -54.25,31.03 -117.54,59.84 -193.26,84.13l-232.02 99.42z"/>
    <path class="fil14" d="M938.9 6247.7c-134.56,70.82 -239.39,327.05 -291.2,470.65 -79.48,220.31 -116.21,344.02 -116.21,658.22 91.72,21.39 90,31.18 196.4,40.77l-36.55 -375.74 179.9 -114 -60.19 -327.09c120.26,-23.6 175.13,-75.26 281.88,-64.66 11.25,1.12 41.25,12.01 51.96,14.72 103.22,26.05 204.66,43.32 348.13,-4.8 335.38,-112.51 76.97,-350.82 74.38,-595.03 -208.37,158.26 0.87,81.97 -336.76,130.3 -184.83,26.46 -170.2,63.07 -291.74,166.66z"/>
    <path class="fil14" d="M5512.46 8314.16c130.61,-59.09 93.08,9.46 144.9,-133.98 67.19,-185.95 -35.22,-1046.47 -33.98,-1210.41 2,-265.59 41.78,-362.03 -112.17,-490.01l42.13 580.13c-158.95,-216.34 42.31,-348.56 -173.6,-539.15 -148.33,127.12 -39.58,211.77 14.98,407.43 -6.95,8.18 -18.53,9.1 -22.33,23.17 -3.78,13.92 -17.35,17.97 -22.66,22.37 -5.21,4.34 -16.76,15.76 -23.31,20.83l-157.82 88.98 81.21 567.61c267.32,191.25 400.32,190.41 262.65,663.03z"/>
    <path class="fil14" d="M10811.21 7710.87c160.18,-61.58 58.87,-180.57 150.15,-326.81 163.36,25.02 290.32,77.39 369.49,37.21 -0.65,-268.17 -73.45,-565.26 -206.52,-746.36 -406.07,206.04 -356.51,564.15 -313.12,1035.96z"/>
    <path class="fil14" d="M16952.43 4188.37c184.27,-7.4 251.56,36.26 381.69,76.44 139.45,-131.49 19.9,-402.88 -47.47,-602.69l-26.66 -72.69c-3.72,-10.17 -9.56,-25.06 -15.02,-37.3l5.7 332.57 -257.73 105.35 -40.51 198.32z"/>
    <path class="fil14" d="M2978.72 7836.35c251.83,47.67 233.7,-8.46 404.68,-123.09l157.37 114.13 -66.5 -404.98c-156.64,47.45 -101.29,99.87 -277.96,175.78 -207.63,89.22 -209.72,-10.52 -217.59,238.16z"/>
    <path class="fil14" d="M17642.51 446.67c101.54,95.48 211.75,107.4 364.31,40.77l46.26 -168.12c-227.11,-5.54 -305.52,-4.82 -410.57,127.35z"/>
   </g>
   <g>
    <path class="fil15" d="M3611.34 15537.45c159.96,53.2 729.43,-7.81 902.82,-89.57 -128.08,-267.8 -30.4,-799.06 4.07,-1106.59 49.02,-437.44 -57.75,-772.65 -127.89,-1123.84 -78.39,-392.6 -7.45,-778.83 97.76,-1107.56 95.23,-297.55 280.52,-634.18 280.52,-1010.62 -244.03,6.99 -985.86,-1.46 -1145.52,65.76 -170.16,71.64 -178.15,161.63 -446.44,86.54 -146.16,-40.9 -239.31,-122.99 -406.8,-182.2 93.66,272.37 203.6,530.09 296.3,823.78 84.74,268.47 152.74,538.88 251.38,808.12 99.23,270.84 203.79,489.69 295.11,764.62 231.41,696.59 -42.25,448.38 304.11,759.07 11.82,254.29 -12.76,505.67 -65.89,754.86 -24.79,116.26 -51.22,199.67 -87.64,317.14 -78.83,254.27 -80.36,203.39 -151.89,240.49z"/>
    <path class="fil15" d="M17591.77 890.47l173.46 -10.76c72.76,146.95 162.53,339.82 141.97,478.43 -13.33,89.87 -98.72,398.33 -125.6,491.74l-172.23 23.37 -4.04 212.04 -51.44 231.65 -158.89 47.17c168.86,93.03 225.65,62.91 429.97,42.46 222.28,-187.01 337.4,120.28 358.86,82.35 4.28,-7.58 16.18,16.47 25.59,23.01 -45.9,-197.95 -74.59,-302.42 168.41,-321.58 209.86,-16.55 241.72,50.39 277.24,225.76l44.62 -11.85c90.52,-98.18 43.14,-70.09 174.14,-118.13 138.41,-87.61 155.91,-17.92 163.41,-15.7 145.35,293.87 220.73,1442.74 246.44,1866.26l-209.48 -27.91c75.44,72.69 120.86,84.74 189.07,130.17l4.79 192.46c149.65,-118.32 51.15,-200.14 130.33,-106.66 51.78,61.14 23.47,216.35 27.11,306.04l39.34 0c-12.81,-198.51 -47.83,-231.31 93.02,-304.81l0 -251.3c-160.12,-3.57 -95.56,11.15 -203.72,-40.77 0,-1176.26 -353.4,-1615.98 -133.26,-2171.55 121.46,-306.54 11.04,-439.21 11.04,-739.09 -134.29,-92.36 -62.51,-94.46 -216.9,-128.96l-178.37 -8.24c18.48,198.79 228.02,401.94 59.41,555.29 81.79,171.92 111.92,108.42 169.51,213.33 52.15,95.02 8.78,140.38 -20.24,250.09 -407.46,4.76 -620.35,16.25 -759.02,-294.42 30.1,-69.67 131.07,-244.84 197.54,-283.3 -134.5,-157.8 -121.56,-93.83 -69.02,-333.17l-175.39 40.97c-110.01,-147.74 -58.02,-125.87 -274.06,-185.83l-1.52 -261.02 -297.61 -6.97 -74.48 209.43z"/>
    <path class="fil15" d="M8367.95 6228.06c151.9,-4.16 75.54,-23.76 151.87,127.85 142.58,283.29 2.22,1424.51 -141.25,1755.75 -11.5,73.16 -21.08,45.51 -5.13,121.86 4.14,19.77 -124.66,-67.56 63.9,140.34l-2.67 -288.15c114.56,84.99 76.88,99.41 186.12,129.31 34.68,-229.65 -35.27,-466.94 99.77,-617.23 134.04,182.04 -73.41,495.83 128.9,701.13 53.6,-81.56 181.21,-719.78 98.02,-864.62l-59.83 -83.12c-5.26,-7.23 -15.84,-18.74 -22.41,-29.06 73.88,-26.3 427.08,-208.1 503.85,-271.66 -88.79,-251.62 -60.93,-10.84 -159.43,-198.52l295.01 -76.49c56.42,-27.75 52.57,-28.98 78.33,-51.1 -176.12,-298.59 -196.03,7.78 -343.92,-279.02l-113.66 155.86c-70.53,-95.4 -145.76,-177.36 -282.97,-234.29 -207.71,324.84 58.34,236.78 127.78,561.27 -86.6,111.5 -156.72,156.79 -337.47,199.52 12.35,-173.99 61.16,-198.48 136.33,-281.05 -19.96,-15.2 -62.42,-43.7 -76.11,-55.07 -48.06,-39.93 -40.09,-32.31 -73.64,-67.22 55.13,-630.54 84.24,-428.13 39.82,-1062.02 -1.44,-20.63 -4.6,-150.36 -1.54,-163.66 30.93,-134.23 -11.1,-85.72 103.68,-143.92l51.54 145.85c23.64,155.87 -45.88,348.42 42.29,463.69l-14.8 -795.21 -158.08 -11.37c-57.41,129.66 32.64,49.32 -83.91,101.12 -205.22,-301.83 -13.36,-619.54 -108.81,-973.66 -70.15,122.23 -24.24,310.43 -39.03,483.47 -12.93,151.44 -62.14,292.25 -78.63,463.31 -33.39,346.33 37.51,657.92 -3.92,996.11z"/>
    <path class="fil15" d="M10974.69 1873.62c-238.72,40.58 -72.34,-0.52 -135.35,71.92l173.52 3.43 67.73 169.82c77.46,10.85 68.43,-13.47 53.04,53.75l-49.85 185.53 233.65 -47.39 30.99 337.22 -156.98 35.26c-3.16,0.78 -13.83,2.03 -19.69,5.54 145.21,162.14 257.13,105.02 314.34,183.28 53.52,115.66 51.58,314.46 105.99,449.16 137.2,339.67 288.38,351.39 272.52,919.09 -10.91,390.25 -39.69,202.52 -192.95,405.14 54.16,208.4 101.73,430.45 152.91,646.3 50.78,214.12 86.6,519.38 196.08,652.72 0,-706.62 3.96,-1429.36 -39.31,-2074.96 -24.28,-362.24 -79.32,-619.12 -154.94,-904.85 -65.93,-249.13 -232.56,-507.48 -335.39,-736.51 -174.23,-306.78 147.51,-796.35 -480.18,-967.42 33.53,126.56 436.37,836.1 -36.13,612.97z"/>
    <path class="fil15" d="M15728.14 4739.87c86.12,-65.67 66.08,-39.25 136.38,-163.29 39.3,-69.33 73.36,-152.88 102.77,-222.21 92.57,-218.19 82.41,-287.18 263,-386.58 40.75,-495.89 49.66,-705.08 234.26,-1112.38 101.14,-223.15 166.53,-882.9 363.62,-968.91 128.87,68.55 48.46,-3.29 122.28,111.25l142.65 -25.23c0.61,54.34 -4.41,92.26 9.41,145.98 47.97,186.52 9.81,68.21 68.96,135.96l1.3 -225.67 98.4 -29.73 -194.62 -194.98c22.47,-169.52 23.96,-134.16 78.95,-262.69 44.81,-104.75 117.07,-154.07 -10.05,-239.15l-102.96 27.18c-0.85,-221.43 87.58,-414.2 160.3,-601.02l-252.41 3.67c-143.03,164.5 -215.62,774.41 -301.66,1002.56 -473.21,1254.81 -241.93,683.12 -611.31,1997.26 -102.7,365.34 -309.27,695.55 -309.27,1007.98z"/>
    <path class="fil15" d="M2446.34 15153.45l-40.74 32.34 377.09 8.16c515.77,-73.75 298.47,-285.23 660.75,-410.93l-26.31 299.05c284.13,-427.51 376.3,-1138.2 -34.26,-1509.18 -234.75,1528.04 -450.9,1006.35 -603.18,1599.67l-333.35 -19.11z"/>
    <path class="fil15" d="M9069.8 2149.27c181.47,17.34 242.92,20.13 369.51,131.79l-99.6 314.53 219.71 -8.75c-54.72,-207.4 -122.6,-455.93 80.04,-565.2 -65.74,-77.97 -56.44,-60.33 -86.12,-198.06 83.01,7.33 177.31,13.33 259.58,26.29l153.89 63.47 -28.29 142.49 -162.37 -16.28c99.16,123.67 154.2,57.06 324.8,36.56l-5.3 -320.35c-453.78,-183.09 -193.62,-106.22 -583.53,-6.62l12.08 -180.11 42.65 -166.07 -324.08 28.8c-27.26,36.46 -164.06,257.24 -182.61,338.38 -50.2,219.47 109.2,82.24 9.64,379.13z"/>
    <path class="fil15" d="M4349.21 9210.04c-105.68,187.89 -234.88,243.66 -323.33,461.57 161.45,94.26 368.67,132.04 520.38,250.67l-96.14 211.09c246.27,-85.77 305.68,-184.42 372.56,-480.98 -474.22,-253.78 -158,-555.35 -9.01,-938.23l-411.98 136.5c36.89,218.99 67.86,44.37 95.1,287.74l-147.58 71.64z"/>
    <path class="fil15" d="M9784.27 3600.08c-10.77,218.65 -121.74,527.71 -217.04,673.29 -282.94,158.6 -247,68.81 -348.01,466.05 131.37,-80.31 76.16,-119.82 316.2,-138.15l-1.69 342.19c201.33,-188.15 133.46,-301.25 52.81,-540.02 361.51,-261.85 360.09,-518.19 589.45,-725.21l36.46 -162.12c-81.71,-45.02 -184.41,-69.53 -310.38,-80.73l-117.8 164.7z"/>
    <path class="fil15" d="M19322.03 9747.2c-152.96,61.35 -310.54,235.03 -373.47,368.76l87.41 17.86 -9.75 177.78c289.17,-65.87 631.77,-240.56 778.34,-448.41 22.06,-212.28 81.02,-359 -91.21,-406.06l-3.98 112.03c-306.06,74.2 -63.95,112.66 -314.49,266.43 -69.69,-47.88 -33.52,56.97 -72.85,-88.39z"/>
    <path class="fil15" d="M3238.41 3494.35c89.52,66.97 134.79,102.79 222.8,165.98 214.07,92.29 261.27,261.2 477.91,195.51l26.89 -105.93 -111.16 31.99 38.38 -533.48 -229.3 8.35 -404.78 -69.18 -20.74 306.76z"/>
    <path class="fil15" d="M15160.49 8962.67l20.47 126c-34.87,217.89 -17.16,94.5 58.28,81.73 112.92,46.3 581.22,116.04 740.21,129.37l2.03 -157.65c-45.94,-36.96 -85.49,-64.05 -131.29,-98.19 -262.29,-13.03 -329.49,-118.34 -417.64,-314.5l-187.37 -6.8c25.16,98.57 30.46,89.38 71.51,169.63l-156.2 70.41z"/>
    <path class="fil15" d="M17929.53 3008.63l-151.54 -79.44 -357.61 4.68c15.03,282.32 110.96,348.73 385.58,373.09 62.9,-59.35 102.01,-109.74 159.27,-169.86l-35.7 -128.47z"/>
    <path class="fil15" d="M10361.08 2713.09l-47.57 17.59 -344.84 -2.3c17.4,340.03 312.82,495.12 609.83,70.46 -71.4,-36.35 -56.19,-14.58 -106.52,-33.5 -120.34,-45.22 -33.74,10.96 -110.9,-52.25z"/>
   </g>
   <g>
    <path class="fil16" d="M16065.5 10107.98c-89.48,189.19 43.64,5.7 -77.87,83.23 -185.37,118.27 -149.04,-46.44 -238.45,99.41 -41.72,68.06 -18.13,1204.61 -2.5,1325.43 -38.8,219.66 9.41,1244.48 45.75,1484.71 67.05,443.27 32.35,1061.47 57.73,1532.03 9.52,176.51 31.85,149.4 41.12,325.73 54.95,1044.22 12.24,693.43 227.29,1770.04l139.2 659.79 86.48 121.78 239.14 18.53 76.82 153.28 156.84 -67.91 22.66 103.7 69.93 -1.73c15.63,-5 82.69,-15.61 122.23,-26.09l-81.62 -487.51c-46.4,-186.69 58.08,-32.23 -81.14,-164.73 283.16,-614.67 -58.92,-1203.22 -213.39,-1748.35l-65.57 -132.86 -276.15 22.77c27.24,-194 84.35,-97.94 220.39,-220.52l-22.46 -653.9c-45.1,57.21 -16,-1.94 -42.07,92.48 -40.56,146.95 7.91,179.8 -49.12,314.49 -81.95,-109.84 -42.17,-171.59 -34.77,-364.53 -116.12,-51.66 -283.72,58.9 -147.12,-469.59 59.4,-229.8 105.09,-269.43 309.38,-334.15 -42.22,-107.35 -107.84,-167.03 -129.55,-266.59 -73.27,-336.2 268.5,-248.91 98.67,-527.42 -65.19,-106.9 -115.37,-71.85 -175.79,-161.73 126.56,-104.42 136.66,-176.93 270.63,-285.09 -132.16,-312.18 -77.25,-371.55 -63.9,-727.79 -174.77,20.36 -119.17,-4.02 -207.11,94.46l-59.48 -832.8 436.99 99.28 413.41 -788.01 103.48 238.19c825.77,-60.76 632.19,-571.64 615.68,-851.23 -178.85,37.41 -275.48,26.71 -411.97,120.61 -209.96,-117.95 126.61,-110.32 -210.96,-96.07 -153.62,6.49 -198.64,52.95 -309.89,-22.65 -96.76,-41.93 -150.65,-82.79 -269.28,-110.78l-41.19 -1.1c-113.52,320.02 -58.35,392.6 -430.94,425.69l8.89 359.11 -120.42 -101.61z"/>
    <path class="fil16" d="M1607.65 7568.39c-24.45,-307.5 -363.71,-365.67 -215.22,-631.12 37.89,-67.74 399.23,-463.7 446.66,-501.64l-49.29 1080.48 -182.15 52.28zm471.81 -3208.36c10.44,184.59 161.01,198.02 230.61,326.11l-178.6 465.21 127.19 -24.33c60.57,284.2 93.64,306.28 422.64,224.82 -2.08,20.53 -181.54,644.28 -194.22,675.51l-211.3 -99.82c-116.46,52.41 -24.77,9.29 -111.03,156.14 -99.19,-435.33 -116.83,-227.99 -371.76,-414.71 9.26,157.86 45.26,197.48 -92.07,229.08l-133.52 52.7c2.59,244.21 261,482.52 -74.38,595.03 -143.47,48.12 -244.91,30.85 -348.13,4.8 -10.71,-2.71 -40.71,-13.6 -51.96,-14.72 -106.75,-10.6 -161.62,41.06 -281.88,64.66l60.19 327.09 -179.9 114 36.55 375.74c25.26,159.39 -8.67,80.12 88.78,181.93l426.42 -177.67 -58.59 415.1c108.39,-55.41 81.99,-35.77 164.29,-134.22 57.32,-68.57 56.3,-87.69 119.76,-149.66l139.1 15.57 55.98 31.22c5.64,2.47 82.71,32.96 85.97,33.89 51.43,14.67 82.73,20.77 148.69,22.27 23.24,-252.08 69.89,-470.46 71.68,-727.33 1.8,-256.13 -25.31,-503.63 6.59,-759.64 81.13,232.36 59.23,706.17 237.17,866.13l12.24 -106.76c80.18,58.02 88.48,60.52 105.37,150.34l75.98 -276.87 -16.28 -44.45c39.96,-276.45 141.82,-775.41 449.97,-633.75 -219.7,472.7 89.74,269.83 121.29,624.35 135.51,-125.46 150.68,-337.91 139.32,-553.32 -17.41,-329.94 50.87,-340.1 74.1,-609.85 -304.86,110.43 -138.23,223.13 -500.45,294.27 126.02,-354.49 338.29,-238.12 234.24,-843.2 -25.82,123.88 -95.91,195.27 -195.17,257.93l-19.22 -445.56c71.42,-63.28 87.51,-52.85 185.53,-11.05 -6.69,-242.15 -28.46,-371.93 -137.95,-516.65 -247.53,-29.1 -346.99,29.46 -582.51,47.24 37.32,-621.91 265.05,-770.64 208.83,-1515.85 -61.15,-810.72 -35.47,-861.63 234.66,-1482.45 -118.47,16.72 -61.06,20.12 -119.36,-27.39l133.05 -281.39 -211.77 -51.15c-280.17,242.36 -426.13,959.04 -408.77,1517.59 8.72,280.4 80.92,607.42 84.46,893.86 3.24,261.73 -61.59,784.4 -1.83,939.21z"/>
    <path class="fil16" d="M8039.93 16530.65c-20.75,-134.36 20.91,-159.4 146.85,-189.12 22.05,164.53 -0.6,106.69 -24.2,197.28l-122.65 -8.16zm-11.97 -2387.43c-114.61,60.81 -149.5,164.31 -162.98,326.31 199.27,-133.5 96.32,-203.82 407.42,-203.82 -125.22,171 -222.32,17.97 -356.02,296.02 -75.94,157.92 -130.31,383.55 -56.42,600.8l-32.03 167.86c221.95,59.46 233.09,140.61 414.75,186.69 218.45,55.38 290.9,30.27 270.04,308.6l-321.8 -44.94c-63.3,-99.69 -91.84,-347.61 -366.68,-62.53 -28.86,70.98 -32.19,77.83 -40.73,178.08 216.31,-57.8 146.67,-229.92 285.18,-40.77 -208.42,17.35 -55.16,30.97 -244.45,81.52 0,303.33 -51.09,553.43 111.4,733.77l10.83 78.76c304.93,28.22 476.23,95.04 456.8,447.14 -126.64,-104.78 -95.47,-138.79 -167.2,-204.69 -79.37,-72.94 -138.21,-63.95 -258.67,-72.36l42.35 403.37c-84.84,273.77 41.82,691.46 50.28,977 5.11,172.75 -10.78,360.09 -1.54,531.48 10.44,193.43 40.95,272.1 40.95,517.06l474.45 -35.81c134.09,-131.03 111.6,-61.08 102,-318.4 -10.98,-189.98 -44.87,-200.07 -48.45,-368.02 -4.55,-211.97 52.47,-196.08 41.57,-403.02 -13.52,-256.75 -71.22,-471.36 -22.86,-801.68 47.88,-327.03 148.83,-1364.74 23.87,-1688.41l22.54 -298.44 -161.65 -26.88 -108.69 -353.95c-126.11,60.51 -107.34,37.83 -165.58,182.71l-22.41 66.79c-88.89,-56.4 -222.15,-262.87 -265,-330.58 156.63,-245.63 337.71,-36.65 475.48,-396.18 146.88,66.98 203.54,170.29 388.08,96.86 0,-214.26 30.47,-222.83 41,-407.56 5.28,-92.44 22.18,-398.16 -41,-474.32 -218.57,-8.33 -247.88,42.61 -410.81,108.13l-37.72 94.68 -174.72 -55.09c-7.96,-12.41 -13.93,-28.54 -18.28,-40.27l-37.5 -111.22c-22.08,-88.74 7.08,-28.6 -7.59,-89.47 -55.77,84.4 -17.43,-12.67 -40.73,122.77l-87.48 322.01z"/>
    <path class="fil16" d="M8775.68 11136.84c157.88,11.64 340.4,126 107.85,252.59 -59.07,-52.49 -65.75,12.36 -107.85,-252.59zm-122.22 -362.45c95.22,-36.81 154.15,-50.11 228.96,-98.97 103.43,-67.56 42.97,-119.74 206.01,-37.71 -78.48,174.81 -72.32,82.32 -160.58,166.8 -84.86,81.24 -38.12,95.94 -126.41,190.84 -111.16,-79.85 -94.89,-71.53 -147.98,-220.96zm263.45 -561.24l249.7 170.62c-97.81,93.55 -183.59,99 -351.69,128.92l101.99 -299.54zm-352.32 -20.32l-107.82 265.55c136.42,21.48 246.65,33.85 345.47,97.79 -27.87,29.56 -3.26,56.74 -126.63,75.59 -300.23,45.85 -155.6,-173.92 -407.98,-353.52 -63.43,5.45 -2.99,-25.32 -94.03,16.24 -91.59,41.81 -6.72,-13.53 -53.63,62.39l-6.39 37.32 154.77 -36.6 23.86 260.29c36.48,16.93 51.61,19.9 83.46,41.09 63.03,41.95 34.75,28.09 69.53,62.06l-115.73 85.63 38.53 67.12c135.94,-40.78 165.58,-33.8 230.23,90.04 -46.17,62.65 72.86,22.86 -111.9,82.98 52.34,252.71 108.11,65.32 132.7,253.09 12.65,96.62 -62.88,115.74 -115.65,279.98l542.37 29.04c23.11,231.27 59.91,342.51 -80.74,506.73 -6.83,-7.5 -14.72,-31.24 -16.91,-25.32 -17.14,46.04 -21.37,-156.04 -146.05,-264.87l-42.02 286.52c-8.51,175.04 47.08,193.91 106.87,319.36l-79.87 71.53 -108.74 49.98c-38.54,126.26 -0.36,126.65 -193.53,181.2 -76.03,21.48 -13.59,-12.16 -103.26,23.41l175.9 163.05 -35.65 293.88c13.21,2.77 50.61,5.88 55.58,7.17 4.44,1.13 18.85,4.93 23.47,6.25l52.04 18.81c122.93,292.78 131.48,106.47 92.66,383.97 -55.49,118.98 -21.13,21.4 21.79,61.02l75.5 -77.9 131.79 -112.28c-42.37,-151.1 -5.82,-29.1 -56.22,-126.59 -68.86,-133.21 -7.52,59.88 -75.57,-128.22 58.9,-67.8 105.7,-117.15 148.11,-218.68 44.15,-105.68 50.68,-167.82 73.32,-293.52 42.97,-238.69 79.27,-437.71 104.62,-669.83 66.21,-606.41 67.34,-719.43 203.6,-1304.58l81.47 0c18.59,223.45 81.49,213.79 81.49,529.93 54.9,-30.86 45.02,-22.27 122.22,-40.76 32.98,-54.41 -46.7,-40.76 40.95,-40.76 27.26,-27.95 60.49,-70.71 87.18,-85.33 -41.33,-210.76 -2.48,-219.97 44.52,-405.55 89.84,-23.73 246.47,53.1 112.54,-158.31 -303.39,127.07 -43.62,234.92 -377.25,301.78 143.66,-449.44 175.06,-419.56 -102.96,-427.78 -2.98,-0.08 -16.49,6.55 -18.52,0.36 -1.83,-5.53 -12.04,3.45 -16.59,0.31 122.38,-162.57 229.69,-79.43 446.87,-52.34 122.33,2.27 95.1,5.03 186.55,-69.95l-250.16 -156.69c-196.69,-90.6 -338.05,-101.84 -399.95,-326.81l-78.91 -118.35 -214.55 -5.76 -70.84 -152.5c-79.26,65.55 -56.35,55.08 -158.99,96.57 -156.07,-137.8 -216.4,-292.3 -529.2,-197.42l-79.64 -161.3c-115.38,-1.63 -243.68,15.05 -188.06,140.95 94.11,213.04 712.72,343.2 749.01,355.46 -137.54,209.5 -477.43,149.92 -777.07,147.34 62.37,271.15 144.22,194.63 369.36,223.71l132.68 36.03z"/>
    <path class="fil16" d="M10648.44 15733.96c168.31,12.25 254.02,103.75 371.41,151.23 -31.06,130.68 -9.95,111.6 -99.23,207.59 -73.75,-69.48 -86.53,-103.77 -148.1,-170.18 -123.58,-133.3 -43.44,-28.65 -124.08,-188.64zm-53.76 -734.48c-19.41,233.3 -79.34,160.77 -244.45,122.29 35.28,-30.69 8.35,-22.79 94.68,-68.32 80.42,-42.41 62.46,-33.63 149.77,-53.97zm-202.41 -597.08c118.97,96.4 249.06,148.99 230.86,339.1 -294.95,9.53 -21.45,-238.28 -579.48,-242.26l17.01 255.65 207.52 494.01c94.3,217.83 283.51,775.51 315.85,1024.91 26.78,206.36 22.67,280.32 61.28,468.63 26.67,130.02 57.17,281.2 95.86,434.01 88.39,349.09 138.7,534.16 138.7,961.87 30.74,25.67 99.15,33.06 122.03,40.75l-59.75 -610.19c142.98,-60.06 335.34,-113.98 461.08,-166.3 -52.94,-563.85 34.2,-522.14 -11.43,-1293.44l-261.31 60.04 38.32 -185.67 176.66 -1.72 147.3 16.79c8.19,4.3 26.25,12.69 38.97,19.79 -3.06,-191.65 -44.47,-330.79 -81.49,-488.06 -24.75,-22.82 -53.43,-48.58 -74.07,-74.05 -189.37,190.3 -45.21,394.96 -433.38,331.2 62.8,-261.56 87.05,-87.08 211.15,-233.65 91.16,-107.64 -22.88,-184.14 -111.11,-219.32 -194.42,94.85 -121.02,155.2 -203.71,316.32 -148.37,-28.88 -157.68,-53.37 -293.44,-141.45l334.31 -141.18c-16.91,-318.42 -222.97,-373.51 319.77,-248.54l20.35 -223.74c-176.71,-4.34 -195.8,9.34 -259.02,-137.97 -34.06,-27.37 -55.64,-37.34 -100.3,-64.37 -17.68,-10.7 -50.68,-4.07 -62.14,-36.08 -5.77,-16.1 -22.33,-12.14 -33.18,-18.72l-26.02 -314.46c-45.84,64.99 -90.15,84.9 -143.52,119.96l-203.67 -41.86z"/>
    <path class="fil16" d="M3911.17 8359.52l-0.48 -208.72 366.95 -4.25 16.99 -389.29c180.91,66.25 376.19,419.82 334.69,671.06 -48.86,295.86 -138.36,-49.79 -475.81,544.32 59.05,105.14 2.81,19.19 91.16,109.44 128.84,131.62 50.05,-41.86 104.54,127.96l147.58 -71.64c-27.24,-243.37 -58.21,-68.75 -95.1,-287.74l411.98 -136.5c169.65,-122.15 245.66,-166.95 430.44,-84.73 -30.98,-239.46 -122.2,-119.55 -67.09,-514.46l202.52 -2.72c-125.35,-171.98 -250.85,-99.68 -349.06,98.47 -67.47,136.17 -129.27,275.4 -170.51,405.98 -57.14,-73.42 -84.89,117.8 -43.68,-165.76 4.15,-28.54 71.52,-147.5 89.43,-184.57l-176.14 -1.28c-135.95,-493.71 47.39,-312.41 -277.01,-735.65 -323.45,-421.98 -417.68,-228.42 -312.12,-546.1l-159.26 39.7c-191.74,-758.69 159.66,-1045.24 -227.95,-1245.44 18.55,196.12 52.41,453.94 18.5,646.17 -54.76,310.46 -90.93,212.05 19.09,544.67 165.67,500.97 247.51,625.84 -17.45,1060.36l137.79 330.72z"/>
    <path class="fil16" d="M3966.01 3749.91l-26.89 105.93c53.89,287.26 160.86,260.11 187.77,626.48l188.5 108.39c4.91,-8.26 18.56,15.95 25.91,25.48l-535.65 11.56c-1.01,190.72 222.3,337.35 350.04,427.63 148.71,105.09 419.28,302.59 544,119.93 -75.63,-90.71 -4.79,-26.62 -105.2,-69.5 -317.69,-135.69 -376.3,-53.41 -203.42,-143.39 -7.93,-9.18 -20.01,-19.32 -25.5,-25.98 -5.31,-6.44 -17.73,-18.16 -23.64,-26.15l-37.62 -52.04c-48.23,-106.23 -0.25,-122.86 6.98,-154.29l136.71 -6.4c8.44,-163.37 -70.74,-77.25 88.68,-93.23 -144.98,-168.24 -36.04,-42.19 -17.07,-91.84l126.22 -6.05c-89.33,-169.1 -217.01,-196.22 -430.99,-284.97l-11.81 -317.62 103.58 -24.06c-62.18,-92.85 -174.73,-151.39 -207.98,-233.04 -35.78,-87.9 -32.42,-299.78 -3.23,-410.33 -116.68,110.58 -9.06,267.97 -129.39,513.49z"/>
    <path class="fil16" d="M2201.89 16210c151.38,-74.24 107.96,-35.88 87.76,-232.77l318.27 12.92c64.14,-133.42 108.94,-184.43 203.94,-299.48 130.24,-157.7 102.25,-139.01 99.12,-349.95l120.47 -29.53c-158.71,-51.42 -152.88,9.88 -248.76,-117.24l-377.09 -8.16c-176.76,266.83 -203.71,600.74 -203.71,1024.21z"/>
    <path class="fil16" d="M11883.66 9167.5c7.94,-7.81 16.19,-34.01 20.07,-26.73 14.64,27.4 19.98,-166.3 303.53,-83.68 74.97,21.84 240.88,110.62 302.28,143.25 69.18,-55.55 44.34,14.07 47.89,-111.67 -14.7,-160.06 -62.14,-261.07 -78.65,-376.94 -27.44,-192.58 -10.75,-266.68 -50.72,-438.34 -60.02,-33.74 -47.39,-22.55 -136.9,-40.77 -14.71,490.47 -227.25,257.07 -567.26,238.93 70.41,97.18 84.42,97.97 215.25,141.43 -143.78,126.98 -124.26,-27.71 -55.49,554.52z"/>
    <path class="fil16" d="M18415.42 10305.14l22.9 167.77 -280.05 -39.98c16.49,268.54 75.91,295.7 -167.58,291.02 -64.59,208.47 -270.45,161.27 -21.76,451.98 194.96,-55.67 195,-112.4 430.8,-128.5 2.39,-8.23 33.91,-164.38 42.35,-182.13 60.78,-127.83 37.35,-37.67 139.01,-144.86 101.59,-107.12 136,-260.97 106.25,-450.38l-271.92 35.08z"/>
    <path class="fil16" d="M10202.23 11888.33c-123.35,29.86 -160.53,74.71 -228.76,129.81 -153.35,123.84 -129.14,37.18 -112.34,168.61l0 40.76c-30.76,133.21 -46.29,89.15 -1.65,198.29l326.41 -76.41 79.73 129.83c66.46,-32.06 122.17,-89.92 136.73,-182.87 21.8,-139.17 -143.86,-264.2 76.32,-269.87 181.53,-4.68 14.95,-36.86 223.28,191.22l20.02 -172.28c-28.4,-348.34 -303.25,-160.21 -454.47,-100.6l-65.27 -56.49z"/>
    <path class="fil16" d="M7883.39 12023.68l-18.41 78.76 71.21 21.38c69.83,-91.36 -32.65,-39.63 150.37,-70.89l193.39 34.61 -71.07 -223c-78.97,-124.97 -197.46,-197.34 -356.56,-244.1l31.07 403.24z"/>
    <path class="fil16" d="M7946.47 11166.16c-28.12,33.23 -30.3,7.73 -51.62,70.43 -23.78,69.97 -10.21,16.49 -12.02,94.11l6.09 86.27 252.92 49.32 -7.49 -257.82 216.31 -40.62 10.88 -134c-239.31,-48.01 -299.11,13.06 -415.07,132.31z"/>
    <path class="fil16" d="M15245.18 8722.63l187.37 6.8c88.15,196.16 155.35,301.47 417.64,314.5l-24.57 -135.49c-247.82,-226.15 -84.45,-240.85 -284.55,-294.25 -73.49,10.25 -97.11,8.39 -171.6,34.72 -12.18,4.29 -46.79,18.77 -57.04,24.08 -107.99,55.92 -35.73,21.98 -67.25,49.64z"/>
    <path class="fil16" d="M2737.24 6900.69l-81.28 247.45c193.57,-111.74 265.23,-152.11 306.34,-400.35 -153.02,35.6 -110.81,14.14 -225.06,152.9z"/>
    <path class="fil16" d="M15160.49 8962.67l156.2 -70.41c-41.05,-80.25 -46.35,-71.06 -71.51,-169.63 -159.15,-6.7 -47.82,-14.91 -89.36,39.93l4.67 200.11z"/>
   </g>
   <g>
    <path class="fil17" d="M2978.72 7836.35c7.87,-248.68 9.96,-148.94 217.59,-238.16 176.67,-75.91 121.32,-128.33 277.96,-175.78l66.5 404.98 -157.37 -114.13c-170.98,114.63 -152.85,170.76 -404.68,123.09zm-375.04 -6467.05c-270.13,620.82 -295.81,671.73 -234.66,1482.45 56.22,745.21 -171.51,893.94 -208.83,1515.85 235.52,-17.78 334.98,-76.34 582.51,-47.24 109.49,144.72 131.26,274.5 137.95,516.65 -98.02,-41.8 -114.11,-52.23 -185.53,11.05l19.22 445.56c99.26,-62.66 169.35,-134.05 195.17,-257.93 104.05,605.08 -108.22,488.71 -234.24,843.2 362.22,-71.14 195.59,-183.84 500.45,-294.27 -23.23,269.75 -91.51,279.91 -74.1,609.85 11.36,215.41 -3.81,427.86 -139.32,553.32 -41.11,248.24 -112.77,288.61 -306.34,400.35l-122.49 -14.75c-11.42,263.27 277.5,658.41 -209.35,654.18 -91.86,-117.94 -106.17,-612.4 -110.39,-752.64 -177.94,-159.96 -156.04,-633.77 -237.17,-866.13 -31.9,256.01 -4.79,503.51 -6.59,759.64 -1.79,256.87 -48.44,475.25 -71.68,727.33 -65.96,-1.5 -97.26,-7.6 -148.69,-22.27 -3.26,-0.93 -80.33,-31.42 -85.97,-33.89l-55.98 -31.22 -139.1 -15.57c-63.46,61.97 -62.44,81.09 -119.76,149.66 -82.3,98.45 -55.9,78.81 -164.29,134.22l-11.9 273.62c30.51,157.2 73.71,254.84 132.97,366.88 191.94,0 180.97,-6.65 324.07,-40.76 101.03,-182.18 23.98,-170.42 -21.26,-366.87 279.17,-280.69 391.29,-77.9 553.52,81.54 91.52,89.94 164.13,132.85 244.1,204.37 111.9,100.09 110.02,145.38 203.3,231.43 504.83,38.36 784.24,-64.79 1014.55,338.7 -53.08,31.66 15.77,0.47 -72.89,11.54 -10.23,1.27 -44.33,1.77 -55.04,3.55 -139.2,23.13 -9.63,-56.61 -112.59,36.92l528.1 347.73c-77.95,215.44 -126.2,180.6 -365.35,208.89 -336.87,39.86 -80.52,166.51 -345.32,73.79 -275.38,4.14 -378.27,115.83 -468,295.92 80.4,241.43 111.76,168.63 181.47,510.2 332.93,33.44 547.25,140.13 917.33,106.32l85.83 -210.56c269.37,216.98 252.08,715.78 1217.9,124.18l0 -64.52c-258.46,-218.41 -65.86,-518.62 -176.71,-911.53l-135.9 194.35c-66.88,296.56 -126.29,395.21 -372.56,480.98l96.14 -211.09c-151.71,-118.63 -358.93,-156.41 -520.38,-250.67 88.45,-217.91 217.65,-273.68 323.33,-461.57 -54.49,-169.82 24.3,3.66 -104.54,-127.96 -88.35,-90.25 -32.11,-4.3 -91.16,-109.44 -125.2,-116 -200.25,-400.23 -242.34,-613.12l-137.79 -330.72c264.96,-434.52 183.12,-559.39 17.45,-1060.36 -110.02,-332.62 -73.85,-234.21 -19.09,-544.67 33.91,-192.23 0.05,-450.05 -18.5,-646.17 -34.8,-563.96 72.55,-1022.7 -331.47,-1299.28 -164.23,-27.52 -145.38,-57.56 -244.28,-156.36 -127.83,-127.71 -138.57,-80.04 -218.21,-194.05 -65.85,-204.37 90.73,-584.9 279.13,-633.56l20.74 -306.76c-333.08,-127.42 -504.12,-608.98 -488.1,-1114.51l524.81 151.57c60.52,-215.9 35.34,-54.13 115.52,-217.31 -280.92,-123.24 -304.1,-62.9 -595.28,-17.1 -16.49,-168.58 -46.74,-247.96 60.2,-345.8 25.81,-470.24 253.26,-317.57 145.38,-878.75l230.85 66.27 -33.89 297.91 416.08 152.28c378.75,126.52 480.71,164.61 677.92,420.3 -189.85,162.52 -354.43,-27.05 -505.77,329.26 364.7,263.93 280.95,-136.94 622.28,-185.22 57.44,84.05 146.12,258.4 153.93,371.53 9.59,138.91 -92.94,130.68 -163.46,325.1 -46.57,128.36 -59.59,283.71 -131.59,398.12 -112.12,178.18 -164.72,89.62 -192.63,295.18 -29.19,110.55 -32.55,322.43 3.23,410.33 33.25,81.65 145.8,140.19 207.98,233.04 170.54,36.71 564.5,520.52 584.8,691.06l-245.58 -64.41 -126.22 6.05c-18.97,49.65 -127.91,-76.4 17.07,91.84 172.98,51.61 202.15,188.41 294.23,345.99 300.07,513.52 575.8,558.1 305.39,1326.28 -572.64,1626.75 -23.94,1003.02 -230.58,1989.77 -17.91,37.07 -85.28,156.03 -89.43,184.57 -41.21,283.56 -13.46,92.34 43.68,165.76 41.24,-130.58 103.04,-269.81 170.51,-405.98 98.21,-198.15 223.71,-270.45 349.06,-98.47 -48.65,151.94 9.58,357.23 -0.31,530.03 -16.09,280.98 -125.29,140.94 -205.98,364.86 119.59,-27 311.47,-110.79 410.2,-163.05 0,-289.67 5.64,-288 -70.99,-529.93 137.67,-472.62 4.67,-471.78 -262.65,-663.03l-81.21 -567.61 157.82 -88.98c6.55,-5.07 18.1,-16.49 23.31,-20.83 5.31,-4.4 18.88,-8.45 22.66,-22.37 3.8,-14.07 15.38,-14.99 22.33,-23.17 -54.56,-195.66 -163.31,-280.31 -14.98,-407.43 215.91,190.59 14.65,322.81 173.6,539.15l-42.13 -580.13c123.65,-412.13 -56.22,-1001.05 -124.01,-1556.5l-333.24 -2397.76c-154.26,-917.99 -98.26,-984.99 -578.77,-1703.68 -70.83,-105.95 -118.23,-201.04 -195.47,-299.9 -1039.17,-117.28 -814.05,-248.17 -1712.47,200.87 104.21,132.33 196.33,192.48 278.87,387.6 -121.88,111.35 -134.87,169.44 -242.44,258.91z"/>
    <path class="fil17" d="M11083.78 2358.07l7.8 55.77c-118.56,513.34 -277.15,694.88 -676.24,875.05 -55.58,148.41 -77.02,349.02 -239.35,389.34 -229.36,207.02 -227.94,463.36 -589.45,725.21 80.65,238.77 148.52,351.87 -52.81,540.02l8.8 24.64 -251.58 690.13c-37.66,-44.94 -219.5,-408.25 -214.73,-212.19 -87.26,655.75 -58.12,465.68 155.58,477.45 38.43,178.31 27.91,233.2 124.37,336.19 65,-142.24 53.67,-135.4 74.96,-301.52 21.21,-165.47 17.17,-181.14 104.27,-257.45 143.68,161.43 94.31,284.85 103.74,534.47l93.58 20.86c148.87,-301.72 -109.94,-375.23 254.19,-434.72 -12.75,1303.58 -27.87,388.17 123.61,1388.69 61.9,408.85 91.65,894 295.45,1179.8l107.23 -100.37c182.4,-265.13 257.04,-26.28 298.01,-578.57 -43.39,-471.81 -92.95,-829.92 313.12,-1035.96 133.07,181.1 205.87,478.19 206.52,746.36 161.38,251.17 228.6,1029.81 295.48,1389.51 77.51,153.68 109.4,206.15 187.37,327.04l69.96 29.68c-68.77,-582.23 -88.29,-427.54 55.49,-554.52 -130.83,-43.46 -144.84,-44.25 -215.25,-141.43 340.01,18.14 552.55,251.54 567.26,-238.93 55.82,-399.35 -44.24,-883.79 -96,-1193.73 -34.72,-208.01 -60.89,-365.47 -93.03,-559.13 -25.2,-151.74 -81.49,-382.84 -81.49,-535.37 -109.48,-133.34 -145.3,-438.6 -196.08,-652.72 -51.18,-215.85 -98.75,-437.9 -152.91,-646.3 153.26,-202.62 182.04,-14.89 192.95,-405.14 15.86,-567.7 -135.32,-579.42 -272.52,-919.09 -54.41,-134.7 -52.47,-333.5 -105.99,-449.16 -57.21,-78.26 -169.13,-21.14 -314.34,-183.28 5.86,-3.51 16.53,-4.76 19.69,-5.54l156.98 -35.26 -30.99 -337.22 -233.65 47.39z"/>
    <path class="fil17" d="M2201.89 16210c-154.52,760.23 -177.85,1783.14 -488.83,2417.55 -372.46,759.89 -82.18,454.82 -135.64,838.06 -32.92,236.09 -68.14,252.82 -68.14,547.86 181.33,-48.45 100.97,-21.7 136.25,-230.56 17,-100.53 57.22,-216.98 67.46,-340.14l81.48 0c13.57,163.07 62.68,231.51 93.81,436.08 23.82,156.61 -6.13,324.11 124.52,405.33 299.95,186.45 1156.27,2.75 749.78,-424.06 -62.61,-65.73 -162.58,-122.6 -275.5,-132.01l93.05 -1007.52c84.73,-638.35 435.76,-1983.28 721.78,-2579.72 192.1,140.81 245.86,698.37 296.83,1007.46 61.3,371.75 221.82,1372.3 235.86,1764.89 14.6,407.34 -107.57,292.2 -128.68,532.67 -19.48,221.97 20.88,157.98 72.21,253.88 175.4,327.78 -17.71,701.88 175.66,843.63 141.95,-104.07 81.48,-149.41 81.48,-570.7 260.41,69.57 194.1,333.13 366.68,692.99 260.24,0 419.34,-15.35 607.78,-84.87 208.99,-77.1 266.51,-180.19 288.54,-445.06 -588.49,-311.56 -509.25,-249.24 -664.41,-1373.45 -67.22,-487 -26.01,-2035.28 -28.33,-2662.33 -1.01,-273.82 40.86,-440.52 40.86,-652.1l-132.23 0c-173.39,81.76 -742.86,142.77 -902.82,89.57l-173.83 -121.57 -406.06 -104.69 -120.47 29.53c3.13,210.94 31.12,192.25 -99.12,349.95 -95,115.05 -139.8,166.06 -203.94,299.48l-318.27 -12.92c20.2,196.89 63.62,158.53 -87.76,232.77z"/>
    <path class="fil17" d="M8476.12 2421.94c-14,514.64 -409.05,957.84 -523.36,1210.62l-338.63 1454.82c-57.11,335.53 -75.07,699.56 -75.07,1107.04 92.87,21.65 93.69,31.6 203.7,40.76 -33.28,400.14 -286.46,555.94 -325.93,978.33 -46.08,493.14 -285.2,412.84 -285.2,1005.41 153.03,139.39 322.61,231.06 642.5,162.23l177.23 -271.02c81.56,-333.73 228.37,-559.27 319.38,-896.25 182.28,-674.99 -48.42,-520.63 -169.42,-938.68 122.28,47.58 97.03,67.08 246.39,92.44l20.24 -139.58c41.43,-338.19 -29.47,-649.78 3.92,-996.11 16.49,-171.06 65.7,-311.87 78.63,-463.31 14.79,-173.04 -31.12,-361.24 39.03,-483.47 -104.14,-548.47 303.05,-1276.04 162.77,-1881.83 -35.2,-13.19 -17.85,-19.05 -80.67,-15.36 -32.53,1.92 -47.4,13.49 -95.51,33.96z"/>
    <path class="fil17" d="M17851.26 9534.78c16.51,279.59 210.09,790.47 -615.68,851.23l-103.48 -238.19 -413.41 788.01 -436.99 -99.28 59.48 832.8c87.94,-98.48 32.34,-74.1 207.11,-94.46 -13.35,356.24 -68.26,415.61 63.9,727.79 -133.97,108.16 -144.07,180.67 -270.63,285.09 60.42,89.88 110.6,54.83 175.79,161.73 169.83,278.51 -171.94,191.22 -98.67,527.42 21.71,99.56 87.33,159.24 129.55,266.59 -204.29,64.72 -249.98,104.35 -309.38,334.15 -136.6,528.49 31,417.93 147.12,469.59 -7.4,192.94 -47.18,254.69 34.77,364.53 57.03,-134.69 8.56,-167.54 49.12,-314.49 26.07,-94.42 -3.03,-35.27 42.07,-92.48 6.74,-423.09 173.2,-1139.13 261.64,-1557.53 94.88,-448.85 166,-1153.05 556.74,-1282.54l-47.13 -250.64c326.77,-138.5 348.64,-621.61 707.51,-490.15 243.49,4.68 184.07,-22.48 167.58,-291.02l280.05 39.98 -22.9 -167.77 -364.16 -86.54c5.04,-169.34 -0.64,-57.5 53.49,-95.94l128.89 -137.17c-41.53,-189.48 -122.6,-273.13 -265.61,-485.91l-116.77 35.2z"/>
    <path class="fil17" d="M8682.25 5157.71l158.08 11.37c46.06,-192.15 96.69,-201.37 226.3,-277.64 41.07,-158.7 24.67,-130.86 152.59,-152.02 101.01,-397.24 65.07,-307.45 348.01,-466.05 95.3,-145.58 206.27,-454.64 217.04,-673.29l4.68 -474.35c-133.56,-160.91 -237.92,-252.76 -229.53,-538.89l-219.71 8.75 99.6 -314.53c-126.59,-111.66 -188.04,-114.45 -369.51,-131.79 -5.26,504.46 -136.86,988.1 -205.86,1494.79 -67.89,498.51 -69.2,1046.46 -181.69,1513.65z"/>
    <path class="fil17" d="M11391.8 16109.14c45.63,771.3 -41.51,729.59 11.43,1293.44 -125.74,52.32 -318.1,106.24 -461.08,166.3l59.75 610.19c-101.6,243.71 -62.06,263.8 -37.69,567.6 15.9,198.23 65.56,346.65 119.37,506.93l424.64 -7.24 200.85 -165.23 -25.32 -249.83c19.03,-182.46 -127.91,-1121.5 -149.91,-1388.12 -25.15,-304.91 32.11,-484.08 40.03,-730.33 9.33,-290.3 -42.13,-469.73 -42.13,-694.48 -12.72,-7.1 -30.78,-15.49 -38.97,-19.79l-147.3 -16.79 46.33 127.35z"/>
    <path class="fil17" d="M16174.47 4574.25l35.09 141.86c69.76,-21.46 577.9,-343.46 624.46,-384.1 40.41,-126 -12.19,-69.91 118.41,-143.64l40.51 -198.32 257.73 -105.35 -5.7 -332.57c-30.33,-226.73 -127.03,-417.26 -202.64,-629.55 -139.89,-392.74 -94.58,-342.28 -129.48,-749.51l12.6 -185.52c-254.68,110.56 -210,317.9 -216,618.84 -5.51,275.82 -5.29,543.5 -5.6,818.93 -0.48,410.73 -103.39,209.26 -242.54,567.53 -100.62,259.07 -128.63,475.71 -286.84,581.4z"/>
    <path class="fil17" d="M1712.99 8551.28c-265.81,169.58 -481.8,231.59 -850.11,165.59 -126.03,-22.6 -346.07,-87.16 -489.95,-75.09 -208.99,17.52 -241.1,93.11 -330.35,230.17 397.02,-39.41 567.92,-108.82 976.19,9.84 -85.28,137.05 -660.69,457.88 -977.72,82.61l-39.21 -49.35c28.71,382.91 360.09,434.11 704.05,307.46 201.05,-74.03 447.32,-253.69 652.72,-62.52l150.67 132.7c184.48,93.67 360.26,-15.05 540.55,-70.92 195.44,-60.54 341.19,-134.26 379.45,-301.42 -65.03,-72.87 -190.76,-139.76 -292.32,-214.85 -130.77,-96.69 -197.98,-178.4 -301.74,-260.56l-122.23 106.34z"/>
    <path class="fil17" d="M18699.69 2404.26c3.61,338.23 -62.06,493.84 -231.4,693.53 -162.76,391.71 -359.48,200.42 -382.57,650.57l33.85 147.95 606.94 -75.44c35.58,-287.5 416.32,-1287.36 147.32,-1534.74 -131,48.04 -83.62,19.95 -174.14,118.13z"/>
    <path class="fil17" d="M1792.99 5668.96c254.93,186.72 272.57,-20.62 371.76,414.71 86.26,-146.85 -5.43,-103.73 111.03,-156.14l211.3 99.82c12.68,-31.23 192.14,-654.98 194.22,-675.51 -329,81.46 -362.07,59.38 -422.64,-224.82l-127.19 24.33 -342.48 102.41 4 415.2z"/>
    <path class="fil17" d="M15981.48 9142.12l-2.03 157.65 46.65 172.22c-278.13,185.35 -188.26,424.67 39.4,635.99l120.42 101.61 -8.89 -359.11c372.59,-33.09 317.42,-105.67 430.94,-425.69l-136.18 -102.54c-200.12,-138.83 -110.51,-192.14 -254.44,-350.71 -178.33,17.03 -127.86,55.67 -235.87,170.58z"/>
    <path class="fil17" d="M16099.75 6831.9c-28.86,134.81 -120.17,384.76 -118.02,499.02 2.42,129.79 23.6,457.82 35.33,616.35l118.76 39.06c202.79,-216.74 139.94,-175.05 109.27,-527.95 -17.5,-201.33 -44,-508.82 56.81,-651.84l0.34 -209.36c-189.52,82.48 -101.1,78.36 -202.49,234.72z"/>
    <path class="fil17" d="M10096.68 8569.3l30.27 -10.56 0.75 -145.57 -284.33 -42.97c76.95,-263.11 73.49,-72.17 213.41,-259.88 -63.58,-86.57 -82.83,-78.24 -152.61,-170.36 68.62,-62.97 119.18,-78.48 79.39,-196.64l-328 -62.19 24.03 894.12 417.09 -5.95z"/>
    <path class="fil17" d="M17171.47 2254.46c47.88,102.49 110.99,91.34 223.53,109.65l158.89 -47.17 51.44 -231.65c-117.29,-77.04 -159.31,-77.21 -334.16,-86.23l-98.4 29.73 -1.3 225.67z"/>
    <path class="fil17" d="M18209.42 2511.93c210.6,42.8 291.89,-27.6 445.65,-95.82 -35.52,-175.37 -67.38,-242.31 -277.24,-225.76 -243,19.16 -214.31,123.63 -168.41,321.58z"/>
    <path class="fil17" d="M4391.07 4962.42l221.17 21.61c45.01,-188.59 -14.54,-183.15 -164.24,-286.47l-136.71 6.4c-7.23,31.43 -55.21,48.06 -6.98,154.29l37.62 52.04c5.91,7.99 18.33,19.71 23.64,26.15 5.49,6.66 17.57,16.8 25.5,25.98z"/>
    <path class="fil17" d="M9639.46 2021.64l136.69 17.91 162.37 16.28 28.29 -142.49 -153.89 -63.47c-82.27,-12.96 -176.57,-18.96 -259.58,-26.29 29.68,137.73 20.38,120.09 86.12,198.06z"/>
    <path class="fil17" d="M11080.59 2118.79l-67.73 -169.82 -173.52 -3.43 -192.68 77.02c127.69,136.84 241.39,105.18 433.93,96.23z"/>
   </g>
   <path class="fil18" d="M11898.41 13167.3c-215.69,-15.1 -150.45,-76.86 -135.83,-293.02 9.89,-146.34 18.43,-288.47 54.45,-402.9 159.4,63.17 170.34,107.57 154.89,318.75 -8.73,119.29 -27.39,266.95 -73.51,377.17zm317.32 -2622.4c1.61,281.81 -105.3,546.92 -158.11,823.68 -54.35,284.93 -66.03,577.8 -108.54,872.29 -117.66,164.1 -221.64,79.2 -315.81,373.65 -144.44,451.61 -261.6,1336.96 -250.87,1830.84 -43.69,340.68 35.87,538.83 148.58,791.69l222.7 -27.34c72.75,-198.43 23.5,-184.31 185.47,-325.11 116.79,82.09 206.22,264.65 290.43,400.22 795.19,0 1504.3,210.82 1685.58,-676.41 53.13,-260.09 -89.43,-392.18 -140.45,-630.22 -98.59,-459.96 -165.59,-897.74 -295.84,-1334.56 -138.16,-463.33 -240.44,-254.02 -332.58,-482.52 -78.6,-194.88 -25.62,-533.45 -25.62,-760.01 -133.82,-197.18 -35.57,-294.2 -72.07,-574.35l-118.29 -20.98c-16.51,228.36 -59.75,461.69 -55.18,689.29 4.28,213.38 65.21,419.13 22.77,635.86 -36.65,187.14 -158.72,321.29 -223.65,506.15 -62.1,176.83 -82.75,382.97 -208.99,488.54 -261.73,-658.07 -345.85,-1749.67 -132.32,-2467.92 187.69,-274.57 32.43,-363.32 452.24,-454.87l131.78 217.78c59.49,-27.24 42.48,66.67 50.22,-68.25 -23.78,-131.41 -3.52,-91.53 -76.83,-178.96 -71.2,-84.94 -76.28,-82.63 -177.1,-91.71 -529.09,61.3 -327.91,211.9 -497.52,463.22z"/>
  </g>
 </g>
</svg>
