<?xml version="1.0" encoding="UTF-8"?>
<!DOCTYPE svg PUBLIC "-//W3C//DTD SVG 1.1//EN" "http://www.w3.org/Graphics/SVG/1.1/DTD/svg11.dtd">
<!-- Creator: CorelDRAW 2017 -->
<svg xmlns="http://www.w3.org/2000/svg" xml:space="preserve" width="208.227mm" height="206.639mm" version="1.1" style="shape-rendering:geometricPrecision; text-rendering:geometricPrecision; image-rendering:optimizeQuality; fill-rule:evenodd; clip-rule:evenodd"
viewBox="0 0 20822.7 20663.94"
 xmlns:xlink="http://www.w3.org/1999/xlink">
 <defs>
  <style type="text/css">
   <![CDATA[
    .fil4 {fill:#171717}
    .fil0 {fill:#243343}
    .fil6 {fill:#6B3729}
    .fil5 {fill:#6B7988}
    .fil3 {fill:#6C97AA}
    .fil7 {fill:#70564B}
    .fil12 {fill:#930515}
    .fil2 {fill:#93B9C9}
    .fil8 {fill:#A97757}
    .fil1 {fill:#BEC1BC}
    .fil14 {fill:#C50725}
    .fil9 {fill:#CC8E70}
    .fil13 {fill:#E8E8F0}
    .fil11 {fill:#EAD2CD}
    .fil10 {fill:#EBAD8F}
   ]]>
  </style>
 </defs>
 <g id="Capa_x0020_1">
  <metadata id="CorelCorpID_0Corel-Layer"/>
  <path class="fil0" d="M1404.26 14863.02l0 0zm1247.09 -7133.57c-9.64,124.71 -159.21,558.89 -200.77,725.8 -125.96,505.9 -362.96,1453.04 6.16,1940.28 39.14,51.66 85.02,76.84 121.33,122.63 84.06,106.01 18.01,58.43 66.13,177.84 28.72,71.32 47.05,68.87 86.93,129.93 35,53.58 52.94,89.66 93.76,149.9 186.89,275.88 245.17,821.51 260.43,1176.49l162.47 1734.91c-150.73,0 -281.73,20.77 -359.98,100.88 -56.92,58.27 -36.04,63.11 -94.32,122.54 -41.99,42.82 -94.49,69.95 -142.14,101.84 -308.71,-268.27 -945.53,-113.06 -1249.82,155.71 -79,69.78 -133.44,164.87 -205.94,204.88 -36.27,20 -340.5,139.69 -296.1,318.38 36.66,147.52 275.21,-23.33 504.77,-28.44 0,232.72 -15.23,253.22 -119.61,395.39 -116.59,158.79 -410.75,521.59 -281.51,737.09l238.46 311.37 146.76 -23.51 18.46 -104.71 -185.2 13.73c-7.25,-142.96 35.19,-261.47 110.57,-345.15 74.79,-83.02 131.81,-197.17 207.62,-246.99 105.11,96.77 138.2,135.22 121.93,339.15l100.41 17.74c-32.32,-133.42 -53.13,-211.49 63.38,-294.5 4.84,-124.06 67.33,-185.27 102.83,-314.5 -131.21,-20.09 -125.17,-33.11 -143.44,-165.42 -106.71,142.25 -217.06,154.95 -343.91,24.21 -98.27,-205.5 254.05,-583.64 393.1,-673.06 181.08,-116.44 64.05,-0.61 166.53,-189.37 74.97,144.6 176.34,357.83 102.4,544.46 146.69,35.14 129.2,59.72 173.7,212.54 36.99,127 59.53,199.02 33.67,331.34l-19.28 297.55c145.99,10.83 80.52,50.83 215.47,-7.18 242.87,-104.4 322.47,-59.86 605.64,-209.66l65.84 611.79c50.35,350.09 37.9,1010.45 85.38,1324.1 60.1,396.96 -85.47,383.06 42.73,770.28 20.58,62.15 17.03,75.26 24.08,165.8 10.12,129.99 24.58,170.96 25.48,326.9 1.41,241.25 78.55,378.94 113.31,591.45 54.58,333.89 127.44,558.13 195.14,861.99 33.84,151.91 4.68,172.37 180.03,172.37l54.21 -867.35c329.45,0 386.87,122.59 510.05,330.31 120.68,203.49 291.74,371.15 330.39,537.04 328.57,0 722.38,16.79 1045.83,-65.69 115.17,-29.36 185.87,-74.41 282.6,-96.94 0,-150.47 27.1,-160.73 27.1,-298.15 -193.27,-45.02 -390.37,-183.51 -650.66,-154.98 -114.85,45.48 26.97,-14.89 -72.4,79.88 -50.47,48.13 -61.24,49.56 -143.55,51.04 -107.73,1.93 -230.15,-35.53 -291.25,-96.43 -106.41,-14.22 -187.71,-91.28 -260.25,-142.34 -131.43,-92.5 -129.59,-64.91 -173.49,-245.86l275.72 -67.57c73.66,-133.16 36.58,-66.23 142.19,-136.38 94.74,-62.92 85.19,-65.56 73.46,-181.82l-172.86 -976.9c-78.94,-315.54 -193.83,-337.11 -244.43,-948.23l-93.45 -1099.19c-24.55,-163.13 -30.42,-395.5 -43.46,-552.87 -26.92,-325.21 -65.8,-308.52 -107.76,-488.57 133.2,-198.86 195.64,-79.88 356.76,-185.42 60.23,-39.45 66.9,-73.4 146.68,-124.39 70.13,-44.82 108.93,-54.13 174.81,-96.28l1042.29 -615.54c96.37,-48.65 286.85,-99.34 405.74,-132.24 102.65,-28.4 118.75,-21.33 197.78,-73.31 71.24,-46.85 91.69,-62.69 169.88,-101.21 125.49,-61.83 256.37,-124.18 379.8,-189.48 0,-532.15 151.2,-559.2 -260.02,-1149.5 -71.82,-103.1 -142.46,-184.56 -200.26,-287.67 -27.7,-49.4 -47.05,-120.75 -77.81,-166.16 -40.19,-59.33 -78.81,-63.07 -130.41,-113.56l-535.88 -684.22c-42.95,-63.28 -59.4,-110.16 -96.94,-160.83l-266.5 -63.01 69.03 49.97c-64.84,83.46 -76.84,87.67 -104.27,203.6 189.21,149.77 355.4,350.28 3.53,420.28 -61.45,-123.69 37.63,-90.6 -98.64,-174.34 -64.46,-39.61 -101.68,-37.3 -163.61,-80.01 -110.75,-76.38 -137.76,-196.22 -289.84,-242.7 83.37,534.89 196.25,93.36 275.3,605.27 92.84,601.18 150.29,388.41 333.08,518.24l-99.13 135.21 520.55 34.19c-55.9,39.54 -61.66,65.96 -145.9,101.68 -101.48,43.05 -94.83,12.92 -172.26,77.71 232.11,38.11 517.36,77.31 402.28,352.78 363,58.66 251.43,81.26 347.65,121.48 122.13,51.05 214.66,-6.48 351.06,67.9 -146.42,91.46 -517.64,84.47 -725.82,78.6 134.56,188.37 427.5,256.4 623.55,409.29 -103.86,48.51 -286.93,0.52 -407.2,-100.79 -214.71,-180.88 -672.41,-406.9 -829.33,-552.84l-138.63 -159.38c0,204.81 -464.09,315.09 -623.55,352.23 0,-236.2 36.36,-484.6 81.33,-677.62l100.91 0c-66.33,-63.87 63.69,-29.74 -64.69,-52.67 16.83,-52.06 44.54,-710.86 62.56,-850.22 39.65,-306.73 94.79,-537.08 -89.7,-757.63l-66.66 88.34c-8.58,16.62 -5.96,32.79 -24.99,68.76l-284.32 -112.22c332.47,-137.96 289.57,70.33 514.36,-298.06l380.52 9.45c-18.05,-176.02 -37.2,-313.28 -132.69,-415.39 -120.46,-128.84 -115.82,-105.01 -214.2,-274.05 -259.1,-445.18 -119.02,-276.52 -133.84,-767.33 4.99,-200.61 -89.52,-113.19 -25.22,-628.5 44.52,-356.82 118.78,-350.8 -49.15,-535.35 -378.06,-55.33 -286.42,-133.49 -469.59,-208.62 -174.65,-71.64 -385.52,-60.26 -584.29,-65.91 -219.26,-6.24 -447.7,-13.29 -669.53,10.42 -270.59,28.92 -293.97,99.11 -445.45,203.28z"/>
  <path class="fil0" d="M753.6 5183.45c3.44,-5.36 7.49,-20.76 8.78,-16.99 13.66,40.06 14.78,-29.34 17.74,-35.37 20.88,-42.6 -8.01,1.46 27.24,-55.99 10.42,-215.37 -12.49,-441.06 4.92,-645.24 16.76,-196.51 98.42,-354.74 151.94,-517.13 -128.32,65.61 -305.87,52.75 -457.22,53.66 6.17,-68.39 11.63,-369.81 52.47,-402.45 4.47,-3.57 12.37,-11.13 17.92,-15.32 80.07,-60.51 119.9,-51.3 183.68,-151.01 -88.89,-36.12 -55.96,-18.35 -89.13,-81.84 -103.56,-198.16 -67,-930.99 -54.93,-1144.98 611.5,-128.42 394.69,10.79 519.34,-522.02 32.74,-140 95.8,-295.06 218.5,-363.39 96.01,-116.22 366.03,-234.84 564.99,-225.55 239.58,11.2 390.94,180.95 443.96,386.99 91.79,145.88 220.52,198.13 225.92,487.86 3.56,190.64 -48.53,446.03 -69.55,645.5 156.32,-60.25 163.77,-80.93 239.76,-180.05 70.42,43.09 65.18,32.45 117.84,132.16 138.93,263.05 190.53,161.26 205.53,376.17 16.67,238.94 -171.73,430.75 -323.5,471.01l-79.18 -80.33 47.85 315.3c-67.52,63.87 -137.11,94.27 -154.44,228.66l29.94 16.73c-15.9,-93.95 -15.31,-51.36 19.94,-98.72l244.33 46.82c23.88,-43.22 16.75,-62.16 32.97,-96.07 63.4,-132.62 123,-94.08 224.77,-192.2 107.03,-103.21 119.07,-220.95 262.77,-291.68 -12.98,375.33 59.46,424.93 83.98,719.77 -129.02,-6.9 -212.17,-28.04 -333.21,-51.46 -195.02,-37.73 -130.49,32.59 -260.4,27.17 94.69,159.26 376.79,297.81 590.73,389.93 292.58,125.97 417.29,209.71 621.63,378.58l50.97 -38.26c0,-120.96 -40.92,-377.04 -81.16,-443.13 -63.88,-104.94 -172.14,-53.64 -298.4,-259.32 -326.45,-100.67 -318.7,-291.53 -339.86,-660.65 -21.7,-378.24 -98.54,-473.45 -185.57,-787.47 -99,-326.8 -370.44,-991.73 -547.26,-1285.67 -241.21,-400.98 -235.03,-491.04 -528.94,-690.89 -107.33,-72.98 -57.83,-59.27 -240.53,-57.69 -528.84,4.57 -562.43,-66.45 -831.05,120.54 -356.74,248.32 -312.71,351.43 -406.16,813.65 -35.15,173.83 -71.42,369.28 -88.17,535.26 -39.94,395.84 -29.41,775.88 -97.71,1149.14 -25.07,136.99 -33.27,457.1 -81.97,541.47 -51.06,88.48 -84.78,58.62 -113.54,184.65 -3.73,16.31 -6.84,32.25 -9.41,47.86l0 225.11c33.67,194.65 146.52,332.28 179.19,487.14 45.9,217.65 -24.3,372.94 64.8,558.61l157.6 -140.82c7.46,112.69 21.14,124.72 59.29,191.95z"/>
  <path class="fil0" d="M4094.05 5876.38c1.33,-195.09 -63.16,-144.37 -27.55,-359.45 16.56,-100.01 60.35,-195.78 22.1,-306.84l-193.86 -2.15 -55.32 213.44c-97.51,-77.22 -55.72,-114.77 -183.23,-147.15 -38.59,210.45 -6.47,591.4 183.37,688.8 30.78,-86.18 37.67,-191.17 86.66,-262.46 49.41,118.13 25.46,135.99 167.83,175.81z"/>
  <path class="fil0" d="M3442.53 5411.13l-179 -35.69 -106.24 29.95 42.46 707.84 171.12 -44.79 -18.05 -184.7c136.94,58.88 150.45,95.45 330.59,136.99l-240.88 -609.6z"/>
  <path class="fil0" d="M3410.46 6453.66c168.84,-46.24 72.31,-50.33 156.68,-176.86 73.53,208.66 -97.52,296.86 -67,502.14 117.83,64.22 284.16,70.6 452.79,54.36l-58.38 -288.31c-199.59,77.61 -28.83,55.58 -131.66,176.66 -138.46,-206.69 67.81,-117.1 -33.49,-582.89 -156.62,-3.12 -239.5,17.13 -346.41,71.5 -16.58,96.8 -26.14,161.37 27.47,243.4z"/>
  <path class="fil1" d="M1851.28 6189.42c74.66,89.65 122.98,163.36 192.03,255.54 70.93,94.67 118.21,152.21 189.95,243.78 148.35,189.35 216.97,345.87 390.98,516.59 54.33,-14.27 81.88,-22.13 126.36,-46.78l104.88 -88.41c-83.45,-17.63 -141.25,-43.59 -205.07,-91.28 5.75,-4.46 14.68,-8.31 19.22,-10.39 213.58,-98.1 1.85,40.51 267.2,-142.9 -215.9,-22.02 -276.8,34.82 -370.6,-144.55 -288.2,-551.1 -180.28,-229.29 -340.14,-445.72 -127.02,-171.99 -144.47,-267.38 -301.56,-450.24 -105.45,42.74 -49.58,297.12 -73.25,404.36z"/>
  <path class="fil2" d="M12792.5 5786.91c-101.38,159.74 -75.43,92.92 -136.89,331.25l-352.72 -191.12 86.84 418c202.95,93.01 211.18,35.09 358.39,-33.1 9.43,796.23 -121.32,646.24 -264.53,1032.47 -2.79,174.11 115.63,274.43 186.77,419.74 71.58,146.2 116.38,261.14 171.21,416.04 349.02,986.05 523.78,1395.77 390.97,2478.78 -55.73,454.46 16.11,258.67 63.77,493.33l121.08 30.45c4.26,-147.17 91.65,-467.89 85.71,-925.94 -1.59,-122.52 -15.73,-141.46 -24.9,-226.65l-65.2 -717.4c-35.04,-285.47 -56.84,-631.59 -171.92,-862.22 -161.19,-323.02 -71.34,-1167.86 -22.75,-1606.5 10.09,-90.96 -1.62,-183.65 5.61,-273.9l166.48 -1901.78c8.26,-326.16 175.47,-688.71 -132.91,-782.84l1.66 140.36c-202.34,-76.3 -155.92,-78.61 -432.08,-87.35 84.05,437.61 375.63,649.84 397.82,841.88 22.44,194.25 -72.44,602.84 -79.25,837.77 -6.01,207.63 17.17,216.29 -63,262.54 -65.76,-92.91 -31.31,-138.53 1.17,-399.3 18.6,-149.43 24.57,-255.07 21.27,-423.27 -163.63,131.6 -141.55,464.07 -257.31,659.67 -49.18,83.12 -11.13,28.5 -55.29,69.09z"/>
  <path class="fil2" d="M11970.8 4522.68c-12.34,216.87 -73.5,419.01 -98.12,642.79 -22.36,203.32 29.94,546.6 0.99,667.32 478.17,221.88 170.67,1050.52 566.03,1127.23 125.5,-38.97 173.72,-129.77 203.21,-281.31l-275.09 -66.03c-82.28,-40.65 -350.51,-696.21 -39.95,-1102.1 45.19,6.92 104.77,9.97 157.17,31.75 78.4,32.59 34.42,42.95 134.61,77.93 4.87,-6.31 11.86,-13.92 15.52,-18.16l44.53 -51.09c104.7,-121.84 224.26,-359.31 232.85,-519.58 -220.38,-125.79 -18.79,17.31 -276.12,10.56 -151.52,-3.96 -208.58,-72.73 -238.57,-194.75 339.4,12.17 454.3,62.57 451.65,-91.81 -0.9,-52.53 -2.88,-30.47 -12.71,-64.31 -10.25,-35.25 -40.75,-100.01 -58.36,-140.08 -249.18,-567.27 -59.33,-632.51 -310.79,-801.73 -228.42,122.58 -205.28,444.95 -246.61,731.81 -90.36,-46.47 -158.57,-131.97 -215.02,-225.72 0.33,97.48 7.92,186.62 -35.22,267.28z"/>
  <path class="fil2" d="M10117.58 4803.98c-11.99,109.46 -55.35,221.97 -82.57,295.99 32.99,198.39 11.03,78.91 106.23,189.17 103.98,120.45 93.83,417.31 305.05,580.76 -106.46,247.98 -177.4,375.28 -23.99,434.35 56.95,21.92 146.61,23.68 179.98,-9.11 183.37,-180.17 -334.64,-504.63 192.84,-498.03l-6.06 -92.94c30.96,-327.4 111.02,-1115.32 43.41,-1392.63l-178.92 -6.09 70.6 520.97c-201.41,6.75 -114.83,-12.67 -269.27,-80.86 -63.25,35.95 -5.08,-12.82 -51.57,39.57 -1.02,1.16 -32.51,48.24 -35.21,52.22 -30.81,-150.59 -35.55,-157.15 -137.67,-219.62l-112.85 186.25z"/>
  <path class="fil2" d="M11071.57 6212.71c61.3,119.46 254.21,312.9 361.74,389.86 347.85,-123.38 169.85,-310.07 126.48,-641.21 -40.11,-306.18 17.69,-652.71 -24.67,-935.76l-239.82 941.52 -238.68 -76.51 14.95 322.1z"/>
  <path class="fil2" d="M11363.96 6917.44l29.62 696.58c204.75,14.07 367.27,-208.13 464.23,-283.07l-34.45 -413.81c-40.15,-160.56 -19.85,-210.2 -136.94,-308.55 -176.36,95.24 1.6,92.01 -326.79,164l4.33 144.85z"/>
  <path class="fil3" d="M9835.36 3158.84c12.56,209.69 35.34,402.17 -56.99,581.19l-266.5 313.18c-57.45,-336.47 -48.49,-532.92 -178.22,-838.47 -43.62,-26.43 -22.61,-12.51 -80.83,-27.95 -184.85,275.99 -163.85,39.07 -401.67,744.33 -98.59,292.4 -210.61,538.61 -314.7,831.29 -174.26,489.92 -491.61,1226.07 -640.66,1679.24 -72.37,220 -12.08,228.82 -192.56,366.47 -164.13,125.17 -466.3,626.4 -477.09,692.02 -10.27,62.48 40.61,128.92 70.58,185.31 48.13,90.54 57.27,107.54 57.64,252.14 0.47,189.49 -58.63,318.88 -19.59,520.67 94.9,490.62 9.69,764.5 -82.13,1286.1 -25.44,144.47 -42.66,166.36 99.23,178.17 0,272.76 28.65,464.53 28.95,755.62 0.35,328.86 -134.77,400.39 -140.76,669.79 240.48,-64.21 255.38,-201.92 317.95,-436.91 109.42,-410.94 -164.89,-666.49 16.58,-1380.72l168.65 -613.95c100.61,-2.24 82.42,-6.1 153.78,-27.95 -76.31,-39.21 -221.52,-22.78 -136.13,-232.1 221.59,-543.13 458.72,142.14 821,132.48 55.21,-72.5 49.46,-136.7 63.5,-227.97 12.89,-83.84 30.04,-151.21 53.6,-226.71 45.85,-146.94 94.6,-256.17 134.15,-396.08 119.42,-422.48 -85.45,-512.58 187.88,-874.84 162.3,-215.1 290.81,-412.73 452.91,-637.28 139.92,-193.85 288.95,-470.13 449.81,-622.12 174.34,60.33 208.46,116.75 189.65,316.14 -31.88,338.06 9.8,1049.7 536.76,850.58l-249.36 1607.14 663.66 -256.5c76.06,-263.72 85.62,-1300.48 30.7,-1579.74 -63.35,-83.77 -248.62,-347.67 -272.39,-487.37 -28.97,-170.4 48.65,-61.27 -23.58,-226.84 -73.41,-168.28 64.15,-167.27 -10.12,-323.03l6.06 92.94c-527.48,-6.6 -9.47,317.86 -192.84,498.03 -33.37,32.79 -123.03,31.03 -179.98,9.11 -153.41,-59.07 -82.47,-186.37 23.99,-434.35 -211.22,-163.45 -201.07,-460.31 -305.05,-580.76 -95.2,-110.26 -73.24,9.22 -106.23,-189.17 -276.62,31.21 -245.53,9.9 -359.15,185.15 -44.12,253.63 -290.92,597.5 -417.33,758.96 -288.84,368.89 -416.32,379.56 -583.14,571.79 485.2,-954.41 488.68,-631.78 533.74,-1691.36 21.03,-326.07 92.21,-390.89 419.5,-435.95 184.32,-25.38 195.28,13.22 283.44,107.23 72.7,77.52 109.44,122.81 205.51,208.19l112.85 -186.25c102.12,62.47 106.86,69.03 137.67,219.62 2.7,-3.98 34.19,-51.06 35.21,-52.22 46.49,-52.39 -11.68,-3.62 51.57,-39.57 154.44,68.19 67.86,87.61 269.27,80.86l-70.6 -520.97 178.92 6.09c-64.06,-477.79 214.48,-607.72 -21.26,-950.1 -152.41,-221.35 -363.45,-553.87 60.32,-666.38l-17.68 -179.04c-127.87,9.54 -95.08,30.69 -203.28,55.89 53.92,-112.35 117.02,-389.42 0,-475.13 -22.06,94.66 -30.59,78.5 -69.26,154.34 -216.18,423.96 -81.86,893.82 -745.95,907.72z"/>
  <path class="fil3" d="M11970.8 4522.68c43.14,-80.66 35.55,-169.8 35.22,-267.28 56.45,93.75 124.66,179.25 215.02,225.72 41.33,-286.86 18.19,-609.23 246.61,-731.81 251.46,169.22 61.61,234.46 310.79,801.73 17.61,40.07 48.11,104.83 58.36,140.08 9.83,33.84 11.81,11.78 12.71,64.31 2.65,154.38 -112.25,103.98 -451.65,91.81 29.99,122.02 87.05,190.79 238.57,194.75 257.33,6.75 55.74,-136.35 276.12,-10.56 -8.59,160.27 -128.15,397.74 -232.85,519.58l-44.53 51.09c-3.66,4.24 -10.65,11.85 -15.52,18.16l193.03 -20.43 -20.18 187.08c44.16,-40.59 6.11,14.03 55.29,-69.09 115.76,-195.6 93.68,-528.07 257.31,-659.67 3.3,168.2 -2.67,273.84 -21.27,423.27 -32.48,260.77 -66.93,306.39 -1.17,399.3 80.17,-46.25 56.99,-54.91 63,-262.54 6.81,-234.93 101.69,-643.52 79.25,-837.77 -22.19,-192.04 -313.77,-404.27 -397.82,-841.88 276.16,8.74 229.74,11.05 432.08,87.35l-1.66 -140.36c-64.44,-71.27 -253.91,-164.95 -342.58,-223.6 -99.7,-65.94 -255.74,-140.3 -342.83,-216.22 -203.69,-177.54 -305.92,-475.83 -536.96,-594.3 68.28,237.72 115.96,599.96 26.63,825.15 -100.91,254.33 -89.44,558.56 -90.97,846.13z"/>
  <path class="fil0" d="M9333.65 3214.74c129.73,305.55 120.77,502 178.22,838.47l266.5 -313.18c92.33,-179.02 69.55,-371.5 56.99,-581.19 -211.77,0 -326.32,41.94 -501.71,55.9z"/>
  <path class="fil4" d="M7897.02 8888.41c62.09,131.55 109.69,264.78 151.7,393.72 90.96,279.19 -36.78,239.34 -53.87,444.75 27.2,-31.29 -5.3,11.24 38.04,-45.79l101.73 -149.84c105.13,70.38 221.47,178.17 314.27,272.72l484.61 381.91c150.61,119.68 378.22,278.7 570.92,323.58 0,810.87 256.7,1256.45 305.74,1706.66 58.63,538.32 124.41,304.15 141.02,557.73 32.12,490.11 13.84,146.95 137.42,533.39 130.58,408.3 196.24,1073.32 23.5,1473.33 -64.04,148.29 -25.45,32.89 -19.97,283.03 23.51,1074 254.74,1593.21 251.02,2461.01 -3.34,778.73 97.58,725.83 163.69,1177.9 109.91,751.61 -107.86,610.72 -107.86,1197.86 103.58,24.13 78.17,46.12 195.68,55.9l0 210.11c234.9,-63.9 43.81,-151.45 239.3,-219.95 156.58,-54.87 289.92,32.17 400.15,-11.78 -301,-48.86 -446.63,-30.33 -542.99,-146.08 121.28,-83.43 371.27,-94.77 540.94,-47.99 186.46,51.42 306.55,170.1 452.85,207.4 97.85,-169.11 379.02,-1847.25 431.29,-2159.79l171.83 -1141.81c31.49,-225.48 32.6,-492.54 108.41,-702.13 130.84,-361.74 39.37,-77.02 75.3,-427.8 16.8,-164.06 50.81,-408.8 72.22,-570.62 27.43,-207.31 0.26,-450.85 6.64,-664.15l69.73 -575.33c90.56,-234.13 -70.3,-119.7 72.07,-540.61l75.25 -567.59c38.2,-199.49 86.96,-338.05 136.27,-534.55 117.94,-470.07 59.93,-621.6 392.39,-911.3 -47.66,-234.66 -119.5,-38.87 -63.77,-493.33 132.81,-1083.01 -41.95,-1492.73 -390.97,-2478.78 -54.83,-154.9 -99.63,-269.84 -171.21,-416.04 -71.14,-145.31 -189.56,-245.63 -186.77,-419.74 -129.76,-77.5 -121.59,-195.43 -283.35,-285.41 -113.91,-63.37 -255.77,-108.21 -376.88,-141.86l34.45 413.81c-96.96,74.94 -259.48,297.14 -464.23,283.07l-29.62 -696.58c-53.9,-52.66 -51.77,-96.87 -70.11,-185.45l-198.7 9.42c54.92,279.26 45.36,1316.02 -30.7,1579.74l-663.66 256.5 249.36 -1607.14c-526.96,199.12 -568.64,-512.52 -536.76,-850.58 18.81,-199.39 -15.31,-255.81 -189.65,-316.14 -160.86,151.99 -309.89,428.27 -449.81,622.12 -162.1,224.55 -290.61,422.18 -452.91,637.28 -273.33,362.26 -68.46,452.36 -187.88,874.84 -39.55,139.91 -88.3,249.14 -134.15,396.08 -23.56,75.5 -40.71,142.87 -53.6,226.71 -14.04,91.27 -8.29,155.47 -63.5,227.97 -362.28,9.66 -599.41,-675.61 -821,-132.48 -85.39,209.32 59.82,192.89 136.13,232.1z"/>
  <path class="fil4" d="M10548.95 1761.39c226.02,-239.82 933.47,-770.93 1324.27,-843.78 333.08,-62.08 370.49,33.59 594.43,115.78 88.18,-178.75 6.37,-472.89 -66.67,-602.81 -129.59,-230.53 -347.62,-370.33 -591.47,-402.04l-216.3 0c-65.24,8.28 -130.98,24.02 -196.17,47.58 -397.2,143.57 -195.69,168.37 -522.83,92.16 2.97,133.06 69.09,198.26 -103.94,371.21 -115.7,115.66 -148.06,151.79 -237.01,294.08 -145.88,233.35 -274.06,442.88 -274.06,816.02 128.03,29.82 153.78,84.83 289.75,111.8z"/>
  <path class="fil4" d="M10706.34 20403.46c-20.52,53.11 -40.47,52.89 -29.54,141.46 18.87,152.77 3.28,63.51 57.64,54.32l485.52 8.03 129.29 -203.89c-212.96,-106.9 -358.04,-214.62 -625.58,-94.15l-17.33 94.23z"/>
  <path class="fil5" d="M11873.67 5832.79c-59.09,128.9 -65.36,294.87 -131.93,372.51 21.6,17.19 65.01,50.22 97.75,81.31 -64.55,258.24 -70.85,160.61 -153.07,321.98 117.09,98.35 96.79,147.99 136.94,308.55 121.11,33.65 262.97,78.49 376.88,141.86 161.76,89.98 153.59,207.91 283.35,285.41 143.21,-386.23 273.96,-236.24 264.53,-1032.47 -147.21,68.19 -155.44,126.11 -358.39,33.1l-86.84 -418 352.72 191.12c61.46,-238.33 35.51,-171.51 136.89,-331.25l20.18 -187.08 -193.03 20.43c-100.19,-34.98 -56.21,-45.34 -134.61,-77.93 -52.4,-21.78 -111.98,-24.83 -157.17,-31.75 -310.56,405.89 -42.33,1061.45 39.95,1102.1l275.09 66.03c-29.49,151.54 -77.71,242.34 -203.21,281.31 -395.36,-76.71 -87.86,-905.35 -566.03,-1127.23z"/>
  <path class="fil6" d="M10594.66 20166.38c0,69.99 -8.58,76.26 15.87,134.28 51.52,122.24 41.23,68.5 95.81,102.8l17.33 -94.23c267.54,-120.47 412.62,-12.75 625.58,94.15l-129.29 203.89 -485.52 -8.03c16.52,39.44 -44.07,53.68 165.68,59.92 339.09,10.09 407.34,-56.63 561.15,-60.06 0,-353.52 119.83,-420.41 223.64,-651.12 -146.3,-37.3 -266.39,-155.98 -452.85,-207.4 -169.67,-46.78 -419.66,-35.44 -540.94,47.99 96.36,115.75 241.99,97.22 542.99,146.08 -110.23,43.95 -243.57,-43.09 -400.15,11.78 -195.49,68.5 -4.4,156.05 -239.3,219.95z"/>
  <path class="fil7" d="M11535.12 5025.6c42.36,283.05 -15.44,629.58 24.67,935.76 43.37,331.14 221.37,517.83 -126.48,641.21 -107.53,-76.96 -300.44,-270.4 -361.74,-389.86 -34.23,-107.1 -60.31,-946.33 -71.58,-1128.06 -16.61,-267.7 -107.33,-936.83 -13.96,-1118.38 117.21,33.26 242.41,106.49 346.36,160.7 183.67,95.8 178.71,115.78 327.51,2.28 -11.72,166.84 -23.84,336.12 -44.45,497.68 -15.42,120.93 -92.67,334.08 -80.33,398.67zm-572.13 -1638.65c154.34,26.7 524.17,130.14 626.52,201.54 31.94,155.25 -5.18,318.5 -13.49,473.88 -429.98,-52 -605.11,-225.47 -613.03,-675.42zm-130.52 924.59c67.61,277.31 -12.45,1065.23 -43.41,1392.63 74.27,155.76 -63.29,154.75 10.12,323.03 72.23,165.57 -5.39,56.44 23.58,226.84 23.77,139.7 209.04,403.6 272.39,487.37l198.7 -9.42c18.34,88.58 16.21,132.79 70.11,185.45l-4.33 -144.85c328.39,-71.99 150.43,-68.76 326.79,-164 82.22,-161.37 88.52,-63.74 153.07,-321.98 -32.74,-31.09 -76.15,-64.12 -97.75,-81.31 66.57,-77.64 72.84,-243.61 131.93,-372.51 28.95,-120.72 -23.35,-464 -0.99,-667.32 24.62,-223.78 85.78,-425.92 98.12,-642.79 1.53,-287.57 -9.94,-591.8 90.97,-846.13 89.33,-225.19 41.65,-587.43 -26.63,-825.15l-14.77 -0.14c-68.83,94.26 -113.48,65.5 -165.97,167.92 -67.21,131.14 3.94,179.67 -90.81,275.35 -84.3,85.1 -548.63,219.27 -591.41,32.56l-14.35 -73.5c-34.37,-156.3 -200.51,-345.65 -286.3,-558.53 -423.77,112.51 -212.73,445.03 -60.32,666.38 235.74,342.38 -42.8,472.31 21.26,950.1z"/>
  <path class="fil8" d="M11479.83 1854.35c-10.68,-76.73 -6.64,-136.56 2.54,-193.46l61.69 -169.33 672 108.02c0.02,0.04 64.54,45.34 -8.11,173.49 -10.57,18.64 -317.29,356.53 -375.99,366.65 -180.65,31.11 -45.42,-108.24 -650.11,-19.3 0,-480.2 -176.04,-76.45 -211.39,-582.82l410.48 79.53c21.2,229.89 -2.97,184.63 83.41,364.24l172.27 -51.27 -156.79 -75.75zm-930.88 -92.96c39.63,81.29 158.71,99.88 269.78,279.05 94.29,152.11 53.27,299.26 35.12,475.58l17.68 179.04c85.79,212.88 251.93,402.23 286.3,558.53l14.35 73.5c42.78,186.71 507.11,52.54 591.41,-32.56 94.75,-95.68 23.6,-144.21 90.81,-275.35 52.49,-102.42 97.14,-73.66 165.97,-167.92 -110.89,-333.27 -21.17,-434.58 246.55,-843.38 140.45,-214.45 200.73,-704.43 200.73,-974.49 -223.94,-82.19 -261.35,-177.86 -594.43,-115.78 -390.8,72.85 -1098.25,603.96 -1324.27,843.78z"/>
  <path class="fil8" d="M9675.86 5285.12c-252.1,19.51 -187.47,55.86 -307.7,-118.45 -58.48,-84.81 -125.03,-153.93 -159.03,-242.16 -45.06,1059.58 -48.54,736.95 -533.74,1691.36 166.82,-192.23 294.3,-202.9 583.14,-571.79 126.41,-161.46 373.21,-505.33 417.33,-758.96z"/>
  <path class="fil9" d="M11071.57 6212.71l-14.95 -322.1 238.68 76.51 239.82 -941.52c-12.34,-64.59 64.91,-277.74 80.33,-398.67 20.61,-161.56 32.73,-330.84 44.45,-497.68 -148.8,113.5 -143.84,93.52 -327.51,-2.28 -103.95,-54.21 -229.15,-127.44 -346.36,-160.7 -93.37,181.55 -2.65,850.68 13.96,1118.38 11.27,181.73 37.35,1020.96 71.58,1128.06z"/>
  <path class="fil9" d="M11479.83 1854.35l156.79 75.75 -172.27 51.27c-86.38,-179.61 -62.21,-134.35 -83.41,-364.24l-410.48 -79.53c35.35,506.37 211.39,102.62 211.39,582.82 604.69,-88.94 469.46,50.41 650.11,19.3 58.7,-10.12 365.42,-348.01 375.99,-366.65 72.65,-128.15 8.13,-173.45 8.11,-173.49l-672 -108.02 -61.69 169.33c-9.18,56.9 -13.22,116.73 -2.54,193.46z"/>
  <path class="fil9" d="M9209.13 4924.51c34,88.23 100.55,157.35 159.03,242.16 120.23,174.31 55.6,137.96 307.7,118.45 113.62,-175.25 82.53,-153.94 359.15,-185.15 27.22,-74.02 70.58,-186.53 82.57,-295.99 -96.07,-85.38 -132.81,-130.67 -205.51,-208.19 -88.16,-94.01 -99.12,-132.61 -283.44,-107.23 -327.29,45.06 -398.47,109.88 -419.5,435.95z"/>
  <path class="fil9" d="M11576.02 4062.37c8.31,-155.38 45.43,-318.63 13.49,-473.88 -102.35,-71.4 -472.18,-174.84 -626.52,-201.54 7.92,449.95 183.05,623.42 613.03,675.42z"/>
  <path class="fil10" d="M1354.85 1285.38l1 163.97 -1.98 138.63 294.52 83.79 420.9 0.98c51.51,-61.34 110.74,-86.7 186.13,-105.87l22.27 -111.89 86.11 -8.17c-53.02,-206.04 -204.38,-375.79 -443.96,-386.99 -198.96,-9.29 -468.98,109.33 -564.99,225.55z"/>
  <path class="fil10" d="M17319.71 1877.69c493.04,93.71 171.6,363.76 383.9,597.76l-8.45 -538.12 347.06 -114.44c-168.92,-339.03 -136.19,-445.43 -371.2,-460.66 -304.27,-19.7 -265.08,119.17 -351.31,515.46z"/>
  <path class="fil10" d="M17449.04 2785.48c161.19,-0.92 272.38,-7.05 428.97,4.9 208.01,-135.97 299.84,-201.8 234.43,-519.01l-317.69 -88.38c34,125.58 108.18,234.04 38.48,374.35 -4.07,6.78 -11.58,122.03 -215.73,64.62 -168.88,-47.49 -88.19,-192.52 -163.68,-422.77 -101.71,44.52 -180.28,89.09 -314.02,125.52 63.28,337.84 225.6,368.56 309.24,460.77z"/>
  <path class="fil10" d="M1869.66 10417.35c21.94,123.55 95.83,365.2 137.93,507.57 85.87,290.44 79.07,218.31 321.34,323.27 66.03,-310.77 -73,-641.33 -142.81,-911.71 6.03,-96.8 15.8,-70.92 -17.99,-135.52 -48.34,80.99 17.4,18.14 -87.4,47.93 -53.71,15.26 -47.54,-5.3 -113.06,27.44 -58.37,29.17 -75.02,75.55 -98.01,141.02z"/>
  <path class="fil11" d="M17677.2 17991.68l17.73 12.35c23.66,-538.64 119.02,-1216.54 46.82,-1753.01 -41.7,-309.88 -56.36,-1430.16 -183.42,-1602.06 -153.08,189.99 -57.95,439.78 -56.1,756.13 1.75,297.79 14,605.04 29.16,898.18 26.15,505.65 37.89,1223.3 145.81,1688.41z"/>
  <path class="fil11" d="M15001.63 12608.76l271.63 16.02 -174.43 -499.65 -111.49 -26.47c-53.78,165.7 -24.64,337.56 14.29,510.1z"/>
  <path class="fil11" d="M16261.96 6787.65c-49.65,57.19 -54.14,151.92 -39.8,215.91 15.57,69.44 11.92,33.04 38.78,69.14 40.84,-75.26 67.53,-194.67 1.02,-285.05z"/>
  <path class="fil12" d="M20408.88 6704.54c118.7,-91.81 109.36,-541.06 108.45,-731.97 -0.33,-67.59 -4.58,-152.47 -1.1,-217.93 11.1,-208.22 125.74,-236.8 47.25,-369.14 -35.56,-59.96 -77.09,-89.44 -127.48,-90.68 -70.67,1.48 -18.98,21.55 -76.78,140.21 -248.87,31.45 -263.45,-68.12 -390.93,-149.81 -18.75,196.6 -25.57,178.03 -133.56,276 -72.85,66.09 -130.73,148.91 -197.92,214.81l513.36 -102.17 -4.37 252.48 -288.03 12.03c55.02,78.81 106.49,155.97 131.96,265.66 -108.64,40.67 -167.73,81.49 -217.53,183.08 87.11,-93.44 305.75,-87.61 480.35,-73.52l-31.47 508.73c155.37,-47.39 102.3,-53.95 187.8,-117.78z"/>
  <path class="fil12" d="M16315.16 4052.09c-19.29,26.08 -31.48,34.2 -48.53,56.67 -4.28,5.63 -17.51,23.14 -21.22,28.92 -31.19,48.46 -9.16,-0.89 -23.3,45.97 13.49,4.28 59.06,11.7 67.05,15.06 5.19,2.19 13.3,5.61 18.56,8.21l37.1 23.03c4.42,2.69 13.35,7.77 18.41,13.44 -16.27,119.86 4.07,11.71 -28.61,68.86 -26.67,46.63 -58.71,-48.74 -23.11,88.24 51.12,41.52 -27.67,22.82 87.61,34.1 194.63,19.06 634.89,-384.24 852,223.94 40.74,114.13 138.02,236.25 236.06,207.53 -92.46,-256.73 -288.64,-414.82 -355.18,-689.52 -17.33,-71.54 -18.84,-176.74 -35.69,-232 -39.08,-128.08 -72.82,-32.38 -57.48,-153.58 22.58,-178.52 118.97,-94.55 128.42,-401.25 -283.29,26.32 -325.65,145 -446.51,331.66 -134.85,208.26 -106.55,261.27 -405.58,330.72z"/>
  <path class="fil12" d="M17449.04 2785.48c20.94,34.55 18.18,52.8 91.15,94.94 147.46,85.12 272.39,57.49 337.82,-90.04 -156.59,-11.95 -267.78,-5.82 -428.97,-4.9z"/>
  <path class="fil5" d="M3383.23 5135.06c38.81,-125.14 99.26,-133.91 242.72,-174.94 -38.49,158.92 -72.26,222.35 -242.72,174.94zm-458.58 25.6c129.92,83.58 245.42,101.24 338.88,214.78l179 35.69c-34.95,-148.1 -37.53,-110.69 27.99,-164.86 64.01,-52.92 120.64,-56.21 189.48,-190.55 189.49,-369.85 -185.49,-657.73 -759.17,-439.58 218,388.17 87.04,62.37 191.31,425.46 25.92,90.24 39.35,55.39 75.27,154.85l-242.76 -35.79z"/>
  <path class="fil5" d="M3762.89 3951.26c-3.69,-128.25 -24,-89.28 -58.4,-169.43 -62,-144.53 17.41,-369.84 -61.11,-671.31 -40.44,-155.2 -234.01,-568.73 -405.92,-607.38 87.03,314.02 163.87,409.23 185.57,787.47 21.16,369.12 13.41,559.98 339.86,660.65z"/>
  <path class="fil5" d="M3749.64 7138.1c69.13,73.59 260.65,94.71 382.33,66.5 172.3,-39.93 -34.98,-64.08 417.25,-58.3l-51.11 -281.3c-144.76,26.44 -278.39,67.08 -421.67,102.26 -191.62,47.05 -240.69,37.48 -326.8,170.84z"/>
  <path class="fil5" d="M1406.82 16178.65c91.94,-130.22 15.25,-29.72 154.86,-74.76 103.74,-33.46 77.02,-39.05 100.06,-164.5 16.27,-203.92 -16.82,-242.38 -121.93,-339.15 -75.81,49.82 -132.83,163.97 -207.62,246.99 -75.38,83.68 -117.82,202.19 -110.57,345.15l185.2 -13.73z"/>
  <path class="fil5" d="M2924.65 5160.66c-174.2,-136.53 -91.63,-202.47 -67.2,-421.34 -126.45,47.41 -155.12,47.3 -141.65,328.56l208.85 92.78z"/>
  <path class="fil6" d="M14607.19 11839.7c-72.95,244.26 -143.26,486.94 -227.07,736.32 -46.38,138.01 -78.4,232.96 -129.27,358.64 -31.76,78.43 -123.77,291.07 -132.14,383.37 68.81,36.84 95.69,23.62 195.94,24.3 -26.64,-418.62 54.56,-390.66 167.32,-691.38 124.39,-331.73 104.36,-499.46 323.13,-575.82 -53.71,393.84 -262.24,806.83 -393.8,1140.9l355.46 -114.33c-139.93,268.05 -255.32,319.65 -354.54,700.07 -59.07,226.54 -196.48,678.81 -21.92,866.8 411.59,-171.59 -69.6,-1040.51 575.82,-1296.91 19.34,191.7 53.91,387.13 156.17,499.13 171.39,-108.06 7.77,-162.88 318.5,-233.98l234.25 -508.52c27.19,-123.41 -30.48,-222.98 -87.29,-302.72 -65.9,-92.53 -105.35,-132.72 -158.87,-247.74 -78.47,-168.64 -159.4,-429.79 -198.15,-624.84l-56.52 -44.29 -75.38 216.43 174.43 499.65c-37.54,264.21 129.94,73.66 175.8,590.8 -90.17,-48.14 -176.84,-148.47 -285.18,-237.03 -115.61,-94.48 -133.19,-177.9 -162.25,-369.79 -38.93,-172.54 -68.07,-344.4 -14.29,-510.1 28.21,-83.72 3.74,-141.48 -15.44,-254.98l-38.86 -204.37c-20.05,-61.17 -7.81,-29.99 -27.63,-60.76 -203.74,42.38 -91.73,127.33 -223.27,204.49l-74.95 56.66z"/>
  <path class="fil6" d="M15577.52 13975.09l11.3 128.99c75.1,23.35 53.74,-36.28 114.52,67.65 146.4,250.31 -158.33,313.19 -229.54,421.81 -73.28,-157.89 -73.06,-143.54 -309.55,-153.33 30.69,219.97 92.2,380.45 43.98,593.67 -178.38,70.31 -478.66,46.06 -694.41,27.39 47.97,-60.51 80.89,-58.85 165.61,-104.23 -157.99,-20.31 -321.56,-5.04 -472.64,-47.7 -300.03,-84.69 -210.1,-216.43 -331.59,-116.04 -169.64,61.53 -17.63,-65.81 -460.89,-65.81 0,56.88 -7.16,171.04 -1.76,220.47 18.82,172.17 -36.59,13.65 425.36,169.18 123.63,41.63 203.53,78.76 336.04,97.7l813.58 81.14c172.02,15.36 236.46,48.19 387.77,-17.23 373.72,-161.58 274.29,-369.34 506.09,-388.63 0,411.17 -103.67,207.61 -162.66,460.79 74.48,-49.88 176.17,-125.39 236.9,-196.83 81.23,-95.53 116.05,-171.7 116.83,-343.98 0.82,-182.69 43.75,-749.17 -28.41,-854.54 -74.36,38.31 -71.65,44.39 -101.08,146.78 -99.8,-39.73 -79.61,-53.26 -155.92,-120.03 -63.68,-55.71 -83.2,-43.39 -146.19,-122.07l-63.34 114.85z"/>
  <path class="fil6" d="M16884.36 20392.44c-64.84,167.81 -11.35,200.05 54.35,298.15l417.62 0c76.36,-186.17 105.45,-183.88 -143.69,-243.79 16.28,-38.01 57.06,-109.05 84.67,-152.09 44.28,-69 -24.22,-54.22 132.73,-88.92 144.03,-31.84 268.71,2.05 366.34,58.47 -137.12,130.41 -88.91,204.6 -301.62,286.05l56.02 140.28 282.58 0 13.75 -579.34c0.2,-66.94 11.06,-30.83 -13.75,-57.48 -157.91,-14.76 -338.94,55.35 -515.23,55.6 -165.49,0.23 -314.82,-43.39 -457.89,-83.84l24.12 366.91z"/>
  <path class="fil6" d="M1806.03 3014.32l-222.72 -78.45 47.24 280.7c-251.4,-42.54 -198.47,-108.36 -353.46,-203.49 13.68,79.24 -38.3,61.46 -4.56,141.62 39.75,94.47 57.49,17.79 84.9,172.05 189.78,-54.8 400.62,60.08 640.02,70.99 71.18,-40.49 158.93,-81.73 212.78,-114.1 83.13,-49.95 133.38,-88.73 224.23,-136.3 75.74,86.18 113.29,103.79 231.93,164.73 -60.42,-177.23 -88.14,-146.62 -221.89,-293.93l22.76 -91.89c-260.92,84.45 -350.23,160.42 -661.23,88.07z"/>
  <path class="fil6" d="M17715.92 18522.29c-9.97,102.73 -72.06,162.19 -71.4,244.22 0.88,110.73 60.1,91.57 76.13,207.34 157.38,-38.3 202.7,-66.11 374.57,-32.9l38.46 307.73c133.72,-92.01 166.94,-212.32 246.92,-342 127.3,-206.43 103.42,-147.37 103.42,-460.41l-70.39 -26.82c-64.21,98.84 -156.34,175.6 -312.3,206.12 -290.93,56.95 -215.49,-35.95 -385.41,-103.28z"/>
  <path class="fil6" d="M693.67 2668.13l454.99 61.04c-31.15,-203.28 -180.6,-278.18 -211.7,-487.61l-189.42 5.9 -53.87 420.67z"/>
  <path class="fil6" d="M2069.29 1672.75c22.12,300.27 135.45,215.45 366.82,172.1l-14.79 -135.39 -221.79 5.83c79.29,-50.68 143.79,-57.18 181.24,-133.72l-125.35 -14.69c-75.39,19.17 -134.62,44.53 -186.13,105.87z"/>
  <path class="fil7" d="M807.36 5075.1c-35.25,57.45 -6.36,13.39 -27.24,55.99 -2.96,6.04 -4.08,75.43 -17.74,35.37 -1.29,-3.77 -5.34,11.63 -8.78,16.99 319.41,644.23 -82.58,1943.08 83.23,2738.78 43.19,207.25 83.72,421.52 133.34,625.64 23.7,97.47 50.84,213.42 78.11,301.38 32.74,105.62 62.97,173.25 90.93,288.55 69.63,287.02 85.78,837.99 214.5,924.67 111.97,75.39 177.92,30.06 321.66,30.06 -104.85,143.07 -281.5,-50.89 -252.67,192.79 31.31,264.84 117.94,50.49 164.25,383.51 64.36,462.68 2.96,370.78 158.49,871.53 68.08,219.22 6.46,90.88 180.89,198.74l83.14 54.28c13.13,6.04 113.33,31.94 126.92,33.88l8.82 -21.6c-27.81,-538.57 -369.85,-546.61 -469.49,-628.93 -26.67,-683.83 -49.77,-672.46 193.94,-759.38 22.99,-65.47 39.64,-111.85 98.01,-141.02 65.52,-32.74 59.35,-12.18 113.06,-27.44 104.8,-29.79 39.06,33.06 87.4,-47.93 -17.46,-111.06 -78.93,-277.78 -110.1,-382.58 -18.76,-63.07 -42.22,-138.09 -50.07,-193.79 -16.39,-116.1 7.73,-119.76 -34.37,-212.23 -48.16,79.18 -57.39,204.3 -126.68,227.74 -4.87,1.65 -14.21,6.04 -20.38,7.9l-324.22 24.47c-124.94,-202.42 -282.77,-714.71 -345.02,-986.78 -133.88,-585.06 -345.81,-3352 -110.21,-3587.56 374.2,-236.48 670.88,115.54 982.76,196.04l-10.46 -174.37c-1.27,-271.11 -338.02,-241 -575.53,-188.23 -233.26,51.8 -395.17,134.08 -608.92,209.76 -34.81,-36.01 -31.56,67.12 -27.57,-66.23z"/>
  <path class="fil7" d="M4540.58 6704.41c12.85,-125.34 -50.37,-301.88 -84.06,-422.43 -43.06,-154.1 -76.92,-280.76 -232.74,-305.03 -74.82,45.5 -47.83,18.29 -78.08,115.13l-33.05 -33.2c-21.55,-15.51 154.59,-45.32 -294.39,-19.02l-41.96 325.65c139.02,76.88 167.24,235.55 297.14,355.05 123.43,113.55 454.02,-7.94 467.14,-16.15z"/>
  <path class="fil8" d="M20110.66 11014.11l0 0zm650.66 -587.51l0 283.93c-29.86,427.6 -222.39,737.26 -867.54,737.26 37.68,-78.5 51.53,-141.13 99.38,-225.9 46.5,-82.36 92.92,-115.76 117.5,-207.78 -46.78,31.32 -86.1,77.81 -137.92,6.42 -155.93,-214.81 200.37,-1171.53 219.26,-1422.76 122.44,-195.87 -281.28,-952.99 -323.57,-1230.96 384.13,96.23 169.4,-28.08 269.34,269.85 88.33,-241.79 321.8,-431.93 236.24,-739.63 -33.38,-120.07 -94.39,82.36 -110.19,-281.26l-202.95 -8.64c178.16,-105.85 318.2,87.46 456.46,-26.51 285.68,130.8 11.09,430.33 100.08,1083.72 56,411.23 36.34,116.7 34.84,560.2 -1.31,382.79 87.98,818.45 109.07,1202.06zm-596.43 506.2l0 0zm0 0c0,-127.8 4.83,-121.27 27.11,-216.85 17.38,27.39 34.12,-11.43 22.78,102.06l-49.89 114.79z"/>
  <path class="fil8" d="M16857.38 18983c-112.86,484.14 -28.9,728.93 -26.06,1056.01 1.82,210.05 -37.08,293.72 53.04,353.43l-24.12 -366.91c143.07,40.45 292.4,84.07 457.89,83.84 176.29,-0.25 357.32,-70.36 515.23,-55.6 0,-160.11 -24.72,-199.71 -26.95,-366.23 -1.53,-113.46 -18.8,-260.71 -39.39,-379.3l-205.14 -400.98 -704.5 75.74z"/>
  <path class="fil8" d="M17694.93 18004.03l-17.73 -12.35c35.15,94.82 22.75,387.59 38.72,530.61 169.92,67.33 94.48,160.23 385.41,103.28 155.96,-30.52 248.09,-107.28 312.3,-206.12l70.39 26.82c31.52,-410.27 81.33,-831.19 81.33,-1266.8 -111.92,121.41 -33.42,195.11 -231.66,297.88 -163.71,84.86 -314.86,47.89 -500.33,26.17 -13.38,20.28 -16.65,23.85 -32.04,67.25l-106.39 433.26z"/>
  <path class="fil8" d="M1583.31 2935.87l222.72 78.45 2.61 -184.18c177.21,-49.88 412.42,25.52 518.47,-341.47 -172.81,13.22 -568.38,133.05 -694.71,88.57 -109.18,-38.44 -330.6,-341.74 -336.24,-533.6 246.22,-4.46 442.43,-19.57 542.67,-191.02 -36.05,-105.77 -62.96,-109.08 -146.2,-156.55l-44.24 -24.3 -294.52 -83.79 1.98 -138.63c-124.56,56.49 -151.02,164.54 -159.17,351.59 -6.5,148.84 23.61,310.67 62.87,440.48 64.94,214.77 207.33,559.96 323.76,694.45z"/>
  <path class="fil8" d="M15440.79 13636.81c18.84,42.58 36.23,88.06 57.78,121.02 11.51,17.62 21.38,27.73 34.64,43.62l25.38 28.66c36.88,42.49 26.1,25.59 18.93,144.98l63.34 -114.85c62.99,78.68 82.51,66.36 146.19,122.07 76.31,66.77 56.12,80.3 155.92,120.03 29.43,-102.39 26.72,-108.47 101.08,-146.78 0,-255.87 96.81,-130.01 35.53,-428.68 -33.76,-164.59 -82.99,-253.22 -116.86,-398.59l-287.68 0 -234.25 508.52z"/>
  <path class="fil8" d="M2145.21 11805.66l-8.82 21.6c110.61,45.02 150.04,63.19 297.14,82.3 101.11,13.13 194.68,43.21 272.05,80.33l0 -389.27c-149.09,-162.27 -148.59,-403.1 -151.14,-657.87l-196.28 71.36c-2.02,130.84 -8.3,275.11 27.4,394.52 31.82,106.46 87.23,175.96 99.1,291.12l-131.66 19.22c-86.34,-194.23 39.66,-326.82 -189.63,-433.57 -73.6,134.27 -11.17,218.59 31.9,290.75 20.09,33.65 55.73,80.63 42.76,135.67 -22.54,95.54 -38.61,65.84 -92.82,93.84z"/>
  <path class="fil8" d="M4778.53 19301.18l123.01 -50.32c39.21,75.68 87.51,322.44 108.84,444.03l-73.83 62.06c61.1,60.9 183.52,98.36 291.25,96.43 82.31,-1.48 93.08,-2.91 143.55,-51.04 99.37,-94.77 -42.45,-34.4 72.4,-79.88 -131.74,-141.49 -224.24,-374.83 -323.89,-551.03 -19.31,-34.13 -24.19,-52.58 -45.04,-89.5 -29.44,-52.13 -6.11,-18.03 -33.44,-52.18 -38.66,-48.34 8.21,-3.9 -47.2,-46.77 11.73,116.26 21.28,118.9 -73.46,181.82 -105.61,70.15 -68.53,3.22 -142.19,136.38z"/>
  <path class="fil8" d="M1825.53 15662.63c-116.51,83.01 -95.7,161.08 -63.38,294.5l17.44 125.61c108.24,8.45 79.84,38.13 152.47,-14.23 56.12,-40.44 66.07,-80.89 106.98,-137.14 96.27,-132.45 129.94,-123.09 252.09,-200.99l19.28 -297.55c-124.55,15.23 -216.25,90.57 -287.41,184.91l-112.77 133.66c-34.93,36.11 -51.48,63.58 -80.48,98.22 -11.18,-110.47 -31.12,-86.12 -4.22,-186.99z"/>
  <path class="fil8" d="M17356.33 20690.59l194.45 0 -56.02 -140.28c212.71,-81.45 164.5,-155.64 301.62,-286.05 -97.63,-56.42 -222.31,-90.31 -366.34,-58.47 -156.95,34.7 -88.45,19.92 -132.73,88.92 -27.61,43.04 -68.39,114.08 -84.67,152.09 249.14,59.91 220.05,57.62 143.69,243.79z"/>
  <path class="fil8" d="M15273.26 12624.78l-271.63 -16.02c29.06,191.89 46.64,275.31 162.25,369.79 108.34,88.56 195.01,188.89 285.18,237.03 -45.86,-517.14 -213.34,-326.59 -175.8,-590.8z"/>
  <path class="fil8" d="M17720.65 18973.85l0.19 186.21c110.73,76.48 243.81,68.4 412.84,88.62l-38.46 -307.73c-171.87,-33.21 -217.19,-5.4 -374.57,32.9z"/>
  <path class="fil9" d="M17566.56 3335.34c187.34,40.69 289.62,-24.88 433.65,-73.75 -89.91,81.84 -287.57,167.32 -465.22,141.83 -79.89,-11.47 -142.11,-64.73 -203.91,-100.49 -88.49,-51.23 -97.62,-42.72 -93.5,-173.5 115.33,37.13 38.39,19.33 150.78,116.2 50.86,43.83 104.5,73.7 178.2,89.71zm311.45 -544.96c-65.43,147.53 -190.36,175.16 -337.82,90.04 -72.97,-42.14 -70.21,-60.39 -91.15,-94.94 -83.64,-92.21 -245.96,-122.93 -309.24,-460.77 133.74,-36.43 212.31,-81 314.02,-125.52 75.49,230.25 -5.2,375.28 163.68,422.77 204.15,57.41 211.66,-57.84 215.73,-64.62 69.7,-140.31 -4.48,-248.77 -38.48,-374.35l317.69 88.38c65.41,317.21 -26.42,383.04 -234.43,519.01zm-558.3 -912.69c86.23,-396.29 47.04,-535.16 351.31,-515.46 235.01,15.23 202.28,121.63 371.2,460.66l-347.06 114.44 8.45 538.12c-212.3,-234 109.14,-504.05 -383.9,-597.76zm-152.46 1512.02c-9.45,306.7 -105.84,222.73 -128.42,401.25 -15.34,121.2 18.4,25.5 57.48,153.58 16.85,55.26 18.36,160.46 35.69,232 66.54,274.7 262.72,432.79 355.18,689.52 368.02,720.28 -30.56,1351.19 595.42,1568.47 180.01,-775.2 -39.07,-1313.19 327.74,-2434.19 155.57,-475.47 6.88,-357.27 -101.8,-685.69l-60.05 -204.04 -138.82 69.07c207.81,-253.69 291.08,-485.35 267.25,-948.53 -46.59,-905.56 -664.93,-1309.43 -1216.19,-888.32 -231.42,176.79 -235.24,597.09 -237.67,963.71 -117.31,-70.92 -108.93,-132 -189.82,-254.83 -61.12,592.04 426.35,348.82 434.01,1338z"/>
  <path class="fil9" d="M1973.59 9412.36c0,-498.74 -419.83,-1292.6 -323.94,-2489.72 19.76,-246.76 77.14,-594.25 201.63,-733.22 23.67,-107.24 -32.2,-361.62 73.25,-404.36 -12.88,-142.08 -4.81,-263 56.23,-375.21 48.99,-90.1 118.56,-172.76 38.62,-290.05l10.46 174.37c-311.88,-80.5 -608.56,-432.52 -982.76,-196.04 -235.6,235.56 -23.67,3002.5 110.21,3587.56 62.25,272.07 220.08,784.36 345.02,986.78l324.22 -24.47c6.17,-1.86 15.51,-6.25 20.38,-7.9 69.29,-23.44 78.52,-148.56 126.68,-227.74z"/>
  <path class="fil9" d="M14607.19 11839.7l74.95 -56.66c131.54,-77.16 19.53,-162.11 223.27,-204.49 19.82,30.77 7.58,-0.41 27.63,60.76l38.86 204.37c19.18,113.5 43.65,171.26 15.44,254.98l111.49 26.47 75.38 -216.43 56.52 44.29c10.05,-77.54 103.25,-181.47 37.62,-325.52 -19.59,-43.03 -121.75,-40.17 -39.26,-316.62 38.46,-128.85 73.02,-137.08 100.2,-306.8 26.96,-168.32 -17.15,-271.27 -2.76,-381.79 28.15,-216.17 133.4,-463.23 202.42,-638.14 34.08,-86.36 184,-527.82 244.54,-596.32 8.33,-120.98 79.02,-202.47 140.77,-273.74l67.48 166.15c281.6,23.48 171.67,-5.56 293.1,-97.74 -77.65,-46.89 -131.94,-55.37 -191.83,-104.69 -48.77,-40.18 -91.52,-95.63 -145.39,-142.44 28.02,-120.77 69.29,-159.19 106.47,-259.58l134.33 -683.62c-100.59,-42.57 -32.32,-55.05 -203.35,-39.19l-713.18 115.68 37.12 -334.23c-101.56,105.4 33.24,15.12 -105.8,369.06 -205.08,522.07 -181.77,1734.01 -392.77,2317.82 -61.73,170.79 -123,285.64 -171.98,478.58l-171.47 765.18c12.13,103.92 83.58,55.68 150.2,174.66z"/>
  <path class="fil9" d="M14118.71 13318.03c-194.21,131.53 -34.77,80.8 -172.27,288.07 -135.89,204.81 -52.13,181.48 -252.8,424.88 -108.53,131.64 -209.79,295.71 -225.11,479.68l318.14 168.95c83.82,48.89 65.59,9.69 88.53,113.69 121.49,-100.39 31.56,31.35 331.59,116.04 151.08,42.66 314.65,27.39 472.64,47.7 -84.72,45.38 -117.64,43.72 -165.61,104.23 215.75,18.67 516.03,42.92 694.41,-27.39 48.22,-213.22 -13.29,-373.7 -43.98,-593.67 236.49,9.79 236.27,-4.56 309.55,153.33 71.21,-108.62 375.94,-171.5 229.54,-421.81 -60.78,-103.93 -39.42,-44.3 -114.52,-67.65l-11.3 -128.99c7.17,-119.39 17.95,-102.49 -18.93,-144.98l-25.38 -28.66c-13.26,-15.89 -23.13,-26 -34.64,-43.62 -21.55,-32.96 -38.94,-78.44 -57.78,-121.02 -310.73,71.1 -147.11,125.92 -318.5,233.98 -102.26,-112 -136.83,-307.43 -156.17,-499.13 -645.42,256.4 -164.23,1125.32 -575.82,1296.91 -174.56,-187.99 -37.15,-640.26 21.92,-866.8 99.22,-380.42 214.61,-432.02 354.54,-700.07l-355.46 114.33c131.56,-334.07 340.09,-747.06 393.8,-1140.9 -218.77,76.36 -198.74,244.09 -323.13,575.82 -112.76,300.72 -193.96,272.76 -167.32,691.38 -100.25,-0.68 -127.13,12.54 -195.94,-24.3z"/>
  <path class="fil9" d="M2255.42 1566.88l125.35 14.69c-37.45,76.54 -101.95,83.04 -181.24,133.72l221.79 -5.83 14.79 135.39c-231.37,43.35 -344.7,128.17 -366.82,-172.1l-420.9 -0.98 44.24 24.3c83.24,47.47 110.15,50.78 146.2,156.55 -100.24,171.45 -296.45,186.56 -542.67,191.02 5.64,191.86 227.06,495.16 336.24,533.6 126.33,44.48 521.9,-75.35 694.71,-88.57 -106.05,366.99 -341.26,291.59 -518.47,341.47l-2.61 184.18c311,72.35 400.31,-3.62 661.23,-88.07l52.91 -346.07c21.02,-199.47 73.11,-454.86 69.55,-645.5 -5.41,-289.73 -134.13,-341.98 -225.92,-487.86l-86.11 8.17 -22.27 111.89z"/>
  <path class="fil9" d="M5375.31 10410.9c21.94,12.83 48.73,64.96 95.56,108.93 79.71,-54.49 72.16,-94.69 201.02,-173.96 -9.63,247.03 -51.63,217.47 -128.99,397.19l95.24 31.34 266.5 63.01c7.05,-376.62 213.63,-242 85.46,-613.3 -60.71,-175.85 -149.33,-400.31 -289.89,-496.39 -222.09,-151.79 -277.91,-90.87 -435.05,-351.09 -126.64,-209.73 -159.6,-301.43 -370.58,-422.5 14.82,490.81 -125.26,322.15 133.84,767.33 98.38,169.04 93.74,145.21 214.2,274.05 95.49,102.11 114.64,239.37 132.69,415.39z"/>
  <path class="fil9" d="M1869.66 10417.35c-243.71,86.92 -220.61,75.55 -193.94,759.38 99.64,82.32 441.68,90.36 469.49,628.93 54.21,-28 70.28,1.7 92.82,-93.84 12.97,-55.04 -22.67,-102.02 -42.76,-135.67 -43.07,-72.16 -105.5,-156.48 -31.9,-290.75 229.29,106.75 103.29,239.34 189.63,433.57l131.66 -19.22c-11.87,-115.16 -67.28,-184.66 -99.1,-291.12 -35.7,-119.41 -29.42,-263.68 -27.4,-394.52l196.28 -71.36c2.55,254.77 2.05,495.6 151.14,657.87 30.27,-36.77 31.45,-129.1 28.88,-178.02l-128.59 -579.86c-64.75,-149.87 -258.87,-471.46 -419.75,-506.26 69.81,270.38 208.84,600.94 142.81,911.71 -242.27,-104.96 -235.47,-32.83 -321.34,-323.27 -42.1,-142.37 -115.99,-384.02 -137.93,-507.57z"/>
  <path class="fil9" d="M19868.43 8366.81c384.13,96.23 169.4,-28.08 269.34,269.85 88.33,-241.79 321.8,-431.93 236.24,-739.63 -33.38,-120.07 -94.39,82.36 -110.19,-281.26l-202.95 -8.64c-173.14,-12.03 -279.84,71.6 -376.03,182.89l183.59 576.79z"/>
  <path class="fil9" d="M1997.45 3397.74c66.23,163.92 92.65,139.41 247.89,243.54 106.38,71.36 210.32,144.93 328.69,201.82 17.33,-134.39 86.92,-164.79 154.44,-228.66l-47.85 -315.3 -14.23 12.93c-118.64,-60.94 -156.19,-78.55 -231.93,-164.73 -90.85,47.57 -141.1,86.35 -224.23,136.3 -53.85,32.37 -141.6,73.61 -212.78,114.1z"/>
  <path class="fil9" d="M1928.36 15348.13c-35.5,129.23 -97.99,190.44 -102.83,314.5 -26.9,100.87 -6.96,76.52 4.22,186.99 29,-34.64 45.55,-62.11 80.48,-98.22l112.77 -133.66c71.16,-94.34 162.86,-169.68 287.41,-184.91 25.86,-132.32 3.32,-204.34 -33.67,-331.34 -44.5,-152.82 -27.01,-177.4 -173.7,-212.54l-174.68 459.18z"/>
  <path class="fil9" d="M4778.53 19301.18l-275.72 67.57c43.9,180.95 42.06,153.36 173.49,245.86 72.54,51.06 153.83,128.12 260.25,142.34l73.83 -62.06c-21.33,-121.59 -69.63,-368.35 -108.84,-444.03l-123.01 50.32z"/>
  <path class="fil13" d="M3749.64 7138.1c86.11,-133.36 135.18,-123.79 326.8,-170.84 143.28,-35.18 276.91,-75.82 421.67,-102.26l51.11 281.3c-452.23,-5.78 -244.95,18.37 -417.25,58.3 -121.68,28.21 -313.2,7.09 -382.33,-66.5zm-339.18 -684.44c-53.61,-82.03 -44.05,-146.6 -27.47,-243.4 106.91,-54.37 189.79,-74.62 346.41,-71.5 101.3,465.79 -104.97,376.2 33.49,582.89 102.83,-121.08 -67.93,-99.05 131.66,-176.66l58.38 288.31c-168.63,16.24 -334.96,9.86 -452.79,-54.36 -30.52,-205.28 140.53,-293.48 67,-502.14 -84.37,126.53 12.16,130.62 -156.68,176.86zm683.59 -577.28c-142.37,-39.82 -118.42,-57.68 -167.83,-175.81 -48.99,71.29 -55.88,176.28 -86.66,262.46 -189.84,-97.4 -221.96,-478.35 -183.37,-688.8 127.51,32.38 85.72,69.93 183.23,147.15l55.32 -213.44 193.86 2.15c38.25,111.06 -5.54,206.83 -22.1,306.84 -35.61,215.08 28.88,164.36 27.55,359.45zm-1169.4 -715.72l-208.85 -92.78c-13.47,-281.26 15.2,-281.15 141.65,-328.56 -24.43,218.87 -107,284.81 67.2,421.34zm517.88 250.47l240.88 609.6c-180.14,-41.54 -193.65,-78.11 -330.59,-136.99l18.05 184.7 -171.12 44.79 -42.46 -707.84 106.24 -29.95c-93.46,-113.54 -208.96,-131.2 -338.88,-214.78l242.76 35.79c-35.92,-99.46 -49.35,-64.61 -75.27,-154.85 -104.27,-363.09 26.69,-37.29 -191.31,-425.46 573.68,-218.15 948.66,69.73 759.17,439.58 -68.84,134.34 -125.47,137.63 -189.48,190.55 -65.52,54.17 -62.94,16.76 -27.99,164.86zm-2478.31 -1498.4c-53.52,162.39 -135.18,320.62 -151.94,517.13 -17.41,204.18 5.5,429.87 -4.92,645.24 -3.99,133.35 -7.24,30.22 27.57,66.23 213.75,-75.68 375.66,-157.96 608.92,-209.76 237.51,-52.77 574.26,-82.88 575.53,188.23 79.94,117.29 10.37,199.95 -38.62,290.05 -61.04,112.21 -69.11,233.13 -56.23,375.21 157.09,182.86 174.54,278.25 301.56,450.24 159.86,216.43 51.94,-105.38 340.14,445.72 93.8,179.37 154.69,122.53 370.6,144.55 -265.35,183.41 -53.62,44.8 -267.2,142.9 -4.54,2.08 -13.47,5.93 -19.22,10.39 63.82,47.69 121.62,73.65 205.07,91.28l-104.88 88.41c-44.48,24.65 -72.03,32.51 -126.36,46.78 47.82,72.12 63.25,176.57 26.46,255.8 -46.84,100.89 -54.62,4.23 -51.3,135.65 1.53,60.2 27.72,91.85 51.95,132.67 151.48,-104.17 174.86,-174.36 445.45,-203.28 221.83,-23.71 450.27,-16.66 669.53,-10.42 198.77,5.65 409.64,-5.73 584.29,65.91 183.17,75.13 91.53,153.29 469.59,208.62 -11.82,-145.72 -95.93,-410.37 -130.37,-548.96l-149.26 -536.91c-13.12,8.21 -343.71,129.7 -467.14,16.15 -129.9,-119.5 -158.12,-278.17 -297.14,-355.05l41.96 -325.65c448.98,-26.3 272.84,3.51 294.39,19.02l33.05 33.2c30.25,-96.84 3.26,-69.63 78.08,-115.13 19.15,-245.68 166.7,-381.91 164.91,-709.43 -2.19,-401.62 -246.24,-324.37 -246.24,-613.81l-50.97 38.26c-204.34,-168.87 -329.05,-252.61 -621.63,-378.58 -213.94,-92.12 -496.04,-230.67 -590.74,-389.93 -103.75,1.75 -173.14,-27.09 -275.14,-63.63l-29.94 -16.73c-118.37,-56.89 -222.31,-130.46 -328.69,-201.82 -155.24,-104.13 -181.66,-79.62 -247.89,-243.54 -239.4,-10.91 -450.24,-125.79 -640.02,-70.99 -30.89,160.41 -124.98,215.44 -199.68,312.61 -62.15,80.84 -133.83,223.57 -193.53,273.37z"/>
  <path class="fil13" d="M16178.42 7992.14l-134.33 683.62c130.58,-261.48 458,-886.58 494.86,-1192.72 -111.3,-61.21 -175.27,-171.14 -378.35,-100.77l17.82 609.87z"/>
  <path class="fil13" d="M3383.23 5135.06c170.46,47.41 204.23,-16.02 242.72,-174.94 -143.46,41.03 -203.91,49.8 -242.72,174.94z"/>
  <path class="fil0" d="M18708.6 7906.57c-5.66,387.02 118.78,625.72 111.68,995.86 -2.75,143.15 9.7,155.22 -115.5,174.55l-802.59 -28.65c26.97,-236.84 54.13,-360.85 63.2,-637.29 6.72,-204.23 26.18,-377.62 18.8,-610.6 -149.16,154.72 -68.02,97.54 -153.91,255.05 -2.27,4.17 -10.08,21.87 -11.79,17.74 -1.73,-4.18 -7.63,12.16 -12.23,17.63 -98.02,-62.15 -121.73,-169.8 -242.03,-220.31 -101.17,-42.48 -274.78,10.73 -417,5.48 -62.85,-110.21 -69.91,-121.11 -181.41,-182.42 -185.06,360.58 -158.95,631.46 -200.73,807.53l-46.14 124.92 -471.82 -119.42c112.2,99.88 40.11,144.48 353.45,294.8 639.43,306.75 764.17,381.21 1569.63,418.49l-88.52 530.01 126.97 -22.53 24.84 -560.29c120.8,18.06 241.72,35.12 378.68,59.08 164.63,28.79 179.66,81.74 332.72,104.1 27.72,-57.67 10.57,-80.3 54.23,-142.89 88.03,34.9 156.67,16.98 251.25,-17.19 106.01,-38.3 110.06,-33.99 136.17,-140.39 -71.6,7.63 -374.41,77.12 -429.92,5.61 -109.08,-140.51 93.37,-916.91 -248.03,-1128.87z"/>
  <path class="fil4" d="M17616.48 14104.08l-27.11 0c0,-157.66 -81.9,-544.79 -82.26,-866.44 -0.24,-214.18 -72.45,-1534.58 55.14,-1735.65 0,151.01 20.59,174.16 27.25,298.03 5.84,108.77 -10.95,245.19 2.93,349.8 19.98,150.73 51.28,89.34 32.7,252.8l-8.65 1701.46zm1092.12 -6197.51c341.4,211.96 138.95,988.36 248.03,1128.87 55.51,71.51 358.32,2.02 429.92,-5.61 -26.11,106.4 -30.16,102.09 -136.17,140.39 -94.58,34.17 -163.22,52.09 -251.25,17.19 -43.66,62.59 -26.51,85.22 -54.23,142.89 -153.06,-22.36 -168.09,-75.31 -332.72,-104.1 -136.96,-23.96 -257.88,-41.02 -378.68,-59.08l-24.84 560.29 -126.97 22.53 88.52 -530.01c-805.46,-37.28 -930.2,-111.74 -1569.63,-418.49 -313.34,-150.32 -241.25,-194.92 -353.45,-294.8l471.82 119.42 46.14 -124.92c41.78,-176.07 15.67,-446.95 200.73,-807.53 111.5,61.31 118.56,72.21 181.41,182.42 142.22,5.25 315.83,-47.96 417,-5.48 120.3,50.51 144.01,158.16 242.03,220.31 4.6,-5.47 10.5,-21.81 12.23,-17.63 1.71,4.13 9.52,-13.57 11.79,-17.74 85.89,-157.51 4.75,-100.33 153.91,-255.05 7.38,232.98 -12.08,406.37 -18.8,610.6 -9.07,276.44 -36.23,400.45 -63.2,637.29l802.59 28.65c125.2,-19.33 112.75,-31.4 115.5,-174.55 7.1,-370.14 -117.34,-608.84 -111.68,-995.86zm-2169.65 -423.53c-36.86,306.14 -364.28,931.24 -494.86,1192.72 -37.18,100.39 -78.45,138.81 -106.47,259.58 53.87,46.81 96.62,102.26 145.39,142.44 59.89,49.32 114.18,57.8 191.83,104.69 -121.43,92.18 -11.5,121.22 -293.1,97.74l-67.48 -166.15c-61.75,71.27 -132.44,152.76 -140.77,273.74 -1.81,233.48 -71.39,392.25 -81.42,598.55l149.42 1555.54c77.36,232.87 34.14,-10.52 164.13,513.53 36.05,145.35 47.82,147.84 96.39,255.99 70.3,156.56 209.22,1580.11 248.75,1838.39 69.44,453.72 -65.34,812.88 -63.07,1254.96 3.88,755.92 179.33,1129.91 264.41,1796.34 32.81,256.95 -56.11,193.54 74.03,440.97 162.73,309.34 231.25,923.38 231.25,1340.93l704.5 -75.74 205.14 400.98c236.95,45.45 197.1,53.36 366.66,-59.56 -169.03,-20.22 -302.11,-12.14 -412.84,-88.62l-0.19 -186.21c-16.03,-115.77 -75.25,-96.61 -76.13,-207.34 -0.66,-82.03 61.43,-141.49 71.4,-244.22 -15.97,-143.02 -3.57,-435.79 -38.72,-530.61 -107.92,-465.11 -119.66,-1182.76 -145.81,-1688.41 -15.16,-293.14 -27.41,-600.39 -29.16,-898.18 -1.85,-316.35 -96.98,-566.14 56.1,-756.13 127.06,171.9 141.72,1292.18 183.42,1602.06 72.2,536.47 -23.16,1214.37 -46.82,1753.01l106.39 -433.26c15.39,-43.4 18.66,-46.97 32.04,-67.25 185.47,21.72 336.62,58.69 500.33,-26.17 198.24,-102.77 119.74,-176.47 231.66,-297.88 50.12,-132.16 69.5,-424.19 107.85,-582.34 42.88,-176.87 92.7,-376.11 129.54,-548.1 41.81,-195.17 78.94,-381.51 111.96,-566.41 73.58,-412.03 -152.07,-728.08 -72.43,-1210.11 16.6,-100.52 68.27,-149.67 90.94,-234.33 16.91,-63.12 23.08,-267.38 30.47,-321.91 58.19,-429.27 154.58,-718.2 240.89,-1114.41 139.45,-640.11 125.24,-477.16 196.89,-1158.39 45.15,-429.23 79.19,-825.37 132.5,-1222.79 60.12,-448.1 -27.27,-907.8 -46.34,-1294.16 -20.13,-407.94 -105.08,-881.83 -76.78,-1273.43l10.87 -135.52c-88.61,-73.62 -178.85,-124.27 -292.64,-153.42 -196.79,-50.43 -152.31,-98.94 -299.67,-165.5 -425.04,-192.01 -1857.91,-356.17 -2333.96,-6.84l43.51 291.23z"/>
  <path class="fil4" d="M16315.16 4052.09c299.03,-69.45 270.73,-122.46 405.58,-330.72 120.86,-186.66 163.22,-305.34 446.51,-331.66 -7.66,-989.18 -495.13,-745.96 -434.01,-1338 80.89,122.83 72.51,183.91 189.82,254.83 2.43,-366.62 6.25,-786.92 237.67,-963.71 551.26,-421.11 1169.6,-17.24 1216.19,888.32 23.83,463.18 -59.44,694.84 -267.25,948.53l138.82 -69.07 60.05 204.04c353.31,100.8 426.11,686.58 961.7,390.12 0,-393.7 -84.01,-188.29 -189.84,-388.43 -41.95,-79.35 -100.46,-384.16 -132.25,-491.19 -42.76,-143.94 -95.3,-327.81 -109.54,-486.78 -47.19,-526.87 -126.26,-953.06 -496.68,-1346.57 -204.84,-217.63 -372.55,-424.87 -859.58,-384.95 -667.6,54.71 -200.54,75.84 -527.32,313.38 -72.86,52.97 -131.47,72.51 -184.63,140.7 -103.06,132.19 -255.16,731.22 -293.18,953.71 -59.44,347.98 -62.28,739.84 -141.6,1078.16 -86.8,370.28 -299.28,746.15 -20.46,959.29z"/>
  <path class="fil4" d="M5375.31 10410.9l-380.52 -9.45c-224.79,368.39 -181.89,160.11 -514.36,298.06l284.32 112.22c19.03,-35.97 16.41,-52.14 24.99,-68.76l66.66 -88.34c184.49,220.55 129.35,450.9 89.7,757.63 -18.02,139.36 -45.73,798.16 -62.56,850.22 128.38,22.94 -1.64,-11.2 64.69,52.67 11.29,55.96 -17.19,-8.35 18.9,46.73 41.95,64.04 105.68,90.91 171.36,150.05 132.06,118.92 148.17,153.63 251.05,128.61l138.63 159.39c156.92,145.93 614.62,371.95 829.33,552.83 120.27,101.31 303.34,149.3 407.2,100.79 -196.05,-152.89 -488.99,-220.92 -623.55,-409.29 208.18,5.87 579.4,12.87 725.82,-78.6 -136.4,-74.38 -228.93,-16.85 -351.06,-67.9 -96.22,-40.21 15.35,-62.82 -347.65,-121.48 115.08,-275.47 -170.17,-314.67 -402.28,-352.78 77.43,-64.79 70.78,-34.66 172.26,-77.71 84.24,-35.72 90,-62.14 145.9,-101.68l-520.55 -34.19 99.13 -135.2c-182.79,-129.84 -240.24,82.93 -333.08,-518.25 -79.05,-511.91 -191.93,-70.38 -275.3,-605.27 152.08,46.48 179.09,166.32 289.84,242.7 61.93,42.71 99.15,40.4 163.61,80.01 136.27,83.74 37.19,50.65 98.64,174.34 351.87,-70 185.68,-270.5 -3.53,-420.28 27.43,-115.93 39.43,-120.14 104.27,-203.6l-69.03 -49.97 -95.24 -31.34c77.36,-179.72 119.36,-150.16 128.99,-397.19 -128.86,79.27 -121.31,119.47 -201.02,173.96 -46.83,-43.97 -73.62,-96.1 -95.56,-108.93z"/>
  <path class="fil4" d="M747.54 2247.46l189.42 -5.9c31.1,209.43 180.55,284.33 211.7,487.61l-454.99 -61.04 53.87 -420.67zm216.68 1665.27c59.7,-49.8 131.38,-192.53 193.53,-273.37 74.7,-97.17 168.79,-152.2 199.68,-312.61 -27.41,-154.26 -45.15,-77.58 -84.9,-172.05 -33.74,-80.16 18.24,-62.38 4.56,-141.62 154.99,95.13 102.06,160.95 353.46,203.49l-47.24 -280.7c-116.43,-134.49 -258.82,-479.68 -323.76,-694.45 -39.26,-129.81 -69.37,-291.64 -62.87,-440.48 8.15,-187.05 34.61,-295.1 159.17,-351.59l-1 -163.97c-122.7,68.33 -185.76,223.39 -218.51,363.39 -124.64,532.81 92.17,393.6 -519.33,522.02 -12.07,213.99 -48.63,946.82 54.93,1144.98 33.17,63.49 0.24,45.72 89.13,81.84 -63.78,99.71 -103.61,90.5 -183.68,151.01 -5.55,4.19 -13.45,11.75 -17.92,15.32 -40.84,32.64 -46.3,334.06 -52.47,402.45 151.35,-0.91 328.9,11.95 457.22,-53.66z"/>
  <path class="fil4" d="M1928.36 15348.13l174.68 -459.18c73.94,-186.62 -27.43,-399.86 -102.4,-544.46 -102.49,188.76 14.54,72.93 -166.53,189.37 -139.05,89.42 -491.37,467.56 -393.1,673.06 126.85,130.74 237.2,118.05 343.91,-24.21 18.27,132.31 12.22,145.33 143.44,165.42z"/>
  <path class="fil4" d="M2520.17 2580.18l-52.91 346.07 -22.76 91.89c133.75,147.31 161.47,116.7 221.89,293.93l14.23 -12.93 79.18 80.33c151.77,-40.26 340.17,-232.07 323.5,-471.01 -15,-214.91 -66.6,-113.12 -205.53,-376.17 -52.66,-99.71 -47.42,-89.07 -117.84,-132.16 -75.99,99.12 -83.44,119.8 -239.76,180.05z"/>
  <path class="fil4" d="M1406.82 16178.65l-18.46 104.71 -146.76 23.51c62.72,234.53 242.76,486.57 298.21,724.54 90.62,-2.01 199.17,-40.34 241.03,-84.34 123.24,-129.54 3.3,-345.28 1.82,-537.9 -0.83,-110.46 3.63,-215.64 -3.07,-326.43l-17.44 -125.61 -100.41 -17.74c-23.04,125.45 3.68,131.04 -100.06,164.5 -139.61,45.04 -62.92,-55.46 -154.86,74.76z"/>
  <path class="fil4" d="M2603.97 3859.83c102,36.54 171.39,65.38 275.14,63.63 129.92,5.42 65.39,-64.9 260.41,-27.17 121.04,23.42 204.19,44.56 333.21,51.46 -24.52,-294.84 -96.96,-344.44 -83.98,-719.77 -143.7,70.73 -155.74,188.47 -262.77,291.68 -101.77,98.12 -161.37,59.58 -224.77,192.2 -16.22,33.91 -9.09,52.85 -32.97,96.07l-244.33 -46.82c-35.25,47.36 -35.84,4.77 -19.94,98.72z"/>
  <path class="fil4" d="M18000.21 3261.59c-144.03,48.87 -246.31,114.44 -433.65,73.75 -73.7,-16.01 -127.34,-45.88 -178.2,-89.71 -112.39,-96.87 -35.45,-79.07 -150.78,-116.2 -4.12,130.78 5.01,122.27 93.5,173.5 61.8,35.76 124.02,89.02 203.91,100.49 177.65,25.49 375.31,-59.99 465.22,-141.83z"/>
  <path class="fil14" d="M16261.96 6787.65c66.51,90.38 39.82,209.79 -1.02,285.05 -26.86,-36.1 -23.21,0.3 -38.78,-69.14 -14.34,-63.99 -9.85,-158.72 39.8,-215.91zm1225.22 -1921.59c-98.04,28.72 -195.32,-93.4 -236.06,-207.53 -217.11,-608.18 -657.37,-204.88 -852,-223.94 -115.28,-11.28 -36.49,7.42 -87.61,-34.1 -35.6,-136.98 -3.56,-41.61 23.11,-88.24 32.68,-57.15 12.34,51 28.61,-68.86 -5.06,-5.67 -13.99,-10.75 -18.41,-13.44l-37.1 -23.03c-5.26,-2.6 -13.37,-6.02 -18.56,-8.21 -7.99,-3.36 -53.56,-10.78 -67.05,-15.06 -120.93,22.15 -213.84,77.73 -325.07,124.06 -177.81,74.04 -173.74,35.63 -283.26,177.59 -76.64,99.33 -166.03,125 -213.66,220.06 -130.94,261.37 34.46,292.12 -126.65,469.68 -167.19,184.27 -114.86,247.66 -156.03,521.66 -101.74,676.93 294.54,452 247.88,951.63 -12.12,129.7 -39.18,236.13 -25.03,407.43 16.51,199.9 75.46,163.26 9.84,308.19 -59.14,130.62 -89.06,181.89 -51.12,370.45l-37.12 334.23 713.18 -115.68c171.03,-15.86 102.76,-3.38 203.35,39.19l-17.82 -609.87c203.08,-70.37 267.05,39.56 378.35,100.77l-43.51 -291.23c476.05,-349.33 1908.92,-185.17 2333.96,6.84 147.36,66.56 102.88,115.07 299.67,165.5 113.79,29.15 204.03,79.8 292.64,153.42l-10.87 135.52c57.89,-14.8 58.98,-21.15 130.5,-27.11 27.74,119.08 9.47,181.89 29.5,295.77 17.4,98.9 65.2,92.43 124.88,200.4 204.93,370.76 362.81,971.06 469.32,1400.7l11.83 39.85c1.59,4.83 5.96,14.06 7.35,17.85 1.34,3.72 3.97,12.2 7.78,17.22 122.44,-195.87 -281.28,-952.99 -323.57,-1230.96l-183.59 -576.79c96.19,-111.29 202.89,-194.92 376.03,-182.89 178.16,-105.85 318.2,87.46 456.46,-26.51 0,-125.84 12.8,-349.58 -6.15,-463.49 -24.4,-146.62 -99.12,-213.86 -102.3,-412.59 -85.5,63.83 -32.43,70.39 -187.8,117.78l31.47 -508.73c-174.6,-14.09 -393.24,-19.92 -480.35,73.52 49.8,-101.59 108.89,-142.41 217.53,-183.08 -25.47,-109.69 -76.94,-186.85 -131.96,-265.66l288.03 -12.03 4.37 -252.48 -513.36 102.17c67.19,-65.9 125.07,-148.72 197.92,-214.81 107.99,-97.97 114.81,-79.4 133.56,-276 127.48,81.69 142.06,181.26 390.93,149.81 57.8,-118.66 6.11,-138.73 76.78,-140.21 -3.35,-8.23 -9.21,-28.35 -11.11,-24.21l-117.08 -470.91c-35.66,-207.81 -61.59,-323.17 -61.59,-561.84 -234.88,-157.26 -166.19,-143.68 -468.56,-263.38 -187.78,-74.33 -379.36,-128.57 -507.42,-269.71 -535.59,296.46 -608.39,-289.32 -961.7,-390.12 108.68,328.42 257.37,210.22 101.8,685.69 -366.81,1121 -147.73,1658.99 -327.74,2434.19 -625.98,-217.28 -227.4,-848.19 -595.42,-1568.47z"/>
 </g>
</svg>
