<?xml version="1.0" encoding="UTF-8"?>
<!DOCTYPE svg PUBLIC "-//W3C//DTD SVG 1.1//EN" "http://www.w3.org/Graphics/SVG/1.1/DTD/svg11.dtd">
<!-- Creator: CorelDRAW 2017 -->
<svg xmlns="http://www.w3.org/2000/svg" xml:space="preserve" width="301.625mm" height="160.867mm" version="1.1" style="shape-rendering:geometricPrecision; text-rendering:geometricPrecision; image-rendering:optimizeQuality; fill-rule:evenodd; clip-rule:evenodd"
viewBox="0 0 30162.48 16086.66"
 xmlns:xlink="http://www.w3.org/1999/xlink">
 <defs>
  <style type="text/css">
   <![CDATA[
    .fil0 {fill:#FEFEFE}
    .fil15 {fill:#662F23}
    .fil14 {fill:#685853}
    .fil4 {fill:#950606}
    .fil11 {fill:#A6985D}
    .fil12 {fill:#A82626}
    .fil17 {fill:#AF722C}
    .fil9 {fill:#AF8E30}
    .fil16 {fill:#B8AC4A}
    .fil10 {fill:#BAB7B4}
    .fil1 {fill:#C41A1A}
    .fil6 {fill:#CC332C}
    .fil8 {fill:#D38D2F}
    .fil5 {fill:#D3D1CE}
    .fil2 {fill:#DE4A4A}
    .fil13 {fill:#E2723B}
    .fil3 {fill:#E45D5B}
    .fil7 {fill:#EEEEEE}
    .fil18 {fill:#F2CC4E}
   ]]>
  </style>
 </defs>
 <g id="Capa_x0020_1">
  <metadata id="CorelCorpID_0Corel-Layer"/>
  <g id="_2214271934464">
   <path class="fil0" d="M453.43 12888.49l3883.55 696.61 22445.5 655.51 3103.05 -1235.22 51.49 -632.7 -1162.35 -382.28 -178.69 -720.18 -728.99 -543.8 -26.99 -681.26 1739.98 -522.2c1359.66,-1755.22 168.99,-3340.42 -1824.12,-4872.13l-23675.22 -359.8c-4165.16,3566.76 -6072.64,3359.81 -1168.89,6234.19l-2458.32 2363.26z"/>
   <path class="fil1" d="M4662.46 5547.37c127.95,94.38 779.06,48.89 975.05,43.77l-40.55 -14.93c-7.79,-2.58 -36.88,-10.33 -45.97,-13.43 -8.22,-2.82 -17.13,-4.94 -24.8,-7.69l-49.63 -21.61c-4.94,-11.28 -17.42,-7.18 -22.81,-4.2l431.99 -97.99 -437.94 29.85c12.74,-16.94 -9.42,-102.64 112.69,-80.4 -124.31,-29.34 -76.36,12.1 -97.63,-57.61 -33.39,-109.41 -4.8,-62.97 38.43,-93.7l-6.35 -147.78c1045.64,292.42 2619.78,479.64 3763.1,580.89 446.37,39.53 938.71,48.63 1373.46,105.76l-1023.28 492.84 -9.6 479.82 -550.88 306.37c61.26,47.89 92.95,40.29 93.21,40.35l257.73 19.55c31.33,142.49 74.38,323.1 32.96,459.72 -81.02,149.22 -412.21,135.75 -520.67,53.52 -58.54,23.97 -473.76,254.11 -543.81,328.81l428.76 33.34c19.72,164.89 68.93,354.1 15.67,509.15 -100.28,116.15 -481.09,110.85 -590.01,53.15 -97.87,35.66 -480.76,253.04 -533.39,332.59 98.74,46.94 312.09,45.76 447.57,51.73 27.37,147.17 67.21,331.94 39.1,476.03 -52.1,77.47 -166.06,169.71 -265.77,178.7l-262.23 -55.38c-151.1,-33.39 75.22,28.4 -48.36,-10.57 -89.38,-28.19 -5.5,22 -63.04,-30.17l-640.71 407.21 233.61 38.22c107.2,10.32 157.62,24.18 289.84,22.78 28.13,181.08 89.83,364.57 27.65,540.71 -56.72,58.95 -243.67,175.68 -306.77,178.94 -90.97,4.69 -347.63,-82.79 -396.11,-118.6 -124.17,45.23 -151.74,96.48 -271.57,154.38 -62.06,39.32 -128.41,84.08 -199.51,131.14 -40.29,26.67 -61.26,35.16 -104.93,66.51 -74.84,53.72 -43.99,16.39 -92.54,92.8l568.86 75.43c71.28,351.59 113.22,503.02 -119.18,677.04 -191.43,143.34 -634.53,-1.7 -675.88,-26.86 -135.54,54.62 -168.53,130.91 -304.67,181.23 -122.37,113.08 -298.52,161.11 -393.17,311.27 19.64,0.07 165.99,23.17 173.43,26.12l28.42 15.75c91.49,54.18 -8.45,35.12 99.55,37.24l62.56 4.32c4.12,0.21 12.72,1.57 16.99,1.63 111.61,1.74 84.9,-38.78 242.49,-10.25 80.79,14.63 90.95,524.83 89.92,528.53 -20.34,73.22 -372.59,305.32 -379.29,307.3 -16.96,5.02 -81.93,0.39 -115.86,-9.74 -78.61,-23.46 -307.3,-109.51 -418.96,-56.77l-39.05 -66.51c-138.4,44.13 -175.17,129.14 -333.94,194.8 -43.02,61.1 -125.47,107.5 -194.2,154.09l-150.59 108.93c-73.85,72.61 -17.63,7.47 -58.51,71.97 168.67,90.11 151.09,43.18 338.56,60.83 198.99,18.74 199.06,74.62 353.47,50.33 38.28,268.67 73.05,556.38 55.42,804.86 -64.43,108.97 -625,535.09 -740.08,629.25l-130.81 100.85c-48.15,39.63 -67.72,44.43 -76.15,119.91 239.19,0 246.65,-12.63 379.67,-136.12 47.64,-44.22 73.54,-59.9 125.76,-102.27l671.23 -565.87c0,-393.21 -24.24,-403.89 -31.21,-632.22 -7.85,-257.4 169.28,-267.86 424.74,-495.4 666.62,-593.75 496.25,-164.1 496.25,-997.8 0.7,-0.04 40.3,-7.67 45.95,-7.83 116.9,-3.28 76.93,38.41 154.97,7.83l0 258.37c22.4,16.71 110.06,286.71 -79.89,439.7l-633.66 514.87c-152.36,122.05 -199.78,140.26 -160.06,386.72l14.74 414.7c-4.23,87.73 6.02,69.34 -25.02,137.56 -44.33,97.44 -854.21,700.62 -924.23,835.21 104.91,-7.4 80.38,-7.07 158.53,-35.13l484.76 -440.96c85.94,-74.18 59.47,-92.6 148.16,-166.91 152.67,-127.93 244.63,-100.13 235.33,-389.58 -2.7,-84.13 -55.69,-576.83 28.85,-588.67l218.6 24.88c186.95,42.94 454.81,41.15 599.09,61.08l2201.32 232.06c318.17,19.77 141.34,-27.61 531.58,46.62 200.36,38.11 174.81,-37.54 309.35,-15.05 229.42,38.35 402.16,28.41 567.96,30.99 59.27,0.93 157.21,5.26 166.99,5.84l481.42 57.36c139.86,18.08 215.76,-0.99 333.23,10.58 492.12,48.47 225.26,-24.32 406.6,-14.18 110.31,6.16 68.29,18.52 174.52,15.02 671.3,-22.11 1344.03,49.12 2039.38,34.82l1846.11 -11.56c336.49,27.04 1245.82,-35.43 1618.31,-39.8l1963.74 -91.74c224.48,-3.52 279.57,-38.01 430.33,-34.16l2737.39 -252.68c330.93,-5.68 1262.99,-126.5 1598.18,-192.41l797.66 -86.46c75.75,-8.65 56.16,-3.56 129.93,-23.9 173.2,-47.74 1083.5,-138.63 1135.56,-220.83 -201.39,-133.32 -551.39,-331.41 -714.99,-483.54 -79.03,15.92 -42.95,-8.97 -102.8,-3.05l-763.6 113.43c-276.49,51.98 -513.53,155.77 -933.16,158.96 -599.96,4.56 -757.09,82.24 -1272.5,160.06 -182.03,27.48 -510.58,10.71 -669.11,49.68 -205.14,50.41 -415.01,43.43 -632.18,80.44 -215.12,36.66 -429.82,53.08 -646.56,73.46 -230.47,21.67 -430.1,27.71 -682.64,33.35 -531.3,11.87 -219.11,-4.18 -646.56,62.08 -97.41,15.1 -481.56,22.17 -645.04,21.59 -483.66,-1.7 -398.85,46.99 -658.92,46.92 -493.05,-0.13 -914.26,37.33 -1407.68,38.47 -239.09,0.55 -479.91,-2.54 -718.08,1 -248.83,3.7 -408.78,42.33 -688.35,24.61 -5.37,7.01 -14.16,8.68 -16.33,20.86l-41.07 68.59 -28.71 -89.87c-374.34,11.25 -862.51,17.29 -1147.35,2.4 -105.02,-5.49 -174.64,2.64 -272.48,7.68 -53.07,2.73 -169.77,-5.4 -272.87,-4.9 -228.05,1.12 -421.96,-27.37 -603.5,-33.68 -41.39,45.94 -56.7,-71.21 -40.14,82.67 -84.37,-147 -4.78,-50.06 -346.73,-92.5l-757.29 -5.56c-93.99,-1.22 -269.62,-31.86 -390.73,-48.49 -244.93,-33.63 -492.77,24.44 -765.49,-39.04 -267.31,-62.21 -463.96,-24.61 -799.96,-30.37l-1183.82 -112.85c-154.44,-18.07 -298.14,-4.43 -452.59,-8.92 -252.15,-7.33 -460.72,-127.67 -716.37,-135.79l-549.8 -52.13c-135.17,4.29 -32.87,8.58 -139.58,40.55 47.72,-4.1 137.6,-122.38 272.05,-220.92 -3.64,-176.38 -65.06,-481.09 14.98,-627.69 111.66,-23.65 203.44,40.57 377.34,47.63l1478.05 119.64c387.66,58.15 734.72,0.31 1394.26,131.3l4155.94 100.9c703.12,2.97 1165.88,-1.68 1775.03,-2.46 293.49,-0.38 628.52,-50.95 979.1,-40.93 607.16,17.35 1410.74,-45.37 2010.6,-85.79 393.75,-26.53 553.29,-10.14 968.26,-65.17 157.38,-20.88 317.61,-22.22 471.68,-26.9 114.49,-3.48 237.26,17.21 368.46,9.69l740.37 -60.12c133.52,-27.89 160.68,-38.3 206.39,31.98 144.74,-139.82 14.88,-14.13 357.22,-93.88 295.62,-68.86 1768.58,-239.92 2147.23,-284.24 78.31,-9.16 181.05,1.33 221.87,-1.81l689.29 -83.13 28.85 -74.99c-69.73,-74.68 -481.92,-283.44 -659.15,-445.99 -10.91,4.24 -51.64,5.78 -71.51,8.48l-1344.79 202.29c-179.73,32.35 -338.82,24.91 -524.06,51.19 -171.26,24.3 -342.62,29.14 -498.22,53.08 -755.11,116.19 -772.5,8.4 -1177.96,41.79 -244.93,20.17 -64.92,91.84 -273.63,-8.27 -71.72,139.65 -147.62,125.12 -269.52,134.83 -800.4,63.75 -1999.31,163.02 -2787.49,165 -541.8,1.36 -1065.53,47.2 -1607.35,54.05 -562.74,7.11 -1131.42,11.42 -1693.45,8.03 -544.08,-3.28 -1123.04,-27.34 -1635.46,-30.11 -788.63,-4.25 -1635.45,-74.67 -2441.31,-94.21l-774.66 -56.38c-245.26,-12.09 -511.76,-66.17 -744.95,-74.02 -163.44,-5.5 -261.28,-26.59 -402.09,-32.13 -404.03,-15.89 -188.52,-31.96 -344.8,-85.59 -138.65,76.36 -345.52,-6.79 -520.03,2.72l186.04 -171.53c-5.1,-179.4 -58.94,-421.06 13.43,-579.93 327.69,94.13 2892.3,219.51 3473.92,269.46 151.38,13 334.59,-2.57 498.87,7.99 2178.37,139.93 4510.55,40.29 6711.28,-20.38 644.63,-17.77 2102.27,-171.38 2634.36,-127.45 6.96,0.57 23.57,4.43 29.08,4.44l32.77 -6.1c156.22,-69.94 -0.74,-52.11 271.39,-74.68l2563.38 -261.69c58.12,-17.66 370.58,-58.83 412.98,-96.15 -73.03,-60.57 -177.93,-113.41 -271.22,-169.64 -95.8,-57.74 -180.01,-104.45 -269.2,-163.82 -82.83,-29.05 -819.72,2.63 -944.46,21.13 -205.01,30.4 -242.95,74.95 -406.41,104.5 -129.6,23.43 -329.74,12.98 -492.03,26.95 -289.37,24.9 -590.21,100.44 -921.28,106.6 -299.85,5.58 -680.75,31.71 -970.12,65.97 -167.9,19.88 -227.54,71.8 -435.62,72.92 -172.81,0.93 -345.35,1.5 -518.12,1.6 -332.73,0.19 -626.51,56.49 -975.68,59.46 -336.7,2.87 -711.39,-17.74 -974.87,9.56 -209.37,21.69 -66.7,42.58 -460.21,49.28 -171.16,2.91 -345.71,3.6 -516.72,1.09 -661.11,-9.69 -1377.32,-13.43 -2037.88,-0.75 -312.95,6.01 -718.65,28.93 -1021.12,-9.43l-2022.61 -61.7c-178.62,-1.02 -293.37,-18.96 -487.35,-17.62 -231.53,1.6 -249.97,-43.68 -457.63,-53.74 -287.23,-13.91 -722.73,-22 -982.01,-57.51 -241.69,-33.1 -704.67,-103.52 -927.09,-88.74 77.45,-54.7 113.41,-95.29 184.94,-159.06 -22.48,-262.46 -28.42,-376.56 29.76,-581.58 172.89,99.27 3189.75,244.56 3697.18,251.63 1233.77,17.18 2538.25,70.58 3880.3,37.56 741.39,-18.24 4820.54,-164.17 5661.39,-303.39 491.13,-81.32 1079.75,-81.18 1573.11,-175.46 16.46,-3.14 83.92,-15.84 92.38,-17.83 115.13,-27.13 75.48,-22.84 78.53,-28.3 -47.99,-49.14 -194.43,-125.09 -255.73,-161.16 -55.73,-32.8 -101.49,-57.27 -145.69,-85.08 -59.98,-37.75 -59.97,-46.9 -123.31,-82.15 -291.3,29.57 -545.6,30.99 -825.04,70.29 -576.96,81.13 -1111.69,97.26 -1649.68,180.11 -258.12,39.74 -599.81,28.93 -876.5,48.02 -2617.41,180.59 -4622.25,170.07 -7232.92,123.62 -534.32,-9.51 5.72,-157.98 -553.99,-42.13 -109.69,22.7 -990.32,-28.36 -1088.16,-39.8 -289.17,-33.8 -586.45,-34.15 -879.72,-51.44 -355.32,-20.96 -197.04,-64.47 -860.71,-77.07 102.57,-107.24 157.98,-31.08 154.07,-247.95 -2.7,-150.43 -33.96,-243.75 6.99,-398.38 139.93,53.5 1496.74,108 1643.49,111.96 567.05,15.3 1197.74,73.65 1692.16,80.55 305.48,4.27 600.54,48.85 836.17,27.04l5634.02 -105.42c114.09,-19.73 296.69,-23.33 419.07,-28.3 391.04,-15.89 3247.75,-236.24 3330.51,-295.4 -38.54,-44.49 -78.98,-56.62 -133.08,-85.04l-411.82 -256.61c-82.86,43.25 -280.53,28.37 -404,33.93 -164.6,7.4 -185.67,31.86 -341.19,52.34 -136.2,17.94 -213.3,51.85 -373.65,55.04 -188.54,3.75 -612.65,6.88 -785.93,49.37 -190.56,46.73 -776.71,36.55 -1126.24,81.04 -625.38,79.61 -1999.27,41.42 -2380.6,89.67 -633.89,80.22 -3467.4,46.68 -4032.2,5.67 -529.27,-38.43 -1055.48,-6.45 -1570.07,-65.34l-1534.63 -86.56 122.76 -95.49c67.31,-105.01 -38,-358.15 42.3,-535.33 728.97,60.73 2300.77,153.13 3025.82,153.76 1375.22,1.2 3371.88,76.66 4736.84,-14.52 678.51,-45.32 4204.97,-191.34 4419.42,-304.18 -79.26,-82.75 -356.28,-170.82 -477.87,-263.02 -68.95,-25.95 -1135.96,87.64 -1332.49,100.98 -2196.83,149.12 -4957.75,256.45 -7145.27,162.35l-2796.72 -124.7 134.23 -88.67c-13.45,-143.22 -44.16,-344.55 6.56,-471.14 -64.43,14.81 -50.94,0.53 -99.09,-28.58 32.53,-91.18 54.58,-103.92 119.62,-146.15 150.59,-97.81 249.75,-139.47 439.99,-173.76 14.26,-108.43 17.41,-204.17 16.72,-313.76 -1.76,-277.69 -51.99,-220.85 -78.2,-227.15l-153.7 27.69c47.59,-85.25 36.35,-90.09 153.03,-147.18 46.73,-22.87 90.77,-41.64 153.08,-72.75 113.94,-56.87 201.7,-100.92 306.17,-153.19l460.35 -232.52c0.11,-0.06 79.22,-69.89 132.88,-26.28l-1505.52 -109c-1191.77,-120.44 -2437.89,-226.87 -3594.23,-515.55 -106.42,-26.57 -228.57,-55.11 -321.37,-81.22 -58.59,-16.48 -103.82,-26.89 -159.5,-44.33 -137.13,-42.96 -168.83,-52.75 -181.08,-231.67l-27.66 -577.12c-22.85,-243.65 -18.53,-558.15 -42.27,-721.52l16.43 -46.28c-38.26,47.45 -9.16,-11.22 -29.86,63.3 -45.16,162.62 42.7,1273.71 60.72,1484.55 50.48,590.7 -7.38,253.65 -71.27,403.7 -142.82,-52.23 -101.56,83.66 -114.53,-141.74 78.7,23.95 -4.94,53.55 16.89,158.52l17.35 38.78c1.16,-4.59 8.15,13.34 12.11,20.09l-2.14 55.32 -193.95 116.11c-4,-6.54 -14.65,9.62 -22.62,13.17 -56.1,-23.15 -61.69,-41.78 -64.81,-43.87 -56.4,-37.67 15,-5.47 -50.44,-33.68 -46.42,-20.01 -82.65,-14.26 -143.07,-16.04 -9.65,24.87 9.59,-12.95 -1.24,26.96l-142.42 57.85z"/>
   <path class="fil2" d="M7049.84 3068.73c-157.53,-18.12 -670.75,105.98 -848.63,145.54 -176.72,39.29 -693.95,183.48 -825.9,176.36 23.74,163.37 19.42,477.87 42.27,721.52l27.66 577.12c12.25,178.92 43.95,188.71 181.08,231.67 55.68,17.44 100.91,27.85 159.5,44.33 92.8,26.11 214.95,54.65 321.37,81.22 1156.34,288.68 2402.46,395.11 3594.23,515.55l1505.52 109c-53.66,-43.61 -132.77,26.22 -132.88,26.28l-460.35 232.52c-104.47,52.27 -192.23,96.32 -306.17,153.19 -62.31,31.11 -106.35,49.88 -153.08,72.75 -116.68,57.09 -105.44,61.93 -153.03,147.18l153.7 -27.69 1286.35 -632.95c-65.36,-38.58 95.76,-28.87 -44.26,-5.43l-186.17 88.51c-176.07,102.72 -185.32,66 -262.43,204.15 300.36,-53.87 445.65,-241.75 553.25,-221.21 156.08,29.79 -2.52,8.74 49.36,109.51 362.56,-7.34 362.7,-111.38 677.39,-15.26 134.2,40.99 110.3,7.07 218.7,-6.8 149.96,-19.2 289.65,36.43 483.03,31.03 158.71,-4.42 198.15,-51.35 391.77,1.74 143.4,39.31 -8.62,44.56 152.8,45.18 184.86,0.7 18.74,-2.05 108.31,-30.24 78.59,-24.74 137.77,-21.27 234.75,-21.35l629.2 3.05c152.81,13.69 9.96,65.94 289.99,55.82 188.01,-6.79 327.11,-58.45 487.99,-54l57.4 105.87c563.05,-16.94 181.11,-76.1 373.14,-105.68 415.51,0.21 921.59,46.6 1288.53,-41.75 86.88,-20.92 148.76,1.43 148.91,1.48l44.68 11.06c389.82,-36.84 489.9,-40.93 941.62,-19.66 2.2,0.11 540.97,-44.73 577.84,-58.4 107.98,-40.03 70.46,-71.11 214.88,-10.74 75.12,31.39 156.62,65.38 243.45,99.23 122.09,47.6 905.17,356.6 941.71,393.27l31.39 29.97 50.33 -74.44c5.53,-7.08 16.18,-16.86 22.96,-26.32l145.39 79.62c38.08,-141.83 -22.34,-107.57 -280.2,-214.32l-1125.11 -449.27c-149.69,-16.46 -33.06,-14.32 -72.97,9.21 157.45,-0.27 470.08,-37.1 631.63,-52.01l1914.99 -236.61c564.58,-99.89 1236.24,-221.09 1773.29,-382.22 111.13,-33.34 178.06,-47.99 267.84,-79.58 34.62,-12.18 91.61,-29.97 128.88,-42.67 1.1,-0.38 59.06,-20.91 64.85,-23.47l81.69 -45.16c1.14,-243.19 21.41,-985.06 76.09,-1220.33 5.84,-25.13 37.43,-7.78 5.44,-129.13 -2.8,-10.59 -9.48,-19.94 -12.47,-28.66 -3.12,-9.13 -7.45,-21.18 -14.97,-29.05 0.07,14.13 3.04,30.53 1.99,42.34 -0.88,10.01 -1.81,26.08 -2.9,35.82l-24.34 45.56c-330.69,-74.12 -1747.65,-467.03 -1997,-405.22 -138.31,73.46 41.15,52.24 -176.24,69.9 185.14,24.1 84.16,0.9 109.4,71.42 -100,54.66 -64.06,-1.47 -105.37,92.21l6.63 286.46c31.07,39.98 60.63,47.26 68.75,106.05 -157.58,83.73 -176.45,-69 -293.86,52.9l-23.33 40.17c-65.95,-43.72 -85.9,-72.92 -172.63,-39.28 -165.15,64.05 55.36,41.11 -157.54,51.47 -173.7,8.45 -228.49,122.12 -330.03,13.88 -55.71,128.13 34.9,-29.76 -27.21,109.8l-211.86 -3.4 38.2 86.3c-54.13,-12.09 -74.84,-16.36 -136.14,-33.06l-127.62 -44.5c-258.72,-109.62 -539.03,45.75 -798.24,52.25l-28.87 -142.2c-111.47,128.2 -111.62,83.46 -344.26,83.42l-33.75 -78.9c-47.18,-77.74 -13.8,-53.35 -162.13,-53.35 -32.63,62.09 -35.11,-8.54 1.45,81.59 -81.47,-28.04 -56.76,-22.38 -87.85,-86.17 -2.63,183.28 -37.17,88.44 -39.92,89.33 -1.96,0.64 -9.58,1.06 -11.91,1.62 -133.03,32.09 -249.55,28.29 -382.96,21.2 36.73,138.54 6.21,107.81 -179.54,107.81l0 40.64c162.44,0 157.11,-42.45 177.96,78.25 -139.32,0 -151.87,-24.55 -234.79,-29.52 -169.33,-10.14 -154.47,106.03 -227.13,65.14l-35.55 -30.08c-72.05,-41.32 -106.61,-26.25 -189.57,-5.36l-6.44 -190.7c-33.84,0.35 -68.28,-1.33 -101.56,4.63 -92.96,16.66 -113.53,45.9 -207.67,49.38l-276.84 -65.44c-252.47,-70.19 -373.02,120.11 -557.58,117.32 -34.89,-81.13 -24.81,-11.71 -5.7,-108.39 -156.71,-5.8 -164.72,-23.79 -273.92,54.19l-75.42 -51.37c-62.1,-34.87 -167.65,-38.34 -248.9,-28.33l-196.26 -8.03c-164.12,-18.97 -38.06,-10.23 -183.49,18.03l-623.15 -13.04c-63.48,3.55 -42.85,-1.68 -94.77,16.62l-76.7 43.88 -98.47 -112.71c-139.42,58.84 -35.17,83.01 -225.01,63.85 -121.69,-12.28 -225.77,-6.4 -349.3,-5.61 46.89,-97.97 -42.65,-50.3 88.53,-88.88 -101.98,1.8 -131.67,57.02 -220.95,58.97l-160.87 9.29c-133.33,34.53 -308.79,-30.41 -489.16,10.37 -102.06,23.07 -36.8,-34.84 -221.26,-18.14 20.81,-56.91 34.06,-76.69 17.57,-122.56 -6.84,3.97 -16.23,7.61 -21.77,9.41 -11.16,3.62 -224.67,71.59 -328.49,-60.65 -96.03,141.04 -2.93,78.39 -150.67,51.47 -73.18,-13.34 -83.97,-0.68 -193.43,-2.17 -67.15,-0.91 -87.17,-4.69 -109.37,-2.21l-311.84 9.73c17.54,34.09 61.12,38.94 57.4,84.42 -275.98,168.05 -428.94,-46.97 -497.6,-55.49 -179.83,11.28 3.71,5.03 -103.07,52.63l-32.7 12.22c-4.65,1.16 -13.22,1.93 -18.12,2.74l-304.91 14.97c-200.48,0.61 -311.26,-46.45 -367.09,-24.91 -6.03,2.33 -72.27,40.78 -92.59,50.04l-53.76 -66.02c-26.36,-24.05 -39.41,-29.34 -70.38,-43.96 26.77,-77.73 56.5,-59.18 83.74,-108.98 -118.76,-6.41 -103.18,6.8 -195.92,52.64 -3.25,1.6 -10.56,5.75 -13.88,6.98 -75.63,27.96 -324.35,-24.38 -445.31,6.2 -83,20.98 -114.95,13.85 -184.02,-32.61l-96.36 -68.83c-69.25,134.03 12.01,95.42 -226.15,93.03 -101.88,-1.02 -180.19,3.61 -266.66,12.19 -209.81,20.83 -379.39,-82.95 -444.66,-2.27 -55.36,68.44 -3.06,-8.35 -11.55,32.68l0.71 20.77c-0.03,-2.67 2.34,7.04 1.12,10.26 -111.77,-24.45 -25.84,-8.91 -79.2,-26.63l-155.43 -55.77c-131.44,-40.79 -103.9,39.15 -217.13,12.48 -131.54,-31 -282.5,-18.89 -390.12,-26.81 -100,-7.36 -58.7,10.86 -129.34,-29 33.27,-13.39 39.1,-10.04 76.36,-24.72l171.18 -77.63c-209.45,-23.56 -42.8,-141.41 -367.01,-27.79 -5.08,-5.22 -9.68,-14.24 -12.44,-17.96 -111.21,-150.11 -158.86,-53.36 -248.35,-131.02l-7.15 -151.48 496.64 -135.75c-239.71,1.64 -394.3,96.33 -619.53,72.37 58.94,-67.56 198.92,-133.09 247.46,-72.47 -150.39,0 -225.27,39.07 -339.66,11.55z"/>
   <path class="fil3" d="M7684.86 700.27l-14.63 126.12c116.35,50.84 24.7,7.44 89,13.03 215.39,18.71 9.84,73.3 218.69,53.43 97.85,-9.31 20.81,-14.28 118.99,24.69 67.83,26.93 -2.45,32.12 83.09,10.16l70.43 -51.68c88.39,139.49 134.74,86.2 200.92,-1.94 64.43,72.05 -9.77,45.98 88.71,52.87 169.15,11.84 -5.46,-11.14 117.32,-35.88 5.44,-1.1 13.78,-1.74 19.32,-2.48l201.76 -54.3c92.69,-17.57 -29.12,27.6 77.86,-6.08 149.69,-47.12 -20.99,-39.13 137.31,-73.68 197.69,-43.15 56.93,-26.38 150.81,-81.19 74.91,-43.73 38.29,37.24 143.62,-68.65 103.78,-104.33 75.83,-138.6 379.41,-127.06 7.66,171.43 14.54,339.66 20.9,510.61 7.52,201.66 -20.13,341.04 -15.92,516.88 7.69,321.34 60.56,727.14 29.63,1039.51 -162.1,17.64 -228.15,20.44 -335.62,110.56 79.24,72.68 145,61.34 270.63,63.88l-2171.81 216.5c-3.21,-3.61 -9.47,-11 -13.12,-14.91l-127.79 -92.7c-93.92,-32.92 -159.75,-9.78 -262.82,-44.2l-56.5 -1006.76 25.84 1168.05c156.67,9.83 210.9,-32.5 384.55,-28.94 -133.03,151.25 -627.15,97.88 -802.9,91.74 56.76,13.18 97.88,8.86 159.21,13.06 42.58,2.91 70.42,3.44 110.94,14.48 75.73,20.65 18.53,-6.83 67.15,33.34 114.39,27.52 189.27,-11.55 339.66,-11.55 -48.54,-60.62 -188.52,4.91 -247.46,72.47 225.23,23.96 379.82,-70.73 619.53,-72.37l-496.64 135.75 7.15 151.48c89.49,77.66 137.14,-19.09 248.35,131.02 2.76,3.72 7.36,12.74 12.44,17.96 324.21,-113.62 157.56,4.23 367.01,27.79l-171.18 77.63c-37.26,14.68 -43.09,11.33 -76.36,24.72 70.64,39.86 29.34,21.64 129.34,29 107.62,7.92 258.58,-4.19 390.12,26.81 113.23,26.67 85.69,-53.27 217.13,-12.48l155.43 55.77c53.36,17.72 -32.57,2.18 79.2,26.63 1.22,-3.22 -1.15,-12.93 -1.12,-10.26l-0.71 -20.77c8.49,-41.03 -43.81,35.76 11.55,-32.68 65.27,-80.68 234.85,23.1 444.66,2.27 86.47,-8.58 164.78,-13.21 266.66,-12.19 238.16,2.39 156.9,41 226.15,-93.03l96.36 68.83c69.07,46.46 101.02,53.59 184.02,32.61 120.96,-30.58 369.68,21.76 445.31,-6.2 3.32,-1.23 10.63,-5.38 13.88,-6.98 92.74,-45.84 77.16,-59.05 195.92,-52.64 -27.24,49.8 -56.97,31.25 -83.74,108.98 30.97,14.62 44.02,19.91 70.38,43.96l53.76 66.02c20.32,-9.26 86.56,-47.71 92.59,-50.04 55.83,-21.54 166.61,25.52 367.09,24.91l304.91 -14.97c4.9,-0.81 13.47,-1.58 18.12,-2.74l32.7 -12.22c106.78,-47.6 -76.76,-41.35 103.07,-52.63 68.66,8.52 221.62,223.54 497.6,55.49 3.72,-45.48 -39.86,-50.33 -57.4,-84.42l311.84 -9.73c22.2,-2.48 42.22,1.3 109.37,2.21 109.46,1.49 120.25,-11.17 193.43,2.17 147.74,26.92 54.64,89.57 150.67,-51.47 103.82,132.24 317.33,64.27 328.49,60.65 5.54,-1.8 14.93,-5.44 21.77,-9.41 16.49,45.87 3.24,65.65 -17.57,122.56 184.46,-16.7 119.2,41.21 221.26,18.14 180.37,-40.78 355.83,24.16 489.16,-10.37l160.87 -9.29c89.28,-1.95 118.97,-57.17 220.95,-58.97 -131.18,38.58 -41.64,-9.09 -88.53,88.88 123.53,-0.79 227.61,-6.67 349.3,5.61 189.84,19.16 85.59,-5.01 225.01,-63.85l98.47 112.71 76.7 -43.88c51.92,-18.3 31.29,-13.07 94.77,-16.62l623.15 13.04c145.43,-28.26 19.37,-37 183.49,-18.03l196.26 8.03c81.25,-10.01 186.8,-6.54 248.9,28.33l75.42 51.37c109.2,-77.98 117.21,-59.99 273.92,-54.19 -19.11,96.68 -29.19,27.26 5.7,108.39 184.56,2.79 305.11,-187.51 557.58,-117.32l276.84 65.44c94.14,-3.48 114.71,-32.72 207.67,-49.38 33.28,-5.96 67.72,-4.28 101.56,-4.63l6.44 190.7c82.96,-20.89 117.52,-35.96 189.57,5.36l35.55 30.08c72.66,40.89 57.8,-75.28 227.13,-65.14 82.92,4.97 95.47,29.52 234.79,29.52 -20.85,-120.7 -15.52,-78.25 -177.96,-78.25l0 -40.64c185.75,0 216.27,30.73 179.54,-107.81 133.41,7.09 249.93,10.89 382.96,-21.2 2.33,-0.56 9.95,-0.98 11.91,-1.62 2.75,-0.89 37.29,93.95 39.92,-89.33 31.09,63.79 6.38,58.13 87.85,86.17 -36.56,-90.13 -34.08,-19.5 -1.45,-81.59 148.33,0 114.95,-24.39 162.13,53.35l33.75 78.9c232.64,0.04 232.79,44.78 344.26,-83.42l28.87 142.2c259.21,-6.5 539.52,-161.87 798.24,-52.25l127.62 44.5c61.3,16.7 82.01,20.97 136.14,33.06l-38.2 -86.3 211.86 3.4c62.11,-139.56 -28.5,18.33 27.21,-109.8 101.54,108.24 156.33,-5.43 330.03,-13.88 212.9,-10.36 -7.61,12.58 157.54,-51.47 86.73,-33.64 106.68,-4.44 172.63,39.28l23.33 -40.17c117.41,-121.9 136.28,30.83 293.86,-52.9 -8.12,-58.79 -37.68,-66.07 -68.75,-106.05l-6.63 -286.46c41.31,-93.68 5.37,-37.55 105.37,-92.21 -25.24,-70.52 75.74,-47.32 -109.4,-71.42 217.39,-17.66 37.93,3.56 176.24,-69.9l-96.17 -42.74c-304.18,-87.45 -2245.54,-251.13 -2528.18,-277.77 -900.83,-84.92 -1864.91,-60.95 -2783.91,-136.24l5.58 -41.4c0.06,-2.57 1.47,-11.17 1.26,-13.81 -4.46,-53.7 51.33,-24.16 -56.78,-70.19 -76.59,-32.61 -133.81,-14.3 -210.16,-50.25 -95.28,-172.68 -21.78,-769.61 -21.13,-1012.11 0.33,-124.97 -118.71,-912.63 12.78,-956l70.5 -19.99c176.32,-17.27 257.71,111.87 359.27,156.82 98.17,43.45 82.8,8.25 155.5,43.49 112.04,54.3 -40.32,17.57 142.46,59.64 8.42,1.94 16.5,1.83 24.85,3.85l45.96 11.64c253.17,88.98 113.72,38.85 201.1,37.7 89.93,-1.19 -11.2,-24.37 101.18,65.22 68.47,22.54 93.72,-24.46 143.31,-19.82 182.2,17.06 -164.1,-43.21 56.55,16.96 157.7,43.01 91.67,-27.44 226.84,3.76l124.45 0.26c60.57,-15.41 -14.67,-30.88 108.65,-7.76 113.81,21.34 124.76,-22.84 161.72,-35.03 90.83,-29.93 15.09,9.6 125.38,-2.54 145.26,-15.99 -2.32,-18.98 121.69,-54.44l205.49 -61.48c30.9,-21.22 142.18,-10.79 213.96,-78.35 34.8,-32.76 59.65,-126.45 311.83,-91.57l-71.21 2028.67c-165.56,12.75 -288.4,7.31 -349.63,139.59 116.68,55.69 721.53,97.38 848.95,-4.13 -63.61,-125.2 -210.9,-82.73 -333.8,-143.61 -47.52,-261.55 14.75,-772.2 13.82,-1065.04 -0.95,-296.59 -42.18,-628.41 -1.21,-960.12 102.26,-15.99 47.19,-18.34 133.92,12.98 2.31,0.83 89.68,47.73 91.71,49.19 112.83,80.91 31.68,100.04 171.14,139.82 117.15,33.42 2.84,-8.03 53.44,7.42l330.05 156.58c185.07,57 -15.12,-26.01 116.63,11.96 92.19,26.58 -48.74,4.79 86.4,44.32 110.99,32.47 92.95,-21.27 151.11,0.73 115.63,43.75 90.69,30.16 144.5,20.44 120.98,-21.87 147.75,115.82 258.62,-51.37 131.32,112.2 126.68,15.56 249.92,10.37 100.02,-4.22 50.9,59.48 163,-31.49 62.5,-50.72 -31.44,-6.82 45.39,-23.87 68.09,-15.11 -19.26,-0.67 63.37,0.12 131.84,1.26 92.53,-65.86 184.73,-77.33 265.74,-33.08 152.74,-133.94 469.1,-140.57 24.61,358.72 -44.6,742.91 -64.31,1088 -20.41,357.48 -19.12,720.31 -39.74,1079.02 -146.94,7.43 -312.53,11.29 -371.04,121.74 134.43,65.02 767.23,124.76 897.14,9.23 -150.51,-141.63 -195.57,-57.67 -346.31,-143.62 -40.28,-313.5 26.67,-772.83 31.95,-1091.58 5.34,-322.37 -24.3,-717.09 11.49,-1056.46 87.87,-10.17 139.13,2.93 219.03,58.6 103.74,72.29 46.44,67.15 128.77,128.92l256.2 138.26c46.71,17.02 8.08,1.11 58.86,34.41l255.75 101.07c93.22,11.52 27.84,-9.58 62.92,-6.49 61.97,5.47 48.02,54.6 168.92,37.63 71.98,-10.1 -6.24,-31.44 71.93,0.5 122.81,50.18 28.76,16.92 141.27,-7.85 137.91,-30.37 90.05,108.47 211.92,-50.04 68.15,66.89 -19.39,45.73 86.67,42.4 109.57,-3.44 86.61,-42.43 90.24,-44.32 77.39,-40.19 -35.63,-2.04 49.08,-19.08 76.93,-15.47 70.5,6.54 129.61,-35.51 47.45,-33.74 2.61,-16.15 40.45,-36.16 3.45,-1.82 10.88,-5.45 14.54,-6.8 3.82,-1.4 12.23,-2.59 16.33,-3.57 68.07,-16.22 -18.43,42.85 97.69,-14.02 124.33,-60.89 -5.81,-86.16 162.01,-122.03 -2.71,-11.99 -18.24,-66.68 -18.75,-69.68 -0.96,-5.66 -1.52,-17.11 -2.16,-21.84l1.72 -41.97c-51.46,44.11 -48.7,23.9 -141.52,30.15 107.72,-125.22 24.68,-127.4 21.12,-132.52 -22.59,90.49 -96.14,121.23 -159.91,194.98 -3.17,3.67 -9.12,11.91 -13.99,17.61 -160.36,-75.37 90.83,79.51 -40.2,-20.85l-52.97 -47.18c22.49,97.52 -0.05,30.58 40.77,84.68l65.85 62.81c-426.09,75.53 -777.17,337.13 -1484.57,-107.36 -169.81,-106.69 -191.52,-172.83 -343.88,-294.61 19.97,-120.33 49.08,-157.38 -55.03,-257.73 -229.85,-44.3 -330.05,16.25 -309.14,279.69 -525.18,213.17 -859.13,402.31 -1465.92,330.12 -260.8,-31.03 -492.8,-114.78 -704.77,-221.02 -448.08,-224.58 -221.08,-411.12 -368.69,-504.47 -237.89,-73.06 -301.51,58.3 -286.87,268.83 -104.37,32.65 -7.24,-10.64 -97.08,51.71 -209.91,145.66 -572.13,300.33 -838.93,289.09 -49.34,80.38 -1.69,-48.55 -0.52,30.77 0.02,1.67 0.56,9.98 0.58,11.83 0.03,1.97 0.32,10.71 0.34,12.62l-95.12 -21.09c-318.34,-79.3 -487.55,142.79 -1426.32,-297.54 -100.88,-47.32 -94.05,22.99 -187.65,-69.52 -94.26,-93.16 -26.93,-113.32 -59.77,-260.94 -113.34,-48.33 -265.49,-33.46 -298.13,2.18 -93.22,101.8 17.57,284.67 -169.84,307.28 -72.37,8.73 -77.97,-13.5 -220.03,61.28 -131.94,69.44 -478.4,202.13 -676.82,194.71 53.55,63.57 59.02,38.66 19.06,113.95l88.1 -45.64c80.92,-21.8 89.43,25.73 199.73,-31.93l129.86 -30.65c172.44,-19.59 56.34,-61.6 167.56,-86.43 223.25,-49.83 77.75,7.75 185.4,-87.74 75.2,-66.7 274.29,-97.31 334.11,-34.22 101.8,149.74 3.52,737.17 -1.3,941.75 -6.9,293.47 31.32,729.57 -8.92,993.62l-75.28 19.31c-254.62,57.7 -136.33,26.12 -229.95,163.22l-2185.94 8.57c-147.17,-20.12 -57.3,29.66 -96.33,-48.02 -33.95,-67.58 4.58,-58.63 19.67,-133.91 -107.62,52.2 -207.22,65.93 -326.36,13.17 -24.04,-53.96 -93.43,-1832.17 -66.7,-1974.33 325.09,-98.77 305.15,131.82 505.18,161.31 63.43,9.35 165.72,73.02 247.74,76.38 106.56,4.37 116.29,76.32 227.71,67.17l127.2 21.96c104.42,50.52 104.01,39.73 170.1,-31.91 5.42,4.88 12.57,6.42 15.07,15.85 5.13,19.36 3.27,69.29 122.54,57.96 111.69,-10.61 66.18,-36.58 152.35,-19.31 135.95,27.25 117.01,-25.2 272.18,-23.47 2.53,0.02 11.12,0.82 15.92,-1.49 -52.12,-59.07 -23.43,19.52 -25.74,-84.09 -498.32,73.94 -1042.65,0.43 -1479.55,-250.68 -4.25,-2.44 -11.18,-7.88 -15.17,-10.09 -95.64,-53.1 -77.23,30.98 -180.52,-76.39 -88.83,-92.34 -20.37,-114 -66.93,-254 -67.75,-37.92 -139.01,-77.1 -261.4,-39.85 -123.43,81.21 33.04,272.8 -223.46,343.89 -45.56,12.63 -22.32,2.07 -72.49,33.08 -52.47,32.43 -117.08,70.25 -166.05,95.62 -376.45,195.02 -868.52,256.97 -1301.52,198.09l-414.34 -108.67c-151.57,-46.82 -248.33,-112.93 -386.98,-129.1 -64.85,-7.57 -127.83,-28.25 -162.08,-104.32 -55.71,-123.71 18.62,-225.92 -189.33,-255.42 -287.72,-40.81 -141.27,174.03 -216.76,281.62 -133.48,190.23 -38.61,26.68 -206.74,102.53 -169.62,76.52 -298.24,188.74 -490.75,261.06 -363.45,136.53 -822.79,135.38 -1225.25,-30.72zm2188.83 -170.63c-2.45,517.97 53.6,688.68 64.7,1004.93 11.97,340.75 8.52,673.1 27.79,1013.65 488.91,9.28 173.75,140.24 550.24,125.11l1947.92 -139.81c125.32,-193.6 266.87,-97.16 324.76,-159.77 65.92,-163.2 11.16,-546.53 8.19,-752.61 -2.22,-154.49 51.88,-1092.36 -6.88,-1186.02 -119.03,-189.76 -398.68,100.82 -398.81,100.9 -53.68,28.98 -24.38,7.09 -65.59,20.5l-84.67 32.05c-191.29,107.31 102.35,-5.16 -175.35,65.83l-51.73 22.39c-5.05,2.54 -11.7,8.5 -16.84,11.11 -145.27,73.78 -70.22,-5.77 -195.41,41.7 -78.42,29.73 13.17,50.14 -142.03,31.2 -4.7,-0.58 -13.36,-4.13 -17.85,-4.54 -146.97,-13.48 10.43,72.37 -205.71,31.32 -168.45,-31.99 -4.07,54.48 -211.89,7.18l-127.67 -7.79c-166.33,30.55 -30.51,-25.32 -175.98,-39.68 -31.42,-3.11 -6.28,13.89 -87.24,6.12 -188.14,-18.03 33.26,-43.19 -184.35,-56.62 -29.49,-1.82 9.49,27.51 -86.39,-11.47 -142.65,-57.99 120.34,65.29 -52.54,-35.64 -125.39,-73.21 -76.38,32.24 -197.78,-55.35 -87.94,-63.45 8.5,-43.33 -115.11,-92.94 -41.34,-16.59 -165.47,-34.95 -235.31,-13.02l-66.51 29.91c-5.43,2.52 -14.73,7.41 -21.96,11.36z"/>
   <path class="fil4" d="M4591.52 15315.81c206.77,-135.51 440.63,-432.24 588.84,-446.37 317.22,-30.26 283.19,46.61 559.11,89.4 141.52,21.95 481.78,19.5 614.93,80.73 149.38,68.69 441,-7.42 814.61,69.92 119.08,24.65 158.5,32.33 306.56,34.96 194.11,3.45 196.27,29.82 323.51,51.29 104.54,17.65 225.56,0.83 332.03,17.96 145.83,23.46 101.65,58.04 283.64,12.78 211.87,-52.69 364.53,125.66 524.54,-75.53 20.03,35.66 4.03,6.97 16.05,44.88 0.8,2.51 3.46,12.05 4.24,14.53l8.41 27.27c249.93,8.51 433.07,77.34 631.46,-23.67l57.41 110.8c266.78,-11.57 604.57,45.69 755.07,41.71 501.02,-13.22 908.46,40.14 1311.51,35.39 25.64,38.08 9.66,9.3 22.26,57.66 25.52,97.96 -30.47,-34.59 6.45,51.21l636.74 42.37c6.97,0.62 65.26,0.29 100.07,-10.5 124.43,-38.56 91.69,-89.22 223.06,-101.74 380.43,-36.26 1646.84,34.31 1717.23,20.6l508.88 -25.37 45.29 86.33c40.48,-189.73 15.43,-26.22 86.87,-98.78 42.75,-43.41 0.6,20.56 40.06,-47.21l28.7 -82.52c3.31,5.99 6.68,9.2 8.01,18.92 1.86,13.57 14.02,32.25 17.24,38.76 2.48,5.04 7.12,14.92 9.69,19.97l22.46 39.58c150.93,3.16 365.85,7.76 513.2,-6.95 184.77,-18.45 252.85,9.12 462.1,6.35 167.4,-2.21 829.89,-10.82 984.52,-49.96l1314.2 -62.37c193.78,-3.83 259.03,-49.05 371.21,73.82 6.28,-7.21 22.96,-23.53 26.84,-27.53 2.66,-2.73 10.45,-10.73 13.73,-14.07 106.08,-108.02 51.37,-64.35 99.66,-72.42 1.41,-0.23 239.98,-5.6 244.28,-6.08 130.94,-14.56 412.08,-36.41 563.1,-45.79 297.05,-18.46 532.4,-4.06 864.28,-55.85 153.35,-23.93 141.75,-37.59 203.59,54.56l51.11 -83.25c340.89,-9.99 586.56,-110.49 1127.3,-100.91 95.46,1.69 63.86,-16.5 132.14,-44.33 115.98,-47.27 570.5,-36.73 644.48,-51.01 89.99,-17.37 79.97,-20.78 189.43,-37.45l306.57 -67.95c231.96,-56.99 479.93,-46.4 780.67,-80.2 93.31,-10.49 285.79,-32.82 339.01,-43.91 129.37,-26.94 56.01,-21.71 129.22,-58.69 15,-7.57 1443.74,-254.34 1556.62,-243.19 132.31,13.08 71.21,5.11 157.15,44.21 62.36,28.37 81.24,50.08 133.36,45.39l-587.01 -453.77c-4.74,-181.65 104.67,-657.53 -41.34,-763.62 -52.06,82.2 -962.36,173.09 -1135.56,220.83 -73.77,20.34 -54.18,15.25 -129.93,23.9l-797.66 86.46c-335.19,65.91 -1267.25,186.73 -1598.18,192.41l-2737.39 252.68c-150.76,-3.85 -205.85,30.64 -430.33,34.16l-1963.74 91.74c-372.49,4.37 -1281.82,66.84 -1618.31,39.8l-1846.11 11.56c-695.35,14.3 -1368.08,-56.93 -2039.38,-34.82 -106.23,3.5 -64.21,-8.86 -174.52,-15.02 -181.34,-10.14 85.52,62.65 -406.6,14.18 -117.47,-11.57 -193.37,7.5 -333.23,-10.58l-481.42 -57.36c-9.78,-0.58 -107.72,-4.91 -166.99,-5.84 -165.8,-2.58 -338.54,7.36 -567.96,-30.99 -134.54,-22.49 -108.99,53.16 -309.35,15.05 -390.24,-74.23 -213.41,-26.85 -531.58,-46.62l-2201.32 -232.06c-144.28,-19.93 -412.14,-18.14 -599.09,-61.08l-218.6 -24.88c-84.54,11.84 -31.55,504.54 -28.85,588.67 9.3,289.45 -82.66,261.65 -235.33,389.58 -88.69,74.31 -62.22,92.73 -148.16,166.91l-484.76 440.96z"/>
   <path class="fil1" d="M26404.22 14483.56c-52.12,4.69 -71,-17.02 -133.36,-45.39 -85.94,-39.1 -24.84,-31.13 -157.15,-44.21 -112.88,-11.15 -1541.62,235.62 -1556.62,243.19 -73.21,36.98 0.15,31.75 -129.22,58.69 -53.22,11.09 -245.7,33.42 -339.01,43.91 -300.74,33.8 -548.71,23.21 -780.67,80.2l-306.57 67.95c-109.46,16.67 -99.44,20.08 -189.43,37.45 -73.98,14.28 -528.5,3.74 -644.48,51.01 -68.28,27.83 -36.68,46.02 -132.14,44.33 -540.74,-9.58 -786.41,90.92 -1127.3,100.91l-51.11 83.25c-61.84,-92.15 -50.24,-78.49 -203.59,-54.56 -331.88,51.79 -567.23,37.39 -864.28,55.85 -151.02,9.38 -432.16,31.23 -563.1,45.79 -4.3,0.48 -242.87,5.85 -244.28,6.08 -48.29,8.07 6.42,-35.6 -99.66,72.42 -3.28,3.34 -11.07,11.34 -13.73,14.07 -3.88,4 -20.56,20.32 -26.84,27.53 -112.18,-122.87 -177.43,-77.65 -371.21,-73.82l-1314.2 62.37c-154.63,39.14 -817.12,47.75 -984.52,49.96 -209.25,2.77 -277.33,-24.8 -462.1,-6.35 -147.35,14.71 -362.27,10.11 -513.2,6.95l-22.46 -39.58c-2.57,-5.05 -7.21,-14.93 -9.69,-19.97 -3.22,-6.51 -15.38,-25.19 -17.24,-38.76 -1.33,-9.72 -4.7,-12.93 -8.01,-18.92l-28.7 82.52c-39.46,67.77 2.69,3.8 -40.06,47.21 -71.44,72.56 -46.39,-90.95 -86.87,98.78l-45.29 -86.33 -508.88 25.37c-70.39,13.71 -1336.8,-56.86 -1717.23,-20.6 -131.37,12.52 -98.63,63.18 -223.06,101.74 -34.81,10.79 -93.1,11.12 -100.07,10.5l-636.74 -42.37c-36.92,-85.8 19.07,46.75 -6.45,-51.21 -12.6,-48.36 3.38,-19.58 -22.26,-57.66 -403.05,4.75 -810.49,-48.61 -1311.51,-35.39 -150.5,3.98 -488.29,-53.28 -755.07,-41.71l-57.41 -110.8c-198.39,101.01 -381.53,32.18 -631.46,23.67l-8.41 -27.27c-0.78,-2.48 -3.44,-12.02 -4.24,-14.53 -12.02,-37.91 3.98,-9.22 -16.05,-44.88 -160.01,201.19 -312.67,22.84 -524.54,75.53 -181.99,45.26 -137.81,10.68 -283.64,-12.78 -106.47,-17.13 -227.49,-0.31 -332.03,-17.96 -127.24,-21.47 -129.4,-47.84 -323.51,-51.29 -148.06,-2.63 -187.48,-10.31 -306.56,-34.96 -373.61,-77.34 -665.23,-1.23 -814.61,-69.92 -133.15,-61.23 -473.41,-58.78 -614.93,-80.73 -275.92,-42.79 -241.89,-119.66 -559.11,-89.4 -148.21,14.13 -382.07,310.86 -588.84,446.37 -78.15,28.06 -53.62,27.73 -158.53,35.13 70.02,-134.59 879.9,-737.77 924.23,-835.21 31.04,-68.22 20.79,-49.83 25.02,-137.56l-14.74 -414.7c-39.72,-246.46 7.7,-264.67 160.06,-386.72l633.66 -514.87c189.95,-152.99 102.29,-422.99 79.89,-439.7l0 -258.37c-78.04,30.58 -38.07,-11.11 -154.97,-7.83 -5.65,0.16 -45.25,7.79 -45.95,7.83 0,833.7 170.37,404.05 -496.25,997.8 -255.46,227.54 -432.59,238 -424.74,495.4 6.97,228.33 31.21,239.01 31.21,632.22l-671.23 565.87c-52.22,42.37 -78.12,58.05 -125.76,102.27 -133.02,123.49 -140.48,136.12 -379.67,136.12 8.43,-75.48 28,-80.28 76.15,-119.91l130.81 -100.85c115.08,-94.16 675.65,-520.28 740.08,-629.25 -181.69,29.4 -160.29,26.99 -280.01,-33.01 -79.83,-40.01 117.76,-13.94 -143.2,-23.42 -290.27,-10.54 -174.63,-23.85 -361.3,-42.36 -68.77,72.97 -116.68,110.91 -205.58,147.44 -116.64,155.55 -852.36,583.48 -891.8,744.06 130.34,77.53 2605.04,382.95 2953.39,420.44 1039.58,111.88 2062.28,203.81 3118.97,272.42 4623.29,300.16 8417.29,160.41 12999.97,-271.74 693.83,-65.43 5571.71,-736.83 5820.59,-966.87 -49.5,-139.86 -556.89,-337.54 -651.72,-466.53 -116.44,-38.62 -501.45,-280.3 -585.57,-367.14l26.25 -744.92c-92.05,-128.71 -556.72,-304.53 -617.49,-402.43 -87.07,-29.72 -395.34,-202.52 -454.14,-265.26 -87.97,-93.86 -16.86,-431.08 -33.27,-597.23l-574.58 -345.09c-147.83,-53.45 -346.62,-155.37 -443.11,-258.4l8.26 -516.74c-121.73,-140.36 -492.22,-236.52 -569.74,-345.86l-365.42 -200.03c-30.7,-169.44 60.11,-427.83 -53.8,-557.53l-240.8 11.92c-105.59,860.77 -104.01,542.85 449.5,832.66 109.9,57.54 370.86,175.99 440.14,259.55l-28.42 630.93c52.15,11.95 113.85,36.98 149.89,52.57l138.53 52.43c99.5,33.49 172.82,80.21 251.22,125.68 798.2,462.83 350.02,177.46 464.95,946.99l290.91 136.38c163.65,57.42 397.79,218.21 549.54,309.59 49.49,29.81 81.81,46.18 123.92,72.94l88.18 71.14c4.66,4.63 13.9,25.99 17.24,20.56 66.61,-108.12 -33.82,627.31 -34,634.3 -6.2,249.49 37.94,189.17 252.63,337.67 1.9,1.32 49.58,34.43 50.16,34.81 125.39,81.79 117.02,42.88 239.96,105.57l631.27 402.89c-35.24,48.26 -70.5,151.89 -250.96,87.2l-489.22 -321.35c-61.68,-42.63 -28.4,-14.65 -80.41,-64.16 -84.53,-80.47 18.39,15.54 -41.76,-44.13 -4.14,-4.1 -10.04,-10.19 -14.26,-14.22l-452.91 -333.32 34.92 -688.91c-160.9,-171.29 -520.36,-295.25 -818.64,-583.14 -81.82,-78.97 -189.44,-118.92 -268.78,-192.46l28.41 -488.24c-27.46,-81.33 -561.49,-342.42 -720.33,-484.41l-258.85 -204.95 -11.66 -517.04c-84.01,-55.39 -173.24,-94.68 -243.89,-134.23l-377.47 -228.44c-4.82,-4.19 -10.67,-10.24 -15.36,-14.62l-130.85 -106.89c-269.26,-167.43 -14.81,-171.84 -137.73,-635.9 -262.13,98.08 -154.54,273.95 -165.76,631.64 237.44,32.76 723.25,326.16 900.41,431.14 39.54,384.35 -222.5,566.85 160.09,744.03 283.62,131.34 12.38,-41.45 531.31,267.46 316.99,188.7 246.47,113.82 246.12,284.55 -1.39,660.77 -166.49,459.7 418.22,747.94 54.08,26.66 77.45,47.2 123.04,74.95 116.47,70.9 454.56,261.25 515.09,351.31 81.99,189.58 -185.77,686.5 28.3,864.01 0.82,0.68 49.89,29.29 53.66,31.41l381.47 216.85c5.65,2.86 13.15,6.54 18.73,9.49l610.43 407.51c-40.83,59.52 68.45,66.89 -117.06,66.01l-502.39 -337.39z"/>
   <path class="fil4" d="M25060.88 12782.63c-111.84,-76.1 -167.72,-127.64 -265.79,-217.75 -5.1,-146.98 86.54,-520.8 -69.23,-579.49l-28.85 74.99 -689.29 83.13c-40.82,3.14 -143.56,-7.35 -221.87,1.81 -378.65,44.32 -1851.61,215.38 -2147.23,284.24 -342.34,79.75 -212.48,-45.94 -357.22,93.88 -45.71,-70.28 -72.87,-59.87 -206.39,-31.98l-740.37 60.12c-131.2,7.52 -253.97,-13.17 -368.46,-9.69 -154.07,4.68 -314.3,6.02 -471.68,26.9 -414.97,55.03 -574.51,38.64 -968.26,65.17 -599.86,40.42 -1403.44,103.14 -2010.6,85.79 -350.58,-10.02 -685.61,40.55 -979.1,40.93 -609.15,0.78 -1071.91,5.43 -1775.03,2.46l-4155.94 -100.9c-659.54,-130.99 -1006.6,-73.15 -1394.26,-131.3l-1478.05 -119.64c-173.9,-7.06 -265.68,-71.28 -377.34,-47.63 -80.04,146.6 -18.62,451.31 -14.98,627.69 -134.45,98.54 -224.33,216.82 -272.05,220.92 106.71,-31.97 4.41,-36.26 139.58,-40.55l549.8 52.13c255.65,8.12 464.22,128.46 716.37,135.79 154.45,4.49 298.15,-9.15 452.59,8.92l1183.82 112.85c336,5.76 532.65,-31.84 799.96,30.37 272.72,63.48 520.56,5.41 765.49,39.04 121.11,16.63 296.74,47.27 390.73,48.49l757.29 5.56c341.95,42.44 262.36,-54.5 346.73,92.5 -16.56,-153.88 -1.25,-36.73 40.14,-82.67 181.54,6.31 375.45,34.8 603.5,33.68 103.1,-0.5 219.8,7.63 272.87,4.9 97.84,-5.04 167.46,-13.17 272.48,-7.68 284.84,14.89 773.01,8.85 1147.35,-2.4l28.71 89.87 41.07 -68.59c2.17,-12.18 10.96,-13.85 16.33,-20.86 279.57,17.72 439.52,-20.91 688.35,-24.61 238.17,-3.54 478.99,-0.45 718.08,-1 493.42,-1.14 914.63,-38.6 1407.68,-38.47 260.07,0.07 175.26,-48.62 658.92,-46.92 163.48,0.58 547.63,-6.49 645.04,-21.59 427.45,-66.26 115.26,-50.21 646.56,-62.08 252.54,-5.64 452.17,-11.68 682.64,-33.35 216.74,-20.38 431.44,-36.8 646.56,-73.46 217.17,-37.01 427.04,-30.03 632.18,-80.44 158.53,-38.97 487.08,-22.2 669.11,-49.68 515.41,-77.82 672.54,-155.5 1272.5,-160.06 419.63,-3.19 656.67,-106.98 933.16,-158.96l763.6 -113.43c59.85,-5.92 23.77,18.97 102.8,3.05z"/>
   <path class="fil5" d="M6471.4 10711.49c119.83,-57.9 147.4,-109.15 271.57,-154.38 101.71,-121.12 135.61,-33.22 136.14,-259 0.31,-132.13 -36.61,-289.24 15.64,-403.05l640.71 -407.21 108.02 -82.52 7.41 -488.51c-123.34,76.82 -380.16,0.14 -494.24,-17.36 -264.83,-40.65 -832.03,-52.48 -1132.53,-126.33 -121.42,-29.84 -178.82,-17.25 -314.06,-35.9 -1.37,-0.19 -127.02,-27.51 -164.48,-34.15l-481.14 -44.77c28.62,-49.65 5.57,-17.6 28.56,-84.78 -467.12,53.14 -776.96,-329.86 -931.81,-619.83 -152.22,-285.05 -366.29,-819.76 -423.84,-1133.42l-62.07 -100.62c-48.1,198.73 -120.97,369.41 -196.64,543.32 -69.27,159.21 -46.54,415.52 -330.47,440.91 -1.71,45.24 -30.13,52.82 -146.81,51.72 -490.02,-4.6 -582.75,-572.65 -610.05,-981.88l-13.31 -158.27c-36.16,39.95 -36.37,26.47 -48.75,145.84 -4.16,40.22 1.05,77.27 -8.19,140.85l-275.4 -70.74c-1.76,-66.77 6.3,-340.23 -2.63,-378.12 -33.15,-140.64 -71.96,13.41 -81.84,-293.66 -4.52,9.23 -9.93,12.03 -11.52,28.61 -5.8,60.57 -51.8,44.78 -4.43,188.97 33.7,102.6 57.13,18.5 40.6,176.63l-394.36 37.2c-54.16,73.43 14.52,109.11 -202.23,114.35 1.52,144.99 28.8,126.95 -61.37,195.2l-207.3 151.64c-47.6,65.15 32.24,-7.35 -49.59,54.48 -201.35,152.11 -37.2,99.58 -186.77,182.77 -5.76,3.2 -14.13,5.62 -19.99,8.72 -191.96,101.47 -55.01,77.78 -247.34,124.62 -54.44,13.27 -50.82,6.33 -90.11,26.48 -99.54,51.05 -34.56,111.24 -313.68,117.04 -13.26,149.61 26.6,52.51 -57.63,85.95 47.66,133.59 54.47,-9.65 58.03,316.98 88.68,20.76 87.44,19.06 87.74,77.79l13.84 99.43c1.58,2.98 6.26,10 8.11,13.03 92.27,151.48 97.7,234.22 -19.75,387.73 -66.68,87.15 9.1,46.41 -90.1,82.11l69.08 43.22c82.14,81.24 -10.69,11.54 55.46,96.69 7.88,10.14 29.04,26.9 37.08,35.22 2.4,2.49 9.02,8.31 11.22,10.71l17.38 21.17c1.19,1.63 5.27,9.42 6.13,10.74 0.84,1.28 2.94,7.47 4.94,10.93 305,8.34 195.31,99.19 424.03,179.76 290.38,102.28 225.97,245.96 633.24,462.58 15.6,8.29 50.95,27.22 56.89,33.27l5.24 42.49c106.17,2.69 72.15,-5.01 144.37,29.34 0.03,164.11 4.66,155.56 -86.09,229.15 168.02,15.95 129.61,68.46 200.04,170.71 78.62,1.81 128.3,13.33 184.81,19.03 193.82,19.55 83.93,-64.9 363.68,37.27 66.42,24.26 80.14,9.69 119.92,53.66 93.83,103.73 -8.55,71.89 174.02,170.6 149.65,80.91 -100.59,-56.64 37.34,19.98 75.66,42.02 193.77,93.09 229.87,178.29 1.16,2.72 3.37,11.44 4.21,13.89 0.8,2.37 2.55,11.78 3.1,13.69 0.53,1.87 0.46,9.37 2.45,13.48 272.68,-4.39 563.97,-241.12 782.44,-274.25l2343.32 341.3c130.57,15.98 351.86,37.76 433.89,119.21z"/>
   <path class="fil5" d="M20561.28 6153.49l5.76 465.74c62.94,20.49 628.25,279.25 677.75,316.24 38.47,155.69 -1.64,292.83 14.91,459.14 162.72,141.74 526.09,256.36 730.33,375.32 43.15,179.52 -3.61,309.59 18.67,486.39 177.44,123.77 686.96,331.21 800.51,427.36l-3.43 491.8c163.33,129.1 598.04,348.7 811.71,447.8 113.91,129.7 23.1,388.09 53.8,557.53l365.42 200.03c24.02,-20.69 1200.04,-232.97 1326.62,-255.67 121.15,-21.72 222.27,-36.25 335.52,-66.68 182.35,-49.01 411.91,-47.82 672.89,-136.9 110.49,-37.72 7.93,-42.79 155.88,-30.28 51.27,4.33 107.5,27.38 178.57,37.35l1.14 -30.8c7.63,-76.23 69.8,-88.81 76.76,-95.36 60.04,-56.49 29.98,-43.96 67.81,-77.96 21.97,-19.74 5.6,-8.29 49.69,-34.23l56.96 -28.27c135.43,-61.71 145.69,-21.7 275.39,-130.99 84.07,-70.84 55.67,-59.05 198.12,-61 -2.93,-8.32 -12.71,-27.02 -15.23,-21.64 -2.4,5.14 -11.77,-16.14 -14.85,-20.44 -132.27,-184.72 150.42,-23.93 283.85,-176.26 69.14,-78.93 -42.54,47.77 23.56,-36.51 21.23,-27.07 10.66,-13.93 33.27,-36.49l137.61 -118.7c345.55,-218.31 -36.64,-0.66 257.6,-260.2 145.25,-128.12 -29.1,-57.48 234.78,-195.51l461.96 -228.66 5.01 -182.91 -104.22 -44.64c-0.83,-0.31 -81.76,-39.24 -209.94,-47.38 -11.68,-179.44 36.88,-149.64 -89.98,-166.52 13.02,-5.69 51.35,-18.27 52.5,-18.81 60.24,-28.12 22.08,-6.38 59.89,-32.47 -8.11,-206.15 21.93,-141.5 54.98,-287.24 -65.23,-102.52 -72.2,-60.63 -139.93,-138.41 80.71,-38.11 56.18,13.19 52.85,-148.82l-255.41 -90.41c8.23,-4.29 51.46,-20.61 53.62,-21.96 65.4,-40.85 41.73,19.94 28.26,-31.6l-737.42 -208.93c-33.13,-233.66 -79.01,-200.19 -117.62,-224.32l-206.32 -112.15 -10.01 -439.9c-54.14,85.63 -17.04,240.51 -35.87,399.46 -36.36,28.46 -104.27,63.31 -163.97,97.85l5.23 72 50.81 196.32c99.03,95.16 134.9,95.41 301.7,132.19 76.57,16.88 132.18,23.94 186.81,67.68 9.87,7.89 63.37,76.14 65.54,79.89 44.28,76.58 21.23,20.51 45.46,112.6 -41.61,67.08 -100.99,83.79 -141.85,105.88l16.69 97.92c35.35,138.08 169.33,125.92 9.04,313.23l140.73 86.17c-27.04,67.37 -15.32,27.11 -40.32,56.88 -120.99,144.07 8,-58.36 -43.73,44.24 5.97,3.03 14.16,3 16.7,11.17l72.02 39.75c92.17,43.1 61.71,-1.98 149.67,95.18l17.01 21.16c2.09,1.92 7.8,7.28 10.15,9.1 17.93,13.91 73.12,37.11 103.12,54.55l-133 67.1c-5.13,2.96 -12.21,6.92 -16.96,10.1 -4.65,3.1 -11.01,8.32 -15.36,11.69l-42.56 42.26c-142.93,120.92 -143.82,21.49 -270.22,105.34 -101.65,67.43 -105.03,110.35 -128.54,149.46 -3.41,5.67 -6.87,13.55 -10.45,19.16l-83.34 94.06c-49.23,44.9 2.37,7.27 -63.19,52.42l-105.87 67.97c-4.09,3.55 -9.65,10.4 -13.47,13.97 -3.7,3.45 -8.76,10.87 -12.3,14.19 -42.46,39.72 1.22,17.37 -52.5,39.6 -0.03,0.02 -62.61,13.83 -70.66,16.04 -92.11,25.18 11.81,7.91 -110.28,36.07 -33.44,71.11 18.52,-75.36 3,58.18 -0.2,1.78 -0.55,9.95 -3,14.08 -524.36,35.94 -258.78,31.69 -459.16,150.31 -2.52,1.49 -54.36,25.05 -59.77,27.64l-41.58 19.66c-127.09,62.23 9.48,-22.77 -290.98,-126.9 -226,-78.33 -702.46,-259.36 -892.87,-283.81 77.4,-179.46 64.25,-50.39 419.66,-219.43l259.38 -185.54c31.38,-24.88 48.99,-31.84 56.5,-37.18 58.81,-41.79 16.92,-4.58 34.49,-28.1 3.63,-4.86 10.1,-20.36 12.91,-26.5l199.13 -362.63c151.1,-236.74 -26.19,-476.08 -114.07,-693.35l-116.54 -313.86c-72.9,139.81 -140.72,410.23 -219.12,585.34 -90.33,201.76 -188.82,376.16 -317.95,514.14 -331.47,354.19 -445.03,106.79 -1236.23,-104l14.26 -490.09 -183.17 -57.87c-272.97,-88.75 -502.96,-208.76 -750.42,-272.37l-2.24 -445.58c-84.86,-64.3 -203.62,-94.89 -305.86,-121.23 30.81,-119.92 66.55,-179.9 140.67,-258.74 133.29,-141.77 68.6,-131.81 137.88,-292.43 2.73,-6.32 5.86,-14.01 9,-19.92 62.14,-116.91 383.9,-201.47 524.34,-198.23l-141.2 173.69 11.5 18.74c93.22,-66.22 226.51,-214.27 382.3,-242.17 429.97,-77.02 327.82,197.67 345.91,244.51 308.76,0.67 710.77,-88.16 977.14,-252.25 436.06,-268.64 215.62,-227.84 452.39,-407.51 251.41,-190.79 316.21,-16.46 552.45,-28.66 -2.31,6.26 -21.05,59.64 -21.74,68.65 -6.28,82.2 -5.34,15.03 20.23,49.2 57.53,-74.66 101.52,-118.99 173.27,-171.39 314.35,-229.58 291.23,-406.96 460.37,-515.33l6.32 -143.62c29.58,-84.31 112.67,-240.14 15.62,-299.81 -41.21,315.1 -222.53,472.39 -435.4,576.77 -421.68,206.79 -1019.16,454.78 -1500.9,563.29 -84.71,19.08 -154.27,16.02 -231.19,33.11 -78.49,17.45 -95.71,43.21 -186.42,66.01 -144,36.19 -290.93,59.86 -428.77,90.17 -253.23,55.68 -592.37,96.85 -853.2,141.95 -304.1,52.58 -585.89,113.4 -892.02,153.31 -427.59,55.75 -1475.06,241.49 -1870.75,191.42z"/>
   <path class="fil6" d="M23836.89 2993.7c-46.87,148.19 -16.57,92.77 -124.4,146.24 -77.13,38.25 -118.63,32.79 -156.32,118.59l190.2 28.73c7.52,7.87 11.85,19.92 14.97,29.05 2.99,8.72 9.67,18.07 12.47,28.66 31.99,121.35 0.4,104 -5.44,129.13 -54.68,235.27 -74.95,977.14 -76.09,1220.33l-81.69 45.16c-5.79,2.56 -63.75,23.09 -64.85,23.47 -37.27,12.7 -94.26,30.49 -128.88,42.67 -89.78,31.59 -156.71,46.24 -267.84,79.58 -537.05,161.13 -1208.71,282.33 -1773.29,382.22l-1914.99 236.61c-161.55,14.91 -474.18,51.74 -631.63,52.01 39.91,-23.53 -76.72,-25.67 72.97,-9.21l1125.11 449.27c257.86,106.75 318.28,72.49 280.2,214.32l-145.39 -79.62c-6.78,9.46 -17.43,19.24 -22.96,26.32l-50.33 74.44c5.28,595.48 -27.58,343.3 138.23,532l-1521.68 99.78c-352.03,56.22 -534.21,45.89 -897.14,67.6 -1333.02,79.73 -3897.83,93.02 -5166.54,61.99 -844.57,-20.66 -1650.58,-87.74 -2486.99,-117.34l104 -95.08c4.15,-4.1 12.21,-11.39 17.34,-17.93 -17.34,-140.14 -38.22,-305.95 8.46,-438.41l2386.24 80.44c847.17,-10.22 1703.12,37.54 2554.53,16.05 1140.81,-28.8 2522.11,-46.19 3649.9,-134.68 259.26,-20.35 979.95,-104.89 1182.26,-84.39 -36.54,-36.67 -819.62,-345.67 -941.71,-393.27 -86.83,-33.85 -168.33,-67.84 -243.45,-99.23 -144.42,-60.37 -106.9,-29.29 -214.88,10.74 -36.87,13.67 -575.64,58.51 -577.84,58.4 -451.72,-21.27 -551.8,-17.18 -941.62,19.66l-44.68 -11.06c-0.15,-0.05 -62.03,-22.4 -148.91,-1.48 -366.94,88.35 -873.02,41.96 -1288.53,41.75 -192.03,29.58 189.91,88.74 -373.14,105.68l-57.4 -105.87c-160.88,-4.45 -299.98,47.21 -487.99,54 -280.03,10.12 -137.18,-42.13 -289.99,-55.82l-629.2 -3.05c-96.98,0.08 -156.16,-3.39 -234.75,21.35 -89.57,28.19 76.55,30.94 -108.31,30.24 -161.42,-0.62 -9.4,-5.87 -152.8,-45.18 -193.62,-53.09 -233.06,-6.16 -391.77,-1.74 -193.38,5.4 -333.07,-50.23 -483.03,-31.03 -108.4,13.87 -84.5,47.79 -218.7,6.8 -314.69,-96.12 -314.83,7.92 -677.39,15.26 -51.88,-100.77 106.72,-79.72 -49.36,-109.51 -107.6,-20.54 -252.89,167.34 -553.25,221.21 77.11,-138.15 86.36,-101.43 262.43,-204.15l186.17 -88.51c140.02,-23.44 -21.1,-33.15 44.26,5.43l-1286.35 632.95c26.21,6.3 76.44,-50.54 78.2,227.15 0.69,109.59 -2.46,205.33 -16.72,313.76 -190.24,34.29 -289.4,75.95 -439.99,173.76 -65.04,42.23 -87.09,54.97 -119.62,146.15 48.15,29.11 34.66,43.39 99.09,28.58 22.93,-69.78 504.61,-9.68 621.25,0.25 1013.35,86.28 4019.63,116.75 4933.93,96.09 476.26,-10.76 958.84,-14.61 1435.12,-20.46 577.23,-7.09 2182.72,-82.85 2727.77,-142.79 156.86,-17.25 1184.69,-110.25 1244.82,-96.76 39.24,156.6 17.53,327.68 10.85,488.81 92.54,24.94 95.06,25.16 159.95,96.04 121.59,92.2 398.61,180.27 477.87,263.02 125.56,50.22 58.81,377.2 55.29,505.1l146.08 75.5 411.82 256.61c54.1,28.42 94.54,40.55 133.08,85.04 118.17,7.3 52.89,399.18 51.6,490.53 76.05,78.58 121.08,73.55 198.64,153.77 63.34,35.25 63.33,44.4 123.31,82.15 44.2,27.81 89.96,52.28 145.69,85.08 61.3,36.07 207.74,112.02 255.73,161.16 124.31,19.4 96.6,87.08 93.51,234.45 -2.3,109.95 -10.41,217.69 -8.51,327.07 95.04,39.7 187.53,117.24 268.62,185.34 89.19,59.37 173.4,106.08 269.2,163.82 93.29,56.23 198.19,109.07 271.22,169.64 41.08,28.51 38.41,-5.73 67.22,83.49l-6.9 475.64 223.46 156.14c177.23,162.55 589.42,371.31 659.15,445.99 155.77,58.69 64.13,432.51 69.23,579.49 98.07,90.11 153.95,141.65 265.79,217.75 163.6,152.13 513.6,350.22 714.99,483.54 146.01,106.09 36.6,581.97 41.34,763.62l587.01 453.77 502.39 337.39c185.51,0.88 76.23,-6.49 117.06,-66.01l-610.43 -407.51c-5.58,-2.95 -13.08,-6.63 -18.73,-9.49l-381.47 -216.85c-3.77,-2.12 -52.84,-30.73 -53.66,-31.41 -214.07,-177.51 53.69,-674.43 -28.3,-864.01 -60.53,-90.06 -398.62,-280.41 -515.09,-351.31 -45.59,-27.75 -68.96,-48.29 -123.04,-74.95 -584.71,-288.24 -419.61,-87.17 -418.22,-747.94 0.35,-170.73 70.87,-95.85 -246.12,-284.55 -518.93,-308.91 -247.69,-136.12 -531.31,-267.46 -382.59,-177.18 -120.55,-359.68 -160.09,-744.03 -177.16,-104.98 -662.97,-398.38 -900.41,-431.14 11.22,-357.69 -96.37,-533.56 165.76,-631.64 122.92,464.06 -131.53,468.47 137.73,635.9l130.85 106.89c4.69,4.38 10.54,10.43 15.36,14.62l377.47 228.44c70.65,39.55 159.88,78.84 243.89,134.23l11.66 517.04 258.85 204.95c158.84,141.99 692.87,403.08 720.33,484.41l-28.41 488.24c79.34,73.54 186.96,113.49 268.78,192.46 298.28,287.89 657.74,411.85 818.64,583.14l-34.92 688.91 452.91 333.32c4.22,4.03 10.12,10.12 14.26,14.22 60.15,59.67 -42.77,-36.34 41.76,44.13 52.01,49.51 18.73,21.53 80.41,64.16l489.22 321.35c180.46,64.69 215.72,-38.94 250.96,-87.2l-631.27 -402.89c-122.94,-62.69 -114.57,-23.78 -239.96,-105.57 -0.58,-0.38 -48.26,-33.49 -50.16,-34.81 -214.69,-148.5 -258.83,-88.18 -252.63,-337.67 0.18,-6.99 100.61,-742.42 34,-634.3 -3.34,5.43 -12.58,-15.93 -17.24,-20.56l-88.18 -71.14c-42.11,-26.76 -74.43,-43.13 -123.92,-72.94 -151.75,-91.38 -385.89,-252.17 -549.54,-309.59l-290.91 -136.38c-114.93,-769.53 333.25,-484.16 -464.95,-946.99 -78.4,-45.47 -151.72,-92.19 -251.22,-125.68l-138.53 -52.43c-36.04,-15.59 -97.74,-40.62 -149.89,-52.57l28.42 -630.93c-69.28,-83.56 -330.24,-202.01 -440.14,-259.55 -553.51,-289.81 -555.09,28.11 -449.5,-832.66l240.8 -11.92c-213.67,-99.1 -648.38,-318.7 -811.71,-447.8l3.43 -491.8c-113.55,-96.15 -623.07,-303.59 -800.51,-427.36 -22.28,-176.8 24.48,-306.87 -18.67,-486.39 -204.24,-118.96 -567.61,-233.58 -730.33,-375.32 -16.55,-166.31 23.56,-303.45 -14.91,-459.14 -49.5,-36.99 -614.81,-295.75 -677.75,-316.24l-5.76 -465.74 -1096.62 -495.85c1488.45,-216.29 2763.71,-302.76 4131.82,-702.96 51.98,-43.66 -65.79,-14.8 67.24,-44.48 5.81,7.26 10.44,18.23 13.84,24.24l34.9 62.42c61.34,107 -41.62,-2.65 24.48,38.99 1.6,-308.42 29.64,-608.39 44.13,-915.26 12.53,-265.51 2.57,-707.51 29.78,-933.93l173.11 -14.44c-50.47,-132.35 64.77,74.34 -22.65,-15.83 -78.65,-81.12 -60.4,-30.99 -39.27,-98.92l62.22 -8.23c5.51,1.55 14.72,3.29 20.07,6.19 76.86,41.74 87.24,96.3 45.62,285.36 191.93,-5.88 381.88,11.28 536.07,-46.98 -88.44,-265.81 -99.5,-149.84 -407.67,-179.18 -99.82,-35.28 -48.69,-14.23 -89.39,-57.26l39.53 -1187.08c-108.92,127.84 -104.04,1032.53 -110.4,1181.1 -142.27,-90.81 -60.49,-95.75 -181.2,-57.69z"/>
   <path class="fil4" d="M24066.71 11539.4l-223.46 -156.14 6.9 -475.64c-28.81,-89.22 -26.14,-54.98 -67.22,-83.49 -42.4,37.32 -354.86,78.49 -412.98,96.15l-2563.38 261.69c-272.13,22.57 -115.17,4.74 -271.39,74.68l-32.77 6.1c-5.51,-0.01 -22.12,-3.87 -29.08,-4.44 -532.09,-43.93 -1989.73,109.68 -2634.36,127.45 -2200.73,60.67 -4532.91,160.31 -6711.28,20.38 -164.28,-10.56 -347.49,5.01 -498.87,-7.99 -581.62,-49.95 -3146.23,-175.33 -3473.92,-269.46 -72.37,158.87 -18.53,400.53 -13.43,579.93l-186.04 171.53c174.51,-9.51 381.38,73.64 520.03,-2.72 156.28,53.63 -59.23,69.7 344.8,85.59 140.81,5.54 238.65,26.63 402.09,32.13 233.19,7.85 499.69,61.93 744.95,74.02l774.66 56.38c805.86,19.54 1652.68,89.96 2441.31,94.21 512.42,2.77 1091.38,26.83 1635.46,30.11 562.03,3.39 1130.71,-0.92 1693.45,-8.03 541.82,-6.85 1065.55,-52.69 1607.35,-54.05 788.18,-1.98 1987.09,-101.25 2787.49,-165 121.9,-9.71 197.8,4.82 269.52,-134.83 208.71,100.11 28.7,28.44 273.63,8.27 405.46,-33.39 422.85,74.4 1177.96,-41.79 155.6,-23.94 326.96,-28.78 498.22,-53.08 185.24,-26.28 344.33,-18.84 524.06,-51.19l1344.79 -202.29c19.87,-2.7 60.6,-4.24 71.51,-8.48z"/>
   <path class="fil4" d="M23242.51 10490.67c-81.09,-68.1 -173.58,-145.64 -268.62,-185.34 -1.9,-109.38 6.21,-217.12 8.51,-327.07 3.09,-147.37 30.8,-215.05 -93.51,-234.45 -3.05,5.46 36.6,1.17 -78.53,28.3 -8.46,1.99 -75.92,14.69 -92.38,17.83 -493.36,94.28 -1081.98,94.14 -1573.11,175.46 -840.85,139.22 -4920,285.15 -5661.39,303.39 -1342.05,33.02 -2646.53,-20.38 -3880.3,-37.56 -507.43,-7.07 -3524.29,-152.36 -3697.18,-251.63 -58.18,205.02 -52.24,319.12 -29.76,581.58 -71.53,63.77 -107.49,104.36 -184.94,159.06 222.42,-14.78 685.4,55.64 927.09,88.74 259.28,35.51 694.78,43.6 982.01,57.51 207.66,10.06 226.1,55.34 457.63,53.74 193.98,-1.34 308.73,16.6 487.35,17.62l2022.61 61.7c302.47,38.36 708.17,15.44 1021.12,9.43 660.56,-12.68 1376.77,-8.94 2037.88,0.75 171.01,2.51 345.56,1.82 516.72,-1.09 393.51,-6.7 250.84,-27.59 460.21,-49.28 263.48,-27.3 638.17,-6.69 974.87,-9.56 349.17,-2.97 642.95,-59.27 975.68,-59.46 172.77,-0.1 345.31,-0.67 518.12,-1.6 208.08,-1.12 267.72,-53.04 435.62,-72.92 289.37,-34.26 670.27,-60.39 970.12,-65.97 331.07,-6.16 631.91,-81.7 921.28,-106.6 162.29,-13.97 362.43,-3.52 492.03,-26.95 163.46,-29.55 201.4,-74.1 406.41,-104.5 124.74,-18.5 861.63,-50.18 944.46,-21.13z"/>
   <path class="fil4" d="M22364.16 9415.42c-77.56,-80.22 -122.59,-75.19 -198.64,-153.77 1.29,-91.35 66.57,-483.23 -51.6,-490.53 -82.76,59.16 -2939.47,279.51 -3330.51,295.4 -122.38,4.97 -304.98,8.57 -419.07,28.3l-5634.02 105.42c-235.63,21.81 -530.69,-22.77 -836.17,-27.04 -494.42,-6.9 -1125.11,-65.25 -1692.16,-80.55 -146.75,-3.96 -1503.56,-58.46 -1643.49,-111.96 -40.95,154.63 -9.69,247.95 -6.99,398.38 3.91,216.87 -51.5,140.71 -154.07,247.95 663.67,12.6 505.39,56.11 860.71,77.07 293.27,17.29 590.55,17.64 879.72,51.44 97.84,11.44 978.47,62.5 1088.16,39.8 559.71,-115.85 19.67,32.62 553.99,42.13 2610.67,46.45 4615.51,56.97 7232.92,-123.62 276.69,-19.09 618.38,-8.28 876.5,-48.02 537.99,-82.85 1072.72,-98.98 1649.68,-180.11 279.44,-39.3 533.74,-40.72 825.04,-70.29z"/>
   <path class="fil4" d="M21569.02 8429.47l-146.08 -75.5c3.52,-127.9 70.27,-454.88 -55.29,-505.1 -214.45,112.84 -3740.91,258.86 -4419.42,304.18 -1364.96,91.18 -3361.62,15.72 -4736.84,14.52 -725.05,-0.63 -2296.85,-93.03 -3025.82,-153.76 -80.3,177.18 25.01,430.32 -42.3,535.33l-122.76 95.49 1534.63 86.56c514.59,58.89 1040.8,26.91 1570.07,65.34 564.8,41.01 3398.31,74.55 4032.2,-5.67 381.33,-48.25 1755.22,-10.06 2380.6,-89.67 349.53,-44.49 935.68,-34.31 1126.24,-81.04 173.28,-42.49 597.39,-45.62 785.93,-49.37 160.35,-3.19 237.45,-37.1 373.65,-55.04 155.52,-20.48 176.59,-44.94 341.19,-52.34 123.47,-5.56 321.14,9.32 404,-33.93z"/>
   <path class="fil5" d="M6285.7 7579.71c-116.8,25.05 -172.68,93.27 -328.13,112.95l12.17 506.14c-94.48,51.37 -850.23,347.05 -876.74,374.73 -22.99,67.18 0.06,35.13 -28.56,84.78l481.14 44.77c37.46,6.64 163.11,33.96 164.48,34.15 135.24,18.65 192.64,6.06 314.06,35.9 300.5,73.85 867.7,85.68 1132.53,126.33 114.08,17.5 370.9,94.18 494.24,17.36 7.12,-59.65 -11.85,-55.9 37.3,-39.31 52.63,-79.55 435.52,-296.93 533.39,-332.59 83.51,-133.57 125.16,21.98 128.76,-228.24 1.76,-122.07 -39.46,-271.25 16.82,-367.4 70.05,-74.7 485.27,-304.84 543.81,-328.81l84.71 -51.39c15.87,-154.17 -48.55,-439.48 52.06,-521.75l550.88 -306.37 9.6 -479.82c-352.92,43.39 -1175.28,-67.01 -1531.55,-100.53 -728.19,-68.52 -2098.16,-299.81 -2871.39,-405.24 -148.73,-20.28 -173.1,-38.54 -332.51,-66.82 -266.97,-47.36 -844.67,-247.37 -1018.41,-261.24l128.64 96.69c45.61,41.35 58.67,74.25 99.24,125.59l87.28 115.5c10.23,15.36 39.43,60.21 45.54,68.05 107.26,137.85 476.85,299.43 662.26,332.44 141.09,25.12 654.35,106.81 773.96,58.85 24.82,-9.95 183.43,-161.58 232.56,-195.58 102.81,-71.17 173.5,-106.57 327.8,-66.02 64.66,107.45 41.8,80.71 57.34,224.29 25.92,239.49 -22.5,-120.97 58.52,144.85l0.72 -34.93c1.28,-2.41 5.37,-10.62 7.23,-13.35 2.17,-3.18 8.22,-10.53 11.03,-13.89 153.38,-183.41 23.82,28.27 124.53,-219.84 7.65,0.02 19.12,-0.99 21.59,7.72l123.66 7.01c129.16,-16.68 135.06,-35.7 251.87,75.32 159.01,151.14 310.72,424.02 368.28,612.64l-388.38 143.03 4.13 483.26 -566.46 200.77z"/>
   <path class="fil7" d="M27270.87 6179.17l10.01 439.9 206.32 112.15c38.61,24.13 84.49,-9.34 117.62,224.32l737.42 208.93c13.47,51.54 37.14,-9.25 -28.26,31.6 -2.16,1.35 -45.39,17.67 -53.62,21.96l255.41 90.41c3.33,162.01 27.86,110.71 -52.85,148.82 67.73,77.78 74.7,35.89 139.93,138.41 -33.05,145.74 -63.09,81.09 -54.98,287.24 -37.81,26.09 0.35,4.35 -59.89,32.47 -1.15,0.54 -39.48,13.12 -52.5,18.81 126.86,16.88 78.3,-12.92 89.98,166.52 128.18,8.14 209.11,47.07 209.94,47.38l104.22 44.64 -5.01 182.91 -461.96 228.66c-263.88,138.03 -89.53,67.39 -234.78,195.51 -294.24,259.54 87.95,41.89 -257.6,260.2l-137.61 118.7c-22.61,22.56 -12.04,9.42 -33.27,36.49 -66.1,84.28 45.58,-42.42 -23.56,36.51 -133.43,152.33 -416.12,-8.46 -283.85,176.26 3.08,4.3 12.45,25.58 14.85,20.44 2.52,-5.38 12.3,13.32 15.23,21.64 -142.45,1.95 -114.05,-9.84 -198.12,61 -129.7,109.29 -139.96,69.28 -275.39,130.99l-56.96 28.27c-44.09,25.94 -27.72,14.49 -49.69,34.23 -37.83,34 -7.77,21.47 -67.81,77.96 -6.96,6.55 -69.13,19.13 -76.76,95.36l-1.14 30.8c-71.07,-9.97 -127.3,-33.02 -178.57,-37.35 -147.95,-12.51 -45.39,-7.44 -155.88,30.28 -260.98,89.08 -490.54,87.89 -672.89,136.9 -113.25,30.43 -214.37,44.96 -335.52,66.68 -126.58,22.7 -1302.6,234.98 -1326.62,255.67 77.52,109.34 448.01,205.5 569.74,345.86 197.59,43.93 1144.79,-155.97 1373.69,-199.81l1350.26 -279.44c-11.49,285.55 -37.19,372.61 58.84,576.83l16.98 33.76c-148.29,146.37 87.91,-17.6 -121.63,81.09 -53.84,25.36 -61.94,23.86 -126.04,44.42l-1489.09 345.12c-225.15,32.95 -423.63,96.33 -628.02,126.98l-0.14 46.19 574.58 345.09c166.35,94.77 525.65,-32.06 752.48,-75.03 255.61,-48.42 507.36,-99.35 764.76,-151.94 494.85,-101.1 988.05,-241.27 1462.86,-349.73 -55.18,-76.9 15.21,-4.71 -51.19,-51.91l-196.07 -96.15c-6.9,-3.67 -106.94,-59.38 -110.12,-61.8l-70.81 -73.39c-125.26,-130.12 -259.87,-207.11 -260.62,-207.8 -65.9,-61 -13.51,-80.24 -137.3,-167.51l84.42 -56.88c-6.77,-2.17 -15.39,-4.45 -22.15,-6.66l-63.95 -22.64c148.29,-34.57 156.29,10.03 172.21,-114.89l-172.21 0 -1.51 -231.47 -55.9 -27.04c16.17,-60.59 -1.26,-23.85 25.01,-47.62 65.55,-59.31 -7.77,121.26 182.34,-175.68 28.78,-44.95 -7.17,-119.1 209.53,-163.53l434.99 -110.04c118.74,-35.87 208.04,2.36 309.32,-37.76 6.14,-2.43 13.68,-6.5 19.12,-9.32l92.35 -87.06c57.88,-37.51 -17.82,-9 76.36,-29.64 0,-239.93 7.44,-147.44 -86.11,-287.24l145.2 -57.44c-1.9,-5.71 -24.4,-45.43 -25.59,-50.73 -21.27,-94.8 65.8,-105.04 138.72,-150.34 -8.71,-104.67 -25.31,-70.11 -7.49,-130.06l54.62 -108.8c19.31,-44.73 -0.9,-20.51 24.2,-61.9 74.75,-123.3 305.03,-109.11 423.37,-208.95 75.47,-63.67 24.69,-28.33 76.76,-96.27l92.9 -112.11c-145.82,-185.41 -244.15,55.96 -313.21,-207.79l-20.39 42.71c-2.07,4.81 -11.76,29.09 -13.99,34.23 -18.34,42.19 52.33,18.38 -16.31,31.23 -43.61,-157.26 -208.65,-92.98 -107.6,-508.37l11.7 -88.37c-19.08,-94.8 36.2,44.38 -14.98,-28.29 -54.54,-77.43 4.48,16.28 -25.94,-28.52 -47.23,-69.57 -39.09,-119.48 -40.43,-204.8l-57.34 -62.65c4.42,-1.82 14,-5.85 20.23,-10.08 -90.19,-20.78 -270,-33.11 -349.05,-60.93 -6.81,-2.4 -13.64,-6.22 -20.37,-8.78l-277.74 -121.2c-298.68,-182.04 -73.52,57.6 -374.56,-197.81 -136.52,-115.84 -98.31,1.41 -221.57,-160.77 -2.38,-3.13 -6.3,-11.03 -9.19,-14.1 -81.07,-86.01 -100.31,-31.24 -158.16,-71.06 -106.49,-73.29 25.95,-102.57 -107.35,-206.45 -233.53,-181.98 -394.01,-90.21 -438.77,-253.24 -28.42,-103.55 14.7,-98.35 -56.88,-201.44 5.76,122.23 41.41,207.41 -33.61,278.05z"/>
   <path class="fil8" d="M5095.32 3520.84l11.94 99.05 -221.84 119.93c17.92,19.32 -19.4,72.07 104.25,44.17 5.65,-1.28 94.69,-53.62 126.16,-65.47l84.26 1175.05c-0.01,9.04 -0.49,16.78 -1.1,25.29 -0.59,8.22 -2.76,16.9 -3.73,24.14l-12.42 45.73c55.24,76.01 39.19,103.09 40.56,222.87 -146.43,100.81 -206.77,-34.26 -614.15,260.18 8.04,132.36 -6.69,33.73 53.21,75.59l142.42 -57.85c10.83,-39.91 -8.41,-2.09 1.24,-26.96 60.42,1.78 96.65,-3.97 143.07,16.04 65.44,28.21 -5.96,-3.99 50.44,33.68 3.12,2.09 8.71,20.72 64.81,43.87 7.97,-3.55 18.62,-19.71 22.62,-13.17l193.95 -116.11 2.14 -55.32c-3.96,-6.75 -10.95,-24.68 -12.11,-20.09l-17.35 -38.78c-21.83,-104.97 61.81,-134.57 -16.89,-158.52 12.97,225.4 -28.29,89.51 114.53,141.74 63.89,-150.05 121.75,187 71.27,-403.7 -18.02,-210.84 -105.88,-1321.93 -60.72,-1484.55 20.7,-74.52 -8.4,-15.85 29.86,-63.3 -82.63,-274.61 -179.34,-1245.57 -131.82,-1535.71 172.24,-15.69 60.03,41.98 206.36,89.25l73.31 -91.08c2.81,-3.85 8.2,-12.54 12.8,-18.44 140.37,63.79 225.14,34.13 216.62,-126.49 -68.33,15.37 -9.36,-7.48 -54.17,42.25 -16.89,18.75 -1.16,17.78 -47.64,65.39l-197.94 -207.78c-4.44,-3.42 -13.32,-10.53 -16.94,-13.34 -3.66,-2.84 -11.9,-8.44 -17.19,-13.43 187.44,-454.42 -536.94,-608.81 -640.9,-241.52 -60.58,214.02 162.64,271.52 -45.51,296.67l-54.49 -766.29c74.08,-10.39 130.14,-6.83 176.92,8.88 140.8,47.27 41.12,33.01 131.71,105.18l317.08 126.15c109.39,48.19 204.36,46.32 321.49,50.4 2.44,0.08 9.85,0.85 12.18,1.22 24.24,3.84 -37.24,6.3 53.9,21.96l295.18 -62.69c158.53,-38.59 178.73,-55.74 324.21,-144.82 5.33,-3.26 12.96,-6.99 18.17,-10.37 58.51,-38.05 27.04,-19.32 64.14,-50.93 260.58,-222.04 51.15,1.16 171.86,-172.69 82.07,-118.21 147.14,-122.91 330.95,-91.65 11,178.93 20.58,361.67 29.19,541.12 10.05,209.38 -17.28,357.36 -9.17,531.38 15.83,339.76 78.42,797.27 50.5,1121.11 -190.38,50.09 -299.5,-5.64 -384.26,190.27l114.26 19.5c175.75,6.14 669.87,59.51 802.9,-91.74 -173.65,-3.56 -227.88,38.77 -384.55,28.94l-25.84 -1168.05c1.3,-245.66 -87.49,-698.71 -77.44,-1161.19 59.55,-28.11 -8.37,3.29 74.88,-10.33 5.54,-0.91 14.15,-2.94 20.09,-3.85 6.37,-0.98 14.84,-3.23 21.55,-4.07l45.39 -5.64c205.52,-2.01 168.53,139.13 343,169.26 94.67,16.35 21.18,-22.97 86.3,11.51l51.41 53.7 14.63 -126.12c-224.84,-48.78 -400.65,-256.03 -626.96,-161.61l-14.89 -38.51c161.69,83.96 132.76,-38.5 139.73,-45.04 -66.66,-54.35 -9.97,23.17 -28.81,-76.42 -16.32,-86.3 34.39,-161.66 -185.18,-215.02 -215.73,-52.42 -237.4,82.82 -200.49,288.03l-243.74 157.48c-192.48,272.16 -656.32,465.85 -1044.63,386.81 -247.22,-50.32 -338.96,-139.97 -520.2,-249.96 -88.4,-53.64 -96.73,-96.84 -108.8,-157.22 -8.52,-42.61 3.77,-38.6 -12.37,-98.93 -16.31,-60.93 -61.13,-106.98 -111.53,-139.12 -124.13,-79.14 -261.34,0.77 -333.2,48.16 -28.69,158.86 -8.35,120.27 14.28,268.51 -80.96,35.06 -112.98,59.17 -197.53,92 59.67,126.47 103.27,72.49 6.31,241.04 -43.77,76.08 -93.44,147.99 -164.32,211.08 -207.76,184.92 -281.63,31.03 -478.72,-62.57 64.88,-76.46 46.94,-11.03 60.21,-142.83l-113.32 73.6c40.52,-132.77 -44.16,-120.49 -142.4,-205.43 114.41,-404.91 -539.65,-539.37 -513.72,-44.92 -193.14,61.74 -234.85,178.42 -146.97,389.61l-95.78 86.12c-60.36,58.78 -61.05,84.18 -87.23,115.27 -122.7,145.77 -105.68,-7.06 -184.47,-44.3 5.16,326.26 312.6,-66.52 468.51,118.48 57.99,72.22 -2.45,105.65 72.26,233.4 193.47,330.82 88.62,970.64 99.42,1185.84l63.83 917.89c-149.4,51.02 -255.21,47.33 -299.87,202.22l132.18 55.52c51.28,8.92 135.93,9.59 192.4,14.74l27.28 355.36c-34.65,186.49 -462.46,23.2 -551.56,335.85 195.96,75.31 1289.94,104.31 1385.72,-129.55 -97.38,-108.5 -257.28,-135.59 -397.97,-143.63l-169.98 -36.2 -29.67 -393.94c216.1,-4.13 490.63,-6.82 638.52,-115.6 -66.22,-224.66 -330.03,-115.43 -500.23,-195.84 -61.06,-181.89 -75.9,-1103.58 -118.38,-1438.24 -21.89,-172.43 -80.13,-208.84 -72.75,-454.1 246.35,150.31 106.16,95.76 259.25,184.61l207.75 109.28c212.99,84 452.94,101.96 661.86,-4.24 77.61,-39.45 -39.28,15.72 35.71,-20.34 5.87,-2.83 13.02,-6.7 19.16,-9.37 6.37,-2.77 13.71,-5.89 20.43,-8.47 47.91,-18.41 77.91,-20.92 120.26,-34.35 18.88,263.96 108.11,912.85 65.48,1145.55 -258.35,51.08 -130.79,-42.02 -281.57,-62.31 -141.66,-19.06 -72.73,-19.1 -144.57,92.04l-39.71 63.86c80.89,70.59 24.94,18.95 80.54,105.43 282.02,46.37 493.52,15.32 770.01,-4.84 52.75,48.97 19.01,-11.77 30.88,75.69zm-207.85 -279.79l239.6 6.14c50.04,-439.48 -22.34,-960.25 -60.53,-1427.99 -201.35,-14.2 -271.09,-28.37 -263.33,171.91l84.26 1249.94zm-1204.67 -1846.94c-244.38,211.46 -55.94,-2.99 -419.43,54.69 -15.54,135.4 -32.31,171.19 215.54,350.13 90.94,65.66 173.37,156.94 352.3,222.52 156.73,57.43 307.12,57.11 466.56,7.58 258.84,-80.42 220.93,-74.83 218.77,-287.73 97.2,83.12 31.39,77.32 101.62,52.18 46.15,-127.49 -30.02,-765.92 -47.47,-966.86 -146.56,-12.64 -161.25,51.9 -207.43,151.76 -116.33,251.53 -345.49,630.31 -680.46,415.73z"/>
   <path class="fil4" d="M9756.09 7164.67c-50.72,126.59 -20.01,327.92 -6.56,471.14l-134.23 88.67 2796.72 124.7c2187.52,94.1 4948.44,-13.23 7145.27,-162.35 196.53,-13.34 1263.54,-126.93 1332.49,-100.98 -64.89,-70.88 -67.41,-71.1 -159.95,-96.04 6.68,-161.13 28.39,-332.21 -10.85,-488.81 -60.13,-13.49 -1087.96,79.51 -1244.82,96.76 -545.05,59.94 -2150.54,135.7 -2727.77,142.79 -476.28,5.85 -958.86,9.7 -1435.12,20.46 -914.3,20.66 -3920.58,-9.81 -4933.93,-96.09 -116.64,-9.93 -598.32,-70.03 -621.25,-0.25z"/>
   <path class="fil4" d="M20088.71 6231.67l-31.39 -29.97c-202.31,-20.5 -923,64.04 -1182.26,84.39 -1127.79,88.49 -2509.09,105.88 -3649.9,134.68 -851.41,21.49 -1707.36,-26.27 -2554.53,-16.05l-2386.24 -80.44c-46.68,132.46 -25.8,298.27 -8.46,438.41 -5.13,6.54 -13.19,13.83 -17.34,17.93l-104 95.08c836.41,29.6 1642.42,96.68 2486.99,117.34 1268.71,31.03 3833.52,17.74 5166.54,-61.99 362.93,-21.71 545.11,-11.38 897.14,-67.6l1521.68 -99.78c-165.81,-188.7 -132.95,63.48 -138.23,-532z"/>
   <path class="fil9" d="M24009.83 524.66c3.56,5.12 86.6,7.3 -21.12,132.52 92.82,-6.25 90.06,13.96 141.52,-30.15l-1.72 41.97c0.64,4.73 1.2,16.18 2.16,21.84 0.51,3 16.04,57.69 18.75,69.68l-13.62 254.32c-173.45,12.03 -569.07,15.48 -428.63,433.96 -6.43,5.11 -15.32,10.99 -19.87,14.55 -4.46,3.47 -13.81,10.31 -19.15,14.58 -19.77,15.75 -199.39,157.43 -217.22,111.48 -2.04,-5.27 -11.61,0.21 -16.43,3 23.33,121.74 109.02,167.43 200.51,198.67 148.02,-81.89 -8.23,-91.79 261.16,-79.96l-59.28 1282.58c120.71,-38.06 38.93,-33.12 181.2,57.69 6.36,-148.57 1.48,-1053.26 110.4,-1181.1l-39.53 1187.08c40.7,43.03 -10.43,21.98 89.39,57.26l65.74 -1403.1c150.51,48.02 71.38,11.78 147.69,126.02l111.91 122.73c120.85,119.67 290.74,225.15 511.7,155.13 334.91,-106.12 562.53,-584.17 623.79,-629.92 38.01,368.44 -83.65,707.09 -104.24,1076.42 -20.29,363.92 -35.99,740.59 -68.47,1101.66 -210.12,8.25 -376.01,15.25 -476.99,140.57 93.04,88.93 444.34,113.99 618.84,125.08l-8.62 372.37c-195.9,1.09 -522.47,6.38 -563.86,227.18 245.41,109.54 1089.99,226.26 1337.69,50.91 -35.5,-231.44 -310.92,-204.08 -529.32,-260.31l9.03 -388.32c145.31,-12.27 189.57,8.03 286.08,-69.46 -76.32,-144.83 -137.48,-90.81 -261.64,-172.34 -11.47,-293.97 41.15,-612.31 60.72,-919.14 12.02,-188.38 -34.35,-287.66 -20.08,-488.33 12.25,-172.36 23.27,-344.57 35.03,-517.02 141.02,-98.79 60.38,11.95 166.76,-156.3 74.97,-118.57 70.44,-132.56 118.52,-250.03 101.65,41.68 195.13,93.1 226.85,-75.93 -130.75,55.26 49.69,45.55 -136.56,76.81 -11.44,-114.67 86.1,-40.5 -128.46,-239.88 -3.45,-3.2 -10.96,-9.68 -15.56,-15.32 44.25,-45.24 63.85,-55.32 94.15,-114.89 -37.53,-47.35 -37.28,-87.88 -77.92,-152.34 -91.73,-145.52 -100.35,-8.81 -186.13,-187.68 -122.55,-255.54 -451.47,-178.03 -492.76,84.52 -35.55,226.05 82.24,-43.8 -193.77,289.55l-104.81 -56.08c-4.48,-3.92 -10.36,-13.32 -16.09,-19.49 49.29,238.7 88.46,33.03 307.89,82.59 -381.21,213.37 -573.31,312.1 -957.73,-16.92 -100.91,-86.37 -183.65,-143.4 -219.89,-290.78 204.19,-0.11 144.9,31.8 273.06,50.71 53.16,-48.34 37.13,-14.85 73.5,-92.08l-102.2 59.16c-74.08,-95.62 -39.17,-97.89 -160.67,-145.02 24.66,-165.49 55.52,-332.37 -151.26,-327.4 -48.74,1.17 -147.81,31.03 -195.27,63.69 -84.24,57.97 -78.53,64.15 -65.17,193.01z"/>
   <path class="fil10" d="M25914.21 7004.39l116.54 313.86c87.88,217.27 265.17,456.61 114.07,693.35l-199.13 362.63c-2.81,6.14 -9.28,21.64 -12.91,26.5 -17.57,23.52 24.32,-13.69 -34.49,28.1 -7.51,5.34 -25.12,12.3 -56.5,37.18l-259.38 185.54c-355.41,169.04 -342.26,39.97 -419.66,219.43 190.41,24.45 666.87,205.48 892.87,283.81 300.46,104.13 163.89,189.13 290.98,126.9l41.58 -19.66c5.41,-2.59 57.25,-26.15 59.77,-27.64 200.38,-118.62 -65.2,-114.37 459.16,-150.31 2.45,-4.13 2.8,-12.3 3,-14.08 15.52,-133.54 -36.44,12.93 -3,-58.18 122.09,-28.16 18.17,-10.89 110.28,-36.07 8.05,-2.21 70.63,-16.02 70.66,-16.04 53.72,-22.23 10.04,0.12 52.5,-39.6 3.54,-3.32 8.6,-10.74 12.3,-14.19 3.82,-3.57 9.38,-10.42 13.47,-13.97l105.87 -67.97c65.56,-45.15 13.96,-7.52 63.19,-52.42l83.34 -94.06c3.58,-5.61 7.04,-13.49 10.45,-19.16 23.51,-39.11 26.89,-82.03 128.54,-149.46 126.4,-83.85 127.29,15.58 270.22,-105.34l42.56 -42.26c4.35,-3.37 10.71,-8.59 15.36,-11.69 4.75,-3.18 11.83,-7.14 16.96,-10.1l133 -67.1c-30,-17.44 -85.19,-40.64 -103.12,-54.55 -2.35,-1.82 -8.06,-7.18 -10.15,-9.1l-17.01 -21.16c-87.96,-97.16 -57.5,-52.08 -149.67,-95.18l-72.02 -39.75c-2.54,-8.17 -10.73,-8.14 -16.7,-11.17 51.73,-102.6 -77.26,99.83 43.73,-44.24 25,-29.77 13.28,10.49 40.32,-56.88l-140.73 -86.17c160.29,-187.31 26.31,-175.15 -9.04,-313.23l-16.69 -97.92c40.86,-22.09 100.24,-38.8 141.85,-105.88 -24.23,-92.09 -1.18,-36.02 -45.46,-112.6 -2.17,-3.75 -55.67,-72 -65.54,-79.89 -54.63,-43.74 -110.24,-50.8 -186.81,-67.68 -166.8,-36.78 -202.67,-37.03 -301.7,-132.19l-50.81 -196.32 -30.37 94.76c-31.29,129.04 -57.47,367.13 -142.24,491.64 -164.88,242.19 -541.46,72.4 -541.75,72.34 -117.38,-10.7 -122.39,-45.35 -170.61,-131.43 -40.99,-73.18 -67.64,-132 -85.69,-203.4 -35.74,-141.38 -115.92,-350.68 -83.88,-461.85 -35.86,56.1 -12.5,112.38 -37.14,198.46 -29.77,103.99 -42.39,35 -70.37,195.39z"/>
   <path class="fil11" d="M2951.48 6052.66l82.08 205.02c16.17,96.13 -15.48,149.94 14.48,294.6 104.49,15.84 241.31,44.99 353.82,-18.09 88.1,-49.39 29,-17.55 69.77,-58.74 -44.76,-97.99 -80.03,-59.51 -171.02,-143.62 55.56,-118.97 108.08,-90.5 124.02,-225.86 -22.87,22.72 -34.97,42.25 -63.01,71.92l-67.82 62.25c-3.17,-5.57 -12.91,10.58 -19.94,15.04 10.07,-107.05 113.43,-249.08 116.94,-251.68 141.2,-104.65 265.03,140.38 349.52,-159.38 12.62,-44.8 7.99,-44.65 26.15,-89.23 21.22,-52.09 9.68,-29.88 35.06,-61.11 90.36,63.59 26.6,43.9 109.31,95.07 63.72,39.43 28.24,-10.18 110.07,63.06 97.89,87.6 62.06,550.9 1214.65,567.86 647.71,9.54 210.2,71.02 572.21,123.87 -77.33,115.28 -195.91,144.59 -265.32,219.05 66.37,110.04 23.03,23.98 113.95,95.45 82.09,64.53 43.67,13.46 72.99,102.99 125.95,75.68 16.35,173.65 282.08,203.83 -6.08,-7.93 -108.68,-18.15 107.87,-154.55 8.84,-5.57 19.68,-11.12 29.49,-16.75 11.38,231.19 -77.92,430.38 306.73,299.93 -60.49,32.8 -151.38,177.92 -169.86,286.12l566.46 -200.77 -4.13 -483.26 388.38 -143.03c-57.56,-188.62 -209.27,-461.5 -368.28,-612.64 -116.81,-111.02 -122.71,-92 -251.87,-75.32l-123.66 -7.01c-2.47,-8.71 -13.94,-7.7 -21.59,-7.72 -100.71,248.11 28.85,36.43 -124.53,219.84 -2.81,3.36 -8.86,10.71 -11.03,13.89 -1.86,2.73 -5.95,10.94 -7.23,13.35l-0.72 34.93c-81.02,-265.82 -32.6,94.64 -58.52,-144.85 -15.54,-143.58 7.32,-116.84 -57.34,-224.29 -154.3,-40.55 -224.99,-5.15 -327.8,66.02 -49.13,34 -207.74,185.63 -232.56,195.58 -119.61,47.96 -632.87,-33.73 -773.96,-58.85 -185.41,-33.01 -555,-194.59 -662.26,-332.44 -6.11,-7.84 -35.31,-52.69 -45.54,-68.05l-87.28 -115.5c-40.57,-51.34 -53.63,-84.24 -99.24,-125.59l-128.64 -96.69c-131.51,1.85 -190.99,-73.91 -311.15,7.14l-56.23 -75.33c-37.67,-51.77 -34.92,-41.89 -58.73,-80.9l-200.52 -11.32c-138.31,214.18 -159.21,186.96 -316.97,118.07 -67.41,-29.44 -66.56,-20.59 -124.25,-76.93 -54.58,-53.3 -45.34,-49.79 -78.82,-121.51 -1.09,-2.32 -34.49,-76.54 -36.21,-79.33l-24.11 -33.39c-157.99,-200.01 -61.81,-137.42 -192.08,-268.22 -172.7,-173.42 -110.26,-157.17 -187.39,-246.65l81.1 509.58c60.33,-6.64 71.95,-19.41 148.14,-17.34 246.34,492.45 67.9,235.91 338.58,443.95 158.5,121.82 111.85,55.51 133.58,32.58 -126.35,304.36 108.51,241.29 278.39,274.73 -120.35,133.98 -132.01,-7.9 -344.58,127.26 23.81,102.02 11.72,34.77 48.37,122.96z"/>
   <path class="fil5" d="M4576.64 13192.47c158.77,-65.66 195.54,-150.67 333.94,-194.8 76.71,-129.23 212.09,-91.92 233.48,-262.82 20.38,-162.85 -35.5,-317.74 -9.48,-516.56 -290.48,69.55 -2064.89,-264.88 -2554.15,-358.05 -257.82,-49.09 -574.06,-151.51 -841.53,-155.58l32.02 515.01c-104.67,107.63 -253.1,133.56 -293.11,201.59 64.95,79.62 98.59,55.23 345.11,113.8 127.69,30.34 268.23,47.91 385.64,102.2 125.61,58.08 1061.51,227.5 1192.26,237.76 194.08,15.24 1114.49,148.33 1263.88,206.57 -32.57,32.51 -51.81,50.09 -88.06,110.88z"/>
   <path class="fil5" d="M3930.7 14492.13c88.9,-36.53 136.81,-74.47 205.58,-147.44 79.84,-152.95 -17.3,-600.98 8.45,-831.78 -194.54,88.26 -773.9,-49.9 -969.5,-89.92 -294.87,-60.33 -634.64,-90.04 -940.41,-151.01l-898.49 -190.95c-148.28,-26.27 -304.53,-71.44 -442.49,-101.24l-440.41 -91.3 57.68 769.13c581.89,104.73 1111.69,269.01 1715.61,382.14 292.65,54.82 564.09,105.4 867.37,163.48l626.04 141.09c109.93,29.7 116.09,53.92 218.08,63.44 -28.59,54.98 -31.18,-5.79 -7.51,84.36z"/>
   <path class="fil5" d="M26720.78 13111.85l-26.25 744.92c84.12,86.84 469.13,328.52 585.57,367.14 -95.82,-229.96 -40.66,-79.77 -225.12,-169.03 39.13,-153.59 150.18,-92.59 329.78,-152.79l708.2 -208.39c81.55,-26.7 106.15,-5.26 191.92,-38.59 129.27,-50.25 -11.17,-39.55 201.1,-58.32 306.49,-27.1 27.29,-65.66 329.29,-107.02 101.98,-13.96 89.71,-24.05 189.44,-32.91 169.91,-15.08 109.65,25.68 246.87,-68.03 4.97,-3.39 11.58,-8.65 16.64,-11.98 5.1,-3.36 12.09,-8.12 17.34,-11.35 98.68,-60.79 165.96,-73.19 290.42,-82.42 166.77,-12.37 281.56,-29.14 395.89,-92.7 -46.98,-120.71 -112.01,-48.76 -80.04,-392.25 11.25,-120.83 19.4,-305.84 45.19,-425.44l-1148.14 296.03c-166.29,73.14 -199.41,72.69 -412.32,105.11 -146.02,22.24 -243.39,60.12 -393.7,93.46l-788.49 182.06c-141.2,33.83 -296.77,67.05 -473.59,62.5z"/>
   <path class="fil12" d="M3737.35 6820.28c57.55,313.66 271.62,848.37 423.84,1133.42 154.85,289.97 464.69,672.97 931.81,619.83 26.51,-27.68 782.26,-323.36 876.74,-374.73l-12.17 -506.14c155.45,-19.68 211.33,-87.9 328.13,-112.95 18.48,-108.2 109.37,-253.32 169.86,-286.12 -384.65,130.45 -295.35,-68.74 -306.73,-299.93 -9.81,5.63 -20.65,11.18 -29.49,16.75 -216.55,136.4 -113.95,146.62 -107.87,154.55 -265.73,-30.18 -156.13,-128.15 -282.08,-203.83 -7.74,50.63 -745.43,517.53 -1140.05,357.68 -439.63,-178.08 -569.93,-575.29 -699.16,-746.81l-117.21 -96.41c0,107.74 -16.25,185.71 37.49,258.37 -33.33,105.99 -16.51,4.53 -73.11,86.32z"/>
   <path class="fil4" d="M3048.04 6552.28c-37.99,170.06 -611.41,289.37 -652.94,31.34l-17.1 31.84 13.31 158.27c135.86,127.26 127.62,428.02 463.27,245.66 278.55,-151.35 253.7,-313.04 430.3,-457.63 29.4,67.42 63.15,-79.48 7.18,116.68 -8.58,30.07 -40.68,72.13 -55.35,92.38 -148.45,204.84 -242.55,388.52 -497.03,426.4 35.41,131.97 47.73,266.21 143.37,348 189.84,-175.2 240.67,-330.37 340.11,-526.08 56.39,-110.97 91.41,-172.12 139.89,-291.02 83.02,-203.56 18,-242.28 213.04,-263.5 -40.81,258.9 -181.01,698.25 -291.28,939.66 -77,168.59 -90.5,121.98 -136.64,299.61 283.93,-25.39 261.2,-281.7 330.47,-440.91 75.67,-173.91 148.54,-344.59 196.64,-543.32l62.07 100.62c56.6,-81.79 39.78,19.67 73.11,-86.32 -53.74,-72.66 -37.49,-150.63 -37.49,-258.37l117.21 96.41c129.23,171.52 259.53,568.73 699.16,746.81 394.62,159.85 1132.31,-307.05 1140.05,-357.68 -29.32,-89.53 9.1,-38.46 -72.99,-102.99 -90.92,-71.47 -47.58,14.59 -113.95,-95.45 69.41,-74.46 187.99,-103.77 265.32,-219.05 -362.01,-52.85 75.5,-114.33 -572.21,-123.87 -1152.59,-16.96 -1116.76,-480.26 -1214.65,-567.86 -81.83,-73.24 -46.35,-23.63 -110.07,-63.06 -82.71,-51.17 -18.95,-31.48 -109.31,-95.07 -25.38,31.23 -13.84,9.02 -35.06,61.11 -18.16,44.58 -13.53,44.43 -26.15,89.23 -84.49,299.76 -208.32,54.73 -349.52,159.38 -3.51,2.6 -106.87,144.63 -116.94,251.68 7.03,-4.46 16.77,-20.61 19.94,-15.04l67.82 -62.25c28.04,-29.67 40.14,-49.2 63.01,-71.92 -15.94,135.36 -68.46,106.89 -124.02,225.86 90.99,84.11 126.26,45.63 171.02,143.62 -40.77,41.19 18.33,9.35 -69.77,58.74 -112.51,63.08 -249.33,33.93 -353.82,18.09z"/>
   <path class="fil5" d="M5543.55 11908.78c136.14,-50.32 169.13,-126.61 304.67,-181.23 68.6,-74.49 118.68,-76.13 198.8,-168.15l-3.24 -567.25c-158.68,90.13 -555.99,-16.33 -778.05,-37.97 -616.17,-60.05 -1947.37,-334.73 -2329.94,-346.56 1.41,112.9 15.57,303.56 5.83,407.31 -15.76,167.7 5.56,25.96 -61.22,147.45 -0.41,0.75 -26.83,59.24 -26.88,59.54 -6.33,38.46 -56.71,-21.47 13.54,95.11 45.92,76.2 65.96,37.49 300.64,79.33l1019.77 187.85c315.13,44.59 1139.43,221.34 1368.53,234.33l-12.45 90.24z"/>
   <path class="fil5" d="M25615.88 11846.93c16.41,166.15 -54.7,503.37 33.27,597.23 58.8,62.74 367.07,235.54 454.14,265.26l-12.46 -47.85c161.96,-20.74 181.59,-63.03 328.74,-87.37 334.33,-55.3 916.89,-158.51 1227.08,-246.05l84.62 -29.07c6.71,-2.31 13.98,-5.38 20.77,-7.62l43.69 -13.48c249.78,-71.92 397.1,-136.71 663.51,-170.45 146.29,-18.53 86.98,-7.65 237.31,-78.62l78.12 -38.5c-14.64,-152.19 -97.01,-129.43 -199.08,-229.79l20.39 -490.39c-474.81,108.46 -968.01,248.63 -1462.86,349.73 -257.4,52.59 -509.15,103.52 -764.76,151.94 -226.83,42.97 -586.13,169.8 -752.48,75.03z"/>
   <path class="fil12" d="M24348 6837.55c-80.64,28.77 -100,24.35 -153.65,86.74 -15.94,18.54 -28.07,44.15 -42.58,68.97 -33.79,57.8 -18.29,36.91 -23.92,38.45 -91.54,85.46 -82.54,60.1 -244.42,40.41 12.03,234.06 82.01,193.06 88.57,379.79l183.17 57.87 -14.26 490.09c791.2,210.79 904.76,458.19 1236.23,104 129.13,-137.98 227.62,-312.38 317.95,-514.14 78.4,-175.11 146.22,-445.53 219.12,-585.34 27.98,-160.39 40.6,-91.4 70.37,-195.39 24.64,-86.08 1.28,-142.36 37.14,-198.46 39.66,-189.38 5.89,-152.02 -4.54,-307.29 -137.46,53.91 -57.72,-9.92 -135.72,103.45 -64.11,93.21 -221.9,525.64 -536.92,658.57 -342.72,144.61 -710.46,-65.43 -996.54,-227.72z"/>
   <path class="fil5" d="M24606.45 10726.7l-8.26 516.74c96.49,103.03 295.28,204.95 443.11,258.4l0.14 -46.19c204.39,-30.65 402.87,-94.03 628.02,-126.98l1489.09 -345.12c64.1,-20.56 72.2,-19.06 126.04,-44.42 209.54,-98.69 -26.66,65.28 121.63,-81.09l-16.98 -33.76c-96.03,-204.22 -70.33,-291.28 -58.84,-576.83l-1350.26 279.44c-228.9,43.84 -1176.1,243.74 -1373.69,199.81z"/>
   <path class="fil4" d="M24348 6837.55c286.08,162.29 653.82,372.33 996.54,227.72 315.02,-132.93 472.81,-565.36 536.92,-658.57 78,-113.37 -1.74,-49.54 135.72,-103.45 10.43,155.27 44.2,117.91 4.54,307.29 -32.04,111.17 48.14,320.47 83.88,461.85 18.05,71.4 44.7,130.22 85.69,203.4 48.22,86.08 53.23,120.73 170.61,131.43 20.04,-131.38 -17.41,-220.5 -51.5,-328.38 -95.84,-303.28 -229.12,-742.48 -106.88,-1001.11 3.8,-8.04 8.14,-18.86 14.58,-26.68l50.47 23.19c39.55,6.85 -22.26,69.04 74.03,-34.41 6.49,-6.98 13.28,-18.16 18.77,-24.74 6.01,-7.2 11.74,-19.59 19.55,-27.8l-16.28 99.63 111.79 -42.18c49.12,98.27 13.13,120.46 114.3,78.56 -63,-60.53 -73.93,-29.13 -124.81,-134.14 -3.98,-8.21 -12.83,-33.6 -16.26,-41.98l-52.35 -114.22c-52.69,-70.22 -110.25,-63.16 -196.78,-90 14.99,-430.38 -112.76,-196.03 -264.4,-66.2l-378.72 305.48c-346.63,211.87 -709.18,246.24 -1147.43,235.92 -62.48,94.56 -49.59,131.84 -182.27,159.88 -124.68,26.36 -181.39,-18.15 -279.96,39.96 63.4,273.31 599.03,56.52 400.25,419.55z"/>
   <path class="fil11" d="M23584.17 6017.1l-84.88 167.43c-9.92,47.18 -12.47,110.07 -7.93,147.44 188.53,11.55 156.59,63.87 303.08,83.02 -65.92,109.38 -29.12,118.08 -54.94,201.2 -42.21,135.91 -120.25,108.13 -143.53,166.7l-13.38 41.08c0.05,2.13 -0.06,10.06 0.38,12.36 19.36,102.49 74.15,41.53 109.59,184.46 303.51,-239.59 164.68,-137.89 86.11,-459.03 90.54,12.92 119.55,-33.88 258.04,172.35 -11.71,57.86 -52.77,35.46 -71.15,114.75 149.5,121.48 -2.37,-46.28 118.19,23.22 82.68,47.67 48.32,101.54 44.1,159.63 5.63,-1.54 -9.87,19.35 23.92,-38.45 14.51,-24.82 26.64,-50.43 42.58,-68.97 53.65,-62.39 73.01,-57.97 153.65,-86.74 198.78,-363.03 -336.85,-146.24 -400.25,-419.55 98.57,-58.11 155.28,-13.6 279.96,-39.96 132.68,-28.04 119.79,-65.32 182.27,-159.88 438.25,10.32 800.8,-24.05 1147.43,-235.92l378.72 -305.48c151.64,-129.83 279.39,-364.18 264.4,66.2 86.53,26.84 144.09,19.78 196.78,90l52.35 114.22c3.43,8.38 12.28,33.77 16.26,41.98 50.88,105.01 61.81,73.61 124.81,134.14 -101.17,41.9 -65.18,19.71 -114.3,-78.56l-111.79 42.18 -149.05 62.71c-6.95,110.87 18.47,155.3 44.08,231.2l182.37 4.24c123.2,-203.43 -1.9,-107.25 233.73,-206.7l42.66 192.44c-3.31,-4.9 1.92,-23.88 3.89,-19.21l84.36 -119.15c71.98,-80.22 78.72,-67.64 95.27,-214.34 -118.82,-33.1 -59.13,-45.13 -214.15,-75.74 -162.85,-32.15 -134.63,-7.24 -137.82,-156.15 68.42,18.95 214.09,-4.73 270.88,-29.01 87.74,-235.74 -20.4,-83.25 -9.25,-273.44 19.09,-325.81 -132.48,-109.06 -38.43,-340.68l99.56 -170.45c3.64,-4.13 10.48,-9.32 13.95,-13.4 48.05,-56.43 51.12,-66.8 51.3,-178.35 -169.14,108.37 -146.02,285.75 -460.37,515.33 -71.75,52.4 -115.74,96.73 -173.27,171.39 -25.57,-34.17 -26.51,33 -20.23,-49.2 0.69,-9.01 19.43,-62.39 21.74,-68.65 -236.24,12.2 -301.04,-162.13 -552.45,28.66 -236.77,179.67 -16.33,138.87 -452.39,407.51 -266.37,164.09 -668.38,252.92 -977.14,252.25 -18.09,-46.84 84.06,-321.53 -345.91,-244.51 -155.79,27.9 -289.08,175.95 -382.3,242.17l-11.5 -18.74z"/>
   <path class="fil13" d="M23596.48 4954.68c90.8,11.91 51.18,-29.09 70.53,55.86 -39.03,23.52 -3.9,11.69 -66.49,23.55l-282.78 29.24c-81.76,23.04 -204.6,91.61 -253.52,148.27 37.96,100.54 149.72,122.59 281.23,145.75 238.64,42.01 1040.36,126.61 1182.15,-59.57 -43.26,-90.26 -142.7,-148.67 -244.42,-187.74 -62.19,-23.89 -83.71,-25.04 -156.21,-38.26l-190.73 -61.24c3.06,-280.47 16.91,-108.52 455.91,-358.41 169.76,-96.63 377.55,-234.09 408.94,-427.01 50.71,-311.72 -354.09,-533.08 -585.85,-630.13 -175.15,-73.34 -222.79,-30.53 -165.29,-254.2 41.62,-189.06 31.24,-243.62 -45.62,-285.36 -5.35,-2.9 -14.56,-4.64 -20.07,-6.19l-62.22 8.23c-21.13,67.93 -39.38,17.8 39.27,98.92 87.42,90.17 -27.82,-116.52 22.65,15.83l-173.11 14.44c-27.21,226.42 -17.25,668.42 -29.78,933.93 -14.49,306.87 -42.53,606.84 -44.13,915.26 -66.1,-41.64 36.86,68.01 -24.48,-38.99l-34.9 -62.42c-3.4,-6.01 -8.03,-16.98 -13.84,-24.24 -133.03,29.68 -15.26,0.82 -67.24,44.48z"/>
   <path class="fil12" d="M26549.98 5786.22c3.19,148.91 -25.03,124 137.82,156.15 155.02,30.61 95.33,42.64 214.15,75.74 -16.55,146.7 -23.29,134.12 -95.27,214.34l-84.36 119.15c-1.97,-4.67 -7.2,14.31 -3.89,19.21l-42.66 -192.44c-235.63,99.45 -110.53,3.27 -233.73,206.7l-182.37 -4.24c-25.61,-75.9 -51.03,-120.33 -44.08,-231.2l149.05 -62.71 16.28 -99.63c-7.81,8.21 -13.54,20.6 -19.55,27.8 -5.49,6.58 -12.28,17.76 -18.77,24.74 -96.29,103.45 -34.48,41.26 -74.03,34.41l-50.47 -23.19c-6.44,7.82 -10.78,18.64 -14.58,26.68 -122.24,258.63 11.04,697.83 106.88,1001.11 34.09,107.88 71.54,197 51.5,328.38 0.29,0.06 376.87,169.85 541.75,-72.34 84.77,-124.51 110.95,-362.6 142.24,-491.64l30.37 -94.76 -5.23 -72c59.7,-34.54 127.61,-69.39 163.97,-97.85 18.83,-158.95 -18.27,-313.83 35.87,-399.46 75.02,-70.64 39.37,-155.82 33.61,-278.05 -38.17,-185.14 -16.64,-92.04 81.6,-201.21l-28.49 -164.69c-12.59,-58.05 16.48,-50.37 -22.19,-93.68 -112.95,40.86 -90.23,-13.12 -211.18,226.64 -49.53,98.19 -32.77,73.24 -103.8,105.01 -115.68,51.74 -359.12,67.97 -470.44,13.03z"/>
   <path class="fil2" d="M5182.84 4988.73l12.42 -45.73c0.97,-7.24 3.14,-15.92 3.73,-24.14 0.61,-8.51 1.09,-16.25 1.1,-25.29l-84.26 -1175.05c-31.47,11.85 -120.51,64.19 -126.16,65.47 -123.65,27.9 -86.33,-24.85 -104.25,-44.17l221.84 -119.93 -11.94 -99.05c-185.07,9.8 -477.33,165.24 -634.07,253 -161.67,90.53 -411.58,254.3 -380.61,517.2 38.02,322.82 728.67,617.38 1102.2,697.69z"/>
   <path class="fil12" d="M1961.19 6159.63c9.88,307.07 48.69,153.02 81.84,293.66 8.93,37.89 0.87,311.35 2.63,378.12l275.4 70.74c9.24,-63.58 4.03,-100.63 8.19,-140.85 12.38,-119.37 12.59,-105.89 48.75,-145.84l17.1 -31.84c41.53,258.03 614.95,138.72 652.94,-31.34 -29.96,-144.66 1.69,-198.47 -14.48,-294.6l-82.08 -205.02c-244.08,-61.27 -231.02,37.33 -460.95,-108.56l-155.49 -129.45c-4.46,-4.13 -11.47,-9.56 -15.89,-13.55l-182.23 -187.22c-10.29,73.82 -26.68,91.92 -66.24,129.3 -90.43,-108.39 -5.07,-84.19 -10.86,-191.45 -10.77,27.13 -58.84,80.1 -149.48,70.34 -196.88,-21.18 -2.38,-13.7 -145.92,-98.9 -45.41,214.49 -10.48,179.8 102.59,326.63l66.73 85.13c61.76,92.59 42.3,113.2 27.45,224.7z"/>
   <path class="fil14" d="M23972 7451.91c-6.56,-186.73 -76.54,-145.73 -88.57,-379.79 161.88,19.69 152.88,45.05 244.42,-40.41 4.22,-58.09 38.58,-111.96 -44.1,-159.63 -120.56,-69.5 31.31,98.26 -118.19,-23.22 18.38,-79.29 59.44,-56.89 71.15,-114.75 -138.49,-206.23 -167.5,-159.43 -258.04,-172.35 78.57,321.14 217.4,219.44 -86.11,459.03 -35.44,-142.93 -90.23,-81.97 -109.59,-184.46 -0.44,-2.3 -0.33,-10.23 -0.38,-12.36l13.38 -41.08c23.28,-58.57 101.32,-30.79 143.53,-166.7 25.82,-83.12 -10.98,-91.82 54.94,-201.2 -146.49,-19.15 -114.55,-71.47 -303.08,-83.02 -4.54,-37.37 -1.99,-100.26 7.93,-147.44l84.88 -167.43 141.2 -173.69c-140.44,-3.24 -462.2,81.32 -524.34,198.23 -3.14,5.91 -6.27,13.6 -9,19.92 -69.28,160.62 -4.59,150.66 -137.88,292.43 -74.12,78.84 -109.86,138.82 -140.67,258.74 102.24,26.34 221,56.93 305.86,121.23l2.24 445.58c247.46,63.61 477.45,183.62 750.42,272.37z"/>
   <path class="fil15" d="M1766.23 5492.77l-1.81 30.4c143.54,85.2 -50.96,77.72 145.92,98.9 90.64,9.76 138.71,-43.21 149.48,-70.34 5.79,107.26 -79.57,83.06 10.86,191.45 39.56,-37.38 55.95,-55.48 66.24,-129.3l182.23 187.22c4.42,3.99 11.43,9.42 15.89,13.55l155.49 129.45c229.93,145.89 216.87,47.29 460.95,108.56 -36.65,-88.19 -24.56,-20.94 -48.37,-122.96 212.57,-135.16 224.23,6.72 344.58,-127.26 -169.88,-33.44 -404.74,29.63 -278.39,-274.73 -21.73,22.93 24.92,89.24 -133.58,-32.58 -270.68,-208.04 -92.24,48.5 -338.58,-443.95 -76.19,-2.07 -87.81,10.7 -148.14,17.34l-81.1 -509.58 -26.07 -91.64c-20.38,133.28 -112.59,255 -99.14,370.07 38.2,326.89 36.38,8.16 3.13,412.45l-260.21 -2.08c81.95,31.09 61.3,-3.96 80.72,85.42l-200.1 159.61z"/>
   <path class="fil4" d="M4136.28 14344.69c186.67,18.51 71.03,31.82 361.3,42.36 260.96,9.48 63.37,-16.59 143.2,23.42 119.72,60 98.32,62.41 280.01,33.01 17.63,-248.48 -17.14,-536.19 -55.42,-804.86 -154.41,24.29 -154.48,-31.59 -353.47,-50.33 -187.47,-17.65 -169.89,29.28 -338.56,-60.83l-28.61 -14.55c-25.75,230.8 71.39,678.83 -8.45,831.78z"/>
   <path class="fil4" d="M5134.58 12218.29c-26.02,198.82 29.86,353.71 9.48,516.56 -21.39,170.9 -156.77,133.59 -233.48,262.82l39.05 66.51c111.66,-52.74 340.35,33.31 418.96,56.77 33.93,10.13 98.9,14.76 115.86,9.74 6.7,-1.98 358.95,-234.08 379.29,-307.3 1.03,-3.7 -9.13,-513.9 -89.92,-528.53 -157.59,-28.53 -130.88,11.99 -242.49,10.25 -4.27,-0.06 -12.87,-1.42 -16.99,-1.63l-62.56 -4.32c-108,-2.12 -8.06,16.94 -99.55,-37.24l-28.42 -15.75c-7.44,-2.95 -153.79,-26.05 -173.43,-26.12l-15.8 -1.76z"/>
   <path class="fil15" d="M26937.99 4780.89c-0.18,111.55 -3.25,121.92 -51.3,178.35 -3.47,4.08 -10.31,9.27 -13.95,13.4l-99.56 170.45c-94.05,231.62 57.52,14.87 38.43,340.68 -11.15,190.19 96.99,37.7 9.25,273.44 -56.79,24.28 -202.46,47.96 -270.88,29.01 111.32,54.94 354.76,38.71 470.44,-13.03 71.03,-31.77 54.27,-6.82 103.8,-105.01 120.95,-239.76 98.23,-185.78 211.18,-226.64 38.67,43.31 9.6,35.63 22.19,93.68 222.39,-19.62 335.64,166.28 366.83,-152.76 10.31,-105.52 29.19,-116.1 29.34,-214.57 -145.17,-76.64 -199.62,31.56 -192.98,-152.78l-264.01 -88.41 -21.83 220.09c-25.64,-117.87 -14.55,-104.44 -78.11,-181.5 -6.64,180.14 -0.65,385.32 -164.22,467.1 -5.93,-294.18 119.13,-456.13 45.88,-661.56 -55.71,-156.24 8.29,-89.43 -134.18,-133.56l-6.32 143.62z"/>
   <path class="fil6" d="M2391.31 6773.73c27.3,409.23 120.03,977.28 610.05,981.88 116.68,1.1 145.1,-6.48 146.81,-51.72 46.14,-177.63 59.64,-131.02 136.64,-299.61 110.27,-241.41 250.47,-680.76 291.28,-939.66 -195.04,21.22 -130.02,59.94 -213.04,263.5 -48.48,118.9 -83.5,180.05 -139.89,291.02 -99.44,195.71 -150.27,350.88 -340.11,526.08 -95.64,-81.79 -107.96,-216.03 -143.37,-348 254.48,-37.88 348.58,-221.56 497.03,-426.4 14.67,-20.25 46.77,-62.31 55.35,-92.38 55.97,-196.16 22.22,-49.26 -7.18,-116.68 -176.6,144.59 -151.75,306.28 -430.3,457.63 -335.65,182.36 -327.41,-118.4 -463.27,-245.66z"/>
   <path class="fil16" d="M1766.23 5492.77l200.1 -159.61c-19.42,-89.38 1.23,-54.33 -80.72,-85.42l260.21 2.08c33.25,-404.29 35.07,-85.56 -3.13,-412.45 -13.45,-115.07 78.76,-236.79 99.14,-370.07 -98.35,50.37 -60.84,38.59 -133.75,107.73 -15.8,-121.38 -66.36,-246.06 -116.61,-338.15 -82.96,-152.05 -101.05,-158.7 -312.5,-141.46 -69.27,304.76 82.32,276.35 33.16,571.84 -13.35,80.25 -58.26,185.37 -55.92,287.96 3.37,147.85 80,152.61 155.69,227.66 -123.27,80.26 -51.53,-24.82 -112.83,102.38 55.92,60.38 65.53,101.02 67.16,207.51z"/>
   <path class="fil17" d="M26959.93 4337.46c97.05,59.67 13.96,215.5 -15.62,299.81 142.47,44.13 78.47,-22.68 134.18,133.56 73.25,205.43 -51.81,367.38 -45.88,661.56 163.57,-81.78 157.58,-286.96 164.22,-467.1 63.56,77.06 52.47,63.63 78.11,181.5l21.83 -220.09 264.01 88.41c98.63,-33.27 150.92,-77.61 151.31,-164.95 0.09,-20 -6.47,-42.37 -4.59,-68.38 6.55,-90.94 10.59,-56.71 13.99,-68.32 23.54,-80.62 29.66,25.76 42.15,-137.13 -58.31,-49.8 -86.32,-71.6 -176.95,-84.89l-185.04 232.74 -33.22 -83.66c-3.2,-5.34 -7.37,-13.26 -11.26,-18.5 -91.49,-123.42 -87.7,-5.02 -143.5,-128.51l172.76 -25.21c-33.88,-114.22 -40.04,-375.74 -77.49,-437.42 -141.36,22.47 -39.76,37.86 -143.51,142.1 -49.97,-79.98 -31,-80.67 1.94,-165.93 -190.65,7.36 -234.32,157.95 -207.44,330.41z"/>
   <path class="fil4" d="M5848.22 11727.55c41.35,25.16 484.45,170.2 675.88,26.86 232.4,-174.02 190.46,-325.45 119.18,-677.04l-568.86 -75.43 -30.64 -9.79 3.24 567.25c-80.12,92.02 -130.2,93.66 -198.8,168.15z"/>
   <path class="fil4" d="M6742.97 10557.11c48.48,35.81 305.14,123.29 396.11,118.6 63.1,-3.26 250.05,-119.99 306.77,-178.94 62.18,-176.14 0.48,-359.63 -27.65,-540.71 -132.22,1.4 -182.64,-12.46 -289.84,-22.78l-233.61 -38.22c-52.25,113.81 -15.33,270.92 -15.64,403.05 -0.53,225.78 -34.43,137.88 -136.14,259z"/>
   <path class="fil4" d="M7535.46 9487.85c57.54,52.17 -26.34,1.98 63.04,30.17 123.58,38.97 -102.74,-22.82 48.36,10.57l262.23 55.38c99.71,-8.99 213.67,-101.23 265.77,-178.7 28.11,-144.09 -11.73,-328.86 -39.1,-476.03 -135.48,-5.97 -348.83,-4.79 -447.57,-51.73 -49.15,-16.59 -30.18,-20.34 -37.3,39.31l-7.41 488.51 -108.02 82.52z"/>
   <path class="fil4" d="M8221.58 8544.92c108.92,57.7 489.73,63 590.01,-53.15 53.26,-155.05 4.05,-344.26 -15.67,-509.15l-428.76 -33.34c-56.28,96.15 -15.06,245.33 -16.82,367.4 -3.6,250.22 -45.25,94.67 -128.76,228.24z"/>
   <path class="fil4" d="M8910.97 7620.47c108.46,82.23 439.65,95.7 520.67,-53.52 41.42,-136.62 -1.63,-317.23 -32.96,-459.72l-257.73 -19.55c-0.26,-0.06 -31.95,7.54 -93.21,-40.35 -100.61,82.27 -36.19,367.58 -52.06,521.75l-84.71 51.39z"/>
   <path class="fil18" d="M5637.51 5591.14c94.88,-6.55 197.6,-15.23 279.46,-34.97 243.06,-58.62 204.88,-98.76 224.42,-143.5 -103.08,-183.77 -449.38,-202.89 -640.1,-183.24 -43.23,30.73 -71.82,-15.71 -38.43,93.7 21.27,69.71 -26.68,28.27 97.63,57.61 -122.11,-22.24 -99.95,63.46 -112.69,80.4l437.94 -29.85 -431.99 97.99c5.39,-2.98 17.87,-7.08 22.81,4.2l49.63 21.61c7.67,2.75 16.58,4.87 24.8,7.69 9.09,3.1 38.18,10.85 45.97,13.43l40.55 14.93z"/>
  </g>
 </g>
</svg>
