<?xml version="1.0" encoding="UTF-8"?>
<!DOCTYPE svg PUBLIC "-//W3C//DTD SVG 1.1//EN" "http://www.w3.org/Graphics/SVG/1.1/DTD/svg11.dtd">
<!-- Creator: CorelDRAW 2017 -->
<svg xmlns="http://www.w3.org/2000/svg" xml:space="preserve" width="208.227mm" height="206.639mm" version="1.1" style="shape-rendering:geometricPrecision; text-rendering:geometricPrecision; image-rendering:optimizeQuality; fill-rule:evenodd; clip-rule:evenodd"
viewBox="0 0 20822.7 20663.94"
 xmlns:xlink="http://www.w3.org/1999/xlink">
 <defs>
  <style type="text/css">
   <![CDATA[
    .fil7 {fill:#030403}
    .fil9 {fill:#383737}
    .fil10 {fill:#4B1500}
    .fil11 {fill:#6B4D2A}
    .fil12 {fill:#777776}
    .fil3 {fill:#AE6C2E}
    .fil1 {fill:#B3AFAC}
    .fil8 {fill:#CC600C}
    .fil2 {fill:#D1CECB}
    .fil6 {fill:#F3C86F}
    .fil0 {fill:#F7A653}
    .fil4 {fill:#F7D7A8}
    .fil5 {fill:#FFEBCC}
   ]]>
  </style>
 </defs>
 <g id="Capa_x0020_1">
  <metadata id="CorelCorpID_0Corel-Layer"/>
  <g id="_2214264747792">
   <g>
    <path class="fil0" d="M13485.14 13680.05c-114.53,-69.53 -87.89,-22.21 -236.65,-174.38 -6.93,4.38 -16.16,4.55 -19.13,15.44l-62.85 58.46c-116.14,91.22 -133.67,-12.28 -136.9,130.93 -3.02,133.47 -41.63,32.67 63.52,90.11 25.44,13.9 194.92,44.66 232.3,39.86 110.63,-14.23 118.85,-64.49 159.71,-160.42z"/>
    <path class="fil0" d="M14604.77 13680.05c146.1,303.91 401.25,137.17 461.54,-40.65 -124.52,-37.92 -58.07,-15.86 -165.77,7.99l-63.05 -166.39c-98.08,42.27 -186.05,112.39 -232.72,199.05z"/>
    <path class="fil0" d="M13819.05 10227.25c195.81,80.33 391.02,47.99 425.48,-197.1 -114.94,14.18 -101.28,-20.14 -156.45,66.64l-51.41 -113.31c-45.86,-55.24 10.08,-4.33 -58.08,-50.33 -38.93,36.99 -97.27,81.3 -131.89,113.57 -85.87,80.03 -80.95,49.96 -27.65,180.53z"/>
    <path class="fil0" d="M15273.7 13066.24c107.81,104.13 226.68,95.6 375.83,90.96 52.82,-106.95 69.6,-72.29 92.04,-218.85 -112.95,11.51 -89.83,13.82 -182.53,42.85l-46.47 -145.31c-139.86,49.59 -187.73,90.96 -238.87,230.35z"/>
    <path class="fil0" d="M14630.25 10806.29c350.73,417.23 670.98,-344.57 294.62,-69.41l-83.36 -167.42c-52.47,35.1 -69.66,101.14 -104.62,143.72 -47.45,57.8 -64.94,13.38 -106.64,93.11z"/>
    <path class="fil0" d="M14436.17 9452.78c107.65,70.03 211.77,106.46 368.89,127.39 59.79,-119.2 89.49,-114.29 117.14,-268.02 -90.77,12.09 -150,41.16 -202.75,62.68l-54.52 -102.84c-3.47,-4.77 -11.29,-12.93 -14.28,-16.76 -3.05,-3.91 -9.62,-11.47 -14.99,-16.67l-148.83 135.8c-48.07,60.14 -15.49,9.01 -50.66,78.42z"/>
    <path class="fil0" d="M13781.62 13038.34c109.29,89 427.56,153.22 472.98,-111.61 -69.33,-43.95 -63.11,-49.21 -157.93,-18.34l-140.06 -72.6c-169.79,154.75 -138.63,59.82 -174.99,202.55z"/>
    <path class="fil0" d="M13795.68 11643.31c70.02,74.8 166.59,115.85 281.65,100.48 127.07,-16.99 161.53,-97.45 182.87,-220.81l-183.01 48.34 -43.54 -164.94c-93.55,39.63 -7.76,-12.94 -86.93,50.44l-151.04 186.49z"/>
    <path class="fil0" d="M5898.04 13737.91l140.55 219.95c68.3,-1.62 122.03,-14.7 185.32,-30.97 136.88,-35.19 118.74,-6.04 149.91,-107.34 -39.39,-98.08 40.8,11.67 -43.62,-41.27 -30.16,-18.91 -13.9,0.55 -58.13,-28.65 -71.89,-47.47 -29.21,-57.32 -98.51,-98.12 -315.66,200.82 -20.81,50.45 -275.52,86.4z"/>
    <path class="fil0" d="M7392.62 12368.72c63.16,201.96 318.71,250.06 429.77,55.8 -33.44,-85.08 -118.33,-137.65 -224.52,-197.57 -96.01,113.14 -11.99,63.52 -159.47,121.97l-45.78 19.8z"/>
    <path class="fil0" d="M14607.27 7929.91c77.08,57.09 192.01,96.97 307.67,120.4l195.56 -193.36c-50.47,-33.49 -9.85,-29.87 -78.17,-31.27 -41.2,-0.84 -43.72,6.08 -89.46,21.44l-73.39 -126.22 -145.5 105.08c-40.88,36.87 -83.46,72.69 -116.71,103.93z"/>
    <path class="fil0" d="M5203.22 11585.01c68.83,70.71 83.84,135.76 216.35,142.54 195.03,9.97 184.75,-22.3 226.06,-167.94 -17.86,-7.88 -2.97,-10.51 -50.44,-9.62 -5.25,0.1 -80.64,11.27 -92.58,12.87l-72.57 -156.34 -226.82 178.49z"/>
    <path class="fil0" d="M14789.36 12437.38c-22.83,-171.09 -52.75,-223.1 -125.04,-348.23 -67.09,40.56 -46.52,37.32 -107.55,88.23 -91.6,76.4 -102.14,11 -98.19,133.59 4.76,147.53 196.43,128.06 330.78,126.41z"/>
    <path class="fil0" d="M6730.62 8853.26c78.43,169.69 195.56,172.78 311.78,165.91 52.14,-66.75 63.16,-62.1 91.27,-165.91 -56.53,-77 -87.03,-81.85 -150.21,-137.15 -169.89,96.57 82.62,3.25 -252.84,137.15z"/>
    <path class="fil0" d="M13129.79 9442c115.73,90.4 112.72,107.72 312.01,110.57l175.23 -193.67c-195.39,-46.35 -72.57,-28.85 -206.25,48.87l-77.43 -169.77c-51.84,47.77 -58.7,62.41 -106.45,105.51 -57.93,52.29 -47.1,26.32 -97.11,98.49z"/>
    <path class="fil0" d="M6875.61 10220.7c-89.18,-24.68 -99.12,-55.32 -188.84,-76.08 12.85,109.14 -11.55,55.17 39.94,110.49 2.1,2.26 114.11,78.47 114.62,78.7 102.63,46.48 183.14,15 296.12,-15.4 -2.03,-193.23 -11,-165.51 -153.99,-241.4l-107.85 143.69z"/>
    <path class="fil0" d="M13789.37 8797.46l124.31 61.51c187.85,45.72 294.93,2.8 333.53,-175.38l-137.94 45.36c-13.04,-19.77 -23.65,-40.6 -39.14,-61.13 -4.75,-6.31 -20.53,-26.6 -26.16,-33.07 -27.32,-31.42 -21.03,-24.32 -50.65,-50.59 -44.87,31.16 -12.46,6.88 -53.26,46.42 -189.22,183.39 -104.96,39.69 -150.69,166.88z"/>
    <path class="fil0" d="M5168.16 7444.86c273.75,-37.49 152.69,116.6 443.38,-70.33l-94.28 -95.45c-77.43,-63.42 -72.94,-45.49 -114.49,-127.76 -38.07,41.65 -74.74,72.28 -114.79,119.13 -25.01,29.24 -40.56,51.46 -60,79.34 -40.31,57.84 -25.17,25.94 -59.82,95.07z"/>
    <path class="fil0" d="M7639.01 13787.61l-170.34 -53.24c18.28,77.81 135.94,230.57 315.23,189.01 112.37,-26.05 122.21,-75.84 122.28,-75.93 -33.9,-83.29 -158.71,-181.54 -224.52,-208.13l-42.65 148.29z"/>
    <path class="fil0" d="M6041.53 10902.54c-97.27,-63.31 -35.61,-51.08 -155.45,-71.85 76.86,169.32 139.6,209.69 358.4,209.95 53.61,-67.56 85.8,-100.85 88.75,-200.79l-158.39 27.42 -52.06 -123.24 -81.25 158.51z"/>
    <path class="fil0" d="M6871.75 11728.71l-143.57 -73.97c66.2,225.03 280.73,283.26 416.57,100.17 -98.13,-91.58 -93.95,-62.96 -150.76,-199.5 -131.01,78.48 -37.39,33.95 -122.24,173.3z"/>
    <path class="fil0" d="M4637.54 12351c-43.6,20.49 -26.12,56.57 21.07,163.14l42.58 77.79 8.82 -67.21c166.78,1.61 206.67,23 236.59,-100.2 -77.32,-122.23 32.03,65.26 -166.66,-143.88l-30.69 -29.1c-57.54,73.24 -33.85,73.62 -111.71,99.46z"/>
    <path class="fil0" d="M7539.54 9685.3c157.74,-22.22 207.22,-28.6 294.45,-134.53 -161.56,-131.42 -292.35,-45.56 -312.47,-44.69 -23.7,1.03 -91.52,-24.37 -120.89,-33.08 31.75,107.6 89.03,159.64 138.91,212.3z"/>
    <path class="fil0" d="M7573.24 11006.6l-167.97 -36.18 71.17 160.96 337.57 -31.01c6.29,-169.84 -61.2,-90 -128.62,-163.04 -8.28,-8.98 -28.01,-47.94 -52,-74.84l-60.15 144.11z"/>
    <path class="fil0" d="M6041 8045l-161.84 -84.25c88.3,186.81 226.42,219.47 427.29,135.44 -26.04,-63.02 -59.55,-67.3 -97.14,-115.79 -73.13,-94.34 -22.63,-47.61 -60.69,-148.19 -98.93,83.49 -71.9,87.21 -107.62,212.79z"/>
    <path class="fil0" d="M4553.75 8101.29l228.73 71.11 41.88 -162.97 22.79 -188.49c-67.31,33.91 -33.91,9.47 -92.38,62.32 -28.95,26.17 -36.25,41.57 -69.33,69.29 -107.6,90.17 -61.06,11.56 -131.69,148.74z"/>
    <path class="fil0" d="M7859.39 8041.77c-60.37,-28.57 -302.21,-79.67 -366.3,-100.61l-57.27 8.08c14.28,71.34 45.64,132.82 182.24,184.53 132.6,50.19 186.74,-34.65 241.33,-92z"/>
    <path class="fil0" d="M5341.08 10246.6l11.72 89.27c236.76,-13.28 208.56,-3.35 303.29,-127.13l-145.27 -30.8c-34.11,-79.92 -14.37,-92.28 -84.21,-101.56l-85.53 170.22z"/>
   </g>
   <g>
    <path class="fil1" d="M14077.75 3154.23c-173.01,-256.8 -735.72,-511.83 -1082.58,-726.31 -119.67,-73.99 -269.95,-178.42 -393.97,-221.92 57.73,170.29 106.8,224.2 276.53,312.53l828.15 401.13c78.44,40.66 138.54,79.51 187.18,119.44 99.98,82.1 67.02,78.53 184.69,115.13z"/>
    <path class="fil1" d="M6802.45 2868.08c37.75,-20.54 58.6,-28.19 87.57,-49.62l74.61 -82.73c-13.12,5.22 -84.94,33.34 -89.56,36.47 -99.85,67.76 -39.44,25.61 -72.62,95.88z"/>
   </g>
   <g>
    <path class="fil2" d="M14049.09 3545.81c-244.17,-398.41 -403.22,-373.91 -1024.29,-588.86 -714.57,-247.31 -825.3,-629.54 -960.22,-695.66 125.81,395.59 458.79,605.62 879.07,749.44 207.38,70.98 413.41,124.86 604.21,205.48 382.71,161.71 346.51,267.02 501.23,329.6z"/>
    <path class="fil2" d="M14711.18 3075.48c6.25,-337.05 -291.15,-472.83 -495.64,-611.3 -110.53,-74.84 -590.02,-374.22 -710.84,-379.34 465.62,544.27 823.41,353.72 1206.48,990.64z"/>
    <path class="fil2" d="M6328.47 3064.38c50.59,-224.13 363.85,-417.16 547.16,-512.39 242.04,-125.75 563.25,-268.01 645.13,-472.49 -149.68,32.73 -232.77,117.81 -344.08,186.4 -268.08,165.21 -863.53,382.05 -848.21,798.48z"/>
    <path class="fil2" d="M7291.54 2907.66c186.01,-55.72 638.43,-296.9 850.49,-401.96 152.18,-75.38 169.51,-35.49 210.94,-224.63 -212.24,80.08 -918.53,504.72 -1061.43,626.59z"/>
    <path class="fil2" d="M13854.23 4353.92c364.55,-103.26 374.86,-689.7 -38.02,-699.2 75.67,154.41 213.26,103.88 204.83,343.49 -5.61,159.35 -109.85,233.12 -166.81,355.71z"/>
    <path class="fil2" d="M8381.45 2873.36c114.82,-34.82 290.8,-149.63 350.3,-248.72 -180.06,22.74 -323.79,105.91 -350.3,248.72z"/>
   </g>
   <g>
    <path class="fil3" d="M11256.41 6176.71c125.05,84.02 106.33,6.28 279.27,39.68 -66.71,-178.03 94.14,-298.33 263.39,-531.77 181.89,-250.89 181.51,-379.86 409.69,-430.53l-28.58 -167.4c-337.98,155.13 93.3,-306.77 -500.93,478.23l-422.84 611.79z"/>
    <path class="fil3" d="M16855.77 18270.09c96.54,88.04 332.3,90.26 444.94,109.4l-7.84 -95.85 0.45 -41.48c-0.23,-6.46 -0.81,-36.45 -1.51,-45.6 -10.39,-136.51 -40.01,-204.7 -114.72,-314.04l-66.74 140.93c-79.87,213.48 -108.83,180.85 -254.58,246.64z"/>
    <path class="fil3" d="M12997.2 7852.78c207.28,-112.61 384.95,-709.6 515.46,-980.46 -106.52,50.94 -104.56,98.18 -173.37,211.52 -108.4,178.56 -329.27,584.1 -342.09,768.94z"/>
   </g>
   <g>
    <path class="fil4" d="M8435.71 13234.19c0,-474.2 -25.28,-1025.21 20.61,-1451.38 -13.25,-30.14 -23.56,-49.95 -42.16,-88.91 -62.67,-131.3 -81.5,-145.11 -226.04,-241 -147.82,248.84 -263.63,712.36 -298.33,1064.96 153.98,-59.13 179.39,-203.38 233.91,-440.18 5.09,6.56 11.57,8.69 13.52,20.92 2.22,13.85 28.84,12.84 57.44,203.9l128.58 763.74 -139.87 71.15c96.6,90.19 122.84,84.55 252.34,96.8z"/>
    <path class="fil4" d="M5503.29 6943.49c175.85,-89.77 207.28,-53.34 277.89,-274.34l-249.96 1.04c0,146.11 -27.93,138.4 -27.93,273.3z"/>
   </g>
   <g>
    <path class="fil5" d="M8992.66 20599.38l156.44 0c20.6,-340.21 -47.53,-256.76 -112.44,-544.48 -44.98,-199.41 -59.13,-401.41 -90.45,-603.27 -61.75,-397.9 -783.08,-3186.69 -862.03,-3305.24 -28.45,471.02 317,1725.7 440.48,2213.92 180.8,714.9 360.37,1493.16 468,2239.07z"/>
    <path class="fil5" d="M4366.28 20599.38l133.17 0c136.19,-632.03 433.6,-1477.56 537.97,-2194.06 30.75,-211.09 79.85,-410.03 119.76,-579.12l254.6 -1618.77c10.43,-130.37 -12.09,-111.38 -23.47,-126.54 -96.78,149.05 -416.2,1974.19 -480.57,2304.93 -76.89,395.11 -150.86,766.9 -253.94,1143.6 -94.34,344.78 -223.85,712.5 -287.52,1069.96z"/>
    <path class="fil5" d="M6546.9 20599.38l153.21 0 27.32 -4267.7c-0.87,-7.99 -2.4,-16.42 -3.48,-23.26l-19.76 -58.5c-124.31,133.55 -76.18,297.66 -79.96,500.3 -4.78,256.5 -42.7,13.41 -18.31,509.73 18.02,366.65 8,740.87 -6.38,1107.61 -29.06,741.05 -44.69,1488.4 -52.64,2231.82z"/>
   </g>
   <g>
    <path class="fil6" d="M13422.37 17765.31c-229.58,23.62 -1900.78,-376.31 -2054.98,-457.31 251.67,12.29 775.75,161.15 1055.77,221.84 207.68,45.02 869.67,232.34 999.21,235.47zm-3170.75 -9079.46c3.78,5.55 9.3,7.59 10.64,17.08 1.34,9.57 8.5,13.48 10.24,17.51 70.42,162.79 79.95,833 90.36,1025.5 10.96,202.77 -6.07,402.76 -23.99,562.22 -18.51,164.71 -3.52,408.26 -4.16,581.92 -0.85,229.46 29.62,340.63 28.38,557.56l-0.34 1758.13c0.52,228.91 -29.45,352.48 -28.61,557.33l0.65 2930.21c0,968.9 -42.61,713.7 351.43,848.64 243.2,83.28 -75.8,54 433.31,153.01l1438.29 320.85c816.9,204.42 2054.48,536.26 2875.8,670.36 485.61,79.29 2688.33,610.82 2916.43,629.79l0 -725.42c-199.06,0 -784.73,-94.56 -941.41,-229.6 -78.78,-67.91 -8.21,-30.99 -115.77,-77.3l7.84 95.85c-112.64,-19.14 -348.4,-21.36 -444.94,-109.4 -123.69,8.4 -175.12,-20.93 -297.49,-43.28 -124.17,-44.91 -330.25,-63.73 -381.26,-121.47 -100.67,-113.93 -207.5,-1179.66 -218.69,-1439.95 -9.65,-224.77 -437.33,-2070.8 -530.05,-2166.28 -31.5,536.27 189.17,1231.71 259.45,1777.59 39.29,305.12 70.06,611.61 123.4,912.67 49.5,279.36 114.17,583.43 145.45,876.07l-1571.24 -368.01c-14.69,-38.21 30.51,-1402.66 29.04,-1617.94 -1.96,-285.72 -11.34,-551.4 -16.92,-837.01 -2.73,-139.56 -3.54,-278.94 -5.05,-418.51 -1.29,-120.61 31.3,-303.94 -45,-402.75 -280.57,724.85 -10.59,2288.45 -176.07,3207.36 -154.36,25.2 -1355.5,-283.7 -1622.23,-328.67 9.98,-388.13 219.56,-1072.96 321.14,-1455.19 61.97,-233.21 125.82,-462.55 190.06,-702.74 64.89,-242.64 206.81,-598.9 67.25,-712.99 -81.03,27.11 -19.23,-18.83 -60.55,58.37l-58.66 277.29c-27.04,112.82 -58.81,236.45 -93.6,353.49 -54.24,182.48 -196.98,495.77 -220.9,649.53 -76.79,493.66 -295.04,971.48 -329.1,1433.14l-906.69 -173.48 6.18 -194.52 -96.12 111.6c-184.94,0 -323.05,3.54 -446.85,-55.8 0,-1630.16 27.93,-3170.47 27.93,-4798.89 0,-1609.68 0,-3219.36 0,-4829.04 -382.4,152.78 -351.3,484.24 -348.01,950.86 3.01,427.42 0.05,855.9 -0.12,1283.43l-2.43 7634.46c91.78,29.43 287.59,76.21 392.63,84.46 -112.33,-18.85 -295.51,-50.43 -389.81,-83.02l-8.16 -9282.16c-160.63,138.05 -292.79,568.59 -341.68,837.14z"/>
    <path class="fil6" d="M10306.86 7132.77c219.25,-135.79 167.94,-351.21 275.56,-521.64 10.3,-16.32 168.94,-146.84 201.94,-182.29 100.14,-107.57 137.66,-96.41 218.63,-198.23l-81.72 0c0,-141.05 29.31,-214.04 28.3,-390.24 -1.85,-323.33 19.71,-1000.71 -16.51,-1239.77l-11.96 -2945.85c22.8,-451.74 -102.01,-325.66 1527.99,-593.94 468.64,-77.13 960.06,-141.42 1452.27,-223.18 474.75,-78.86 997.37,-121.72 1500.6,-202.79l2192.44 -320.75c235.36,-32.13 525.24,-90.84 755.65,-110l0 -139.5 -3860.23 0c-151.64,7.74 -129.47,43.79 -272.16,84.61 -240.39,68.78 -459.7,58.87 -738.99,98.75l-1496.14 207.25 -27.93 -27.9c-188.56,99.67 -260.25,99.85 -531.05,111.18 -199.18,8.33 -188.46,84.12 -586.06,84.12l-55.85 -558.01c0,230.95 -12.14,396.32 -27.93,585.91 -148.65,12.36 -255.4,27.9 -446.85,27.9l0 6454.37z"/>
    <path class="fil6" d="M13071.71 12243.06l0 97.76 -68.16 27.9c28.28,90.76 59.56,183.19 133.51,233l22.56 -208.62c115.4,17.54 253.64,83.02 368.09,-75.39 20.24,-28.02 38.58,-47.95 24.23,-93.51 -5.74,-2.32 -15.41,-11.09 -17.9,-4.9l-73.18 6.65c-116.99,52.5 -25.34,-4.2 -76.41,75.75l-24.01 -189.56 -93.24 140.48 -195.49 -9.56z"/>
    <path class="fil6" d="M15696.92 7266.79c-31.67,-144.78 -83.8,-225.42 -234.19,-254.97l-0.55 139.51c-71.53,74.83 -79.06,37.59 -99.51,166.34 217.87,57.26 187.28,43.47 334.25,-50.88z"/>
    <path class="fil6" d="M15644.89 10157.72l-99.51 -247.65 -83.53 -5.75 16.99 153.25c-85.52,-9.71 -117.42,-3.45 -169.78,25.7 21.97,166.6 125.07,137.07 276,145.15l59.83 -70.7z"/>
   </g>
   <g>
    <path class="fil7" d="M7240.87 4353.45c-58.33,48.93 4.81,22.95 -88.53,32.49 -146.86,15 -179.93,-44.58 -205.29,-99.41 -32.47,-70.16 -61.33,-261.76 -57.82,-344.57 13.46,-317.46 93.29,-381.09 394.14,-328.31 -8.56,145.87 -9.92,655.5 -42.5,739.8zm-438.42 -1485.37c33.18,-70.27 -27.23,-28.12 72.62,-95.88 4.62,-3.13 76.44,-31.25 89.56,-36.47l-74.61 82.73c-28.97,21.43 -49.82,29.08 -87.57,49.62zm1579 5.28c26.51,-142.81 170.24,-225.98 350.3,-248.72 -59.5,99.09 -235.48,213.9 -350.3,248.72zm-1089.91 34.3c142.9,-121.87 849.19,-546.51 1061.43,-626.59 -41.43,189.14 -58.76,149.25 -210.94,224.63 -212.06,105.06 -664.48,346.24 -850.49,401.96zm-963.07 156.72c-15.32,-416.43 580.13,-633.27 848.21,-798.48 111.31,-68.59 194.4,-153.67 344.08,-186.4 -81.88,204.48 -403.09,346.74 -645.13,472.49 -183.31,95.23 -496.57,288.26 -547.16,512.39zm-797.25 3605.81l249.96 -1.04 185.58 -8.3c-51.87,158.55 -119.53,172.69 -162.04,360.68 260.99,92.42 538.93,333.91 809.32,471.71 208.83,106.43 631.16,249.81 784.08,358.47l94.97 89.45c64.09,20.94 305.93,72.04 366.3,100.61 97.93,8.32 173.61,33.51 233.7,2.37l-33.53 -111.6c-113.15,-536.35 -690.02,-1079.41 -590.09,-1745.77 195.81,-1305.72 580.8,-848.98 1385.15,-848.98 17.26,-207.14 134.77,-395.16 139.64,-613.81 103.16,0 140.83,9.62 206.48,20.79l145.34 7.11 18.23 -142.64 -87.24 -24.76c-21.79,-30.46 -10.73,-6.68 -29.94,-56.61 -56.49,-146.84 -28.1,-575.52 -6.4,-701.58 54.01,-313.71 89.36,-209.34 149.72,-687.44 37.82,-299.44 11.36,-456.46 -77.31,-714.38 -131.26,-381.81 -657.91,-689.47 -961.64,-713.32 -146.76,-11.53 -254.74,6.52 -402.55,-16.75 -329.89,-51.94 -652.65,148.56 -897.14,335.71 -94.58,72.4 -156.87,107.81 -263.85,154.91 -118.45,52.17 -187.67,44.55 -286.4,132.38 -170.31,151.51 -287.54,176.2 -435.14,402.3 -115.77,177.34 -165.89,372.62 -211.96,625.27 -51.85,284.4 -58.47,435 -233.02,604.22 -210.52,204.1 29.96,106.05 -267.23,347.01 -4.07,3.3 -58.95,50.82 -60.77,52.64 -108.68,108.76 95.32,-99.62 -26.28,29.45l-35.68 38.09c-2.68,2.21 -9.44,6.72 -12.15,8.67 -304.49,218.82 -399.68,817.17 -355.28,1216.56 46.26,416.22 311.32,846.91 667.17,1028.58z"/>
    <path class="fil7" d="M13854.23 4353.92c56.96,-122.59 161.2,-196.36 166.81,-355.71 8.43,-239.61 -129.16,-189.08 -204.83,-343.49 412.88,9.5 402.57,595.94 38.02,699.2zm194.86 -808.11c-154.72,-62.58 -118.52,-167.89 -501.23,-329.6 -190.8,-80.62 -396.83,-134.5 -604.21,-205.48 -420.28,-143.82 -753.26,-353.85 -879.07,-749.44 134.92,66.12 245.65,448.35 960.22,695.66 621.07,214.95 780.12,190.45 1024.29,588.86zm28.66 -391.58c-117.67,-36.6 -84.71,-33.03 -184.69,-115.13 -48.64,-39.93 -108.74,-78.78 -187.18,-119.44l-828.15 -401.13c-169.73,-88.33 -218.8,-142.24 -276.53,-312.53 124.02,43.5 274.3,147.93 393.97,221.92 346.86,214.48 909.57,469.51 1082.58,726.31zm633.43 -78.75c-383.07,-636.92 -740.86,-446.37 -1206.48,-990.64 120.82,5.12 600.31,304.5 710.84,379.34 204.49,138.47 501.89,274.25 495.64,611.3zm-2531 2011.21l28.58 167.4c39.34,186.79 376.06,20.1 612.5,0.72 346.07,-28.36 418.99,47.86 546.55,261.47 251.23,420.68 169.29,788.98 145.84,1335.85 -0.19,4.48 -0.81,13.45 -0.99,20.19 -130.51,270.86 -308.18,867.85 -515.46,980.46l-55.29 203.52c430.94,-92.61 835.87,-270.34 1210.41,-440.12 406.1,-184.09 860.47,-526.72 1075.06,-596.42 -43.32,-167.35 -115.24,-181.14 -163.88,-361.45l214.5 13.52c634.8,45.76 1484.14,-1329.07 384.25,-2415.43 -452.37,-446.81 -339.16,-341.06 -456.88,-854.88 -276.38,-1206.27 -717.46,-918.89 -1218.81,-1377.14 -321.67,-294.02 -931.15,-408.23 -1355.25,-307.22 -150.6,35.87 -490.77,179.37 -587.4,278.09 -99.89,102.07 5.56,40.84 -194.4,224.3 -91.95,84.35 -122.95,144.88 -163.58,282.98 -64.43,218.96 -49.33,576.32 -10.98,798.89 41.18,238.96 101.81,498.59 133.07,732.05 53.73,401.26 -108.66,457.74 -132.7,746.31 105.43,-24.54 233.1,-75.22 335.14,-83.7 40.4,173.25 151.18,230.47 169.72,390.61z"/>
    <path class="fil7" d="M4824.36 8009.43l-41.88 162.97 -452.15 1088.32 -359.49 935.33c-215,597.55 -141.63,291.54 -316.29,995.34 -43,173.25 -104.88,303.34 -146.41,495.45 -41.87,193.61 -86.06,349.27 -132.98,536.76 -87.46,349.47 -176.37,671.87 -234.58,1076.97 -127.52,887.37 126.88,2023.43 351.82,2834.83l268.08 1043.5c30.35,121.26 100.7,439.94 170.71,518.82 66.87,235.46 162.86,397.28 179.27,696.97 17.31,316.11 -108.36,469.66 -284.15,614.36l37.76 43.84c30.75,27.87 24.18,-10.41 45.58,35.3l108.48 -117.4c127.23,33.23 164.25,94.29 304.61,38.4 299.06,-50.05 89.6,-1041.73 76.76,-1284.35 -10.82,-204.33 -34.68,-154.88 -66.82,-308.32l-118.5 -1058.02c-55.41,-352.76 -118.9,-714.99 -175.69,-1103.47 -136.69,-935.11 -130.84,-1415.72 141.64,-2227.24 58.02,-172.79 99.79,-310.94 165.87,-476.01 67.33,-168.23 166.81,-302.03 192.1,-462.06 48.45,-157.8 126.55,-315.92 190.08,-466.71 72.71,-172.56 116.65,-315.51 173.2,-497.79 72.98,-235.24 110.96,-244.28 206.7,-434.53 73.73,-146.51 118.73,-342.91 233,-444.09l85.53 -170.22c158.59,-494.25 449.06,-798.58 437.94,-1418.32 -11.2,-624.64 -446.28,-887.53 -1040.19,-648.63z"/>
    <path class="fil7" d="M15545.38 9910.07l99.51 247.65c5.28,4.35 11.78,11.19 14.72,14.28l139.05 198.38c234.86,422.95 575.59,1257.93 700.64,1691.44 72.85,370.5 522.39,1080.06 592.57,1954.47 29.18,363.6 -50.22,856.39 -98.18,1182.47l-168.5 1103.94 -266.91 1924.11c122.37,22.35 173.8,51.68 297.49,43.28 145.75,-65.79 174.71,-33.16 254.58,-246.64l66.74 -140.93 279.48 -1021.61c265.54,-1001.93 550.73,-2431.63 449.23,-3490.36 -90.19,-940.72 -647.66,-2748.98 -1035.2,-3625.2 -73.94,-167.19 -112.97,-302.82 -168.29,-488.93l-128.01 -219.75c-154.97,-326.13 -324.99,-972.15 -538.95,-1079.94 -254.42,-128.17 -976.77,-60.08 -825.75,994.01 57.12,398.72 201.75,621.88 335.78,959.33z"/>
    <path class="fil7" d="M11002.99 6230.61c-80.97,101.82 -118.49,90.66 -218.63,198.23 -33,35.45 -191.64,165.97 -201.94,182.29 -107.62,170.43 -56.31,385.85 -275.56,521.64 -0.06,0.11 -172.5,466.91 -270.1,641.53 -187.11,334.81 -155.71,233.91 -328.19,648.65 -193.76,465.94 -362.71,809.05 -562.88,1334.9 -57.57,151.23 -271.22,793.03 -402.78,881.04l-171.54 -470.34c-30.43,-73.6 -54.04,-125.42 -91.6,-215.46 -35.99,-86.27 -73.74,-139.24 -99.92,-217 -139.17,110.44 -68.16,588.19 -125.56,830.37 -61.52,259.53 -146.78,631.32 -66.17,886.44 144.54,95.89 163.37,109.7 226.04,241 18.6,38.96 28.91,58.77 42.16,88.91 122.43,70.02 257.11,223.96 342.51,334.75 152.13,197.36 381.46,512.24 491.54,184.27 29.55,-88.05 37.05,-171.13 62.73,-244.23 43.45,-123.71 74.85,-94.82 88.1,-218.94 42.96,-402.38 -54.37,-26.59 83.87,-530.16l330.75 -1176.02c29.88,-82.84 83.55,-152.29 101.27,-205.72 19.43,-58.57 24.28,-218.66 34.52,-272.43 63.05,-331.35 181.22,-645.2 260.01,-968.48 48.89,-268.55 181.05,-699.09 341.68,-837.14l8.16 9282.16c94.3,32.59 277.48,64.17 389.81,83.02 -105.04,-8.25 -300.85,-55.03 -392.63,-84.46l2.43 -7634.46c0.17,-427.53 3.13,-856.01 0.12,-1283.43 -3.29,-466.62 -34.39,-798.08 348.01,-950.86 444.9,-274.45 652.92,-279.02 669.82,-667.81 13.1,-301.37 44.08,-243.47 56.3,-390.16l-139.64 13.68c-172.94,-33.4 -154.22,44.34 -279.27,-39.68 -93,5.07 -167.75,34.64 -253.42,53.9z"/>
   </g>
   <g>
    <path class="fil8" d="M7681.66 13639.32c65.81,26.59 190.62,124.84 224.52,208.13 -0.07,0.09 -9.91,49.88 -122.28,75.93 -179.29,41.56 -296.95,-111.2 -315.23,-189.01l170.34 53.24 42.65 -148.29zm-1409.59 110.31c44.23,29.2 27.97,9.74 58.13,28.65 84.42,52.94 4.23,-56.81 43.62,41.27 -31.17,101.3 -13.03,72.15 -149.91,107.34 -63.29,16.27 -117.02,29.35 -185.32,30.97l-140.55 -219.95c254.71,-35.95 -40.14,114.42 275.52,-86.4 69.3,40.8 26.62,50.65 98.51,98.12zm1166.33 -1400.71c147.48,-58.45 63.46,-8.83 159.47,-121.97 106.19,59.92 191.08,112.49 224.52,197.57 -111.06,194.26 -366.61,146.16 -429.77,-55.8l45.78 -19.8zm-566.65 -620.21c84.85,-139.35 -8.77,-94.82 122.24,-173.3 56.81,136.54 52.63,107.92 150.76,199.5 -135.84,183.09 -350.37,124.86 -416.57,-100.17l143.57 73.97zm-1441.71 -322.19l72.57 156.34c11.94,-1.6 87.33,-12.77 92.58,-12.87 47.47,-0.89 32.58,1.74 50.44,9.62 -41.31,145.64 -31.03,177.91 -226.06,167.94 -132.51,-6.78 -147.52,-71.83 -216.35,-142.54l226.82 -178.49zm2203.35 -544.03c23.99,26.9 43.72,65.86 52,74.84 67.42,73.04 134.91,-6.8 128.62,163.04l-337.57 31.01 -71.17 -160.96 167.97 36.18 60.15 -144.11zm-1510.61 -118.46l52.06 123.24 158.39 -27.42c-2.95,99.94 -35.14,133.23 -88.75,200.79 -218.8,-0.26 -281.54,-40.63 -358.4,-209.95 119.84,20.77 58.18,8.54 155.45,71.85l81.25 -158.51zm860.68 -667.02c142.99,75.89 151.96,48.17 153.99,241.4 -112.98,30.4 -193.49,61.88 -296.12,15.4 -0.51,-0.23 -112.52,-76.44 -114.62,-78.7 -51.49,-55.32 -27.09,-1.35 -39.94,-110.49 89.72,20.76 99.66,51.4 188.84,76.08l107.85 -143.69zm850.53 -526.24c-87.23,105.93 -136.71,112.31 -294.45,134.53 -49.88,-52.66 -107.16,-104.7 -138.91,-212.3 29.37,8.71 97.19,34.11 120.89,33.08 20.12,-0.87 150.91,-86.73 312.47,44.69zm-1103.37 -697.51c335.46,-133.9 82.95,-40.58 252.84,-137.15 63.18,55.3 93.68,60.15 150.21,137.15 -28.11,103.81 -39.13,99.16 -91.27,165.91 -116.22,6.87 -233.35,3.78 -311.78,-165.91zm-689.62 -808.26c35.72,-125.58 8.69,-129.3 107.62,-212.79 38.06,100.58 -12.44,53.85 60.69,148.19 37.59,48.49 71.1,52.77 97.14,115.79 -200.87,84.03 -338.99,51.37 -427.29,-135.44l161.84 84.25zm-537.71 -1101.51c-8.58,122.6 -24.66,136.22 -100.52,207.83 41.55,82.27 37.06,64.34 114.49,127.76l94.28 95.45c-290.69,186.93 -169.63,32.84 -443.38,70.33 -159.64,35.09 -138.34,117.15 -248.31,268.55l-72.7 107.53 -22.79 188.49c593.91,-238.9 1028.99,23.99 1040.19,648.63 11.12,619.74 -279.35,924.07 -437.94,1418.32 69.84,9.28 50.1,21.64 84.21,101.56l145.27 30.8c-94.73,123.78 -66.53,113.85 -303.29,127.13l-11.72 -89.27c-114.27,101.18 -159.27,297.58 -233,444.09 -95.74,190.25 -133.72,199.29 -206.7,434.53 -56.55,182.28 -100.49,325.23 -173.2,497.79 -63.53,150.79 -141.63,308.91 -190.08,466.71 54.92,43 10.96,-4.66 49.66,46.25 19.21,25.27 16.11,9.77 33.03,54.57 25.58,67.74 16.75,80.65 16.75,160.46 77.86,-25.84 54.17,-26.22 111.71,-99.46l30.69 29.1c198.69,209.14 89.34,21.65 166.66,143.88 -29.92,123.2 -69.81,101.81 -236.59,100.2l-8.82 67.21c-49.51,456.12 267.73,1083.64 160.76,1507.61 -38.79,153.76 -72.58,308.61 -123.17,462.87 -50.03,152.56 -82.17,282.33 -131.5,426.64 -51.59,150.93 -69.65,101.74 -97.84,181.26 -13.56,38.24 -26.79,221.94 -36.53,270.41 -34.24,170.29 -71.91,327.82 -109,477.02 -20.72,83.35 -37.37,153.88 -57.73,221.29l-92 219.47 118.5 1058.02c32.14,153.44 56,103.99 66.82,308.32 12.84,242.62 222.3,1234.3 -76.76,1284.35 -95.75,294.34 -422.75,566.09 -547.49,139.36 91.46,-103.5 38.74,55.85 70.8,-73.69 3.24,-13.09 12.39,-14.36 18.02,-21.97l-37.76 -43.84c175.79,-144.7 301.46,-298.25 284.15,-614.36 -16.41,-299.69 -112.4,-461.51 -179.27,-696.97 -56.02,51.64 -17.87,-0.44 -52.14,78.33l-777.54 2823.33 1264.77 0c63.67,-357.46 193.18,-725.18 287.52,-1069.96 103.08,-376.7 177.05,-748.49 253.94,-1143.6 64.37,-330.74 383.79,-2155.88 480.57,-2304.93 11.38,15.16 33.9,-3.83 23.47,126.54l-254.6 1618.77c-39.91,169.09 -89.01,368.03 -119.76,579.12 -104.37,716.5 -401.78,1562.03 -537.97,2194.06l2047.45 0c7.95,-743.42 23.58,-1490.77 52.64,-2231.82 14.38,-366.74 24.4,-740.96 6.38,-1107.61 -24.39,-496.32 13.53,-253.23 18.31,-509.73 3.78,-202.64 -44.35,-366.75 79.96,-500.3l19.76 58.5c1.08,6.84 2.61,15.27 3.48,23.26l-27.32 4267.7 2292.55 0c-107.63,-745.91 -287.2,-1524.17 -468,-2239.07 -123.48,-488.22 -468.93,-1742.9 -440.48,-2213.92 78.95,118.55 800.28,2907.34 862.03,3305.24 31.32,201.86 45.47,403.86 90.45,603.27 64.91,287.72 133.04,204.27 112.44,544.48l1367.22 0c-29.41,-90.32 -77.04,-335.61 -108.94,-463.12l-209.6 -962.43c-32.33,-160.32 -73.17,-327.74 -108.5,-477.52 -118.92,-504.18 -460.9,-1907.79 -628.46,-2329.6 -110.82,-278.96 -73.72,-314.74 -120.19,-465.84 -41.7,-135.57 -50.84,-55.09 -95.41,-183.69 -79.06,-228.14 -182.73,-675.39 -290.97,-909.03 -154.53,-333.54 -68.47,-323.18 -211.31,-681.72 -112.19,-281.63 -233.21,-577.77 -307.23,-892.24 -129.5,-12.25 -155.74,-6.61 -252.34,-96.8l139.87 -71.15 -128.58 -763.74c-28.6,-191.06 -55.22,-190.05 -57.44,-203.9 -1.95,-12.23 -8.43,-14.36 -13.52,-20.92 -54.52,236.8 -79.93,381.05 -233.91,440.18 34.7,-352.6 150.51,-816.12 298.33,-1064.96 -80.61,-255.12 4.65,-626.91 66.17,-886.44 57.4,-242.18 -13.61,-719.93 125.56,-830.37l55.86 -910.73c-181.24,0 -174.48,30.99 -251.35,-83.71 63.66,14.82 64.23,21.64 139.64,27.91 0,-281.65 12.8,-694.75 -264.44,-837.02l33.53 111.6c-60.09,31.14 -135.77,5.95 -233.7,-2.37 -54.59,57.35 -108.73,142.19 -241.33,92 -136.6,-51.71 -167.96,-113.19 -182.24,-184.53l57.27 -8.08 -94.97 -89.45c-152.92,-108.66 -575.25,-252.04 -784.08,-358.47 -270.39,-137.8 -548.33,-379.29 -809.32,-471.71 42.51,-187.99 110.17,-202.13 162.04,-360.68l-185.58 8.3c-70.61,221 -102.04,184.57 -277.89,274.34z"/>
    <path class="fil8" d="M13485.14 13680.05c-40.86,95.93 -49.08,146.19 -159.71,160.42 -37.38,4.8 -206.86,-25.96 -232.3,-39.86 -105.15,-57.44 -66.54,43.36 -63.52,-90.11 3.23,-143.21 20.76,-39.71 136.9,-130.93l62.85 -58.46c2.97,-10.89 12.2,-11.06 19.13,-15.44 148.76,152.17 122.12,104.85 236.65,174.38zm1119.63 0c46.67,-86.66 134.64,-156.78 232.72,-199.05l63.05 166.39c107.7,-23.85 41.25,-45.91 165.77,-7.99 -60.29,177.82 -315.44,344.56 -461.54,40.65zm668.93 -613.81c51.14,-139.39 99.01,-180.76 238.87,-230.35l46.47 145.31c92.7,-29.03 69.58,-31.34 182.53,-42.85 -22.44,146.56 -39.22,111.9 -92.04,218.85 -149.15,4.64 -268.02,13.17 -375.83,-90.96zm-1492.08 -27.9c36.36,-142.73 5.2,-47.8 174.99,-202.55l140.06 72.6c94.82,-30.87 88.6,-25.61 157.93,18.34 -45.42,264.83 -363.69,200.61 -472.98,111.61zm1007.74 -600.96c-134.35,1.65 -326.02,21.12 -330.78,-126.41 -3.95,-122.59 6.59,-57.19 98.19,-133.59 61.03,-50.91 40.46,-47.67 107.55,-88.23 72.29,125.13 102.21,177.14 125.04,348.23zm-842.64 -980.56c79.17,-63.38 -6.62,-10.81 86.93,-50.44l43.54 164.94 183.01 -48.34c-21.34,123.36 -55.8,203.82 -182.87,220.81 -115.06,15.37 -211.63,-25.68 -281.65,-100.48l151.04 -186.49zm683.53 -650.53c41.7,-79.73 59.19,-35.31 106.64,-93.11 34.96,-42.58 52.15,-108.62 104.62,-143.72l83.36 167.42c376.36,-275.16 56.11,486.64 -294.62,69.41zm-811.2 -579.04c-53.3,-130.57 -58.22,-100.5 27.65,-180.53 34.62,-32.27 92.96,-76.58 131.89,-113.57 68.16,46 12.22,-4.91 58.08,50.33l51.41 113.31c55.17,-86.78 41.51,-52.46 156.45,-66.64 -34.46,245.09 -229.67,277.43 -425.48,197.1zm617.12 -774.47c35.17,-69.41 2.59,-18.28 50.66,-78.42l148.83 -135.8c5.37,5.2 11.94,12.76 14.99,16.67 2.99,3.83 10.81,11.99 14.28,16.76l54.52 102.84c52.75,-21.52 111.98,-50.59 202.75,-62.68 -27.65,153.73 -57.35,148.82 -117.14,268.02 -157.12,-20.93 -261.24,-57.36 -368.89,-127.39zm-1306.38 -10.78c50.01,-72.17 39.18,-46.2 97.11,-98.49 47.75,-43.1 54.61,-57.74 106.45,-105.51l77.43 169.77c133.68,-77.72 10.86,-95.22 206.25,-48.87l-175.23 193.67c-199.29,-2.85 -196.28,-20.17 -312.01,-110.57zm659.58 -644.54c45.73,-127.19 -38.53,16.51 150.69,-166.88 40.8,-39.54 8.39,-15.26 53.26,-46.42 29.62,26.27 23.33,19.17 50.65,50.59 5.63,6.47 21.41,26.76 26.16,33.07 15.49,20.53 26.1,41.36 39.14,61.13l137.94 -45.36c-38.6,178.18 -145.68,221.1 -333.53,175.38l-124.31 -61.51zm817.9 -867.55c33.25,-31.24 75.83,-67.06 116.71,-103.93l145.5 -105.08 73.39 126.22c45.74,-15.36 48.26,-22.28 89.46,-21.44 68.32,1.4 27.7,-2.22 78.17,31.27l-195.56 193.36c-115.66,-23.43 -230.59,-63.31 -307.67,-120.4zm-1610.07 -77.13c-82.22,42.81 -90.98,81.14 -139.62,172.8 -230.87,435.06 -39.37,153.02 -143.48,440.29 -139.5,384.9 -45.88,1172.74 -5.46,1531.32l166.29 1145.19c64.96,846.6 -34.56,347.9 196.78,1100.68l195.49 9.56 93.24 -140.48 24.01 189.56c51.07,-79.95 -40.58,-23.25 76.41,-75.75l73.18 -6.65c2.49,-6.19 12.16,2.58 17.9,4.9 14.35,45.56 -3.99,65.49 -24.23,93.51 -114.45,158.41 -252.69,92.93 -368.09,75.39l-22.56 208.62c-73.95,-49.81 -105.23,-142.24 -133.51,-233 8.18,-80.13 -5.12,-104.72 -33.14,-177.1 -28.94,-74.77 -39.25,-117.49 -94.19,-157.7 -137.65,590.24 -61.95,616 -275.72,1259.08l-781.87 2343.75c-77.13,230.23 -397.25,946.45 -354.39,1196.06l-6.18 194.52 906.69 173.48c34.06,-461.66 252.31,-939.48 329.1,-1433.14 23.92,-153.76 166.66,-467.05 220.9,-649.53 34.79,-117.04 66.56,-240.67 93.6,-353.49l58.66 -277.29c41.32,-77.2 -20.48,-31.26 60.55,-58.37 139.56,114.09 -2.36,470.35 -67.25,712.99 -64.24,240.19 -128.09,469.53 -190.06,702.74 -101.58,382.23 -311.16,1067.06 -321.14,1455.19 266.73,44.97 1467.87,353.87 1622.23,328.67 165.48,-918.91 -104.5,-2482.51 176.07,-3207.36 76.3,98.81 43.71,282.14 45,402.75 1.51,139.57 2.32,278.95 5.05,418.51 5.58,285.61 14.96,551.29 16.92,837.01 1.47,215.28 -43.73,1579.73 -29.04,1617.94l1571.24 368.01c-31.28,-292.64 -95.95,-596.71 -145.45,-876.07 -53.34,-301.06 -84.11,-607.55 -123.4,-912.67 -70.28,-545.88 -290.95,-1241.32 -259.45,-1777.59 92.72,95.48 520.4,1941.51 530.05,2166.28 11.19,260.29 118.02,1326.02 218.69,1439.95 51.01,57.74 257.09,76.56 381.26,121.47l266.91 -1924.11c-5.14,-5.37 -11.68,-22.07 -13.68,-17.62l-46.36 -73.47c-59.78,-118.79 -73.44,-259.51 -107.39,-394.52 -141.1,-561.17 -296.19,-927.14 -418.7,-1534.73 -152.19,-754.77 -29.34,-525.28 57.03,-1119.74 43.95,-302.52 47.01,-961.18 203.21,-1100.8 -125.05,-433.51 -465.78,-1268.49 -700.64,-1691.44l-139.05 -198.38c-2.94,-3.09 -9.44,-9.93 -14.72,-14.28l-59.83 70.7c-150.93,-8.08 -254.03,21.45 -276,-145.15 52.36,-29.15 84.26,-35.41 169.78,-25.7l-16.99 -153.25 83.53 5.75c-134.03,-337.45 -278.66,-560.61 -335.78,-959.33 -151.02,-1054.09 571.33,-1122.18 825.75,-994.01 213.96,107.79 383.98,753.81 538.95,1079.94l128.01 219.75c0,-234.36 -28.31,-458.36 -63.29,-674.73 -65.55,-405.49 -212.04,-486.85 -395.46,-720.95 -97.52,-124.47 -412.78,-567.35 -546.64,-593.95 -146.97,94.35 -116.38,108.14 -334.25,50.88 20.45,-128.75 27.98,-91.51 99.51,-166.34l0.55 -139.51c-5.39,-111.03 -17.27,-87.34 -76.33,-163.6 -52.73,-68.09 -71.04,-98.08 -108.4,-176.39l-214.5 -13.52c48.64,180.31 120.56,194.1 163.88,361.45 -214.59,69.7 -668.96,412.33 -1075.06,596.42 -374.54,169.78 -779.47,347.51 -1210.41,440.12l55.29 -203.52z"/>
    <path class="fil8" d="M4330.33 9260.72l452.15 -1088.32 -228.73 -71.11c-82.54,167.09 -130.52,337.49 -174.5,521.83 -41.86,175.44 -48.92,405.91 -48.92,637.6z"/>
   </g>
   <path class="fil9" d="M7240.87 4353.45c32.58,-84.3 33.94,-593.93 42.5,-739.8 -300.85,-52.78 -380.68,10.85 -394.14,328.31 -3.51,82.81 25.35,274.41 57.82,344.57 25.36,54.83 58.43,114.41 205.29,99.41 93.34,-9.54 30.2,16.44 88.53,-32.49z"/>
   <path class="fil10" d="M3864.07 19052.89c-5.63,7.61 -14.78,8.88 -18.02,21.97 -32.06,129.54 20.66,-29.81 -70.8,73.69 124.74,426.73 451.74,154.98 547.49,-139.36 -140.36,55.89 -177.38,-5.17 -304.61,-38.4l-108.48 117.4c-21.4,-45.71 -14.83,-7.43 -45.58,-35.3z"/>
   <path class="fil11" d="M13422.37 17765.31c-129.54,-3.13 -791.53,-190.45 -999.21,-235.47 -280.02,-60.69 -804.1,-209.55 -1055.77,-221.84 154.2,81 1825.4,480.93 2054.98,457.31z"/>
   <path class="fil12" d="M9346.08 4751.88c44.03,-49.44 18.6,20.95 36.51,-57.7 5.62,-24.68 2.66,-82.05 2.66,-109.7l-108.18 0 87.24 24.76 -18.23 142.64z"/>
  </g>
 </g>
</svg>
