<?xml version="1.0" encoding="UTF-8"?>
<!DOCTYPE svg PUBLIC "-//W3C//DTD SVG 1.1//EN" "http://www.w3.org/Graphics/SVG/1.1/DTD/svg11.dtd">
<!-- Creator: CorelDRAW 2017 -->
<svg xmlns="http://www.w3.org/2000/svg" xml:space="preserve" width="235.744mm" height="30.9562mm" version="1.1" style="shape-rendering:geometricPrecision; text-rendering:geometricPrecision; image-rendering:optimizeQuality; fill-rule:evenodd; clip-rule:evenodd"
viewBox="0 0 23574.36 3095.62"
 xmlns:xlink="http://www.w3.org/1999/xlink">
 <defs>
  <style type="text/css">
   <![CDATA[
    .fil0 {fill:#848688;fill-rule:nonzero}
   ]]>
  </style>
 </defs>
 <g id="Capa_x0020_1">
  <metadata id="CorelCorpID_0Corel-Layer"/>
  <path class="fil0" d="M200.67 584.55l27.87 28.33 28.33 0 84.08 -28.33 29.7 28.33 27.88 0 84.53 -28.33 27.88 28.33 0 27.88 113.78 -56.21 56.21 56.21 56.2 -56.21 84.54 28.33 85.45 -28.33 28.33 28.33 0 27.88 28.33 -27.88 197.86 0c150.8,47.07 226.19,113.33 226.19,197.86 74.94,0 131.15,85 168.62,254.53l-27.88 0 27.88 27.87 0 56.21c0,249.95 -112.87,429.53 -338.6,538.29l-27.88 -29.25 -169.98 57.58 -28.34 -28.33c-207,18.73 -310.72,47.06 -310.72,84.53l0 112.41 28.33 141.66 -28.33 0 28.33 28.33 0 27.87 -28.33 84.54c37.47,0 56.2,28.33 56.2,85.45l84.54 0 113.78 -27.87c150.79,30.16 226.19,67.63 226.19,112.41 0,88.19 -113.32,154.45 -339.97,198.32l-196.95 -29.71 -311.64 0 -28.33 -26.5 -27.88 26.5 -169.98 0c-56.21,-17.82 -84.54,-74.02 -84.54,-168.61l226.19 -112.41 169.99 27.87 56.2 0 0 -27.87 -27.87 -85.91 27.87 -140.28 0 -849.02 28.33 -168.62c-32.9,-132.06 -70.37,-197.86 -112.41,-197.86l-29.7 27.87 -27.87 0c-169.53,-18.73 -254.52,-46.61 -254.52,-84.08l0 -29.7c39.29,-74.94 86.82,-112.41 142.11,-112.41zm480.26 198.32l-27.88 84.08 27.88 310.73 0 113.78 -27.88 27.87c28.33,113.33 103.73,169.99 226.19,169.99l27.88 -27.88 28.33 0 28.33 27.88 27.87 0 142.12 -27.88 27.87 27.88c150.8,-126.58 226.19,-249.04 226.19,-367.85 0,-74.94 -103.73,-187.81 -311.64,-338.6l-28.33 27.87 -198.32 0 -27.87 -27.87 -28.33 0 -56.21 56.2 -56.2 -56.2zm1895.9 -233.05l27.87 0c69,0 151.71,231.68 249.04,694.57l195.58 804.7 0 83.16c203.34,58.04 305.24,113.78 305.24,167.25 -29.24,129.32 -75.85,194.2 -139.37,194.2l-27.87 -28.33 -26.96 0 -111.04 28.33 0 -28.33 -28.33 28.33 -82.71 0 -28.33 -28.33 -27.88 28.33 -83.16 0c-129.32,0 -194.21,-92.3 -194.21,-277.37 131.15,-22.85 205.63,-69.46 222.54,-138.91l0 -28.33 -56.2 -54.84 -28.34 26.96 -26.5 0 -167.7 -26.96 -111.04 26.96 -111.04 -26.96 -54.83 138 82.7 56.21 28.33 -28.33 83.17 167.7c0,100.53 -74.03,155.82 -222.54,165.87l-27.87 -28.33 -26.96 0 -84.08 28.33 -26.96 -28.33 -28.33 0 -82.71 28.33 -28.33 -28.33 -27.87 0 -111.04 28.33 -83.17 -111.04c11.42,-148.51 39.3,-222.53 83.17,-222.53l138.91 28.33 305.24 -721.53 -27.87 -28.33 0 -27.88 167.24 -499.45 -28.33 -28.33 0 -27.87c54.84,-151.71 128.86,-253.61 222.54,-305.25zm-54.83 499.45l-139.38 583.53 83.17 54.84 27.87 -26.96 28.34 0 54.83 55.29 139.37 -55.29c-11.88,-148.06 -39.3,-222.08 -83.16,-222.08l26.5 -27.88 0 -28.33 -54.84 -82.71 28.34 0 -56.21 -139.37 27.87 -83.16 -27.87 0 -28.33 -27.88 -26.5 0zm1147.41 -464.72l27.87 28.33 28.33 0 84.08 -28.33 29.7 28.33 27.88 0 84.53 -28.33 27.88 28.33 0 27.88 113.78 -56.21 56.21 56.21 56.2 -56.21 84.54 28.33 85.45 -28.33 28.33 28.33 0 27.88 28.33 -27.88 197.86 0c150.8,47.07 226.19,113.33 226.19,197.86 74.94,0 131.15,85 168.62,254.53l-27.88 0 27.88 27.87 0 56.21c0,249.95 -112.87,429.53 -338.6,538.29l-27.88 -29.25 -169.98 57.58 -28.34 -28.33c-207,18.73 -310.72,47.06 -310.72,84.53l0 112.41 28.33 141.66 -28.33 0 28.33 28.33 0 27.87 -28.33 84.54c37.47,0 56.2,28.33 56.2,85.45l84.54 0 113.78 -27.87c150.79,30.16 226.19,67.63 226.19,112.41 0,88.19 -113.32,154.45 -339.97,198.32l-196.95 -29.71 -311.64 0 -28.33 -26.5 -27.88 26.5 -169.98 0c-56.21,-17.82 -84.54,-74.02 -84.54,-168.61l226.19 -112.41 169.99 27.87 56.2 0 0 -27.87 -27.87 -85.91 27.87 -140.28 0 -849.02 28.33 -168.62c-32.9,-132.06 -70.37,-197.86 -112.41,-197.86l-29.7 27.87 -27.87 0c-169.53,-18.73 -254.52,-46.61 -254.52,-84.08l0 -29.7c39.29,-74.94 86.82,-112.41 142.11,-112.41zm480.26 198.32l-27.88 84.08 27.88 310.73 0 113.78 -27.88 27.87c28.33,113.33 103.73,169.99 226.19,169.99l27.88 -27.88 28.33 0 28.33 27.88 27.87 0 142.12 -27.88 27.87 27.88c150.8,-126.58 226.19,-249.04 226.19,-367.85 0,-74.94 -103.73,-187.81 -311.64,-338.6l-28.33 27.87 -198.32 0 -27.87 -27.87 -28.33 0 -56.21 56.2 -56.2 -56.2zm1120.91 -202.43l27.87 29.7 29.7 0 85.45 -29.7 29.25 29.7 0 57.58 -57.12 57.57 -87.28 -29.7 -57.57 57.58 -27.88 -27.88 0 -87.27 57.58 -57.58zm1380 1811.36c-38.39,76.77 -95.96,115.15 -172.73,115.15l-29.25 -27.87 -28.33 0 -29.24 27.87 -28.33 0 -143.03 -27.87 -115.15 27.87 0 -27.87 -29.7 27.87 -57.58 0 -27.88 -27.87 -29.7 27.87 -200.6 -27.87 -546.06 0 -28.33 -29.7 -29.25 0 29.25 -27.88 0 -57.57 -29.25 -29.7 0 -27.88 29.25 -29.7 28.33 0 27.88 29.7 29.7 -29.7 0 -27.87 143.02 27.87c96.42,-42.04 144.4,-108.76 144.4,-200.6l-29.24 -29.7 57.57 -516.82 -28.33 -29.24 0 -28.34 57.58 -172.27 -29.25 -85.9 57.58 -230.31 -28.33 -85.45 28.33 0 -28.33 -29.7 0 -172.73c-96.42,0 -144.4,-19.19 -144.4,-57.57l86.82 -27.88 28.33 27.88 29.25 0 28.33 -27.88 29.24 0 28.33 27.88 27.88 0 115.15 -27.88 29.7 27.88 27.88 0 29.7 -27.88 27.87 0 115.16 57.58 87.27 -29.7 27.88 29.7 0 27.87 -27.88 29.7 -87.27 0 -27.88 -29.7 -29.7 29.7 -200.6 0 -87.28 -57.57 -27.88 27.87 27.88 29.7 0 258.18 -56.21 0 56.21 85.91 -27.88 86.82 27.88 28.33 0 29.25 -27.88 28.33 0 29.24c0,48.9 95.96,116.07 287.88,200.6l143.03 -172.27 0 -172.72 87.28 0 56.2 57.57 -28.33 29.25 0 28.33 28.33 29.24 29.25 0 -29.25 28.33 0 345 29.25 115.16c-25.13,95.5 -53.46,143.48 -85.45,143.48l-29.7 0c-57.12,0 -85.45,-105.56 -85.45,-316.21l-230.31 -57.58c-75.85,0 -133.43,38.39 -172.73,115.15l27.88 28.33 0 230.31 -27.88 29.24 57.58 143.49 -29.7 27.87 0 29.7c0,115.16 153.53,172.73 460.61,172.73 129.32,-53 215.68,-110.58 258.63,-172.73l-28.33 -87.27c32.9,0 61.69,-47.53 85.91,-143.03l-28.33 -115.15 0 -28.33 143.48 -29.25 29.25 29.25 28.33 85.9 29.24 0 -29.24 144.4 0 286.51 -28.33 29.7 0 27.88 57.57 0 -57.57 57.57zm-374.71 -1781.66l57.58 57.58 57.58 0 201.97 -29.7 85.91 518.18 -28.33 0 28.33 28.33 0 86.82 -57.58 57.58 -28.33 0c-44.78,0 -73.57,-153.54 -86.82,-460.61 -81.34,-95.5 -176.84,-143.03 -286.51,-143.03l0 -57.57 56.2 -57.58zm631.97 -47.07c174.1,12.8 260.92,31.99 260.92,57.58l231.67 -57.58 116.52 29.71 28.34 0 145.76 -29.71c212.49,19.65 318.5,48.9 318.5,87.28l0 29.25c0,47.98 -106.01,86.36 -318.5,115.15l-116.52 -29.24 -29.24 29.24 0 348.2 29.24 115.15 -29.24 86.82 29.24 203.35 -29.24 0 29.24 28.33 0 319.86 29.25 346.83 174.1 0 57.57 -57.57 87.28 57.57 86.82 -28.33 87.28 28.33c96.42,-76.77 144.4,-212.02 144.4,-405.77l-29.71 -27.88 0 -29.7c34.28,-135.71 73.12,-203.34 116.53,-203.34l28.33 0 86.82 86.82 0 116.52 -27.87 29.7 27.87 86.82 -27.87 115.16 27.87 29.7 0 27.87 -27.87 116.53 27.87 86.82c-38.38,120.63 -86.36,187.8 -144.4,202.43l-348.2 0 -27.87 -28.33 -29.7 28.33 -29.25 0 -85.9 -28.33 -405.32 57.57 -29.7 -29.24 -29.25 0 -115.15 29.24 0 -29.24 -29.7 29.24 -116.53 0 -27.87 -29.24 -29.7 29.24 -57.58 0c-58.03,-19.65 -86.82,-77.68 -86.82,-174.1 19.65,-58.03 77.68,-86.82 174.1,-86.82l57.58 0 116.52 29.25 144.4 -57.58 0 -58.49 -29.25 0 29.25 -202.43 0 -522.3 29.7 -114.69 -29.7 -116.53 0 -435.01 -57.58 0 -145.77 29.24c-173.18,-19.65 -259.55,-48.44 -259.55,-86.82l0 -87.28 27.88 -27.87 0 -29.71zm2646.67 21.48l27.87 28.33 28.33 0 84.08 -28.33 29.7 28.33 27.88 0 84.53 -28.33 27.88 28.33 0 27.88 113.78 -56.21 56.21 56.21 56.2 -56.21 84.54 28.33 85.45 -28.33 28.33 28.33 0 27.88 28.33 -27.88 197.86 0c150.8,47.07 226.19,113.33 226.19,197.86 74.94,0 131.15,85 168.62,254.53l-27.88 0 27.88 27.87 0 56.21c0,249.95 -112.87,429.53 -338.6,538.29l-27.88 -29.25 -169.98 57.58 -28.34 -28.33c-207,18.73 -310.72,47.06 -310.72,84.53l0 112.41 28.33 141.66 -28.33 0 28.33 28.33 0 27.87 -28.33 84.54c37.47,0 56.2,28.33 56.2,85.45l84.54 0 113.78 -27.87c150.79,30.16 226.19,67.63 226.19,112.41 0,88.19 -113.32,154.45 -339.97,198.32l-196.95 -29.71 -311.64 0 -28.33 -26.5 -27.88 26.5 -169.98 0c-56.21,-17.82 -84.54,-74.02 -84.54,-168.61l226.19 -112.41 169.99 27.87 56.2 0 0 -27.87 -27.87 -85.91 27.87 -140.28 0 -849.02 28.33 -168.62c-32.9,-132.06 -70.37,-197.86 -112.41,-197.86l-29.7 27.87 -27.87 0c-169.53,-18.73 -254.52,-46.61 -254.52,-84.08l0 -29.7c39.29,-74.94 86.82,-112.41 142.11,-112.41zm480.26 198.32l-27.88 84.08 27.88 310.73 0 113.78 -27.88 27.87c28.33,113.33 103.73,169.99 226.19,169.99l27.88 -27.88 28.33 0 28.33 27.88 27.87 0 142.12 -27.88 27.87 27.88c150.8,-126.58 226.19,-249.04 226.19,-367.85 0,-74.94 -103.73,-187.81 -311.64,-338.6l-28.33 27.87 -198.32 0 -27.87 -27.87 -28.33 0 -56.21 56.2 -56.2 -56.2zm1120.91 -202.43l27.87 29.7 29.7 0 85.45 -29.7 29.25 29.7 0 57.58 -57.12 57.57 -87.28 -29.7 -57.57 57.58 -27.88 -27.88 0 -87.27 57.58 -57.58zm1380 1811.36c-38.39,76.77 -95.96,115.15 -172.73,115.15l-29.25 -27.87 -28.33 0 -29.24 27.87 -28.33 0 -143.03 -27.87 -115.15 27.87 0 -27.87 -29.7 27.87 -57.58 0 -27.88 -27.87 -29.7 27.87 -200.6 -27.87 -546.06 0 -28.33 -29.7 -29.25 0 29.25 -27.88 0 -57.57 -29.25 -29.7 0 -27.88 29.25 -29.7 28.33 0 27.88 29.7 29.7 -29.7 0 -27.87 143.02 27.87c96.42,-42.04 144.4,-108.76 144.4,-200.6l-29.24 -29.7 57.57 -516.82 -28.33 -29.24 0 -28.34 57.58 -172.27 -29.25 -85.9 57.58 -230.31 -28.33 -85.45 28.33 0 -28.33 -29.7 0 -172.73c-96.42,0 -144.4,-19.19 -144.4,-57.57l86.82 -27.88 28.33 27.88 29.25 0 28.33 -27.88 29.24 0 28.33 27.88 27.88 0 115.15 -27.88 29.7 27.88 27.88 0 29.7 -27.88 27.87 0 115.16 57.58 87.27 -29.7 27.88 29.7 0 27.87 -27.88 29.7 -87.27 0 -27.88 -29.7 -29.7 29.7 -200.6 0 -87.28 -57.57 -27.88 27.87 27.88 29.7 0 258.18 -56.21 0 56.21 85.91 -27.88 86.82 27.88 28.33 0 29.25 -27.88 28.33 0 29.24c0,48.9 95.96,116.07 287.88,200.6l143.03 -172.27 0 -172.72 87.28 0 56.2 57.57 -28.33 29.25 0 28.33 28.33 29.24 29.25 0 -29.25 28.33 0 345 29.25 115.16c-25.13,95.5 -53.46,143.48 -85.45,143.48l-29.7 0c-57.12,0 -85.45,-105.56 -85.45,-316.21l-230.31 -57.58c-75.85,0 -133.43,38.39 -172.73,115.15l27.88 28.33 0 230.31 -27.88 29.24 57.58 143.49 -29.7 27.87 0 29.7c0,115.16 153.53,172.73 460.61,172.73 129.32,-53 215.68,-110.58 258.63,-172.73l-28.33 -87.27c32.9,0 61.69,-47.53 85.91,-143.03l-28.33 -115.15 0 -28.33 143.48 -29.25 29.25 29.25 28.33 85.9 29.24 0 -29.24 144.4 0 286.51 -28.33 29.7 0 27.88 57.57 0 -57.57 57.57zm-374.71 -1781.66l57.58 57.58 57.58 0 201.97 -29.7 85.91 518.18 -28.33 0 28.33 28.33 0 86.82 -57.58 57.58 -28.33 0c-44.78,0 -73.57,-153.54 -86.82,-460.61 -81.34,-95.5 -176.84,-143.03 -286.51,-143.03l0 -57.57 56.2 -57.58zm715.13 -25.59c36.56,0 54.84,28.33 54.84,84.54l27.87 0c0,-56.21 18.74,-84.54 56.21,-84.54l56.2 56.21 84.54 -56.21 84.08 56.21 28.33 -27.88 0 -28.33 223.45 56.21c0,-37.47 28.33,-56.21 84.53,-56.21l27.88 28.33 28.33 0 27.87 -28.33 26.96 0 84.54 56.21 27.87 -27.88 56.21 0c143.03,54.38 254.98,194.21 336.32,419.94l0 84.54c0,169.53 -84.08,337.23 -251.78,503.56l0 56.21 84.08 196.49 -27.88 0c36.56,166.33 92.31,278.28 167.25,336.31l28.33 -28.33 27.87 0 56.21 56.21 28.33 -27.88 27.87 0 111.04 138.92 0 84.53 -82.71 83.17 -28.33 -26.96 -27.87 0 -84.54 26.96 -27.87 -26.96 -28.33 0 -112.41 26.96c-123.38,-50.26 -197.87,-106.01 -223.45,-167.7l0 -138.92c0,-249.95 -37.47,-446.44 -112.42,-589.01l-28.33 27.88 -26.96 0 -27.87 -84.08 -112.41 56.2 -84.54 -28.33 -56.2 56.21 -27.88 -27.88 -28.33 0 -26.5 27.88 0 112.41 26.5 28.33 0 27.87 -26.5 28.33 -28.33 0 28.33 27.88 0 26.96 -28.33 140.74c0,112.41 46.61,168.61 139.37,168.61l27.87 27.88 28.33 -27.88 27.88 0c74.94,30.16 112.41,95.51 112.41,195.12l0 28.33c0,41.13 -84.08,68.55 -252.7,83.17l0 -26.96 -28.33 26.96 -195.57 -26.96 -112.41 26.96c-176.39,8.68 -269.61,-65.8 -279.66,-223.91l28.33 -82.71 27.88 27.88 84.53 0 82.71 -56.21 56.21 56.21 84.53 -168.62 -56.2 -168.61 27.87 -26.96 28.33 0 -28.33 -27.88 0 -28.33 28.33 -27.87 -28.33 -28.33 28.33 -140.29 0 -672.18 -28.33 -140.74 -140.28 0 -139.37 -138.91 84.53 -84.54zm392.07 223.45l0 364.19c0,168.62 93.22,253.16 279.65,253.16l28.33 -28.34 0 -27.87 84.08 27.87c99.16,0 201.98,-84.07 307.99,-252.69l0 -195.58c0,-74.94 -168.16,-131.14 -504.48,-168.61l-28.33 27.87 -167.24 0zm1419.3 -223.45l26.5 28.33 28.33 0 27.88 -28.33 28.33 0 112.41 56.21 27.87 -27.88 0 -28.33 140.74 28.33 307.99 0 139.37 -28.33 27.87 28.33 0 27.88 28.34 -27.88 84.07 0 84.54 84.08 0 28.33c0,44.33 -84.54,72.2 -253.15,82.71l-26.96 -27.87 0 84.08 -56.21 0 -56.2 -56.21 -140.29 56.21 27.88 196.94 -27.88 195.58 56.21 504.48 -28.33 140.74 28.33 27.87 0 26.96 -28.33 28.33 0 27.88 28.33 112.41 -28.33 84.53 112.41 0 28.33 -168.61 84.08 0 0 196.49 83.16 28.33 28.34 -28.33 27.87 0c131.15,32.44 196.95,69.46 196.95,111.04l27.87 -26.5 83.17 0 56.2 54.83c0,31.07 -149.42,78.14 -448.27,140.74l-111.5 -28.33 -56.2 56.21 -27.88 -27.88 0 -28.33 -28.33 28.33 -223.45 -28.33 -196.94 28.33 -27.88 -28.33 -28.33 0 -167.24 28.33 -27.88 0 -140.74 -112.87 140.74 -167.24 27.88 28.33 28.33 0 111.04 -28.33 27.87 28.33 0 27.87c131.6,-23.76 196.95,-89.56 196.95,-196.49l28.33 0 -28.33 -28.33 0 -279.65 -28.33 -112.41 28.33 -112.41 0 -167.71 -28.33 -140.28 28.33 -167.7 0 -196.49 -84.54 -84.54 -140.28 28.33 -28.33 0 -111.04 -28.33 -84.08 28.33 -84.54 -111.04 0 -28.33 196.95 -112.41zm727.92 1261.19l28.33 0 54.84 56.21 -139.37 111.04 -27.88 -27.88 0 -55.29 84.08 -84.08zm1271.71 -1241.08l0 26.96 26.96 -26.96 26.5 0c227.11,46.61 390.7,155.36 491.68,326.72 86.37,180.95 140.74,381.1 163.14,599.52l-28.34 26.96 0 27.88 28.34 81.79c-93.68,544.69 -348.2,816.58 -763.12,816.58l-54.83 0c-175.01,-60.78 -338.15,-196.49 -489.86,-408.06l0 -136.63 -54.83 0 -26.96 -244.93c0,-632.88 217.97,-996.16 653.44,-1089.83l27.88 0zm-109.67 163.13c-191.01,149.88 -308.9,322.61 -353.23,518.18l26.51 26.97 -26.51 163.13c46.16,526.86 245.84,790.07 598.16,790.07l164.5 -136.63c90.48,-111.5 153.54,-275.09 190.55,-489.85l0 -271.89c0,-319.41 -154.45,-519.56 -463.35,-599.98l-26.96 26.96 -27.88 0 -81.79 -26.96zm1031.8 -169.99l28.33 0 26.5 26.96 26.96 -26.96 54.84 0 109.67 26.96 26.96 -26.96 26.96 0 27.87 26.96 26.96 0 108.3 -26.96 28.33 26.96 26.5 0 26.96 -26.96 27.88 0 81.79 26.96 81.8 -26.96 54.83 53.92 26.5 -26.96 26.96 0c227.57,0 408.98,181.41 544.69,544.69l54.84 381.56c-72.2,545.6 -180.96,817.94 -326.27,817.94 -73.57,72.66 -173.18,108.76 -300.22,108.76l-54.83 0 -26.5 -26.96 -244.93 53.46 -28.33 -26.5 -26.96 0 -81.34 26.5 0 -26.5 -26.96 26.5 -109.67 0 -26.96 -26.5 -81.34 26.5c-125.2,0 -197.86,-90.47 -218.42,-271.88l108.3 -81.34 136.63 0 28.33 26.5 26.5 0c72.2,-76.77 108.76,-149.42 108.76,-217.97l0 -81.79 -26.96 -81.8 26.96 -136.17 0 -271.88 27.87 -26.96 -27.87 -27.88 0 -136.63 27.87 -26.96 -54.83 -299.76 -136.63 28.33 -26.51 -28.33 -28.33 28.33 -26.96 0 -108.3 -191.46 0 -54.84 53.47 -53.92zm736.61 190.1l54.83 54.83 26.5 0 0 -54.83 -81.33 0zm-218.43 81.79l-54.83 109.67 28.33 26.96 0 108.3 -28.33 28.33c36.55,80.88 54.83,198.77 54.83,353.22l-26.5 163.59 53.46 409.43 -26.96 0c13.25,54.38 49.81,90.48 108.3,108.3 0,-54.38 18.28,-81.34 55.29,-81.34l81.34 26.51 28.33 -26.51 53.46 54.84c217.97,-149.88 326.73,-331.75 326.73,-545.15l27.87 -27.87 -27.87 -26.96 27.87 -26.51 26.96 0 -26.96 -136.62 26.96 -108.3c-34.73,0 -80.42,-100.08 -136.63,-300.22l-190.09 -81.34 -81.8 -28.33 -26.5 28.33 -28.33 0 -108.3 -28.33 -109.67 28.33 -26.96 -28.33zm1262.57 -285.14l26.5 28.33 28.33 0 27.88 -28.33 28.33 0 112.41 56.21 27.87 -27.88 0 -28.33 140.74 28.33 307.99 0 139.37 -28.33 27.87 28.33 0 27.88 28.34 -27.88 84.07 0 84.54 84.08 0 28.33c0,44.33 -84.54,72.2 -253.15,82.71l-26.96 -27.87 0 84.08 -56.21 0 -56.2 -56.21 -140.29 56.21 27.88 196.94 -27.88 195.58 56.21 504.48 -28.33 140.74 28.33 27.87 0 26.96 -28.33 28.33 0 27.88 28.33 112.41 -28.33 84.53 112.41 0 28.33 -168.61 84.08 0 0 196.49 83.16 28.33 28.34 -28.33 27.87 0c131.15,32.44 196.95,69.46 196.95,111.04l27.87 -26.5 83.17 0 56.2 54.83c0,31.07 -149.42,78.14 -448.27,140.74l-111.5 -28.33 -56.2 56.21 -27.88 -27.88 0 -28.33 -28.33 28.33 -223.45 -28.33 -196.94 28.33 -27.88 -28.33 -28.33 0 -167.24 28.33 -27.88 0 -140.74 -112.87 140.74 -167.24 27.88 28.33 28.33 0 111.04 -28.33 27.87 28.33 0 27.87c131.6,-23.76 196.95,-89.56 196.95,-196.49l28.33 0 -28.33 -28.33 0 -279.65 -28.33 -112.41 28.33 -112.41 0 -167.71 -28.33 -140.28 28.33 -167.7 0 -196.49 -84.54 -84.54 -140.28 28.33 -28.33 0 -111.04 -28.33 -84.08 28.33 -84.54 -111.04 0 -28.33 196.95 -112.41zm727.92 1261.19l28.33 0 54.84 56.21 -139.37 111.04 -27.88 -27.88 0 -55.29 84.08 -84.08zm1259.83 -1226.46c84.53,0 227.56,62.6 428.16,187.35l26.96 -26.5c0,-52.55 35.64,-97.33 106.93,-133.89l80.42 80.42 -53.46 428.17 53.46 240.81c-92.76,18.28 -164.04,53.92 -214.31,107.39 -91.85,-366.02 -207.91,-571.19 -347.74,-615.98l-26.96 26.96 -26.96 0 -26.5 -26.96 -26.96 0c-117.9,0 -215.69,62.61 -294.28,187.36l26.5 26.96 0 53.46c-71.28,0 -106.93,53.46 -106.93,160.85l0 26.5 26.96 26.96 0 26.5 -26.96 26.96 -26.96 0 26.96 26.96 0 26.51 -26.96 26.96 0 26.5 53.92 214.31 -26.96 26.96 0 26.51c26.05,0 79.51,98.24 160.85,294.73l213.86 160.39c167.7,0 337.68,-151.71 509.04,-455.12l26.51 -26.51 53.46 0 80.42 80.43c-73.11,270.06 -216.14,466.55 -428.16,589.01l-187.81 53.46 -79.97 -26.96 -26.96 26.96 -26.96 0c-149.88,0 -301.59,-143.02 -455.12,-428.62l-106.93 -481.63c24.22,-125.2 50.72,-187.81 80.42,-187.81l-26.96 -133.88c156.28,-352.31 352.77,-566.63 589.02,-642.48l26.96 0zm1486.01 -14.62l0 26.96 26.96 -26.96 26.5 0c227.11,46.61 390.7,155.36 491.68,326.72 86.37,180.95 140.74,381.1 163.14,599.52l-28.34 26.96 0 27.88 28.34 81.79c-93.68,544.69 -348.2,816.58 -763.12,816.58l-54.83 0c-175.01,-60.78 -338.15,-196.49 -489.86,-408.06l0 -136.63 -54.83 0 -26.96 -244.93c0,-632.88 217.97,-996.16 653.44,-1089.83l27.88 0zm-109.67 163.13c-191.01,149.88 -308.9,322.61 -353.23,518.18l26.51 26.97 -26.51 163.13c46.16,526.86 245.84,790.07 598.16,790.07l164.5 -136.63c90.48,-111.5 153.54,-275.09 190.55,-489.85l0 -271.89c0,-319.41 -154.45,-519.56 -463.35,-599.98l-26.96 26.96 -27.88 0 -81.79 -26.96z"/>
 </g>
</svg>
