<?xml version="1.0" encoding="UTF-8"?>
<!DOCTYPE svg PUBLIC "-//W3C//DTD SVG 1.1//EN" "http://www.w3.org/Graphics/SVG/1.1/DTD/svg11.dtd">
<!-- Creator: CorelDRAW 2017 -->
<svg xmlns="http://www.w3.org/2000/svg" xml:space="preserve" width="152.135mm" height="30.9562mm" version="1.1" style="shape-rendering:geometricPrecision; text-rendering:geometricPrecision; image-rendering:optimizeQuality; fill-rule:evenodd; clip-rule:evenodd"
viewBox="0 0 15213.52 3095.62"
 xmlns:xlink="http://www.w3.org/1999/xlink">
 <defs>
  <style type="text/css">
   <![CDATA[
    .fil0 {fill:#D57529}
   ]]>
  </style>
 </defs>
 <g id="Capa_x0020_1">
  <metadata id="CorelCorpID_0Corel-Layer"/>
  <path class="fil0" d="M1541.98 469.5c0,40.58 -15.21,76.08 -45.64,106.5 -30.44,30.43 -65.94,45.64 -106.5,45.64l-311.9 0 0 1704c0,43.11 -15.21,79.88 -45.64,110.31 -30.43,30.42 -67.19,45.63 -110.3,45.63l-308.09 0c-43.1,0 -79.87,-15.21 -110.3,-45.63 -30.43,-30.43 -45.65,-67.2 -45.65,-110.31l0 -1704 -308.08 0c-43.11,0 -79.88,-15.21 -110.3,-45.64 -30.44,-30.42 -45.65,-65.92 -45.65,-106.5l0 -311.89c0,-43.11 15.21,-79.88 45.65,-110.3 30.42,-30.43 67.19,-45.65 110.3,-45.65l1239.96 0c40.56,0 76.06,15.22 106.5,45.65 30.43,30.42 45.64,67.19 45.64,110.3l0 311.89zm1612.71 1856.14c0,43.11 -14.58,79.88 -43.74,110.31 -29.16,30.42 -65.29,45.63 -108.41,45.63l-311.88 0c-43.12,0 -79.88,-15.21 -110.31,-45.63 -30.42,-30.43 -45.64,-67.2 -45.64,-110.31l0 -619.98c0,-43.11 -14.58,-79.24 -43.74,-108.4 -29.16,-29.16 -65.29,-43.74 -108.41,-43.74l-155.94 0 0 772.12c0,43.11 -15.21,79.88 -45.64,110.31 -30.43,30.42 -67.2,45.63 -110.3,45.63l-308.1 0c-43.1,0 -79.87,-15.21 -110.3,-45.63 -30.43,-30.43 -45.64,-67.2 -45.64,-110.31l0 -1548.05c0,-213 75.44,-395.57 226.31,-547.71 150.88,-152.15 334.08,-228.22 549.61,-228.22 213,0 394.95,76.07 545.82,228.22 150.87,152.14 226.31,334.71 226.31,547.71 0,172.43 -50.72,327.1 -152.15,464.03 101.43,136.94 152.15,291.61 152.15,464.04l0 619.98zm-619.98 -1548.05c0,-43.11 -14.58,-79.88 -43.74,-110.3 -29.16,-30.43 -65.29,-45.65 -108.41,-45.65 -43.1,0 -79.87,15.22 -110.3,45.65 -30.43,30.42 -45.64,67.19 -45.64,110.3l0 155.95 155.94 0c43.12,0 79.25,-15.22 108.41,-45.65 29.16,-30.43 43.74,-67.19 43.74,-110.3zm1810.49 -387.96l-342.32 235.82 133.13 368.94 -346.13 -224.41 -342.31 232.02 129.32 -376.55 -346.13 -224.41 426 -3.81 129.32 -376.55 133.12 372.75 426 -3.8zm-247.23 1936.01c0,43.11 -15.21,79.88 -45.64,110.31 -30.43,30.42 -67.2,45.63 -110.3,45.63l-308.09 0c-43.11,0 -79.87,-15.21 -110.3,-45.63 -30.44,-30.43 -45.65,-67.2 -45.65,-110.31l0 -1293.21 311.89 -232.02 308.09 220.61 0 1304.62zm1825.72 -619.98c0,215.54 -75.44,398.74 -226.32,549.61 -150.87,150.88 -332.81,226.31 -545.81,226.31l-619.98 0c-43.11,0 -79.88,-15.21 -110.3,-45.63 -30.43,-30.43 -45.65,-67.2 -45.65,-110.31l0 -2168.03c0,-43.11 15.22,-79.88 45.65,-110.3 30.42,-30.43 67.19,-45.65 110.3,-45.65l619.98 0c213,0 394.94,76.07 545.81,228.22 150.88,152.14 226.32,334.71 226.32,547.71 0,172.43 -50.72,327.1 -152.15,464.03 101.43,136.94 152.15,291.61 152.15,464.04zm-619.98 -928.07c0,-43.11 -14.59,-79.88 -43.75,-110.3 -29.16,-30.43 -65.29,-45.65 -108.4,-45.65l-155.95 0 0 311.9 155.95 0c43.11,0 79.24,-15.22 108.4,-45.65 29.16,-30.43 43.75,-67.19 43.75,-110.3zm0 928.07c0,-43.11 -14.59,-79.24 -43.75,-108.4 -29.16,-29.16 -65.29,-43.74 -108.4,-43.74l-155.95 0 0 308.08 155.95 0c43.11,0 79.24,-15.21 108.4,-45.63 29.16,-30.43 43.75,-67.2 43.75,-110.31zm2259.31 0c0,215.54 -75.44,398.74 -226.31,549.61 -150.88,150.88 -332.82,226.31 -545.82,226.31 -215.53,0 -398.74,-75.43 -549.61,-226.31 -150.88,-150.87 -226.31,-334.07 -226.31,-549.61l0 -1548.05c0,-43.11 15.21,-79.88 45.64,-110.3 30.43,-30.43 67.2,-45.65 110.3,-45.65l308.09 0c43.11,0 79.88,15.22 110.31,45.65 30.42,30.42 45.64,67.19 45.64,110.3l0 1548.05c0,43.11 15.21,79.88 45.64,110.31 30.43,30.42 67.2,45.63 110.3,45.63 43.11,0 79.24,-15.21 108.4,-45.63 29.17,-30.43 43.75,-67.2 43.75,-110.31l0 -1548.05c0,-43.11 15.21,-79.88 45.64,-110.3 30.43,-30.43 67.2,-45.65 110.3,-45.65l311.89 0c40.57,0 76.07,15.22 106.5,45.65 30.44,30.42 45.65,67.19 45.65,110.3l0 1548.05zm1669.76 -1236.16c0,40.58 -15.21,76.08 -45.64,106.5 -30.43,30.43 -65.93,45.64 -106.5,45.64l-311.89 0 0 1704c0,43.11 -15.22,79.88 -45.65,110.31 -30.42,30.42 -67.19,45.63 -110.3,45.63l-308.08 0c-43.11,0 -79.88,-15.21 -110.31,-45.63 -30.42,-30.43 -45.64,-67.2 -45.64,-110.31l0 -1704 -308.09 0c-43.11,0 -79.87,-15.21 -110.3,-45.64 -30.43,-30.42 -45.65,-65.92 -45.65,-106.5l0 -311.89c0,-43.11 15.22,-79.88 45.65,-110.3 30.43,-30.43 67.19,-45.65 110.3,-45.65l1239.96 0c40.57,0 76.07,15.22 106.5,45.65 30.43,30.42 45.64,67.19 45.64,110.3l0 311.89zm1335.06 760.71c0,213 -76.08,394.94 -228.22,545.81 -152.14,150.88 -334.71,226.32 -547.71,226.32 -213,0 -394.94,-75.44 -545.81,-226.32 -150.88,-150.87 -226.32,-332.81 -226.32,-545.81 0,-215.53 75.44,-398.73 226.32,-549.61 150.87,-150.87 332.81,-226.31 545.81,-226.31 213,0 395.57,75.44 547.71,226.31 152.14,150.88 228.22,334.08 228.22,549.61zm-155.95 0c0,-159.75 -53.25,-297.94 -159.75,-414.58l-117.91 357.53 228.21 300.48c32.97,-78.6 49.45,-159.75 49.45,-243.43zm-213 -467.83c-116.65,-101.43 -252.3,-152.15 -406.98,-152.15 -88.75,0 -172.43,17.75 -251.03,53.25l304.28 224.41 353.73 -125.51zm129.32 775.92l-376.55 0 -216.8 308.09c20.28,2.54 39.3,3.81 57.05,3.81 238.35,0 417.12,-103.97 536.3,-311.9zm-844.39 -464.03l0 -376.56c-207.92,119.18 -311.89,296.68 -311.89,532.5 0,20.29 1.27,41.85 3.8,64.66l308.09 -220.6zm178.77 760.71l-114.11 -357.54 -361.34 -110.3c27.89,116.65 84.95,217.44 171.16,302.38 86.21,84.95 187.65,140.1 304.29,165.46zm3362.35 251.04l-315.7 232.01 -304.28 -220.6 0 -543.91 0 0 -311.9 0 0 772.12c0,43.11 -15.21,79.88 -45.64,110.31 -30.43,30.42 -67.19,45.63 -110.31,45.63l-308.08 0c-43.11,0 -79.88,-15.21 -110.3,-45.63 -30.43,-30.43 -45.65,-67.2 -45.65,-110.31l0 -1548.05c0,-213 75.44,-395.57 226.95,-547.71 150.87,-152.15 334.71,-228.22 550.88,-228.22 213.63,0 396.21,76.07 547.08,228.22 151.51,152.14 226.95,334.71 226.95,547.71l0 3.8c0,2.54 0,6.34 0,11.42l0 1293.21zm247.23 631.39l-426 3.8 -129.32 372.75 -133.13 -368.95 -425.99 0 342.31 -232.01 -136.92 -372.75 346.12 228.21 342.32 -232.01 -125.52 372.75 346.13 228.21zm-867.21 -1783.87l0 -155.95c0,-43.11 -15.22,-79.88 -45.65,-110.3 -30.42,-30.43 -67.19,-45.65 -110.3,-45.65 -43.11,0 -79.88,15.22 -110.3,45.65 -30.43,30.42 -45.65,67.19 -45.65,110.3l0 155.95 311.9 0zm1376.88 1342.66c0,55.78 -20.28,103.96 -60.86,144.53 -40.57,40.57 -88.75,60.85 -144.53,60.85l-209.2 0c-55.78,0 -103.96,-20.28 -144.53,-60.85 -40.57,-40.57 -60.86,-88.75 -60.86,-144.53l0 -209.2c0,-55.78 20.29,-103.96 60.86,-144.53 40.57,-40.58 88.75,-60.87 144.53,-60.87l209.2 0c55.78,0 103.96,20.29 144.53,60.87 40.58,40.57 60.86,88.75 60.86,144.53l0 209.2zm718.88 0c0,55.78 -20.29,103.96 -60.86,144.53 -40.57,40.57 -88.75,60.85 -144.53,60.85l-209.2 0c-55.78,0 -103.96,-20.28 -144.53,-60.85 -40.57,-40.57 -60.86,-88.75 -60.86,-144.53l0 -209.2c0,-55.78 20.29,-103.96 60.86,-144.53 40.57,-40.58 88.75,-60.87 144.53,-60.87l209.2 0c55.78,0 103.96,20.29 144.53,60.87 40.57,40.57 60.86,88.75 60.86,144.53l0 209.2zm718.87 0c0,55.78 -20.28,103.96 -60.85,144.53 -40.58,40.57 -88.75,60.85 -144.54,60.85l-209.19 0c-55.79,0 -103.96,-20.28 -144.54,-60.85 -40.57,-40.57 -60.86,-88.75 -60.86,-144.53l0 -209.2c0,-55.78 20.29,-103.96 60.86,-144.53 40.58,-40.58 88.75,-60.87 144.54,-60.87l209.19 0c55.79,0 103.96,20.29 144.54,60.87 40.57,40.57 60.85,88.75 60.85,144.53l0 209.2z"/>
 </g>
</svg>
