<?xml version="1.0" encoding="UTF-8"?>
<!DOCTYPE svg PUBLIC "-//W3C//DTD SVG 1.1//EN" "http://www.w3.org/Graphics/SVG/1.1/DTD/svg11.dtd">
<!-- Creator: CorelDRAW 2017 -->
<svg xmlns="http://www.w3.org/2000/svg" xml:space="preserve" width="136.525mm" height="23.8124mm" version="1.1" style="shape-rendering:geometricPrecision; text-rendering:geometricPrecision; image-rendering:optimizeQuality; fill-rule:evenodd; clip-rule:evenodd"
viewBox="0 0 13652.48 2381.24"
 xmlns:xlink="http://www.w3.org/1999/xlink">
 <defs>
  <style type="text/css">
   <![CDATA[
    .fil0 {fill:#00A859}
   ]]>
  </style>
 </defs>
 <g id="Capa_x0020_1">
  <metadata id="CorelCorpID_0Corel-Layer"/>
  <g id="_2214373216720">
   <path class="fil0" d="M1620.61 104.56c43.64,21.82 96.21,72.9 157.7,153.24 61.49,80.34 101.17,146.29 119.02,197.87 -41.66,-45.62 -66.45,-68.43 -74.39,-68.43 0,1.97 0,2.97 0,2.97 0,3.96 36.7,73.4 110.1,208.29 73.39,134.88 113.06,232.08 119.02,291.6l26.77 32.73c29.76,83.3 61.49,211.25 95.22,383.83 -9.92,-7.93 -16.86,-11.9 -20.82,-11.9 -7.95,0 -11.91,7.93 -11.91,23.8 0,11.9 14.88,86.29 44.63,223.16 29.76,136.88 44.63,250.94 44.63,342.19 0,47.61 -3.97,92.23 -11.9,133.9 -1.98,-19.84 -11.9,-29.76 -29.75,-29.76 -21.82,0 -50.58,12.89 -86.29,38.68 -35.7,25.79 -56.54,46.62 -62.49,62.49 -178.52,113.07 -363.01,187.45 -553.44,223.16 17.85,-13.89 26.78,-22.81 26.78,-26.78 0,-1.98 -0.99,-2.98 -2.98,-2.98 -1.97,0 -19.83,4.96 -53.56,14.88 -33.72,9.92 -55.54,12.89 -65.46,8.93 3.97,-45.62 1,-106.13 -8.92,-181.51 -11.91,-93.23 -17.85,-152.74 -17.85,-178.52 23.8,-5.96 35.7,-26.79 35.7,-62.49 0,-69.43 -19.84,-131.92 -59.5,-187.46l-196.39 23.81c21.82,3.96 44.63,8.92 68.43,14.88 -11.9,1.97 -42.65,7.93 -92.23,17.85 -1.99,3.96 -24.8,37.68 -68.44,101.16 -39.68,53.56 -59.52,90.26 -59.52,110.1 0,15.86 11.91,20.82 35.72,14.88 -21.83,47.6 -44.64,71.41 -68.44,71.41 -5.96,0 -10.92,-1.99 -14.88,-5.96 -31.74,19.84 -75.38,59.52 -130.92,119.02 -61.49,65.46 -106.13,109.1 -133.9,130.93l-11.9 -20.83c31.74,-35.7 47.6,-52.57 47.6,-50.58 0,0 -15.86,-9.92 -47.6,-29.76 -43.65,47.61 -117.03,111.09 -220.19,190.43 11.91,-11.91 17.86,-24.8 17.86,-38.68 0,-33.73 -67.94,-76.37 -203.83,-127.95 -135.87,-51.57 -202.82,-93.23 -200.84,-124.97 23.8,13.89 38.68,20.83 44.63,20.83 3.97,-1.98 5.96,-2.98 5.96,-2.98 0,-13.88 -35.72,-51.57 -107.13,-113.06 0,-27.77 4.96,-46.62 14.88,-56.54 31.74,-31.74 67.45,-79.35 107.11,-142.82 -3.96,21.82 -5.94,34.71 -5.94,38.68 0,1.98 0,2.98 0,2.98 -1.99,0 10.9,-18.35 38.68,-55.06 27.77,-36.69 54.55,-55.04 80.34,-55.04 11.9,0 23.8,3.97 35.7,11.9 65.47,-27.77 90.27,-41.66 74.39,-41.66 3.97,0 7.93,6.95 11.9,20.84 15.87,-17.85 23.8,-33.73 23.8,-47.61 0,-25.79 -53.55,-39.68 -160.67,-41.67 13.89,-29.74 29.26,-59.5 46.12,-89.26 16.86,-29.75 36.2,-52.56 58.02,-68.44 -9.92,15.88 -9.92,23.82 0,23.82 17.85,-15.88 55.55,-30.75 113.08,-44.64 49.58,-11.91 83.3,-31.73 101.15,-59.51 -15.86,-11.9 -44.62,-22.81 -86.29,-32.73 -47.6,-11.9 -77.35,-20.82 -89.26,-26.78 47.61,-55.55 71.41,-91.25 71.41,-107.12 0,-5.95 -3.96,-7.93 -11.89,-5.95 128.94,-243.99 193.4,-373.92 193.4,-389.79 0,0 0,0 0,0 -7.93,0 -39.68,42.65 -95.22,127.95 7.94,-39.68 28.27,-96.21 61,-169.6 32.73,-73.4 53.06,-129.93 61,-169.61 23.81,-15.87 42.65,-40.66 56.54,-74.38 7.93,-29.76 15.86,-59.52 23.8,-89.27l-47.61 47.6c31.74,-73.39 59.51,-163.64 83.31,-270.76l11.91 41.65c3.96,-19.84 7.43,-39.17 10.41,-58.01 2.98,-18.86 4.47,-29.26 4.47,-31.25 0,-3.97 -1,-5.95 -2.98,-5.95 0,0 -15.87,4.95 -47.61,14.87 19.84,-19.83 66.45,-30.74 139.85,-32.72 73.4,-1.99 122,-22.81 145.79,-62.49 -9.91,0 -25.78,2.97 -47.59,8.92 -3.98,1.99 -5.96,-2.97 -5.96,-14.87 198.36,-43.65 374.91,-73.39 529.64,-89.27 5.95,19.84 25.79,36.7 59.5,50.58 33.73,13.9 53.56,30.75 59.52,50.59zm-205.31 2.97c-63.48,35.71 -134.89,53.57 -214.24,53.57 47.61,-15.88 119.02,-33.73 214.24,-53.57zm407.64 708.17c1.98,35.71 11.9,82.33 29.75,139.85 21.83,69.43 35.71,116.05 41.67,139.86 9.91,11.89 23.8,40.66 41.65,86.29 13.88,37.68 32.73,63.47 56.53,77.35 -49.58,-202.33 -106.13,-350.11 -169.6,-443.35zm205.31 523.7c0,53.55 11.9,93.22 35.7,119.02 1.99,-11.91 -1.97,-29.27 -11.89,-52.09 -9.92,-22.8 -14.88,-39.16 -14.88,-49.08 0,-11.91 4.96,-24.8 14.88,-38.69 -7.94,1.98 -15.88,8.93 -23.81,20.84zm-461.2 223.16c-43.65,7.93 -85.3,14.87 -124.98,20.82 51.59,5.95 93.24,-0.99 124.98,-20.82zm-74.39 -1496.68c-69.43,9.92 -138.85,18.84 -208.29,26.78 -81.33,11.9 -148.76,27.76 -202.32,47.6 -7.95,35.71 -41.67,133.9 -101.17,294.58 -47.61,132.91 -75.38,232.09 -83.32,297.56 29.76,-75.39 47.61,-113.08 53.56,-113.08 1.99,1.99 2.97,3.97 2.97,5.95 0,27.77 -16.85,92.25 -50.58,193.41 -33.72,101.16 -59.5,156.71 -77.36,166.63 3.96,37.69 -13.89,76.37 -53.56,116.04 -45.62,43.64 -71.41,78.36 -77.36,104.15 21.82,0 111.08,17.85 267.8,53.55 -117.04,122.99 -204.33,184.49 -261.85,184.49 -21.82,0 -40.66,-5.96 -56.54,-17.86 -23.8,5.95 -46.61,12.9 -68.44,20.83 -1.97,0 -9.91,17.85 -23.8,53.56 69.43,15.87 135.89,26.77 199.37,32.73 15.86,0 38.68,14.88 68.42,44.63 -71.41,75.38 -141.82,113.07 -211.25,113.07 -9.92,0 -29.75,0 -59.51,0 -27.77,-1.99 -52.57,-2.97 -74.38,-2.97l-127.96 181.5c-5.94,9.92 -8.92,19.84 -8.92,29.75 0,25.79 37.68,60.51 113.07,104.15 87.28,49.59 138.86,87.27 154.72,113.07 15.87,0 39.18,10.91 69.93,32.72 30.74,21.83 56.04,29.76 75.88,23.81 15.86,-35.7 92.24,-140.84 229.11,-315.4 124.97,-160.68 185.47,-248.96 181.5,-264.82 43.64,-1.99 124.97,-24.8 243.99,-68.44 3.97,5.96 7.93,12.89 11.9,20.82 0,-3.96 -25.78,6.95 -77.35,32.74 89.26,-15.87 137.86,-25.79 145.79,-29.75 35.71,-13.89 67.45,-43.65 95.21,-89.26 27.77,9.9 48.61,51.57 62.49,124.96 23.8,1.99 35.71,12.9 35.71,32.74 0,3.96 -0.99,8.92 -2.98,14.86 0,7.95 0,12.91 0,14.88 0,17.86 9.92,26.79 29.76,26.79 7.93,17.85 9.92,75.38 5.95,172.58 -3.97,95.21 -8.92,152.74 -14.88,172.58 23.81,13.88 35.7,29.75 35.7,47.61 0,15.86 -11.89,32.72 -35.7,50.58l2.97 32.72c39.68,-33.72 67.45,-50.58 83.32,-50.58 3.97,0 5.96,1 5.96,2.98 0,7.93 -6.95,20.83 -20.84,38.68 29.76,-17.85 79.35,-38.68 148.78,-62.49 11.9,-11.89 55.54,-32.73 130.91,-62.48 61.51,-25.3 95.22,-53.07 101.17,-82.81 3.97,-13.9 5.96,-34.72 5.96,-62.49 0,-107.12 -15.38,-265.82 -46.12,-476.58 -30.75,-211.25 -55.05,-322.34 -72.9,-334.25 -37.69,-136.87 -65.46,-234.57 -83.32,-294.07 -45.62,-134.89 -89.26,-223.66 -130.92,-267.3l2.98 53.55c-55.54,-115.04 -123.98,-227.12 -205.31,-336.22 5.95,-27.77 -15.88,-63.48 -65.46,-107.13 -27.77,9.92 -48.6,-3.96 -62.49,-41.65zm-235.06 663.53c3.96,57.53 6.93,115.06 8.92,172.58 7.93,103.15 17.85,159.69 29.76,169.61 -1.99,13.89 -8.43,29.75 -19.34,47.61 -10.91,17.85 -16.37,31.73 -16.37,41.65 0,13.89 10.91,28.77 32.74,44.64 -3.98,-13.9 0,-21.83 11.89,-23.8 11.9,-1.99 23.81,-3.98 35.72,-5.96 19.82,3.97 53.55,-0.5 101.15,-13.4 47.61,-12.89 67.45,-27.27 59.52,-43.13 31.73,-25.79 55.54,-38.68 71.41,-38.68l-2.97 -122c-23.81,-35.7 -58.52,-114.06 -104.15,-235.07 -31.74,-87.27 -61.49,-130.92 -89.26,-130.92 -31.74,0 -71.42,45.62 -119.02,136.87zm2201.86 970.01c-11.89,43.65 -20.82,65.46 -26.77,65.46 -5.96,0 -12.4,-18.84 -19.34,-56.53 -6.95,-37.69 -12.4,-59.5 -16.37,-65.46 -31.74,35.71 -68.43,116.05 -110.1,241.02 -29.74,89.26 -59.5,178.52 -89.26,267.8 -15.87,-1.99 -40.16,13.38 -72.9,46.11 -32.73,32.73 -49.09,61 -49.09,84.8 0,9.92 2.97,16.87 8.93,20.83 -101.17,0 -141.84,2.98 -122.01,8.93 3.97,7.93 5.96,13.88 5.96,17.85 0,5.95 -15.87,9.92 -47.61,11.91 -11.91,1.97 -17.85,5.94 -17.85,11.89 0,7.94 3.97,17.85 11.9,29.76 -77.37,-21.82 -193.4,-53.56 -348.13,-95.22 13.88,-7.93 20.83,-16.86 20.83,-26.77 0,-13.9 -27.77,-27.78 -83.32,-41.66 -65.46,-15.87 -102.15,-25.79 -110.09,-29.76 17.85,-15.86 32.73,-47.61 44.63,-95.22 11.9,-47.6 30.74,-79.34 56.53,-95.21 39.68,-69.43 82.33,-130.92 127.95,-184.48 35.71,-41.65 53.56,-63.48 53.56,-65.46 0,-3.97 -36.69,-11.9 -110.09,-23.8l116.04 -315.4c105.14,-53.56 157.7,-79.35 157.7,-77.37 0,-1.98 -36.7,-4.96 -110.09,-8.92 9.92,-75.39 19.84,-151.76 29.76,-229.11 21.81,-89.28 68.43,-133.9 139.84,-133.9 -15.86,9.91 -24.79,17.85 -26.78,23.8 1.99,1.98 4.96,2.97 8.93,2.97 41.65,0 69.43,-17.85 83.32,-53.56 -7.94,-1.98 -16.87,-2.97 -26.79,-2.97 -11.9,0 -30.24,1.98 -55.04,5.94 -24.8,3.98 -43.15,5.96 -55.05,5.96 -23.81,0 -43.64,-5.96 -59.51,-17.85 7.93,-57.53 26.78,-141.83 56.54,-252.92 13.88,19.84 25.79,29.76 35.7,29.76 15.87,0 26.78,-70.43 32.74,-211.26 5.94,-168.62 25.78,-288.63 59.5,-360.04 3.97,1.99 27.77,13.88 71.41,35.71 19.84,11.9 29.76,9.92 29.76,-5.95 0,-5.96 -2.97,-17.86 -8.93,-35.72 7.93,3.98 14.88,5.96 20.84,5.96 33.71,0 52.55,-28.77 56.53,-86.29 73.39,25.79 110.09,30.75 110.09,14.88 -1.99,-5.96 -6.95,-11.9 -14.88,-17.85 51.58,1.97 119.02,16.85 202.33,44.14 97.2,29.74 164.65,47.6 202.34,53.55l-53.56 20.33c59.51,-7.43 118.03,32.73 175.56,121.5 39.66,72.91 79.34,144.82 119.02,215.73l-47.61 -8.94c15.86,79.36 51.57,179.53 107.11,300.54 45.63,97.19 92.24,194.39 139.85,291.6 71.41,-49.6 133.9,-84.32 187.46,-104.15 -59.51,0 -113.08,-31.74 -160.68,-95.22 13.88,-11.9 20.83,-31.73 20.83,-59.5 0,-35.71 -4.96,-53.56 -14.88,-53.56 -3.97,0 -6.94,4.96 -8.92,14.87 -9.92,-59.51 -6.95,-104.14 8.92,-133.89l2.97 0c3.98,51.57 11.91,91.25 23.82,119.02 15.86,-31.74 24.78,-73.9 26.77,-126.47 1.99,-52.56 8.93,-89.76 20.83,-111.57 17.85,-39.68 57.53,-72.41 119.02,-98.2 -55.55,-29.75 -83.32,-74.38 -83.32,-133.9 0,-21.81 16.87,-91.25 50.58,-208.28 41.67,33.73 73.4,50.58 95.23,50.58 19.83,0 34.7,-15.86 44.62,-47.6 17.85,-49.59 29.76,-79.35 35.71,-89.27 19.84,37.69 76.38,69.43 169.6,95.22 117.04,31.73 192.42,59.51 226.14,83.32 77.37,47.6 116.05,120.01 116.05,217.2 0,43.64 -6.95,93.24 -20.83,148.78 23.8,-3.97 35.71,14.88 35.71,56.53 0,87.29 -59.52,285.66 -178.53,595.11 -67.45,172.58 -134.9,345.14 -202.34,517.72 -9.92,-5.94 -19.84,-8.92 -29.76,-8.92 -27.77,0 -58.51,52.57 -92.23,157.7l56.53 -53.55c-35.71,135.38 -85.29,243.49 -148.77,322.84 -1.98,1.98 -27.77,24.3 -77.37,65.95 -35.7,31.75 -53.56,56.04 -53.56,71.91 0,7.93 2.98,13.88 8.93,17.85 -35.71,1.99 -71.41,3.98 -107.12,5.95 -41.65,7.93 -62.48,34.72 -62.48,80.84l-62.49 0c-3.97,-22.81 -33.72,-42.15 -89.26,-58.51 -55.55,-16.37 -105.14,-24.8 -148.78,-24.8 -17.85,0 -30.75,0.98 -38.68,2.97 3.97,-17.85 -0.99,-42.15 -14.88,-72.9 -13.88,-30.74 -27.77,-46.12 -41.65,-46.12 -11.91,0 -19.84,16.86 -23.81,50.58 -33.72,-53.55 -66.45,-142.82 -98.19,-267.79 -31.74,-124.97 -63.47,-212.25 -95.22,-261.85zm-196.38 -1541.3c-9.91,25.78 -17.85,38.69 -23.81,38.69 -3.96,-1.99 -6.93,-4.96 -8.92,-8.94 -75.38,240.03 -113.07,403.68 -113.07,490.96 17.85,-27.76 47.61,-113.57 89.27,-257.37 41.66,-143.82 60.5,-231.6 56.53,-263.34zm342.19 104.14c9.92,142.83 69.42,319.37 178.52,529.64 13.89,1.99 22.82,8.92 26.79,20.83 3.96,17.85 10.91,29.75 20.83,35.7 -11.91,-65.46 -43.64,-168.61 -95.23,-309.45 -59.5,-160.67 -103.14,-252.91 -130.91,-276.72zm-225.65 1100.94l-36.19 71.41c0,1.98 0,5.94 0,11.9 0,19.84 -20.34,83.32 -61.01,190.43 -40.66,107.12 -61,171.58 -61,193.41 33.73,-61.49 66.46,-123.98 98.2,-187.46 45.62,-97.2 68.43,-172.58 68.43,-226.14 0,-19.84 -2.97,-37.69 -8.43,-53.55zm-440.87 17.85c-49.58,117.03 -74.38,198.36 -74.38,243.99 0,7.93 0.99,13.89 2.97,17.85 7.94,-25.79 24.8,-58.52 50.59,-98.2 19.84,-33.71 29.75,-65.45 29.75,-95.21 0,-19.83 -2.98,-42.65 -8.93,-68.43zm1472.87 238.04c-51.57,93.24 -123.98,236.06 -217.2,428.47 3.96,5.95 5.94,12.9 5.94,20.83 0,7.93 -3.97,20.33 -11.9,37.19 -7.94,16.87 -11.9,29.26 -11.9,37.19 27.78,-39.67 72.4,-121 133.89,-243.99 69.44,-138.86 104.14,-227.12 104.14,-264.81 0,-7.93 -0.98,-12.89 -2.97,-14.88zm-836.11 -315.4c19.84,11.89 45.13,50.57 75.87,116.04 30.75,65.46 46.13,108.11 46.13,127.95 0,3.96 -0.99,5.95 -2.98,5.95 -7.93,0 -29.76,-30.75 -65.46,-92.24 33.72,81.33 66.45,161.66 98.19,241.02 51.58,126.95 73.4,203.32 65.46,229.11 55.54,-17.86 84.31,39.66 86.29,172.58 41.66,7.93 99.68,28.26 174.07,60.99 74.39,32.73 131.42,54.05 171.08,63.97 31.75,-41.65 45.63,-78.35 41.67,-110.09 71.41,-136.87 173.56,-343.17 306.48,-618.9 17.85,-37.69 39.66,-109.1 65.45,-214.23 21.82,-93.24 45.62,-161.67 71.41,-205.31 47.61,-83.32 85.8,-228.13 114.56,-434.42 28.76,-206.31 46.61,-315.42 53.56,-327.31 6.94,-11.91 10.42,-21.82 10.42,-29.76 0,-31.74 -22.82,-46.61 -68.44,-44.63 -51.57,-59.51 -130.93,-92.24 -238.04,-98.19 41.65,15.87 95.22,43.64 160.67,83.31 -140.83,-25.79 -211.26,-53.56 -211.26,-83.31 0,-7.93 7.94,-14.88 23.81,-20.84l-65.46 -26.77c-23.81,35.71 -38.69,100.17 -44.64,193.41 121.01,17.85 181.51,33.72 181.51,47.61 0,7.93 -22.81,21.81 -68.43,41.65 -65.47,27.77 -114.06,51.58 -145.81,71.41l-89.26 377.89c11.9,1.99 22.81,2.97 32.73,2.97 17.85,0 40.66,-3.96 68.44,-11.89 27.77,-7.93 48.59,-11.91 62.49,-11.91 19.82,0 37.68,6.95 53.55,20.83 -39.67,3.97 -59.51,9.92 -59.51,17.85 0,9.92 25.78,15.87 77.37,17.85 -130.93,89.27 -236.06,146.8 -315.41,172.58 3.97,41.67 -12.4,100.18 -49.09,175.56 -36.7,75.38 -71.91,124.98 -105.63,148.78 -73.4,-126.96 -152.75,-319.38 -238.04,-577.25 -89.26,-273.74 -164.65,-470.13 -226.14,-589.14 -31.74,-9.92 -89.26,-18.86 -172.58,-26.79 -71.41,-7.93 -131.91,-22.81 -181.51,-44.64 -13.88,-27.76 -45.62,-39.66 -95.21,-35.7 -1.98,11.9 -45.62,240.03 -130.93,684.37 79.35,65.46 147.79,98.19 205.32,98.19 1.98,0 2.97,0 2.97,0l0 0c-19.84,0 -94.22,34.71 -223.16,104.14 -1.99,5.95 -8.93,41.66 -20.83,107.12 -7.93,43.64 -21.83,77.36 -41.65,101.17 35.7,1.97 71.41,2.97 107.11,2.97 63.48,3.96 95.21,9.92 95.21,17.86 0,3.96 -9.92,9.91 -29.74,17.85 9.92,3.96 14.87,8.92 14.87,14.88 0,27.77 -81.34,56.53 -244,86.29 -3.96,35.7 -19.82,96.21 -47.6,181.5 -23.81,75.38 -37.69,134.88 -41.66,178.53 39.68,23.8 79.35,43.64 119.02,59.51 27.77,11.9 41.67,17.85 41.67,17.85 0,1.99 -18.86,8.93 -56.55,20.83 -55.54,17.85 -115.05,40.66 -178.52,68.43 -17.86,5.96 -33.23,42.66 -46.13,110.1 -12.89,67.44 -32.23,107.12 -58.01,119.01 148.77,87.29 277.7,139.86 386.81,157.72 21.82,3.96 70.42,-123.99 145.8,-383.85 95.21,-321.35 150.76,-502.86 166.62,-544.51 31.75,-77.37 60.51,-116.05 86.29,-116.05 17.85,0 53.56,32.73 107.13,98.19 17.85,21.82 31.73,25.79 41.65,11.91zm1053.33 -119.02c-9.92,-43.65 -14.88,-68.44 -14.88,-74.4 0,-17.85 16.36,-99.18 49.1,-243.99 32.73,-144.8 55.04,-232.08 66.95,-261.84 0,93.24 -6.95,194.41 -20.84,303.51 -19.83,150.75 -46.61,242.99 -80.33,276.72zm1455.01 -1059.29c-17.85,0 0.99,10.92 56.53,32.74 67.45,25.78 102.17,46.62 104.15,62.49l14.88 -47.62c9.92,73.4 3.97,242.02 -17.86,505.84 -3.96,-23.8 -8.92,-35.71 -14.88,-35.71 -9.92,0 -20.32,47.11 -31.23,141.35 -10.92,94.22 -14.39,154.22 -10.42,180.01 11.91,-11.91 20.83,-33.23 26.78,-63.98 5.95,-30.74 10.91,-50.08 14.87,-58.02 5.96,111.09 -4.96,214.24 -32.73,309.46 -11.89,-11.91 -19.83,-17.86 -23.8,-17.86 -9.92,0 -11.9,18.84 -5.94,56.54 7.93,47.61 11.89,71.41 11.89,71.41 -21.81,224.15 -56.53,405.66 -104.14,544.52l-11.9 -29.76c-7.93,17.85 -21.82,57.53 -41.66,119.02 -25.79,75.37 -38.68,125.96 -38.68,151.75 0,9.91 1.99,14.87 5.95,14.87 5.96,0 15.88,-6.93 29.76,-20.82 -15.87,59.51 -44.63,144.8 -86.29,255.89 1.98,-11.9 3.97,-26.78 5.94,-44.64l0 0c-1.97,-3.96 -2.97,-7.93 -2.97,-11.89 -1.97,0 -5.95,4.96 -11.89,14.88 -11.91,13.88 -21.83,24.79 -29.76,32.72 -69.43,0 -115.05,-5.95 -136.88,-17.85 -9.92,25.79 -28.76,63.47 -56.53,113.07l5.95 -56.53c-7.93,33.72 -33.72,50.58 -77.86,50.58 -9.92,0 -31.74,-1 -65.46,-2.98 -26.29,-3.96 -45.13,-4.95 -57.03,-2.98 -15.87,-5.94 -72.9,-28.26 -170.59,-65.95 -67.45,-26.28 -120.51,-53.07 -158.2,-80.84 -40.17,9.92 -60.01,-5.45 -60.01,-45.12 0,-20.33 6.95,-52.07 20.83,-96.21 13.89,-43.64 20.83,-68.93 20.83,-74.89 0,-3.96 -0.99,-6.93 -2.98,-8.92l-38.68 56.53c1.99,-19.83 15.87,-92.23 41.66,-217.2 -1.98,33.72 -2.98,56.53 -2.98,68.43 1.99,5.95 2.98,9.91 2.98,11.9 5.95,0 19.83,-42.65 41.16,-127.94 21.32,-85.3 34.22,-130.93 38.19,-136.87 101.66,-5.95 152.74,-10.91 152.74,-14.88 0,-1.99 -13.89,-8.94 -41.66,-20.83 -37.68,-15.87 -67.44,-32.73 -89.27,-50.58 0,-9.92 2.98,-36.71 8.94,-80.35 3.96,-31.73 3.96,-58.51 0,-80.33l-17.86 92.24c-17.85,-85.3 -14.88,-191.42 8.92,-318.37 -1.98,29.74 2.98,72.39 14.88,127.94 17.86,-47.61 26.79,-105.14 26.79,-172.58 0,-47.61 -5.96,-84.31 -17.86,-110.09 11.9,-49.6 19.83,-117.05 23.8,-202.34 3.98,-99.18 8.94,-166.63 14.88,-202.34 9.92,69.44 14.88,104.15 14.88,104.15 3.96,-57.52 7.94,-116.05 11.9,-175.56 1.98,-23.8 12.89,-35.7 32.73,-35.7 -3.96,0 16.86,0.99 62.49,2.97 37.69,3.97 77.36,3.97 119.02,0 -17.85,-11.9 -49.1,-23.31 -93.74,-34.22 -44.62,-10.9 -85.79,-32.23 -123.48,-63.97 -1.98,-17.85 -3.96,-35.71 -5.94,-53.56 0,1.99 -5.95,16.87 -17.86,44.64l2.98 -86.29c3.97,3.97 7.93,5.94 11.9,5.94 17.85,0 20.83,-60.5 8.92,-181.49 5.96,-3.98 12.9,-8.94 20.83,-14.88 1.99,-1.99 1.99,-3.98 0,-5.95 -7.93,-3.97 -14.87,-7.95 -20.83,-11.91 3.98,-21.82 10.92,-32.73 20.83,-32.73 -1.98,0 18.85,4.46 62.49,13.39 43.64,8.92 93.23,14.38 148.78,16.37 -5.96,-7.93 -8.93,-14.88 -8.93,-20.83 0,-7.94 3.97,-17.36 11.9,-28.27 7.93,-10.9 11.91,-18.35 11.91,-22.31 0,-5.96 -4.96,-10.92 -14.88,-14.88l8.92 -23.81c206.3,21.82 372.93,62.49 499.88,121.99zm-383.83 473.12c-7.94,-1.99 -12.9,0.98 -14.88,8.92 -1.99,7.93 -4.96,12.89 -8.93,14.87 0,43.64 -7.44,119.53 -22.32,227.63 -14.88,108.11 -22.31,188.94 -22.31,242.5 0,37.69 1.99,70.42 5.95,98.2 31.74,-11.91 49.59,-33.72 53.55,-65.47 9.92,-136.87 20.84,-239.03 32.74,-306.47 -3.97,0 -8.92,0.99 -14.88,2.98 -3.96,0 -5.95,-3.97 -5.95,-11.91 0,-5.94 1.99,-23.8 5.95,-53.55 5.96,-41.66 10.91,-82.33 14.88,-122 -15.87,35.71 -24.8,54.55 -26.78,56.53 0,0 0,-0.99 0,-2.97 0,-1.99 0.99,-11.41 2.98,-28.27 1.98,-16.86 2.97,-30.25 2.97,-40.17 0,-9.92 -0.99,-16.86 -2.97,-20.82zm-74.39 621.87c-15.88,61.5 -20.83,97.2 -14.88,107.12 27.78,-75.38 41.66,-108.11 41.66,-98.19 0,-9.92 -8.93,-12.9 -26.78,-8.93zm312.43 571.3c-43.65,93.22 -73.4,186.46 -89.28,279.69 -9.9,45.63 -27.76,68.44 -53.55,68.44 -11.9,0 -54.55,-4.96 -127.95,-14.88 35.71,13.89 90.27,33.72 163.65,59.51 21.83,7.94 44.64,-38.68 68.44,-139.85 13.89,-55.53 26.78,-111.08 38.69,-166.62 1.97,-15.87 3.96,-30.75 5.95,-44.64 3.97,-19.84 1.98,-33.72 -5.95,-41.65zm-306.48 -1716.86c11.9,31.73 14.88,75.37 8.92,130.92 -3.96,63.47 -3.96,108.11 0,133.9 39.68,-1.99 89.27,7.93 148.78,29.75 73.4,25.79 122.98,40.67 148.78,44.63l0 38.68c-130.43,41.66 -227.14,62.49 -291.6,62.49 -5.96,37.69 -10.92,74.38 -14.88,110.09 -1.99,9.92 3.96,19.84 17.85,29.76 -5.95,21.82 -28.76,159.18 -68.43,412.1 -39.68,252.93 -59.51,384.34 -59.51,394.26 57.52,9.92 114.05,20.83 169.59,32.73 83.32,17.85 132.92,33.72 148.78,47.6 -9.92,3.97 -16.36,13.89 -19.34,29.76 -2.97,15.87 -7.44,26.78 -13.39,32.73l-303.49 0c9.91,3.96 14.87,19.84 14.87,47.11 0,43.14 -14.87,123.98 -44.63,242.01 -29.76,123.48 -45.63,191.43 -47.61,203.32 75.38,27.28 149.77,55.06 223.16,82.33 87.28,31.73 162.66,52.07 226.14,61.99 23.8,-39.68 41.65,-94.22 53.56,-163.66 -17.86,45.63 -27.78,69.44 -29.76,71.41 0,0 0,-0.99 0,-2.97 0,-3.96 5.96,-30.75 17.85,-80.33 11.91,-49.6 18.85,-80.35 20.84,-92.25 13.88,1.98 21.81,-6.94 23.8,-26.77 -1.99,-15.88 -2.98,-32.74 -2.98,-50.59 3.48,-41.66 16.37,-84.3 38.68,-127.95 0,-17.85 0,-42.64 0,-74.39 0,-75.38 31.75,-304.49 95.22,-687.34 61.5,-366.97 89.27,-628.81 83.31,-785.52 -41.65,0 -91.74,-6.45 -150.26,-19.34 -58.51,-12.9 -87.77,-23.32 -87.77,-31.25 0,-9.92 40.66,-13.88 121.99,-11.9 -52.07,-17.86 -122.99,-33.72 -212.75,-47.6 -116.04,-17.86 -187.95,-29.76 -215.72,-35.71z"/>
   <path class="fil0" d="M7634.09 125.38c49.6,-11.89 103.15,31.75 160.67,130.93 35.71,63.48 81.33,166.63 136.88,309.45 51.58,132.91 85.3,211.26 101.17,235.06 3.97,-3.96 15.37,-18.34 34.21,-43.14 18.84,-24.8 33.24,-37.19 43.15,-37.19 7.94,0 13.89,6.95 17.86,20.83 49.58,-53.56 99.18,-92.24 148.77,-116.05 67.44,-29.75 114.06,-54.55 139.84,-74.39 -19.84,-5.94 -29.74,-16.86 -29.74,-32.73 0,-15.86 11.4,-38.68 34.2,-68.43 22.82,-29.76 34.22,-47.61 34.22,-53.56 0,-3.96 -3.96,-5.95 -11.89,-5.95 -13.89,0 -40.67,6.94 -80.34,20.83 11.9,-27.77 48.59,-81.33 110.1,-160.68 51.57,-65.46 79.34,-123.98 83.3,-175.55 37.69,0 69.92,6.94 96.71,20.83 26.77,13.88 40.16,20.82 40.16,20.82 11.91,0 38.68,-37.69 80.35,-113.07 15.86,-1.98 30.74,-2.97 44.62,-2.97 51.59,0 122.01,20.82 211.27,62.49 99.18,47.61 169.6,74.38 211.26,80.33 13.88,29.75 27.77,59.51 41.65,89.27 1.99,-31.74 21.83,-43.65 59.52,-35.7 -65.47,230.09 -98.2,402.67 -98.2,517.73 0,43.64 7.94,65.45 23.8,65.45 3.97,-1.97 7.95,-3.96 11.91,-5.94 -7.94,101.17 -42.65,292.59 -104.14,574.27 -71.41,319.37 -124.97,488.97 -160.68,508.81 -7.93,3.96 -12.89,-5.96 -14.88,-29.76 -1.98,-11.9 -2.97,-25.78 -2.97,-41.66 -17.85,0 -56.53,71.42 -116.05,214.24 -65.46,152.74 -120.01,243.99 -163.65,273.75l62.48 35.71c-17.85,3.96 -53.55,0 -107.11,-11.91 -59.51,-11.9 -96.21,-17.85 -110.09,-17.85 -21.83,0 -32.73,5.95 -32.73,17.85 0,15.87 13.88,40.67 41.65,74.38 -5.95,3.98 -14.88,5.96 -26.77,5.96 -17.86,0 -46.13,-6.44 -84.81,-19.34 -38.69,-12.9 -61.99,-19.35 -69.92,-19.35 -9.92,0 -14.88,3.98 -14.88,11.91 0,5.95 1.99,12.89 5.95,20.82 -51.57,5.96 -138.86,-16.85 -261.84,-68.43 59.5,-1.98 89.26,-8.92 89.26,-20.83 0,-11.9 -48.6,-32.73 -145.8,-62.48 27.78,-79.35 59.51,-198.37 95.21,-357.06 -39.66,33.72 -78.35,68.44 -116.03,104.14 -63.48,57.53 -95.22,97.2 -95.22,119.02 0,5.95 2.97,10.91 8.93,14.88 -87.29,99.18 -166.63,153.73 -238.04,163.65 0,-41.65 -2.98,-62.48 -8.94,-62.48 3.98,0 -14.87,20.83 -56.53,62.48 -41.65,41.66 -89.26,66.45 -142.82,74.38 3.96,-53.55 -12.4,-124.97 -49.1,-214.23 -36.7,-89.26 -55.04,-157.7 -55.04,-205.31 -17.85,83.32 -33.73,148.78 -47.61,196.39 -27.77,97.2 -51.57,154.72 -71.41,172.57 -9.92,-63.48 -14.88,-95.21 -14.88,-95.21 0,0 -12.89,31.73 -38.68,95.21 -15.87,9.92 -35.7,14.88 -59.52,14.88 -33.71,-1.98 -53.55,-1.98 -59.5,0 -29.76,3.97 -44.64,30.74 -44.64,80.34 -17.85,-65.46 -26.77,-98.19 -26.77,-98.19 0,0 -7.93,25.78 -23.81,77.36 -25.79,9.92 -53.56,14.88 -83.31,14.88 -49.59,0 -123.98,-17.85 -223.16,-53.56 -105.14,-39.67 -177.54,-61.5 -217.22,-65.46 47.61,-11.9 71.41,-19.84 71.41,-23.81 0,5.96 -15.86,-22.81 -47.59,-86.29 17.85,-47.6 35.7,-95.21 53.55,-142.82 25.79,-61.49 51.57,-103.14 77.36,-124.97 23.8,9.92 52.57,11.91 86.29,5.95 27.77,-5.95 55.54,-12.89 83.32,-20.83 5.94,-21.82 -9.42,-33.72 -46.13,-35.7 -36.69,-1.99 -55.04,-24.8 -55.04,-68.44 0,-29.76 5.94,-67.45 17.85,-113.06 -13.88,53.56 -34.72,90.25 -62.49,110.09 15.88,-47.61 31.74,-125.97 47.61,-235.07 15.87,-103.14 32.73,-181.5 50.59,-235.06 7.93,37.69 16.86,56.53 26.78,56.53 13.88,0 20.83,-20.82 20.83,-62.49 0,-61.49 -15.87,-101.15 -47.61,-119.02 5.94,-33.72 21.32,-51.57 46.12,-53.56 24.8,-1.97 36.2,-14.86 34.22,-38.67l121.99 -35.71c-81.33,-29.76 -121.99,-97.2 -121.99,-202.34 0,-57.52 11.89,-130.91 35.7,-220.18 19.84,-63.47 38.68,-127.95 56.53,-193.41 13.9,13.89 27.78,20.84 41.67,20.84 13.88,0 45.61,-25.79 95.21,-77.37 -25.79,1.98 -52.07,-10.91 -78.86,-38.68 -26.77,-27.77 -44.12,-41.65 -52.07,-41.65 -7.93,0 -15.86,5.94 -23.8,17.85 -15.86,-45.63 -18.84,-82.33 -8.92,-110.1 7.93,-17.86 21.32,-32.23 40.17,-43.14 18.84,-10.92 28.27,-18.35 28.27,-22.33 0,-5.94 -24.8,-20.82 -74.4,-44.62 9.92,-7.94 63.48,-12.89 160.68,-14.88 49.59,-1.99 74.39,-9.92 74.39,-23.8 0,-7.93 -6.94,-18.85 -20.82,-32.73 9.9,-7.94 28.75,-11.91 56.53,-11.91 55.54,0 137.86,16.87 246.96,50.59 89.26,27.77 157.7,53.55 205.31,77.35zm1538.33 455.26c13.88,-61.49 28.76,-154.72 44.64,-279.69 -41.66,7.93 -62.49,66.45 -62.49,175.55 0,69.42 5.95,104.14 17.85,104.14zm-1975.72 205.31c7.93,-101.17 22.81,-174.56 44.62,-220.19 9.92,-25.78 29.76,-54.55 59.52,-86.29 29.74,-31.74 51.57,-67.45 65.46,-107.11 -77.37,23.8 -119.02,37.69 -124.98,41.65 -19.84,11.91 -31.73,42.65 -35.7,92.24 -1.99,93.23 -4.96,186.47 -8.92,279.7zm1288.38 -68.43c-49.59,17.85 -105.13,51.57 -166.62,101.16 -99.19,83.31 -148.78,124.97 -148.78,124.97 11.91,11.9 62.49,-13.39 151.75,-75.88 89.27,-62.48 143.81,-112.56 163.65,-150.25zm601.05 276.72c-3.97,9.92 -36.7,91.25 -98.19,243.99 -41.65,101.17 -62.48,185.47 -62.48,252.91 0,19.84 1.97,38.69 5.95,56.54 1.98,-9.92 18.84,-41.66 50.58,-95.22 19.84,-33.72 29.76,-63.48 29.76,-89.26 0,-13.89 -2.99,-26.79 -8.93,-38.68 55.54,-115.06 83.31,-225.15 83.31,-330.28zm-1092 761.72c73.39,-49.59 112.07,-74.39 116.04,-74.39l2.98 0c0,-3.96 -47.61,43.65 -142.83,142.83 45.62,-15.88 108.11,-70.42 187.45,-163.66 51.59,-67.44 103.16,-134.89 154.73,-202.32 -9.92,-11.91 -19.84,-17.87 -29.75,-17.87 -13.89,0 -44.63,29.76 -92.24,89.28 -69.43,91.25 -134.89,166.62 -196.38,226.13zm-345.16 -92.24c0,1.98 20.83,50.58 62.48,145.8 -3.96,-31.74 -8.92,-62.49 -14.87,-92.25 -5.96,-39.66 -15.88,-59.5 -29.76,-59.5 -5.95,0 -11.9,1.98 -17.85,5.95zm1178.29 -1612.72c-41.65,31.74 -75.38,88.28 -101.16,169.61 -29.76,95.21 -57.53,156.71 -83.32,184.48 39.68,7.93 59.52,21.81 59.52,41.65 0,25.79 -22.33,54.06 -66.95,84.81 -44.64,30.74 -78.86,46.12 -102.66,46.12 -7.93,0 -12.89,-1.99 -14.88,-5.96 -31.73,33.73 -196.38,177.54 -493.92,431.45 -21.83,-15.87 -37.21,-48.1 -46.13,-96.7 -8.93,-48.61 -24.3,-79.84 -46.12,-93.73 1.98,25.78 -0.99,38.68 -8.92,38.68 -7.94,0 -18.85,-15.87 -32.73,-47.6 -13.9,-31.75 -20.83,-59.52 -20.83,-83.32 0,-15.87 3.96,-26.78 11.89,-32.73 -15.86,-69.43 -48.59,-153.74 -98.18,-252.92 -65.46,-136.88 -104.14,-219.19 -116.05,-246.97 -19.84,-9.92 -51.57,-20.82 -95.22,-32.73 15.88,13.89 23.81,23.81 23.81,29.76 0,3.96 -4.96,5.95 -14.88,5.95 -41.65,0 -162.66,-39.67 -363.01,-119.02 -11.9,39.67 -17.85,71.41 -17.85,95.22 0,47.61 27.77,73.39 83.32,77.36 81.32,3.97 131.91,12.89 151.74,26.78 -53.56,29.76 -135.88,73.4 -246.97,130.92 -9.92,41.66 -14.88,123.98 -14.88,246.97 0,107.12 -12.89,187.46 -38.67,241.02 162.66,0 243.99,9.91 243.99,29.74 0,9.92 -33.72,27.77 -101.17,53.56 -85.29,29.76 -135.88,49.6 -151.74,59.52 -9.92,1.98 -18.86,11.9 -26.79,29.75 -7.93,17.86 -16.86,26.78 -26.78,26.78 11.9,37.69 17.86,77.37 17.86,119.02 0,57.53 -14.88,134.89 -44.64,232.08 -31.74,113.08 -50.58,190.43 -56.53,232.1 77.36,33.72 116.04,49.58 116.04,47.61 -1.98,0 -20.83,3.96 -56.53,11.89 55.54,1.99 94.22,17.86 116.04,47.61 -43.63,43.64 -87.77,67.94 -132.41,72.9 -44.63,4.96 -74.88,16.37 -90.75,34.22 -33.72,37.69 -74.38,124.97 -121.99,261.84 152.74,57.53 273.74,93.24 363.01,107.13 21.81,-21.83 60.99,-140.35 117.53,-355.58 56.53,-215.23 111.58,-350.62 165.13,-406.15 13.9,3.96 23.82,-1 29.76,-14.88 1.99,-11.9 1.99,-24.8 0,-38.69 55.55,15.88 115.05,123.98 178.53,324.33 41.66,132.92 75.38,265.82 101.17,398.72 49.59,-19.84 161.67,-128.94 336.23,-327.3 160.68,-184.48 263.82,-313.42 309.45,-386.82 25.79,11.91 38.69,33.72 38.69,65.47 0,15.86 -3.98,40.66 -11.91,74.38 -7.93,33.72 -11.9,57.53 -11.9,71.41 0,43.64 27.77,65.47 83.31,65.47 31.75,0 73.4,-5.95 124.97,-17.86 -49.59,57.53 -94.22,87.78 -133.89,90.75 -39.68,2.98 -64.48,13.4 -74.39,31.25 -19.84,33.72 -45.63,131.91 -77.36,294.57 23.8,23.8 66.95,47.61 129.43,71.41 62.49,23.81 116.54,35.71 162.17,35.71 17.85,0 32.73,-1.99 44.62,-5.95 164.65,-301.52 290.62,-625.85 377.89,-972.98 67.45,-269.79 123.98,-613.95 169.61,-1032.5 -49.6,-33.72 -117.04,-65.47 -202.34,-95.23 -69.42,-23.8 -139.85,-48.59 -211.26,-74.38zm-612.94 1788.28c25.78,-7.94 66.45,-15.88 121.99,-23.81 7.93,0 11.9,-13.88 11.9,-41.65l-113.07 -5.96c13.88,9.92 20.83,18.85 20.83,26.78 0,7.94 -10.91,14.38 -32.73,19.34 -21.83,4.96 -32.73,7.44 -32.73,7.44 3.97,5.95 11.9,11.9 23.81,17.86zm2907.06 -1734.72c43.63,21.82 96.2,72.9 157.7,153.24 61.49,80.34 101.16,146.29 119.02,197.87 -41.67,-45.62 -66.45,-68.43 -74.4,-68.43 0,1.97 0,2.97 0,2.97 0,3.96 36.7,73.4 110.1,208.29 73.4,134.88 113.06,232.08 119.02,291.6l26.78 32.73c29.75,83.3 61.49,211.25 95.22,383.83 -9.92,-7.93 -16.87,-11.9 -20.83,-11.9 -7.94,0 -11.9,7.93 -11.9,23.8 0,11.9 14.87,86.29 44.62,223.16 29.76,136.88 44.64,250.94 44.64,342.19 0,47.61 -3.97,92.23 -11.91,133.9 -1.97,-19.84 -11.89,-29.76 -29.74,-29.76 -21.83,0 -50.59,12.89 -86.29,38.68 -35.71,25.79 -56.55,46.62 -62.49,62.49 -178.53,113.07 -363.01,187.45 -553.44,223.16 17.85,-13.89 26.78,-22.81 26.78,-26.78 0,-1.98 -1,-2.98 -2.99,-2.98 -1.97,0 -19.82,4.96 -53.55,14.88 -33.72,9.92 -55.55,12.89 -65.47,8.93 3.98,-45.62 1,-106.13 -8.92,-181.51 -11.9,-93.23 -17.85,-152.74 -17.85,-178.52 23.8,-5.96 35.71,-26.79 35.71,-62.49 0,-69.43 -19.84,-131.92 -59.51,-187.46l-196.39 23.81c21.83,3.96 44.64,8.92 68.44,14.88 -11.91,1.97 -42.65,7.93 -92.24,17.85 -1.99,3.96 -24.8,37.68 -68.44,101.16 -39.67,53.56 -59.51,90.26 -59.51,110.1 0,15.86 11.9,20.82 35.71,14.88 -21.82,47.6 -44.63,71.41 -68.43,71.41 -5.96,0 -10.92,-1.99 -14.88,-5.96 -31.75,19.84 -75.38,59.52 -130.93,119.02 -61.49,65.46 -106.13,109.1 -133.9,130.93l-11.89 -20.83c31.73,-35.7 47.6,-52.57 47.6,-50.58 0,0 -15.87,-9.92 -47.6,-29.76 -43.65,47.61 -117.04,111.09 -220.19,190.43 11.9,-11.91 17.85,-24.8 17.85,-38.68 0,-33.73 -67.94,-76.37 -203.82,-127.95 -135.88,-51.57 -202.83,-93.23 -200.84,-124.97 23.8,13.89 38.68,20.83 44.62,20.83 3.98,-1.98 5.96,-2.98 5.96,-2.98 0,-13.88 -35.71,-51.57 -107.13,-113.06 0,-27.77 4.96,-46.62 14.88,-56.54 31.75,-31.74 67.45,-79.35 107.12,-142.82 -3.96,21.82 -5.95,34.71 -5.95,38.68 0,1.98 0,2.98 0,2.98 -1.98,0 10.91,-18.35 38.68,-55.06 27.77,-36.69 54.56,-55.04 80.34,-55.04 11.91,0 23.8,3.97 35.71,11.9 65.46,-27.77 90.26,-41.66 74.38,-41.66 3.97,0 7.94,6.95 11.91,20.84 15.86,-17.85 23.8,-33.73 23.8,-47.61 0,-25.79 -53.56,-39.68 -160.68,-41.67 13.9,-29.74 29.26,-59.5 46.13,-89.26 16.85,-29.75 36.19,-52.56 58.02,-68.44 -9.92,15.88 -9.92,23.82 0,23.82 17.85,-15.88 55.54,-30.75 113.07,-44.64 49.59,-11.91 83.31,-31.73 101.16,-59.51 -15.87,-11.9 -44.63,-22.81 -86.29,-32.73 -47.6,-11.9 -77.36,-20.82 -89.26,-26.78 47.61,-55.55 71.41,-91.25 71.41,-107.12 0,-5.95 -3.97,-7.93 -11.9,-5.95 128.94,-243.99 193.41,-373.92 193.41,-389.79 0,0 0,0 0,0 -7.94,0 -39.68,42.65 -95.22,127.95 7.94,-39.68 28.27,-96.21 61,-169.6 32.73,-73.4 53.06,-129.93 60.99,-169.61 23.81,-15.87 42.65,-40.66 56.54,-74.38 7.94,-29.76 15.87,-59.52 23.8,-89.27l-47.61 47.6c31.75,-73.39 59.52,-163.64 83.32,-270.76l11.9 41.65c3.96,-19.84 7.44,-39.17 10.41,-58.01 2.99,-18.86 4.47,-29.26 4.47,-31.25 0,-3.97 -1,-5.95 -2.97,-5.95 0,0 -15.88,4.95 -47.61,14.87 19.84,-19.83 66.45,-30.74 139.85,-32.72 73.39,-1.99 121.99,-22.81 145.79,-62.49 -9.92,0 -25.79,2.97 -47.6,8.92 -3.97,1.99 -5.96,-2.97 -5.96,-14.87 198.37,-43.65 374.92,-73.39 529.64,-89.27 5.95,19.84 25.79,36.7 59.51,50.58 33.73,13.9 53.56,30.75 59.52,50.59zm-205.32 2.97c-63.47,35.71 -134.88,53.57 -214.24,53.57 47.61,-15.88 119.02,-33.73 214.24,-53.57zm407.64 708.17c1.99,35.71 11.91,82.33 29.76,139.85 21.82,69.43 35.7,116.05 41.66,139.86 9.91,11.89 23.8,40.66 41.66,86.29 13.88,37.68 32.73,63.47 56.53,77.35 -49.59,-202.33 -106.13,-350.11 -169.61,-443.35zm205.31 523.7c0,53.55 11.91,93.22 35.71,119.02 1.98,-11.91 -1.98,-29.27 -11.9,-52.09 -9.92,-22.8 -14.88,-39.16 -14.88,-49.08 0,-11.91 4.96,-24.8 14.88,-38.69 -7.93,1.98 -15.87,8.93 -23.81,20.84zm-461.19 223.16c-43.65,7.93 -85.3,14.87 -124.98,20.82 51.58,5.95 93.23,-0.99 124.98,-20.82zm-74.4 -1496.68c-69.42,9.92 -138.85,18.84 -208.28,26.78 -81.33,11.9 -148.77,27.76 -202.33,47.6 -7.94,35.71 -41.66,133.9 -101.17,294.58 -47.61,132.91 -75.38,232.09 -83.31,297.56 29.76,-75.39 47.61,-113.08 53.56,-113.08 1.98,1.99 2.97,3.97 2.97,5.95 0,27.77 -16.86,92.25 -50.59,193.41 -33.71,101.16 -59.5,156.71 -77.35,166.63 3.96,37.69 -13.89,76.37 -53.56,116.04 -45.63,43.64 -71.41,78.36 -77.37,104.15 21.83,0 111.09,17.85 267.8,53.55 -117.03,122.99 -204.32,184.49 -261.84,184.49 -21.83,0 -40.67,-5.96 -56.54,-17.86 -23.8,5.95 -46.62,12.9 -68.44,20.83 -1.98,0 -9.92,17.85 -23.8,53.56 69.42,15.87 135.89,26.77 199.36,32.73 15.87,0 38.68,14.88 68.43,44.63 -71.41,75.38 -141.82,113.07 -211.26,113.07 -9.92,0 -29.75,0 -59.5,0 -27.78,-1.99 -52.57,-2.97 -74.39,-2.97l-127.95 181.5c-5.95,9.92 -8.92,19.84 -8.92,29.75 0,25.79 37.68,60.51 113.06,104.15 87.29,49.59 138.86,87.27 154.73,113.07 15.86,0 39.18,10.91 69.92,32.72 30.75,21.83 56.04,29.76 75.88,23.81 15.87,-35.7 92.24,-140.84 229.11,-315.4 124.97,-160.68 185.48,-248.96 181.5,-264.82 43.64,-1.99 124.97,-24.8 243.99,-68.44 3.97,5.96 7.94,12.89 11.91,20.82 0,-3.96 -25.79,6.95 -77.36,32.74 89.26,-15.87 137.86,-25.79 145.8,-29.75 35.7,-13.89 67.44,-43.65 95.21,-89.26 27.77,9.9 48.6,51.57 62.49,124.96 23.79,1.99 35.7,12.9 35.7,32.74 0,3.96 -0.99,8.92 -2.97,14.86 0,7.95 0,12.91 0,14.88 0,17.86 9.92,26.79 29.75,26.79 7.94,17.85 9.92,75.38 5.95,172.58 -3.97,95.21 -8.92,152.74 -14.88,172.58 23.81,13.88 35.71,29.75 35.71,47.61 0,15.86 -11.9,32.72 -35.71,50.58l2.98 32.72c39.67,-33.72 67.45,-50.58 83.31,-50.58 3.97,0 5.96,1 5.96,2.98 0,7.93 -6.95,20.83 -20.84,38.68 29.76,-17.85 79.36,-38.68 148.78,-62.49 11.91,-11.89 55.55,-32.73 130.92,-62.48 61.5,-25.3 95.22,-53.07 101.17,-82.81 3.97,-13.9 5.95,-34.72 5.95,-62.49 0,-107.12 -15.37,-265.82 -46.12,-476.58 -30.74,-211.25 -55.04,-322.34 -72.9,-334.25 -37.69,-136.87 -65.46,-234.57 -83.31,-294.07 -45.63,-134.89 -89.27,-223.66 -130.93,-267.3l2.99 53.55c-55.55,-115.04 -123.98,-227.12 -205.31,-336.22 5.94,-27.77 -15.88,-63.48 -65.47,-107.13 -27.77,9.92 -48.6,-3.96 -62.49,-41.65zm-235.06 663.53c3.97,57.53 6.94,115.06 8.93,172.58 7.93,103.15 17.85,159.69 29.75,169.61 -1.98,13.89 -8.43,29.75 -19.34,47.61 -10.9,17.85 -16.36,31.73 -16.36,41.65 0,13.89 10.91,28.77 32.73,44.64 -3.97,-13.9 0,-21.83 11.89,-23.8 11.91,-1.99 23.82,-3.98 35.72,-5.96 19.83,3.97 53.56,-0.5 101.16,-13.4 47.61,-12.89 67.45,-27.27 59.51,-43.13 31.74,-25.79 55.55,-38.68 71.41,-38.68l-2.97 -122c-23.81,-35.7 -58.52,-114.06 -104.14,-235.07 -31.75,-87.27 -61.49,-130.92 -89.26,-130.92 -31.75,0 -71.43,45.62 -119.03,136.87z"/>
   <path class="fil0" d="M12879.9 116.46c-3.98,7.94 26.77,20.83 92.23,38.68 41.66,9.92 83.32,20.83 124.97,32.73 15.87,21.83 23.81,41.66 23.81,59.52 0,3.96 -1.98,12.89 -5.96,26.77l2.98 0c3.97,-1.98 18.85,-8.92 44.63,-20.82 -15.86,63.47 -30.74,150.75 -44.63,261.84 -13.88,126.95 -25.79,214.23 -35.71,261.84 -17.85,-9.92 -32.73,17.85 -44.62,83.32 -13.89,81.33 -28.77,130.92 -44.64,148.78 -7.93,33.72 -13.88,84.3 -17.85,151.74l23.8 -29.75c3.97,5.95 5.95,10.91 5.95,14.87 0,17.85 -13.89,33.73 -41.66,47.61l-11.89 98.19c10.4,-21.82 18.34,-29.75 23.8,-23.81 -13.4,97.21 -23.31,158.7 -28.76,184.49 -15.38,69.43 -37.69,124.97 -66.45,166.63 0,9.92 116.03,18.84 348.13,26.77 273.75,7.94 413.59,11.91 419.54,11.91 -51.57,13.89 -77.37,20.83 -77.37,20.83 0,0 25.8,13.89 77.37,41.66 -21.82,37.68 -42.65,99.67 -62.49,185.96 -19.83,86.29 -44.63,154.24 -74.38,203.82 -47.61,-3.96 -74.39,6.95 -80.35,32.73 -25.78,0 -52.56,0 -80.33,0 -29.76,3.98 -45.62,19.84 -47.61,47.61 -5.94,1.99 -24.8,4.96 -56.53,8.93 -23.81,3.97 -38.69,12.89 -44.64,26.78l-121.99 0c11.9,-7.93 17.85,-13.39 17.85,-16.87 0,-4.46 -7.93,-6.93 -23.8,-6.93 -39.68,0 -76.37,6.93 -110.1,20.83l-8.92 17.85 -121.99 20.83c3.96,-7.94 5.94,-13.9 5.94,-17.86 0,-3.97 -3.96,-5.94 -11.9,-5.94 -5.95,0 -22.81,2.47 -50.58,7.43 -27.77,4.96 -49.59,7.43 -65.46,7.43 -19.84,0 -34.72,-3.96 -44.64,-11.89 -170.59,27.77 -425.49,75.37 -764.7,142.82 -1.98,-25.79 -7.93,-36.69 -17.85,-32.73 7.93,-27.77 28.76,-108.1 62.49,-241.02 5.95,-29.76 12.89,-44.62 20.83,-44.62 11.89,1.97 16.85,2.97 14.88,2.97 35.7,0 87.27,-30.75 154.72,-92.25l-77.37 -29.74c-25.78,-55.55 -38.67,-97.21 -38.67,-124.98 0,-15.87 5.94,-41.66 17.85,-77.36 15.86,-47.61 27.77,-93.24 35.7,-136.88 -9.92,-11.9 -14.88,-29.75 -14.88,-53.55 0,-21.83 4.46,-54.06 13.4,-96.71 8.92,-42.64 14.38,-68.93 16.36,-78.85 5.95,5.95 13.88,11.91 23.8,17.86 -3.96,0 1.99,-27.78 17.85,-83.32 3.98,5.95 7.94,10.91 11.91,14.88 1.99,-5.95 8.92,-23.8 20.83,-53.56 13.89,-9.92 48.59,-30.74 104.14,-62.49 37.69,-23.8 56.53,-38.68 56.53,-44.62 -1.98,-1.99 -5.95,-2.99 -11.89,-2.99 -21.83,0 -68.44,7.95 -139.85,23.81 -19.84,-35.7 -29.76,-55.54 -29.76,-59.51 0,9.92 3.96,-18.84 11.91,-86.29l17.85 77.37c3.96,-37.7 6.93,-64.47 8.92,-80.35 7.93,-27.77 19.84,-50.58 35.7,-68.43l2.98 23.81c93.23,-23.81 139.85,-37.69 139.85,-41.67 0,1.99 -23.31,-2.97 -69.93,-14.88 -46.61,-11.89 -75.87,-33.71 -87.77,-65.45 -11.9,11.9 -21.82,17.86 -29.75,17.86 -7.94,0 -11.91,-10.92 -11.91,-32.74 0,-19.84 4.46,-56.54 13.39,-110.1 8.93,-53.55 13.4,-85.29 13.4,-95.21 3.96,3.96 6.93,6.95 8.92,8.92 19.84,0 34.72,-79.34 44.63,-238.03 5.95,-97.2 11.9,-194.4 17.86,-291.6 13.88,-1.98 26.77,-5.96 38.68,-11.9 -7.94,-1.99 -30.75,-10.91 -68.44,-26.78l199.35 38.68c3.97,-11.9 7.95,-24.8 11.91,-38.68 0,5.95 3.97,20.83 11.9,44.63 13.88,-1.99 22.32,-20.33 25.29,-55.05 2.97,-34.71 18.35,-50.08 46.12,-46.12l-65.46 -32.73c170.59,27.77 311.44,65.46 422.53,113.07zm145.79 175.56c-17.85,9.92 -35.7,65.46 -53.56,166.63 -15.86,91.25 -22.81,155.71 -20.82,193.4 1.97,-9.92 17.85,-69.42 47.6,-178.52 19.84,-71.42 28.77,-131.92 26.78,-181.51zm-574.27 1035.47c-41.66,91.25 -62.49,189.44 -62.49,294.57 0,23.8 3.98,35.71 11.91,35.71 23.8,-33.72 42.65,-82.32 56.53,-145.8 17.85,-77.36 31.74,-127.95 41.66,-151.75l-32.73 26.77c-3.97,-3.96 -4.96,-11.89 -2.98,-23.79 1.98,-15.87 2.98,-25.79 2.98,-29.76 0,-7.94 -4.96,-9.92 -14.88,-5.95zm443.34 449.3l65.47 0 -5.95 17.85c27.77,-1.98 67.44,-0.99 119.02,2.98 63.48,5.94 105.13,8.93 124.97,8.93 79.34,0 138.86,-22.81 178.53,-68.44 -210.27,0 -370.95,12.89 -482.04,38.68zm264.83 0l-86.29 0 -8.93 0 95.22 0zm-848.01 389.78c63.47,-9.9 159.68,-22.81 288.61,-38.67 -71.41,-3.97 -150.75,0.99 -238.03,14.87 -37.69,5.95 -54.56,13.9 -50.58,23.8zm226.13 -2091.76c-1.98,33.72 0.99,50.57 8.92,50.57 3.98,0 7.94,-2.97 11.91,-8.92 3.97,3.96 5.95,12.9 5.95,26.78 0,25.79 -4.96,53.57 -14.88,83.31 -9.91,29.76 -18.84,40.67 -26.78,32.73l-2.97 142.83c19.84,1.98 22.81,61.5 8.92,178.53 17.85,31.74 12.89,71.41 -14.88,119.02l-14.87 -32.73c-19.84,45.63 -27.77,82.32 -23.81,110.09 7.94,1.99 55.55,10.91 142.82,26.79 69.44,11.89 104.15,22.81 104.15,32.73 0,7.93 -13.88,15.86 -41.66,23.8 0,21.82 -26.77,41.65 -80.34,59.5 -41.65,15.88 -76.37,24.8 -104.14,26.79 -23.8,19.84 -34.71,64.46 -32.73,133.9 0,0 36.7,5.94 110.1,17.85 57.53,9.92 86.29,20.83 86.29,32.73 0,7.93 -16.87,17.85 -50.59,29.75 -15.86,21.82 -42.65,37.69 -80.34,47.61 -55.54,15.87 -85.29,24.8 -89.26,26.78l-110.09 502.86c-15.87,13.88 -23.81,20.83 -23.81,20.83 0,-1.99 0,9.92 0,35.7 57.53,27.77 125.96,41.66 205.31,41.66 9.92,0 22.32,0 37.19,0 14.88,0 23.31,0 25.3,0 11.9,0 17.85,0.99 17.85,2.98 0,3.96 -70.42,46.61 -211.26,127.94 15.87,3.96 33.72,-0.99 53.56,-14.88 19.84,-13.88 34.71,-20.82 44.63,-20.82 7.93,0 14.88,1.98 20.83,5.94 0,31.75 -25.79,47.61 -77.37,47.61 -7.93,0 -20.82,0 -38.67,0 -17.86,0 -30.75,0 -38.68,0 -55.55,0 -84.32,15.87 -86.29,47.61 9.92,-5.95 17.85,-8.93 23.8,-8.93 7.93,0 11.9,4.96 11.9,14.88 0,11.91 -12.4,42.15 -37.19,90.75 -24.8,48.6 -37.2,77.86 -37.2,87.78 267.8,-67.44 640.73,-116.04 1118.79,-145.8 -17.86,-15.86 -38.68,-23.8 -62.49,-23.8 -9.91,0 -25.29,2.48 -46.12,7.44 -20.82,4.96 -36.2,7.43 -46.12,7.43 -21.81,0 -40.66,-7.93 -56.53,-23.8 33.72,-11.9 92.24,-17.85 175.55,-17.85 57.53,0 86.29,7.93 86.29,23.8 0,7.94 -6.94,17.85 -20.82,29.76l47.61 14.88c37.68,-21.83 73.38,-85.31 107.11,-190.44l-32.73 -2.97c1.99,-3.97 6.95,-22.81 14.88,-56.53 5.95,-21.83 16.85,-36.7 32.73,-44.64l0 47.61c21.81,-61.5 29.75,-107.11 23.8,-136.87l-169.6 -2.97c-5.95,17.85 -130.92,21.81 -374.92,11.89 0,-7.93 2.98,-15.87 8.93,-23.8 -11.9,0 -39.18,5.95 -81.83,17.85 -42.65,11.91 -73.88,17.86 -93.72,17.86 -27.77,0 -46.62,-9.92 -56.53,-29.76 5.94,-5.95 8.92,-12.9 8.92,-20.83 0,-15.87 -10.91,-26.77 -32.73,-32.73 13.89,-1.99 26.78,-3.96 38.68,-5.95 0,-1.98 -4.96,-5.96 -14.87,-11.9 1.97,-13.88 4.96,-27.77 8.92,-41.66 0,0 4.96,10.91 14.88,32.74l53.55 -196.39c-7.93,5.95 -19.83,34.22 -35.7,84.8 -15.87,50.58 -27.77,75.88 -35.71,75.88 -3.97,0 -7.93,-2.98 -11.9,-8.93 1.99,-5.95 53.56,-215.23 154.73,-627.83 55.54,-232.09 102.15,-465.16 139.84,-699.24 -216.21,-75.38 -397.71,-131.92 -544.51,-169.6z"/>
  </g>
 </g>
</svg>
