<?xml version="1.0" encoding="UTF-8"?>
<!DOCTYPE svg PUBLIC "-//W3C//DTD SVG 1.1//EN" "http://www.w3.org/Graphics/SVG/1.1/DTD/svg11.dtd">
<!-- Creator: CorelDRAW 2017 -->
<svg xmlns="http://www.w3.org/2000/svg" xml:space="preserve" width="244.831mm" height="94.488mm" version="1.1" style="shape-rendering:geometricPrecision; text-rendering:geometricPrecision; image-rendering:optimizeQuality; fill-rule:evenodd; clip-rule:evenodd"
viewBox="0 0 24483.06 9448.8"
 xmlns:xlink="http://www.w3.org/1999/xlink">
 <defs>
  <style type="text/css">
   <![CDATA[
    .fil0 {fill:#393185}
   ]]>
  </style>
 </defs>
 <g id="Capa_x0020_1">
  <metadata id="CorelCorpID_0Corel-Layer"/>
  <path class="fil0" d="M4957.98 6111.79l-1560.82 0 0 -2774.79 1560.82 0 0 867.12 -694.28 0 0 86.72 694.28 0 0 867.12 -694.28 0 0 86.7 694.28 0 0 867.13zm-69.37 -69.36l0 -728.39 -694.27 0 0 -225.45 694.27 0 0 -728.39 -694.27 0 0 -225.45 694.27 0 0 -728.38 -1422.08 0 0 2636.06 1422.08 0zm-103.47 -104.07l-1214.56 0 0 -2427.94 1214.56 0 0 520.28 -694.28 0 0 433.56 694.28 0 0 520.27 -694.28 0 0 433.56 694.28 0 0 520.27zm2079.93 173.43l-1560.82 0 0 -2774.79 867.12 0 0 1907.66 693.7 0 0 867.13zm-69.36 -69.36l0 -728.39 -693.7 0 0 -1907.67 -728.39 0 0 2636.06 1422.09 0zm-103.48 -104.07l-1214.56 0 0 -2427.36 520.28 0 0 1907.09 694.28 0 0 520.27zm3206.62 -273.42l-446.87 446.85 -838.78 0 -448.6 -447.43 0 -1879.93 448.6 -447.43 838.78 0 446.87 447.43 0 766.54 -624.34 0 0 346.85 624.34 0 0 767.12zm-69.38 -32.38l0 -665.37 -624.32 0 0.57 -485.59 623.75 0 0 -666.52 -408.12 -408.71 -777.52 0 -409.86 408.12 0 1818.07 409.86 409.87 777.52 0 408.12 -409.87zm-104.05 -40.46l-347.43 346.26 -692.54 0 -347.43 -346.84 0 -1734.25 347.43 -346.85 692.54 0 347.43 347.43 0 520.27 -520.27 0 0 -347.42 -346.85 0 0 1387.39 346.85 0 0 -345.69 520.27 0 0 519.7zm2255.1 72.26l-446.86 447.43 -838.79 0 -448.59 -447.43 0 -1879.93 448.59 -447.43 838.79 0 446.86 447.43 0 1879.93zm-69.37 -31.8l0 -1818.07 -408.13 -408.12 -777.51 0 -409.87 408.12 0 1818.07 409.87 409.87 777.51 0 408.13 -409.87zm-104.05 -41.04l-347.43 346.84 -692.54 0 -347.43 -346.84 0 -1734.25 347.43 -346.85 692.54 0 347.43 346.85 0 1734.25zm-520.28 -173.43l0 -1387.39 -346.84 0 0 1387.39 346.84 0zm2601.95 693.7l-1560.82 0 0 -2774.79 867.12 0 0 1907.66 693.7 0 0 867.13zm-69.36 -69.36l0 -728.39 -693.7 0 0 -1907.67 -728.39 0 0 2636.06 1422.09 0zm-103.48 -104.07l-1214.56 0 0 -2427.36 520.28 0 0 1907.09 694.28 0 0 520.27zm1993.22 173.43l-1560.82 0 0 -2774.79 1560.82 0 0 867.12 -694.28 0 0 86.72 694.28 0 0 867.12 -694.28 0 0 86.7 694.28 0 0 867.13zm-69.37 -69.36l0 -728.39 -694.27 0 0 -225.45 694.27 0 0 -728.39 -694.27 0 0 -225.45 694.27 0 0 -728.38 -1422.08 0 0 2636.06 1422.08 0zm-103.47 -104.07l-1214.56 0 0 -2427.94 1214.56 0 0 520.28 -694.28 0 0 433.56 694.28 0 0 520.27 -694.28 0 0 433.56 694.28 0 0 520.27zm2253.36 -274l-446.86 447.43 -838.79 0 -448.59 -447.43 0 -1879.93 448.59 -447.43 838.79 0 446.86 447.43 0 1879.93zm-69.37 -31.8l0 -1818.07 -408.13 -408.12 -777.51 0 -409.87 408.12 0 1818.07 409.87 409.87 777.51 0 408.13 -409.87zm-104.05 -40.46l-347.43 346.26 -692.54 0 -347.43 -346.84 0 -1734.25 347.43 -346.85 692.54 0 347.43 347.43 0 520.27 -520.28 0 0 -347.42 -346.84 0 0 1387.39 346.84 0 0 -258.97 -174.58 0 0 -520.28 694.86 0 0 953.26zm1387.97 519.69l-867.12 0 0 -2774.79 867.12 0 0 2774.79zm-69.36 -69.36l0 -2636.06 -728.39 0 0 2636.06 728.39 0zm-104.06 -103.49l-520.28 0 0 -2428.52 520.28 0 0 2428.52zm2255.1 -274.58l-446.87 447.43 -838.78 0 -448.6 -447.43 0 -1879.93 448.6 -447.43 838.78 0 446.87 447.43 0 1879.93zm-69.38 -31.8l0 -1818.07 -408.12 -408.12 -777.52 0 -409.86 408.12 0 1818.07 409.86 409.87 777.52 0 408.12 -409.87zm-104.05 -41.04l-347.43 346.84 -692.54 0 -347.43 -346.84 0 -1734.25 347.43 -346.85 692.54 0 347.43 346.85 0 1734.25zm-520.27 -173.43l0 -1387.39 -346.85 0 0 1387.39 346.85 0z"/>
 </g>
</svg>
