<?xml version="1.0" encoding="UTF-8"?>
<!DOCTYPE svg PUBLIC "-//W3C//DTD SVG 1.1//EN" "http://www.w3.org/Graphics/SVG/1.1/DTD/svg11.dtd">
<!-- Creator: CorelDRAW 2017 -->
<svg xmlns="http://www.w3.org/2000/svg" xml:space="preserve" width="152.135mm" height="30.9562mm" version="1.1" style="shape-rendering:geometricPrecision; text-rendering:geometricPrecision; image-rendering:optimizeQuality; fill-rule:evenodd; clip-rule:evenodd"
viewBox="0 0 15213.52 3095.62"
 xmlns:xlink="http://www.w3.org/1999/xlink">
 <defs>
  <style type="text/css">
   <![CDATA[
    .fil0 {fill:#B0394F}
   ]]>
  </style>
 </defs>
 <g id="Capa_x0020_1">
  <metadata id="CorelCorpID_0Corel-Layer"/>
  <path class="fil0" d="M2670.36 1197.38l0 -804.13 1338.95 0 0 811.83 -265.49 -634.84 -180.83 0 0 1993.03 169.29 157.74 -777.2 0 173.14 -150.05 0 -2000.72 -203.93 0 -253.93 627.14zm2127.69 -804.13l-153.9 146.2 0 1562.11c0,76.95 6.41,144.92 19.24,203.92 12.82,51.3 33.34,97.47 61.56,138.51 28.21,41.04 71.82,61.56 130.82,61.56 69.25,0 121.19,-21.8 155.82,-65.41 34.63,-43.6 58.35,-92.34 71.18,-146.2 15.39,-64.13 23.08,-135.95 23.08,-215.47l0 -1535.17 -142.35 -150.05 569.43 0 -153.9 146.2 0 1519.79c2.57,123.11 -15.39,233.41 -53.86,330.89 -15.4,41.03 -37.2,81.43 -65.42,121.19 -28.21,39.76 -63.48,75.03 -105.8,105.81 -42.33,30.78 -92.34,55.79 -150.05,75.02 -57.72,19.25 -126.33,28.86 -205.85,28.86 -79.52,0 -148.77,-9.61 -207.77,-28.86 -59,-19.23 -109.65,-44.24 -151.97,-75.02 -42.33,-30.78 -77.6,-66.05 -105.82,-105.81 -28.21,-39.76 -50.01,-81.44 -65.4,-125.04 -41.04,-100.04 -59,-212.9 -53.87,-338.59l0 -1500.54 -176.98 -153.9 761.81 0zm781.05 2327.76l257.79 -153.9 0 -2000.72 -215.47 -173.14 734.89 0c38.47,0 93.62,6.41 165.44,19.23 71.82,12.83 142.36,38.48 211.62,76.96 69.25,38.47 130.17,94.26 182.76,167.36 52.58,73.11 80.15,171.22 82.72,294.34 2.56,117.99 -12.18,217.39 -44.25,298.19 -32.06,80.8 -70.54,146.2 -115.43,196.22 -44.88,50.02 -92.34,86.57 -142.36,109.66 -50.01,23.08 -90.41,34.63 -121.2,34.63l523.27 973.43 203.92 157.74 -592.52 0 -488.64 -1008.06 0 854.16 253.94 153.9 -896.48 0zm650.24 -1285.08c89.77,2.57 168,-11.54 234.7,-42.32 28.21,-12.82 56.43,-30.14 84.64,-51.94 28.22,-21.81 52.59,-50.02 73.1,-84.65 20.53,-34.62 36.56,-75.67 48.1,-123.12 11.55,-47.46 16.04,-103.24 13.47,-167.37 -5.14,-112.86 -31.43,-198.15 -78.88,-255.86 -47.45,-57.72 -99.39,-99.4 -155.82,-125.04 -66.69,-28.22 -139.8,-43.61 -219.31,-46.18l0 896.48zm1146.57 -1042.68l804.13 0 -161.59 115.42 0 2046.9 165.45 165.44 -792.6 0 165.44 -157.74 0 -2043.05 -180.83 -126.97zm1646.75 203.92c-51.3,-23.09 -101.32,-39.76 -150.06,-50.02 -43.6,-5.13 -89.14,-3.2 -136.59,5.77 -47.45,8.98 -91.69,36.55 -132.74,82.72 -58.99,66.7 -84.64,130.18 -76.95,190.46 7.7,60.27 35.92,122.48 84.65,186.6 48.73,64.13 112.22,130.18 190.45,198.15 78.23,67.98 159.68,141.72 244.32,221.23 94.91,89.78 169.94,169.3 225.09,238.55 55.14,69.26 94.9,134.03 119.27,194.31 24.37,60.28 38.47,119.27 42.32,176.98 3.85,57.72 4.49,121.2 1.92,190.45 -5.12,107.74 -30.78,193.67 -76.95,257.79 -46.17,64.13 -101.31,113.5 -165.44,148.13 -64.13,34.63 -130.17,57.71 -198.15,69.26 -67.98,11.54 -127.61,17.31 -178.91,17.31 -115.43,2.57 -211.62,-3.2 -288.57,-17.31 -76.95,-14.11 -137.23,-30.14 -180.83,-48.09 -51.3,-20.53 -91.06,-43.61 -119.28,-69.26l0 -888.79 300.11 781.06c28.22,25.65 60.28,44.88 96.19,57.71 30.78,12.83 67.33,22.44 109.66,28.86 42.32,6.41 89.13,3.2 140.43,-9.62 48.74,-10.26 87.21,-28.86 115.43,-55.79 28.21,-26.93 49.38,-59 63.48,-96.19 14.11,-37.19 20.53,-77.59 19.24,-121.2 -1.28,-43.61 -7.05,-88.49 -17.31,-134.66 -20.52,-89.78 -64.77,-168.02 -132.74,-234.7 -67.98,-66.69 -140.44,-133.39 -217.39,-200.08 -61.56,-51.3 -117.35,-99.39 -167.37,-144.28 -50.01,-44.88 -95.55,-89.13 -136.58,-132.74 -41.05,-43.61 -75.68,-87.21 -103.89,-130.81 -28.21,-43.61 -50.02,-91.06 -65.41,-142.37 -35.91,-117.99 -44.25,-226.36 -25,-325.12 19.23,-98.74 57.06,-182.75 113.5,-252.01 56.43,-69.25 126.97,-123.12 211.61,-161.59 84.64,-38.48 174.43,-57.72 269.33,-57.72 94.9,0 176.34,5.77 244.32,17.32 67.97,11.54 123.76,25 167.36,40.4 51.31,17.95 94.91,38.47 130.82,61.56l0 792.59 -319.34 -684.86zm434.77 600.21l0 -804.13 1338.95 0 0 811.83 -265.48 -634.84 -180.84 0 0 1993.03 169.3 157.74 -777.21 0 173.14 -150.05 0 -2000.72 -203.92 0 -253.94 627.14zm3085.74 1523.63l-877.24 0 173.13 -200.07 -123.11 -600.21 -480.95 0 -157.75 615.6 203.92 184.68 -715.64 0 269.33 -200.07 534.8 -1939.16 -242.39 -192.38 600.22 0 592.52 2162.32 223.16 169.29zm-1269.7 -942.64l404 0 -203.92 -815.69 -200.08 815.69z"/>
 </g>
</svg>
