<?xml version="1.0" encoding="UTF-8"?>
<!DOCTYPE svg PUBLIC "-//W3C//DTD SVG 1.1//EN" "http://www.w3.org/Graphics/SVG/1.1/DTD/svg11.dtd">
<!-- Creator: CorelDRAW 2017 -->
<svg xmlns="http://www.w3.org/2000/svg" xml:space="preserve" width="152.135mm" height="30.9562mm" version="1.1" style="shape-rendering:geometricPrecision; text-rendering:geometricPrecision; image-rendering:optimizeQuality; fill-rule:evenodd; clip-rule:evenodd"
viewBox="0 0 15213.52 3095.62"
 xmlns:xlink="http://www.w3.org/1999/xlink">
 <defs>
  <style type="text/css">
   <![CDATA[
    .fil0 {fill:#C59C85;fill-rule:nonzero}
   ]]>
  </style>
 </defs>
 <g id="Capa_x0020_1">
  <metadata id="CorelCorpID_0Corel-Layer"/>
  <g id="_2214417998416">
   <path class="fil0" d="M1495.83 691.17l5.68 0c0,7.57 6.06,10.98 17.8,10.98l5.69 156.82c0,27.28 -11.75,49.62 -34.48,67.43l5.31 -6.44 5.68 0 6.82 6.44 5.3 0 0 -17.81 11.37 11.37 -5.69 45.45 5.69 139.78 0 95.46c0,30.3 -7.96,45.45 -23.49,45.45l-43.18 -5.68 -23.49 5.68 -44.31 -5.68 -45.47 5.68 -5.67 -51.13 5.67 -66.68 -5.67 -23.1 17.8 -32.2c-11.74,-3.78 -17.8,-15.15 -17.8,-34.47l5.67 -39.78c0,-34.08 -42.79,-69.31 -128.78,-105.68l-33.33 -5.3c-76.9,0 -125.39,14.77 -145.46,44.32l-5.31 0c-7.57,149.25 -15.15,233.33 -23.48,251.9 9.09,0 14.77,13.26 17.8,39.77l-10.98 61.37 10.98 10.98 -5.68 5.31 5.68 5.67 0 5.69 -5.68 33.33c0,45.08 12.88,67.43 37.88,67.43l45.45 -16.67 62.12 11.37c33.34,-9.85 50.01,-39.78 50.01,-90.15 0,-21.22 -12.88,-42.06 -38.64,-62.13l0 -9.85 5.31 0c75,20.07 112.12,53.42 112.12,100l6.81 21.97 0 5.69c0,51.89 -11.73,89.39 -34.46,113.26 0,17.8 7.19,26.51 22.34,26.51l15.16 74.25c-17.43,77.65 -56.45,116.67 -116.3,116.67l-28.79 5.67 0 -5.67c34.48,-34.85 51.9,-62.89 51.9,-84.47 0,-8.72 -20.84,-16.29 -63.25,-21.98l-16.67 0 -38.64 5.3 -5.68 -5.3 0 -4.54c-48.11,3.03 -71.97,13.63 -71.97,32.19l10.98 23.11 -5.68 116.67 5.68 5.68 0 5.31 -10.98 45.45 0 17.8 10.98 0 0 32.2 -10.98 34.47 5.3 5.69 0 5.3 -5.3 39.01 5.3 62.12 -5.3 0 16.66 50.01 -11.36 12.12 5.68 16.67 -5.68 5.68 0 5.3 11.36 26.89 -11.36 10.99c14.4,17.05 21.21,35.61 21.21,55.3l79.93 23.49c65.15,0 137.5,-33.71 217.43,-101.13l5.67 -60.99 -5.67 -5.31 0 -5.68 5.67 -66.67 -5.67 -6.44 0 -5.68 11.36 -33.33 -11.36 -44.32 11.36 -10.99 -11.36 -17.8 0 -15.53 5.67 -5.69 0 -5.68 60.99 11.37 17.81 -11.37 56.44 5.68 33.33 0 5.68 5.69 5.69 0 -11.37 33.33 0 5.31 11.37 45.45 0 15.53 -11.37 45.46 11.37 32.19 0 17.81c-7.58,14.77 -18.94,22.35 -34.48,22.35l0 12.12 28.79 -17.8 5.69 40.15 0 20.84c-2.27,40.9 -64.02,113.63 -185.61,218.93 -93.19,45.08 -153.04,67.43 -179.56,67.43l-5.67 -6.44 -26.52 6.44 -23.49 0c-95.45,0 -172.35,-28.03 -230.68,-84.09 -27.27,26.52 -47.73,39.77 -60.99,39.77l-28.03 0c-54.55,0 -117.81,-29.92 -189.78,-89.77l-10.98 -11.37 -17.81 -23.1 5.69 -5.69c35.6,23.11 59.84,34.48 73.11,34.48l29.16 0c32.2,-15.54 48.49,-40.16 48.49,-74.25l-5.3 -21.21 12.12 -10.99 -12.12 -28.79 5.3 -37.87 -5.3 -45.46 12.12 -10.99 -17.81 -17.79 5.69 -72.36 -5.69 -15.53 5.69 -50.76 0 -23.48 5.3 -5.68 -10.99 -20.84 5.69 -90.15 0 -23.11 -5.69 -33.33 10.99 -22.35c-7.2,0 -10.99,-5.31 -10.99,-16.67l5.69 -39.77 -11.37 -10.99 11.37 0 0 -4.54c-20.84,0 -39.4,-20.84 -55.69,-62.13l12.5 -12.11 -6.81 -5.69 -40.16 0 0 -5.68 84.47 -105.3 0 -56.45 5.69 -33.33 -5.69 -16.67 10.99 -66.66c-7.2,0 -10.99,-6.06 -10.99,-17.81l5.69 -77.65 -5.69 -5.69 0 -5.3 10.99 -44.32 -10.99 -23.48 5.69 -39.78c-3.04,-100.76 -6.82,-151.13 -11.37,-151.13l-89.77 -27.66 -55.31 39.78 -5.68 0 0 -5.31c0,-48.1 55.68,-96.59 167.43,-145.46l52.27 0c31.82,0 61.37,16.68 89.02,50.01 82.57,-48.87 139.02,-73.49 168.56,-73.49l78.79 5.68 60.99 -10.98c0,9.47 23.87,15.53 71.97,17.8l156.44 66.29c21.6,0 53.41,-29.92 95.46,-89.77zm-526.91 50c0,7.19 5.68,10.98 17.81,10.98l5.3 0 0 -5.3 -23.11 -5.68zm107.58 56.44l10.99 11.36 5.68 0 -10.99 -11.36 -5.68 0zm-319.7 17.8l-5.3 15.53 0 5.68 5.3 0 12.12 -10.98 0 -4.55 5.68 4.55 21.21 0 0 -4.55 -26.89 -5.68 -6.44 5.68 -5.68 -5.68zm420.84 26.89l0 5.31 34.09 11.36 4.55 0 0 -5.68 -33.33 -10.99 -5.31 0zm124.24 77.66l26.52 23.1 0 -10.98 -23.48 -12.12 -3.04 0zm178.42 17.42l0 16.67 10.22 0 0 -16.67 -10.22 0zm-112.12 117.81l5.67 0 10.99 -10.99 -5.3 0 -11.36 10.99zm90.15 12.12c0,7.57 16.67,16.29 50,26.9l5.3 0 0 -5.69 -55.3 -21.21zm-482.96 263.27l0 5.29 11.36 10.23 10.98 -10.23 -16.67 -5.29 -5.67 0zm-17.43 32.19l0 5.3 17.43 0 0 -10.98 -17.43 5.68zm-32.2 28.79l10.99 10.99 21.21 0 -10.23 -10.99 -21.97 0zm-23.48 10.99l0 10.98 17.8 -5.3 0 -11.37 -17.8 5.69zm336.37 27.64l0 5.69 23.1 -27.65 0 -5.68 -23.1 27.64zm-386.37 0c-6.44,14.78 -20.08,22.35 -39.78,22.35l0 10.99 55.3 -27.65 0 -5.69 -15.52 0zm-112.13 51.14l-5.3 5.69 0 5.3 5.3 0 16.67 -5.3 0 -5.69 -16.67 0zm72.35 32.2l5.31 0 23.48 -9.85 0 -5.68 -5.68 0c-15.53,6.06 -23.11,10.99 -23.11,15.53zm-72.35 56.44l0 6.82 16.67 0 0 -12.12 -16.67 5.3zm723.5 516.3l-10.98 10.99 0 5.68 10.98 0 11.37 -16.67 -11.37 0zm-39.77 26.51l0 11 16.67 -5.31 0 -5.69 -16.67 0zm-44.32 39.02l5.3 0 10.23 -11.36 -4.54 0 -10.99 11.36zm-56.82 34.1l5.68 0 16.66 -16.67 -5.67 0 -16.67 16.67zm-44.32 28.03l5.69 0 10.98 -12.51 -5.31 0 -11.36 12.51zm-51.14 16.67l0 5.29 5.69 0 34.47 -10.98 0 -10.98 -40.16 16.67zm-78.78 66.28l5.68 0 12.11 -10.98 -6.44 0 -11.35 10.98zm-71.98 45.83l5.68 0 10.99 -11.35 -5.68 0 -10.99 11.35zm-39.01 23.11l0 4.55 26.89 -16.67 0 -5.68 -5.68 0 -21.21 17.8zm1055.32 -1680.34l5.68 5.69 5.69 0 35.22 -5.69 34.48 0 16.66 11.37 6.82 -5.68 0 -5.69c87.88,0 178.03,42.43 270.46,126.52l29.17 29.17c0,9.47 9.46,23.11 28.79,40.91l57.57 184.09 5.69 0 0 34.47 -5.69 34.48 10.98 45.45c-11.74,0 -17.42,4.17 -17.42,12.12 11.74,0 17.42,5.68 17.42,16.67 -5.68,119.32 -18.93,178.79 -39.77,178.79l5.69 23.11c-31.07,54.16 -63.64,100.38 -97.74,139.02 -83.71,84.09 -178.03,126.51 -282.96,126.51l-68.94 0 -98.86 -5.68 0 40.15c0,7.2 -5.31,10.99 -16.67,10.99l16.67 46.59 -10.99 34.47 10.99 10.98 -5.31 81.07 5.31 75.38 -10.99 22.35 10.99 12.12 0 23.1 -10.99 16.67 10.99 12.5 0 68.57 -5.31 5.68 5.31 5.68 0 16.29 -10.99 0c17.8,69.69 52.28,104.54 103.42,104.54l6.43 5.31 40.15 -5.31 17.43 0 11.36 10.99c-76.89,88.64 -132.95,133.33 -167.8,133.33 -72.35,0 -108.72,-13.63 -108.72,-41.28l-6.43 5.68 -11.37 0 -45.46 -10.98c-29.54,31.06 -64.39,46.58 -104.17,46.58 -62.87,0 -120.45,-27.27 -173.11,-81.05l-34.47 -57.96 5.68 -5.31 23.11 0c84.48,0 126.52,-15.53 126.52,-46.59 11.75,-41.67 17.81,-81.44 17.81,-120.08l-12.12 -34.09 0 -35.6 12.12 -57.96 -12.12 -10.98 0 -39.78 6.43 -34.47 -6.43 -6.82 0 -5.3 17.79 -34.47c-12.11,0 -17.79,-3.79 -17.79,-11.37l6.43 -28.79 -6.43 -40.91 12.12 -74.24c-6.06,0 -13.64,-25.38 -23.12,-75.76 -29.92,-37.5 -48.85,-56.81 -57.95,-57.58l-16.67 -21.96 74.62 -92.43 11 -23.11 0 -52.27 6.43 -79.93 -6.43 -17.8 6.43 -39.77 -6.43 -92.05 6.43 -23.49 -6.43 -46.59 6.43 -16.67c0,-95.45 -20.83,-149.24 -63.26,-162.12l-35.22 6.82 -11.37 -12.12 -51.9 12.12 0 -12.12c79.93,-91.67 168.19,-137.88 265.16,-137.88 13.27,0 30.68,15.52 52.28,45.83l5.3 5.3 5.68 0c44.32,-42.04 86.75,-67.04 127.66,-74.25l16.66 5.69c0,-15.53 28.79,-25.38 86.37,-29.17zm-92.05 40.15l0 6.45 40.15 0 0 -6.45 -40.15 0zm184.1 34.47l0 6.44c12.12,0 17.8,3.79 17.8,11.37l5.68 0 0 -11.37 -5.68 -6.44 -17.8 0zm34.47 6.44c0,7.58 6.06,11.37 17.8,11.37l5.68 0 0 -5.68 -23.48 -5.69zm28.79 0l6.81 16.67 22.35 0 -5.68 -16.67 -23.48 0zm41.29 16.67l10.98 12.12 5.68 0 -11.36 -12.12 -5.3 0zm-173.11 98.87l-28.79 -6.82 -81.07 75.76 5.31 28.79 0 45.45 -10.99 12.12 5.68 16.67 -5.68 104.17 10.99 115.53 -5.31 22.35 5.31 46.6 0 16.66c0,6.44 -18.94,18.56 -57.58,35.23l0 5.68 6.82 0 45.45 -17.8 0 5.68 -5.68 23.11c0,26.89 34.47,40.15 103.42,40.15l17.42 6.82 5.68 -6.82c73.11,-23.11 109.85,-51.52 109.85,-85.61 9.09,-2.65 16.67,-50.76 23.49,-144.32l-5.69 -34.09 0 -52.27 5.69 -52.28 -5.69 -23.11 5.69 -22.35c-20.83,-103.4 -59.47,-155.3 -115.53,-155.3l-12.13 -12.12 -16.66 12.12zm414.77 177.65l0 12.13 23.49 -12.13 0 -11.36 -23.49 11.36zm-104.16 92.05l23.48 -5.68 28.79 5.68 -11.36 -16.66 0 -5.69 29.17 -34.09 0 -6.82c-22.35,27.27 -41.67,40.91 -57.96,40.91l-12.12 22.35zm86.74 0l0 6.44 40.91 11.36 0 -11.36 -35.6 -6.44 -5.31 0zm-236.37 81.06l-5.68 5.31 0 12.5 5.68 0 12.13 -12.5 0 -5.31 -12.13 0zm-523.87 254.18l0 5.3 16.66 0 5.31 -5.3 0 -6.82 -5.31 0 -16.66 6.82zm-81.06 39.77l-17.81 23.49 12.12 0c0,-8.33 5.69,-12.5 16.67,-12.5l-10.98 -10.99zm265.16 437.13l5.67 0 28.79 -16.29 0 -11.37c-15.53,5.31 -26.89,14.4 -34.46,27.66zm-52.28 46.59l0 5.68 11.37 0 6.43 -5.68 0 -5.3 -17.8 5.3zm-28.79 34.47l0 5.68 23.49 -10.98 0 -11.37 -23.49 16.67zm-68.56 68.94l5.3 0 17.8 -16.66 5.69 0 0 -12.12 -28.79 28.78zm-29.17 23.49l5.68 0 17.81 -16.67 0 -6.82 -23.49 23.49zm109.1 -5.68l0 10.98 23.1 0 0 -5.3 -23.1 -5.68zm1260.26 -1442.83l16.66 0c58.71,0 122.73,25.75 192.05,76.51l76.52 93.56 16.67 -5.68 0 5.68c42.8,64.02 74.24,129.93 93.18,197.35 12.87,10.23 25.37,46.97 37.87,109.86l-4.54 16.66c10.6,0 19.32,31.06 26.52,93.18l-16.29 0c14.77,23.87 21.97,41.67 21.97,54.56l-5.68 32.95c6.81,0 16.29,16.29 28.03,48.87l-5.68 -5.31 -5.69 0 0 5.31c26.14,3.78 39.02,14.77 39.02,33.33 17.81,8.33 35.99,25 54.55,50l-82.2 93.18 -16.66 26.9 5.29 16.28 -5.29 16.67 5.29 28.03 -48.48 262.89 5.3 22.35c-17.8,62.12 -39.77,107.57 -66.66,136.36 0,67.43 -52.66,140.16 -158.34,218.57 -63.64,52.65 -109.86,80.31 -137.88,83.33l-43.18 -10.98 -27.66 5.3c-90.53,0 -179.92,-53.03 -268.56,-159.85l-76.53 -125.38c0,-32.58 -11.35,-63.64 -33.33,-93.19l5.31 -16.66 -15.54 -16.67 10.23 -15.53 0 -5.3c-25.37,0 -41.66,-69.7 -48.87,-208.72 -6.06,0 -9.84,-12.88 -11.35,-39.02l0 -32.19 5.68 -21.98 -5.68 -22.35 0 -5.68 5.68 -27.65 -93.19 -98.86 0 -9.85c58.34,-64.4 87.51,-102.66 87.51,-115.53 0,-67.81 18.18,-166.67 54.54,-296.22 22.35,-33.33 39.01,-75.38 50.01,-126.52 49.62,-86.37 95.07,-135.61 136.36,-147.35l-5.31 -5.68 0 -5.69c35.99,-54.54 78.42,-81.82 126.52,-81.82 8.71,-18.56 35.99,-28.02 81.83,-28.02zm-32.21 153.4l0 5.31 26.9 5.68 5.31 0 0 -5.68 -27.66 -5.31 -4.55 0zm48.87 10.99l0 10.99 28.03 5.68 10.99 0 0 -5.68 -39.02 -10.99zm-126.52 98.87l5.68 27.65 0 5.3 -10.98 11.36 5.3 43.19 -5.3 247.36 -4.54 37.87 4.54 5.69 0 5.29 -4.54 5.69 0 5.68 4.54 5.3 0 5.68 -4.54 5.31 0 5.68c5.3,23.86 35.98,64.02 92.04,120.83l0 5.69c-58.33,65.15 -87.5,106.82 -87.5,125.38l-4.54 104.55 4.54 21.97 -10.23 10.98 10.23 11.37 0 20.83 -4.54 5.68 4.54 5.68 0 5.31 -4.54 28.02 4.54 16.68 -4.54 21.96 4.54 136.37 0 5.68c0,7.58 -7.2,10.99 -21.22,10.99l0 11.36c17.81,0 26.52,16.29 26.52,48.87 18.56,76.89 55.3,115.15 109.86,115.15l28.02 0c56.82,0 98.87,-49.24 126.52,-147.35 -2.27,-18.56 -7.95,-28.03 -16.66,-28.03l10.98 -32.95 -10.98 -37.89 5.3 -22.35 -5.3 -120.83 5.3 -5.68 5.68 0 -10.98 -26.52 5.3 -50 -5.3 -44.32 5.3 -59.85c0,-16.29 -31.07,-59.85 -93.19,-131.06 62.12,-69.33 93.19,-111.74 93.19,-126.52l-5.3 -5.68 0 -5.31 16.66 -22.35c-11.36,-13.25 -16.66,-25.75 -16.66,-37.5l5.3 -83.33 -5.3 -65.53 5.3 -16.67 -5.3 -32.2 0 -49.99 5.3 -21.98c-3.41,-28.78 -20.07,-74.62 -50,-136.75l-5.3 0 -5.69 5.69c-16.28,-7.58 -39.78,-10.98 -70.84,-10.98l-5.67 0c-48.87,0 -85.61,21.58 -109.86,65.53l-5.68 0zm510.62 312.88l0 5.3 10.98 0 21.21 -5.3 0 -5.68 -9.84 0 -22.35 5.68zm-87.88 5.3l0 11.37 5.68 0 21.21 -16.67 -4.54 0 -22.35 5.3zm60.22 0l0 5.68 21.98 0 0 -5.68 -21.98 0zm-87.87 28.03l0 5.31 16.67 0c0,-7.2 5.67,-10.99 16.66,-10.99l0 -5.67 -5.68 0 -27.65 11.35zm-33.34 5.31l0 4.55 5.68 5.68 0 5.3 -5.68 5.68 0 10.98 5.68 0c0,-10.98 5.69,-16.66 16.67,-16.66l16.67 5.68 -27.65 -21.21 -11.37 0zm-37.5 26.9l5.31 0 11.36 -11.37 -5.69 0 -10.98 11.37zm203.04 49.62l0 5.68 21.21 5.68 5.3 0 0 -5.68 -20.83 -5.68 -5.68 0zm-576.15 60.22l0 10.99 22.34 -5.68 0 -5.31 -22.34 0zm-32.96 21.98l5.3 0 10.99 -10.99 -5.3 0 -10.99 10.99zm-76.89 16.66l0 5.69 5.68 0 27.65 -5.69 0 -10.98 -33.33 10.98zm-76.52 32.2l5.69 0 33.33 -10.99 0 -4.54 -5.69 0c-21.97,3.03 -33.33,8.33 -33.33,15.53zm11.36 466.3l10.99 10.98 5.3 0 0 -10.98 -16.29 0zm125.38 27.65c0,7.19 5.31,10.98 16.67,10.98l10.99 0 0 -5.68 -27.66 -5.3zm44.32 16.67c0,7.2 5.31,10.98 16.67,10.98l5.31 0 0 -5.68 -21.98 -5.3zm322.74 104.17l22.35 15.52 10.98 0 0 -5.29 -27.65 -10.23 -5.68 0zm39.02 15.52l0 11.37 5.68 0 10.98 -11.37 -16.66 0zm87.5 33.34l0 5.68 22.34 0 0 -5.68 -22.34 0zm-223.87 98.87l0 5.67 9.84 0 21.98 -5.67 0 -5.69 -10.99 0 -20.83 5.69zm1032.97 -1578.07l72.35 0c28.79,10.98 54.93,16.67 78.8,16.67 0,11.74 16.29,19.31 48.86,21.97l84.09 62.12c46.22,-32.95 76.14,-63.26 90.15,-89.78l5.31 0 0 60.99 5.68 5.69 0 6.44c-6.06,0 -11.36,7.57 -16.67,22.35 10.99,0 16.67,3.4 16.67,9.84l0 16.67 -5.68 6.82 5.68 5.68 0 5.3 -5.68 5.68 5.68 5.69 0 28.79 -5.68 32.19 5.68 5.3 0 5.69 -5.68 17.8 5.68 16.67 -10.99 9.84 10.99 10.99 -5.68 29.17 5.68 16.67 -10.99 21.97 10.99 10.98 -5.68 5.68 5.68 5.69 0 5.3 -5.68 106.82 0 5.3 -5.31 6.82 0 3.41 10.99 12.12 0 27.65 -16.67 23.48 16.67 26.52 0 10.99 -10.99 12.5 -151.13 0 -5.31 -6.82 -5.68 6.82 -27.65 0 -5.68 -6.82 -5.69 0 -5.29 6.82 -5.69 -17.81 5.69 -89.01 -5.69 -6.44 0 -3.41 10.98 -34.47 -10.98 -10.98 0 -23.49 10.98 0 0 -5.3 -10.98 -15.54 0 -5.67 10.98 -12.13c0,-82.19 -23.86,-139.77 -71.97,-173.11 0,-9.84 -33.71,-18.94 -101.14,-28.03l0 -4.16 -28.78 9.85 0 -5.69c-48.11,37.88 -71.97,92.05 -71.97,162.13l-10.23 10.98 0 11.37 4.54 39.77 -4.54 5.68 10.23 9.85 0 62.12 -10.23 0 4.54 28.03 0 16.67 -4.54 34.09 10.23 32.2 -5.69 5.68 5.69 6.82 0 10.98 -10.23 50 4.54 21.97 -4.54 0 10.23 44.33 0 22.35 -5.69 23.48c0,9.47 31.82,48.1 95.46,116.29 -14.77,24.62 -40.91,52.65 -78.79,84.47l-21.21 83.33 0 28.79 4.54 20.83 -4.54 22.35 10.23 23.11 -10.23 44.7 10.23 39.78 -10.23 10.98 -28.79 -10.98 -5.3 0 0 5.67c25.75,3.04 38.63,11.75 38.63,26.52l-4.54 34.47 10.23 44.32 -5.69 5.68 0 5.31c23.87,96.21 59.1,144.32 106.44,144.32l34.48 0c92.42,-39.02 138.63,-94.32 138.63,-165.15l5.69 -6.83 15.53 6.83 17.8 0 0 -6.83c-29.54,0 -44.31,-15.15 -44.31,-45.45l5.29 -5.68 -5.29 -32.2 5.29 -66.29 -5.29 -34.47 5.29 -5.68 11.37 0 9.85 10.98 17.8 -5.3 162.12 -5.68 0 16.66 -5.68 0 10.99 95.47 0 66.66 -10.99 17.81 10.99 15.52 -5.31 27.66 0 17.8 -17.79 0 0 -12.12 -9.85 0c0,11.74 7.19,17.8 21.96,17.8l5.68 5.31 0 5.68c-27.64,81.44 -75.76,142.43 -145.45,182.96 -46.59,59.85 -128.79,90.15 -246.22,90.15 -27.65,0 -84.85,-28.41 -172.35,-84.48 -49.24,-59.08 -88.64,-111.36 -117.42,-156.44l0 -10.98 5.67 -17.81 -5.67 0c-7.58,0 -24.25,-36.74 -50.01,-109.84l5.68 -5.69 -28.03 -34.47 -28.79 -116.67 -9.84 -66.29 4.54 -5.68 0 -5.68c0,-55.3 -33.33,-109.85 -100,-162.89l-16.67 -22.34 77.66 -94.32 17.8 -94.32 -5.68 -6.44c3.79,-44.7 9.46,-70.46 16.66,-78.03l-5.3 -23.11 10.99 -22.34 -5.69 -15.54c34.1,-159.09 65.54,-257.96 94.33,-297.36 2.27,-21.21 9.85,-32.19 22.35,-32.19l0 -12.12c0,-27.28 13.25,-49.62 39.77,-66.68 10.6,-42.04 47.34,-77.64 110.98,-106.43 3.79,-12.5 24.25,-23.49 60.99,-32.2 0,-19.32 31.82,-28.79 95.45,-28.79zm162.13 77.66l0 6.44 5.69 0c0,-11.75 5.29,-17.43 16.66,-17.43l5.3 -16.67 -5.3 0c-7.58,1.52 -14.77,10.6 -22.35,27.66zm-50 0l0 17.79 5.68 0 4.55 -17.79 -10.23 0zm-67.42 55.3l0 6.82 21.97 0 0 -6.82 -21.97 0zm0 17.8l-4.55 5.68 0 10.98 4.55 0 5.3 -16.66 -5.3 0zm-256.45 5.68l-5.69 5.69 0 5.29 5.69 0 16.66 -5.29 0 -5.69 -16.66 0zm234.09 10.98l-5.68 5.69 0 5.31 17.81 0 -12.13 -11zm-295.08 66.68l9.85 0 0 -10.99c10.99,0 16.67,-3.78 16.67,-11.36l-5.68 0 -20.84 22.35zm440.55 -5.69l0 5.69 26.51 12.12 0 -12.12 -21.22 -5.69 -5.29 0zm71.97 66.67l23.48 34.47 0 5.69 9.85 0 -4.55 -5.69 0 -5.68 4.55 -5.3 0 -5.68c-9.48,0 -20.83,-6.07 -33.33,-17.81zm-33.34 6.82l0 10.99 16.67 0 0 -5.69 -16.67 -5.3zm72.35 38.64l0 10.23 10.98 0c0,11.74 6.07,17.42 17.81,17.42l0 11.37 10.98 0 -28.79 -39.02 -10.98 0zm71.97 50l0 23.48 12.13 0c7.57,0 11.35,-6.06 11.35,-17.8l0 -5.68 -5.68 0 0 12.12 -12.11 0 0 -12.12 -5.69 0zm-562.51 798.88c0,9.85 -11.36,18.94 -34.47,28.03l0 10.99 39.78 -33.34 0 -5.68 -5.31 0zm10.98 33.34l-5.67 16.66 39.01 0 0 -5.3 -22.35 -11.36 -10.99 0zm55.69 5.68l-5.68 5.68 0 5.3 28.79 11.36 5.68 0 0 -5.67 -28.79 -16.67zm-139.02 16.67c-7.96,17.04 -15.91,26.51 -23.1,28.79l0 -5.69 -16.67 5.69 0 9.84 5.67 -4.17 11 0 5.67 4.17 5.31 0c0,-14.01 9.85,-22.73 28.79,-26.51l0 -6.45 -16.67 -5.67zm-60.99 44.31l0 16.67 21.22 -10.98 -5.68 -5.69 0 -5.68 -15.54 5.68zm573.88 56.82l0 5.3 16.67 0 0 -10.98 -16.67 5.68zm23.11 21.97l0 5.68 16.66 5.31 0 -10.99 -16.66 0zm21.21 5.68l0 10.99 27.65 0 0 -5.68 -27.65 -5.31zm957.97 -1371.62l16.29 0c40.15,0 83.34,39.02 129.92,117.43l13.27 41.29 -7.58 0c-20.08,-31.82 -49.24,-47.73 -87.88,-47.73 -19.7,0 -35.61,11.75 -47.73,35.23l24.62 129.92c-7.58,0 -10.98,6.06 -10.98,17.81l-5.68 -6.82 -7.96 0 0 30.3 7.96 0 5.68 -23.48 10.98 0c32.58,290.16 65.91,435.24 100.01,435.24l10.98 35.23c13.25,0 37.5,17.42 71.97,52.26l0 6.83c-32.58,38.25 -56.44,73.87 -71.97,106.43l107.57 623.51c11.75,31.06 29.17,46.58 52.28,46.58l17.8 0c21.97,0 45.84,-15.52 70.84,-46.58l5.68 5.68c-68.18,93.94 -132.96,140.91 -194.32,140.91l-70.83 -40.91 -11.37 0c-47.35,31.06 -80.68,46.59 -99.62,46.59l-24.62 0c-54.55,0 -105.31,-39.77 -151.9,-118.94l5.3 0c43.18,20.08 76.52,29.93 100,29.93 23.87,-2.28 35.61,-17.81 35.61,-46.6l-16.67 -94.32 33.33 -23.1 -5.67 0 -27.66 12.12 -7.96 -6.82 0 -69.7c-18.93,0 -32.57,-59.09 -40.9,-176.52l-5.68 -5.68 0 -5.3 -58.72 0 -64.39 -5.69 -17.81 5.69 -82.95 -18.94c0,9.47 -15.54,15.91 -46.6,18.94 -23.1,130.68 -44.7,226.51 -64.39,287.13l-5.68 87.88c7.2,23.48 22.73,35.6 46.59,35.6 18.56,0 38.26,-8.33 58.71,-24.62l0 13.25c-16.29,36.37 -54.92,71.6 -116.28,105.69l-24.63 0c-32.57,0 -65.91,-17.43 -100,-52.28l-5.31 0c-34.84,31.07 -66.29,46.6 -94.31,46.6l-24.62 0c-93.95,-23.87 -140.92,-61.37 -140.92,-113.26 26.14,16.29 51.52,24.62 76.52,24.62 43.94,0 75.38,-35.22 94.32,-105.68l5.68 0 -5.68 -6.45 0 -17.79 53.41 -145.46 -6.44 -5.69 0 -13.25 23.1 -99.63 -5.68 -5.68 52.28 -187.5 -5.69 -6.82 0 -5.31c6.82,-8.33 13.27,-35.6 18.94,-82.2 -10.23,-28.78 -34.08,-64.39 -70.83,-106.43 6.44,-17.81 35.98,-47.35 87.5,-89.02l42.43 -58.71c0,-34.85 18.93,-60.23 57.57,-76.52l0 -5.68 -16.66 -5.69c-3.03,20.08 -9.09,30.31 -18.94,30.31l-5.68 0 0 -13.64c51.14,-188.64 76.89,-303.8 76.89,-346.21l12.12 -46.6c0,-55.3 -21.59,-83.34 -64.39,-83.34l-53.41 23.49 0 -5.68c46.59,-77.66 90.15,-116.29 129.92,-116.29 0,-9.09 9.48,-13.26 28.79,-13.26l0 6.44 5.69 -6.44 13.25 0 0 13.26 10.99 0 0 -13.26c49.62,0 100.38,25.38 152.28,76.51 49.62,-62.12 92.8,-93.18 129.92,-93.18zm-270.84 63.26l0 7.58 5.31 0 18.93 -7.58 0 -5.68 -7.57 0 -16.67 5.68zm-46.59 59.85l0 5.3 5.3 0 24.62 -23.1 -5.68 0c-16.28,6.82 -24.24,12.5 -24.24,17.8zm258.34 265.16l0 10.98c17.8,-4.92 41.28,-22.35 70.07,-51.89l-5.67 0c-16.29,4.17 -33.72,18.18 -52.28,40.91l-12.12 0zm-40.91 40.91l5.68 0 23.11 -12.12 0 -12.12 -5.68 0 -23.11 24.24zm-76.52 47.73l5.31 0c17.8,-7.96 28.02,-16.29 29.92,-24.25l0 -5.68c-23.48,12.12 -35.23,21.97 -35.23,29.93zm-11.36 -13.26l-12.12 24.62 12.12 0 5.68 -18.94 0 -5.68 -5.68 0zm63.26 18.94l18.94 16.67 34.47 -5.69 0 11.37 18.94 0c0,-11.37 -10.23,-16.67 -29.93,-16.67l0 -5.68 -6.81 5.68 -5.31 0 -30.3 -5.68zm-192.81 64.39l0 10.99 99.62 -58.71 0 -5.69 -12.12 0 -87.5 53.41zm129.55 -53.41c-8.72,70.46 -22.73,105.69 -42.05,105.69l5.68 5.3 -16.66 89.02 5.3 17.8c-19.7,46.6 -43.56,130.69 -70.83,253.04l-5.69 6.43c12.5,0 18.94,6.07 18.94,17.81l5.68 5.69 5.31 0 22.35 -5.69 118.56 10.98c0,-7.19 12.12,-10.98 35.61,-10.98l-35.61 -259.47 5.68 -17.81c-31.06,-97.72 -46.59,-170.46 -46.59,-217.81l-5.68 0zm146.59 11.37l18.94 18.56 5.68 -5.3 0 -7.96 -24.62 -5.3zm41.29 24.24l16.29 17.8 0 -6.81 -10.98 -10.99 -5.31 0zm29.93 23.49l0 5.3 23.1 6.82c0,-8.33 -5.68,-12.12 -17.8,-12.12l-5.3 0zm-400.77 23.1l0 17.81 23.48 -17.81 0 -5.3 -23.48 5.3zm-112.12 706.84l0 12.5 17.8 -6.82 0 -5.68 -17.8 0zm-40.92 12.5l0 5.3 6.44 0 22.35 -5.3 0 -6.82 -10.98 0 -17.81 6.82zm-34.47 5.3l-5.67 5.68 0 5.68 5.67 0 16.68 -5.68 0 -5.68 -16.68 0zm670.09 76.52l0 11.36 17.81 -5.68 0 -10.99 -17.81 5.31zm-17.42 41.29l5.31 0 41.29 -12.13 0 -12.5c-31.07,6.82 -46.6,14.78 -46.6,24.63zm-53.41 10.98l0 5.68 12.12 0 0 -16.66 -12.12 10.98zm-16.66 5.68l-7.96 17.81 13.64 0 0 -17.81 -5.68 0zm28.78 53.04l17.81 17.8 0 -6.45 -12.12 -11.35 -5.69 0zm17.81 23.48l0 6.44 23.48 11.36 0 -17.8 -23.48 0zm34.46 23.11l18.95 30.3 10.98 0 0 -18.94 -23.49 -11.36 -6.44 0zm106.45 71.21l0 5.68c10.23,19.7 26.14,29.93 47.72,29.93l-47.72 -35.61zm1349.27 -1607.99l72.35 0c28.79,10.98 54.92,16.67 78.79,16.67 0,11.74 16.29,19.31 48.87,21.97l84.09 62.12c46.21,-32.95 76.14,-63.26 90.15,-89.78l5.3 0 0 60.99 5.69 5.69 0 6.44c-6.07,0 -11.37,7.57 -16.67,22.35 10.98,0 16.67,3.4 16.67,9.84l0 16.67 -5.69 6.82 5.69 5.68 0 5.3 -5.69 5.68 5.69 5.69 0 28.79 -5.69 32.19 5.69 5.3 0 5.69 -5.69 17.8 5.69 16.67 -10.99 9.84 10.99 10.99 -5.69 29.17 5.69 16.67 -10.99 21.97 10.99 10.98 -5.69 5.68 5.69 5.69 0 5.3 -5.69 106.82 0 5.3 -5.3 6.82 0 3.41 10.99 12.12 0 27.65 -16.67 23.48 16.67 26.52 0 10.99 -10.99 12.5 -151.14 0 -5.3 -6.82 -5.68 6.82 -27.66 0 -5.68 -6.82 -5.68 0 -5.3 6.82 -5.69 -17.81 5.69 -89.01 -5.69 -6.44 0 -3.41 10.99 -34.47 -10.99 -10.98 0 -23.49 10.99 0 0 -5.3 -10.99 -15.54 0 -5.67 10.99 -12.13c0,-82.19 -23.87,-139.77 -71.97,-173.11 0,-9.84 -33.72,-18.94 -101.14,-28.03l0 -4.16 -28.79 9.85 0 -5.69c-48.11,37.88 -71.97,92.05 -71.97,162.13l-10.23 10.98 0 11.37 4.55 39.77 -4.55 5.68 10.23 9.85 0 62.12 -10.23 0 4.55 28.03 0 16.67 -4.55 34.09 10.23 32.2 -5.68 5.68 5.68 6.82 0 10.98 -10.23 50 4.55 21.97 -4.55 0 10.23 44.33 0 22.35 -5.68 23.48c0,9.47 31.81,48.1 95.45,116.29 -14.77,24.62 -40.91,52.65 -78.78,84.47l-21.22 83.33 0 28.79 4.55 20.83 -4.55 22.35 10.23 23.11 -10.23 44.7 10.23 39.78 -10.23 10.98 -28.79 -10.98 -5.3 0 0 5.67c25.76,3.04 38.64,11.75 38.64,26.52l-4.55 34.47 10.23 44.32 -5.68 5.68 0 5.31c23.86,96.21 59.09,144.32 106.44,144.32l34.47 0c92.42,-39.02 138.64,-94.32 138.64,-165.15l5.68 -6.83 15.53 6.83 17.81 0 0 -6.83c-29.55,0 -44.32,-15.15 -44.32,-45.45l5.3 -5.68 -5.3 -32.2 5.3 -66.29 -5.3 -34.47 5.3 -5.68 11.36 0 9.85 10.98 17.81 -5.3 162.12 -5.68 0 16.66 -5.68 0 10.98 95.47 0 66.66 -10.98 17.81 10.98 15.52 -5.3 27.66 0 17.8 -17.8 0 0 -12.12 -9.85 0c0,11.74 7.2,17.8 21.97,17.8l5.68 5.31 0 5.68c-27.65,81.44 -75.76,142.43 -145.46,182.96 -46.59,59.85 -128.79,90.15 -246.22,90.15 -27.64,0 -84.84,-28.41 -172.35,-84.48 -49.24,-59.08 -88.64,-111.36 -117.42,-156.44l0 -10.98 5.68 -17.81 -5.68 0c-7.58,0 -24.25,-36.74 -50,-109.84l5.68 -5.69 -28.03 -34.47 -28.79 -116.67 -9.85 -66.29 4.54 -5.68 0 -5.68c0,-55.3 -33.33,-109.85 -99.99,-162.89l-16.67 -22.34 77.65 -94.32 17.8 -94.32 -5.68 -6.44c3.79,-44.7 9.47,-70.46 16.66,-78.03l-5.29 -23.11 10.98 -22.34 -5.69 -15.54c34.1,-159.09 65.54,-257.96 94.33,-297.36 2.27,-21.21 9.85,-32.19 22.35,-32.19l0 -12.12c0,-27.28 13.25,-49.62 39.77,-66.68 10.61,-42.04 47.35,-77.64 110.98,-106.43 3.79,-12.5 24.25,-23.49 60.99,-32.2 0,-19.32 31.82,-28.79 95.46,-28.79zm162.12 77.66l0 6.44 5.69 0c0,-11.75 5.3,-17.43 16.66,-17.43l5.31 -16.67 -5.31 0c-7.57,1.52 -14.77,10.6 -22.35,27.66zm-50 0l0 17.79 5.69 0 4.54 -17.79 -10.23 0zm-67.42 55.3l0 6.82 21.97 0 0 -6.82 -21.97 0zm0 17.8l-4.55 5.68 0 10.98 4.55 0 5.3 -16.66 -5.3 0zm-256.45 5.68l-5.68 5.69 0 5.29 5.68 0 16.67 -5.29 0 -5.69 -16.67 0zm234.09 10.98l-5.67 5.69 0 5.31 17.8 0 -12.13 -11zm-295.07 66.68l9.85 0 0 -10.99c10.98,0 16.67,-3.78 16.67,-11.36l-5.69 0 -20.83 22.35zm440.54 -5.69l0 5.69 26.51 12.12 0 -12.12 -21.21 -5.69 -5.3 0zm71.97 66.67l23.49 34.47 0 5.69 9.84 0 -4.55 -5.69 0 -5.68 4.55 -5.3 0 -5.68c-9.47,0 -20.83,-6.07 -33.33,-17.81zm-33.34 6.82l0 10.99 16.67 0 0 -5.69 -16.67 -5.3zm72.35 38.64l0 10.23 10.99 0c0,11.74 6.06,17.42 17.8,17.42l0 11.37 10.99 0 -28.79 -39.02 -10.99 0zm71.97 50l0 23.48 12.13 0c7.58,0 11.36,-6.06 11.36,-17.8l0 -5.68 -5.68 0 0 12.12 -12.12 0 0 -12.12 -5.69 0zm-562.51 798.88c0,9.85 -11.36,18.94 -34.46,28.03l0 10.99 39.77 -33.34 0 -5.68 -5.31 0zm10.99 33.34l-5.68 16.66 39.01 0 0 -5.3 -22.35 -11.36 -10.98 0zm55.68 5.68l-5.68 5.68 0 5.3 28.79 11.36 5.68 0 0 -5.67 -28.79 -16.67zm-139.02 16.67c-7.96,17.04 -15.9,26.51 -23.1,28.79l0 -5.69 -16.67 5.69 0 9.84 5.68 -4.17 10.99 0 5.68 4.17 5.3 0c0,-14.01 9.85,-22.73 28.79,-26.51l0 -6.45 -16.67 -5.67zm-60.98 44.31l0 16.67 21.21 -10.98 -5.68 -5.69 0 -5.68 -15.53 5.68zm573.87 56.82l0 5.3 16.67 0 0 -10.98 -16.67 5.68zm23.11 21.97l0 5.68 16.66 5.31 0 -10.99 -16.66 0zm21.21 5.68l0 10.99 27.66 0 0 -5.68 -27.66 -5.31zm660.25 -1380.7l16.66 0c58.71,0 122.73,25.75 192.05,76.51l76.51 93.56 16.67 -5.68 0 5.68c42.8,64.02 74.25,129.93 93.19,197.35 12.87,10.23 25.37,46.97 37.87,109.86l-4.54 16.66c10.6,0 19.32,31.06 26.52,93.18l-16.29 0c14.77,23.87 21.97,41.67 21.97,54.56l-5.68 32.95c6.81,0 16.29,16.29 28.03,48.87l-5.68 -5.31 -5.69 0 0 5.31c26.14,3.78 39.02,14.77 39.02,33.33 17.81,8.33 35.99,25 54.55,50l-82.2 93.18 -16.67 26.9 5.3 16.28 -5.3 16.67 5.3 28.03 -48.49 262.89 5.31 22.35c-17.81,62.12 -39.77,107.57 -66.66,136.36 0,67.43 -52.66,140.16 -158.34,218.57 -63.64,52.65 -109.86,80.31 -137.89,83.33l-43.18 -10.98 -27.65 5.3c-90.53,0 -179.93,-53.03 -268.57,-159.85l-76.52 -125.38c0,-32.58 -11.35,-63.64 -33.33,-93.19l5.31 -16.66 -15.54 -16.67 10.23 -15.53 0 -5.3c-25.37,0 -41.66,-69.7 -48.87,-208.72 -6.06,0 -9.85,-12.88 -11.35,-39.02l0 -32.19 5.67 -21.98 -5.67 -22.35 0 -5.68 5.67 -27.65 -93.18 -98.86 0 -9.85c58.33,-64.4 87.51,-102.66 87.51,-115.53 0,-67.81 18.17,-166.67 54.54,-296.22 22.35,-33.33 39.01,-75.38 50,-126.52 49.63,-86.37 95.08,-135.61 136.37,-147.35l-5.31 -5.68 0 -5.69c35.99,-54.54 78.41,-81.82 126.52,-81.82 8.71,-18.56 35.98,-28.02 81.83,-28.02zm-32.21 153.4l0 5.31 26.9 5.68 5.31 0 0 -5.68 -27.66 -5.31 -4.55 0zm48.87 10.99l0 10.99 28.03 5.68 10.99 0 0 -5.68 -39.02 -10.99zm-126.52 98.87l5.68 27.65 0 5.3 -10.98 11.36 5.3 43.19 -5.3 247.36 -4.55 37.87 4.55 5.69 0 5.29 -4.55 5.69 0 5.68 4.55 5.3 0 5.68 -4.55 5.31 0 5.68c5.31,23.86 35.99,64.02 92.05,120.83l0 5.69c-58.33,65.15 -87.5,106.82 -87.5,125.38l-4.55 104.55 4.55 21.97 -10.23 10.98 10.23 11.37 0 20.83 -4.55 5.68 4.55 5.68 0 5.31 -4.55 28.02 4.55 16.68 -4.55 21.96 4.55 136.37 0 5.68c0,7.58 -7.2,10.99 -21.22,10.99l0 11.36c17.81,0 26.52,16.29 26.52,48.87 18.56,76.89 55.3,115.15 109.86,115.15l28.02 0c56.82,0 98.86,-49.24 126.52,-147.35 -2.27,-18.56 -7.95,-28.03 -16.66,-28.03l10.98 -32.95 -10.98 -37.89 5.29 -22.35 -5.29 -120.83 5.29 -5.68 5.69 0 -10.98 -26.52 5.29 -50 -5.29 -44.32 5.29 -59.85c0,-16.29 -31.06,-59.85 -93.18,-131.06 62.12,-69.33 93.18,-111.74 93.18,-126.52l-5.29 -5.68 0 -5.31 16.66 -22.35c-11.37,-13.25 -16.66,-25.75 -16.66,-37.5l5.29 -83.33 -5.29 -65.53 5.29 -16.67 -5.29 -32.2 0 -49.99 5.29 -21.98c-3.4,-28.78 -20.07,-74.62 -49.99,-136.75l-5.31 0 -5.68 5.69c-16.28,-7.58 -39.78,-10.98 -70.84,-10.98l-5.68 0c-48.86,0 -85.6,21.58 -109.85,65.53l-5.68 0zm510.62 312.88l0 5.3 10.98 0 21.21 -5.3 0 -5.68 -9.85 0 -22.34 5.68zm-87.88 5.3l0 11.37 5.68 0 21.21 -16.67 -4.54 0 -22.35 5.3zm60.22 0l0 5.68 21.98 0 0 -5.68 -21.98 0zm-87.88 28.03l0 5.31 16.67 0c0,-7.2 5.68,-10.99 16.67,-10.99l0 -5.67 -5.68 0 -27.66 11.35zm-33.33 5.31l0 4.55 5.68 5.68 0 5.3 -5.68 5.68 0 10.98 5.68 0c0,-10.98 5.69,-16.66 16.67,-16.66l16.67 5.68 -27.65 -21.21 -11.37 0zm-37.5 26.9l5.3 0 11.37 -11.37 -5.69 0 -10.98 11.37zm203.04 49.62l0 5.68 21.21 5.68 5.3 0 0 -5.68 -20.84 -5.68 -5.67 0zm-576.16 60.22l0 10.99 22.35 -5.68 0 -5.31 -22.35 0zm-32.95 21.98l5.3 0 10.99 -10.99 -5.3 0 -10.99 10.99zm-76.89 16.66l0 5.69 5.68 0 27.65 -5.69 0 -10.98 -33.33 10.98zm-76.52 32.2l5.68 0 33.34 -10.99 0 -4.54 -5.69 0c-21.97,3.03 -33.33,8.33 -33.33,15.53zm11.36 466.3l10.99 10.98 5.3 0 0 -10.98 -16.29 0zm125.38 27.65c0,7.19 5.31,10.98 16.67,10.98l10.99 0 0 -5.68 -27.66 -5.3zm44.32 16.67c0,7.2 5.3,10.98 16.67,10.98l5.3 0 0 -5.68 -21.97 -5.3zm322.74 104.17l22.35 15.52 10.98 0 0 -5.29 -27.65 -10.23 -5.68 0zm39.02 15.52l0 11.37 5.68 0 10.98 -11.37 -16.66 0zm87.49 33.34l0 5.68 22.35 0 0 -5.68 -22.35 0zm-223.87 98.87l0 5.67 9.85 0 21.98 -5.67 0 -5.69 -10.99 0 -20.84 5.69zm935.64 -1584.88c85.6,0 156.82,51.89 212.88,155.3l-5.69 0c-23.48,-18.94 -46.96,-28.79 -69.69,-28.79l-10.99 0c-43.94,0 -68.94,23.49 -75.76,70.08l6.82 45.45 -6.82 121.98 -10.98 10.98 5.68 5.68 0 5.69 -11.37 12.11 11.37 16.68 -5.68 28.78 10.98 12.12 -10.98 11.37 10.98 40.91 -10.98 28.79 10.98 11.36 0 10.99 -5.3 23.1 5.3 23.48 0 5.31 -10.98 17.81 0 5.67 34.47 97.73c13.25,0 36.36,21.21 68.94,64.4 -65.15,76.13 -97.73,123.87 -97.73,143.18l-5.68 35.23 10.98 45.83 -5.3 80.69 5.3 63.26 -10.98 12.5 0 5.3 10.98 16.67 -5.3 35.61 5.3 74.24 0 12.12 -10.98 16.67 10.98 12.5 -5.3 5.3 0 5.68 12.12 10.99 0 52.27c0,76.9 36.36,115.54 108.72,115.54 66.66,0 124.24,-63.27 173.11,-189.78l5.68 -64.4 -11.37 -34.46 0 -5.69 29.17 0 0 -10.98 -5.69 5.68 -6.81 0 -21.97 -12.5 5.3 -34.09 -5.3 -103.42c2.27,-23.48 7.58,-35.6 16.67,-35.6l28.79 0 12.11 12.5 5.69 -5.69 57.57 5.69 92.05 -12.5 5.69 6.81 -5.69 115.54 0 28.79 -12.12 10.98c11.75,45.08 17.81,93.19 17.81,144.32 -17.81,84.47 -40.54,139.78 -68.95,166.3 -42.8,73.49 -79.54,109.84 -109.84,109.84 0,18.57 -30.69,32.2 -92.05,41.3l-17.81 -6.82c0,23.86 -55.31,35.6 -166.29,35.6 -53.41,0 -120.83,-23.48 -201.9,-70.08l-12.5 12.51 -5.3 -6.82 -5.68 0 -39.78 12.12c-75,0 -159.47,-32.96 -254.17,-98.49l-5.68 -5.68 0 -10.98 5.68 0 92.05 16.66c42.05,-14.39 63.26,-39.01 63.26,-74.62 0,-15.53 4.16,-23.1 12.12,-23.1l-5.69 -28.79 11.37 -16.67 -11.37 -17.8 0 -23.49 5.69 -28.79 -5.69 -5.68 -6.43 0 6.43 -57.57 0 -97.74 5.69 -5.3 -5.69 -17.8 -6.43 -104.55 6.43 -34.1 -6.43 -29.16 6.43 -45.46c0,-35.98 -28.78,-82.57 -86.36,-138.63 48.11,-53.41 80.69,-103.04 97.73,-149.63 -12.12,-27.66 -17.8,-54.55 -17.8,-81.07l12.12 -63.25 -12.12 -70.08 12.12 -74.24 -5.69 -23.49 0 -5.3 5.69 -5.68 0 -6.82 -12.12 -10.99 0 -68.94c-11.74,-81.06 -38.64,-121.97 -79.93,-121.97l-12.12 0c-17.05,0 -38.26,11.74 -63.26,35.61l-5.68 -6.82c16.29,-43.56 45.08,-78.04 86.74,-103.03l5.31 0 23.48 10.98 5.31 0 0 -5.3 -23.11 -5.68c34.09,-31.06 76.52,-46.6 127.66,-46.6 35.98,0 70.45,17.43 103.03,52.28 34.08,-38.64 68.93,-57.95 104.55,-57.95zm-265.55 81.05l11.37 10.99 5.31 0 -10.99 -10.99 -5.69 0zm45.84 16.67l0 12.12 17.42 5.69 0 -10.99 -17.42 -6.82zm57.58 28.79l0 6.82 17.8 5.3 0 -12.12 -17.8 0zm34.47 12.12l0 5.69 23.11 0 0 -5.69 -23.11 0zm115.16 265.54l5.67 0 12.13 -11.36 -5.3 0 -12.5 11.36zm-63.26 57.57l0 5.69 11.36 -11.37 0 -5.3 -11.36 10.98zm-46.6 28.79l0 5.69 17.81 -16.67 -5.31 0 -12.5 10.98zm23.49 40.16l0 6.44 17.8 -17.81 -5.68 0 -12.12 11.37zm-79.92 17.8l-12.13 17.42 12.13 0 5.67 -17.42 -5.67 0zm-40.92 46.59l0 5.31 12.13 -12.13 0 -5.68 -12.13 12.5zm17.42 10.98l5.69 0 10.98 -10.98 -5.3 0 -11.37 10.98zm720.48 507.21l0 6.44 10.98 -12.12 0 -5.68 -10.98 11.36zm-109.86 -5.68l0 12.12 17.81 -6.44 0 -5.68 -17.81 0zm40.91 70.08l0 10.99c37.89,-14.02 58.72,-27.27 63.27,-40.16l-5.69 0c-20.45,19.32 -39.77,29.17 -57.58,29.17zm-501.52 230.69l0 5.68 5.68 0c29.54,-5.3 56.44,-16.67 80.68,-34.47l-5.29 0c-40.16,19.32 -67.05,28.79 -81.07,28.79zm-40.91 16.66l0 5.69 12.12 0 16.67 -5.69 0 -5.68 -11.36 0 -17.43 5.68zm-34.47 12.13l-5.68 4.54 0 6.82 17.8 0 -12.12 -11.36zm-29.17 4.54l-5.3 6.82 0 5.3 5.3 0 17.81 -5.3 0 -6.82 -17.81 0zm-28.79 17.81l6.83 0 10.98 -10.99 -5.31 0 -12.5 10.99zm432.97 81.06l10.98 10.98 5.68 0 -10.98 -10.98 -5.68 0zm39.77 16.66l12.5 12.12 5.31 0 -12.13 -12.12 -5.68 0zm70.07 35.23l0 5.68 39.78 5.69 0 -11.37 -39.78 0zm727.68 -1592.45l16.66 0c58.72,0 122.73,25.75 192.06,76.51l76.51 93.56 16.67 -5.68 0 5.68c42.8,64.02 74.24,129.93 93.18,197.35 12.88,10.23 25.38,46.97 37.88,109.86l-4.54 16.66c10.6,0 19.31,31.06 26.52,93.18l-16.29 0c14.77,23.87 21.96,41.67 21.96,54.56l-5.67 32.95c6.81,0 16.28,16.29 28.02,48.87l-5.68 -5.31 -5.68 0 0 5.31c26.14,3.78 39.02,14.77 39.02,33.33 17.8,8.33 35.98,25 54.54,50l-82.2 93.18 -16.66 26.9 5.3 16.28 -5.3 16.67 5.3 28.03 -48.49 262.89 5.31 22.35c-17.81,62.12 -39.78,107.57 -66.67,136.36 0,67.43 -52.65,140.16 -158.34,218.57 -63.64,52.65 -109.85,80.31 -137.88,83.33l-43.18 -10.98 -27.65 5.3c-90.53,0 -179.93,-53.03 -268.57,-159.85l-76.52 -125.38c0,-32.58 -11.36,-63.64 -33.33,-93.19l5.3 -16.66 -15.53 -16.67 10.23 -15.53 0 -5.3c-25.38,0 -41.67,-69.7 -48.87,-208.72 -6.06,0 -9.85,-12.88 -11.36,-39.02l0 -32.19 5.68 -21.98 -5.68 -22.35 0 -5.68 5.68 -27.65 -93.18 -98.86 0 -9.85c58.33,-64.4 87.5,-102.66 87.5,-115.53 0,-67.81 18.18,-166.67 54.55,-296.22 22.35,-33.33 39.01,-75.38 50,-126.52 49.62,-86.37 95.07,-135.61 136.37,-147.35l-5.31 -5.68 0 -5.69c35.99,-54.54 78.41,-81.82 126.52,-81.82 8.71,-18.56 35.98,-28.02 81.82,-28.02zm-32.2 153.4l0 5.31 26.9 5.68 5.3 0 0 -5.68 -27.65 -5.31 -4.55 0zm48.86 10.99l0 10.99 28.04 5.68 10.98 0 0 -5.68 -39.02 -10.99zm-126.51 98.87l5.68 27.65 0 5.3 -10.99 11.36 5.31 43.19 -5.31 247.36 -4.54 37.87 4.54 5.69 0 5.29 -4.54 5.69 0 5.68 4.54 5.3 0 5.68 -4.54 5.31 0 5.68c5.31,23.86 35.99,64.02 92.05,120.83l0 5.69c-58.34,65.15 -87.51,106.82 -87.51,125.38l-4.54 104.55 4.54 21.97 -10.23 10.98 10.23 11.37 0 20.83 -4.54 5.68 4.54 5.68 0 5.31 -4.54 28.02 4.54 16.68 -4.54 21.96 4.54 136.37 0 5.68c0,7.58 -7.19,10.99 -21.21,10.99l0 11.36c17.81,0 26.52,16.29 26.52,48.87 18.56,76.89 55.3,115.15 109.85,115.15l28.03 0c56.82,0 98.86,-49.24 126.52,-147.35 -2.28,-18.56 -7.95,-28.03 -16.67,-28.03l10.99 -32.95 -10.99 -37.89 5.3 -22.35 -5.3 -120.83 5.3 -5.68 5.69 0 -10.99 -26.52 5.3 -50 -5.3 -44.32 5.3 -59.85c0,-16.29 -31.06,-59.85 -93.18,-131.06 62.12,-69.33 93.18,-111.74 93.18,-126.52l-5.3 -5.68 0 -5.31 16.67 -22.35c-11.37,-13.25 -16.67,-25.75 -16.67,-37.5l5.3 -83.33 -5.3 -65.53 5.3 -16.67 -5.3 -32.2 0 -49.99 5.3 -21.98c-3.41,-28.78 -20.07,-74.62 -49.99,-136.75l-5.31 0 -5.69 5.69c-16.28,-7.58 -39.77,-10.98 -70.83,-10.98l-5.68 0c-48.87,0 -85.61,21.58 -109.85,65.53l-5.68 0zm510.61 312.88l0 5.3 10.99 0 21.21 -5.3 0 -5.68 -9.85 0 -22.35 5.68zm-87.87 5.3l0 11.37 5.67 0 21.22 -16.67 -4.55 0 -22.34 5.3zm60.22 0l0 5.68 21.97 0 0 -5.68 -21.97 0zm-87.88 28.03l0 5.31 16.67 0c0,-7.2 5.68,-10.99 16.66,-10.99l0 -5.67 -5.67 0 -27.66 11.35zm-33.33 5.31l0 4.55 5.68 5.68 0 5.3 -5.68 5.68 0 10.98 5.68 0c0,-10.98 5.68,-16.66 16.67,-16.66l16.67 5.68 -27.66 -21.21 -11.36 0zm-37.5 26.9l5.3 0 11.37 -11.37 -5.69 0 -10.98 11.37zm203.03 49.62l0 5.68 21.22 5.68 5.29 0 0 -5.68 -20.83 -5.68 -5.68 0zm-576.15 60.22l0 10.99 22.35 -5.68 0 -5.31 -22.35 0zm-32.95 21.98l5.3 0 10.99 -10.99 -5.31 0 -10.98 10.99zm-76.89 16.66l0 5.69 5.67 0 27.66 -5.69 0 -10.98 -33.33 10.98zm-76.53 32.2l5.69 0 33.33 -10.99 0 -4.54 -5.68 0c-21.97,3.03 -33.34,8.33 -33.34,15.53zm11.37 466.3l10.98 10.98 5.31 0 0 -10.98 -16.29 0zm125.38 27.65c0,7.19 5.31,10.98 16.67,10.98l10.98 0 0 -5.68 -27.65 -5.3zm44.32 16.67c0,7.2 5.3,10.98 16.67,10.98l5.3 0 0 -5.68 -21.97 -5.3zm322.74 104.17l22.34 15.52 10.99 0 0 -5.29 -27.66 -10.23 -5.67 0zm39.01 15.52l0 11.37 5.68 0 10.99 -11.37 -16.67 0zm87.5 33.34l0 5.68 22.35 0 0 -5.68 -22.35 0zm-223.87 98.87l0 5.67 9.85 0 21.98 -5.67 0 -5.69 -11 0 -20.83 5.69zm756.84 -1588.3l10.99 11.37 12.12 -11.37 29.17 17.81 0 -6.44c76.13,35.98 116.28,61.36 120.83,75.38 21.59,0 37.12,13.26 46.59,39.77 10.99,0 16.66,7.95 16.66,23.49 24.25,0 43.57,28.79 57.58,86.36l-5.3 17.81 5.3 -5.31 5.69 0c23.48,25.76 64.39,144.7 121.97,357.21l28.79 75.38 -6.44 5.68 0 5.68c15.53,20.46 42.42,101.52 81.06,242.81l5.3 0 12.5 -138.64 -5.67 -23.49 0 -23.1 10.98 -10.98 -10.98 -23.49 5.67 -28.79 -5.67 -46.59 5.67 -5.68 0 -5.31 -12.5 -34.47 17.81 -17.8 -17.81 0 0 -92.05c0,-45.08 4.17,-75.76 12.5,-92.05l-12.5 -52.27 6.83 -5.68 -6.83 -28.79 6.83 -28.79 -6.83 -28.79 6.83 -17.8c-8.34,-73.48 -33.34,-109.85 -75.39,-109.85 -14.77,0 -43.93,13.64 -86.74,40.91l-5.31 -6.44 0 -5.68c49.25,-61.37 95.46,-98.11 138.65,-109.86 0,-7.57 5.29,-10.98 16.66,-10.98l17.8 5.31 0 -5.31 16.29 -17.8 23.49 0c25.75,0 51.14,13.63 75.38,40.9 26.89,-22.72 49.62,-34.46 68.94,-34.46l23.1 5.67 34.48 -5.67 93.18 45.46 -6.44 17.79 6.44 -5.3 5.68 0c37.88,36.75 58.72,63.64 63.26,79.93l-5.68 6.44 -5.3 0c-17.05,-23.49 -50.01,-35.61 -98.87,-35.61 -38.63,0 -57.58,36.74 -57.58,109.85l-5.68 0 5.68 29.17 0 63.26c0,7.96 -5.68,12.12 -16.67,12.12l16.67 28.79 -16.67 16.67 0 6.81 16.67 5.31 0 11.36 -5.68 0 5.68 40.91 0 92.05c0,27.27 -3.78,48.49 -11.36,63.26l5.68 5.68 0 6.44 -5.68 5.68 0 5.68 5.68 23.11 -5.68 5.68 5.68 17.81c7.2,0 10.99,15.14 10.99,45.45 27.27,8.71 41.28,22.35 41.28,40.91l0 10.98 16.67 -10.98 28.79 34.47 0 10.99c-68.94,76.89 -103.41,129.17 -103.41,156.44l11.36 11.37 -11.36 17.42 5.68 5.68 5.68 0 -5.68 28.79 0 11.36 5.68 23.11 -5.68 5.68 0 5.3 5.68 6.82 0 5.68 -5.68 5.31 0 5.67 5.68 17.81 -5.68 5.68 0 5.3 5.68 5.69 0 6.43 -5.68 5.69 0 5.68 5.68 5.3 0 5.68 -5.68 17.81 5.68 34.47 -11.36 12.12 0 16.67 11.36 17.8 0 10.99 -5.68 23.48 5.68 23.11 -11.36 34.47 11.36 12.12 0 5.69 -5.68 5.29 5.68 5.69 0 12.12 -5.68 5.68 5.68 5.68 0 23.11 -11.36 10.98 11.36 40.16 -5.68 5.68c3.03,38.26 16.29,73.11 39.77,104.17l70.08 0 52.28 -46.6 5.3 5.69c-29.54,72.35 -71.97,118.56 -127.66,138.64l-86.36 35.23 -16.67 0c-111.74,0 -167.43,-9.85 -167.43,-29.93l-34.46 -10.98c-43.95,-28.04 -82.2,-104.93 -115.54,-230.69l5.68 -5.68 5.31 0 0 -10.99c-18.94,0 -28.79,-11.74 -28.79,-34.47l5.68 -17.8 -10.99 -10.98 10.99 -17.81c-15.53,0 -23.49,-17.42 -23.49,-52.27l-5.3 6.82 -5.68 0 -10.99 -35.61 10.99 -10.99c-12.5,0 -20.45,-11.74 -23.49,-34.47l-5.3 0 5.3 -41.29 0 -10.98c-20.46,0 -33.71,-28.79 -39.77,-86.37 -23.1,-25.37 -53.79,-115.91 -92.05,-271.97 -14.77,-19.32 -26.89,-50.01 -35.6,-92.05l-5.69 0 0 144.32 -10.98 17.81 10.98 39.77 -10.98 52.28 10.98 34.08 0 17.81 -5.3 109.84 5.3 5.69 0 5.68 -5.3 5.3 0 5.68 5.3 81.07 0 28.79c0,7.95 -5.3,12.12 -16.66,12.12l16.66 23.49 -5.3 21.97 5.3 57.95 -5.3 35.23c0,63.64 28.79,113.26 86.37,148.86l5.67 0 0 -10.98 17.81 0c12.5,0 25.76,-6.06 39.77,-17.81l5.69 0 12.12 12.13c-44.32,45.84 -82.95,68.94 -115.16,68.94 -29.92,22.73 -60.6,34.47 -92.42,34.47 -26.52,0 -53.41,-9.85 -81.06,-29.17l-57.58 23.49 -23.11 0c-8.33,0 -12.5,-6.06 -12.5,-17.81l-5.3 0 -16.66 12.13c-13.27,-13.26 -42.43,-24.63 -86.76,-34.48l-75.37 -64.01 0 -5.69 10.98 0 46.6 12.13 17.79 0 28.79 -6.44 11.37 12.12 5.3 0 -5.3 -5.68 0 -6.44 51.89 -57.96 -12.12 -39.77 12.12 -28.03 -12.12 -57.58 6.83 -28.79 -6.83 -17.8 6.83 -5.68 -6.83 -28.79 0 -46.59 6.83 -23.11 -6.83 -23.49 6.83 -63.26 -6.83 -74.24 0 -17.8 6.83 -34.47 -6.83 -28.79 0 -12.12 6.83 -5.69c0,-42.04 -21.6,-78.78 -64.41,-109.84l-22.35 -34.47 0 -16.67c57.97,-53.03 86.76,-99.24 86.76,-138.64l-6.83 -63.26 0 -86.36 6.83 -52.28 -6.83 -40.91c0,-33.33 17.43,-56.44 52.28,-68.94l0 -5.68 -5.68 0 -34.48 22.35 -12.12 -10.99 0 -68.94 12.12 0 -5.29 -23.48 5.29 -17.81c-8.71,0 -14.77,-22.72 -17.42,-68.56l-45.84 -34.47 -23.1 0c-22.35,0 -43.18,7.57 -63.26,22.35l-12.12 0 0 -5.68c68.56,-68.95 109.09,-103.41 120.83,-103.41l52.28 -28.79c10.23,-7.96 35.23,-14.02 75.38,-17.81zm548.12 126.52c0,9.09 9.85,14.78 28.79,17.8 0,-8.71 -9.48,-14.77 -28.79,-17.8zm81.06 46.97l0 10.99 34.47 12.12 5.68 0 0 -5.68 -40.15 -17.43zm57.57 34.09l11.37 12.5 12.12 0 0 -12.5 -23.49 0zm-681.07 92.05l0 6.82 5.31 16.67 5.67 0 0 -5.69 -5.67 -17.8 -5.31 0zm-29.17 12.5l0 5.3 5.69 17.81 5.68 0 0 -17.81 -5.68 -5.3 -5.69 0zm-28.78 45.46l5.68 0 12.12 -10.99 -6.44 0 -11.36 10.99zm865.54 415.91l-10.98 11.37 -17.8 23.11 6.81 0 28.79 -28.79 0 -5.69 -6.82 0zm-45.45 17.81l-5.31 16.67 0 12.12 5.31 0 5.68 -23.11 0 -5.68 -5.68 0zm5.68 51.14l0 6.81 23.11 0 0 -6.81 -23.11 0zm-40.15 17.8l5.68 0 10.98 -10.99 -5.29 0 -11.37 10.99zm-35.23 34.47l0 12.12 17.81 -6.81 0 -5.31 -17.81 0zm-68.94 57.57l5.68 0 12.12 -10.98 -6.81 0 -10.99 10.98zm68.94 28.79l-5.68 5.69 0 6.44 34.47 -6.44 0 -5.69 -28.79 0zm-121.21 5.69l-57.58 46.59 0 5.68c42.04,-25.38 63.26,-42.8 63.26,-52.27l-5.68 0zm-92.05 64.39l-5.3 5.68 0 5.31 5.3 0 16.66 -5.31 0 -5.68 -16.66 0zm-51.9 28.79c0,7.58 -6.06,10.99 -17.8,10.99l-5.68 5.67 0 5.69 5.68 0 23.11 -22.35 -5.31 0zm-52.27 34.47l5.3 0 17.81 -5.68 0 -12.13 -23.11 17.81zm-57.96 28.79l0 10.98 17.81 -5.3 0 -11.37 -17.81 5.69zm-276.14 115.53l0 16.67 10.98 0 23.49 -22.35 -5.68 -6.82 5.68 -5.3 -34.47 17.8zm-40.91 39.78l5.31 0 12.12 -10.99 -6.45 0 -10.98 10.99zm1186.01 -1295.1c22.35,0 51.89,17.79 89.01,53.41 24.25,-31.83 48.12,-47.74 70.84,-47.74 127.28,0 209.48,49.24 246.6,147.73l-82.2 -23.48c-54.93,4.54 -82.2,20.08 -82.2,46.59l5.69 153.04 0 35.6 -5.69 46.59 5.69 46.6 -5.69 41.29 5.69 53.02 0 135.61 94.31 117.43 0 12.12c-27.65,39.4 -49.24,59.09 -65.52,59.09l6.43 5.31 0 5.68c-23.49,20.84 -37.12,48.11 -40.91,82.2l5.69 112.12 0 99.63 -12.13 0 0 53.41 6.44 35.6 -6.44 5.3 0 5.69 12.13 71.21 -5.69 134.1 5.69 17.8 -5.69 23.11c40.91,47.35 68.18,71.21 82.2,71.21 22.73,0 48.48,-9.85 76.52,-29.93l5.68 0c0,44.33 -43.56,79.93 -129.92,106.45l-5.69 -6.82 -5.31 0c-34.08,28.4 -61.36,42.42 -82.19,42.42 -40.92,0 -74.25,-15.91 -100,-47.72 0,17.04 -33.34,26.89 -100.01,29.92 -95.84,-17.05 -162.88,-46.59 -200.76,-88.64l-28.79 -35.61 5.68 -5.68 70.84 35.61c62.88,-18.56 94.32,-48.11 94.32,-88.64l-6.44 -5.68 0 -35.61 12.12 -17.8 -12.12 -46.59 6.44 -5.31 -6.44 -70.08 0 -12.11c0,-120.84 3.79,-203.04 12.12,-247.74l-12.12 -34.09 6.44 -35.61 -6.44 -58.71 0 -17.8 -87.88 -112.13c62.88,-76.89 94.32,-128.03 94.32,-153.03l5.68 -105.69 -12.12 -53.02 0 -16.67 17.43 -159.85c-13.27,0 -20.83,-37.12 -23.11,-110.99l5.68 -17.81c0,-34.85 -29.54,-58.33 -87.88,-71.21l-5.3 0c-24.62,0 -46.6,10.23 -65.54,30.3l0 -12.5c36.75,-63.64 101.52,-110.61 193.95,-140.9l46.59 0zm147.73 129.92l0 10.98 23.48 -5.3 0 -5.68 -23.48 0zm-35.6 10.98l12.5 12.5 5.29 0 0 -12.5 -17.79 0zm-53.04 12.5l0 5.31 42.05 -5.31 0 -6.81 -24.24 0 -17.81 6.81zm-105.68 10.99c0,7.95 6.06,12.12 17.8,12.12l5.69 0 0 -5.68 -23.49 -6.44zm229.93 411.75l0 12.12 17.8 -5.68 0 -12.12 -17.8 5.68zm-12.13 35.23l-5.67 17.81 0 5.67 5.67 0 12.13 -23.48 -12.13 0zm-29.16 53.41l0 5.68 11.37 -12.12 0 -5.68 -11.37 12.12zm-17.42 28.79l-6.83 17.8 12.12 0 5.69 -17.8 -10.98 0zm-12.5 23.48l-5.31 17.81 10.98 0 0 -17.81 -5.67 0zm-46.6 70.84l-12.12 23.48 0 12.12 5.68 0 12.13 -29.92 0 -5.68 -5.69 0zm-29.93 46.59l-5.67 17.8 12.5 0 0 -17.8 -6.83 0zm112.13 29.92l0 5.69 17.81 -17.81 -5.69 0 -12.12 12.12zm-164.4 41.29l0 5.69 11.37 0 17.8 -23.49 0 -5.68c-6.06,0 -12.12,7.96 -17.8,23.48l-11.37 0zm-29.92 35.61l0 5.3 12.5 0 17.42 -23.1 0 -5.69 -24.24 23.49 -5.68 0zm71.21 10.99l0 6.44 23.11 0 0 -12.13 -23.11 5.69zm76.52 418.18l0 11.37 16.66 0 0 -5.68 -16.66 -5.69zm34.47 17.81l0 5.68 24.24 5.68 5.69 0 0 -5.68 -23.49 -5.68 -6.44 0zm47.73 16.67l0 12.12 28.78 0 5.69 5.68 6.44 0 0 -10.99 -29.92 0 -5.69 -6.81 -5.3 0zm-94.33 6.81l0 5.31 23.12 5.68c0,-7.2 -5.69,-10.99 -17.81,-10.99l-5.31 0zm58.72 28.79l0 10.99 23.48 6.82 -23.48 -17.81z"/>
   <path class="fil0" d="M13279.42 697.98l16.29 0c40.16,0 83.34,39.02 129.92,117.43l13.27 41.29 -7.58 0c-20.08,-31.82 -49.24,-47.73 -87.88,-47.73 -19.7,0 -35.61,11.75 -47.73,35.23l24.62 129.92c-7.58,0 -10.98,6.06 -10.98,17.81l-5.68 -6.82 -7.96 0 0 30.3 7.96 0 5.68 -23.48 10.98 0c32.58,290.16 65.91,435.24 100.01,435.24l10.98 35.23c13.26,0 37.5,17.42 71.97,52.26l0 6.83c-32.58,38.25 -56.44,73.87 -71.97,106.43l107.58 623.51c11.74,31.06 29.17,46.58 52.27,46.58l17.81 0c21.96,0 45.83,-15.52 70.83,-46.58l5.68 5.68c-68.18,93.94 -132.96,140.91 -194.32,140.91l-70.83 -40.91 -11.37 0c-47.35,31.06 -80.68,46.59 -99.62,46.59l-24.62 0c-54.55,0 -105.31,-39.77 -151.9,-118.94l5.3 0c43.18,20.08 76.52,29.93 100,29.93 23.87,-2.28 35.61,-17.81 35.61,-46.6l-16.67 -94.32 33.34 -23.1 -5.68 0 -27.66 12.12 -7.95 -6.82 0 -69.7c-18.94,0 -32.57,-59.09 -40.91,-176.52l-5.68 -5.68 0 -5.3 -58.72 0 -64.39 -5.69 -17.81 5.69 -82.95 -18.94c0,9.47 -15.54,15.91 -46.6,18.94 -23.1,130.68 -44.69,226.51 -64.39,287.13l-5.68 87.88c7.2,23.48 22.73,35.6 46.59,35.6 18.56,0 38.26,-8.33 58.71,-24.62l0 13.25c-16.29,36.37 -54.92,71.6 -116.28,105.69l-24.63 0c-32.57,0 -65.91,-17.43 -100,-52.28l-5.3 0c-34.85,31.07 -66.3,46.6 -94.32,46.6l-24.62 0c-93.95,-23.87 -140.92,-61.37 -140.92,-113.26 26.14,16.29 51.52,24.62 76.52,24.62 43.94,0 75.38,-35.22 94.32,-105.68l5.68 0 -5.68 -6.45 0 -17.79 53.41 -145.46 -6.44 -5.69 0 -13.25 23.1 -99.63 -5.67 -5.68 52.27 -187.5 -5.69 -6.82 0 -5.31c6.83,-8.33 13.27,-35.6 18.95,-82.2 -10.23,-28.78 -34.09,-64.39 -70.84,-106.43 6.44,-17.81 35.99,-47.35 87.51,-89.02l42.42 -58.71c0,-34.85 18.94,-60.23 57.57,-76.52l0 -5.68 -16.66 -5.69c-3.03,20.08 -9.09,30.31 -18.94,30.31l-5.68 0 0 -13.64c51.14,-188.64 76.9,-303.8 76.9,-346.21l12.11 -46.6c0,-55.3 -21.59,-83.34 -64.39,-83.34l-53.41 23.49 0 -5.68c46.59,-77.66 90.15,-116.29 129.92,-116.29 0,-9.09 9.48,-13.26 28.79,-13.26l0 6.44 5.69 -6.44 13.26 0 0 13.26 10.98 0 0 -13.26c49.62,0 100.38,25.38 152.28,76.51 49.62,-62.12 92.8,-93.18 129.92,-93.18zm-270.84 63.26l0 7.58 5.31 0 18.93 -7.58 0 -5.68 -7.57 0 -16.67 5.68zm-46.59 59.85l0 5.3 5.3 0 24.62 -23.1 -5.67 0c-16.29,6.82 -24.25,12.5 -24.25,17.8zm258.34 265.16l0 10.98c17.8,-4.92 41.29,-22.35 70.08,-51.89l-5.68 0c-16.29,4.17 -33.72,18.18 -52.28,40.91l-12.12 0zm-40.91 40.91l5.68 0 23.11 -12.12 0 -12.12 -5.68 0 -23.11 24.24zm-76.52 47.73l5.31 0c17.8,-7.96 28.03,-16.29 29.92,-24.25l0 -5.68c-23.48,12.12 -35.23,21.97 -35.23,29.93zm-11.36 -13.26l-12.12 24.62 12.12 0 5.69 -18.94 0 -5.68 -5.69 0zm63.26 18.94l18.94 16.67 34.47 -5.69 0 11.37 18.94 0c0,-11.37 -10.23,-16.67 -29.93,-16.67l0 -5.68 -6.81 5.68 -5.31 0 -30.3 -5.68zm-192.81 64.39l0 10.99 99.62 -58.71 0 -5.69 -12.12 0 -87.5 53.41zm129.55 -53.41c-8.71,70.46 -22.73,105.69 -42.05,105.69l5.68 5.3 -16.66 89.02 5.31 17.8c-19.71,46.6 -43.57,130.69 -70.84,253.04l-5.69 6.43c12.5,0 18.95,6.07 18.95,17.81l5.67 5.69 5.31 0 22.35 -5.69 118.56 10.98c0,-7.19 12.12,-10.98 35.61,-10.98l-35.61 -259.47 5.68 -17.81c-31.06,-97.72 -46.58,-170.46 -46.58,-217.81l-5.69 0zm146.59 11.37l18.94 18.56 5.68 -5.3 0 -7.96 -24.62 -5.3zm41.29 24.24l16.29 17.8 0 -6.81 -10.98 -10.99 -5.31 0zm29.93 23.49l0 5.3 23.1 6.82c0,-8.33 -5.68,-12.12 -17.8,-12.12l-5.3 0zm-400.77 23.1l0 17.81 23.48 -17.81 0 -5.3 -23.48 5.3zm-112.12 706.84l0 12.5 17.8 -6.82 0 -5.68 -17.8 0zm-40.92 12.5l0 5.3 6.45 0 22.34 -5.3 0 -6.82 -10.98 0 -17.81 6.82zm-34.46 5.3l-5.68 5.68 0 5.68 5.68 0 16.67 -5.68 0 -5.68 -16.67 0zm670.09 76.52l0 11.36 17.8 -5.68 0 -10.99 -17.8 5.31zm-17.43 41.29l5.31 0 41.29 -12.13 0 -12.5c-31.06,6.82 -46.6,14.78 -46.6,24.63zm-53.41 10.98l0 5.68 12.12 0 0 -16.66 -12.12 10.98zm-16.66 5.68l-7.96 17.81 13.64 0 0 -17.81 -5.68 0zm28.78 53.04l17.81 17.8 0 -6.45 -12.12 -11.35 -5.69 0zm17.81 23.48l0 6.44 23.48 11.36 0 -17.8 -23.48 0zm34.47 23.11l18.94 30.3 10.98 0 0 -18.94 -23.48 -11.36 -6.44 0zm106.44 71.21l0 5.68c10.23,19.7 26.14,29.93 47.73,29.93l-47.73 -35.61zm620.47 -1614.8c85.61,0 156.82,51.89 212.89,155.3l-5.69 0c-23.49,-18.94 -46.97,-28.79 -69.7,-28.79l-10.98 0c-43.95,0 -68.95,23.49 -75.76,70.08l6.81 45.45 -6.81 121.98 -10.99 10.98 5.68 5.68 0 5.69 -11.36 12.11 11.36 16.68 -5.68 28.78 10.99 12.12 -10.99 11.37 10.99 40.91 -10.99 28.79 10.99 11.36 0 10.99 -5.31 23.1 5.31 23.48 0 5.31 -10.99 17.81 0 5.67 34.47 97.73c13.26,0 36.37,21.21 68.95,64.4 -65.16,76.13 -97.74,123.87 -97.74,143.18l-5.68 35.23 10.99 45.83 -5.31 80.69 5.31 63.26 -10.99 12.5 0 5.3 10.99 16.67 -5.31 35.61 5.31 74.24 0 12.12 -10.99 16.67 10.99 12.5 -5.31 5.3 0 5.68 12.12 10.99 0 52.27c0,76.9 36.37,115.54 108.72,115.54 66.66,0 124.24,-63.27 173.11,-189.78l5.68 -64.4 -11.37 -34.46 0 -5.69 29.18 0 0 -10.98 -5.69 5.68 -6.81 0 -21.97 -12.5 5.29 -34.09 -5.29 -103.42c2.27,-23.48 7.57,-35.6 16.66,-35.6l28.79 0 12.12 12.5 5.69 -5.69 57.57 5.69 92.04 -12.5 5.69 6.81 -5.69 115.54 0 28.79 -12.11 10.98c11.74,45.08 17.8,93.19 17.8,144.32 -17.8,84.47 -40.53,139.78 -68.94,166.3 -42.8,73.49 -79.55,109.84 -109.85,109.84 0,18.57 -30.69,32.2 -92.05,41.3l-17.8 -6.82c0,23.86 -55.31,35.6 -166.29,35.6 -53.41,0 -120.84,-23.48 -201.9,-70.08l-12.5 12.51 -5.31 -6.82 -5.68 0 -39.77 12.12c-75.01,0 -159.48,-32.96 -254.18,-98.49l-5.68 -5.68 0 -10.98 5.68 0 92.05 16.66c42.05,-14.39 63.27,-39.01 63.27,-74.62 0,-15.53 4.16,-23.1 12.12,-23.1l-5.69 -28.79 11.36 -16.67 -11.36 -17.8 0 -23.49 5.69 -28.79 -5.69 -5.68 -6.43 0 6.43 -57.57 0 -97.74 5.69 -5.3 -5.69 -17.8 -6.43 -104.55 6.43 -34.1 -6.43 -29.16 6.43 -45.46c0,-35.98 -28.79,-82.57 -86.36,-138.63 48.1,-53.41 80.68,-103.04 97.72,-149.63 -12.11,-27.66 -17.79,-54.55 -17.79,-81.07l12.12 -63.25 -12.12 -70.08 12.12 -74.24 -5.69 -23.49 0 -5.3 5.69 -5.68 0 -6.82 -12.12 -10.99 0 -68.94c-11.75,-81.06 -38.64,-121.97 -79.93,-121.97l-12.12 0c-17.05,0 -38.27,11.74 -63.27,35.61l-5.68 -6.82c16.29,-43.56 45.08,-78.04 86.75,-103.03l5.3 0 23.49 10.98 5.3 0 0 -5.3 -23.11 -5.68c34.1,-31.06 76.52,-46.6 127.66,-46.6 35.99,0 70.45,17.43 103.03,52.28 34.09,-38.64 68.94,-57.95 104.55,-57.95zm-265.54 81.05l11.36 10.99 5.31 0 -10.98 -10.99 -5.69 0zm45.83 16.67l0 12.12 17.43 5.69 0 -10.99 -17.43 -6.82zm57.58 28.79l0 6.82 17.81 5.3 0 -12.12 -17.81 0zm34.47 12.12l0 5.69 23.11 0 0 -5.69 -23.11 0zm115.16 265.54l5.68 0 12.13 -11.36 -5.31 0 -12.5 11.36zm-63.26 57.57l0 5.69 11.37 -11.37 0 -5.3 -11.37 10.98zm-46.59 28.79l0 5.69 17.8 -16.67 -5.3 0 -12.5 10.98zm23.48 40.16l0 6.44 17.81 -17.81 -5.68 0 -12.13 11.37zm-79.92 17.8l-12.13 17.42 12.13 0 5.68 -17.42 -5.68 0zm-40.92 46.59l0 5.31 12.13 -12.13 0 -5.68 -12.13 12.5zm17.43 10.98l5.68 0 10.99 -10.98 -5.31 0 -11.36 10.98zm720.47 507.21l0 6.44 10.99 -12.12 0 -5.68 -10.99 11.36zm-109.85 -5.68l0 12.12 17.8 -6.44 0 -5.68 -17.8 0zm40.91 70.08l0 10.99c37.88,-14.02 58.71,-27.27 63.26,-40.16l-5.68 0c-20.45,19.32 -39.78,29.17 -57.58,29.17zm-501.52 230.69l0 5.68 5.67 0c29.55,-5.3 56.45,-16.67 80.69,-34.47l-5.3 0c-40.15,19.32 -67.05,28.79 -81.06,28.79zm-40.91 16.66l0 5.69 12.12 0 16.67 -5.69 0 -5.68 -11.37 0 -17.42 5.68zm-34.48 12.13l-5.68 4.54 0 6.82 17.81 0 -12.13 -11.36zm-29.16 4.54l-5.31 6.82 0 5.3 5.31 0 17.8 -5.3 0 -6.82 -17.8 0zm-28.79 17.81l6.82 0 10.98 -10.99 -5.3 0 -12.5 10.99zm432.96 81.06l10.99 10.98 5.68 0 -10.99 -10.98 -5.68 0zm39.78 16.66l12.5 12.12 5.3 0 -12.12 -12.12 -5.68 0zm70.07 35.23l0 5.68 39.77 5.69 0 -11.37 -39.77 0z"/>
  </g>
 </g>
</svg>
