<?xml version="1.0" encoding="UTF-8"?>
<!DOCTYPE svg PUBLIC "-//W3C//DTD SVG 1.1//EN" "http://www.w3.org/Graphics/SVG/1.1/DTD/svg11.dtd">
<!-- Creator: CorelDRAW 2017 -->
<svg xmlns="http://www.w3.org/2000/svg" xml:space="preserve" width="208.227mm" height="206.639mm" version="1.1" style="shape-rendering:geometricPrecision; text-rendering:geometricPrecision; image-rendering:optimizeQuality; fill-rule:evenodd; clip-rule:evenodd"
viewBox="0 0 20822.7 20663.94"
 xmlns:xlink="http://www.w3.org/1999/xlink">
 <defs>
  <style type="text/css">
   <![CDATA[
    .fil5 {fill:#1A1919}
    .fil8 {fill:#1A2D46}
    .fil19 {fill:#1B4794}
    .fil16 {fill:#434444}
    .fil21 {fill:#4DA0D8}
    .fil11 {fill:#4F1317}
    .fil18 {fill:#575017}
    .fil13 {fill:#8D2E24}
    .fil3 {fill:#8D714F}
    .fil17 {fill:#AA862D}
    .fil7 {fill:#AE5767}
    .fil1 {fill:#AF112C}
    .fil12 {fill:#AF989D}
    .fil6 {fill:#B2344C}
    .fil0 {fill:#C4C5C8}
    .fil14 {fill:#C97878}
    .fil9 {fill:#D1AD71}
    .fil20 {fill:#DA9D30}
    .fil15 {fill:#EBC698}
    .fil4 {fill:#EEE9D1}
    .fil2 {fill:#F0CD51}
    .fil10 {fill:#FDFDFD}
   ]]>
  </style>
 </defs>
 <g id="Capa_x0020_1">
  <metadata id="CorelCorpID_0Corel-Layer"/>
  <g id="_2214372472768">
   <path class="fil0" d="M6982 16769.81l-89.87 179.55c-37.19,142.92 -82.61,136.2 -72.63,310.37 405.97,89.27 543.79,-48.36 422.23,-493.94 -8.57,-31.47 -15.57,-55.78 -27.11,-79.74 -23.59,-48.96 -21.26,-32.23 -47.18,-57.5l-69.45 137.76 -115.99 3.5z"/>
   <path class="fil0" d="M6698.41 17242.75l19.48 -181.02c-5.1,-135.58 12.92,-237.49 54.79,-332.44l216.92 -48.59 139.36 -56.22 50.2 -30.3c-66.05,-27.93 -76.55,-4.7 -143.13,-34.78 -79.96,-36.12 -3.13,8.9 -66.86,-43.45 -38.23,-31.42 8.75,-2.09 -45.54,-50.94 -83.6,53.12 -165.89,54.12 -234.95,107.56l-132.91 184.98c-3.92,6.44 -10.6,14.3 -14.18,20.87 -104.54,192.14 70.95,331.73 156.82,464.33z"/>
   <path class="fil0" d="M4088.43 16008.99l394.37 -106.51c126.64,-69.37 44.96,32.02 71.01,-109.8 -47.77,-23.29 69.8,-61.75 -118.13,-10.86 -326.73,88.48 -319.09,110.92 -347.25,227.17z"/>
   <path class="fil0" d="M9645.3 19939.2c32.3,-38.39 14.94,-0.35 41.65,-62.61 2.38,-5.57 20.73,-64.04 23.67,-73.89 20.16,-67.5 30.71,-113.82 44.02,-189.1l-208.7 15.66c20.38,179.23 23.01,195.04 99.36,309.94z"/>
   <path class="fil1" d="M10506.43 10285.86c155.85,30.04 3.42,20.04 114.36,156.66l621.65 -14.31c71.33,15.31 53.41,2.59 135.95,92.97 5.24,5.73 12.39,17.24 19.25,25.33l25.99 -87.27 0.68 -40.04 106.01 -67.19 -187.03 -13.32c-49.89,54.09 98.23,46.28 -97.11,46.82 -129.49,-290.56 55.28,-551.39 -351.76,-635.06l-35.89 287.22 -430.93 -23.18 -36.42 230.26c35.78,39.51 -66.69,30.94 115.25,41.11z"/>
   <path class="fil1" d="M12328.05 9546.9l142.74 18.82c58.39,-37.24 72.95,-53.97 135.51,-125.23 66.18,-75.39 85.48,-89.22 119.79,-183.93l-146.67 -98.65 3.32 -371.95c-346.24,-52.03 -511.48,460.6 -548.61,500.37 149.12,135.22 221.6,67.97 293.92,260.57z"/>
   <path class="fil1" d="M11223.53 7764.77l-82.79 74.49c-159.44,-85.83 -357.68,-79.82 -489.22,-246.26 -577.29,-109.65 -74.4,661.89 457.95,623.12l114.06 -451.35z"/>
   <path class="fil1" d="M8035.79 9519.35c309.28,-27.76 621.34,-139.68 614.01,-444.69l-229.92 19.42c-20.43,-59.19 -30.52,-86.71 -61.98,-145.67l-110.71 -150.04c-282.89,145.55 -256.18,365.1 -211.4,720.98z"/>
   <path class="fil1" d="M10830.23 5554.05c56.14,-306.36 271.88,-494.8 279.24,-773.63 -290.93,150.02 -158.65,168.99 -279.24,404.05 -161.16,-11.98 -521.63,-75.01 -426.53,179.77l309.05 367.37c4.45,4.36 13.77,12.77 21.74,17.61 66.54,-91.5 44.64,-108.23 95.74,-195.17z"/>
   <path class="fil1" d="M11109.47 4709.64l-20.17 -326.86c-114.1,-82.68 -271.8,-189.7 -404.55,-236.99l-104.64 16.69 61.12 499.56c237.31,26 265.1,-69.48 468.24,47.6z"/>
   <path class="fil1" d="M8980.22 8775.55c137.31,-37.13 239.61,-124.44 298.98,-224.6 141.75,-239.12 24.71,-240.01 -155.61,-268.13 -140.67,-21.93 -277.44,-90.42 -294.2,110.88 -9.55,114.79 95.67,298.03 150.83,381.85z"/>
   <path class="fil1" d="M9712 10609.88c-6.25,-136.19 5.06,-123.59 91.93,-170.89 66.97,-36.48 132.74,-38.24 200.06,-44.53 46.18,-85.98 9.76,-129.6 -49.88,-213.54 -71.74,-100.99 -65.25,-96.07 -229.23,-115.55l-249.03 0.12c26.13,158.73 56.42,71.21 87.17,286.66 25.72,180.19 24.61,173.44 148.98,257.73z"/>
   <path class="fil1" d="M8981.58 6359.82c274,-118.61 386.32,-343.29 345.2,-395.61 -66.24,-84.27 -64.93,13.24 -208.11,-45.87 -182.69,-75.42 -6.76,-111 -207.89,-97.25 -154.43,181.79 -39.01,395.87 70.8,538.73z"/>
   <path class="fil1" d="M11633.05 8775.94c146.13,-62.81 324.3,-215.94 302.33,-446.6 -78.12,19.53 -68.44,75.92 -185.72,23.64 -142.46,-63.5 -68.82,-88.75 -258.31,-108.54 -70.93,273.91 -40.74,377.43 141.7,531.5z"/>
   <path class="fil1" d="M9497.44 5243.31c-17.94,53.69 38.59,99.84 53.02,163.04 19,83.24 -14.16,102.07 1.24,216.3 246.51,22.23 326.57,-136.67 406.48,-297.77 -6.26,-5.54 -16.42,-22.09 -19.49,-15.82l-62.36 -42.43c-147.92,-79.19 -256.91,-85.46 -378.89,-23.32z"/>
   <path class="fil1" d="M9491.03 7662.69c41.47,305.45 85.64,618.87 389.14,202.91 62.38,-85.5 43.7,-48.24 82.84,-143.19 -80.83,-21.97 -384.86,-134.75 -471.98,-59.72z"/>
   <path class="fil2" d="M17720.74 11640.45c-69.91,-150.17 -61.26,-88 -474.99,-202.21 -243.77,-67.3 -475.26,-74.05 -542.32,-111.82 -119.8,189.57 -103.22,23.39 -102.53,347.23 0.36,163.32 -5.21,326.76 -5.89,490.19 -0.94,226.42 -49.67,712.79 62.38,864.04 119.66,-294.54 6.4,-1045.18 65.88,-1466.85 348.06,-23.3 624.58,87.47 911,179.76l41.31 1402.73c154.43,-217.2 25.49,-1168.17 45.16,-1503.07z"/>
   <path class="fil2" d="M14581.17 18859.22l3.68 248.25c51.96,-99.59 -15.68,-65.66 141.76,-69.78 153.42,-77.91 701.88,-16.28 884.45,-14.7l725.45 -3.67c8.47,-0.69 84.61,-10.72 84.67,-10.73 84.54,-26.92 53.51,-21.23 81.51,-55.55l38.47 -1510.35c26.48,-134.96 14.67,-192.87 -15.05,-304.26 -311.18,214.46 51.97,1082.62 -136.01,1728.14 -574.58,116.2 -1209.06,0.68 -1808.93,-7.35z"/>
   <path class="fil2" d="M11652.72 17482.9l-23.07 3.6c-20.48,177.06 -46.81,217.47 -62.51,329.95 91.12,70.55 44.47,50.57 191.02,55.32 -20.08,133.91 -63.29,235.53 116.51,218.68 162.91,-15.24 90.78,-93.68 76.85,-196.85l195.66 -77.15c-26.94,-97.82 -53.77,-86.56 -62.95,-142.89 -11.87,-72.88 29.4,-46.88 -8.32,-195.63l-423.19 4.97z"/>
   <path class="fil3" d="M18963.27 8928.74c172.72,145.61 148.44,315.06 279.26,415.41 59.08,-102.6 -38.7,-322.34 -68.61,-428.07 -40.3,-142.48 -89.76,-300.41 -111.57,-450.16 397.24,-98.25 708.43,-376.07 1017.91,-463.32l197.22 236.79c13.09,-7.48 45.63,-23.98 62.82,-36.67 39.99,-29.48 34.49,-26.42 60.52,-51.53 -52.95,-164.96 -78.07,-253.33 -225.93,-303.96l-373.88 -149.65c11.29,135.57 31.5,90.9 34.91,244.24 -353.38,82.3 -408.52,143.55 -663.21,314.05l-209.44 -139.58c0,689.51 -236.49,-340.39 0,812.45z"/>
   <path class="fil3" d="M679.43 1870.51l130.73 -285.52c-248.39,-57.83 -339.5,-96.31 -427.62,-307.66l-93.86 0c4.43,-198.88 95.01,-198.47 -75.78,-187.56 -156.98,10.03 -201.97,44.85 -343.09,48 28.18,338.53 507.87,668.44 809.62,732.74z"/>
   <path class="fil3" d="M20563.85 9407.32c250.26,-54.47 365.16,-199.73 389.06,-367.65l0 -142.29c-27.54,-211.23 -169.69,-428.26 -349.06,-531.91 -40.64,75.84 -43.53,131.91 13.17,224.85 71.31,116.88 102.69,1.71 84.86,249.33 -13.2,183.33 -100.98,381.8 -138.03,567.67z"/>
   <path class="fil3" d="M11866.86 16038.26l519.83 331.03 26.1 -189.55 -111.34 44.12 12.12 -199.64c-66.65,-12.48 -110.98,-25.4 -155.83,-55.55l-105.63 -107.75 -185.25 177.34z"/>
   <path class="fil3" d="M10619.07 3184.95c-6.71,-7.56 -14.63,-18.35 -19.24,-23.47l-263.84 -71.78 185.54 24.07c-23.51,131.33 -37.54,86.11 -47.13,226.67 139.28,-183.98 -62.93,-72.46 144.67,-155.49z"/>
   <path class="fil4" d="M15919.41 15155.83c0.78,-49.01 -62.35,-318.04 -87.42,-376.74 -87.02,46.8 -54.17,41.13 -155.35,78.58 92.29,148.68 155.38,187.6 108.17,411.14 -144.38,-156.66 -19.13,-591.67 -622.92,-314.03 32.88,-222.97 61.17,-77.56 139.26,-249.32 -67.34,-45.28 -22.07,-17.96 -115.38,-34.58 -627.33,785.75 585.67,1328.53 733.64,484.95z"/>
   <path class="fil4" d="M4023.6 10484.55l-67.14 4.44 3.6 244.82c202.66,17.63 526.32,-36.62 683.72,42.55 256.02,68.96 275.86,-44.25 531.19,-31.25l-11.95 -291.01c-133.68,-13.09 -166.85,-34.9 -353.58,-34.9 -48.74,44.17 -42.44,54.75 -178.4,63.16l-607.44 2.19z"/>
   <path class="fil4" d="M4747.67 15190.07c50.36,-339.73 -197.62,-428.35 1.59,-787.43 5.53,-130.45 2.72,-156.88 -62.68,-249.79l-218.05 17.8c-19.64,301.78 -160.48,757.4 -26.06,1036.67 130.04,39.73 189.78,45.46 305.2,-17.25z"/>
   <path class="fil4" d="M4399.69 17586.77l-25.64 762.43c91.81,33.49 38.12,-58.83 68.77,87.24l237.66 35.58c127.97,-367.02 -37.66,-284.76 -49.38,-553.54 -9.04,-207.38 107.76,-297.95 104.89,-574.92l-253.55 18.48c-15.09,51.49 -48.74,169.76 -82.75,224.73z"/>
   <path class="fil4" d="M1915.53 17080.43c-50.73,162.32 -4.03,800.93 3.05,1022.88l235.11 -32.65c61.27,-249.94 -107.06,-409.03 -47.28,-724.2 -18.17,-188.37 -5.15,-382.3 -190.88,-266.03z"/>
   <path class="fil4" d="M1936.92 14122.03c-68.97,306.69 -111.34,688.54 -6.87,968.74 70.16,-12.07 50,-25.63 54.77,47.79l147.3 -88.39c-35.98,-413.62 -139.1,-366.31 7.45,-786.17l-35.49 -197.8 -167.16 55.83z"/>
   <path class="fil4" d="M5172.9 19594.04c6.89,114.75 -14.77,39.47 -35.48,66.03 -27.2,-90.73 -27.35,-59.15 3.17,-137.08 36.87,52.28 26.79,-21.09 32.31,71.05zm-137.21 -170.47c-43.11,91.75 -87.6,183.02 -54.52,333.46l354.78 32.28 -23 -423.77 -277.26 58.03z"/>
   <path class="fil4" d="M18422.61 1715l-114.43 -4.23 -229.94 17.68 26.26 193.08c116.97,8.81 368.04,42.92 399.96,-94.7 31.38,-135.27 -58.36,-104.87 -81.85,-111.83z"/>
   <path class="fil4" d="M2773.78 16452.44c-34.62,-144 -78.88,-199.39 -241.47,-198.73 55.04,108.03 107.62,158.39 241.47,198.73z"/>
   <path class="fil4" d="M15676.64 14857.67c-53.07,-110.97 -94.49,-148.63 -274.36,-141.45l274.36 141.45z"/>
   <path class="fil5" d="M5174.97 10745.11l69.88 17.38c-17.31,361.85 -147.82,1641.47 -93.08,1890.73 58.82,242.42 12.5,78.29 -32.16,138.51 94.77,-61.68 60.99,-12.55 114.52,-30.97 7,-2.41 17.21,-4.67 24.19,-7.58 7.17,-2.99 17.01,-7.04 23.83,-10.47l67.87 -48.99c0,-234.12 30.37,-338.92 36.05,-528.74 6.45,-215.77 18.47,-1194 67.1,-1328.62 74.55,-206.33 106.28,-35.44 106.28,-382.26l-396.43 0 11.95 291.01z"/>
   <path class="fil5" d="M3499.84 12442.98l278.2 31.51 17.61 -84.56 126.37 -1611.03c221.83,-28.91 523.84,-60.77 721.76,-2.54 -157.4,-79.17 -481.06,-24.92 -683.72,-42.55l-3.6 -244.82c-581.68,0 -274.17,-50.72 -245.41,382.21 23.6,355.07 -71.41,1122.78 -71.41,1501.99 -79.49,18.52 -97.45,15.06 -139.8,69.79z"/>
   <path class="fil5" d="M5567.47 19398.99l77.1 166.99 -80.23 103.25c-55.83,88.94 -35.36,-26.41 -34.76,140.59l-193.63 -20.51 -354.78 -32.28c-120.14,195.86 -6.18,236.77 173.27,278.67 156.38,36.49 317.51,83.66 474.82,83.66 54.57,-234.08 68.87,-144.84 103.99,-456.85 13.05,-115.94 -35.91,-73.12 35.81,-136.33 -52.4,-60.07 -27.08,-8.52 -76.01,-63.88l-63.75 -98.34c-107.18,10.13 -54.7,-27.01 -61.83,35.03z"/>
   <path class="fil5" d="M11652.72 17482.9l423.19 -4.97c37.72,148.75 -3.55,122.75 8.32,195.63 9.18,56.33 36.01,45.07 62.95,142.89l-195.66 77.15c13.93,103.17 86.06,181.61 -76.85,196.85 -179.8,16.85 -136.59,-84.77 -116.51,-218.68 -146.55,-4.75 -99.9,15.23 -191.02,-55.32 15.7,-112.48 42.03,-152.89 62.51,-329.95 -90.46,-31.76 -97.21,-1.81 -132.23,126.92 -24.76,91.02 -30.8,177.72 -9.77,269.99 39.71,174.31 155.11,260.42 338.97,274.82l26.69 -1.87c407.51,-7.42 458.62,-366.53 297.92,-687.34 -154.1,-57.04 -162.84,-120.24 -406.91,-107.28l-67.5 10.94 -24.1 110.22z"/>
   <path class="fil5" d="M9961.97 855.37l335.27 77.01c-18.31,-73.96 -44.02,-119.69 -95.04,-171.75 -151.28,-5.52 -175.1,9.92 -240.23,94.74z"/>
   <path class="fil5" d="M9182.85 938.02c133.02,-30.76 239.54,-47.69 328.18,-122.21l-211.64 -71.93c-91.78,94 -75.05,83.99 -116.54,194.14z"/>
   <path class="fil5" d="M5137.42 19660.07c20.71,-26.56 42.37,48.72 35.48,-66.03 -5.52,-92.14 4.56,-18.77 -32.31,-71.05 -30.52,77.93 -30.37,46.35 -3.17,137.08z"/>
   <path class="fil5" d="M5243.96 12963.58c25.32,-164.75 3.49,-21.07 -48,-67.4l7.01 134.02c36.94,-40.84 28.97,11.63 40.99,-66.62z"/>
   <path class="fil6" d="M7774.41 10362.74l-9.71 323.14 230.15 20.89c86.22,20.63 34.51,2.09 76.55,28.72l51.39 150.81c54.17,-347.85 155.42,-313.49 533.31,-297.15l-104.5 -65.27c62.24,-394.23 101.05,-648.18 -233.91,-794.07l-177.1 314.56 -364.86 -117.74c9.48,155.02 37.93,293.74 -1.32,436.11z"/>
   <path class="fil6" d="M7828.32 7997.73c321.55,33.47 294.11,213.36 676.56,236.02 56.22,-182.69 157.11,-427.93 72.7,-656.86 -55.2,-149.68 -261.31,-325.99 -435.1,-333.09 -58.87,132.32 -94.11,225.06 -162.93,360.7 -62.5,123.15 -136.16,242.56 -151.23,393.23z"/>
   <path class="fil6" d="M9435.31 6895.05c241.82,120.9 466.08,200.05 671.12,9.18 61.79,-57.51 28.63,-1.23 59.87,-78.97 -121.45,-89.3 -137.01,-49.81 -232.71,-104.68 37.7,-144.76 91.41,-184.41 75.28,-365.3 -192.07,0.46 -295.67,7.02 -392.08,129.7 -77.12,98.12 -178.93,274.85 -181.48,410.07z"/>
   <path class="fil6" d="M9370.46 9266.09l2.12 78.63c418.91,65.68 541.84,223.57 817,-103.6l-261.93 -70.94c33.01,-135.52 110.13,-248.82 64.84,-359.29 -330.79,-117.81 -442.13,324.12 -622.03,455.2z"/>
   <path class="fil6" d="M10815.96 9484.69c41.97,-35.8 37.6,3.91 84.08,-64.72l150.22 66.91c69.02,-212.52 217.64,-141.84 237.28,-389.96 -130.15,-30.53 -172.4,-12.32 -320.11,12.45 -4.31,-233.59 10.02,-182.62 -115.42,-313.36 -205.82,219.42 -269.21,193.56 -210.83,660.71l174.78 27.97z"/>
   <path class="fil6" d="M11216.67 6929.94c-67.04,-117.3 -119.13,-179.89 -202.05,-289.01 -30.31,-39.89 -80.69,-102.41 -105.75,-140.52 -49.35,-75 -44.45,-86.89 -78.64,-163.91l-104.1 69.08c-66.47,247.96 -99.07,489.81 -78.98,585.27 1.1,5.21 6.35,17.03 7.45,21.08 42.11,154.74 331.03,20.24 488.36,-44.54 69.29,-28.54 25.53,0.17 73.71,-37.45z"/>
   <path class="fil6" d="M15266.66 14579.2c158.76,-42.4 178.5,-61.86 356.84,-24.18 202.63,42.79 135.11,64.12 208.49,224.07 25.07,58.7 88.2,327.73 87.42,376.74 98.75,-116.8 160.36,-363.96 201,-514.61 -98.71,-85.29 -615.59,-311.47 -767.16,-325.64l-86.59 263.62z"/>
   <path class="fil6" d="M10651.52 7593c131.54,166.44 329.78,160.43 489.22,246.26l82.79 -74.49c-32.12,-191.95 -108.71,-397.3 -292.12,-457.63 -36.72,66.98 -38.99,56.4 -59.62,122.44 -14.85,47.56 -8.99,44.96 -19.55,87.21l-200.72 76.21z"/>
   <path class="fil7" d="M8841.92 10621.48c43.52,125.9 78.88,151.54 129.09,248.47 269.44,-23.19 470.17,8.83 695.7,-86.52l-68.48 449.48 113.64 -2.5 1.09 -256.61 -0.96 -363.92c-124.37,-84.29 -123.26,-77.54 -148.98,-257.73 -30.75,-215.45 -61.04,-127.93 -87.17,-286.66l249.03 -0.12 -252.66 -37.8 -99.64 -682.85 -2.12 -78.63c-43.45,-221.74 -25.22,-307.31 -4.75,-525.24 -185.16,186.11 -71.31,383.04 -165.63,923.14 -48.12,275.6 -220.05,664.09 -228.31,859.89 -11.43,24.9 -97.51,30.33 -129.85,97.6z"/>
   <path class="fil7" d="M12470.79 9565.72c-97.82,44.33 -143.88,50.93 -230.71,100.05 -67.24,38.03 -131.25,87.29 -188.16,125.37l0 189.45c564.05,0 610.37,-100.79 1082.09,-203.91 100.84,-57.31 110.12,-63.85 174.52,-160.01 -23.09,-99.12 -35.64,-97.86 -69.8,-174.64 -96.23,-92.01 -69.28,129.46 -69.81,-80.99 -121.42,71.83 -13.86,31.75 -136.1,95.1l-53.53 -180.32c-45.23,115.25 31.7,154.93 -253.2,-19.26 -34.31,94.71 -53.61,108.54 -119.79,183.93 -62.56,71.26 -77.12,87.99 -135.51,125.23z"/>
   <path class="fil7" d="M10815.96 9484.69c167.97,64.52 348.66,99.53 441.36,264.58 94.87,168.96 111.12,383.86 85.97,589.42l187.03 13.32 -106.01 67.19 316.71 -66.53c74.28,-49.06 30.47,16.36 66.57,-73.03 1.29,-2.52 124.43,-38.49 -22.71,-217.72 -86.68,-105.59 -70.51,-39.31 -151.64,-200.99 -83.6,-115.04 -64.81,57.62 -179.07,-134.53 -55.42,-93.19 -51.82,-149.85 -135.26,-237.85l-268.65 -1.67 -150.22 -66.91c-46.48,68.63 -42.11,28.92 -84.08,64.72z"/>
   <path class="fil7" d="M19312.34 9735.79c241.06,237.35 597.64,176.81 814.57,-49.33 -43.81,-60.32 1.32,-24.02 -75.9,-75.78 -104.42,-69.99 -199.7,-31.16 -345.4,-70.36 -157.28,-42.32 -209,-99.69 -443.9,-136.37l155.32 347.61 -104.69 -15.77z"/>
   <path class="fil8" d="M17322.53 16944.13c-77.75,84.7 118.97,69.61 -139.45,69.61l-139.79 -34.72c-75.92,63.49 115.37,66.58 -174.36,69.61l-117.22 -34.71c-47.66,39.34 -9.87,25.88 -90.73,58.03 -49.85,19.81 -56.83,9.11 -106.2,11.57 -176.11,-67.99 -193.96,-28.24 -324.62,-11.66 -178.24,22.64 -209.44,-34.53 -303.69,81.45 -41.19,27.98 -32.19,-51.72 -30.92,59.63l499.91 9.69c-62.86,266.16 -74.47,486.14 -75.77,768.23 -0.64,140.16 2.81,280.26 9.53,420.25 3.88,80.66 33.44,295.79 -27.39,350.4 -218.97,113.81 -1381.39,14.02 -1701.81,-14.85l1.77 -1070c-0.97,-47.44 -0.73,-131.93 -5.27,-175.79l-39.26 1359.07 23.91 -0.72c599.87,8.03 1234.35,123.55 1808.93,7.35 187.98,-645.52 -175.17,-1513.68 136.01,-1728.14 29.72,111.39 41.53,169.3 15.05,304.26 62.52,-97.87 36.51,-213.13 118.33,-313.97 184.44,319.82 -44.84,1188.35 76.2,1560.22 65.79,2.77 26.98,14.96 84.12,-12.74 28.88,-449.21 -1.73,-1072.5 -47,-1513.11l760.67 -113.25c18.58,240.97 -44.28,1417.42 66.73,1499.52l17.6 -1640.12 -120.58 0c-40.15,25.47 -2.09,14 -74.59,28.89 -40.41,8.29 -59.47,6 -100.11,6z"/>
   <path class="fil8" d="M2773.78 16452.44c-133.85,-40.34 -186.43,-90.7 -241.47,-198.73 162.59,-0.66 206.85,54.73 241.47,198.73zm-631.63 -144.42l209.32 -71.78 -21.71 375.86c292.99,163.16 296.78,215.11 356.04,249.44 101.99,-108.71 193.6,-180.99 276.46,-371.01 -108.2,-151.82 -444.43,-419.13 -614.14,-498.61 -71.67,119.59 -161.95,234.28 -205.97,316.1z"/>
   <path class="fil8" d="M16956.35 14304.59l347.74 38.36 -22.39 -190.53c-12.35,-5.67 -26.71,-25.2 -33.55,-15.46l-300.13 -47.05 8.33 214.68z"/>
   <path class="fil8" d="M16086.64 12212.66c-285.52,-50.84 128.88,126.62 -297.13,-83.24 26.35,265.02 121.52,273.65 381.18,300.63l-84.05 -217.39z"/>
   <path class="fil8" d="M4023.6 10484.55l607.44 -2.19c135.96,-8.41 129.66,-18.99 178.4,-63.16 -145.71,0 -291.46,0.45 -437.18,-0.39 -171.56,-0.98 -217.24,-14.53 -348.66,65.74z"/>
   <polygon class="fil8" points="6989.6,16680.7 6982,16769.81 7097.99,16766.31 7167.44,16628.55 7128.96,16624.48 "/>
   <path class="fil9" d="M13378.35 11429.67l-628.3 6.35c-125.21,-6.87 -190.83,6.55 -281.19,27.84 -134.91,31.78 -176.49,16.32 -242.4,107.57 11.29,30.04 -40.66,1369.31 -41.75,1581.33 316.24,-225.92 -12.27,-1140.45 176.79,-1407.63 208.67,-197.86 648.93,-108.07 911.3,-96.24 354.68,15.99 2410.9,-162.26 3115.31,-168.81 42.09,321.51 38.56,1405.72 124.68,1564.18 57.16,-377.31 86.62,-1242.68 17.89,-1606.85 -135.9,-213.04 -1624.44,166.24 -1859.87,-76.1 -101.57,46.21 -423.58,-7.38 -630.39,-1.14 -157.1,4.73 -524.51,40.14 -662.07,69.5z"/>
   <path class="fil9" d="M8071.4 10735.49c19.2,516.3 182.9,1297.98 380.15,1707.36l77.13 -144.98c32.74,-173.78 -203.27,-636.51 -261.23,-1215.7 187.89,-118.38 339.51,-56.85 540.14,-28.54 289.13,40.78 315.81,-109.14 592.44,-82.47 265.91,680.33 -57.45,1075.67 168.74,1969.59l42.32 -112.09c21.48,-65.12 -20.62,-13.8 31.17,-100.32 14.44,-322.63 -0.2,-1276.2 69.61,-1497.93l-113.64 2.5 68.48 -449.48c-225.53,95.35 -426.26,63.33 -695.7,86.52 -50.21,-96.93 -85.57,-122.57 -129.09,-248.47 -99.88,-61.27 -15.87,-35.62 -185.82,-32.33 -377.89,-16.34 -479.14,-50.7 -533.31,297.15l-51.39 -150.81z"/>
   <path class="fil9" d="M17636.86 16857.95l-19.05 51.29 -17.6 1640.12c-89.64,121.81 -172.98,104.21 -380.74,175.57 -137.62,47.26 -274.4,110.15 -420.4,137.89l-63.38 -173.88c-121.04,-371.87 108.24,-1240.4 -76.2,-1560.22 -81.82,100.84 -55.81,216.1 -118.33,313.97l-38.47 1510.35c70.75,-114.62 28.7,-385.1 72.45,-512.86l24.41 493.22 158.02 104.29c316.7,0 461.63,-64.71 700.78,-143.56 644.94,-212.62 288.48,-444.51 382.74,-1257.14 21.56,-185.92 53.24,-697.18 -64.62,-808.59 -92.68,-19.93 -56.29,-19.42 -139.61,29.55z"/>
   <path class="fil9" d="M13137.94 12156.55c-235.36,92.67 -475.34,174.43 -411.27,518.22 44.2,237.16 240.9,456.09 541.41,396.5 313.83,-62.23 380.09,-264.6 378.09,-563.57 -1.17,-171.92 -254.88,-450.91 -508.23,-351.15z"/>
   <path class="fil9" d="M11826.62 18158.23c-183.86,-14.4 -299.26,-100.51 -338.97,-274.82 -21.03,-92.27 -14.99,-178.97 9.77,-269.99 35.02,-128.73 41.77,-158.68 132.23,-126.92l23.07 -3.6 24.1 -110.22 67.5 -10.94c165.48,-82.85 214.42,71.39 244.2,-106.02 24.72,-147.27 -131.11,-114.71 -224.34,-80.79 -87.46,31.83 -343.6,237.34 -389.38,314.32 -167.87,282.28 221.04,1114.85 451.82,668.98z"/>
   <path class="fil9" d="M12151.23 17469.02c160.7,320.81 109.59,679.92 -297.92,687.34l-42.2 174.71c227.65,75.05 426.53,-73.88 502.75,-253.7 116.4,-274.57 -57.43,-377.07 -23.61,-647.26l-139.02 38.91z"/>
   <path class="fil10" d="M5195.96 12896.18c51.49,46.33 73.32,-97.35 48,67.4 -12.02,78.25 -4.05,25.78 -40.99,66.62l-7.01 -134.02zm199.58 309.13l-14.38 -385.62 -368.71 13.77c26.09,215.47 177.2,323.85 383.09,371.85z"/>
   <path class="fil10" d="M4828.06 12680.05c-3.44,6 -121.93,-30.42 -9.1,79.71 46.72,45.61 41.17,21.54 105.82,30.09 -35.72,-132.92 -5.56,-134.65 -96.72,-109.8z"/>
   <path class="fil11" d="M7514.18 2149.65l-34.91 34.89 34.91 -34.89zm1734.35 -1988.88l152.11 0c99.55,10 199.09,34 312.65,37.23 166.04,4.74 222.09,-27.27 326.24,-37.23l110.94 0c229.01,28.6 191.58,263 374.28,410.05 224.02,180.28 352.17,73.91 289.61,518.46 -37.25,264.77 123.43,362.79 212.54,584.63 95.78,238.48 52.27,512.35 -26.98,715.14 -194.46,497.51 -68.34,318.92 4.84,632.92 851.75,0 1019.66,79.86 1889.59,-65.11 224.21,-37.37 334.72,-74.47 596.48,-74.47 -328.17,290.8 -1543.86,176.94 -2102.12,184.71 -246.06,3.42 -474.05,49.84 -707.47,57.03l-62.17 60.82c-6.71,-7.56 -14.63,-18.35 -19.24,-23.47l-263.84 -71.78c-87.95,-103.09 -185.95,-156.49 -206.34,-311.32 -17.14,-130.22 8.18,-338.84 36.33,-457.85 152.23,-643.75 185.95,-271.23 399.56,-611.09 157.54,-250.6 -67.76,-532.73 -153.09,-747.27 -137.53,-345.74 -111.46,-442.85 -507.09,-327.94l248.2 -136.2c-580.04,-324.03 -998.06,55.67 -1139.28,498.97 -25.14,78.9 -24.32,187.91 -62.7,252.89 -85.68,145.1 -69.17,-55.06 -138.07,175.99 -89.62,300.61 40.97,353.38 203.33,443.01 261.43,144.35 321.04,1261.6 -172.92,1293.52 -32.13,-212.01 27.58,-238.7 -19.94,-446.33 -45.28,19.85 -168.73,165.16 -218.31,206.36 119.85,351.89 203.99,120.99 160.53,841.69 -90.63,-192.19 -94.67,-303.01 -123.02,-544.81 -440.81,-307.77 -1011.02,-111.56 -1556.98,-188.79 -325.6,-46.05 -1133.18,-230.04 -1297.08,-392.38 161.77,52.14 306.14,107.99 482.44,160.71 363.1,108.59 265.16,49.34 474.7,-90.92 105.12,198.58 112.57,201 272.59,209.73l111.36 -0.55c327.05,88.13 585.78,161.59 755.91,-116.56 117.05,-191.37 313.87,-468.63 392.47,-654.23 -266.39,63.05 -852.54,543.77 -877.93,640.2 19.61,-84.81 66.54,-158 90.61,-242.39 63.38,-222.26 -36.16,-141.56 22.74,-324.7l-34.74 -34.9 -34.9 34.9c-215.78,144.43 -369.57,244.24 -733.03,244.24 66.34,-90.51 168.79,-115.34 269.47,-184.24 209.01,-143.01 -23.36,-84.28 423.89,-413.69 91.13,-67.11 142.55,-114.02 223.07,-195.72 443.87,-450.45 479.69,-343.05 855.61,-435.74 150.33,-37.08 135.36,-87.9 252.5,-166.31 -41.85,-115.56 -260.82,-299.05 42.84,-620.13 189.31,-200.19 335.58,-270.3 469.81,-287.08zm-1734.35 1988.88c30.51,-114.99 20.04,-110.95 139.62,-139.57l-139.62 139.57zm139.62 -139.57l0 0zm69.81 -69.78l10.42 10.39c-0.69,-0.67 -13.88,-6.93 -10.42,-10.39z"/>
   <path class="fil11" d="M7435.42 3964.06c17.46,-90.95 -50.28,-97.57 -152.72,-116.69 -91.93,-17.15 -166.68,-24.99 -235.38,12.02 37.65,311.83 192,414.93 397.05,523.39 -52.49,-225.2 -104.72,-70.17 -104.72,-383.82 44.36,-24.91 36.41,-18.63 95.77,-34.9z"/>
   <path class="fil11" d="M8319.62 4941.06c-1.67,226.38 141.76,379.35 241.73,520.46 111.21,-73.87 -27.02,-404.21 -173.06,-556.69l-77.8 -78.62 9.13 114.85z"/>
   <path class="fil11" d="M9472.73 1338.43c101.92,-26.25 201.51,-71.25 325.28,-41.69 266.1,63.54 16.36,94.66 254.32,137.61 -60.18,-161.59 -454.5,-399.19 -579.6,-95.92z"/>
   <path class="fil11" d="M8312.94 4583.01c-2.38,137.06 -10.83,42.58 39.62,77.82 64.56,-74.71 313.18,-260.79 282.84,-373.14 -122.29,50.4 -225.93,205.16 -322.46,295.32z"/>
   <polygon class="fil11" points="10551.17,4113.53 10580.11,4162.48 10684.75,4145.79 10621.34,3952.23 "/>
   <path class="fil12" d="M2142.15 16308.02c44.02,-81.82 134.3,-196.51 205.97,-316.1 169.71,79.48 505.94,346.79 614.14,498.61 -82.86,190.02 -174.47,262.3 -276.46,371.01 -59.26,-34.33 -63.05,-86.28 -356.04,-249.44l21.71 -375.86 -209.32 71.78zm1625.42 -212.75c84.44,-205.62 282.29,-423.79 400.1,-615.18l686.28 170.99c-55.49,143.13 -286.15,443.5 -392.4,597.45l-693.98 -153.26zm-1852.04 985.16c185.73,-116.27 172.71,77.66 190.88,266.03 261.88,167.5 152.75,68.9 570.35,142.92 -234.4,51.33 -277.05,16.78 -549.1,-4.3l69.08 241.52c336.76,115.04 1624.15,179.21 2112.26,241.78l-14.31 -254.64c-194.63,-55.92 -821.66,-158.83 -995.07,-168.83l989.96 85.42 102.98 -184.73 7.13 141.17c34.01,-54.97 67.66,-173.24 82.75,-224.73 44.49,-99.19 42.4,-77.73 169.47,-112.04 392.01,228.21 -39.98,338.47 217.21,451.4 -124.62,109.3 -130.09,49.48 -151.79,219.72l143.88 71.86c360.34,105.06 864.46,161.85 964.09,-290.85 -279.27,20.34 -542.48,118.36 -839.23,63.25l302.03 -81.23 -34.57 -357.82c-4.35,6.85 -10.02,16.74 -14.95,24.14l-106.15 121.87c-14.22,-770.56 140.05,-1819.26 0.5,-2545.97l-247.82 -4.29c-50.31,107 -37.44,188.28 -137.44,267.99l-90.33 110.78c-360.2,-21.66 -262.06,-123.14 -376.37,-432.98 -748.63,-47.43 -1370.01,-36.21 -2117.02,-140.49 15.1,179.13 32.16,240.95 -32.95,413.58l-146.18 -2.4c-4.77,-73.42 15.39,-59.86 -54.77,-47.79 -141.88,-67.37 -118.08,-302.17 -176.62,-373.43l-147.24 28.18c-4.85,459.89 19.79,942.64 -1.14,1397.45 -18.75,407.42 -112.4,924.56 80.23,1248.96 112.61,-45.85 158.91,-202.72 181.21,-335.97 88.09,-21.96 26.96,-15.04 49.04,24.47z"/>
   <path class="fil12" d="M1936.92 14122.03l167.16 -55.83 35.49 197.8c4.56,-8.08 9.8,-30.39 11.54,-25.33 23.73,68.55 18.17,-42.78 21.65,-51.32l20.62 -51.71c2.3,-5.74 6.06,-17.48 10.18,-25.73l27.17 253.41c147.18,45.77 1900.35,95.72 2107.02,69.52 76.63,-152.98 29.11,-120.25 130.78,-262.19l218.05 -17.8c65.4,92.91 68.21,119.34 62.68,249.79 144.66,25.78 218.1,68.02 443.28,88.83 -2.63,-377.43 75.81,-1017.17 -36.13,-1327.36 -141.26,-155.27 -2153.34,-65.01 -2598.85,-54.41 -293.96,6.99 -630.36,-34.57 -802.1,94.75l-51.63 -275.72c-133.27,40.08 -85.16,21.96 -161.11,139.53 -65.41,101.26 -75.76,86.68 -107.7,192.55 112.74,63.49 104.98,10.04 213.02,89.38 -66.22,229.63 -92.26,597.86 -47.68,848.36 28.43,159.8 23.17,146.98 189.27,152.57 93.03,-133.08 27.7,-140.82 147.29,-229.09z"/>
   <path class="fil12" d="M1580.19 19033.96l69.81 97.72c751.17,-45.78 2879.8,464.27 3385.69,291.89 144.63,-376.6 93.14,-903.14 112.26,-1338.02l-387.75 -23.72c17.6,213.73 60.75,279.92 -79.72,410.19 -81.06,76.92 -226.02,98.02 -237.66,-35.58 -30.65,-146.07 23.04,-53.75 -68.77,-87.24 -113.34,-62.67 -59.89,-143.38 -80.59,-332.22l-1980.24 -194.78c-76.34,93.29 -130.16,239.96 -187.48,331.29l-180.31 -8.38c-70.26,-102.96 -48,-171.34 -88.7,-292.72 -20.19,-60.2 32.11,-102.35 -219.39,-83.49l-5.59 991.08c2.55,170.85 11.03,208.86 -51.56,273.98z"/>
   <path class="fil12" d="M6594.1 12933.74l9.81 266.87 -136.4 -0.15 27.57 -275.73 99.02 9.01zm-606.24 2137.29c128.13,6.05 91.11,10.18 194.49,-38.32l-178.62 -2.55c295.39,-161.24 222.59,75.52 299.23,-358.76 42.9,102.32 11.7,79.59 31.37,169.2l82.54 165.9c145.6,-351.3 82.61,-402.34 31.94,-800.32 -38.38,-301.4 -16.57,-657.54 -22.03,-967.6 196.53,94.21 182.5,18.44 189.71,214.65l30.69 -206.49c0.31,-86.07 -10.43,-159.16 -20.9,-245.48 28.73,-105.56 26.19,-44.26 -32.18,-67.52 -38.63,-33.79 29.16,-15.69 -60.38,-33.91 -26.87,-5.45 -61.68,-3.25 -89.6,-3.25 165.97,313.66 -717.93,233.08 -779.95,245.8 -132.27,252.88 -96.89,1085.85 -60.54,1392.29l621.16 -16.47c78.92,-142.98 47.2,-230.3 52.18,-387.66l57.27 430.6c-594.48,47.09 -1034.59,-78.1 -1590.56,7.59l9.04 212.29c323.65,245.37 1071.92,8.17 1478.6,98.76 -8.13,5.59 -21.56,1.5 -26.64,12.88l-603.28 22.76 -47.06 2774.67c421.09,-91.71 280.96,-344.29 272.17,-1199.35 -3.67,-357.94 -101.3,-1207.67 47.09,-1463.76 217.75,-14.15 43.07,-11.62 114.26,44.05z"/>
   <path class="fil12" d="M2176.22 14701.6l2166.12 119.01 10.61 -331.57c-761.18,27.03 -1436.04,-95.96 -2202.47,-31.03l25.74 243.59z"/>
   <path class="fil12" d="M5539.56 19389.37l27.91 9.62c7.13,-62.04 -45.35,-24.9 61.83,-35.03 66.58,-88.43 151.95,-130.18 182.57,-208.92 36.57,-94.09 33.58,-1002.85 36.34,-1146.03 -178.5,25.32 -232.62,-0.42 -285.87,158.89 -72.31,216.43 -44.34,1013.19 -22.78,1221.47z"/>
   <polygon class="fil12" points="1478.93,14668.6 1786.43,14664.09 1838.52,14397.26 1444.55,14398.37 "/>
   <path class="fil12" d="M1487.23 17701.46l324.74 -6.37 1.06 -218.66c-98.44,-40 -216.29,-68.23 -351.91,-78.42l26.11 303.45z"/>
   <path class="fil13" d="M7179.16 16594.18c200.94,114.2 304.03,391.43 109.65,612.66 -100.85,114.77 -491.49,274.09 -590.4,35.91 -85.87,-132.6 -261.36,-272.19 -156.82,-464.33 3.58,-6.57 10.26,-14.43 14.18,-20.87l132.91 -184.98c69.06,-53.44 151.35,-54.44 234.95,-107.56 54.29,48.85 7.31,19.52 45.54,50.94 63.73,52.35 -13.1,7.33 66.86,43.45 66.58,30.08 77.08,6.85 143.13,34.78zm1416.69 -3488.25c0.87,194.33 60.33,402.45 70.4,593.01 13.54,255.71 2.65,435.33 -46.69,628.24 -8.33,146.77 -3.45,333.78 -64.35,467.69l-487.87 49.4 -140.88 132.09 9.7 707.31c-161.96,-149.81 -39.25,-559.51 -130.12,-855.98 -69.11,92.74 -54.24,26.98 -73.17,246.81l-262.17 -31.63c-1529.81,71.46 -1511.32,-12.45 -1506.06,363.36l-8.23 4007.96c241.58,36.63 692.2,-11.2 964.37,-9.81 268.79,1.38 710.65,77.99 883.29,69.28l36.71 -895.85c12.83,-310.75 -1.44,-722.97 -10.51,-1040.61 -10.22,-357.73 -90.35,-593.22 100.88,-872.85 33.44,387.61 -134.36,2587.47 86.17,2754.78 186.38,97.03 667.49,27.96 922.5,86.4 179.28,-941.28 -360.5,-3146.1 -273.92,-4900.61 13.94,-282.51 14.3,-552.45 23.67,-836.03l-98.46 -790.68 4.74 127.72z"/>
   <path class="fil13" d="M12151.23 17469.02l139.02 -38.91c-33.82,270.19 140.01,372.69 23.61,647.26 -76.22,179.82 -275.1,328.75 -502.75,253.7l42.2 -174.71 -26.69 1.87c-230.78,445.87 -619.69,-386.7 -451.82,-668.98 45.78,-76.98 301.92,-282.49 389.38,-314.32 93.23,-33.92 249.06,-66.48 224.34,80.79 -29.78,177.41 -78.72,23.17 -244.2,106.02 244.07,-12.96 252.81,50.24 406.91,107.28zm261.56 -1289.28l-26.1 189.55 -519.83 -331.03c-333.15,-191.55 -235.77,-186.28 -678.18,-385.16 30.03,-109.21 368.03,-644.86 444.37,-721.84 189.94,110.21 366.36,239.53 570.44,361.91l573.96 325.04c-29.06,122.08 -284.54,471.28 -364.66,561.53zm-1437.09 -1401.46c-65.46,200.16 -53.44,1081.33 -54.97,1398.21 -2.25,471.66 109,813.65 72.84,964.48 -88.5,369.16 -162.1,-191.04 -133.03,711.55l1.46 1641.77 2055.37 1 -46.91 -4837.96c-219.15,-50.01 -1555.42,98.81 -1894.76,120.95z"/>
   <path class="fil13" d="M14146.27 19525.61c150.09,-2.36 220.09,-34.32 418.87,-34.32l19.71 -383.82 -3.68 -248.25 -23.91 0.72c-134.06,-284.24 76.74,-3414.02 -8.95,-4062.33 -218.08,-42.08 -721.43,-158.78 -916.03,-98.47l229.58 105.84 -270.8 49.5c-41.14,849.98 0.91,1787.56 0.07,2647.93 -2.23,2310.91 -124.18,2016.27 555.14,2023.2z"/>
   <path class="fil13" d="M9864.31 11145.16l-52.02 2310.73c-6.35,170.39 29.98,577.4 -99.04,668.78 -118.69,-68.94 -79.86,-156.52 -77.38,-319.99l6.39 -1076.34c-51.79,86.52 -9.69,35.2 -31.17,100.32l-42.32 112.09c37.63,220.63 -8.58,570.65 13.2,827.05 21.41,251.94 45.17,535.14 58.26,802.88 68.78,1406.64 -265.58,2463.32 -256.65,4013.41 1.72,298.88 55.03,533.69 71.5,811.34l392.42 -7.41c34.68,-337.66 119.79,-664.6 125.25,-1013.14 15.16,-970.01 -205.62,-1982.27 -134.22,-3189.13 43.88,-741.77 -36.08,-1504.33 16.17,-2215.42 24.2,-329.19 60.93,-697.16 71.88,-1050.73 12.28,-396.62 -51.81,-706.51 -5.96,-1119.52 -80.04,131.67 -65.46,157.47 -56.31,345.08z"/>
   <path class="fil13" d="M13498.52 19453.8c69.65,-339.66 92.89,-4498.65 30.23,-4742.08l-362.31 -59.84 -22.84 4850.43 354.92 -48.51z"/>
   <path class="fil13" d="M18615.75 1277.33l90.04 104.68c-67.74,51.42 -119.31,48.29 -198.33,102.67 -71.76,49.37 -71.24,73.65 -144.46,129.64l59.61 100.68c23.49,6.96 113.23,-23.44 81.85,111.83 -31.92,137.62 -282.99,103.51 -399.96,94.7l-26.26 -193.08 229.94 -17.68 -137.61 -103.18c-3.59,-11.8 -15.05,-10.39 -21.66,-16.65 85.51,-24.69 174.32,-80 233.96,-81.2 -326.71,-29.51 -500.31,81.46 -499.18,395.67 190.36,92.16 241.18,20.19 398.2,155.9 -349.48,52.92 -894.85,-3.78 -1095.22,227.91l1043.59 -174.46c0,226.95 -23.2,384.13 -34.98,628 -7.31,151.55 -26.9,127.27 -35,279.04l9.47 1630.81c70.26,541.7 256.42,1918.42 584.09,2137.76 -410.22,-1760.13 -527.58,-1578.41 -524.78,-3595.14 0.23,-172.02 28.85,-464.43 55.08,-642.79 18.58,-126.31 23.36,-198.99 49.66,-299.29 28.75,-109.64 60.73,-154.69 70.99,-277.97l180.71 656.78c21.92,200.91 62.44,485.68 88.02,679.65 63.81,483.69 117.34,905.59 195.27,1374.97 96.87,583.45 329.66,2178.04 687.88,2417.83 -6.25,-280.86 -242.64,-889.82 -326.98,-1173.53 -196.23,-660.13 -580.56,-3194.53 -580.56,-3920.8 177.9,-3.96 206.25,-30.6 279.24,-139.57 -139.68,-32.53 -170.38,-68.96 -314.16,0 19.95,-239.58 164.63,-435.8 209.45,-628.07 -105.73,2.35 -126.92,15.63 -207.91,34.89z"/>
   <path class="fil13" d="M10430.97 17587.51c25.37,507.62 -134.46,1313.46 -11.12,1800.35l325.58 19.67c18.49,-628.38 -31.59,-1479.49 -51.55,-2149.37 -12.13,-406.67 33.13,-429.55 -81.52,-644.51l-181.39 973.86z"/>
   <path class="fil13" d="M7514.01 2219.44l-69.64 0c-42.07,157.47 -123.14,127.92 -200.02,288.54 -45.61,95.29 -80.64,299.46 -114.14,409.14 327.05,88.13 585.78,161.59 755.91,-116.56 117.05,-191.37 313.87,-468.63 392.47,-654.23 -266.39,63.05 -852.54,543.77 -877.93,640.2 19.61,-84.81 66.54,-158 90.61,-242.39 63.38,-222.26 -36.16,-141.56 22.74,-324.7z"/>
   <path class="fil13" d="M8137.36 4347.88l5.03 -135.55c-96.53,-44.32 -266.12,-185.98 -362.15,-205.75 -101.22,-20.85 -123.4,0.47 -162.69,27.27 -2.87,409.66 -221.6,312.61 -277.9,523.39 201.76,0 281.21,-20.37 423.81,-64.84 146.7,-45.75 250.79,-113.67 373.9,-144.52z"/>
   <path class="fil13" d="M9459.42 19529.87l329.44 52.76c-38.4,-88.43 33.17,-68.44 -119.69,-120.83 -116.11,-39.79 -107.06,-23.05 -217.87,-6.46l8.12 74.53z"/>
   <path class="fil14" d="M8035.79 9519.35c-44.78,-355.88 -71.49,-575.43 211.4,-720.98l110.71 150.04c31.46,58.96 41.55,86.48 61.98,145.67l229.92 -19.42c7.33,305.01 -304.73,416.93 -614.01,444.69zm3597.26 -743.41c-182.44,-154.07 -212.63,-257.59 -141.7,-531.5 189.49,19.79 115.85,45.04 258.31,108.54 117.28,52.28 107.6,-4.11 185.72,-23.64 21.97,230.66 -156.2,383.79 -302.33,446.6zm-2652.83 -0.39c-55.16,-83.82 -160.38,-267.06 -150.83,-381.85 16.76,-201.3 153.53,-132.81 294.2,-110.88 180.32,28.12 297.36,29.01 155.61,268.13 -59.37,100.16 -161.67,187.47 -298.98,224.6zm1671.3 -1182.55l200.72 -76.21c10.56,-42.25 4.7,-39.65 19.55,-87.21 20.63,-66.04 22.9,-55.46 59.62,-122.44 183.41,60.33 260,265.68 292.12,457.63l-114.06 451.35c-532.35,38.77 -1035.24,-732.77 -457.95,-623.12zm-1160.49 69.69c87.12,-75.03 391.15,37.75 471.98,59.72 -39.14,94.95 -20.46,57.69 -82.84,143.19 -303.5,415.96 -347.67,102.54 -389.14,-202.91zm-55.72 -767.64c2.55,-135.22 104.36,-311.95 181.48,-410.07 96.41,-122.68 200.01,-129.24 392.08,-129.7 16.13,180.89 -37.58,220.54 -75.28,365.3 95.7,54.87 111.26,15.38 232.71,104.68 -31.24,77.74 1.92,21.46 -59.87,78.97 -205.04,190.87 -429.3,111.72 -671.12,-9.18zm-453.73 -535.23c-109.81,-142.86 -225.23,-356.94 -70.8,-538.73 201.13,-13.75 25.2,21.83 207.89,97.25 143.18,59.11 141.87,-38.4 208.11,45.87 41.12,52.32 -71.2,277 -345.2,395.61zm568.88 -953.47c-14.43,-63.2 -70.96,-109.35 -53.02,-163.04 121.98,-62.14 230.97,-55.87 378.89,23.32l62.36 42.43c3.07,-6.27 13.23,10.28 19.49,15.82 -79.91,161.1 -159.97,320 -406.48,297.77 -15.4,-114.23 17.76,-133.06 -1.24,-216.3zm-915.06 -1118.66c30.34,112.35 -218.28,298.43 -282.84,373.14 -50.45,-35.24 -42,59.24 -39.62,-77.82l-30.83 5.37c0,54.69 -5.1,129.53 -2.73,180.89 1.77,38.26 1.89,57.98 10.18,95.29 18.03,81.23 -2.44,28.85 30.06,76.5l-9.13 -114.85 77.8 78.62c146.04,152.48 284.27,482.82 173.06,556.69 91.27,199.31 128.04,800.08 46,1025.9 -62.87,173 -359.18,438.79 -464.87,756.38 173.79,7.1 379.9,183.41 435.1,333.09 84.41,228.93 -16.48,474.17 -72.7,656.86 -382.45,-22.66 -355.01,-202.55 -676.56,-236.02 -51.63,132.19 -12.79,150.61 -45.84,282.59 -20.05,80.08 -64.88,105.19 -104.35,209.22 -55.04,145.07 -77.72,376.56 -43.01,568.86l139.29 1304.34c39.25,-142.37 10.8,-281.09 1.32,-436.11l364.86 117.74 177.1 -314.56c334.96,145.89 296.15,399.84 233.91,794.07l104.5 65.27c169.95,-3.29 85.94,-28.94 185.82,32.33 32.34,-67.27 118.42,-72.7 129.85,-97.6 8.26,-195.8 180.19,-584.29 228.31,-859.89 94.32,-540.1 -19.53,-737.03 165.63,-923.14 -20.47,217.93 -38.7,303.5 4.75,525.24 179.9,-131.08 291.24,-573.01 622.03,-455.2 45.29,110.47 -31.83,223.77 -64.84,359.29l261.93 70.94c-275.16,327.17 -398.09,169.28 -817,103.6l99.64 682.85 252.66 37.8c163.98,19.48 157.49,14.56 229.23,115.55 59.64,83.94 96.06,127.56 49.88,213.54 154.88,-10.85 380.26,-50 502.44,-108.6 -181.94,-10.17 -79.47,-1.6 -115.25,-41.11l36.42 -230.26 430.93 23.18 35.89 -287.22c407.04,83.67 222.27,344.5 351.76,635.06 195.34,-0.54 47.22,7.27 97.11,-46.82 25.15,-205.56 8.9,-420.46 -85.97,-589.42 -92.7,-165.05 -273.39,-200.06 -441.36,-264.58l-174.78 -27.97c-58.38,-467.15 5.01,-441.29 210.83,-660.71 125.44,130.74 111.11,79.77 115.42,313.36 147.71,-24.77 189.96,-42.98 320.11,-12.45 -19.64,248.12 -168.26,177.44 -237.28,389.96l268.65 1.67c83.44,88 79.84,144.66 135.26,237.85 114.26,192.15 95.47,19.49 179.07,134.53 157.92,-28.31 71.01,7.17 186.12,-95.48 79.83,-71.19 22.85,-54.09 142.56,-99.2 138.78,-52.3 243.49,-57.35 366.13,-119.35 -72.32,-192.6 -144.8,-125.35 -293.92,-260.57 37.13,-39.77 202.37,-552.4 548.61,-500.37l-3.32 371.95 146.67 98.65c284.9,174.19 207.97,134.51 253.2,19.26l53.53 180.32c122.24,-63.35 14.68,-23.27 136.1,-95.1 0.53,210.45 -26.42,-11.02 69.81,80.99l0 -139.39c0.09,-0.06 750.17,-869.78 71.34,-873.84 -288.43,-1.72 -419.69,0.77 -550.92,-182.03 -97.15,-135.32 -76.02,-249.44 -253.44,-514.3 -111.71,26.01 -339.26,150.74 -445.17,129.91 -280.74,-55.21 -556.26,-730.61 -843.87,-932.44 -48.18,37.62 -4.42,8.91 -73.71,37.45 -157.33,64.78 -446.25,199.28 -488.36,44.54 -1.1,-4.05 -6.35,-15.87 -7.45,-21.08 -20.09,-95.46 12.51,-337.31 78.98,-585.27l104.1 -69.08 0 -782.45c-51.1,86.94 -29.2,103.67 -95.74,195.17 -7.97,-4.84 -17.29,-13.25 -21.74,-17.61l-309.05 -367.37c-95.1,-254.78 265.37,-191.75 426.53,-179.77 120.59,-235.06 -11.69,-254.03 279.24,-404.05 24.57,-41.83 76.17,25.76 0,-70.78 -203.14,-117.08 -230.93,-21.6 -468.24,-47.6l-61.12 -499.56 -28.94 -48.95c-258.83,236.35 -276.82,203.04 -469.72,392.6 -116.62,114.59 -313.19,324.2 -438.02,393.22 -99.18,-87.74 -85.54,-126.87 -207.99,-237.92l-349.37 -349.99c-73.57,-53.02 -72.83,-25.39 -136.9,-66.46 -117.13,-75.09 -56.94,-157.61 -206.47,-280.74 -14.31,292.41 11.51,159.54 -107.3,323.45z"/>
   <path class="fil14" d="M15789.51 12129.42c426.01,209.86 11.61,32.4 297.13,83.24l84.05 217.39c-259.66,-26.98 -354.83,-35.61 -381.18,-300.63zm-210.51 34.15c104.12,113.24 167.83,225.93 226.52,357.42l-200.75 -22.7c-80.59,10.87 -25.34,-5.26 -78.47,27.87 101.62,45.15 208.56,72.54 291.34,158.11 -411.09,4.42 -621.08,-185.45 -827.5,-348.38l5.52 -334.79c179.38,-133.42 324.14,-184.3 435.09,22.93 73.23,-51.03 99.48,-85.75 251.55,-43.9l82.56 31.63c6.34,2.59 17.99,7.03 25.85,12.51 -72.11,113.9 -50.14,134.72 -211.71,139.3zm-528.89 -326.61c-265.44,103.84 -386.32,425.47 31.53,718.01 234.04,163.86 595.87,303.13 937.55,190.31 702.36,-231.93 -144.76,-1230.79 -969.08,-908.32z"/>
   <path class="fil14" d="M15676.64 14857.67l-274.36 -141.45c179.87,-7.18 221.29,30.48 274.36,141.45zm-409.98 -278.47c-31.34,38.65 -49.21,60.48 -80.89,91.68 93.31,16.62 48.04,-10.7 115.38,34.58 -78.09,171.76 -106.38,26.35 -139.26,249.32 603.79,-277.64 478.54,157.37 622.92,314.03 47.21,-223.54 -15.88,-262.46 -108.17,-411.14 101.18,-37.45 68.33,-31.78 155.35,-78.58 -73.38,-159.95 -5.86,-181.28 -208.49,-224.07 -178.34,-37.68 -198.08,-18.22 -356.84,24.18z"/>
   <path class="fil14" d="M15579 12163.57l-211.02 -146.74 -119.79 201.43c87.19,21.2 133.48,46.83 189.61,81.57l85.21 -85.72c4.82,-4.89 13.02,-13.48 17.52,-17.87l38.47 -32.67z"/>
   <path class="fil15" d="M1021.71 1312.23l10.4 10.4c-0.68,-0.68 -13.88,-6.93 -10.4,-10.4zm-104.73 -34.9c37.1,-37.09 132.41,55.38 38.9,18.13 -0.81,-0.31 -97.35,40.31 -38.9,-18.13zm8555.75 61.1c125.1,-303.27 519.42,-65.67 579.6,95.92 -237.96,-42.95 11.78,-74.07 -254.32,-137.61 -123.77,-29.56 -223.36,15.44 -325.28,41.69zm489.24 -483.06c65.13,-84.82 88.95,-100.26 240.23,-94.74 51.02,52.06 76.73,97.79 95.04,171.75l-335.27 -77.01zm-134.86 182.17c-157.56,-73.45 -5.25,18.07 -112.06,-112.57 -34.99,-42.8 -56,-50.62 -102.15,-107.34 166.12,8.15 178.44,65.03 214.21,219.91zm-644.26 -99.52c41.49,-110.15 24.76,-100.14 116.54,-194.14l211.64 71.93c-88.64,74.52 -195.16,91.45 -328.18,122.21zm-3393.73 1700.13c-104.23,-50.72 -165.97,-117.5 -265.13,-173.99 -1030.52,-587.01 -3000.03,-377.5 -3690.35,-1056.36 -152.44,-149.9 -332.69,-250.38 -532.7,-339.81 -307.08,-137.33 -335.77,-134.83 -698.1,-104.69 15.45,185.75 60.96,161.73 139.61,279.14 -155.01,-36.1 -204.68,-28.28 -359.91,34.89 88.12,211.35 179.23,249.83 427.62,307.66l-130.73 285.52c102.46,170.17 508.75,186.42 776.49,228.91 332.1,52.69 558.3,107.49 844.25,202.84 417.36,139.17 1150.91,456.38 1528.28,565.85 546.89,158.65 1107.54,280.85 1611.77,482.41 459.87,183.83 1007.16,508.87 1607.1,508.87 68.7,-37.01 143.45,-29.17 235.38,-12.02 102.44,19.12 170.18,25.74 152.72,116.69l10.74 104.54c77.55,-18.34 77.82,-26.84 171.39,-34.75 39.29,-26.8 61.47,-48.12 162.69,-27.27 96.03,19.77 265.62,161.43 362.15,205.75l-5.03 135.55c8.39,104.17 21.21,128.63 40.03,209.36 49,27.52 36.71,18.46 104.72,31.14l30.83 -5.37c96.53,-90.16 200.17,-244.92 322.46,-295.32 118.81,-163.91 92.99,-31.04 107.3,-323.45 149.53,123.13 89.34,205.65 206.47,280.74 64.07,41.07 63.33,13.44 136.9,66.46l349.37 349.99c122.45,111.05 108.81,150.18 207.99,237.92 124.83,-69.02 321.4,-278.63 438.02,-393.22 192.9,-189.56 210.89,-156.25 469.72,-392.6l70.17 -161.3 63.41 193.56c132.75,47.29 290.45,154.31 404.55,236.99 279.12,-135.92 192.62,-305.23 633.84,-398.46 290.73,-61.42 575.2,-90.85 872.38,-139.82 572.42,-94.32 1114.04,-261.91 1643.13,-416.17 282.37,-82.33 512.96,-136.69 792.86,-219.31 401.26,-118.46 1063.73,-403.05 1458.42,-565.91 230,-94.91 590.34,-209.43 696.74,-353.89 200.37,-231.69 745.74,-174.99 1095.22,-227.91 -157.02,-135.71 -207.84,-63.74 -398.2,-155.9 -1.13,-314.21 172.47,-425.18 499.18,-395.67 -59.64,1.2 -148.45,56.51 -233.96,81.2 6.61,6.26 18.07,4.85 21.66,16.65l137.61 103.18 114.43 4.23 -59.61 -100.68c73.22,-55.99 72.7,-80.27 144.46,-129.64 79.02,-54.38 130.59,-51.25 198.33,-102.67l-90.04 -104.68c-332.71,0 -435.02,-56.11 -740.49,28.96 -523.27,145.74 -629.21,584.27 -1703.97,843.84 -209.58,50.62 -487.1,107.29 -704.63,133.05 -799.62,94.67 -700.99,158.77 -1350.41,359.83 -186,57.59 -322.18,45.82 -488.7,140.15 -1.58,0.9 -62.69,39.71 -63.49,40.27 -8.1,5.67 -31.56,23.66 -38.13,28.78l-35.1 30.18c-328.17,290.8 -1543.86,176.94 -2102.12,184.71 -246.06,3.42 -474.05,49.84 -707.47,57.03l-62.17 60.82c-207.6,83.03 -5.39,-28.49 -144.67,155.49 9.59,-140.56 23.62,-95.34 47.13,-226.67l-185.54 -24.07c-87.95,-103.09 -185.95,-156.49 -206.34,-311.32 -17.14,-130.22 8.18,-338.84 36.33,-457.85 152.23,-643.75 185.95,-271.23 399.56,-611.09 157.54,-250.6 -67.76,-532.73 -153.09,-747.27 -137.53,-345.74 -111.46,-442.85 -507.09,-327.94l248.2 -136.2c-580.04,-324.03 -998.06,55.67 -1139.28,498.97 -25.14,78.9 -24.32,187.91 -62.7,252.89 -85.68,145.1 -69.17,-55.06 -138.07,175.99 -89.62,300.61 40.97,353.38 203.33,443.01 261.43,144.35 321.04,1261.6 -172.92,1293.52 -32.13,-212.01 27.58,-238.7 -19.94,-446.33 -45.28,19.85 -168.73,165.16 -218.31,206.36 119.85,351.89 203.99,120.99 160.53,841.69 -90.63,-192.19 -94.67,-303.01 -123.02,-544.81 -440.81,-307.77 -1011.02,-111.56 -1556.98,-188.79 -325.6,-46.05 -1133.18,-230.04 -1297.08,-392.38z"/>
   <path class="fil15" d="M10003.99 10394.46c-67.32,6.29 -133.09,8.05 -200.06,44.53 -86.87,47.3 -98.18,34.7 -91.93,170.89l0.96 363.92 66.24 -87.02c15.63,135.39 7.73,175.74 85.11,258.38 -9.15,-187.61 -23.73,-213.41 56.31,-345.08 -45.85,413.01 18.24,722.9 5.96,1119.52 -10.95,353.57 -47.68,721.54 -71.88,1050.73 -52.25,711.09 27.71,1473.65 -16.17,2215.42 -71.4,1206.86 149.38,2219.12 134.22,3189.13 -5.46,348.54 -90.57,675.48 -125.25,1013.14 -74.47,369.31 -19.53,329.42 179.89,530.83 172.58,-95.1 72.89,-140.79 373.78,-162.53 14.35,-41.43 22.17,-303.06 247.02,-189.13 152.71,77.38 61.53,37.17 42.41,64.87 53.87,33 -105.87,75.89 192.34,-14.34 210.44,-63.68 638.35,13.14 908.31,13.14 121.89,-78.69 961.87,-25.59 1193.12,-44.45l-14.62 -5053.13c-355.86,19.66 -703.36,50.09 -1055.45,79.26 -159.23,13.19 -781.2,30.07 -881.51,94.55 -63.53,40.85 -34.36,16.75 -57.09,71.19 339.34,-22.14 1675.61,-170.96 1894.76,-120.95l46.91 4837.96 -2055.37 -1 -1.46 -1641.77c-173.75,283.92 -64.83,1255.18 -60.78,1644.2l-378.65 -15.28c-218.59,-529.94 -60.4,-1329.98 9.86,-1893.93l181.39 -973.86 117.09 -533.67c45.79,255.75 -19.07,531.61 126.59,712.92 10.42,-146.57 -3.61,-294.55 -0.35,-441.98 8.53,-386.3 37.43,-201.09 -50.43,-435.1 -68.27,-181.88 -8.82,-730.76 -1.1,-960.57 13.96,-415.47 -92.76,-1580.15 60.97,-1850.12l44.6 -16.99c45.2,-14.17 -16.38,14.5 60.12,-17.09 0,-896.37 414.83,-1799.79 419.16,-2267.78 1.71,-183.29 22.7,-209.68 34.62,-344.03l-25.99 87.27c-6.86,-8.09 -14.01,-19.6 -19.25,-25.33 -82.54,-90.38 -64.62,-77.66 -135.95,-92.97l-621.65 14.31c-110.94,-136.62 41.49,-126.62 -114.36,-156.66 -122.18,58.6 -347.56,97.75 -502.44,108.6z"/>
   <path class="fil15" d="M8451.55 12442.85c49.43,137.52 -20.07,136.81 17.59,300.77 17.07,74.32 24.04,63.67 56.15,119 18.71,32.26 60.48,105.27 65.82,115.59l98.46 790.68c-9.37,283.58 -9.73,553.52 -23.67,836.03 -86.58,1754.51 453.2,3959.33 273.92,4900.61l-81.27 225.02c100.58,50.4 128.98,41.25 214.84,87.34 87.88,47.18 94.8,74.54 186.07,112.35 43.22,-70.95 16.44,-66.37 70.77,-121.23 42.42,-42.83 7.9,-7.43 60.93,-45.66l68.26 -233.48 -8.12 -74.53 3.78 -59.91c-16.47,-277.65 -69.78,-512.46 -71.5,-811.34 -8.93,-1550.09 325.43,-2606.77 256.65,-4013.41 -13.09,-267.74 -36.85,-550.94 -58.26,-802.88 -21.78,-256.4 24.43,-606.42 -13.2,-827.05 -226.19,-893.92 97.17,-1289.26 -168.74,-1969.59 -276.63,-26.67 -303.31,123.25 -592.44,82.47 -200.63,-28.31 -352.25,-89.84 -540.14,28.54 57.96,579.19 293.97,1041.92 261.23,1215.7l-77.13 144.98z"/>
   <path class="fil15" d="M18963.27 8928.74c0,203.85 13.53,319.33 48.3,500.09 55.41,288.04 119.53,228.88 300.77,306.96l104.69 15.77 -155.32 -347.61c234.9,36.68 286.62,94.05 443.9,136.37 145.7,39.2 240.98,0.37 345.4,70.36 77.22,51.76 32.09,15.46 75.9,75.78 254.56,0 361.73,-109.24 436.94,-279.14 37.05,-185.87 124.83,-384.34 138.03,-567.67 17.83,-247.62 -13.55,-132.45 -84.86,-249.33 -56.7,-92.94 -53.81,-149.01 -13.17,-224.85 -11.44,-145.48 -60.07,-201.4 -203.03,-214.28 -26.03,25.11 -20.53,22.05 -60.52,51.53 -17.19,12.69 -49.73,29.19 -62.82,36.67l-197.22 -236.79c-309.48,87.25 -620.67,365.07 -1017.91,463.32 21.81,149.75 71.27,307.68 111.57,450.16 29.91,105.73 127.69,325.47 68.61,428.07 -130.82,-100.35 -106.54,-269.8 -279.26,-415.41z"/>
   <path class="fil15" d="M6182.35 15032.71c-103.38,48.5 -66.36,44.37 -194.49,38.32 -12.96,-1.15 -30.19,-6.36 -38.56,-6.01 -7.21,0.3 -26.46,0.51 -33.51,1.03l-37.01 4425.89c513.96,30.17 1026.26,6.71 1532.05,12.37 70.59,0.8 157.98,-0.26 226.98,5.97 36.85,3.33 79.79,9.72 117.84,20.77 95.84,27.82 48.38,13.62 85.55,41.74l-571.36 -11.93 1527.42 35.11c-173.98,-75.29 -683.6,-20.77 -915.78,-20.77l-40.7 -997.39 -36.71 895.85c-172.64,8.71 -614.5,-67.9 -883.29,-69.28 -272.17,-1.39 -722.79,46.44 -964.37,9.81l8.23 -4007.96c-5.26,-375.81 -23.75,-291.9 1506.06,-363.36 120.5,-31.05 131.34,-18.33 215.44,-80.79 -41.8,-26.56 5.07,-15.59 -69.77,-29.18l-452.63 28.66c-95.77,5.9 -160.77,11.7 -245.95,19.34 -192.51,17.28 -175.83,13.83 -247.5,-29.81l-65.23 -30.75 2.24 -172.01 -38.89 257.72 -386.06 26.66z"/>
   <path class="fil15" d="M13498.52 19453.8l-354.92 48.51 22.84 -4850.43 362.31 59.84c-104.56,-163.05 -289.19,-151.77 -483.73,-124.56l32.53 4996 428.2 -36.06 -7.23 -93.3z"/>
   <path class="fil15" d="M8596.25 19984.73l-69.8 64.01c179.11,196.95 302.81,214.97 669.47,220.44 -18.49,-230.65 22.61,-297.35 -177.2,-363.33 -263.03,-86.87 -262.82,0.78 -422.47,78.88z"/>
   <path class="fil15" d="M10760.41 19934.19l-69.81 -23.65c-262.68,-32.99 -334.08,-36.59 -577.75,50l-17.43 285.38 559.97 -65.37c66.72,-268.69 16.05,-189.19 105.02,-246.36z"/>
   <path class="fil15" d="M9710.66 20265.32c183.04,17.95 326.33,20.22 271.31,-204.14 -29.32,-119.58 -161.34,-181.42 -272.91,-213.54l1.6 417.68z"/>
   <path class="fil15" d="M9551.81 20279.17l8.95 -406.47c-156.6,7.34 -238.04,49.23 -258.55,185.43 -29.42,195.51 87.59,190.52 249.6,221.04z"/>
   <path class="fil16" d="M13528.75 14711.72c62.66,243.43 39.42,4402.42 -30.23,4742.08l7.23 93.3 -428.2 36.06 -32.53 -4996c194.54,-27.21 379.17,-38.49 483.73,124.56zm2390.66 444.11c-147.97,843.58 -1360.97,300.8 -733.64,-484.95 31.68,-31.2 49.55,-53.03 80.89,-91.68l86.59 -263.62c151.57,14.17 668.45,240.35 767.16,325.64 -40.64,150.65 -102.25,397.81 -201,514.61zm1328.74 -1018.87c6.84,-9.74 21.2,9.79 33.55,15.46l22.39 190.53 -347.74 -38.36 -8.33 -214.68 300.13 47.05zm-4110.21 -1980.41c253.35,-99.76 507.06,179.23 508.23,351.15 2,298.97 -64.26,501.34 -378.09,563.57 -300.51,59.59 -497.21,-159.34 -541.41,-396.5 -64.07,-343.79 175.91,-425.55 411.27,-518.22zm1912.17 -319.59c824.32,-322.47 1671.44,676.39 969.08,908.32 -341.68,112.82 -703.51,-26.45 -937.55,-190.31 -417.85,-292.54 -296.97,-614.17 -31.53,-718.01zm-379.3 -475.65c235.43,242.34 1723.97,-136.94 1859.87,76.1 68.73,364.17 39.27,1229.54 -17.89,1606.85 -86.12,-158.46 -82.59,-1242.67 -124.68,-1564.18 -704.41,6.55 -2760.63,184.8 -3115.31,168.81 -262.37,-11.83 -702.63,-101.62 -911.3,96.24 -189.06,267.18 139.45,1181.71 -176.79,1407.63 1.09,-212.02 53.04,-1551.29 41.75,-1581.33 -208.53,388.8 -41.89,1099.47 -117.27,1639.19l50.46 1328.17c-479.69,14.38 -812.31,116.54 -1301.87,30.93l3.61 -451.89 3.74 -1012.7c-153.73,269.97 -47.01,1434.65 -60.97,1850.12 -7.72,229.81 -67.17,778.69 1.1,960.57 87.86,234.01 58.96,48.8 50.43,435.1 -3.26,147.43 10.77,295.41 0.35,441.98 -145.66,-181.31 -80.8,-457.17 -126.59,-712.92l-117.09 533.67c114.65,214.96 69.39,237.84 81.52,644.51 19.96,669.88 70.04,1520.99 51.55,2149.37l-325.58 -19.67c-123.34,-486.89 36.49,-1292.73 11.12,-1800.35 -70.26,563.95 -228.45,1363.99 -9.86,1893.93l378.65 15.28c-4.05,-389.02 -112.97,-1360.28 60.78,-1644.2 -29.07,-902.59 44.53,-342.39 133.03,-711.55 36.16,-150.83 -75.09,-492.82 -72.84,-964.48 1.53,-316.88 -10.49,-1198.05 54.97,-1398.21 22.73,-54.44 -6.44,-30.34 57.09,-71.19 100.31,-64.48 722.28,-81.36 881.51,-94.55 352.09,-29.17 699.59,-59.6 1055.45,-79.26l14.62 5053.13c-231.25,18.86 -1071.23,-34.24 -1193.12,44.45 -36.22,124.94 -22.02,37.76 16.34,69.79 190.34,-91.29 1490.39,-52.87 1815.31,-69.58 115.02,-5.9 418.72,-37.99 523.37,-105.46 -679.32,-6.93 -557.37,287.71 -555.14,-2023.2 0.84,-860.37 -41.21,-1797.95 -0.07,-2647.93l270.8 -49.5 -229.58 -105.84c194.6,-60.31 697.95,56.39 916.03,98.47 85.69,648.31 -125.11,3778.09 8.95,4062.33l39.26 -1359.07c4.54,43.86 4.3,128.35 5.27,175.79l-1.77 1070c320.42,28.87 1482.84,128.66 1701.81,14.85 60.83,-54.61 31.27,-269.74 27.39,-350.4 -6.72,-139.99 -10.17,-280.09 -9.53,-420.25 1.3,-282.09 12.91,-502.07 75.77,-768.23l-499.91 -9.69c-1.27,-111.35 -10.27,-31.65 30.92,-59.63 0,-152.12 -6.38,-84.83 34.91,-139.39l455.08 -2.63c199.08,34.66 64.94,-38.45 138.32,72.23 49.37,-2.46 56.35,8.24 106.2,-11.57 80.86,-32.15 43.07,-18.69 90.73,-58.03 1.1,-5.71 -66.28,-72.86 49.37,-25.75 111.89,45.59 -20.56,-72.9 67.85,60.46 289.73,-3.03 98.44,-6.12 174.36,-69.61 -17.33,-7.24 -189.95,-53.69 10.46,-33.39 129.2,13.08 63.6,-15.05 129.33,68.11 258.42,0 61.7,15.09 139.45,-69.61 -105.48,-44.15 -76.42,-11.6 9.21,-30.89 39.12,-8.81 121.89,-4 165.49,-4 6.97,-4.58 16.71,-20.88 20.68,-14.06 4.25,7.29 17.65,-10.66 23.49,-12.65 3.15,-1.06 94.44,-24.39 95.46,-24.58 83.32,-48.97 46.93,-49.48 139.61,-29.55l34.92 -3931.82c0,-349.85 96.32,-1068.22 -90.65,-1256.13 -19.67,334.9 109.27,1285.87 -45.16,1503.07l-41.31 -1402.73c-286.42,-92.29 -562.94,-203.06 -911,-179.76 -59.48,421.67 53.78,1172.31 -65.88,1466.85 -112.05,-151.25 -63.32,-637.62 -62.38,-864.04 0.68,-163.43 6.25,-326.87 5.89,-490.19 -0.69,-323.84 -17.27,-157.66 102.53,-347.23 -169.53,-12.72 -275.02,-35.37 -497.65,-35.05 -210.58,0.31 -334.76,12.71 -494.3,29.48 -343.93,36.18 -663.45,40.46 -1040.67,40.46z"/>
   <path class="fil16" d="M1461.12 17398.01c135.62,10.19 253.47,38.42 351.91,78.42l-1.06 218.66 -324.74 6.37 -26.11 -303.45zm17.81 -2729.41l-34.38 -270.23 393.97 -1.11 -52.09 266.83 -307.5 4.51zm3916.61 -1463.29c-205.89,-48 -357,-156.38 -383.09,-371.85l368.71 -13.77 14.38 385.62zm-1575.2 -371.02c10.03,-242.32 44.78,-237.21 306.42,-237.39 158.07,-0.1 391.98,-12.14 543.22,6.35l24.08 216.65 -873.72 14.39zm-634.48 -7.49c61.01,-115.27 107.58,-239.44 209.44,-314.04 68.18,188.3 202.83,18.08 209.43,314.04 -184.46,0 -275.61,-55.59 -418.87,0zm1633.1 -67.04c-112.83,-110.13 5.66,-73.71 9.1,-79.71 91.16,-24.85 61,-23.12 96.72,109.8 -64.65,-8.55 -59.1,15.52 -105.82,-30.09zm-1319.12 -316.78c-485.03,148.03 -277.9,-20.06 -488.51,418.71 -337.41,0 -674.92,0.82 -1012.31,-0.05 -868.58,-2.23 -590.07,266.22 -592.54,871.55 -0.72,174.75 -1.02,349.45 -0.81,524.22 0.46,373.2 -34.95,625.47 -34.91,1011.87 0.05,559.5 96.99,3772.77 -34.91,4047.55 208.55,-17.35 59.9,-55.45 244.34,-104.68 -35.21,-131.84 -67.36,-101.48 -139.61,-209.35 79.67,6.78 91.16,10.89 139.61,31.16 62.59,-65.12 54.11,-103.13 51.56,-273.98l5.59 -991.08c251.5,-18.86 199.2,23.29 219.39,83.49 40.7,121.38 18.44,189.76 88.7,292.72l180.31 8.38c57.32,-91.33 111.14,-238 187.48,-331.29l1980.24 194.78c20.7,188.84 -32.75,269.55 80.59,332.22l25.64 -762.43 -7.13 -141.17 -102.98 184.73 -989.96 -85.42c173.41,10 800.44,112.91 995.07,168.83l14.31 254.64c-488.11,-62.57 -1775.5,-126.74 -2112.26,-241.78l-69.08 -241.52c272.05,21.08 314.7,55.63 549.1,4.3 -417.6,-74.02 -308.47,24.58 -570.35,-142.92 -59.78,315.17 108.55,474.26 47.28,724.2l-235.11 32.65c-7.08,-221.95 -53.78,-860.56 -3.05,-1022.88 -22.08,-39.51 39.05,-46.43 -49.04,-24.47 -22.3,133.25 -68.6,290.12 -181.21,335.97 -192.63,-324.4 -98.98,-841.54 -80.23,-1248.96 20.93,-454.81 -3.71,-937.56 1.14,-1397.45l147.24 -28.18c58.54,71.26 34.74,306.06 176.62,373.43 -104.47,-280.2 -62.1,-662.05 6.87,-968.74 -119.59,88.27 -54.26,96.01 -147.29,229.09 -166.1,-5.59 -160.84,7.23 -189.27,-152.57 -44.58,-250.5 -18.54,-618.73 47.68,-848.36 -108.04,-79.34 -100.28,-25.89 -213.02,-89.38 31.94,-105.87 42.29,-91.29 107.7,-192.55 75.95,-117.57 27.84,-99.45 161.11,-139.53l51.63 275.72c171.74,-129.32 508.14,-87.76 802.1,-94.75 445.51,-10.6 2457.59,-100.86 2598.85,54.41 111.94,310.19 33.5,949.93 36.13,1327.36 -225.18,-20.81 -298.62,-63.05 -443.28,-88.83 -199.21,359.08 48.77,447.7 -1.59,787.43 100,-79.71 87.13,-160.99 137.44,-267.99l247.82 4.29c139.55,726.71 -14.72,1775.41 -0.5,2545.97l106.15 -121.87c4.93,-7.4 10.6,-17.29 14.95,-24.14l34.57 357.82 -302.03 81.23c296.75,55.11 559.96,-42.91 839.23,-63.25 -99.63,452.7 -603.75,395.91 -964.09,290.85l-143.88 -71.86c21.7,-170.24 27.17,-110.42 151.79,-219.72 -257.19,-112.93 174.8,-223.19 -217.21,-451.4 -127.07,34.31 -124.98,12.85 -169.47,112.04l253.55 -18.48c2.87,276.97 -113.93,367.54 -104.89,574.92 11.72,268.78 177.35,186.52 49.38,553.54 140.47,-130.27 97.32,-196.46 79.72,-410.19l387.75 23.72c-19.12,434.88 32.37,961.42 -112.26,1338.02l277.26 -58.03 23 423.77 193.63 20.51c-0.6,-167 -21.07,-51.65 34.76,-140.59 -112.37,-55.39 -160.51,-205.91 -181.29,-322.7l156.51 42.84c-21.56,-208.28 -49.53,-1005.04 22.78,-1221.47 53.25,-159.31 107.37,-133.57 285.87,-158.89 -2.76,143.18 0.23,1051.94 -36.34,1146.03 -30.62,78.74 -115.99,120.49 -182.57,208.92l63.75 98.34c48.93,55.36 23.61,3.81 76.01,63.88 288.06,87.91 1117.11,35.6 1500.78,34.68l571.36 11.93c-37.17,-28.12 10.29,-13.92 -85.55,-41.74 -38.05,-11.05 -80.99,-17.44 -117.84,-20.77 -69,-6.23 -156.39,-5.17 -226.98,-5.97 -505.79,-5.66 -1018.09,17.8 -1532.05,-12.37l37.01 -4425.89c7.05,-0.52 26.3,-0.73 33.51,-1.03 8.37,-0.35 25.6,4.86 38.56,6.01 -71.19,-55.67 103.49,-58.2 -114.26,-44.05 -148.39,256.09 -50.76,1105.82 -47.09,1463.76 8.79,855.06 148.92,1107.64 -272.17,1199.35l47.06 -2774.67 603.28 -22.76c5.08,-11.38 18.51,-7.29 26.64,-12.88 -406.68,-90.59 -1154.95,146.61 -1478.6,-98.76l-9.04 -212.29c555.97,-85.69 996.08,39.5 1590.56,-7.59l-57.27 -430.6c-4.98,157.36 26.74,244.68 -52.18,387.66l-621.16 16.47c-36.35,-306.44 -71.73,-1139.41 60.54,-1392.29 62.02,-12.72 945.92,67.86 779.95,-245.8 -288.37,0 -550.89,-69.78 -884.67,-69.78 94.28,140.73 148.09,327.9 -104.72,348.92 -68.51,-142.73 -0.23,-244.35 69.82,-348.92 -6.79,-3.59 -83.95,-41.53 -92.76,-48.31 -70.42,-54.14 -29.73,-8.82 -81.77,-84.77l-67.87 48.99c-6.82,3.43 -16.66,7.48 -23.83,10.47 -6.98,2.91 -17.19,5.17 -24.19,7.58 -53.53,18.42 -19.75,-30.71 -114.52,30.97 44.66,-60.22 90.98,103.91 32.16,-138.51l-80.99 72.96c-168.86,-165.8 -201.5,-252.77 -498.27,-310.14 -251.84,-48.7 -515.91,-31.24 -776.86,-26.11l-17.61 84.56 -278.2 -31.51z"/>
   <path class="fil16" d="M9709.06 19847.64c111.57,32.12 243.59,93.96 272.91,213.54 55.02,224.36 -88.27,222.09 -271.31,204.14l-1.6 -417.68zm483.66 655.54l-283.96 0c-29.27,-7.69 -49.02,-19.89 -54.74,-38.02 -53.18,-168.81 -30.12,107.09 19.26,-36.35 0.45,-1.3 101.92,-24.52 -84.5,-102.99 -299.47,-126.05 -100.71,75.86 -633.33,73.85 -144.08,-0.55 -233.39,2.22 -366.71,-20.77 -162.46,-28.03 -183.57,-39.35 -297.2,-15.29l24.27 -290.38c1.17,-13.24 5.91,-16.94 10.64,-24.49 179.11,196.95 302.81,214.97 669.47,220.44 -18.49,-230.65 22.61,-297.35 -177.2,-363.33 -263.03,-86.87 -262.82,0.78 -422.47,78.88 38.59,-154.48 44.44,-72.2 125.2,-194.5 52.24,-79.1 51.22,-122.2 75.81,-194.26 -173.98,-75.29 -683.6,-20.77 -915.78,-20.77l-40.7 -997.39c12.83,-310.75 -1.44,-722.97 -10.51,-1040.61 -10.22,-357.73 -90.35,-593.22 100.88,-872.85 33.44,387.61 -134.36,2587.47 86.17,2754.78 186.38,97.03 667.49,27.96 922.5,86.4l-81.27 225.02c100.58,50.4 128.98,41.25 214.84,87.34 87.88,47.18 94.8,74.54 186.07,112.35 43.22,-70.95 16.44,-66.37 70.77,-121.23 42.42,-42.83 7.9,-7.43 60.93,-45.66l68.26 -233.48 329.44 52.76c-38.4,-88.43 33.17,-68.44 -119.69,-120.83 -116.11,-39.79 -107.06,-23.05 -217.87,-6.46l3.78 -59.91 392.42 -7.41c-74.47,369.31 -19.53,329.42 179.89,530.83 172.58,-95.1 72.89,-140.79 373.78,-162.53 14.35,-41.43 22.17,-303.06 247.02,-189.13 152.71,77.38 61.53,37.17 42.41,64.87l-139.61 -1.2c28.39,121.83 80.95,191.22 139.61,279.68 -262.68,-32.99 -334.08,-36.59 -577.75,50l-17.43 285.38 559.97 -65.37c66.72,-268.69 16.05,-189.19 105.02,-246.36 31.58,155.34 34.92,197.32 34.92,394.52 -165.21,110.6 -37.53,76.88 -292.67,126.16 -41.13,7.95 -174.56,33.51 -309.94,48.31zm-640.91 -224.01c-162.01,-30.52 -279.02,-25.53 -249.6,-221.04 20.51,-136.2 101.95,-178.09 258.55,-185.43l-8.95 406.47zm93.49 -339.97c-76.35,-114.9 -78.98,-130.71 -99.36,-309.94l208.7 -15.66c-13.31,75.28 -23.86,121.6 -44.02,189.1 -2.94,9.85 -21.29,68.32 -23.67,73.89 -26.71,62.26 -9.35,24.22 -41.65,62.61z"/>
   <path class="fil16" d="M16735.69 18688.94l63.38 173.88c146,-27.74 282.78,-90.63 420.4,-137.89 207.76,-71.36 291.1,-53.76 380.74,-175.57 -111.01,-82.1 -48.15,-1258.55 -66.73,-1499.52l-760.67 113.25c45.27,440.61 75.88,1063.9 47,1513.11 -57.14,27.7 -18.33,15.51 -84.12,12.74z"/>
   <path class="fil16" d="M4981.17 19757.03c-33.08,-150.44 11.41,-241.71 54.52,-333.46 -505.89,172.38 -2634.52,-337.67 -3385.69,-291.89 17.85,87.8 26.77,87.39 34.92,185.15l-138.28 -39.17 -1.35 318.31c84.6,40.58 434.53,136.81 558.48,139.57 31.03,-133.13 73.7,-146.02 104.73,-279.15 492.55,0 2057.12,391.88 2772.67,300.64z"/>
   <path class="fil16" d="M15579 12163.57l-38.47 32.67c-4.5,4.39 -12.7,12.98 -17.52,17.87l-85.21 85.72c-56.13,-34.74 -102.42,-60.37 -189.61,-81.57l119.79 -201.43 211.02 146.74zm0 0c161.57,-4.58 139.6,-25.4 211.71,-139.3 -7.86,-5.48 -19.51,-9.92 -25.85,-12.51l-82.56 -31.63c-152.07,-41.85 -178.32,-7.13 -251.55,43.9 -110.95,-207.23 -255.71,-156.35 -435.09,-22.93l-5.52 334.79c206.42,162.93 416.41,352.8 827.5,348.38 -82.78,-85.57 -189.72,-112.96 -291.34,-158.11 53.13,-33.13 -2.12,-17 78.47,-27.87l200.75 22.7c-58.69,-131.49 -122.4,-244.18 -226.52,-357.42z"/>
   <path class="fil16" d="M2150.48 14458.01c766.43,-64.93 1441.29,58.06 2202.47,31.03l-10.61 331.57 -2166.12 -119.01 -25.74 -243.59zm-10.91 -194.01c-146.55,419.86 -43.43,372.55 -7.45,786.17l-147.3 88.39 146.18 2.4c65.11,-172.63 48.05,-234.45 32.95,-413.58 747.01,104.28 1368.39,93.06 2117.02,140.49 114.31,309.84 16.17,411.32 376.37,432.98l90.33 -110.78c-115.42,62.71 -175.16,56.98 -305.2,17.25 -134.42,-279.27 6.42,-734.89 26.06,-1036.67 -101.67,141.94 -54.15,109.21 -130.78,262.19 -206.67,26.2 -1959.84,-23.75 -2107.02,-69.52l-27.17 -253.41c-4.12,8.25 -7.88,19.99 -10.18,25.73l-20.62 51.71c-3.48,8.54 2.08,119.87 -21.65,51.32 -1.74,-5.06 -6.98,17.25 -11.54,25.33z"/>
   <path class="fil16" d="M6182.35 15032.71l386.06 -26.66 38.89 -257.72c57.25,-128.99 124.56,-124.79 149.44,-316.47 -255.2,-386.31 -162.56,-452.67 -140.25,-978.63 -7.21,-196.21 6.82,-120.44 -189.71,-214.65 5.46,310.06 -16.35,666.2 22.03,967.6 50.67,397.98 113.66,449.02 -31.94,800.32l-82.54 -165.9c-19.67,-89.61 11.53,-66.88 -31.37,-169.2 -76.64,434.28 -3.84,197.52 -299.23,358.76l178.62 2.55z"/>
   <path class="fil16" d="M6670.29 14951.09c71.67,43.64 54.99,47.09 247.5,29.81 85.18,-7.64 150.18,-13.44 245.95,-19.34l452.63 -28.66c74.84,13.59 27.97,2.62 69.77,29.18 -84.1,62.46 -94.94,49.74 -215.44,80.79l262.17 31.63c18.93,-219.83 4.06,-154.07 73.17,-246.81 90.87,296.47 -31.84,706.17 130.12,855.98l-9.7 -707.31 140.88 -132.09c-496.85,-30.04 -954.11,126.03 -1397.05,106.82z"/>
   <path class="fil16" d="M16502.69 18953.04c-28,34.32 3.03,28.63 -81.51,55.55 -0.06,0.01 -76.2,10.04 -84.67,10.73l-725.45 3.67c-182.57,-1.58 -731.03,-63.21 -884.45,14.7 228.11,0 300.48,35.28 500.61,36.03 174.6,0.66 349.97,-1.13 524.72,-1.13 325.31,0 737.71,33.73 1005.63,-34.9l-158.02 -104.29 -24.41 -493.22c-43.75,127.76 -1.7,398.24 -72.45,512.86z"/>
   <polygon class="fil16" points="6594.1,12933.74 6495.08,12924.73 6467.51,13200.46 6603.91,13200.61 "/>
   <path class="fil16" d="M9827.11 1037.54c-35.77,-154.88 -48.09,-211.76 -214.21,-219.91 46.15,56.72 67.16,64.54 102.15,107.34 106.81,130.64 -45.5,39.12 112.06,112.57z"/>
   <path class="fil16" d="M4680.48 18472.02l-237.66 -35.58c11.64,133.6 156.6,112.5 237.66,35.58z"/>
   <path class="fil17" d="M11866.86 16038.26l185.25 -177.34 105.63 107.75c44.85,30.15 89.18,43.07 155.83,55.55l-12.12 199.64 111.34 -44.12c80.12,-90.25 335.6,-439.45 364.66,-561.53l-573.96 -325.04c-204.08,-122.38 -380.5,-251.7 -570.44,-361.91 -76.34,76.98 -414.34,612.63 -444.37,721.84 442.41,198.88 345.03,193.61 678.18,385.16z"/>
   <path class="fil18" d="M4088.43 16008.99c28.16,-116.25 20.52,-138.69 347.25,-227.17 187.93,-50.89 70.36,-12.43 118.13,10.86 -26.05,141.82 55.63,40.43 -71.01,109.8l-394.37 106.51zm-320.86 86.28l693.98 153.26c106.25,-153.95 336.91,-454.32 392.4,-597.45l-686.28 -170.99c-117.81,191.39 -315.66,409.56 -400.1,615.18z"/>
   <path class="fil19" d="M7167.44 16628.55c25.92,25.27 23.59,8.54 47.18,57.5 11.54,23.96 18.54,48.27 27.11,79.74 121.56,445.58 -16.26,583.21 -422.23,493.94 -9.98,-174.17 35.44,-167.45 72.63,-310.37l-174.24 112.37 -19.48 181.02c98.91,238.18 489.55,78.86 590.4,-35.91 194.38,-221.23 91.29,-498.46 -109.65,-612.66l-50.2 30.3 38.48 4.07z"/>
   <path class="fil20" d="M6717.89 17061.73l174.24 -112.37 89.87 -179.55 7.6 -89.11 -216.92 48.59c-41.87,94.95 -59.89,196.86 -54.79,332.44z"/>
   <path class="fil21" d="M5564.34 19669.23l80.23 -103.25 -77.1 -166.99 -27.91 -9.62 -156.51 -42.84c20.78,116.79 68.92,267.31 181.29,322.7z"/>
  </g>
 </g>
</svg>
