<?xml version="1.0" encoding="UTF-8"?>
<!DOCTYPE svg PUBLIC "-//W3C//DTD SVG 1.1//EN" "http://www.w3.org/Graphics/SVG/1.1/DTD/svg11.dtd">
<!-- Creator: CorelDRAW 2017 -->
<svg xmlns="http://www.w3.org/2000/svg" xml:space="preserve" width="6.7732mm" height="6.7732mm" version="1.1" style="shape-rendering:geometricPrecision; text-rendering:geometricPrecision; image-rendering:optimizeQuality; fill-rule:evenodd; clip-rule:evenodd"
viewBox="0 0 677.32 677.32"
 xmlns:xlink="http://www.w3.org/1999/xlink">
 <defs>
  <style type="text/css">
   <![CDATA[
    .str0 {stroke:#E10A72;stroke-width:7.62;stroke-linecap:round;stroke-linejoin:round;stroke-miterlimit:22.9256}
    .fil0 {fill:none}
    .fil3 {fill:#FEFEFE}
    .fil1 {fill:#E10A72}
    .fil2 {fill:#E10A72;fill-rule:nonzero}
   ]]>
  </style>
 </defs>
 <g id="Capa_x0020_1">
  <metadata id="CorelCorpID_0Corel-Layer"/>
  <rect class="fil0" x="-0" y="-0" width="677.33" height="677.33"/>
  <path class="fil1" d="M213.86 286.4c1.4,-2.44 -0.49,-0.89 2.3,-1.67l49.97 -0.23c0.29,0 3.21,0.02 3.29,0.02 5.75,0.93 1.68,0 3.57,1.53 5,6.7 6.54,18.23 12.8,23.73 2.98,-7.3 10.52,-15.96 13.87,-24l24.71 -0.45c-1.35,5.5 -14.89,27.87 -19.6,35.91 -2.6,4.44 -5.58,7.25 -3.27,11.7 4.08,7.89 25.47,40.94 26.11,46.16l-26.39 0.1c-5.3,-9.18 -10.67,-19.32 -15.2,-28.38 -4.92,4.09 -12.56,22.13 -17.76,28.25l-44.17 0.15c-2.97,-19.94 2.51,-48.6 -0.45,-69.31l-17.73 68.98 -18.96 0.33c-4.68,-10.52 -12.94,-59.22 -17.43,-69.22 -2.52,16.99 -0.02,49.96 -0.04,68.79l-21.11 0.17 0 -93.29c7.44,-0.6 26.44,-1.34 32.91,0.63 2.65,8.46 5.34,19.5 7.52,27.95 1.29,5.06 2.6,9.36 3.96,14.45 1.17,4.32 1.56,11.64 4.83,13.91l16.25 -56.2 0.02 -0.01zm-92.33 -21.12c0,20.56 -1.65,123.05 1.08,134.79l218.49 0c2.74,-11.73 1.09,-114.23 1.09,-134.79 0,-2.49 -0.76,-3.25 -3.26,-3.25l-214.12 0c-2.5,0 -3.26,0.76 -3.26,3.26l-0.02 -0.01z"/>
  <path class="fil1" d="M145.43 547.89c-1.28,-2.03 -1.22,2.42 -0.89,-2.17 0.15,-2.32 0.14,-0.96 0.89,-2.16l0 4.35 0 -0.02zm0 0c0.16,0.24 0.31,0.33 0.35,0.74 0.05,0.41 0.27,0.58 0.35,0.74l16.7 51.78c27.76,0 17.19,1.83 22.67,-11.04l5.73 -17.09c0.99,-2.93 1.42,-5.85 2.49,-9.48 1.8,-6.21 4.84,-10.3 5,-17.82 3.47,2.54 1.56,-0.77 2.22,4.3 0.19,1.47 -0.02,5.87 -0.03,7.65l-0.03 43.49 20.64 0 0.03 -67.41c0.19,-14.13 3.41,-10.85 -31.54,-10.85 -3.53,6.64 -15.23,43.25 -15.23,49.99l-2.16 0.01c-0.1,-4.28 -13.56,-46.86 -15.23,-50 -40.17,0 -32.6,-7.57 -32.6,32.61 0,10.86 0.05,21.75 0,32.62 -0.1,15.57 -2.91,13.04 19.56,13.04 3.02,-12.96 1.08,-37.79 1.08,-53.27l0 -0.01z"/>
  <path class="fil1" d="M445.46 322.9l89.12 -13.04c2.83,0 6.53,1.59 9.39,2.55 5.16,1.72 8.37,3.99 12.25,8.41 0.03,0.03 1.23,1.64 1.39,1.86 2.27,3.23 2.08,4.51 6.32,5.66 3.8,-7.17 5.91,-10.23 6.55,-20.67 0.79,-13 0.19,-21.47 -7.62,-31.54l-1.49 -1.76c-6.98,-8.12 -15.89,-12.34 -26.79,-12.34 -7.34,0 -37.35,-1.8 -41.82,1.67l-23.88 29.39c-0.74,0.87 -1.01,1.16 -1.51,1.74l-16.23 19.62c-2.04,2.46 -4.84,5.33 -5.68,8.47l0 -0.02z"/>
  <path class="fil1" d="M509.58 564.2c0,-8.83 2.61,-26.09 14.14,-26.09 8.25,0 10.22,-1.4 16.15,7.75 4.89,7.55 4.5,24.02 0.27,31.49 -7.84,13.93 -21.9,9.05 -26.44,1.18 -1.49,-2.58 -4.13,-10.59 -4.13,-14.36l0.01 0.03zm-21.74 -4.34c0,16.35 3.99,32.55 20.3,39.5 13.77,5.87 31.21,5.48 42.95,-3.43 0.78,-0.57 1.61,-1.22 2.4,-1.94 0.27,-0.23 5.35,-5.07 8.16,-11.4 6.32,-14.14 5.64,-30.47 -1.34,-44.13 -9.16,-17.96 -31.7,-21.42 -51.47,-14.1 -14.26,5.29 -21.02,20.76 -21.02,35.51l0.02 -0.01z"/>
  <path class="fil1" d="M324.79 560.95c-2.25,3.37 -3.83,6.39 -6.16,10.15l-12.93 19.68c-1.4,2.31 -1.47,2.56 -2.98,4.63 -2,2.76 -2.02,1.82 -2.93,5.77l23.9 0 10.03 -20.42c1.78,-3.2 2.65,-3.5 3.03,-7.84 3.45,2.54 14.78,26.36 15.23,28.26l25 0c-0.35,-4.26 -3.57,-7.76 -5.6,-10.71l-19.41 -30.6 2.81 -3.7c3.3,-5.21 19.08,-29.27 20.01,-33.26l-22.82 -0.01 -5.64 11.76c-1.59,3.58 -4.79,8 -5.23,13.25l-10.58 -18.78c-1.23,-2.58 -2.24,-3.72 -3.56,-6.22l-23.9 -0.01c1.18,5.12 1.8,5.7 4.65,9.48l11.7 18.73c2.23,3.47 4.23,4.9 5.37,9.84l0.01 0z"/>
  <path class="fil1" d="M235.67 526.16l0 71.74c0,2.49 0.75,3.25 3.26,3.25l53.26 0c0,-21.06 6.26,-16.31 -33.71,-16.31l0 -16.32 30.44 0 0 -15.23 -30.43 0 0 -15.22 29.34 0c4.44,0 3.26,-3.41 3.26,-11.95 0,-2.49 -0.75,-3.25 -3.26,-3.25l-48.91 0c-2.5,0 -3.26,0.75 -3.26,3.25l0.01 0.04z"/>
  <path class="fil1" d="M518.28 444.62c0,-2.77 1.72,-0.17 0.63,0 -0.02,0 -0.63,3.04 -0.63,0zm-15.21 -20.64l0 66.31 16.31 0 0 -43.49c1.01,1.16 -0.02,-0.37 1.4,1.86 3.04,4.8 17.9,38.24 18.17,41.6l22.81 0 0 -66.31c0,-4.53 -3.77,-3.25 -13.03,-3.25 -6.57,0 -4.36,12.11 -4.35,18.48 0,7.98 0,15.94 0,23.92 -4.29,-3.15 -0.27,-0.58 -5.58,-10.71 -1.95,-3.74 -2.97,-7.38 -4.92,-11.39 -11.5,-23.91 -3.44,-20.28 -27.54,-20.28 -2.49,0 -3.26,0.75 -3.26,3.26l-0.01 0z"/>
  <path class="fil1" d="M418.28 555.51c0,13.2 -0.51,28.07 12.38,37.61 3.37,2.5 8.02,5.62 11.72,6.75 23.52,7.19 26.87,1.56 43.28,0.19 0,-7.6 -1.08,-10.62 -1.08,-18.48 -9.07,0.75 -8.12,4.34 -20.65,4.34 -24.35,0 -32.64,-32.9 -13.16,-44.67 14.09,-8.51 30.92,1.32 32.31,0.6 1.86,-0.97 2.52,-14.03 2.58,-16.79 -12.28,-2.87 -26,-7.42 -41.03,-1.9 -7.81,2.87 -6.7,2.11 -12.71,6.86 -7.65,6 -13.66,14.74 -13.66,25.47l0.02 0.02z"/>
  <path class="fil1" d="M122.62 490.29c23.38,0 18.48,5.73 18.48,-28.26l17.39 -0.01 0 28.26c12.36,0 18.48,1.74 18.48,-3.26 0,-13.92 1.42,-55.58 -1.08,-66.31 -20.52,0 -17.67,-3.81 -17.34,17.45 0.18,10.25 1.96,8.64 -17.45,8.64 0,-10.01 0.85,-17.72 -1.09,-26.09l-17.39 0.01 0 69.56 0 0.01z"/>
  <path class="fil1" d="M303.06 426.17l0 60.86c0,5.01 6.1,3.26 18.48,3.26l0 -28.26 17.4 -0.01c0,33.99 -4.9,28.26 18.48,28.26l0 -66.31c0,-4.63 -4.17,-3.26 -14.14,-3.26 -6.76,0 -4.34,12.65 -4.34,26.09l-17.4 0.01c0,-31.3 4.17,-26.09 -17.39,-26.09 -0.57,2.44 -1.09,2.49 -1.09,5.44l0 0.01z"/>
  <path class="fil1" d="M398.72 477.25c-20.11,0 -18.35,-43.49 -1.09,-43.49 6.69,0 13.04,7.71 13.04,18.48 0,7.9 -1.01,25.01 -11.95,25.01l0 0zm-32.63 -26.1c0,12.69 -0.11,21.12 8.04,31.1 10.5,12.86 38.39,12.53 48.53,-1.71 2.22,-3.14 4.3,-7.01 5.12,-11.18 3.25,-16.54 2.92,-13.07 -0.19,-27.51 -1.36,-6.21 -5.49,-12.18 -10.12,-15.98l-4.02 -2.49c-0.21,-0.12 -0.49,-0.28 -0.7,-0.39 -7.77,-4.17 -21.68,-4.86 -29.5,-0.35 -4.83,2.79 -9.48,5.87 -12.03,10.79l-2.4 5.19c-1.61,3.66 -2.7,7.74 -2.7,12.51l-0.03 0.02z"/>
  <path class="fil1" d="M475.89 256.59l11.95 0c1.3,-5.52 -0.09,-10.81 -2.28,-16.2 -6.63,-16.37 -24.97,-12.06 -50.99,-12.06l-52.25 0.08c-12.78,-0.04 -15.78,-9.38 -21.67,-10.95 0,16.31 10.01,29.78 24.48,33.12 5.77,1.34 64.58,0.64 76.61,0.57 8.56,-0.06 12.48,-1.67 14.12,5.44l0.03 0z"/>
  <path class="fil1" d="M447.62 423.98l0 66.31 43.49 0c4.34,0 3.26,-3.09 3.26,-10.87 0,-5.73 -12.32,-3.26 -28.26,-3.26l0 -14.13 25 -0.01c1.59,-6.82 1.59,-7.32 0,-14.14l-25 0 0 -11.95c10.09,0 18.77,0.87 27.18,-1.08 0,-17.88 7.22,-14.14 -42.39,-14.14 -2.49,0 -3.25,0.75 -3.25,3.26l-0.03 0.01z"/>
  <path class="fil1" d="M186.75 423.98l0 66.31 45.66 0 0 -14.14c-32.02,0 -27.18,3.81 -27.18,-14.14l25.01 -0.01 0 -14.13 -25.01 -0.01 0 -11.95 26.1 0c1.61,-6.87 1.61,-8.35 0,-15.23l-35.94 -0.06c-4.61,-0.08 -8.64,-1.07 -8.64,3.33l0 0.03z"/>
  <path class="fil1" d="M271.52 491.37c28.85,0 22.82,0.54 22.82,-18.48 -0.03,0 -35.87,14.3 -35.87,-17.4 0,-18.61 15.34,-22.78 23.07,-20.97 4.95,1.14 7.25,3.21 11.72,3.58 1.28,-5.5 1.08,-8.41 1.08,-15.23 -10.38,-2.42 -22.16,-5.87 -34.26,-0.58 -4.53,1.98 -7.03,3.03 -10.62,6.78 -2.75,2.91 -5.52,6.28 -6.95,10.44 -4.15,12.07 -3.91,16.49 -0.97,28.56 0.45,1.82 1.44,4.92 2.27,6.42 5.43,10.02 15.95,16.86 27.72,16.86l-0.01 0.02z"/>
  <path class="fil1" d="M359.58 397.9c3.9,-1.04 4.3,-2.59 8.23,-6.97l40.8 -46.16c3.33,-3.43 9.66,-9.05 10.75,-13.16 -3.12,-1.65 -5.41,-2.44 -8.41,-4.63 -3.18,-2.33 -4.46,-3.31 -7.91,-5.15 -1.82,1.22 -1.8,1.34 -3.6,2.9l-27.95 25.32c-1.51,1.45 -1.45,1.63 -3.26,3.26 -12.32,11.22 -8.66,5.31 -8.66,44.59l0.01 0z"/>
  <polygon class="fil1" points="386.76,601.16 408.5,601.16 408.5,522.9 386.76,522.9 "/>
  <path class="fil1" d="M390.02 265.28c0,12.15 5.04,26.79 11.78,36.05 2.98,4.11 7.94,8.86 11.97,11.95 3.93,3.03 11.1,7.41 15.38,8.53 2.62,-1.75 1.74,-1.23 3.87,-3.72 4.63,-5.47 10.06,-9.92 11.34,-14.74 -14.31,-3.33 -25.69,-11.06 -30.61,-24.84 -1.35,-3.8 -2.01,-10.85 -2.01,-16.46l-21.74 0 0 3.26 0.02 -0.03z"/>
  <path class="fil1" d="M247.65 371.15c3.78,-5.66 23.34,-39.19 23.46,-40.82 0.35,-4.68 -20.57,-34.63 -22.97,-42.19 -1.44,0.91 -1.65,-2.19 -1.53,8.64 0.17,14.94 -1.56,67.9 1.07,74.36l-0.03 0.01z"/>
  <path class="fil1" d="M424.81 267.45c0,9.03 10.65,22.82 22.82,22.82 10.46,0 18.39,-1.45 24.97,-13.07 2.73,-4.81 2.19,-9.57 2.19,-15.19l-14.13 0c0,6.16 -1.02,14.12 -11.95,14.12 -1.83,0 -5.79,-2.88 -6.72,-4.14 -1.91,-2.61 -1.97,-5.7 -1.97,-9.98l-15.23 0 0 5.44 0.02 0z"/>
  <path class="fil1" d="M359.58 313.11l0 29.35c3.49,-0.81 2.65,-0.62 5.02,-2.6l8.19 -7.03c3.41,-3.08 21.58,-15.92 21.58,-19.74l-9.78 -15.23 -25.01 15.23 0 0.02z"/>
  <path class="fil1" d="M359.58 297.89c7.23,-0.16 14.09,-7.08 20.65,-7.62 0,-6.57 -1.51,-9.18 -2.04,-14.25 -1.58,-15.46 6.26,-13.99 -18.61,-13.99l0 35.88 0 -0.02z"/>
  <path class="fil1" d="M255.23 519.63c13.97,0 10.15,1.84 23.67,-8.93 2.7,-2.13 4.69,-2.6 5.68,-6.28l-21.73 0c-2.35,4.44 -6.48,10.33 -7.62,15.23l0 -0.02z"/>
  <path class="fil1" d="M247.65 371.15c-2.6,-6.45 -0.89,-59.41 -1.07,-74.36 -0.11,-10.83 0.09,-7.73 1.53,-8.64 -0.03,-2.81 -1.25,-1.32 1.67,-2.19l23.21 0.12c-1.88,-1.56 2.19,-0.63 -3.56,-1.53 -0.08,-0.03 -3,-0.03 -3.3,-0.03l-49.96 0.24c-2.77,0.78 -0.91,-0.78 -2.3,1.67l31.28 -0.43 0.08 87.95c2.88,-1.82 1.41,-0.95 2.42,-2.79l0 -0.01z"/>
  <g>
   <polygon class="fil0 str0" points="81.86,30.72 595.46,30.72 595.46,191.96 81.86,191.96 "/>
   <polygon id="1" class="fil1" points="81.86,30.72 595.46,30.72 595.46,191.96 81.86,191.96 "/>
  </g>
  <g>
   <path class="fil2" d="M595.47 194.77l-513.61 0 0 -5.62 513.61 0 3.81 2.81 -3.81 2.81zm0 -5.62c2.1,0 3.81,1.26 3.81,2.81 0,1.55 -1.71,2.81 -3.81,2.81l0 -5.62zm-3.81 399.03l0 -396.22 7.62 0 0 396.22 0 0 -7.62 0zm7.62 0c0,1.55 -1.71,2.81 -3.81,2.81 -2.1,0 -3.81,-1.26 -3.81,-2.81l7.62 0zm-82.94 61.22l0 -5.62 0 0 3.87 -0.08 3.8 -0.21 3.76 -0.36 3.7 -0.49 3.62 -0.62 3.57 -0.76 3.5 -0.87 3.41 -1 3.34 -1.11 3.24 -1.24 3.16 -1.34 3.06 -1.45 2.96 -1.55 2.84 -1.66 2.74 -1.75 2.63 -1.85 2.49 -1.93 2.37 -2.02 2.25 -2.11 2.1 -2.18 1.96 -2.25 1.83 -2.34 1.67 -2.39 1.51 -2.46 1.35 -2.52 1.19 -2.58 1.02 -2.63 0.84 -2.69 0.66 -2.72 0.49 -2.78 0.29 -2.81 0.1 -2.85 7.62 0 -0.1 3.13 -0.33 3.11 -0.53 3.06 -0.74 3 -0.92 2.95 -1.12 2.91 -1.31 2.84 -1.49 2.78 -1.67 2.72 -1.85 2.63 -1.99 2.56 -2.16 2.49 -2.32 2.4 -2.47 2.31 -2.61 2.22 -2.75 2.13 -2.89 2.03 -3 1.93 -3.14 1.82 -3.26 1.71 -3.36 1.59 -3.46 1.48 -3.58 1.36 -3.68 1.23 -3.77 1.1 -3.84 0.97 -3.93 0.82 -4 0.7 -4.08 0.53 -4.14 0.4 -4.2 0.23 -4.25 0.08 0 0zm0 0c-2.1,0 -3.81,-1.26 -3.81,-2.81 0,-1.55 1.71,-2.81 3.81,-2.81l0 5.62zm-355.35 -5.62l355.35 0 0 5.62 -355.35 0 0 0 0 -5.62zm0 5.62c-2.1,0 -3.81,-1.26 -3.81,-2.81 0,-1.55 1.71,-2.81 3.81,-2.81l0 5.62zm-82.94 -61.22l7.62 0 0 0 0.1 2.85 0.29 2.81 0.49 2.78 0.65 2.72 0.85 2.69 1.02 2.63 1.19 2.58 1.35 2.52 1.51 2.46 1.67 2.39 1.83 2.34 1.96 2.25 2.1 2.18 2.25 2.11 2.37 2.02 2.5 1.93 2.61 1.85 2.75 1.75 2.85 1.66 2.94 1.55 3.06 1.45 3.16 1.34 3.25 1.24 3.33 1.11 3.41 1 3.5 0.87 3.57 0.76 3.63 0.62 3.7 0.49 3.76 0.36 3.8 0.21 3.87 0.08 0 5.62 -4.25 -0.08 -4.2 -0.23 -4.14 -0.4 -4.08 -0.53 -4.01 -0.7 -3.93 -0.82 -3.84 -0.97 -3.77 -1.1 -3.67 -1.23 -3.57 -1.36 -3.48 -1.48 -3.36 -1.59 -3.26 -1.71 -3.13 -1.82 -3.01 -1.93 -2.89 -2.03 -2.74 -2.13 -2.61 -2.22 -2.47 -2.31 -2.32 -2.4 -2.16 -2.49 -1.99 -2.56 -1.85 -2.63 -1.67 -2.72 -1.49 -2.78 -1.31 -2.84 -1.12 -2.91 -0.93 -2.95 -0.73 -3 -0.53 -3.06 -0.33 -3.11 -0.1 -3.13 0 0zm0 0c0,-1.55 1.71,-2.81 3.81,-2.81 2.1,0 3.81,1.26 3.81,2.81l-7.62 0zm7.62 -396.22l0 396.22 -7.62 0 0 -396.22 3.81 -2.81 3.81 2.81zm-7.62 0c0,-1.55 1.71,-2.81 3.81,-2.81 2.1,0 3.81,1.26 3.81,2.81l-7.62 0z"/>
  </g>
  <path class="fil3" d="M197.18 58.59l29.3 0 0 10.31 -18.1 0 0 10.49 18.1 0 0 10.14 -18.1 0 0 10.81 18.1 0 0 10.28 -29.3 0 0 -52.03 0 0zm38.57 0l17.76 0c7.6,0 13.7,2.41 18.33,7.17 4.63,4.77 6.93,11.08 6.93,18.9 0,7.87 -2.38,14.16 -7.15,18.89 -4.75,4.71 -11.11,7.07 -19.07,7.07l-16.8 0 0 -52.03 0 0zm11.21 9.84l0 32.14 4.44 0c4.63,0 8.41,-1.27 11.4,-3.77 2.97,-2.47 4.45,-6.68 4.45,-12.56 0,-3.4 -0.72,-6.43 -2.17,-9.04 -1.43,-2.61 -3.51,-4.41 -6.19,-5.38 -2.71,-0.92 -5.32,-1.39 -7.79,-1.39l-4.14 0zm40.01 -9.84l11.2 0 0 52.06 -11.2 0 0 -52.06zm60.53 2.76l0 12.67c-5.66,-3.36 -10.57,-5.05 -14.79,-5.05 -4.24,0 -7.64,1.45 -10.15,4.37 -2.54,2.89 -3.81,6.8 -3.81,11.73 0,4.64 1.34,8.37 4.01,11.14 2.68,2.79 6.25,4.21 10.72,4.21 3.91,0 8.59,-1.59 14.02,-4.8l0 12.67c-6.09,2.06 -11.19,3.08 -15.25,3.08 -6.99,0 -12.97,-2.58 -17.85,-7.7 -4.88,-5.14 -7.35,-11.43 -7.35,-18.83 0,-7.54 2.5,-13.92 7.49,-19.15 4.97,-5.23 11.04,-7.82 18.17,-7.82 4.6,0 9.51,1.15 14.79,3.49l0 -0.01zm7.89 -2.76l11.18 0 0 52.06 -11.18 0 0 -52.06zm19.94 26.01c0,-7.68 2.55,-14.06 7.63,-19.07 5.09,-5.03 11.13,-7.52 18.09,-7.52 7.72,0 14.1,2.51 19.12,7.55 5.07,5.05 7.59,11.4 7.59,19.1 0,7.66 -2.49,14 -7.5,19.04 -4.99,5.08 -11.27,7.59 -18.87,7.59 -7.59,0 -13.8,-2.51 -18.73,-7.53 -4.92,-5.02 -7.36,-11.41 -7.36,-19.14l0.03 -0.02zm26.28 -16.17c-4.37,-0.1 -7.89,1.39 -10.58,4.49 -2.7,3.11 -4.01,7.08 -4.01,11.98 0,4.63 1.38,8.46 4.11,11.52 2.74,3.03 6.19,4.55 10.35,4.55 4.38,0 7.89,-1.52 10.59,-4.51 2.7,-3.02 4.04,-6.98 4.04,-11.89 0,-4.82 -1.33,-8.74 -3.95,-11.65 -2.64,-2.94 -6.15,-4.44 -10.53,-4.51l-0.02 0.02zm-5.99 -13.33l5.53 -11.86 12.33 0 -10.79 11.86 -7.07 0zm75.94 3.49l10.99 0 0 52.06 -10.87 0 -23.9 -33.7 0 33.7 -11.19 0 0 -52.06 11.06 0 23.91 33.46 0 -33.46zm-285.66 57.7l29.31 0 0 10.29 -18.11 0 0 10.48 18.11 0 0 10.16 -18.11 0 0 10.79 18.11 0 0 10.31 -29.31 0 0 -52.06 0 0.03zm68.04 4.68l-6.98 7.65c-3.7,-2.17 -6.36,-3.25 -7.99,-3.25 -1.27,0 -2.35,0.47 -3.26,1.42 -0.92,0.93 -1.36,2.05 -1.36,3.32 0,2.55 2.34,4.79 7,6.66 3.41,1.46 5.98,2.79 7.74,3.96 1.75,1.2 3.22,2.82 4.41,4.92 1.16,2.09 1.78,4.33 1.78,6.76 0,4.49 -1.83,8.38 -5.44,11.67 -3.6,3.31 -7.88,4.95 -12.82,4.95 -5.41,0 -10.75,-2.53 -16.03,-7.62l7.39 -8.6c3.33,3.41 6.43,5.1 9.32,5.1 1.37,0 2.66,-0.6 3.91,-1.76 1.25,-1.19 1.88,-2.42 1.88,-3.74 0,-2.68 -2.88,-5.12 -8.6,-7.21 -3.28,-1.22 -5.61,-2.37 -6.99,-3.39 -1.4,-1.02 -2.57,-2.58 -3.53,-4.56 -0.95,-1.99 -1.42,-4.03 -1.42,-6.12 0,-4.63 1.52,-8.36 4.54,-11.24 3.02,-2.89 6.99,-4.33 11.86,-4.33 5.76,0 10.6,1.8 14.55,5.41l0.04 0zm9.65 -4.68l17.81 0c4.79,0 8.63,1.39 11.6,4.2 2.93,2.8 4.39,6.46 4.39,11.02 0,2.98 -0.71,5.82 -2.16,8.52 -1.43,2.68 -3.6,4.68 -6.51,6.01 -2.87,1.32 -5.37,2 -7.44,2.05l-6.46 0.17 0 20.04 -11.23 0.02 0 -52.06 0 0.03zm11.05 9.41l0 13.31 4.3 0c1.86,0 3.44,-0.69 4.77,-2.01 1.35,-1.35 1.98,-2.96 1.98,-4.81 0,-2.11 -0.74,-3.73 -2.23,-4.91 -1.48,-1.18 -3.59,-1.76 -6.36,-1.76l-2.45 0.16 -0.01 0.02zm31.89 -9.41l29.31 0 0 10.29 -18.1 0 0 10.48 18.1 0 0 10.16 -18.1 0 0 10.79 18.1 0 0 10.31 -29.31 0 0 -52.06 0 0.03zm77.69 2.74l0 12.66c-5.64,-3.34 -10.56,-5.04 -14.78,-5.04 -4.26,0 -7.62,1.46 -10.17,4.36 -2.53,2.92 -3.79,6.83 -3.79,11.74 0,4.65 1.34,8.39 4.02,11.15 2.66,2.8 6.22,4.2 10.69,4.2 3.91,0 8.61,-1.61 14.03,-4.79l0 12.67c-6.11,2.04 -11.19,3.09 -15.27,3.09 -6.98,0 -12.95,-2.58 -17.84,-7.72 -4.9,-5.13 -7.34,-11.44 -7.34,-18.82 0,-7.56 2.48,-13.91 7.48,-19.14 4.97,-5.23 11.05,-7.83 18.16,-7.83 4.62,0 9.53,1.15 14.79,3.47l0.02 0zm7.89 -2.74l11.2 0 0 52.03 -11.2 0.01 0 -52.04 0 0zm39.67 0l8.78 0 21.2 52.03 -11.3 0.01 -4.17 -10.23 -19.99 0 -4.07 10.23 -11.22 0 20.77 -52.04 0 0zm4.43 17.04l-6.11 15.35 12.38 0 -6.27 -15.35 0 0zm33.66 -17.04l11.19 0 0 40.83 15.27 0 0 11.2 -26.46 0 0 -52.06 0 0.03z"/>
 </g>
</svg>
